<?xml version="1.0" standalone="no"?>
<!DOCTYPE svg PUBLIC "-//W3C//DTD SVG 1.1//EN" "http://www.w3.org/Graphics/SVG/1.1/DTD/svg11.dtd" >
<svg xmlns="http://www.w3.org/2000/svg" xmlns:xlink="http://www.w3.org/1999/xlink" version="1.1">
<metadata>
Created by FontForge 20170731 at Sat Aug  6 21:42:28 2005
 By Aleksey,,,
Ban quyen cua Nguyen Hung Lan - nghglan@yahoo.com. VN Unicode 1, 2: Vu Manh Hung, 05/2004.
</metadata>
<defs>
<font id="HLOngDo" horiz-adv-x="537" >
  <font-face 
    font-family="HL Ong Do"
    font-weight="400"
    font-stretch="normal"
    units-per-em="1000"
    panose-1="2 0 4 0 0 0 0 0 0 0"
    ascent="800"
    descent="-200"
    x-height="293"
    cap-height="578"
    bbox="-424 -760 988 1054"
    underline-thickness="10"
    underline-position="-80"
    unicode-range="U+0020-2026"
  />
<missing-glyph horiz-adv-x="500" 
d="M62 640h375v-640h-375v640zM375 62v515h-250v-515h250z" />
    <glyph glyph-name=".notdef" horiz-adv-x="500" 
d="M62 640h375v-640h-375v640zM375 62v515h-250v-515h250z" />
    <glyph glyph-name=".null" horiz-adv-x="0" 
 />
    <glyph glyph-name="nonmarkingreturn" horiz-adv-x="368" 
 />
    <glyph glyph-name="space" unicode=" " horiz-adv-x="368" 
 />
    <glyph glyph-name="exclam" unicode="!" horiz-adv-x="270" 
d="M92 133q2 8 2 7l-7 16v25l-9 94v49q0 48 4 71l18 114q1 4 1 12v3l7 22l3 27q7 10 6 15v6q0 12 4 29q0 6 1 9l3 1l2 4v2q1 0 1 1l-14 28v3q21 27 27 63q7 4 16 21l6 1l3 -2q12 5 10 14q1 1 12 30q9 7 11 10q5 11 13 11q14 -11 18 -11q6 0 13 13l10 -3q1 -1 7 -4
q22 -6 25 -14v-18l4 -14q2 -6 -6 -14l2 -5q-7 -4 -11 -7t-6 -5l-3 -17l-10 -28l-16 -53l-7 -11l-13 -34l-11 -11q-4 -4 -13 -23q-2 -6 -12 -26q-2 -3 -3.5 -6l-3.5 -7l-5 -24l-12 -39v-3q-2 -2 -2 -4l-1 -11h-6q0 -16 -4 -29l-10 -38l-9 -74l-5 -12v-15l-7 -25v-21l-9 -18
q-4 -7 -1 -24q2 -11 5.5 -22t7.5 -22q1 -1 6 -16l-3 -6l3 -6l-6 -14q-11 17 -26 35zM9 -50l27 1q-1 6 -10 13q5 8 3 13q-2 4 -12 11l-2 11q18 -6 23 -6q1 0 14.5 1.5t39.5 5.5q8 1 13.5 1.5t7.5 0.5q29 0 64 -9q4 -9 6 -15q9 -15 9 -20q3 -8 -18 -18q-8 -2 -15 -10l14 -4
l-16 -4q-39 -10 -33 -10q-2 0 -2 2h-4q14 0 17 9h-10v-2h-5q-3 0 -9 -2l-5 -7l-9 -3q9 -4 14 -4t14 4q2 0 16 3q5 2 14 3q13 -15 16 -29q3 -12 -1 -26q-9 -1 -11 -5l-6 -7q-5 -6 -22 -6q-4 0 -12.5 1t-22.5 3q-4 5 -6 7l-3 3l-2 2q-2 2 -5 2l-18 23q-3 3 -18 15l-4 -5l1 9
q-23 24 -21 33v4z" />
    <glyph glyph-name="quotedbl" unicode="&#x22;" horiz-adv-x="400" 
d="M388 707l16 3q20 -1 22 -7v-9l3 -5l-1 -2v-2l-2 -2v-1q-3 -1 -11 -19q-4 -10 -13 -26l-2 -6l-6 -12q-1 -1 -3 -4.5t-7 -8.5q0 -5 -1 -5l-9 -7q-1 -1 -1 -2t-1 -3l-2 -9l-5 -17q0 -6 -2 -6h-1q-10 -21 -17 -28l-4 -29v-11l-4 -10v-10l-3 -7q-4 -4 -2 -11q2 -3 7 -16l2 -7
l-2 -2v-2l-23 -7q-8 4 -10 9l-2 4v1h-1l-1 2l1 2l-3 6v10l-4 39v20q0 7 1 12v10l2 13l-4 39q0 4 1 5l3 10l-2 4l-2 7q-7 5 -5 9q2 3 3 10q-2 2 3 8l-6 11v2q9 7 12 25q12 8 18 26q6 6 10 9q10 -6 16 -6q5 0 13 6zM199 707l14 3q20 -1 24 -7v-9l2 -5v-2l-2 -2v-3
q-7 -3 -8 -13q-3 -13 -16 -32l-2 -6l-6 -12q-1 -1 -10 -13q0 -5 -3 -5l-7 -7q-2 -2 -2 -5l-3 -9l-4 -17q0 -6 -2 -6h-3q-1 -6 -7 -12l-8 -16l-4 -29l-2 -4v-7l-2 -10v-10l-3 -7q-4 -4 -2 -11q3 -3 6 -16l3 -7l-2 -2v-2l-23 -7q-8 4 -10 9l-3 4v1q-1 0 -1 2h-2l2 2l-2 6v10
l-4 39v20q-1 3 1 12q-1 3 -1 8q0 2 1 2v13l-2 39q-1 1 0 5l2 10l1 1q0 2 -1 3l-2 7q-7 5 -5 9q0 2 3 10q-2 2 3 8l-7 11h1v2q8 7 10 25q9 5 24 31l4 4q13 -6 17 -6q6 0 14 6z" />
    <glyph glyph-name="dollar" unicode="$" horiz-adv-x="406" 
d="M138 303q1 -1 3 -1l27 9l24 11l19 6q7 4 12 42q1 8 2 13t2 8l8 20l2 26l5 14l3 21q0 5 1 10l-4 1v4q-4 -6 -17 -8q-14 -14 -23 -33l-10 -7l-14 -22l-2 -4t-3 -4v-2q0 -4 -5 -10t-5 -8l-2 -8l-6 -11l-4 -14l-9 -23l-3 -21q0 -4 -1 -9zM180 22q24 2 47 29l34 40l6 16
q1 2 20 15q-2 11 7 14q0 10 8 29q7 7 12 24q-7 9 -8 12q-2 3 3 14q0 4 6 4v3v8q-2 22 -10 35l-9 3l-15 7l-4 -5l-31 -6q-4 -1 -7 -2t-5 -2l-11 -8l-8 -4l-30 -185q-2 -10 -3 -20t-2 -21zM124 195q4 1 6.5 1.5t4.5 0.5q7 0 8 -7q5 -19 2 -27l-6 -18q0 -6 -4.5 -19t-4.5 -19
l-3 -24q-3 -23 18 -54q10 -15 17 -15q2 0 4 2l1 14l2 -1q0 22 4 42l14 82l4 40q0 -1 2 9l6 31v12q-3 -3 -5 -3l-28 -2l-24 5l-1 -3q-6 1 -8 3l-9 4.5t-10 5.5l-27 17q-10 6 -11 13l-3 10l-12 21l4 16l4 27q0 1 8 23l14 38l10 17l5 17l5 6q13 14 17 30l8 24l7 17l2 10
q2 11 16 16l3 4l2 2q1 1 2.5 3l4.5 6l19 25l12 29l8 14l12 -5l6 6l13 1q2 0 9 5q9 -4 27 -20q2 4 3 7l2 6q9 33 18 33q7 0 9 -6v-3l-3 -11l-6 -33q-2 -3 -3 -10q10 -7 11 -10l6 -13l7 -7q2 -2 5 -11q-2 -7 -3 -8l-13 -20q-5 -8 -5 -27v-16q1 -1 1 -10q-6 -7 -8 -7
q-2 2 -18 7l-11 3q0 -1 -3 -11l-19 -71l-2 -20q-1 -9 -9 -35l-1 -3q0 -4 -4 -11q8 1 10.5 1t-0.5 0l43 16h39l12 4h2q10 0 15 -6l17 -22l8 -5q6 -3 10 -10v-3.5t-1 -6.5q-1 -1 -1 -4q0 -2 0.5 -3.5t7.5 -10.5l2 -4v-3l-9 -9l-3 -7l-5 -8l-17 -21l-7 -17l-12 -17l-2 -11
q-2 -3 -5.5 -7.5t-8.5 -11.5l-35 -74q-21 -44 -49 -69l-17 -15q-8 -6 -16.5 -12t-18.5 -13q-14 -2 -12 -12q1 -8 1.5 -13.5t0.5 -10.5q0 -6 -9 -18h6l-1 -4h-4l-1 3l-9 1l-1 9l-7 6q8 13 8 27v12q-18 7 -36 30q-17 22 -23 41q0 1 1 2l-1 2l-1 6l-8 29l2 27q0 2 -3 23
q-1 7 0 16l1.5 12t0.5 5v9z" />
    <glyph glyph-name="percent" unicode="%" horiz-adv-x="484" 
d="M255 -71h13q3 5 5 7.5t3 3.5l17 11l30 45l16 35l23 45q7 7 7 20q0 5 4 16q-23 7 -39 30q-8 12 -23 12l-7 -24l-9 2q-7 -10 -7 -14l-3 -18l-9 -24l-2 -53l-10 -37q0 -7 -6 -7q-6 -18 -1 -35l3 -10zM30 424q6 -6 8 -12l2 -4v-6q20 4 35 17l26 25l14 11l10 16l23 23
q11 16 21.5 31t21.5 31l-20 34l7 19q0 4 -4 7h-12q1 3 1 6q-2 5 -17 19q-4 6 -12 14q-12 -1 -16 -11l-19 -46l-13 -13l-6 -21q-17 -14 -21 -30l-21 -69q-1 -2 -2.5 -12.5t-5.5 -28.5zM16 -14q13 8 16.5 11.5t8.5 16.5q9 4 9 31v15l-5 5v2q10 6 10 9l14 46l7 15l3 10l13 16
l103 229q1 2 10 11l-1 6l21 34l11 26l12 10l7 27l65 109q1 1 1 8l-5 4l-20 -21l-1 7q9 14 28 24l-2 2q-1 1 -1 2q-3 11 19 30l-1 5l11 10l-11 13q-2 -2 -5.5 -4t-8.5 -6q-39 -27 -45 -36l-18 -27l-34 -36q-10 -10 -7 -20l6 -17q1 -3 -13 -28q-2 -8 -4 -21.5t-3 -30.5l-5 -7
q0 -2 -2 -4l-14 -26q-14 -27 -64 -68q-11 -8 -23 -15.5t-26 -12.5l-4 2v3l-20 2l-3 9q-50 26 -56 46q0 2 5 10l5 -2q5 8 7 13v11l9 14l5 45l23 50q1 7 2.5 17t4.5 24l19 39l-5 55l8 14l8 28l16 22l4 13l8 14l3 10q3 9 13 9q2 -1 36 -4h9q6 0 9 -1q20 -18 24 -37l4 -18l16 -7
q-3 -11 -3 -15q-2 -8 -2 -11q0 -5 1 -7l7 -14l11 1l3 -8q6 2 10 4t6 4l35 32l17 6l16 17l26 22q3 15 27 27l14 7l19 -7l24 -3q6 -3 9 -11q1 -7 -3 -13l-45 -67q-6 -13 -22 -41h-5q-1 -2 -3 -5.5t-5 -8.5q-8 -12 -13 -19t-7 -9l2 -5q-12 -10 -11 -26q4 5 15 10l-102 -183
l-62 -144l-67 -187l42 59l-7 4q16 3 15 21q8 8 14.5 14t11.5 10q1 2 3 5t4 8q7 1 12 3l7 8l14 14l7 10q7 7 16 14t21 15l12 6q4 3 6 11q14 21 29 32q15 -5 24 -5q6 0 10.5 6t7.5 6q5 -7 12 -14t16 -15v-17q0 -3 0.5 -9.5t0.5 -13t0.5 -10.5t0.5 -3l12 -42l-7 -17l6 -32
l-4 -35l2 -24l-11 -39q3 -15 -15 -71t-30 -69q-8 -8 -16.5 -18.5t-18.5 -23.5q-6 1 -10 1h-6l-23 3q-20 3 -31 24q-8 1 -16 12l4 4q-8 14 -6 26q8 8 11 36q5 39 6 43q15 52 15 73l-2 4l2 6t3 7l11 45l6 5l1 12l9 36q1 13 -2 21l7 7h-5q-6 0 -11 -8l-12 -10q-20 0 -30 -16
l1 -7q-14 0 -41 -46q-4 -7 -11.5 -21.5t-20.5 -37.5l-18 -33l-11 -27q-3 -4 -7 -14q0 -2 -2 -4l-5 -34l-6 -23q-2 -14 3 -42q-14 -6 -21 -6l-3 1h-8q-9 12 -14 12l-11 4l-28 28q-7 4 -9 11v1z" />
    <glyph glyph-name="ampersand" unicode="&#x26;" horiz-adv-x="354" 
d="M56 98q1 2 1.5 4t2.5 4v1l4 10q0 1 2 7q4 4 8.5 9t10.5 12q9 5 14 14q0 8 8 8l4 5q1 2 3 4l23 21l10 13l5 2q3 1 6 13q-60 6 -76 30l-13 19l-22 19q-15 13 -15 37q0 34 28 63q4 6 7 9q2 1 19 18l12 9l1 2q16 10 54 42l6 6q6 4 14.5 8.5t19.5 10.5l8 2q9 3 36 23
q14 5 31 17q3 3 20 8l29 16q2 2 8 3l3 1q4 -2 7 -2q2 1 7 1h4q12 0 15 -10q2 -7 -2 -16l3 -1l1 -6q-4 -7 -4 -12q0 -4 3 -8q-6 -8 -7 -11l-15 -22l-2 -4l-11 -30q-5 -8 -9 -11l1 -3q-6 -8 -9 -18q1 -1 1 -2l1 -1q-1 -1 -1 -2q-1 -1 -1 -2t-1 -3l-7 -17q-1 -3 -14 -21
q6 -8 6 -15l-11 2q1 -2 1 -7t-5 -5q-2 0 -9 5q0 4 1 5q-2 4 -18 17l-9 12l-5 4q-2 1 -7 9l4 3q-1 1 -1 5q-2 5 0 10q0 25 7 31v5q12 7 20 13l13 19l12 14q1 1 3 13q-4 -2 -10.5 -4.5t-14.5 -6.5l-24 -16l-12 -6l-7 -5q-1 -2 -6 -4.5t-7 -4.5q-5 -6 -13 -8q-1 -4 -7 -8
q-28 -27 -29 -28l-15 -9q-1 -1 -2 -3t-3 -5l2 -4q-27 -33 -41 -36l-4 -10l-9 -10.5t-4 -4.5l-13 -25v-2q1 -7 22 -12q14 -2 22.5 -3.5t11.5 -1.5h23q4 0 11 -4l61 -6q2 0 5.5 0.5t8.5 1.5q14 -6 33 -25h-5q-4 -6 -14 -8l-1 -5l-7 -4q-1 -1 -31 -10q-13 -4 -16 -7l-32 -25
l-9 -3l-10 -11l-23 -21l-14 -17q-2 -3 -6 -8t-10 -12l-5 -6l-1 -3q-4 -9 -4 -17q2 -7 3 -8q7 -1 7 -3l29 4h16l15 3l25 4l9 4l25 1q1 1 3 2.5t4 3.5l12 14l26 25q2 2 5.5 6.5t7.5 11.5q16 -18 35 -18l5 -5q10 -10 22 -25q2 -5 -12 -11q-21 -16 -55 -73q-10 -18 -12 -26
q-1 -9 2 -33l9 -4q-6 -9 -6 -18q-7 5 -8 5l-21 2l-9 4l-12 3l-2 4l-3 6l-12 20q-11 21 -7 50q3 25 2 36q4 0 4 -1q-2 -1 -20 -6l-52 -12q-20 -6 -35 -6q-11 0 -16 14l-2 8q-1 3 -3 7t-4 9z" />
    <glyph glyph-name="quotesingle" unicode="'" horiz-adv-x="253" 
d="M232 707l14 3q22 -1 24 -7v-9l2 -5v-4l-2 -2v-1q-7 -3 -8 -13q-3 -13 -16 -32l-2 -6l-6 -12q-1 -1 -3 -4.5t-7 -8.5q0 -5 -1 -5l-9 -7q-1 -1 -1 -2t-1 -3l-2 -9l-5 -17q0 -6 -2 -6h-1q-5 -8 -9 -12l-8 -16l-4 -29l-2 -4l2 -7l-4 -10v-10l-3 -7q-4 -4 -2 -11q3 -3 6 -16
l3 -7l-2 -2v-2l-23 -7q-8 4 -10 9l-3 4v1l-1 2h-2q1 1 0 18l-4 39v20q0 7 1 12q-1 3 -1 8q0 2 1 2l2 13l-4 39q0 4 1 5l3 10l-2 4l-2 7q-5 3 -5 6q0 4 2 6l1 7q-2 2 3 8l-6 11v2q8 7 10 25q14 8 20 26l4 4t6 5q10 -6 16 -6q5 0 13 6z" />
    <glyph glyph-name="parenleft" unicode="(" horiz-adv-x="278" 
d="M119 -129q5 8 5 14q0 2 -1 3.5t-4 7.5q3 10 3 15l-11 58l8 28q-1 2 -1.5 6.5t-2.5 11.5l-25 122l-4 49l-9 53l-3 67q3 3 2 20q-2 4 -3 21l1 42l3 9q2 12 3.5 30l3.5 42l-4 -3v9v5l-3 24l4 15v16l12 32l9 40l16 38q-1 2 -3.5 5.5t-6.5 8.5q7 10 7 13l7 42l32 64l3 16
l11 18q2 2 4.5 6t6.5 9l12 7l5 10l16 10l14 10q1 1 5 1q16 0 20 -1l19 -3q13 -8 27 -21q1 -2 -1 -6l-20 -24l-10 -29q-5 -12 -12 -18l-14 -11q-3 -3 -6 -14q9 -5 14 -17q-3 -2 -6.5 -4.5t-7.5 -4.5q-30 -13 -31 -23l-1 -26v-18q0 -3 4 -8v-9l-25 5q-7 -17 -10 -20l-4.5 -9
t-6.5 -12l-4 -17l-19 -46q-2 -5 -4 -13.5t-4 -22.5l-6 -38q0 -3 -1 -6l-3 -12l-7 1q0 -2 -1.5 -7.5t-1.5 -7.5l-15 -48q-1 -5 -1 -27l2 -71q1 -7 1 -14v-14q0 -4 0.5 -6t0.5 -4v-3l15 -92l21 -52q4 -6 14 -45q27 -99 45 -119l28 -28q25 -25 25 -57q0 -7 -1 -11
q-3 -12 -16 -16q1 -3 1 -9q0 -14 -12 -20q-4 3 -17 6q-38 10 -39 15l-5 17l-16 19l-4 16q-2 2 -6 5t-11 5z" />
    <glyph glyph-name="parenright" unicode=")" horiz-adv-x="345" 
d="M81 -204q17 15 17 37q8 28 14 35q17 24 16 35q-12 3 -14 8q-2 6 9 14q11 7 18 11t9 6v17q0 30 -3 38l-8 19q4 3 11 3q6 0 14 -3q3 14 4 16l6 9l17 80l4 80q1 7 2.5 15.5t4.5 18.5q0 4 1 7l7 40q0 1 -3 39l-5 61l-30 119q-2 11 -11 28l-33 64l-19 48l-19 36q-5 8 -12 21
t-18 31l-32 19q-14 8 -26 52q-5 18 -3 21q3 6 12 9q-1 4 -1 8v8q0 9 3 17q16 -4 25.5 -5.5t12.5 -1.5q5 0 7 2h8q12 -10 13 -14l5 -14l14 -13q5 -8 5 -13q0 -1 -1 -2q12 -13 17 -26l23 -71l-5 -28q0 -3 0.5 -4.5t0.5 -3.5t1 -2q2 -4 5.5 -13t8.5 -25q7 -19 16 -46t22 -64
q2 -5 4.5 -17t6.5 -29l14 -69l3 -34l11 -85l4 -85q0 -5 4 -6q1 -10 3 -18t4 -14l-1.5 -6t-0.5 -4q0 -3 1 -4l1 -16l-5 -19l1 -24l-3 -15l-3 -21l-8 -33v-6t1 -9l3 -13q8 -32 3 -46l-24 -75q-8 -42 -14 -47l-11 -14l-7 -14q-14 -26 -49 -26q-21 0 -46 17z" />
    <glyph glyph-name="asterisk" unicode="*" horiz-adv-x="526" 
d="M33 528q9 10 9 14q-1 2 -10 11l8 9q-3 3 -5 11q-1 1 -1 3q0 3 1 4q9 0 14 -6q11 0 17 -3l30 -8l9 3l31 -9l16 6l27 -3l20 -5h8q2 1 7 1q5 1 15 1l-1 5l3 2q-7 11 -7 16l-31 122l-7 12q-2 5 -4 12t-6 16l11 -1l5 4q40 -17 47 -48l10 -40l18 -62q5 -15 7 -24.5t3 -13.5
q16 16 18 23l21 53l11 10q6 4 9 21q11 2 10 15q10 0 15 -4q4 1 10 1q7 0 25 -8l21 -10q6 -5 11 -18l2 -6q0 -4 1 -7h-4l-4 -5h-5q-4 -7 -7.5 -14t-7.5 -14l-20 -27v-4v-8l10 1q10 -6 18 -6q16 -9 19 -9h56q2 -1 8 -2t14 -3h-7q-5 -8 -3 -11l2 -1v-2q-10 -1 -9 -8
q-17 -3 -22 -17l-9 3q-4 0 -7 -11q-21 -1 -47 -6l-9 -8l-75 -4q-13 -1 -14 -10q-3 -7 3 -28q2 -5 4.5 -16t7.5 -28q8 -14 8 -21q0 -3 -1 -4v-14l2 -3q1 -2 3.5 -9l7.5 -21q1 -3 3 -7l2 -13l-64 118l-14 -23q-7 -22 -13 -25l-18 -10l-17 -36l-7 -6q-2 -4 -2 -12h-9
q-7 8 -7 12q-2 6 3 27v18l-6 1l4.5 7.5t2.5 4.5l3 19l3 6t4 12q4 13 18 51l6 17h-21q-29 0 -80 3q-27 1 -56 6l-33 20q-4 3 -9 14z" />
    <glyph glyph-name="plus" unicode="+" horiz-adv-x="403" 
d="M19 175q4 4 3 9q-2 6 -4 9l3 3l20 -8l113 -12l-7 78l-21 49q28 7 52 -1l24 -9l-6 -31l4 -86q0 -5 8 -5q10 0 36 6q25 6 37 5h53h12t15 1l3 -6h-7q2 -4 6 -5l1 -3l-21 -2l-2 -9l4 -8q-11 -4 -19 -4h-18l-10 -5q-8 0 -20 -4l2 -4q4 3 10 3q5 0 12 -4q-1 -2 -15 -7l-25 -2
l-10 -4l-18 2l-9 -2h-26l6 -82l-9 -62l-25 42l-19 2l-6 53l1 46l-44 -1l-27 -7q-8 -2 -12 -10q-21 18 -23 24l-7 35q-2 6 -15 16z" />
    <glyph glyph-name="comma" unicode="," horiz-adv-x="418" 
d="M136 73q8 20 24 19q19 0 43 -27q24 -26 24 -45q0 -22 -1 -25q-13 -32 -33 -55q-7 -8 -22 -20q-28 -23 -37 -27q10 6 13 17q0 7 -1 10l-2 -1q-2 -2 -2 -1q-2 2 3 11q11 8 28 37q10 32 -2 52q-3 5 -14 2q-3 -1 -8 -1q-2 0 -21 8q-7 4 -4 13z" />
    <glyph glyph-name="hyphen" unicode="-" horiz-adv-x="393" 
d="M19 157q4 4 3 8l-3 9l2 4l20 -8h150q21 0 63 -3q43 -3 64 -3h11.5t14.5 1l4 -6h-8q2 -3 7 -5l1 -3l-21 -3l-3 -8l5 -8q-11 -4 -19 -4h-18l-10 -5q-8 0 -20 -4l2 -4q6 3 10 3q5 0 12 -4q-5 -2 -5 -6q1 0 -1.5 0t-8.5 -1l-25 -2l-10 -3l-18 2l-8 -2l-107 -3l-27 -6
q-7 -1 -12 -10q-22 19 -23 23l-7 35q-2 6 -15 16z" />
    <glyph glyph-name="hyphen" unicode="&#x2010;" horiz-adv-x="393" 
d="M19 157q4 4 3 8l-3 9l2 4l20 -8h150q21 0 63 -3q43 -3 64 -3h11.5t14.5 1l4 -6h-8q2 -3 7 -5l1 -3l-21 -3l-3 -8l5 -8q-11 -4 -19 -4h-18l-10 -5q-8 0 -20 -4l2 -4q6 3 10 3q5 0 12 -4q-5 -2 -5 -6q1 0 -1.5 0t-8.5 -1l-25 -2l-10 -3l-18 2l-8 -2l-107 -3l-27 -6
q-7 -1 -12 -10q-22 19 -23 23l-7 35q-2 6 -15 16z" />
    <glyph glyph-name="period" unicode="." horiz-adv-x="216" 
d="M80 86q2 8 11.5 15.5t16.5 7.5q22 -2 50 -33q29 -32 29 -53q0 -23 -41 -31q-51 -8 -60 -18q-4 -4 -17 27q-1 1 4.5 7.5t7.5 10.5q0 2 -2.5 5t-6 6.5t-6 8t-0.5 8.5z" />
    <glyph glyph-name="slash" unicode="/" horiz-adv-x="383" 
d="M336 794q8 8 7 19l11 -1v5q10 0 13 7q16 -2 32 -16l2 1l9 -10l-6 -20l-13 9l8 -19l-8 -5l-100 -124v-11q-20 -13 -22 -33h-3v-3l-10 -21q-1 -1 -1 -3l-3 -9h-2l-8 -32q-6 -16 -16 -17q1 -20 -22 -77l-7 -9l-1 -9l-4 -12l2 -13l-11 -28v-19l-10 -35l-5 -23q0 -4 -11 -21
q0 -5 -2 -11.5t-4.5 -14t-4.5 -14t-2 -10.5q1 -7 -11 -30q-11 -21 -13 -31l-6 -20l2 -6l-5 -3q0 -19 -4 -23l-12 -16l-11 -24l-11 -12q-1 -1 -1 -4q0 -6 3 -15q1 -7 9 -16q-11 -2 -19 -28q-2 -5 -9 -12l10 -15q-5 -8 -5 -13q0 -4 1 -5l-2 -2l2 -9l-6 -7q10 -16 10 -35
l10 -11l-15 -7q0 -17 -10 -17q-12 0 -28 11t-20 22v5l-5 28h4l13 9q0 20 3 44l3 6q1 2 3 8l-1 27q-1 7 3 13q2 4 6 16l11 33l7 23l3 6l4 44l9 21v24q0 11 12 29h6l1 4l2 4l2 6q16 48 18 52q12 18 12 19q1 1 1 5t-1 7q6 20 10 24l12 14l9 17l13 11q2 7 1 19l5 4q8 6 8 20
q5 17 16.5 46t29.5 72l12 25l3 17q2 2 4.5 6.5t6.5 9.5v3q0 1 2 5t4.5 8.5t4.5 8l2 3.5l-1 5l6 9v29l9 15l3 12l14 23q2 4 5 20q2 -1 6 -1q13 0 23 19q9 16 9 30z" />
    <glyph glyph-name="zero" unicode="0" horiz-adv-x="410" 
d="M205 643q14 -3 29 -8t32 -12l46 -42q10 -12 17.5 -25.5t14.5 -28.5l-48 -1l44 -37l34 -59l24 -71l8 -127l-8 -52l-39 -80l-24 -34q-5 -5 -11.5 -12t-14.5 -17l-28 -34l-31 -23h-57q-26 10 -59 30q-30 28 -42 46l-35 49l-28 68l-12 74l-3 64l32 143l33 86l51 63l34 28
l41 12v0zM178 441l-28 -53q-23 -45 -41 -123q-11 -48 -12 -70l4 -73l8 -16q6 -12 34 -46l34 -24q26 5 49 16l72 88l33 107q2 8 2.5 32.5t-1.5 66.5l-13 75l-6 30q-11 17 -24.5 33.5t-27.5 33.5z" />
    <glyph glyph-name="one" unicode="1" horiz-adv-x="205" 
d="M129 616l12 -19q20 -2 42 -28q2 -14 4.5 -29.5t4.5 -32.5l-27 -133q-4 -8 -7.5 -17.5t-5.5 -20.5l-20 -85l-5 -209q1 -5 1.5 -8.5t0.5 -7.5q0 -19 -9 -32q-8 8 -17 17.5t-19 20.5q-16 26 -30 62l-7 114l23 190l24 81l-1 14l-8 -5l-8 -14l-25 -29q-7 -15 -23 -23
q2 32 7 47l13 38l21 33l13 38q3 12 13 38h33z" />
    <glyph glyph-name="two" unicode="2" horiz-adv-x="341" 
d="M181 612l5 4l15 -1l42 -18l35 -27l28 -36q6 -14 12 -30t11 -33l-2 -53l-30 -69l-47 -48q-8 -11 -25 -29t-44 -41l-75 -65l-42 -58l35 -8l37 6l153 -24l41 5q1 1 4 1q4 0 14.5 -4t13.5 -4l-17 -17q0 -13 -20 -28l-15 -11q-2 -5 17 -17q18 -12 16 -17l-72 -19l-45 -1
l-36 17l-23 -3l-10 6l-31 8l-8 -4l-42 -2l-25 -7l-9 15l-21 59q-2 6 -5.5 15.5t-8.5 23.5l3 15q5 20 17 31l25 22q4 2 71 78l130 147l17 32l-1 34l-14 10q-17 12 -39 18l-42 -1l-26 -17l-20 -31l6 -44l-16 2q-14 4 -33 17l-31 36l-9 29l-1 19l-3 1l2 4q3 21 13 37l50 48
l55 34z" />
    <glyph glyph-name="three" unicode="3" horiz-adv-x="334" 
d="M193 623q41 -4 78 -29l29 -33l14 -38l-4 -57q-5 -17 -12 -33l-20 -24l-55 -28l34 -24l30 -38l24 -52l10 -52l2 -48l-7 -38l-11 -33l-32 -57l-54 -33l-30 -10h-43l-38 15q-30 11 -65 57l-25 52q-3 11 -5 22.5t-3 24.5q6 10 14 15l12 -19l30 -29l72 -28l29 -5l7 5l38 4
l54 34l16 28q5 14 8 33l2 15l-14 37q-6 10 -12.5 19t-14.5 19l-36 19l-35 5l-33 -9l-28 42q-3 25 -2 48q3 18 16 28l68 15q12 8 25 19l29 14l16 28q-7 7 -15 13t-16 11l-40 9l-60 -31l-41 -35l1 -24q-34 5 -53 18l-19 43q-14 33 -14 59q3 6 21 15l24 12l93 34z" />
    <glyph glyph-name="four" unicode="4" horiz-adv-x="356" 
d="M209 638q25 -8 53 -33q10 -11 19 -24.5t18 -27.5l-15 -53q-3 -11 -7 -22.5t-9 -24.5l-12 -52q-2 -11 -2.5 -25t1.5 -32l51 -10l53 -24q9 -8 20 -28l-33 9l-11 -4l-89 4l-6 -9l-3 -62q-2 -12 -4 -26t-4 -31l-13 -118l2 -67q-10 11 -20 24t-20 28l-24 72l-8 76l3 61
q-18 -6 -37 -19q-13 -14 -37 -19q-24 24 -44 57l-17 48l5 23l150 219l40 90v0zM93 367q-8 -14 -6 -33l46 10h27l2 23l11 48q1 18 -5 47z" />
    <glyph glyph-name="five" unicode="5" horiz-adv-x="311" 
d="M333 571l8 -30l-16 -14l18 -27l-76 8l-73 -10h-71l-24 -105v-28h12l26 14h42l37 -10l31 -23l32 -33l20 -56l4 -111l-19 -66l-13 -29q-2 -3 -17 -23l-20 -24l-34 -10l-38 -12l-18 -8q-21 -10 -85 -20l-59 -10q-14 6 -14 24q0 17 14 43q-14 13 -21 66q2 -2 15 -2
q6 0 15 0.5t21 1.5l47 4l39 8l32 10q45 7 86 47l15 29l9 33l-2 47l-24 48l-31 24l-39 9l-48 -33q-3 -12 -10 -16q-11 -8 -15 -12q-12 4 -16 13l-10 19l-18 18l-18 22l-6 37q7 7 14.5 17.5t15.5 26.5l22 82q1 2 2 16.5t2 40.5l-2 28l12 26l43 -5l36 -9l29 4q70 10 116 4
l75 -10z" />
    <glyph glyph-name="six" unicode="6" horiz-adv-x="315" 
d="M190 663q31 -12 49 -42q4 -8 24 -24q16 -13 22 -33q-1 -10 -34 -28q-37 -20 -39 -26l-97 -139l-25 -47l-14 -57l4 -43l10 39q6 13 18 42l31 38q17 21 37 38l25 9l33 -9q26 -20 50 -57l20 -76l1 -14l-3 -71l-12 -62l-25 -48l-35 -38q-11 -5 -24 -10t-28 -9q-28 2 -59 15
q-27 16 -55 52q-24 39 -36 81q-18 64 -15 161q3 18 15 62q2 10 6.5 24t10.5 33l28 70q8 15 32 52l47 67q7 15 38 50zM142 272l-30 -62l-14 -21l-17 -41l12 -47l7 -14q16 -16 34 -24l29 -5l8 5l23 24l16 28l10 38l5 85l-8 57q-15 16 -32 24z" />
    <glyph glyph-name="seven" unicode="7" horiz-adv-x="322" 
d="M-8 654q32 -22 60 -28l65 -15l66 5q14 1 28 3.5t27 6.5l30 9q11 -4 26 -14l31 -33l5 -38l-80 -138l-54 -166l-19 -128l1 -76q6 -12 12 -25t13 -27l-19 -10q-25 2 -54 29q-23 35 -44 85q-5 20 -7 41.5t-3 44.5l84 208q14 33 25 48l25 47q15 19 26 48l-32 -5l-51 -24
q-21 -10 -57 -14q-28 8 -61 24q-23 25 -43 71q-3 18 -3 36q0 17 3 35z" />
    <glyph glyph-name="eight" unicode="8" horiz-adv-x="325" 
d="M154 627q17 -4 34.5 -9.5t36.5 -13.5q12 -23 21 -48l-17 -5l-9 10q-27 -2 -52 -19l-29 -48q-10 -24 -13 -66l12 -52l12 -19l14 5q38 13 70 80l4 48q-4 7 -8.5 14t-9.5 14l-2 29q10 -9 20 -19.5t20 -23.5l29 -57l9 -38q-7 -29 -24 -52l-44 -38l-8 -14l39 -38
q24 -39 44 -86q5 -19 9.5 -40.5t6.5 -44.5q-2 -16 -5 -33t-8 -34q-12 -23 -33 -42l-57 -24l-65 5q-30 11 -65 33q-25 20 -55 62l-21 61l2 33q2 10 7.5 24t15.5 33l27 53l48 52l-39 38q-13 17 -23.5 38t-20.5 47q-1 5 -1 10v10q0 57 29 113l44 33l55 19v0zM139 262l-44 -48
l-14 -33q-5 -20 -5 -43l7 -56l25 -53l38 -23l41 4l27 19l16 29q5 9 10 38l6 42l-16 62l-26 57q-17 17 -34 24z" />
    <glyph glyph-name="nine" unicode="9" horiz-adv-x="314" 
d="M182 605q10 -11 18 -20t14 -18t12 -20.5t12 -26.5q-15 -9 -34 -10l-29 -14l-50 -47l-42 -68l-16 -75l8 -32q7 -15 25 -25q20 19 40 46t40 64l10 38q4 14 1 47q9 12 26 14l40 -23l34 -14l23 -29l-3 -48q-3 -49 -31 -137q-3 -32 -46 -132q-8 -20 -39 -81q-33 -68 -38 -73
q-11 -11 -14 -9q-5 3 -9 0l-30 -29q-4 1 -4 6q0 6 3 16.5t3 15.5q0 7 -4 10l-12 19l10 35l21 36l25 59l27 85q2 7 5.5 19t7.5 30l6 33q11 64 11 66q0 9 -1 12l-35 -86q-2 -4 -6 -9.5t-9 -13.5q-15 -21 -31 -28q-27 4 -51 28l-34 33q-6 14 -12 29.5t-12 32.5l-4 52l11 86
l10 38q33 79 75 114l33 14z" />
    <glyph glyph-name="colon" unicode=":" horiz-adv-x="202" 
d="M84 77q8 23 25 21q19 0 45 -29q27 -29 27 -48q0 -22 -37 -28q-43 -7 -55 -16l-1 -1q-3 0 -8 11q-4 12 -6 14q-1 1 4.5 7t6.5 9q0 2 -2.5 5t-5.5 6t-5.5 7t-0.5 7zM69 240q7 19 24 18q18 -2 40 -27q24 -26 24 -42q0 -21 -34 -25q-7 -1 -25 -9q-17 -6 -25 -6q-3 0 -7 9
l-5 13q-1 1 4 6.5t5 7.5q2 3 -6 10t-6 13z" />
    <glyph glyph-name="semicolon" unicode=";" horiz-adv-x="215" 
d="M96 73q8 20 24 19q19 0 43 -27q24 -26 24 -45q0 -22 -1 -25q-13 -32 -33 -55q-7 -8 -22 -20q-29 -23 -37 -27q10 6 13 17q0 7 -1 10l-2 -1q-2 -2 -2 -1q-2 2 3 11q11 8 28 37q10 32 -2 52q-3 5 -13 2q-3 -1 -9 -1q-2 0 -21 8q-7 4 -4 13zM94 217q7 21 25 21q19 -2 45 -30
q27 -29 27 -47q0 -22 -37 -28q-44 -7 -55 -16l-1 -1q-2 0 -7 11q-6 13 -7 14t4.5 7t6.5 9q0 2 -2.5 5t-5.5 6t-5.5 7t-0.5 7z" />
    <glyph glyph-name="less" unicode="&#x3c;" horiz-adv-x="556" 
d="M480 618q43 -28 43 -59q0 -22 -32 -39q-97 -25 -236 -83q-64 -26 -115.5 -50.5t-89.5 -46.5q79 -30 124 -47.5t56 -22.5q130 -55 219 -116q17 -26 17 -37q0 -24 -56 -42q-85 79 -219 149q-52 28 -102 50t-100 39q-9 13 -9 20q0 12 15 32q38 20 113 63.5t187 111.5
q131 80 185 78z" />
    <glyph glyph-name="equal" unicode="=" horiz-adv-x="408" 
d="M187 291q-18 0 -76 -6q-59 -6 -71 -11q-18 2 -37 25q-19 25 -19 43q0 34 63 34q8 0 16 -0.5t17 -1.5l152 -17q7 -1 24.5 -5.5t45.5 -14.5q60 -20 60 -27l-2 -2q-26 -12 -94 -10l-39 1l-36 -8h-4zM187 141q-18 0 -76 -6q-59 -6 -71 -11q-18 2 -37 25q-19 25 -19 43
q0 34 63 34q8 0 16 -0.5t17 -1.5l152 -17q13 -1 70 -20q60 -20 60 -27l-2 -2q-26 -12 -94 -10l-39 1l-36 -8h-4z" />
    <glyph glyph-name="greater" unicode="&#x3e;" horiz-adv-x="556" 
d="M0 618q54 2 185 -78q112 -68 187 -111.5t113 -63.5q15 -20 15 -32q0 -7 -9 -20q-50 -17 -100 -39t-102 -50q-134 -70 -219 -149q-56 18 -56 42q0 11 17 37q89 61 219 116q11 5 56 22.5t124 47.5q-38 22 -89.5 46.5t-115.5 50.5q-139 58 -236 83q-32 17 -32 39q0 31 43 59
z" />
    <glyph glyph-name="question" unicode="?" horiz-adv-x="350" 
d="M26 221q5 10 14 15q-5 5 -6 8q0 4 1 7l4 -1l8 3l17 8q15 8 20 20q1 2 5 6t11 12l24 24l60 94l10 19l9 12l5 12l27 45q1 1 1 4v7l7 2q1 10 4 13l6 9l14 44q5 25 5 19q0 3 3 12q2 9 1 11l-4 6l3 2l-2 4q-11 -5 -15 -6l-24 -4l-9 -6l-12 -6q-2 -7 -8 -11q1 -4 1.5 -6.5
t0.5 -4.5q0 -3 -1 -4q-6 0 -36 -33q-2 -2 -9 -8.5t-18 -17.5q-2 -2 -8 -9t-15 -20q-9 -12 -11 -29q-12 -5 -12 -9l-3 -22l-7 -9q0 -5 1 -8q1 -5 1 -8v-4q-5 0 -10 -5h-4q-5 7 -10.5 14.5t-13.5 16.5l-18 21l-18 16q-3 4 -6 14l12 7q-2 12 -1 13l10 15l13 23l6 6q1 6 9 20
l4 -1l6 10q18 38 66 38q3 0 9 -2q2 2 4 2.5t3 1.5q8 2 4 2q9 7 21 10v4q3 2 9 4l23 14q4 2 13 6t24 11l6 4q3 0 8 3q9 0 21 5q11 -4 23 -4q17 -3 35 -14l2 2l5 -22q1 -2 1 -4t1 -5l-6 -16l-2 -12q-2 -5 -6 -14.5t-11 -25.5q-6 -8 -12 -14l-16 -28l-11 -14l-6 -9l-24 -19
l-75 -111l-49 -97l-8 -19l-10 -22l1 -13q-2 -6 -3 -10q12 -5 18 -5h7q15 -8 18 -12l10 -9l3 -3t7 -6l1 -11q-8 -5 -9 -6q-7 -16 -18 -16q-7 0 -23.5 2.5t-24.5 2.5l-5 5l-10 -3l-4 9l-4 2q-5 10 -8 13l-18 14l-16 15q-5 5 -5 6zM60 36q5 18 8 21l9 10l15 22q0 1 2 3l5 7
l7 -3v5q9 -3 12 -3l20 -2q2 0 20 -8l-3 -5l10 -6l1 -7q19 -15 21 -23q1 -7 -5.5 -15.5t-13.5 -11.5l-8 -3l-19 -17l-8 -3l-11 -7q-5 -4 -27 -5l-10 10l-6 12l-4 6l-5 9q-1 3 -10 14z" />
    <glyph glyph-name="at" unicode="@" horiz-adv-x="637" 
d="M374 285q-71 -1 -142 -90q-14 -18 -26 -48q-13 -32 -13 -53q0 -23 22 -23q16 0 49 15q45 20 64 44q14 19 26 64q1 10 1 19v19q0 26 13 26q7 0 33 -15q10 -15 36 -35q-3 -12 -3 -29q0 -37 13 -66q15 -34 39 -34q30 0 62 59t32 124q0 69 -34 124q-37 60 -97 85
q-48 21 -100 19q-63 -3 -108 -22q-35 -14 -84 -49q-23 -16 -52 -48q-30 -35 -38 -58q-19 -54 -20 -87q1 5 1 8q1 -5 1 -24.5v-53.5q0 -61 26 -102q35 -55 57 -77q42 -44 106 -66q33 -11 64 -11q93 0 188 69q16 13 39 32t54 44q66 54 92 54q7 0 7 -6q0 -23 -84 -96
q-86 -76 -151 -103q-87 -25 -140 -25q-91 0 -201 73q-70 79 -83 101q-43 70 -43 164q0 8 0.5 18.5t1.5 21.5q8 84 65 153q41 50 85 75q88 50 209 50q61 0 108 -18q86 -34 137 -112q41 -65 41 -132q0 -19 -5 -37q-20 -70 -39 -98l-47 -58q-2 -5 -8 -11l-32 -5q-2 0 -4 -3
t-5 -3l-7 -1l-3 -1q9 -4 16 0q4 2 5 3v-5q-18 -2 -42 -6q-2 -2 -2 -3q2 -2 6 -2q3 0 8 1.5t8 1.5q6 -1 5 -2q-4 -7 -31 -12q-22 -3 -35 0q-16 4 -41 34q-26 30 -31 30q-13 0 -35 -15l-30 -20v3q5 5 3 5q-22 -8 -45 -15.5t-47 -15.5q-6 1 -17 10t-14 9q-1 -1 2 -7q0 -4 -1 -5
q-16 10 -16 38q0 46 41 136q37 79 52 92l34 54q54 69 111 69q20 0 56 -21q41 -24 41 -107q0 -63 -20 -63q-14 0 -27 36q-2 5 -11 11t-13 6zM215 24l-2 2v2h2l1 -1v-2z" />
    <glyph glyph-name="A" unicode="A" horiz-adv-x="493" 
d="M205 305q1 3 3.5 14t7.5 31l17 70q11 46 11 73q0 23 -14 49q-12 19 -12 29q0 21 24 21q16 0 54 -11l32 -10q1 1 1 2q0 3 -3 9q-5 10 -7 11q-13 13 -13 20q0 6 13 18q3 3 10 3q16 0 45 -15q26 -14 33 -22q19 -22 19 -102v-35v-22q-1 -5 -1 -9v-6q0 -37 5 -62
q5 -20 10 -39.5t12 -38.5l77 -21q28 -8 39 -18q4 -2 2 -5q-2 -2 -3 -2h-2l-20 6q1 -2 2 -4.5l3 -7.5q4 -7 4 -11q0 -7 -9 -5l-19 3q-1 -1 -1 -4l18 -7q2 0 3 -1q0 -4 -19 -3q-59 5 -65 0q-4 -4 -4 -37q0 -43 6 -137q2 -24 4 -50t4 -55q1 -15 3.5 -42t7.5 -67q1 -3 1.5 -8
t2.5 -12q-2 -3 -7 -2q-3 1 -6 4l-7 27q-3 13 -5 1q-2 -11 3 -30l16 -79q5 -23 -9 -23q-3 0 -4 1q-6 -2 -12 -2q-77 207 -113 504q-2 7 -10 8h-17l-12 -1q-7 0 -20.5 2t-20.5 2q-18 0 -19 -10l-18 -112q-1 -5 0.5 -18.5t3.5 -36.5q6 -47 6 -75q0 -48 -20 -71q-24 -26 -48 -26
q-7 0 -12 5l-43 48q-18 19 -18 62q0 25 8 35q19 12 51 48l2 6q8 25 26 130q0 3 -4 3q-3 0 -9.5 -2l-13 -4t-12.5 -4t-9 -2l-96 23q-33 7 -33 24q0 2 3 10t2 8l-8 6l-3 3q-4 3 -4 5t1 2h4.5t7.5 -1h7h3q0 1 -5 7t-5 7q0 2 1 3q56 26 138 25q57 -1 58 0zM464 -170q-5 -2 -6 6
q-2 9 2 9q4 -7 4 -15zM291 295q40 -10 48 -4q1 1 -1 15q-4 20 -4 43q1 60 1 94v43q-1 1 -4 1q-6 0 -13 -15q-6 -10 -13.5 -26.5t-15.5 -40.5l-11 -59q-2 -4 -3 -7.5t-2 -8.5q-5 -20 -5 -22q0 -7 4 -8z" />
    <glyph glyph-name="B" unicode="B" horiz-adv-x="488" 
d="M532 213q-4 0 -4 -2l1 -1h31q28 -4 35 -3q27 0 26 -7q-2 -2 -20 -1q-8 0 -30 -2t-59 -6q-14 -1 -25 -7.5t-14 -6.5q-2 0 -5 -4q-1 -1 -1 -2t2 -1q24 0 21 -1q-20 -5 -20 -8q0 -57 -20 -94q-11 -21 -61 -71q-12 -13 -50 -45q-44 -38 -48 -39l-6 2q4 4 5 6l2 2q-1 1 -1.5 1
t-1.5 1q-21 1 -48 6q-27 16 -54 57q-29 44 -26 72q4 34 38 57q5 4 21 12t43 19q18 4 36 12q7 4 1 27q-4 20 -69 100q-60 72 -55 96q8 42 46 73q9 6 76 46q91 52 91 103q0 17 -18 17q-26 0 -57 -31q-79 -73 -130 -171q-56 -109 -56 -205q0 -18 4.5 -60t12.5 -109
q17 -125 15 -130q-1 -3 -15 -11t-17 -6v4q0 1 1.5 6t1.5 9q0 7 -9 13q-4 1 -8.5 -6t-9.5 -5l-2 3q-6 3 -29 26q-22 22 -22 25q0 35 15 110q16 74 16 114q0 10 -1 24t-3 33t-3 33.5t-1 24.5q0 -21 1 13t3 118q1 40 -1 71.5t-7 54.5q-14 62 -53 91q-15 10 -15 20q0 19 56 19
q57 0 96 -19q44 -21 44 -52q0 -6 -1 -9l-18 -101q0 -4 -5 -16t-5 -17q0 -3 2 -5q6 -2 12 14q19 43 37 58q15 9 43 44q29 38 44 49q29 25 60 25q30 0 62 -23q36 -26 36 -59q0 -37 -47 -86q-12 -11 -29.5 -29t-40.5 -41l-26 -30q4 -8 3 -18l-10 1q-10 0 -11 -7q-6 -14 -6 -25
q0 -33 61 -67q70 -39 87 -74q1 -3 10 -3q-2 0 10 1.5t38 5.5q-1 -1 -3 -1q10 -2 75 -2h-44zM300 93q4 7 4 12q0 12 -17 12q-25 0 -53 -21q-31 -22 -31 -47q0 -6 1 -8l9 -31q3 -2 5 2l-3 21q-2 4 3 18q4 15 7 15q2 -2 3 -4v-14t1 -15q2 -16 9 -26q10 -16 19 -16q2 0 3 1z
M275 56q1 -3 1 -8l-2 -3q-1 1 -1 1.5t-1 1.5q0 2 2 8h1zM236 147q-4 -4 -5 -2l-2 2l1 2q4 0 6 -2z" />
    <glyph glyph-name="C" unicode="C" horiz-adv-x="424" 
d="M526 -186q4 0 0 -7q-5 -9 -9 -9q-2 0 -7 5.5t-6 5.5q-2 -2 -3 -4q-6 -14 -12 -14q-11 0 -29 3q-28 5 -69 11.5t-97 16.5q-26 5 -61.5 21.5t-80.5 42.5q-152 89 -152 281q0 135 75 261q23 39 117 134q107 109 140 104q15 -3 36 -50q16 -33 20 -55q4 -7 12 -31t8 -35
q0 -27 -27 -31q-3 0 -8.5 2.5t-11 5.5t-11.5 5.5t-10 1.5q-96 -28 -166 -127q-69 -98 -69 -200q0 -146 142 -245q127 -89 279 -93zM421 -197q3 0 4 1t-6 3q-5 2 -5 0q0 -4 7 -4z" />
    <glyph glyph-name="D" unicode="D" horiz-adv-x="534" 
d="M90 679q11 -7 79 -42q21 -7 43 -14t45 -15q20 -10 49.5 -25.5t68.5 -36.5q34 -19 98 -95l49 -88q5 -8 12 -31q7 -24 6 -30q-2 -8 -3 -19q1 -1 1 -6q0 -16 -15 -64q-2 -1 -10 -9q-3 -7 -2 -11q2 -5 8 -4l71 10q5 1 7 -3.5t1 -9.5q-5 -5 -17 -6q-2 2 -1 3l6 3l1 1l-2 2
q-21 -2 -21 -7q0 -3 1 -6l1 -1q13 0 48 6q2 -2 2 -6q-14 -2 -30 -5t-36 -8l-114 -43q-3 -1 -53 -57q-9 -6 -17.5 -12.5t-16.5 -13.5q-14 -12 -31 -27t-38 -32q-50 -40 -77 -44q-1 -1 -1 -2t-1 -3q-8 0 -18.5 -1.5l-24.5 -3.5q-6 -4 -26 -8q-1 -1 -1 -5q0 -6 5.5 -15t5.5 -15
q0 -28 -27 -28q-29 0 -45 15q-9 8 -29 50q-10 20 -15.5 33.5t-6.5 20.5q-3 17 14 37q17 22 19 33l10 101l2 1h2q3 -5 3 -15q0 -6 -1 -16t-2.5 -20.5t-2.5 -20t-1 -15.5t1 -7l2 -1l3 1q6 17 9 38q-4 9 -2 24q1 4 1 10.5t1 14.5q1 14 1.5 36t-0.5 52q0 76 -5 81q-9 1 -9 -15
q0 -7 1.5 -20t1.5 -19t-1 -7l-2 -1l-3 1q-2 12 -3 84q-3 16 -6 35.5t-7 43.5q-1 8 -4.5 25.5t-9.5 45.5q-8 40 -8 64q0 32 10 62q2 6 -20 42q-21 38 -17 42q11 17 30 17q18 0 64 -26zM411 167h-7.5t-11.5 -1q-5 -4 -8 -4q-1 0 -1 1q4 5 10 15.5t16 24.5q32 53 32 101
q0 31 -13 54q-21 40 -79 78q-55 39 -100 44q-2 0 -9 -0.5t-19 -1.5q-13 -2 -26 -6q-2 -8 -5 -8q-2 0 -7 2t-7 2h-24q-21 -2 -22 -9l-20 -111l-6 -3q-5 -35 -6 -75v-31.5t-1 -44.5q-6 -161 6 -213l2 -10t3 -10q1 -1 3 -1t3.5 1.5t3.5 6.5l24 34q4 4 7 3q3 -2 4 -1l21 21
q30 28 144 92q6 2 14.5 6t19.5 9q6 5 12.5 11t13.5 13h6l6 1q6 0 6 -3t-1 -6q-1 -2 1 -4q2 -1 8 1.5t6 4.5l-2 8q5 8 6 8zM456 149q5 2 3 4q-4 8 -8 -1q2 -2 5 -3zM66 148q-1 1 -2 1l-2 1l1 2q4 2 5 1v-2q0 -1 -2 -3zM68 157l-1 -1q-3 0 -5 1l1 3l1 1q1 1 2 1l2 -2v-3z
M433 166q1 -1 3 -1q7 0 7 8q0 3 -3 3t-8 -5v-3l1 -2v0zM65 167q-2 0 -3 3v35q0 3 3 3q4 0 4 -3v-24t-0.5 -11t-1.5 -3h-2zM89 174q1 4 1 42q-2 2 -3 2q-2 0 -2 -2v-40q0 -3 1 -4q1 1 1.5 1t1.5 1zM508 208q0 4 -7 0q-10 -6 -10 -12t11 -4q2 4 6 16zM68 215l-2 -1q-5 0 -5 4
q0 1 1 2l2 1q3 0 5 -3zM62 225q-1 2 -1 6q0 3 1 5h3l2 -2v-4v-3q0 -4 -5 -2z" />
    <glyph glyph-name="E" unicode="E" horiz-adv-x="830" 
d="M107 -196q-17 -4 -33 -4q-34 0 -52 23q-7 10 -14 26.5t-14 41.5q-1 2 10 13q11 9 11 13q0 3 -6 6l-31 1q1 5 7 11q7 -3 13 -5.5t10 -2.5q2 0 3 1q0 3 6 14q13 7 23 7q5 0 14.5 -4t15.5 -3q1 0 3 2l1 1q0 1 -1 2q-12 3 -12 2l2 4l3 1q66 13 113 39l89 50q15 7 15 109
q0 132 -22 177q-2 2 -2 4q0 19 38 39q33 16 56 16q28 0 28 -17q0 -6 -20 -29t-19 -31q3 -35 46 -35q30 0 99 22q48 14 76 23t38 11h5q22 0 68 -28q58 -36 58 -71q0 -40 -82 -67l1 6q3 13 -2 15q-4 1 -65 -18t-67 -24q-4 -12 -15 -31q-3 -3 -51 -17q-42 -14 -45 -29
q-2 -10 -39 -32q-45 -26 -49 -30q-13 -12 -13 -23q0 -8 10 -7l106 10q19 2 53.5 6t85.5 9q5 0 5 -6q1 -9 -4 -9q-6 0 -19 3q-12 1 -19 0l-59 -8q-7 -1 -6 -7q1 -5 9 -3q30 3 108 6q64 3 117 12l3 2q0 3 -65 3h-6q1 1 6 3q7 1 13 1.5t13 0.5q-14 0 -13 7q1 3 14 3
q7 -1 18.5 -0.5t28.5 2.5q20 2 32.5 3.5t17.5 1.5q93 0 168 -83l29 -32q0 -2 0.5 -6t1.5 -11q1 -15 0 -18q-1 1 -7 1q-3 -6 -7 -6q-3 0 -9 6l-6 6q-2 -2 -3 -4q0 -4 5.5 -6t6.5 -3l2 -7q-28 0 -28 -8q0 -2 5 -5.5t5 -4.5l-2 -2q-1 -1 -44 17q-12 5 -25 11t-27 11l-43 12
q-1 1 -3 1q-3 0 -7.5 -0.5t-6.5 -0.5h-5q-6 0 -6 4.5t-3 5.5q-4 1 -10 0q-3 0 -5 -1q-1 -2 4.5 -3.5t4.5 -3.5q0 -2 -4 -2q-5 0 -20 4q-8 1 -13 3q-3 1 -4 1t-3.5 -6t-4.5 -6q-5 0 -16.5 3t-17.5 3t-133 -12l-123 -11q-102 -12 -116 -23zM930 -153l-1 -1q-4 0 -6 1l-1 3l2 2
q3 1 6 -2v-3zM800 -114q1 1 1 2l-1 1q-7 5 -13 4q-2 0 -2 -3q0 -4 2 -4h13v0zM4 -92q-7 0 -16 4q9 0 16 -4zM573 -12q-5 0 -5 8q-2 6 5 6h28q5 0 5 -4q-2 -6 -8 -6zM618 -8l-3 2l-1 3l2 2q4 -2 5 -5zM534 7q-1 -2 -12 -4q-11 0 -12 1q-1 4 12 5l12 -2v0zM345 65
q-4 1 -13 -1.5t-9 -5.5q2 -2 4 -3q3 -1 14.5 1.5t11.5 5.5q-2 2 -8 3zM376 76l-2 2l-6 -2l1 -3l2 -2q2 0 5 5zM521 179q-53 -13 -103 -4q-36 6 -47 -2q-15 -12 -44 -92q4 0 6 -1l4 2t6 2l62 22q31 10 118 69q0 2 -2 4zM553 440q-6 2 -67 2q-6 0 -6 -1t8 -5q4 -2 8 -5
l-100 -14q-20 -3 -112 -38q-14 -6 -35.5 -15t-50.5 -21q-34 -1 -86 52q-51 54 -51 91q0 21 16 33q6 4 82 -15q42 -11 67.5 -16t35.5 -4q36 3 84.5 4.5t111.5 0.5q79 0 127.5 0.5t68.5 1.5q7 1 18.5 2.5t27.5 5.5q29 7 48 7q69 0 69 -60q0 -14 -35 -28q-26 -9 -35 -9
q-3 0 -4 1q5 5 8 13l-20 4h-10q-6 -2 -10 -6t-8.5 -7t-11.5 -4.5t-20 0.5q-21 0 -21 3q0 1 2 3q20 17 20 22q0 8 -25 8q-10 0 -23.5 -1t-32.5 -3q-36 -3 -38 -2zM514 438q1 4 23 1q27 -3 14 -3h-36q-2 1 -1 2z" />
    <glyph glyph-name="F" unicode="F" horiz-adv-x="514" 
d="M325 477q-14 -2 -60 -15q-14 -5 -14 -7q4 -2 30 -9q15 -4 29 -28q15 -22 13 -39q-1 -3 2 -5q27 -8 76 -8h21t30 1t30 1h21q61 0 96 -9l104 -28q0 -3 -5 -3q-4 0 -6 1q-6 2 -8 2q-1 0 -3 -2q0 -2 12 -11q13 -7 13 -10t-9 -1l-8 1q-14 0 -14 -7q2 -5 -1 -5h-66q-4 0 -4 -4
t4 -4h24q3 0 3 -3t-2 -3l-60 -2q-4 0 -5 -1q1 0 2 -1q2 -2 7 -2q17 -4 15 -5q-9 -4 -36 -11t-73 -18q-45 -11 -72 -16t-35 -6t-19 -1t-25 -1q-34 -3 -37 -14q-7 -32 -14 -81t-15 -117l6 122q2 11 -6 11q-13 0 -13 -25q0 13 3 -17t3 -36q-4 -34 -9 -32q1 16 -1 18
q-4 1 -6 -13q-2 -11 0 -16q9 -13 19 -30.5t21 -39.5q15 -83 15 -116q0 -37 -14 -42q-1 0 -5 1t-8.5 3t-8.5 3.5t-6 1.5q-5 0 -15.5 -6t-14.5 -6q-3 0 -15 20q-25 40 -25 55q0 4 9 34q2 9 4 20t3 24l22 268q1 12 -28 29t-29 25q0 2 2 6l11 18q4 6 33 40q16 17 16 32
q0 23 -37 60q-2 2 -2 5t2 9t2 9t-2 5q-2 0 -10.5 -4.5t-9.5 -5.5q-10 -27 -14 -33q-11 -18 -28 -18h-6.5t-7.5 1q-24 4 -74 62q-48 57 -48 82q0 5 3 10l44 46q1 1 7 1q11 0 30.5 -2t47.5 -6q52 -8 75 -6q131 5 236.5 2.5t186.5 -13.5q10 -1 18 7.5t17 8.5q6 0 15 -3
q9 -9 60 -77q22 -29 20 -31t-4 -2q-3 0 -9 2q-11 3 -12 2q-2 -4 1 -13t3 -12q-2 -17 -8 -17q-7 0 -26 12l-35 27q-20 16 -48 20q-46 8 -102 8q-35 0 -82 -4.5t-107 -12.5zM249 63q5 2 6 4l-1 4l-3 2l-3 -1l-2 -4q-2 -3 3 -5zM149 382q-2 1 -4 5l1 2l5 1q4 -1 4 -3t-3 -5h-3z
M643 485q1 1 1.5 1t1.5 1q-7 1 -22 9l-56 8q-2 -4 -1 -6z" />
    <glyph glyph-name="G" unicode="G" horiz-adv-x="432" 
d="M117 -111q-6 -1 -20 -5.5t-22 -4.5q-14 0 -27 10q-25 19 -25 105q0 79 18 183q8 46 16.5 81.5t17.5 60.5q1 1 2 1t4 -3t4 -1q3 7 5 31q2 25 3 32q13 46 23 76.5t18 46.5q6 10 17 28.5t27 46.5q10 16 20.5 29t21.5 23q10 9 38 9q39 0 68 -24q75 -63 92 -91q5 -10 5 -17
q0 -22 -23 -24l-57 -6l-65 -24q-14 -6 -52 -56q-46 -64 -42 -70q7 -2 18 0l77 2q25 1 58 -3.5t76 -12.5q50 -9 82.5 -14t49.5 -6l77 -6q1 0 1 -1t-1 -1l-16 -3q-5 -2 -4.5 -8.5t-1.5 -7.5q-8 -1 -28 -13q-3 2 -8 0q-20 0 -63 -12q-43 -5 -125 -21q-26 -7 -42 -11t-24 -5
q-6 -2 -6 -16q0 -5 0.5 -10.5t1.5 -12.5q1 -9 3 -15q1 -13 2.5 -43t3.5 -79q2 -35 5 -65t8 -56q0 -3 14 -40q12 -31 9 -34l-12 8q-5 3 -11 6t-11 3l-8 -8q-7 -7 -12 -7q-21 1 -61 37q-34 30 -34 50v5q1 11 21 37q5 5 9.5 11t9.5 12l1 86q0 4 3 12q1 4 0 5l-6 -2q-3 5 -10 6
q-4 -8 -9.5 -18.5t-12.5 -21.5q-2 -2 -2 -4q0 -3 3.5 -8t3.5 -6q-13 -4 -13 -12q1 0 2 -4q-3 -3 -7 -6q-6 2 -8 1q-1 -2 -1 -5t2.5 -6.5t1.5 -5.5l-6 -23l-47 -79q-3 -5 -6 -5zM94 65q-3 -35 -3 -62q0 -11 0.5 -21t1.5 -19q2 -2 4 -2q3 0 5 1q9 2 11 5q12 12 37 56
q7 11 18 32t25 52q34 72 33 79q-3 2 -6.5 4t-7.5 4q-7 6 -18.5 14t-27.5 19l-19 7q-6 -3 -6 -11t1 -9t-3 -2l-11 1q-7 -7 -4 -9q21 -23 21 -25q0 -7 -14 -10q-1 0 -5 2q-5 -2 -3 -6q1 -2 2 -5l2 -6q0 -3 -5 -6q-4 2 -6 2q-4 0 -6 -1q-3 -6 -3 -10t3.5 -7.5t2.5 -7.5
q0 -3 -3.5 -4t-4.5 -3q-8 -24 -5 -51l-2 -2q-1 0 -3 2l-1 -1v0zM250 132q2 5 -3 7q-1 1 -3 1t-3 -1q-11 -14 4 -28q2 -2 2 -10zM470 233q-7 0 -9 2l3 3h2q5 1 7 -1q0 -4 -3 -4z" />
    <glyph glyph-name="H" unicode="H" horiz-adv-x="468" 
d="M416 146q1 -3 1 -15q0 -18 -3 -54q-4 -70 -12 -70q-2 0 -7.5 8t-6.5 8q-2 -2 -3 -5q2 -14 0 -41q0 -2 -2.5 -6t-2.5 -6q0 -4 5 -4q2 0 7.5 1.5t7.5 1.5q4 0 4 -6q0 -4 -6 -4q-8 2 -10 0q-5 -5 -5 -13q0 -6 2 -18.5t1 -18.5l-1 -25q-6 -71 -28 -71q-13 0 -23 37q2 -1 3 -1
t2 -1l8 -8q4 3 4 9q-1 2 -3 9.5t-6 18.5l-10 31q0 2 -3 22t-8 57q-10 73 -9 104v21t1 32q0 6 -1 7l-37 3q-3 0 -4 -6q0 -16 9 -20q12 -8 10 -10q0 -2 -7 -1l-2 1q-2 -1 -4 -1t-4 -1q-20 4 -36 4q-6 0 -12 -2q-8 3 -16 2q-3 -5 -3 -29q0 -26 3 -78q2 -26 3 -45.5t1 -32.5
q0 -12 -1 -13q-2 -5 -4 4q-1 8 -3 10q0 -6 -1 -8q0 -4 0.5 -6.5t0.5 -4.5v-4v-2q-4 0 -5 6l-1 5l-2 10l-2 14l-23 179q0 2 -2 2t-7 -3.5t-6 -3.5q-6 -3 -13 -3q-8 0 -15 3q-8 4 -25 14.5t-44 29.5q-61 45 -60 58q7 45 65 45q17 0 54 -8q38 -8 47 -8q3 0 5 2v2q-3 16 -3 54
v55q0 25 3 75q3 49 3 75q0 38 -6 67q-2 11 -12 20q-9 7 -9 18q0 21 8 28.5t30 7.5q26 0 65 -14q44 -18 44 -43q0 -9 -6 -19t-11 -16q-17 -38 -22 -120q-9 -5 -15 -14q-2 -29 -9 -90q-9 -53 -9 -94q0 -5 41 -13q5 -1 13 -2q7 -1 16 -2.5t23 -3.5q3 -2 3 2l1 183l-3 275
q6 9 28 9q24 0 56 -12q37 -12 44 -30q1 -1 1 -6q0 -24 -15 -69q-14 -45 -15 -66l-1 -61q0 -25 -0.5 -71t-1.5 -114q0 -2 1.5 -7t4 -11t4 -11.5t1.5 -6.5l2 -17q0 -1 29 -7l66 -14l23 -4q-3 0 -12 -4q-22 -8 -31 -8q-6 0 -15 0.5t-17 1.5q-10 1 -19 3q-27 0 -33 -28zM411 -23
q-2 4 -13 16q-1 1 -1 6q0 6 7 6q11 0 11 -14t-4 -14zM390 26q2 2 1 7q-2 6 -4 6q-3 0 -1 -9q1 -5 4 -4zM302 138l-26 8zM270 143q-4 7 -55 4q-2 0 -2 -2q0 -3 2 -3h54l1 1v0zM217 318q1 4 1 10t-3 6q-4 0 -4 -18q0 -1 1 -1h1l4 3v0z" />
    <glyph glyph-name="I" unicode="I" horiz-adv-x="659" 
d="M443 -88q-80 -6 -131 -31l-140 -67q-43 -20 -61 -20q-13 0 -27 14q-10 10 -17.5 17t-13.5 11q-46 30 -46 35q0 2 6 16q4 8 5.5 12.5t2.5 6.5q7 31 29 39q28 10 46 33q15 19 27 50q5 12 10 25t10 27q36 72 71.5 127t70.5 93q6 7 15.5 17t22.5 24q14 36 14 94q0 17 -10 17
q-9 0 -58 -24q-50 -24 -73 -24q-30 0 -43 30l-27 60q-2 3 27 26q2 2 5 2q4 0 10 -8t8 -9q8 -7 36 1q87 27 162 42q14 4 34.5 8.5t48.5 10.5q25 5 46 8t40 3q47 0 80 -16q18 -8 18 -34q0 -7 -3 -11q-23 -24 -88 -27q-72 -3 -90 -18l-36 -29q-2 -2 -2 -4l3 -6t6 -11
q17 -32 17 -66q0 -8 -3.5 -32.5t-10.5 -66.5q-1 -2 -10.5 -25.5t-28.5 -69.5q-35 -84 -35 -118q0 -31 33 -31q7 0 17.5 1.5l24.5 3.5q27 5 38 3q43 -5 87.5 -17.5t92.5 -31.5q119 -47 134 -98q-2 -2 -4 -3q-4 -1 -9 -0.5t-12 1.5q-12 6 -11 6q-2 -4 -2 -5q0 -2 20 -19
q1 -1 1 -2t-1 -1q-2 -2 -8 0q-2 1 -3 1t-3 1q-17 6 -17 17q0 4 3 10.5t3 7.5q-6 8 -23 8q-13 0 -13 -8q0 -13 2 -13q1 0 4 3t4 3q4 0 7 -17q0 -1 3.5 -3.5t8 -5t8.5 -5.5t4 -4t-5 -4q-6 -3 -35 17l-6 -2q-12 -5 -20 -5q-5 0 -77 32q-69 31 -124 31q-26 0 -39 -3zM101 -210
q0 -3 -3 -4h-3q-2 2 -2 4q0 1 1 1l4 2q1 0 3 -3zM13 -78q-2 -17 -4 -14q-2 2 -2 4q0 1 2 7q1 1 2 1.5t2 1.5zM738 -90q4 1 4 4q0 8 -12 8q-5 0 -1 -7q5 -6 9 -5zM316 226q5 65 -12 65q-19 0 -62 -84q-17 -33 -28.5 -59t-17.5 -45l-43 -133q-2 -6 -1 -8q2 -3 4 -2l146 43
q5 2 5 6q1 16 0.5 38t-1.5 50q-3 17 8 59q7 25 10 40t4 22q1 3 -5.5 4.5t-6.5 3.5zM425 452q30 27 100 45q67 18 71 22q1 1 1 3q-2 2 -7 2q-8 0 -54 -9q-7 -1 -36 -9.5t-83 -24.5l-27 -8q-3 -2 -3 -4q0 -6 11.5 -13t18.5 -7q5 0 8 3z" />
    <glyph glyph-name="J" unicode="J" horiz-adv-x="518" 
d="M629 564q-8 -4 -10.5 -14.5t-9.5 -11.5q-11 -1 -46 -9q-2 -3 -13 -6q-13 -4 -20 -16l5 -35q3 -9 -24 -36q-30 -30 -33 -36q-10 -26 -15.5 -57.5t-7.5 -69.5q0 -2 11 -57q5 -25 8 -39.5t4 -19.5q2 -14 8 -36.5t14 -51.5q13 -42 13 -74q-2 -17 -6 -39.5t-10 -48.5
q-11 -22 -47 -48q-53 -38 -160 -32l-96 5l-60 13q-37 10 -55 24q-68 53 -68 59q0 1 3 1q9 0 53 -12q46 -13 65 -15q89 -8 128 0q85 18 106 51q15 24 30 76q5 20 5 144q0 11 12 13q7 0 5 11q-1 8 -1.5 21.5t-0.5 30.5q-2 13 -3 28q-3 22 -9 51v-98q-2 3 -22 77
q-8 31 -13 49.5t-6 26.5q-8 46 -8 64q-1 42 8 56l28 24q-4 -1 -26 -3q-26 -2 -29 1q-4 1 -44 -3q-45 -6 -38 -6l-127 -20q-10 0 -42 -13q-32 -12 -47 -12q-16 0 -16 18q0 8 9 19l9 10q-4 0 -22 8q-15 7 -17 12q-1 3 0 31t3 28l79 14q23 0 57.5 -4t82.5 -12q94 -15 143 -15
q10 0 18.5 0.5t16.5 1.5q13 2 38 7t63 13q49 10 107 9l27 -12q5 -5 4 -9q-2 -8 0 -10q3 -2 3 -5q0 -4 -8 -9z" />
    <glyph glyph-name="K" unicode="K" horiz-adv-x="541" 
d="M191 284q0 -3 2 -3q5 0 21 10l17 10q1 -3 6 -3q3 0 4 1q8 14 41 34q18 10 29 17t15 12q19 22 36.5 49.5t34.5 62.5q3 6 27 4q5 -1 8.5 -1h5.5q12 0 14 3q20 20 44 20t24 -34q0 -53 -102 -141q-21 -19 -57.5 -46.5t-89.5 -65.5l-89 -64q-9 -8 -3 -9q37 -11 71.5 -24.5
t66.5 -30.5q43 -23 76.5 -39t58.5 -26q20 -9 50.5 -22t71.5 -30q11 -5 28.5 -12.5t40.5 -18.5q3 -7 -32 -12q2 -2 4 -3l44 -21q2 -3 -2 -5l-31 14q-4 1 -10 0q-7 -1 -5 -6q0 -4 15 -8q15 -6 15 -12q0 -3 -6 -7q0 -2 -12 6q-2 0 -3 -3q-1 -4 2 -6l-3 2q-17 2 -41.5 7
t-57.5 13q-22 7 -53 21.5t-71 37.5q-78 46 -107 49q-17 1 -46.5 3t-74.5 5q-6 0 -8 1q-2 -2 5 -66q4 -32 6.5 -51t4.5 -26t22 -46q16 -29 16 -51q0 -11 -5 -23q-8 -18 -23 -18q-23 0 -49 38q-26 37 -24 60q1 16 20 38q19 21 18 27l-8 142q0 4 -5 4q-41 -5 -88 39
q-46 43 -46 86q0 15 9 29q17 7 45.5 19.5t66.5 29.5l27 14q3 1 8 66q1 22 3 69q3 40 -23 109q-2 7 -1 17q2 13 3 14q7 4 17 4q31 0 63 -22q35 -24 35 -52q0 -10 -3 -17q-14 -25 -25 -49.5t-19 -49.5zM588 -125q-6 0 -28 9q0 2 2 4l26 -9q6 -2 0 -4zM543 -101q-2 -3 -1 -3h4
h3v1q-1 1 -2 1q-2 0 -4 1zM535 -97q-3 1 -7 1q-2 0 -2 -2q-2 -2 1 -2q8 0 8 2v1v0zM495 -33q-2 1 -6 2.5l-12 4.5q-4 -2 -2 -5l13 -7q1 -1 4 -1q4 0 4 4q0 1 -1 2zM275 5q4 1 4 3q-1 1 -4 1q-2 0 -6 -2zM242 14q6 -3 22 -6q5 2 4 3q-4 2 -85 24q-4 1 -9 2t-10 3q-4 0 -4 -6
q0 -5 7 -6l16 -2q1 0 1 -1l-1 -1l-20 2q-3 -3 -1 -4l21 -4zM3 190q-2 -3 -3 -2t-1 3q0 4 3 13q2 5 6 5q1 0 1 -1q1 -3 -5 -17l-1 -1v0zM22 223q1 -1 -1 -5q-1 -1 -3 -1l-2 2q0 2 6 4z" />
    <glyph glyph-name="L" unicode="L" horiz-adv-x="465" 
d="M431 -120q-9 -5 -23 -12.5t-34 -15.5q-28 -7 -61 -7q-37 0 -105 16q-71 15 -105 15q-10 0 -19.5 -0.5t-19.5 -1.5q-3 -1 -4.5 7t-5.5 8l-20 -5q-5 0 -15 15q-4 4 -4 9q0 6 4 18q5 14 4 15l-17 41q-3 7 -3 13q0 18 29 18q30 0 85 -16q10 0 11 -1q0 2 2 12q4 4 8.5 10.5
t11.5 16.5q-9 481 -15 512q-11 13 -24 37q0 16 21 39q23 23 38 23q12 0 24 -20q16 -26 24 -33q21 -12 32 -18.5t13 -7.5q19 -15 24 -44q1 -5 1.5 -9.5t0.5 -7.5q0 -25 -23 -36q-29 -14 -35 -25q-27 -49 -38 -121q-11 -75 -12 -80q-6 -18 -6 -99q0 -32 -2 -34q-3 0 -3 8v10
q-3 12 -5 3q-3 -11 -3 -19q0 -9 8 -17t8 -13q-2 -70 13 -93q13 -19 62 -25q15 -2 45.5 -5t76.5 -8q10 -1 18.5 -1.5t16.5 -0.5q48 0 111 9q28 5 68 15q3 1 8 1q3 0 5 -2l2 -4q-10 0 -23 -3q-1 -4 -14 -15q-43 -16 -112 -51h3q5 0 5 -1q1 -5 -15 -9q-4 -1 -3 -2zM482 -95
q1 0 1 -1q0 -2 -11 -5q-1 1 -1 3q3 1 11 3zM203 -11l2 -6l-2 -2q-1 0 -2 1q-2 4 -2 6q0 3 1 3t3 -2zM174 62q0 7 -6 4l-2 -1l1 -2q1 -2 6 -3zM178 140q0 18 5 18q1 -1 1 -4q0 -24 -2 -26q-4 0 -4 12zM185 248l-3 1l-1 2l2 4q2 -1 4 -5zM200 293v-3h-3q-2 2 -3 4v2q1 1 3 1
t3 -1v-3z" />
    <glyph glyph-name="M" unicode="M" horiz-adv-x="467" 
d="M346 265q-1 -1 -3 -1t-7 2.5t-7 2.5q-1 0 -3 -2q-2 -10 -3 -21.5t-2 -25.5h-13l-2 -28q-1 -22 -17 -53q-8 -19 -13 -30t-6 -15l-1 -20q0 -3 -3 -8.5t-7 -10.5t-7 -9.5t-3 -6.5q0 -4 3 -9.5t3 -6.5q0 -3 -16 -13q-14 -10 -19 -10q-29 -2 -31 -1q-2 0 -6.5 3.5t-9 8t-8 9
t-3.5 6.5l-14 68q-18 76 -18 354q0 19 -2 21q-1 -1 -1 -2l-15 -31q-42 -92 -42 -277q0 -101 12 -170q3 -16 25 -42q20 -24 18 -35q-2 -12 -18 -22q-15 -12 -17 -17q-2 -7 -3 -14t-2 -15q-6 -19 -26 -22q-9 -2 -15 18q-2 5 -3 11t-3 12l-17 42q-1 1 11 68q13 72 15 84
q1 34 0.5 83.5t-1.5 116.5q-2 75 -4.5 123.5t-6.5 70.5q-1 10 -17 37q-15 24 -15 35q0 7 4 15q11 20 36 20q10 0 35 -7q19 -3 36 -10q7 -1 7 3q0 -3 -12 20q0 1 -8.5 6t-8.5 15q0 11 9 34q10 25 21 27l12 -5q28 -3 72 -12q8 -2 16.5 -12.5t12.5 -14.5q24 -23 24 -46
q0 -12 -20 -57q-20 -44 -17 -76h-11q-10 -2 -11 -8q-5 -18 0 -57q3 -37 -2 -55q-1 -1 -1 -4t3 -6q4 -8 4 -11q5 -20 0 -62q-6 -53 -6 -66q0 -24 8 -32q1 -4 1 -9t1 -10q1 -3 4 -3q15 0 20 12q18 35 45 137l39 148q1 5 1.5 14t-0.5 23q0 11 1 22t3 21q1 10 4.5 23t8.5 30
q5 5 20 5q42 0 88 -25q56 -30 56 -72q0 -2 -2 -12q-1 -4 2 -21q4 -19 -31 -33q-21 -8 -26 -20q-4 -10 -5.5 -50.5t-2.5 -112.5q-2 -134 3 -169l10 -89q0 -1 -0.5 -4.5t-1.5 -9.5q-2 -3 -3 -3t-2 3l-1 21q0 2 -2 2t-2 -2v-27q-13 -22 -13 -46q0 -6 -6 -3q-14 8 -17 34
q0 5 -3 11t-7 12.5t-6.5 12.5t-2.5 11q1 19 -1 48t-7 70q-11 94 -12 118l-4 108v6q0 8 -1 13q-1 1 -8 3q-5 3 -6 -1l-2 -29zM212 92q5 5 5 7q-6 1 -8 -2q-1 -4 3 -5z" />
    <glyph glyph-name="N" unicode="N" horiz-adv-x="410" 
d="M422 431q-4 -3 -5.5 -13.5t-3.5 -11.5q-9 -2 -16 -6l4 -2q2 1 3 1t2 1q1 -1 1 -6q-3 -6 -9.5 -5t-7.5 -3q-1 -2 1 -4h5q0 -1 1 -2q-3 -7 -10 -6q-3 1 -6 1q-2 0 -3 -1q-1 -7 3 -10l4 3q-1 -3 -1 -8q6 -1 5 -2q-1 -4 -4 -4q-1 0 -6 3t-7 3q-5 0 -5 -4q0 -8 7 -9l22 -7
q4 -1 3 -5q-4 -1 -9 -1.5t-10 -2.5q-1 -1 -1 -4t1 -6q3 -8 2 -9t-3 -2t-4 -2.5t-5 -3.5q-8 -6 -8 -9t3 -7v-3l-4 -25v-3q1 0 6 3q17 -2 18 -7q-5 -27 -9 -65q1 -71 15 -162q0 -2 13 -22q13 -19 13 -34q0 -8 -5 -20q-27 -61 -76 -61q-37 0 -54 26q-10 12 -8 52q2 46 -1 59
l-16 76q-15 71 -68 166q-10 18 -20 35l-20 34q-2 2 -3 2l-2 -8l-5 -3q5 -20 11 -41t14 -42l-9 -141q-3 -46 10 -88q2 -5 10 -27t24 -60q10 -25 6 -65q-3 -36 -31 -36q-23 0 -56 24q-34 25 -41 46q-5 15 -5 28q0 30 22 87q23 60 25 84q3 37 -9 154q-11 112 -8 125t-16 20
l-39 17q-20 8 -20 100q0 77 19 87q10 7 21 7q31 0 64 -52q4 -8 39 -72q15 -29 44 -103q32 -81 35 -102q0 -7 -4 -8q-4 0 -8 1l-2 -4q9 -7 31 -46l23 -62q0 -3 2 -1l2 2q1 63 16.5 129.5t44.5 136.5q63 148 153 213l59 42h1q2 0 2 -4v-2l-3 -2v-5q-1 1 -2 1q-4 0 -5 -1
q-27 -25 -25 -27q11 -3 48 31q39 34 51 31q5 -2 5 -6q0 -14 -21 -29q-85 -56 -121 -111l-35 -53q-7 -8 -15 -16.5t-16 -18.5q-2 -5 5 -6l4 1zM354 188q-2 0 -2 -4q1 -4 4 -4q3 3 3 5q0 1 -3 3h-2zM375 246q0 2 -3 2q-16 0 -16 -13q0 -9 14 -21zM362 244q1 0 1 1q0 5 -11 5
q-4 0 -5 -3q6 -2 15 -3zM353 259q4 2 5 5q1 1 1 3q0 8 -5 6q-2 -6 -2 -9t1 -5zM151 295q-1 2 -2.5 9.5t-4.5 19.5q1 1 3 1l7 -28q-1 -1 -1.5 -1t-1.5 -1z" />
    <glyph glyph-name="O" unicode="O" horiz-adv-x="543" 
d="M491 -14q-8 -2 -11 -4q-1 -1 1.5 -3t2.5 -3q-1 -1 -1.5 -2t-1.5 -2q-4 2 -6 4l-2 -1q-2 -5 -7 -13q-1 -1 -2.5 -2t-3.5 -3q4 -2 6 -5q1 -1 1 -3q0 -6 -4 -7q-7 2 -13 1q-6 -8 -6 -13q5 4 8 4q2 0 2 -1q0 -3 -4 -9t-9 -11.5t-11 -10t-10 -4.5h-2l-1 2q1 3 15 15q-2 2 -3 2
q-30 -25 -28 -29q9 6 12 6q1 0 1 -1q2 -10 -34 -32q-34 -24 -47 -22q-1 -1 -9 -7q-5 -1 -11.5 -3t-15.5 -4q-20 -12 -57 -12q-45 0 -88 15q-57 19 -65 54l-1 1h-2l-4 -4l-1 -1q-1 0 -2 1q-2 7 -17 23q-16 18 -15 22l2 1h2l5 -2h3l2 2q-2 3 -7 12.5t-15 25.5q1 2 1 9
q-2 6 -5.5 15t-7.5 22q0 3 -3 8q-4 2 -5 3q1 2 1 4t1 5l-5 40q-1 2 -1 5q4 1 6.5 2t4.5 2q-1 10 -0.5 21t1.5 25q2 4 4 9t4 13q1 5 2 12.5t3 18.5q2 5 5.5 14t8.5 20q0 8 3 19q2 5 7 18.5t13 33.5q4 7 9 16.5t11 23.5q1 3 -2.5 7t-3.5 5q3 4 5.5 8t4.5 8q13 28 27.5 53.5
t30.5 49.5q11 17 28.5 41.5t40.5 56.5q16 22 16 30q0 -5 -8 16v1l27 9q3 1 6.5 1t8.5 1q4 0 11 2t11 2q11 -1 30 -6.5t47 -16.5l9 -4.5t12 -6.5q8 0 17 -4q-1 -3 5 -14q13 -4 29 -14q7 -4 23 -31q3 -2 11 -8q0 -2 -2 -4.5t-2 -3.5l1 -11q-1 -2 -3 -5.5t-7 -9.5q-1 -1 -3 -2
l-6 -3q-7 -3 -7 -5q0 -10 15 -23q10 -10 21 -34q0 -8 13 -33q-2 -3 -3 -9q2 -5 3.5 -13t3.5 -18q-2 -15 0 -33q1 -8 4 -23.5t10 -39.5q6 -2 10 -2q19 0 61 19q50 22 64 22q7 0 7 -4q0 -13 -40 -40q-39 -26 -53 -29l-39 -7q-5 -2 -5 -4l7 -40q2 -13 -7 -55q-7 -42 -14 -57
q-21 -46 -19 -55zM331 -152l2 -1q2 -1 6 -1q8 0 15 7q-2 4 -2 7q1 1 2 1.5t3 2.5q-2 3 -4 2q-3 -2 -10 -9q-2 -1 -5 -3t-8 -4zM221 -175q13 -1 13 4l-4 2q-8 -1 -29 2q-13 2 -15 1q-4 -1 -4 -2q0 -6 39 -7zM199 -99l2 2l-1 3l2 2q4 0 17 -10q16 -11 18 -12q17 -5 32 -5
q78 0 158 113q2 2 5.5 6t7.5 9q6 16 21 48q2 0 2 1q0 11 6 16q5 13 15 44l8 56q3 24 0 27q-5 1 -12.5 3.5t-18.5 6.5q-54 22 -74 69l1 1q4 2 5 3l-1 1l-3 1q-1 -1 -5 -3l-3 9q-2 5 -5 11.5t-7 14.5q-5 20 -7 39t-1 36q0 1 3 21q3 18 2 19l-2 1h-2q-27 -14 -46 -35
q-8 -12 -19 -29t-26 -39q-6 -6 -14.5 -15.5t-19.5 -22.5q-2 -4 -6.5 -10.5t-9.5 -16.5q0 -7 -16 -30q0 -7 -4 -19q-5 -11 -10.5 -22.5t-10.5 -24.5v-10q-2 -4 -4.5 -8.5t-6.5 -11.5q-1 -4 -2.5 -9.5t-4.5 -13.5q-4 -7 -9 -7q-3 0 -3 3q0 4 1 6q5 11 10.5 24t12.5 27
q-1 5 -1 17q9 14 21 43q0 3 -2 5q-14 -4 -25 -30t-16 -29q-4 -9 -9 -22.5t-10 -32.5q-1 -6 5 -62q-4 0 -8 -3v-18q0 -14 2 -16l2 -1q3 3 5 11q6 2 9 4q0 2 -3 19q0 2 2.5 7t2.5 7q0 4 -4 7q-1 0 1 2h3q3 -5 6 -3h2q4 -3 -2 -51q-1 -12 10 -47q5 -12 10 -23.5t10 -22.5
q3 -3 6 -6.5t7 -8.5q-2 -2 -6 -3q-12 5 -20 26l-24 58q-1 1 -3 1q-1 0 -2 -1l2 -21q1 -14 20 -42q20 -28 32 -33h2zM478 -31l1 -1q-1 -4 -5 -4l-2 1q-2 3 4 5zM144 84q-12 4 4 16q2 2 4 2.5t4 1.5q1 -1 1 -3q0 -16 -13 -17zM445 277q3 -1 7 -5q9 -11 34 -29q4 -2 5 -2
q8 0 8 17q0 -2 -1.5 8.5t-3.5 32.5q-2 13 -3 25t-3 24q-2 14 -5.5 26t-8.5 21q-1 5 -6 16q-6 7 -12.5 14t-14.5 15l-3 1l-2 -1l-1 -2l-18 -38q-1 -2 -1 -13q0 -51 11 -81q3 -5 7.5 -12t10.5 -17zM137 399q3 1 3 3q-1 4 -2 4l-2 -2t-2 -3l1 -2h2v0zM381 486l2 1v2l-2 1h-3
l-2 -1v-2l2 -1h3zM259 575q2 0 4 2q1 1 -1 3h-1q-3 -1 -5 -3l-1 -1l2 -1h2zM302 593q4 1 6 3v1q-1 1 -7 1l-2 -1v-2l1 -1l2 -1v0zM288 594l-1 1q-16 0 -17 1q0 -2 2 -4l3 -3q1 0 12 3zM263 587l-1 2q-4 2 -6 1l-1 -1v-2l1 -1h3h3z" />
    <glyph glyph-name="P" unicode="P" horiz-adv-x="538" 
d="M294 417q1 18 14 54q20 28 17 29q-1 1 -4 1q-1 0 -9 -2q-11 -2 -13 -4q3 -5 3 -11q-4 0 -11 -3q-8 -4 -11.5 -4.5t-11.5 -2.5q-1 -2 -2 -3.5t-3 -3.5q-5 -1 -20 -6q-1 -2 -6 -11q-8 -4 -19.5 -9.5t-27.5 -13.5q-6 -7 -12.5 -14t-14.5 -14q-2 -2 -18 -15q-12 -10 -14 -18
q-1 -16 5 -21q4 0 9 -4l-1 -2q-8 -10 -21 -17q-16 -10 -25 -7v2q1 3 7.5 7t6.5 7q0 6 -9 5q-16 0 -17 1q-5 5 -13.5 12t-20.5 17q-5 8 -13 22.5t-19 36.5q-2 4 -13 68q-10 61 -8 66q6 22 15 26q4 0 12 8h2q19 -8 38 -10q5 0 27.5 2t64.5 6q8 1 20.5 1.5t31.5 2.5l24 6
q38 5 75.5 9.5t74.5 6.5q14 1 59 1t121 -2q49 -2 75 -3q46 -4 73 -15q83 -35 80 -86q-4 -6 -9 -20q2 -4 2 -11q-1 -7 -19 -31q-8 -11 -14.5 -17.5t-10.5 -9.5l-62 -26q-5 -2 -15.5 -6t-24.5 -10q-2 -1 -8 -3l-1 4l-2 1l-1 -1q0 -5 -1 -7q-5 -5 -13 -5q-7 -1 -11 -1t-6 -1
l-122 -43q-16 0 -30 -26q-4 -7 -7.5 -14t-7.5 -14q-10 0 -24 -7q-37 -59 -43 -146q-2 -28 -2 -48t1 -31q4 -38 12 -81q3 -8 9 -21v-17q2 -5 5.5 -14.5t8.5 -23.5q3 -10 2 -15q-1 -7 -1.5 -10t-0.5 -4q0 -8 3.5 -23.5t3.5 -22.5q1 -16 -10 -34q-11 -17 -29 -16
q-11 5 -17.5 8.5t-8.5 4.5q-5 5 -15 25q-12 12 -15 55q-7 7 -9 25l-1 2h-4h-8l-1 1q-2 8 5 35l9 38v17t-1 20l-5 123q0 42 15 155q0 6 -3 14q-7 -2 -17 -4t-24 -5q-8 -1 -28 -18q-5 -5 -25 3q-7 3 -32 -12q-27 -15 -32 -15q-4 0 -4 7l4 35q2 5 5 10t5 10q14 29 40 54
q4 4 51 42q3 2 6.5 5.5l7.5 7.5q11 4 32 17zM344 -95q1 1 -1 4l-1 1h-3l-2 -3v-3q4 -2 6 -1zM348 -25q3 1 3 4q-2 2 -4 2l-1 -1l-1 -3zM346 -7q2 1 4 3q0 3 -2 5h-2q-2 -1 -5 -4l1 -2l2 -2h2zM311 348q-1 1 -4 1q-13 0 -37 -24q-30 -29 -30 -43q0 -5 5 -5q7 0 36 12
q-1 -1 13 -1q22 0 22 36q0 19 -5 24zM245 307l4 2l1 4l-1 2l-2 1q-4 -4 -4 -8zM327 341v3l-2 2h-2q-2 -4 -2 -5l2 -2h2zM535 529q2 1 4.5 1t6.5 1q11 2 8 9q-2 3 -5 3q-12 0 -45 -16q2 0 -6.5 -0.5t-18.5 -0.5q-22 0 -44.5 -1.5t-47.5 -3.5q-5 -2 -11.5 -5.5t-15.5 -8.5
q-10 2 -22 -5q-5 -7 -5 -12q0 -10 32 -27q2 -2 6 -6.5t9 -9.5q2 -1 5.5 -1.5t7.5 -2.5l2 -2l3 -3q11 0 19 -4l-2 -2q-1 -1 -2 -2.5t-3 -3.5t0 -2h12q3 -4 7.5 -9.5t11.5 -13.5q2 -8 5.5 -16.5t8.5 -18.5q10 -4 87 44q129 82 129 97q0 3 -1 4q-5 1 -19 9v2q4 -1 8 -1.5
t9 -0.5q-1 3 2 8h14l1 2v2q-6 6 -34 6q-27 0 -34 -13q-1 -1 -4 -1t-4 1q-1 2 -1 5t1 4l6 2v2v2l-36 5q-4 0 -8 -4q-1 -1 -1 -3q0 -1 1 -2l6 -2l1 -3l-1 -2q-1 -1 -22 -3q-5 -1 -9 -1h-6q-5 0 -5.5 1t-0.5 2t1 1zM341 431l3 1l1 2l-1 2l-3 1l-1 -1v-2v-2zM384 511v-2
q-2 -2 -6 -3l-2 1v2q1 2 6 4zM439 513l-15 -2h-10h-4l-1 3l1 3h4q5 0 10 1h14l1 -2v-3v0zM679 513q7 0 5 5q-1 3 -5 4q-3 1 -5 -2q-1 -6 5 -7zM598 517q-5 -3 -8 -3q-5 0 -8 13l1 2h2q4 -2 6 -4q2 1 6 1q5 0 3 -5zM504 517q-1 -1 -1.5 -2t-2.5 -2q-4 1 -7 6q1 4 5 4
q5 0 6 -4v-2v0zM479 516q-1 -1 -11 -2h-12l-1 2v2q15 7 24 3l1 -3l-1 -2v0zM635 518h-3l-1 2q-1 4 3 10t8 6l2 -2q0 -2 -2.5 -6.5t-2.5 -7.5zM525 526q-2 -1 -5 -1t-5 2l1 2q3 4 6 4q4 0 5 -4v-2zM420 530v2l-2 2q-4 1 -6.5 1.5t-4.5 0.5q-5 0 -8 -3v-2l2 -3h18zM500 540v2
q-1 1 -6 1q-5 1 -7 -1q0 -3 4 -4q5 -2 8 0z" />
    <glyph glyph-name="Q" unicode="Q" horiz-adv-x="593" 
d="M548 593q14 -11 14 -31q0 -17 -9 -33q-14 -33 -40 -33h-19q-80 0 -174 -195q-11 -27 -30 -113q-20 -97 -20 -140q0 -35 18 -35q19 0 38 13q66 41 118 119q55 80 62 162q3 45 -31 45q-31 0 -63 -32l-24 -28t-25 -28l24 37q10 13 20 52q9 38 22 53q1 2 4 5h-3h-4q-6 0 -6 3
q0 2 1 3t11 -1q-5 1 12.5 1.5t56.5 0.5q40 0 51 -14q8 -11 8 -17q0 -3 -4 -9t-5 -10q-16 -206 -120 -328q-1 -1 -1 -1.5t-1 -1.5q1 0 25 26q13 14 20 22t9 11q4 8 13 17l1 -1q-2 0 -3 -3q-30 -43 -78 -91q-32 -35 -32 -44q0 -10 33 -23q7 -2 35.5 -10t80.5 -22q10 -3 24 -3
q76 0 183 33q31 10 61 24l31 15q-1 0 -9 -8q-1 -2 -1 -4t-1 -4q-2 -9 -11 -9q-2 1 -3 3q-1 1 -1 1.5t-1 1.5l-1 1h-2l-2 -2q0 -2 3.5 -4t2.5 -3q-18 -14 -18 -13q0 -1 3.5 -1t3.5 -1v-1l-2 -1q-26 -20 -72 -75q-41 -52 -68 -69q-43 -28 -121 -28q-60 0 -148 49
q-29 16 -57 32l-56 32q-65 34 -123 34q-9 0 -18.5 -0.5t-19.5 -1.5q-22 -3 -77 -43q-4 -1 -9 -1.5t-13 -2.5q-1 -1 -3 -1q-4 0 -4 4q0 7 10 26q10 17 10 20q7 39 49 70q40 30 81 30h23q3 -1 9 -1h4q9 0 11 8q-1 -4 -1 36q0 111 53 259q25 69 53.5 126.5t62.5 105.5l5 8
q5 10 14 24t21 34q32 53 49 53q3 0 6 -3zM619 -203l-4 2q-4 0 -5 -3q-2 -2 2 -2q5 0 7 3zM630 -194q1 -5 3 -7q7 7 5 14h-6q-4 -1 -7 -4q1 1 5 -3zM63 -92q3 0 3 4q0 6 -4 6q-2 0 -5 -4q0 -6 3 -6h3zM636 -76q-3 0 -4 4q1 2 1 5q4 0 12 -5q0 -1 -4 -2zM523 213q-3 5 -2 6
q1 4 3 3q2 -2 2 -7q0 -4 -3 -2zM538 285q1 0 1 -1q1 -2 1 -5t-2 -3t-2 3t1 5z" />
    <glyph glyph-name="R" unicode="R" horiz-adv-x="524" 
d="M132 308q-2 -3 3 -3q11 -2 15 8q16 49 88 124q77 80 145 106q24 10 48 10q46 0 70 -47q9 -17 7 -34q-1 -10 -1.5 -16.5t0.5 -9.5q-2 -1 -7 -1q-12 -7 -21 -23q-12 -20 -19.5 -31t-9.5 -15q-18 -27 -37 -37q-4 -1 -6 -11l-4 -13q-25 -29 -49 -52t-47 -39q-15 -11 -15 -27
q0 -44 94 -138q15 -16 59 -55.5t118 -105.5q96 -86 99 -105q2 -12 20 -26q16 -12 14 -14q-3 -4 -27 -1q-26 3 -31 3q-2 -2 35 -22q5 -4 14 -9t20 -12q-26 11 -53.5 21.5t-56.5 21.5q-7 1 -7 -4v-4q1 -1 1 -3q0 -3 -3 -3q-9 0 -49 22q-9 5 -22.5 12t-31.5 17q-7 3 -14.5 7.5
t-17.5 9.5q-10 15 -31 36q-120 96 -214 238q-20 22 -42 51q1 9 -2 23q-1 1 -3 1q-3 0 -7 -3q-6 -5 -8 -3q-2 1 -4 12t-5 9q-2 0 -5 -23q-3 -11 -7 -28t-9 -42q-3 -15 -3 -33q0 -14 1.5 -35.5t5.5 -50.5t5.5 -49.5t1.5 -34.5q0 -44 -21 -44q-25 0 -91 66q-18 18 -15 40
q0 7 22 39q22 33 25 45q19 59 29 191q1 7 2.5 27t5.5 52q2 23 3.5 43t1.5 37q0 46 -9 82q-5 13 -42 39q-35 23 -33 31q5 23 46 36q30 9 61 9q42 0 53 -17q13 -22 13 -57q0 -38 -32 -143l-14 -45v0zM377 480q-4 -1 -18 8q1 0 3.5 0.5l7.5 1.5q9 1 9 -4l-2 -6q-15 -5 -31 -10
t-33 -11q-5 -4 -13.5 -12.5t-20.5 -22.5q-21 -24 -38 -32q-6 -3 -33 -45q-30 -47 -30 -68q0 -14 14 -14q15 0 45 15q44 22 68 49q8 11 19 28t25 40q5 7 13 19t19 30q7 15 7 21v1q4 0 15 -6q11 11 -26 18zM425 397q11 0 11 13q0 4 -6 6q-3 1 -6 -8q-1 -3 -1 -7t2 -4z" />
    <glyph glyph-name="S" unicode="S" horiz-adv-x="633" 
d="M625 589q2 -3 46 -32q35 -21 35 -45q0 -7 -3 -14q-11 -33 -68 -49q-38 -11 -60 -18t-27 -11l-110 -68q-37 -24 -63 -43.5t-40 -35.5q-19 -6 -37.5 -13.5t-37.5 -17.5q-2 -5 5 -5q11 0 23 6l2 -4q-2 -3 -6.5 -8t-10.5 -9.5t-11 -7.5t-8 -3q-17 2 -28 -9q-7 -16 -19 -35
l-3 -1q-6 -3 -6 -5q0 -1 3 -2h3q31 11 75 26t102 33q7 2 26.5 8t51.5 15q51 16 77 17q25 2 47 3t42 1q4 1 26 -14l18 -13q19 -13 19 -23q0 -8 -21 -18q-18 -8 -18 -18q0 -3 1 -5q3 1 11 3q1 -1 -5 -9q-26 -30 -27 -39q0 -7 -65 -51q-68 -48 -74 -56q-4 1 -14 3
q-7 -1 -15.5 -3t-18.5 -4q-8 -2 -17 -7q4 -8 3 -18q-8 -5 -20 -11.5t-29 -14.5q-13 -5 -27 -11.5t-30 -14.5q-1 -1 -2 -1.5t-2 -1.5l7 -2q7 -1 5 -8q-1 -4 -30 -22q-27 -18 -31 -18q-39 6 -55 5q-5 -2 -5 -4t4.5 -9t3.5 -8q-3 -8 -24 -13q-29 -5 -30 -6q-19 -8 -49.5 -19
t-73.5 -24q-95 -29 -117 -27q-2 0 21 23l26 24h8.5t9.5 1q4 2 9.5 4t13.5 4q14 3 86 44q26 14 65 36t92 51q138 79 183 124l76 76q-5 1 -11.5 1t-13.5 1q-35 -14 -124 -42q-43 -14 -70.5 -23t-40.5 -14l-112 -39q-14 -6 -24 -6q-26 0 -42.5 20t-16.5 46q0 14 4 21
q63 127 171 237q10 10 62.5 60.5t149.5 142.5q3 4 9 13.5t14 26.5q26 47 85 47q18 0 26 -9z" />
    <glyph glyph-name="T" unicode="T" horiz-adv-x="453" 
d="M101 628q11 -9 29 -20.5t43 -25.5q66 -23 256 -23q148 0 196 17l33 12q3 -2 3 -5l-29 -20q-51 -35 -103.5 -61t-107.5 -43q-1 0 -5.5 -0.5l-13.5 -1.5q-10 0 -13.5 -7t-7.5 -5l-4 2q-1 0 -1 -1q3 -4 13 -15.5t27 -31.5q35 -40 35 -56q0 -17 -27 -24q-32 -8 -39 -36
q-2 -15 -3 -30t-3 -31q-10 -79 -9 -94l6 -204q2 -36 3 -32q-2 -2 -5 -1q-5 2 -5 4l-3 23q-1 1 -4 1q-2 0 -3 -1l4 -55q1 -8 -1 -12q-2 2 -3 2t-5 -2q-2 -8 -3 -22q-1 -16 -7 -12q-3 1 -2.5 8.5t-4.5 7.5q-4 0 -10 3q-1 3 6.5 4.5t7.5 5.5q-1 2 -3 4q-2 -2 -5 -4q-2 -3 -3 1
q-39 134 -48 421q-1 15 -1 45.5v76.5q-8 28 -72 32q-1 -1 -4 -2q-2 -1 -5 -2t-7 -3q-14 -7 -23 -7q-26 0 -49 32q-7 8 -16.5 20.5t-22.5 29.5q-6 5 -16.5 14t-25.5 21q-33 25 -33 38q-1 9 49 62q18 18 19 18q2 0 7 -3z" />
    <glyph glyph-name="U" unicode="U" horiz-adv-x="390" 
d="M285 530q-2 10 -21 30q-19 19 -19 30q0 7 5 17q8 14 46 14q37 0 75 -15q40 -18 45 -41q2 -6 -28 -52q-33 -49 -36 -52q-14 -26 -15 -102q-2 -42 -4 -67.5t-4 -33.5q0 -2 6 -3.5t7 -1.5q3 -7 2 -18q-4 -16 -3 -19l6 -110q1 -18 10.5 -86.5t27.5 -188.5q-4 -10 -20 -10
q-43 0 -111 50v3v14t-1 22q-1 20 5 31v2l6 63q1 3 -4 5q-5 -5 -18 -39q-2 -9 -5.5 -19.5t-8.5 -23.5q-27 -31 -61 -31q-31 0 -66 26q-58 45 -58 197q0 13 0.5 31t1.5 41q2 55 3 62q-5 29 -3 73q1 7 3 -16q0 -8 4 -16q7 -4 8 5l2 79q0 2 -2.5 19.5t-7.5 51.5l-8 66
q-20 16 -23 22q-10 12 -12 29l8 11q9 10 9 13q14 23 41 23q36 0 91 -37q47 -32 58 -49q3 -5 3 -16q0 -31 -29 -115q-17 -47 -33 -99l-4 -41q0 -2 -1 -2l-1 1q-3 6 -4 6q-4 -1 -4 -7q0 -4 6 -5l8 -2q-1 -2 -2 -3.5t-3 -3.5q-5 4 -8 5.5t-4 2.5l-4 -2q0 -14 -0.5 -24t-1.5 -17
l-15 -89q-4 -20 -2 -24q5 1 12 -2q1 -6 -6 -6q-5 0 -3 -2l2 -24q0 -4 5 -4l7 1q4 -3 4 -4q-5 0 -8.5 -0.5t-7.5 -1.5q-3 -12 11 -38q16 -33 42 -33q23 0 50 29q19 20 24 35l50 121q-3 20 -5.5 42t-4.5 45q10 64 3 175zM269 65q0 -16 4 -28q9 9 23 49q1 3 2 11t2 22
q1 10 0 11q-7 5 -11 -6zM334 190q1 1 1.5 2t1.5 2q-2 1 -5 1l-1 -1q0 -1 2 -5l1 1v0zM332 199q1 -1 2 -1q4 0 4 2q0 1 -1 2q-4 2 -5 1v-4v0zM333 299q2 0 2 3q2 4 -2 5l-3 -2l-1 -2q1 -2 2 -2.5t2 -1.5zM335 312q-2 -5 -3 -3q-3 0 -3 4l2 19q0 3 2 1q2 0 2 -1v-20z" />
    <glyph glyph-name="V" unicode="V" horiz-adv-x="436" 
d="M189 385q-7 -6 -7 -28q0 -23 24 -131l22 -96q2 -2 3 -1l1 2q7 145 50 227q6 10 6 16q0 2 -4 3t-4 5q0 7 7 25q26 29 58.5 69.5t71.5 91.5l2 1q12 -1 38 20l43 33l65 43q0 1 -2 3l-29 -17q-5 -3 -8 -3q0 3 12 11l46 27q1 2 6 7q-11 -12 -12 -22l50 23l7 4q4 3 6 3
q-38 -29 -39 -28q3 -4 29 10q10 6 11 5t-5 -6l-21 -13q-5 -5 -13 -12.5t-19 -15.5l-49 -31q-10 -7 -65 -90q-61 -91 -64 -119l7 -1q9 -2 14 -11l2 -4l-19 -85l-2 6q-1 0 -3 3.5t-4.5 8t-4.5 8.5t-3 4q-1 -1 -3 -8l-5 -34q-2 -4 -5.5 -11.5t-7.5 -20.5q4 -8 7 -17.5t6 -20.5
q0 -39 -19 -118q-10 -48 -15.5 -79t-6.5 -45q0 -4 1 -11.5t1.5 -16t1.5 -16t1 -11.5q0 -19 -4 -19l-3 4q-3 3 -6 2q-10 -1 -23.5 -3.5t-30.5 -7.5q-3 -2 -8 -6t-12 -9q-14 -11 -22 -9q-3 1 -18 18q-14 14 -16 18q-2 49 -6 116q-14 70 -24.5 119t-17.5 78q-25 109 -56 194
q-23 58 -61 93q-32 29 -32 42q0 4 2 12t5 16.5t6 15.5t6 10q2 4 25 2q8 0 28 -12q24 -14 27 -17q45 -19 61 -35q22 -22 22 -64v-11q0 -13 -1 -18q1 -13 0 -35l-1 -30v0zM278 -105q-4 0 -7 1q-1 1 2 3q3 0 7 -2v-2h-2zM218 128q2 2 1 4l-1 6l-1 4l-2 6q-3 0 -2 -13q1 -9 5 -7
zM204 189q1 1 1 3q-1 4 -4 4l-2 -2q2 -4 5 -5zM397 244q-1 -13 -3 -13q-1 0 -3 23q0 4 -0.5 10.5t-1.5 15.5q-1 13 4 18q6 2 7 2q4 0 4 -4zM440 578q-1 -1 -2 -1.5t-2 -1.5l-2 1q-1 3 1 5q1 0 5 -2v-1v0zM444 591v2v2l2 1l2 -1q1 -3 -2 -5zM454 598q0 -1 -5 -3h-1l-2 2l4 4
l2 -1zM467 600q-5 0 -6 4q7 10 10 10l2 -2q0 -3 -6 -12zM526 661q1 -1 3 -5q-8 -4 -11 -4h-1l9 9v0zM574 684q-6 -2 -7 -1t0 1q1 3 6 3q1 -1 1 -3zM613 704q1 1 2 1t1 -1q0 -7 -13 -11q-1 -1 -3 -1q-1 0 -1 1q-1 3 14 11zM631 708h-4l-1 2q2 2 5 2h4z" />
    <glyph glyph-name="W" unicode="W" horiz-adv-x="668" 
d="M408 382q-7 -6 -7 -28t24 -131l21 -95q2 -2 3 -1l2 2q7 144 50 226q6 10 6 17q0 2 -4.5 2.5t-4.5 4.5q0 6 8 25q26 30 58.5 70.5t71.5 91.5l2 1q10 -1 37 19l43 34l66 42q0 2 -3 4l-29 -17q-5 -3 -8 -3q0 4 13 11l45 26q2 4 6 8q-11 -12 -12 -22l50 23l7 4q4 3 7 3
q-39 -30 -39 -28q2 -4 28 10q10 6 12 4q0 -1 -6 -5l-20 -13q-6 -5 -14 -12.5t-19 -16.5l-49 -31q-7 -5 -64 -89q-62 -92 -65 -119l8 -1q9 -2 13 -11l2 -4l-18 -85l-3 5q-1 0 -3 4t-4 8.5t-4 8t-3 3.5q-2 -2 -3 -7l-5 -34q-7 -8 -14 -33q4 -7 7 -16.5t7 -20.5
q-2 -39 -19 -119q-20 -92 -22 -123q0 -4 0.5 -12l1 -16t1.5 -16t1 -12q0 -18 -3 -18l-3 3q-3 4 -6 3q-20 -2 -54 -12q-4 -2 -8.5 -5.5t-11.5 -8.5q-15 -10 -22 -9q-5 2 -19 17q-14 17 -15 19q-1 24 -3 52.5t-4 62.5l-6 28q-2 11 -8 40.5t-17 77.5q-1 2 -1 5q0 -5 -11 -47
q-8 -22 -22 -58t-34 -88q-8 -21 -8 -52q0 -15 -4 -22q-20 -33 -41 -37q-44 -11 -54 -9q-10 1 -13 23q-1 6 -2 15t-2 20q-1 3 -1 7q0 8 5 23q6 16 6 18v27t-1 36q-2 34 -4.5 58t-6.5 39q-30 120 -29 128q0 2 -22 39q-14 23 -25.5 40.5t-20.5 30.5q-11 3 -30 22q-3 6 -25 22
t-25 24q-1 2 1.5 5t6 6.5l6.5 6.5t3 5q-18 40 -17 45q2 8 35 21q31 13 43 15q38 8 62 -6q20 -13 43 -48q17 -26 25 -48q1 -5 5 -20.5t12 -41.5q12 -38 12 -62l7 -86q2 -23 3.5 -43t0.5 -37q2 -14 3 -32.5t2 -41.5q1 -42 3 -42q0 2 1 4q6 13 15 34t22 50q40 106 39 209
q0 8 -29 89q-10 28 -25.5 50.5t-35.5 41.5q-31 28 -31 43q0 8 6 28q8 21 13 26q2 4 25 2q8 -1 28 -12q24 -14 27 -17q45 -21 60 -36q23 -23 23 -63v-11q-1 -5 -1 -9.5v-8.5v-35l-1 -31v0zM498 -108v3q-4 2 -7 2q-3 -2 -2 -4q3 -1 7 -1h2zM436 126q2 2 1 4l-1 6v4l-2 5
q-4 0 -2 -12q2 -11 4 -7zM422 187q2 2 1 3q-1 2 -2 2.5t-2 1.5l-2 -2q2 -4 5 -5zM615 242l-2 -14q-3 0 -4 24v10.5t-1 14.5q-2 13 4 19q2 1 6 1t4 -3zM659 576q-1 -1 -5 -3l-2 1q-1 3 1 5l6 -2v-1v0zM663 589q-1 1 -1 2t1 2l2 1l2 -1q0 -3 -2 -5zM672 596q0 -1 -5 -3l-2 2
l3 4l2 -1zM686 598q-6 0 -7 4q7 9 11 9q1 0 1 -1q0 -2 -5 -12zM744 658q2 -2 3 -4q-8 -5 -10 -5q-1 0 -1 1zM793 682q-6 -2 -7 -1t0 1q2 2 6 2q1 0 1 -2zM831 702q1 1 3 1q1 0 1 -1q0 -6 -14 -11q-1 -1 -2 -1t-1 1q-2 4 13 11zM849 706h-3l-1 2q2 2 4 2q3 0 4 -1z" />
    <glyph glyph-name="X" unicode="X" horiz-adv-x="590" 
d="M256 352q1 -5 16 -23q13 -16 18 -16q3 0 17 27q17 40 17 41q6 13 15.5 31t23.5 43q5 18 26 52q7 7 20 45t20 45q7 6 15 6q9 0 28 -13t27 -13q32 -3 53 -45q9 -16 7 -34q-1 -11 -1.5 -17.5t0.5 -8.5q-2 -1 -4 -1.5t-4 -1.5q0 -4 17 -24q16 -19 13 -22q-21 -34 -35 -34
q-6 0 -19 5q-5 1 -24 -12q-15 -11 -23 -19q-18 -12 -48 -40q-4 -6 -6 -20q0 -10 -1 -15q-11 1 -27 -9q-1 -2 5.5 -7.5t6.5 -8.5q0 -1 -2 -5q-12 -7 -28 -34q-17 -28 -29 -36l47 -58q25 -35 78 -102q55 -71 93 -105q26 -23 49 -40.5t44 -30.5l62 -37q7 -5 43 -21
q27 -13 24 -16q-1 -1 -6 -1q-15 0 -47 7q-34 7 -38 7q-2 -2 35 -22q9 -6 35 -21q-26 11 -54 21.5t-57 21.5q-7 1 -7 -4v-4q1 -1 1 -3q0 -3 -3 -3q-9 0 -49 22q-8 5 -21.5 12t-32.5 17q-6 3 -14 7.5t-18 9.5q-9 13 -30 36q-54 42 -61 51q-11 17 -22 33.5t-22 33.5q-1 5 -3 10
t-4 12q-2 2 -5 9q1 9 -2 23q-1 1 -3 1t-6 -3q-8 -5 -9 -3q-3 3 -4 12q-1 10 -5 9q-2 0 -5 -23q0 -4 -2 -4q-3 0 -23 26t-26 26q-2 0 -3 -3q-8 -15 -30 -42q-14 -18 -23.5 -30.5t-14.5 -20.5q-13 -20 -28.5 -44t-34.5 -50q-11 -14 -27.5 -30t-37.5 -36q-56 -50 -71 -50
q-3 0 -3 2q0 3 17 20q19 20 19 29q0 2 -2 4q-4 2 22 19q21 15 21 20l-1 1q-2 2 -4 2q-4 0 -12.5 -4.5t-12.5 -4.5q-8 0 -8 6q0 1 3.5 3.5t8 5.5t8.5 6t4 6q2 6 55 90q19 31 35 59t29 54l39 74q-9 13 -26 38.5t-42 64.5q-14 22 -27.5 45t-26.5 47l-6 11q-2 6 -2 5
q-5 4 -22 27q-5 8 -20 11q-12 2 -17 14l-7.5 17.5t-9.5 24.5q-10 21 -10 53q0 22 6 48q2 5 0 13q-1 3 -1 5.5v4.5t-1 3q0 19 21 19q16 0 50 -14t48 -15q-4 0 7.5 0t31.5 1q22 0 27 -6q16 -15 36 -42q4 -26 0 -72q-2 -28 -2.5 -45t1.5 -25l18 -61v0z" />
    <glyph glyph-name="Y" unicode="Y" horiz-adv-x="479" 
d="M152 -226q-6 -5 -18 -20q-7 -15 -10 -18q1 -1 1 9q1 7 1.5 15.5t2.5 19.5q7 59 21 131q33 94 93 288q1 2 1 4q-1 1 -1 2h-3h-3h-1q-1 -2 -6 -11q-7 -7 -52 -67q-1 -1 -1 -4q0 -2 1.5 -7.5t1.5 -7.5q0 -6 -6 -7q-1 -4 -2 -3q-2 3 -5 3t-8.5 -4t-11 -9t-10 -11t-5.5 -9
q-14 -27 -59 -27q-68 0 -68 127q0 29 3 64.5t10 80.5l17 117q4 76 3 87q-1 4 -10.5 14t-9.5 17q0 11 5.5 21.5t14.5 19t20 14t22 5.5q41 0 88 -44q40 -37 40 -60q0 -4 -1 -6l-26 -90q-4 -17 -24 -52q-17 -32 -22 -51l-2.5 -10t-5.5 -14q-8 -11 -6 -15q1 -3 0 -22
q-3 -26 -3 -32q0 -15 6 -15q40 -5 97 52q47 47 61 83l37 101q7 17 10 41.5t4 57.5q2 52 22 72q12 12 28 12q31 0 75 -44q38 -38 37 -47q0 -2 -20 -31q-20 -28 -25 -34q-20 -24 -45 -88q-7 -18 -15.5 -41t-19.5 -52q-5 -17 -18 -42q-22 -27 -19 -30q8 6 14 7l-1 -4
q-4 -8 -10 -17.5t-16 -22.5q-18 -24 -25 -39q0 -13 -7 -35q-8 2 -14 2l-1 -4q0 -4 1 -6q4 2 7 3q1 1 3 1q1 0 1 -1q0 -2 -4 -5.5t-4 -4.5q0 -3 4 -4h3l-4 -1q-6 -2 -8 -8q-2 -5 -4.5 -11t-4.5 -11q1 1 1 4t-1 4q-6 -2 -7 -9q0 -1 4 -1.5t4 -1.5t-6.5 -2.5t-5.5 -5.5
q0 -1 3.5 -2t3.5 -4q-3 1 -10 -1l-1 -7q2 -23 -15 -47q-15 -26 -15 -31h4q2 3 4.5 6t4.5 7q2 0 3 -1q-1 -7 -5 -19t-12 -31q-16 -39 -24 -37h-2zM197 -138q-4 -2 -6 -1q1 3 4 4q3 -2 2 -3zM245 17l2 2q1 0 3 -2q2 -5 1 -7q0 -2 -2 -2q-6 0 -4 9zM288 114v3l-2 2q-2 2 -5 -3
l1 -2q2 -2 4 -2z" />
    <glyph glyph-name="Z" unicode="Z" horiz-adv-x="563" 
d="M571 -72q10 -3 27 -7.5t41 -11.5q-1 -2 -19 -4t-20 -5q1 -6 40 -6q30 0 50 3q-15 -12 -91 -34q37 8 44 8q13 0 18 -12q-5 -5 -38 -18q-38 -17 -51 -19q-8 -4 -21.5 -5.5t-31.5 -2.5l-69 -3q-26 -1 -123 26l-123 36q-82 14 -116 14q-22 0 -22 -6q0 -2 3 -5q-13 10 -13 27
q-2 24 -4 30q-1 5 -20 21t-19 24q0 9 18 17q-1 2 -1 5q0 20 29 20q12 0 18 -7q-2 4 6 9q13 8 18 13t12 13t17 20q11 13 25 30t30 38l85 111q19 25 45 69q7 11 13.5 22.5t14.5 24.5q7 14 15.5 29.5t19.5 33.5q2 4 6.5 9.5t10.5 13.5q3 3 -10 10q-19 10 -51 11l-149 8
q-20 1 -72 -24q-53 -24 -66 -23q-10 1 -10 14v9q1 4 1 9q0 8 -5 8q-6 0 -22 8q-14 8 -13 11q2 -2 14 15q-1 60 25 80q2 1 4 1.5t4 1.5q5 5 11 10t12 11l44 -10q51 -14 94 -18l182 -20q9 -1 15.5 -1.5t10.5 -0.5q40 0 48 17q2 4 4.5 8t5.5 9l25 13q4 -6 12.5 -13t17 -13.5
t16.5 -13t12 -11.5l5 -44q3 -5 3 -19q0 -47 -14 -61q-13 -22 -60 -28l-49 -6q-24 -17 -76 -89l-68 -96l75 126l-63 -83l-44 -68q-4 -5 -10 -39q0 -3 -31 -52q-19 -30 -28 -81q-1 -1 20 -12q21 -9 22 -9q20 -2 39.5 -5t39.5 -6q5 -2 12 -5.5l17 -8.5q24 -14 53 -17
q7 -1 18 -2t27 -3q3 1 10 1q9 0 20 -3q2 -2 2 -4q0 -1 -2 -7q-5 -6 -3 -6q4 -1 9.5 7t7.5 7q9 -2 41 -6q7 -1 18 -3t25 -5zM307 -33q0 -2 18 -9q21 -8 25 -8q2 -5 11 -9q3 0 9.5 -1.5t9.5 -1.5h10q5 -1 10 -1q9 0 18 -0.5t17 -1.5q21 -3 20 -2q0 4 -45 9q-5 0 -15.5 2.5
t-16.5 2.5q-3 0 -13 4.5t-13 4.5q-7 -1 -45 11zM390 -78q0 -10 17 -12q10 1 20 1t20 1q11 0 35 -7t36 -7q4 0 13 4.5t13 4.5l41 2q0 -3 -81 5q-11 1 -23.5 3.5t-23 4.5t-18.5 4t-9 2q-40 -1 -40 -6zM115 485q0 -6 18 -6t18 6t-18 6t-18 -6z" />
    <glyph glyph-name="backslash" unicode="\" horiz-adv-x="383" 
d="M69 785q0 -14 9 -30q10 -19 23 -19q4 0 6 1q3 -16 5 -20l14 -23l3 -12l9 -15v-29l6 -9l-1 -5l2 -3.5t4.5 -8t4.5 -8.5t2 -5v-3q9 -12 10 -16l4 -17l12 -25q18 -43 29.5 -72t16.5 -46q0 -12 8 -20l5 -4q-1 -12 1 -19l13 -11l9 -17l12 -14q4 -4 10 -24q-1 -3 -1 -7t1 -5
q1 -4 12 -19q1 -1 18 -52l2 -6l2 -4l1 -4h6q12 -17 12 -29v-24l9 -21l4 -44l3 -6l7 -23l11 -33t6 -16q4 -6 3 -13l-1 -27q2 -6 3 -8l3 -6q3 -24 3 -44l13 -9h4l-5 -28v-5q-4 -11 -20 -22t-28 -11q-10 0 -10 17l-15 7l10 11q0 19 10 35l-6 7l2 9l-2 2v5q0 6 -4 13l10 15
q-8 7 -9 12q-8 26 -19 28q8 9 9 16q3 9 3 15q0 3 -1 4l-11 12l-11 24l-12 16q-4 5 -4 23l-5 3l2 6l-6 20q-2 11 -13 32q-12 21 -12 29q0 4 -2 10.5t-4 14t-4 14t-2 11.5q-11 17 -11 21l-5 23l-10 35v19l-11 28l2 13l-4 12l-1 9l-7 9q-23 57 -22 77q-10 1 -16 17l-8 32h-2
l-3 9q0 3 -1 3l-10 21v3h-3q-2 20 -22 33v11l-100 124l-8 5l8 19l-13 -9l-6 20l9 10l2 -1q16 14 32 16q3 -7 13 -7v-5l11 1q-2 -11 7 -19z" />
    <glyph glyph-name="grave" unicode="`" horiz-adv-x="441" 
d="M463 347q-22 -3 -30 8q-11 18 -28 26q-22 11 -72 27.5t-129 36.5q-25 7 -65 17t-97 23q-23 5 -26 5q-7 -7 -23 -7q-12 0 -27 3q-1 0 -3 -4t-4 -4q-3 0 -4 3q-1 5 -1 8.5v7.5q0 11 3 17q-1 16 -11 18h-2q0 2 2 4q7 7 7 11q0 2 -3 2q-1 3 -3 -2.5t-6 -6.5v1q4 13 10 14
q16 4 22 6t4 2q7 0 12 -4q12 -17 12 -24q16 -7 29.5 -12.5t24.5 -9.5q-1 -1 -4 -1q-4 0 -7 1q0 -2 5.5 -4.5t6.5 -1.5q2 4 2 5q6 -2 10 -4h-1h-3l-2 -2q2 -2 5 -2q4 0 4 1q-1 1 -1 1.5t-1 1.5l1 1l48 -10l2 -2q-1 0 -2 -1q-4 0 -4 -1v-1q2 -1 6 -1q9 0 8 3l35 -8l9 -3
q3 -8 7 -8q2 0 3 1q-4 6 -10 7q4 3 14 -4q28 -9 48.5 -15.5t34.5 -10.5q51 -16 84.5 -27t52.5 -18q40 -11 48 -9q17 3 31 -5q15 -8 15 -25q0 -18 -18 -21zM81 500l2 2q-2 2 -5 2q-1 0 -1 -1q1 -3 4 -3zM89 501q0 -3 5 -3h5l-2 2t-3 2q-3 1 -5 -1zM108 498q-3 -2 -3 -3l1 -1
h1q1 1 1 1.5t1 1.5zM135 491q1 -3 7 -3q-1 1 -7 3zM415 378v-2l-2 -1h-1v1q0 1 2 3z" />
    <glyph glyph-name="a" unicode="a" horiz-adv-x="434" 
d="M231 236q-82 -5 -158 -99q-14 -15 -27 -51q-17 -40 -17 -61q0 -25 24 -25q21 0 56 15q52 25 70 49q16 19 30 71v44q1 28 16 28q7 0 36 -18q10 -13 41 -36q-3 -15 -3 -34q0 -45 12 -73q17 -38 45 -38q13 0 28 9q5 4 17 12.5t30 22.5q29 25 34 25q1 -1 1 -2q0 -8 -56 -76
q0 -7 -7 -13l-37 -6q-1 0 -3 -3t-6 -3l-8 -1l-4 -1q10 -5 18 0l6 2v-4q-10 -1 -21 -2.5t-25 -5.5q-3 -2 -3 -3q2 -2 7 -2q3 -1 9 1t8 2q7 -1 7 -2q-11 -14 -57 -14q-5 0 -9 0.5t-8 1.5q-19 4 -47 37q-27 32 -33 32q-17 2 -40 -15q-28 -22 -30 -22l-3 -1v3q5 5 4 5
q-50 -17 -102 -33q-3 0 -8 3.5t-10.5 7.5t-10 7t-5.5 3l-1 -1q0 -4 3 -8q-1 -1 -1 -5q-19 12 -19 42q0 55 46 153q38 84 57 101q39 49 90 81q59 35 115 35q16 0 30 -6q14 -5 24 -11t18 -11q11 -8 12 -22q5 -28 5 -29q0 -8 -12 -14q-10 -5 -15.5 -9.5t-7.5 -6.5
q-6 -4 -15 -23q-8 -14 -27 -20q-3 -1 -7.5 2t-8 6.5l-7 7t-4.5 3.5zM54 -52h-2l-1 1v1l1 1h2l1 -1v-1z" />
    <glyph glyph-name="b" unicode="b" horiz-adv-x="422" 
d="M178 787q-85 -49 -85 -362q0 -175 13 -221q1 -4 4 -4q7 0 22 27q2 5 6.5 12.5t9.5 17.5q39 67 122 67q63 0 106 -37q46 -40 46 -100q0 -11 -1.5 -20.5t-3.5 -19.5q-8 -32 -60 -93q-56 -65 -82 -65q-6 0 -42 16q-37 17 -54 17q-18 0 -27 -13l-24 -36q-6 -9 -25 -9
q-36 0 -46 18q-1 12 -10 29l-42 10q-5 2 -5 10q2 10 12 50q14 60 23.5 108t14.5 83q4 28 6 62t2 75q0 54 -6 162t-6 162q0 35 -9 55q-5 11 -17 22q-9 7 -9 15q0 13 32 62q0 1 1 4q1 2 1.5 5t2.5 8l1 3q5 17 30 17q36 0 74 -38t38 -73q0 -19 -13 -26zM145 103q-2 -24 17 -24
q35 0 82 51q48 52 48 88q0 15 -10.5 27t-25.5 12q-32 0 -73 -62q-37 -58 -38 -92z" />
    <glyph glyph-name="c" unicode="c" horiz-adv-x="364" 
d="M342 26q-79 -61 -160 -61q-77 0 -130 53q-52 53 -52 132q0 67 47 132q53 71 154 116q14 12 44 28q38 2 71 -29q30 -28 37 -58q-2 -9 -6 -18.5t-11 -20.5t-10 -16.5t-4 -7.5q-1 -4 2 -13t3 -12q0 -17 -17 -17t-63 15q-44 16 -70 16q-49 0 -87 -44q-34 -41 -34 -93
q0 -51 38 -83q35 -31 87 -31q29 0 59 11q81 31 133 78q31 26 37 26q1 0 1 -1q0 -13 -43 -56q-39 -41 -57 -52q0 -2 2 -4l27 13q2 -2 2 -3z" />
    <glyph glyph-name="d" unicode="d" horiz-adv-x="410" 
d="M217 401l-3.5 17.5t-1.5 13.5q0 9 4.5 20.5t4.5 13.5q0 4 -6 9v31l-2 11q1 1 4 0q4 -3 6 -3q2 2 3 5q3 16 3 39q0 45 -24 129t-24 119q0 10 13 24q14 17 14 27q0 6 -2.5 16.5t-2.5 15.5q0 12 24 11q5 -1 9.5 -1h8.5q2 -1 5.5 -3.5t8.5 -7.5l38 -33q40 -34 40 -77
q0 -32 -31 -94q-16 -31 -23.5 -53t-8.5 -36l-10 -313q-1 -16 -1 -29.5v-25.5q0 -74 23 -115q20 -36 105 -119q16 -16 16 -28q0 -25 -70 -25q-55 0 -77 9q-6 1 -12 12l-8 14q-20 8 -40 19v2q0 5 11 35q15 34 15 45q0 7 -5 7q-7 0 -23 -11l-67 -49q-17 -13 -36 -13
q-17 0 -41 12q-54 27 -54 81q0 57 61 137q48 63 98 103q6 4 15 27q6 19 18 20q28 0 25 11zM203 246q-74 -38 -114 -84q-34 -37 -34 -68q0 -24 22 -24q26 0 61 34q8 7 18.5 16t24.5 22q37 34 36 53q1 7 1.5 18t0.5 25q-1 10 -9 10q-1 0 -7 -2zM227 413l-2 27z" />
    <glyph glyph-name="e" unicode="e" horiz-adv-x="401" 
d="M110 101q-10 -4 -10 -17t9.5 -29.5t20.5 -22.5q28 -14 76 -14q12 0 30 1.5l42 3.5q39 4 51 9q16 6 42 12q35 8 91 40q22 13 25 9q-2 -2 -20 -12q-45 -24 -62 -53q-2 -5 -33 -18q-3 -1 -1.5 -6.5t-2.5 -6.5q-90 -37 -172 -37q-80 0 -133 38q-59 44 -59 120q0 138 177 281
q26 22 50 22q42 0 66 -76q2 -4 10 -33.5t24 -85.5q3 -8 3 -12q0 -15 -36 -30q-3 -2 -9 -7.5t-16 -15.5q-12 -12 -33 -17l-45 -8q-3 -1 -3 4.5t-1 5.5q-1 -1 -1.5 -1t-1.5 -1l-1 -4zM263 262q-15 7 -33 7q-51 0 -100 -48q-44 -42 -44 -71q0 -11 11 -11q22 0 68 37l101 79
q4 4 -3 7z" />
    <glyph glyph-name="f" unicode="f" horiz-adv-x="407" 
d="M112 289q70 -17 145 -17q76 0 178 18q29 5 30 4l7 -20q-3 -3 -10 -5q-86 -44 -186 -90q-8 -2 -19 -4t-25 -5q-27 -4 -43 -3q-6 0 -15 4q-5 1 -8.5 1.5t-5.5 0.5q-5 0 -5 -5q0 -6 1 -8l18 -63q41 -146 41 -231q0 -66 -11 -74q-6 -4 -7 -3q-12 0 -4 20q10 30 10 33
q6 87 -9 158l-12 56q-1 2 -1 5q-2 -12 1 -33l15 -111q7 -50 -17 -191q2 -5 5 -5t6.5 3.5l7.5 7.5t7 7.5t4 3.5t2 -4q1 -38 -24 -81q-28 -49 -62 -49q-98 0 -98 389q0 96 6 155q1 4 2.5 12t3.5 20q2 11 3.5 18t1.5 11q0 10 -26 27q-19 12 -19 49t34 37q8 0 12 -1q17 -3 17 1
l20 103q12 60 52 104q22 25 42 25q41 0 41 -81q0 -108 -73 -160l-35 -26q0 -1 2 -3zM92 78q-1 -128 5.5 -208.5t20.5 -114.5q8 -17 14 -17q13 0 27 60q5 26 8 43t2 27q-2 34 -4 61t-4 47q-8 83 -21 113l-40 96q-2 3 -4 2q-3 -2 -3 -3zM484 283l-2 -1l-2 1q-1 1 -1 2t1 2l2 2
q2 0 3 -1l1 -3zM503 306q5 -2 4 -3l-24 -9q-5 2 -7 5zM133 418q-1 -2 -2.5 -11t-5.5 -23q-6 -24 -6 -31q0 -3 1 -3q15 0 29 39q11 35 11 52q0 34 -9 34q-8 0 -18 -57z" />
    <glyph glyph-name="g" unicode="g" horiz-adv-x="380" 
d="M97 -53q-4 0 -19 4l-21 5h-8h-3q0 -2 6 -2.5t6 -1.5h-6q-7 0 -7 -2q3 -7 22 -14q13 -6 10 -7t-9 -1q-10 0 -19 12q-5 9 -13 20q-24 28 -24 67q0 96 56 170q50 65 115 121q4 4 21 39q13 28 26 30q14 2 22 -12q14 -20 16 -21q4 -2 54 -54q32 -34 32 -53q0 -24 -34 -24
q-9 0 -27 4t-27 4q-11 0 -20 -4q-36 -15 -99 -90q-70 -82 -70 -127q0 -8 3 -15q1 -3 9 -1q42 15 75 42q40 31 48 69q4 48 6 50q7 25 37 25q7 0 27 -3q23 -3 27 -7q15 -8 22 -36q3 -11 5 -21t3 -20q1 -6 9 -14q8 7 26 22.5t38 27.5q16 10 26 -7q5 -10 4 -11q-4 -4 -12 -10
q-7 -6 -19 -17t-29 -27l-40 -41q-2 -46 -9 -146q-8 -57 -12 -75q-7 -35 -21 -73l-50 -132q-1 0 -3 2l7 29q-2 2 -4 2l-33 -61q-30 -56 -60 -56q-21 0 -45 68q-7 24 -6 91q3 66 21 122q18 58 46 99q8 14 16 27.5t16 24.5q36 55 60 72l-6 29q-3 10 -14 15q-9 4 -21 -1
q-9 -1 -44 -32q-43 -41 -64 -52l-19 -9l-2 -2q0 -1 1 -2q1 -4 4 -3l31 5q2 0 4 -3q0 -3 -3 -4zM199 -179q-34 -87 -41 -156q-3 -27 -3 -53l1 -3.5t1.5 -8.5t1.5 -10t1 -7l-1.5 -7.5t-0.5 -4.5q3 -3 5 -3h1q3 4 9 15.5t16 31.5q11 24 20 44.5t15 37.5l18 54q7 25 9 55l11 133
q-2 2 -4 2q-25 -30 -59 -120zM72 21q-6 2 -10 3q-2 0 -3 -16q0 -7 2 -9q4 0 11 22zM36 23q3 1 3 5q-1 1 -3 1l-4 -2l-1 -1q0 -1 5 -3zM73 29q8 18 8 21t-4 3q-3 1 -5 -2l-8 -18q-1 -1 -1 -2q0 -3 3 -4q1 -1 4 -1q1 0 2 1zM37 34q7 0 4 14q-2 5 -4 5t-3 -10q-2 -9 3 -9z
M42 55q14 5 14 33q0 4 -1 4q-3 -3 -5 -6q-11 -27 -12 -28q0 -4 4 -3zM60 92q6 3 6 13q0 1 -1 2q-8 2 -8 -11q1 -1 1.5 -2t1.5 -2z" />
    <glyph glyph-name="h" unicode="h" horiz-adv-x="452" 
d="M214 -222q-4 3 0 7q5 4 7 2q1 -1 -1.5 -6.5t-5.5 -2.5zM330 -88q-24 -23 -72 -87q-1 -2 -5 -5t-11 -8q-14 -11 -16 -11q-2 2 -2 3q0 -3 14 25q5 10 17.5 36.5t31.5 71.5q42 95 41 103q-8 32 -10 31q-28 -6 -97 -51q-22 -16 -44 -16q-47 0 -78 58q-6 10 -12 36
q-5 26 -9 35q-7 -9 -26 -29q-6 -6 -25 -22q-4 -7 -22 -20q-29 -11 -33 0q-10 19 2 38q2 3 5.5 7t8.5 9q8 7 17 14.5t19 16.5q7 10 14 19t15 19q21 27 24 50l17 137q4 18 8.5 50.5t10.5 80.5q10 92 18 134q8 35 19.5 65.5t27.5 56.5q9 16 25 16q19 0 35 -22q16 -20 16 -41
v-143q-2 -42 -8.5 -76t-17.5 -62q-2 -5 -7 -2q-5 2 -2 10q1 1 1 3q0 4 -7 4q-6 0 -7 -1q-1 -6 -2.5 -16t-4.5 -24q-1 -7 -1.5 -10t-0.5 -4q7 -4 12 11q1 4 6 15q1 -4 7 -10l2 1v2q2 7 3 7l2 -2q5 -12 5 -27q0 -45 -46 -130q-4 -6 -12.5 -20t-21.5 -37q-3 -13 0 -47
q1 -30 8 -45l4 -7q13 -25 21 -25q4 0 27 6q24 9 72 24q43 15 73 15q67 0 94 -70q7 -17 7 -28q0 -15 -19 -31q-8 -6 -15.5 -12t-15.5 -11q-7 -5 -36 -10q-11 -2 -19 -10zM189 512q6 44 0 98q-3 31 -8 28q-3 -2 -14 -43q-2 -8 -4.5 -20t-6.5 -28l-20 -77q2 -2 5 -2l6 16
q5 11 11 11q4 0 3 -9l-10 -134q-2 -6 -3.5 -14t-3.5 -19t1 -11q8 -2 32 93zM216 454l-1 -4q2 -2 3 -2q4 0 4 6q0 2 -4 2z" />
    <glyph glyph-name="i" unicode="i" horiz-adv-x="293" 
d="M64 187q1 3 -2 5l-1 -3q-1 -1 -2 -1q-8 0 -3 9q4 20 -2 45q-6 27 0 40q0 17 20 17q29 0 50 -7q10 1 36 -3q21 -8 28 -27q6 -14 -7 -76q-14 -67 -14 -96q0 -40 21 -53q16 -12 57 -12q38 0 65 13q3 0 10 10q6 8 11 6q-1 -2 -1 -5q0 -9 6 -9q4 0 24 14l18 15q3 0 4 -4
l-37 -41q-22 -25 -69 -34q-11 -2 -33 -10q-10 -6 -61 -1q-11 1 -18 2t-11 2q-22 8 -41 29q-27 25 -39 83l-9 41l-2 2q-2 0 -2 -1q-1 8 -1 16.5t-1 16.5q0 9 5 12zM203 384q-2 -21 -42 -60q-2 0 -3.5 4.5t-4.5 4.5q-4 0 -10.5 -6t-7.5 -6q-4 4 -4.5 17t-2.5 17l-21 21
q-3 -4 -6 -4q-3 13 -3 62q0 48 25 48q38 0 67 -39q15 -19 13 -59z" />
    <glyph glyph-name="j" unicode="j" horiz-adv-x="385" 
d="M67 212q-10 -4 -42 17q-34 22 -34 38q0 12 19 12q5 0 12 -0.5t17 -1.5q9 -1 15 -1.5t8 0.5q29 5 38 12q4 3 6 15t10 18q3 3 20 -5q6 -4 35 -7q23 -1 33 -8q1 0 1 -2q0 -1 -2.5 -6t-2.5 -8t4 -6t4 -4q-5 -2 -9 -5q-4 -2 -7.5 -4t-4.5 -3q-3 -6 -3 -42v-33t1 -47
q1 -26 1.5 -46t0.5 -33q0 -6 -0.5 -16t-1.5 -20.5t-1.5 -20t-0.5 -15.5q0 -33 9 -33q1 0 2 1l51 21q16 7 40.5 13.5t58.5 14.5q77 17 99 13q-15 1 -15 -5q-2 -5 15 -6h16q2 -1 0 -2l-171 -49q-5 -1 -7 -3q0 -4 11 -4h8q7 -17 3 -18q-91 -30 -106 -40q-20 -14 -21 -46
q-1 -37 -3 -64t-4 -44q-2 -18 -6 -44.5t-9 -61.5q-13 -79 -41 -77q-62 4 -123 75q-62 70 -62 132q0 19 8 38q18 40 83 72l104 50q5 3 8 97q1 38 1.5 65.5t-0.5 43.5l1 21q1 10 1.5 18.5t0.5 16.5q0 46 -13 46h-3zM65 -176q-31 -19 -41 -33q1 -4 1 -8v-8q-5 3 -11 3
q-2 -24 14 -48q18 -28 39 -28q9 0 20 8q16 14 23 65q2 12 4.5 30t6.5 43q1 7 1 8q-1 1 -14 -6l-43 -26v0zM276 -55q4 0 6 2q0 2 -3 2q-6 0 -5 -2q0 -2 2 -2zM202 486q35 -35 35 -75q0 -12 -7 -19q-14 -15 -23 -15q-4 0 -16 4.5t-19 4.5q-2 0 -2 -8t-5 -8t-16.5 5t-14.5 5
q-8 0 -6 -6v-7q-5 -5 -10 -3q-8 3 -10 2q-11 -3 -10 -4q-3 2 2 10q7 16 12 36q6 27 5 32q0 3 -4.5 10t-4.5 11q0 1 1 2q9 10 25 41q4 12 16 12q22 0 52 -30zM146 390q2 -8 3 -8q4 0 2 8q0 3 -3 3q-2 0 -2 -3z" />
    <glyph glyph-name="k" unicode="k" horiz-adv-x="383" 
d="M16 587q-1 25 -5 47t-11 41q-11 29 -37 83q-10 21 -9 40q2 12 27 40q26 29 33 29q13 0 68 -49q28 -24 43 -39.5t19 -22.5q8 -14 8 -29q0 -25 -32 -63q-34 -38 -34 -43q-1 -14 -1.5 -28t-0.5 -28q0 -17 1 -42t3 -59t3.5 -59t1.5 -42q0 -8 -0.5 -20t-1.5 -28q-1 -7 3 -7
q7 0 22 21q2 4 6.5 9.5t9.5 13.5q26 27 50 48t44 36q26 20 40 20q22 0 52 -64q36 -77 36 -101q0 -18 -36 -24q-14 -1 -27.5 -2t-27.5 -3t-24 -6q-58 -21 -98 -84q-8 -14 -8 -25q0 -32 49 -53q42 -19 89 -19q30 0 52 2.5t38.5 8.5t28.5 16.5t22 26.5l23 36q1 1 14 -16
l-20 -41q-34 -50 -34 -52q-12 -15 -55 -31q-21 -9 -77 0q-6 -2 -64 14q-81 23 -97 23q-6 0 -6 -2q1 -13 -0.5 -29.5t-3.5 -36.5l-6 -44q0 -33 -10 -33q-8 0 -19 20q-8 16 -9 30q-11 80 -15 205l-7 200z" />
    <glyph glyph-name="l" unicode="l" horiz-adv-x="329" 
d="M58 790q2 4 3 5q-1 8 2 10q23 13 42 5q7 -3 40 -46q4 -5 9 -12t11 -16q13 -23 13 -35q0 -3 -4 -6.5t-8.5 -7t-8 -7.5t-3.5 -8q-1 -12 -4 -42.5t-9 -81.5q-9 -80 -9 -127v-18.5t1 -15.5l17 -244q5 -65 35 -110q36 -53 95 -58q16 -2 48 3q17 2 29 3.5t19 1.5q12 0 14 -3
l-2 -2l-5 1l-20 -6q-11 -5 -24.5 -10t-29.5 -10q-21 -7 -48 -7q-69 0 -131 53q-105 91 -105 480v59q1 31 -12 90q-13 58 -13 89q0 29 13 59q10 25 19 25h2z" />
    <glyph glyph-name="m" unicode="m" horiz-adv-x="662" 
d="M182 258q11 -7 19 -27q7 -23 16 -31t30 -19q7 -1 18 2.5t16 3.5q-6 0 20 3q6 0 10.5 -0.5t9 -4t11 -10l17.5 -17.5q5 -9 20 -22q14 -8 26 -8q7 0 20 7q11 5 20.5 9.5t18.5 7.5q66 23 69 23q25 0 36 -14l31 -43q7 -10 7 -19q0 -6 -2.5 -13t-1.5 -13q3 -22 6 -22l21 6
q14 4 25 6.5t19 4.5q1 0 4.5 3.5t4.5 3.5q1 -1 3 -1q6 0 14 9l7 8q4 1 9 0l6 -2q4 0 6 8h5q3 1 8 1q1 0 1 -1t-2 -3l-19 -11l-3 -3q0 -1 3.5 -2.5t3.5 -2.5q0 -2 -2 -2.5t-3 -0.5q-2 0 -4.5 3t-5.5 3q-4 0 -12 -8q-3 -2 -3.5 -12.5t-3.5 -13.5q-21 -11 -62 -46q-12 3 -24 2
q-2 -5 -4.5 -10t-4.5 -10q-21 -2 -38 4q-10 3 -19 6t-18 7q-13 3 -23 16q-12 14 -17.5 38t-5.5 41q0 3 -3 3l-4 -2l-10 -5l-18 -9q-4 1 -11 0q-1 -1 8 -2l-4 -2l-6 -1q-2 1 -4 1q-1 0 -1 -1q-1 -1 -23 -9q-7 -4 -22 -9q-20 -6 -24 -6q-12 0 -32 13q-3 4 -9 10.5t-15 14.5
q-8 10 -30 20q-6 1 -31 -8q-10 -7 -37 -23q-33 -14 -51 -14q-10 0 -17 3q-19 8 -45 37q-13 14 -23 31.5t-18 37.5q-5 11 -11 22.5t-12 24.5q-14 16 -18 39l-2 12l-2 12q-1 2 -1 6q0 13 16 20q15 5 27 5q4 0 10 -2l63 -20q24 0 77 -33zM683 70q-8 -5 -8 -6t2 -1q8 -2 8 3
q0 4 -2 4zM696 68q4 4 6 5q1 -1 1 -4q-4 -4 -7 -3q-2 0 -2 1z" />
    <glyph glyph-name="n" unicode="n" horiz-adv-x="546" 
d="M368 52q2 0 17.5 -6t34.5 -6q6 0 12.5 0.5t14.5 1.5q17 2 67 29q55 29 59 29q16 0 18 -3q1 -3 -3 -4l-18 4q-4 0 -6 -1q4 -2 7.5 -3.5t7.5 -3.5q-4 -5 -11 -13.5t-17 -19.5q-5 -3 -11.5 -8t-16.5 -12q-5 -5 -14 -11.5t-23 -14.5q-5 -2 -16 -8t-28 -15q-9 -6 -39 -12
q-42 -9 -61 -9q-29 0 -55 14q-50 29 -49 69q2 8 10 22q7 10 7 18v5q-1 5 -31 -8l-87 -39q-21 -10 -45 -10q-7 0 -15 5q-24 19 -24 40q0 32 4 40q8 17 9 41q0 7 -37 17q-9 2 -18 4.5t-19 4.5q-27 9 -27 19q0 12 15 20q12 5 26 7q20 1 38.5 0t36.5 -5q50 -10 64 -35
q2 -5 9 -52q0 -7 15 -2l108 36q2 1 6.5 4.5t11.5 8.5q13 10 18 9q14 0 48 -25q40 -28 40 -56q0 -15 -10 -25q-27 -35 -27 -37q0 -4 4 -4zM608 107q0 -4 -12 -2q-12 1 -13 5q7 7 12 6q1 -3 10 -8z" />
    <glyph glyph-name="o" unicode="o" horiz-adv-x="374" 
d="M339 305q-10 0 -30.5 2.5t-30.5 2.5q-65 0 -117 -45q-16 -13 -13 -15q2 -2 10 4q6 4 14.5 8t19.5 9q57 24 94 24q18 0 32 -6q50 -21 50 -78q0 -85 -75 -172q-67 -79 -148 -79q-67 0 -110 61q-35 49 -35 116q0 103 92 193q60 57 168 96q1 1 6 1q17 0 58 -30q47 -35 47 -64
q0 -28 -32 -28zM129 213q-22 -10 -41 -37q-24 -32 -24 -66q0 -76 54 -104q22 -12 46 -12q44 0 86 46q7 7 15 20t18 32q24 44 20 68q-17 98 -62 98q-24 0 -54 -15z" />
    <glyph glyph-name="p" unicode="p" horiz-adv-x="406" 
d="M394 116q26 12 52 53q-4 0 4 -8q3 -3 7 -5l2 -2q-1 -1 -1 -1.5t-1 -1.5q-10 -14 -26 -33.5t-38 -44.5q-44 -38 -88 -60q-33 -14 -56 -14q-33 0 -62 26l-64 58q-2 2 -5 0q1 -55 4 -137t10 -191q20 -316 46 -348l55 -70q22 -26 22 -50q0 -47 -62 -47q-43 0 -75 32
q-35 35 -32 96v43.5t1 69.5q1 51 -3.5 139.5t-15.5 216.5q-5 67 -15 187t-25 295q0 5 -14 28q-14 25 -14 34q0 12 25 12q47 0 103 -24q65 -27 65 -61q0 -8 -3 -15l-10 -21q-1 -1 -1 -4t3 -3q6 0 26 11l6 3q3 2 7.5 4t10.5 6q67 30 102 30q47 0 47 -54q0 -28 -10 -67l3 -3
l7 6l3 -3l-2 -4l-29 -32q-17 -19 -17 -26q0 -5 9 -5q7 0 21 3zM178 154q13 -1 75 38q70 45 70 75q0 7 -3 12q-2 3 -22 0q-29 -4 -88 -36q-63 -34 -68 -57l-5 -28q-1 -2 7 -4h34z" />
    <glyph glyph-name="q" unicode="q" horiz-adv-x="404" 
d="M337 147q-15 -101 -27 -147q-9 -35 -9 -62q0 -29 6 -144q1 -19 10.5 -48t26.5 -71q34 -78 34 -116q0 -19 -14.5 -33t-33.5 -14q-14 0 -25 10l-77 66q-17 15 -17 39q0 14 6 40q2 6 3.5 15l3.5 21q6 85 15 165q4 31 7 72t6 93q1 11 1 19v15q-10 2 -78 -19q-78 -24 -114 -24
q-61 0 -61 54q0 46 45 103q28 36 99 99q35 32 58.5 56t36.5 40q1 5 3 13.5t5 19.5q9 30 34 49q4 4 15 4q16 0 34 -11.5t24 -25.5l45 -111q4 -9 4 -20q0 -21 -31 -21q-18 0 -61 9q-39 8 -46 5q-3 -2 -3 -4q0 -4 4 -4l34 -7q8 -1 13 -12q4 -14 8 -17q13 -11 37 -34q6 -9 6 -16
q0 -8 -13 -24q-12 -14 -14 -22zM79 137q-22 -34 -22 -55q0 -20 23 -20q41 0 94 40q26 19 43 38t25 38q6 13 -8 43q-14 29 -28 29q-18 0 -68 -47q-45 -43 -59 -66zM255 76q-3 7 -19 7q-7 0 -7 -4t22 -5zM49 82q1 2 1 4.5t1 4.5q-2 10 -5 7q-8 -8 -8 -10q0 -3 11 -6zM51 99
q7 4 7 20q0 3 -3 2q-1 -3 -6.5 -8.5t-5.5 -7.5q0 -4 8 -6zM256 110q3 1 3 4q0 4 -5 4t-5 -4q0 -2 2 -3.5t3 -1.5t2 1zM78 142l1 3l-1 3l-3 2l-2 -1q-2 -2 -2 -4t1 -3l3 -1z" />
    <glyph glyph-name="r" unicode="r" horiz-adv-x="368" 
d="M171 359q18 -2 18 -20q0 -4 -1 -8v-7q0 -4 2 -8q28 -37 71 -52q29 -11 29 -26q0 -20 -39 -120q-2 -6 6 -6q-1 0 9 3t32 8q56 14 154 71q3 -2 3 -4l-38 -25q-144 -93 -163 -127l-17 -30q-18 -31 -45 -31q-34 0 -74 46q-37 42 -36 55q0 21 43 73q17 22 32.5 37.5t28.5 26.5
q29 23 29 35q0 4 -4 5q-48 24 -51 24q-7 0 -17 -13l-33 -45q-12 -15 -29 -15q-24 0 -53 32q-28 31 -28 57q0 10 8 10q4 0 7 -1q40 -14 58 -14q20 0 25 20q4 29 10 35q16 19 63 14z" />
    <glyph glyph-name="s" unicode="s" horiz-adv-x="569" 
d="M474 200q4 0 12 -4.5t12 -4.5q8 0 8 9q0 14 -21 40q-20 26 -34 29q-12 4 -34 4q-68 0 -200 -39q-111 -33 -173 -62q-5 -2 -12 -18q-8 -17 -17 -18q-18 -3 -52 19q-35 23 -35 40q0 4 3 9q15 19 20 19q2 -1 8.5 -2.5t18.5 -5.5q7 -1 118 36q175 60 320 60q88 0 111 -35
l2 -4q-3 3 -12 4q-6 1 -6 -2q4 -7 10.5 -34t17.5 -75q0 -2 1 -2l8 8l6 6t5 3q5 0 4 -4q-7 -63 -98 -122q-83 -54 -151 -54q-25 0 -40 7l-76 31q-25 10 -29 56q-5 59 -11 70q-5 8 0 10q6 2 9 2q4 0 14 -3.5t15 -3.5q31 8 74.5 17.5t101.5 20.5q2 -5 14 -9zM273 114
q68 0 134 12q92 17 92 48q0 3 -1 5h-12q-9 0 -17 -0.5t-15 -1.5q-16 -2 -33 -4.5t-35 -6.5q-49 -9 -65 -18l-50 -27q-3 -2 -2 -4q1 -3 4 -3zM467 192h2q1 1 1 4l-1 2h-3l-2 -2v-2zM544 240q-1 1 -3 1q-4 7 -4 10q1 1 1 1.5t1 1.5q4 2 5 -14zM530 266q1 1 3 1q4 -4 5 -7
q0 -4 -2 -4q-5 0 -6 10z" />
    <glyph glyph-name="t" unicode="t" horiz-adv-x="408" 
d="M387 69q-2 -2 -5 -6t-8 -9q-7 -7 -5 -12q4 -15 -3 -21l-40 -33q-16 -13 -37.5 -21t-32.5 -6q-23 5 -28 8q-19 12 -36 56q-23 60 -35 176q-1 12 -54 14q-55 2 -90 29q-38 32 -38 83q0 68 53 86q10 3 17 -13q9 -24 13 -26q14 -16 44 -37q43 -17 51 -17q9 0 10 13l12 140
q1 13 -3 48q-2 18 -3 30.5t-1 19.5q0 45 30 45t77 -35q63 -47 63 -71q0 -7 -8.5 -17t-9.5 -15l-41 -179q-1 -7 4 -8q54 -4 90 -4.5t54 3.5q31 6 50 16l17 9q8 -6 -10 -14l-95 -46q-4 0 -11 -3q5 -7 10 -5l41 10q1 -1 1 -5l-80 -27q-7 -2 -17 -3t-24 -2q-23 -1 -33.5 -1
t-8.5 0q-4 -1 -4 -5q-8 -42 0 -134q2 -14 19 -39q7 -12 19 -12q25 0 53 25q10 10 42 64q1 2 4 1t2 -4l-15 -27q-4 -2 -8 -6q0 -4 10 -5l3 -3zM410 128l-1 -3l-4 -1h-3l-2 2v3q4 2 8 1z" />
    <glyph glyph-name="u" unicode="u" horiz-adv-x="511" 
d="M527 73q-36 -13 -71 -57q-17 -20 -24 -24q-4 -2 -15 -2q-36 0 -52 21q-1 0 -3.5 4t-5.5 9t-5 9.5t-2 6.5q0 5 -3 10.5t-3 11.5q0 32 -10 32q-4 0 -32 -19l-59 -39q-45 -24 -82 -24q-63 0 -107 47q-19 19 -30 65l-6 24l-8 61q-12 16 -27 54q-1 3 -1 7q0 12 16 19
q13 6 27 6q4 0 10 -2l85 -26q21 -9 26 -23q2 -8 7 -55q1 -41 10 -56q25 -49 50 -49q35 0 64 20q27 21 59 67q18 26 27 26q5 0 27 -13q6 -6 29 -16q23 -9 23 -22q0 -2 -1.5 -8.5t-0.5 -11.5q-1 -5 -1 -11t-1 -14q1 -20 2 -20q4 -8 7 -11q6 -10 8 -10l20 5t29 8l42 13
q3 -2 2 -6z" />
    <glyph glyph-name="v" unicode="v" horiz-adv-x="394" 
d="M204 65q28 34 48 63.5t33 55.5l61 123q25 51 46 86.5t38 55.5q16 21 54 21q32 -13 62 -30q6 -4 9 -7l2 -10q1 -16 -11 -19q-54 -14 -103 -66q-11 -13 -30.5 -38.5t-47.5 -64.5q-22 -31 -30 -31q-2 0 -3.5 2t-2.5 1q-5 -5 -9 -19q-4 -16 -7 -20q-20 -22 -59 -79
q-2 -3 -6 -15l-11 -33q-14 -42 -14 -44q-1 -4 10 -4q4 -1 3 -4q-5 -17 -10 -13q2 2 2 5q-6 2 -8 2q-4 0 -6 -2q-2 -3 -4 -8t-4 -13l-2 -6l4 1q0 1 1 1q3 0 5 1h5q7 0 5 -5t-8 -5q-4 0 -10.5 2.5t-7.5 2.5q-15 -4 -22 -4q-8 0 -15 6q-12 10 -27 21q-12 8 -55 171
q-11 42 -39 81q-32 46 -39 64q-1 3 -1 7q0 12 16 19q13 6 27 6q4 0 10 -2l78 -27q37 -12 56 -66q18 -49 14 -88q-1 -4 -2.5 -12t-5.5 -20q-6 -21 -5 -30q1 -19 8 -19q3 0 8 6z" />
    <glyph glyph-name="w" unicode="w" horiz-adv-x="672" 
d="M30 224v3.5t1 7.5q1 21 29 21q24 0 57 -14q22 -9 26 -22q1 -10 3 -24.5t5 -33.5q6 -39 26 -41q34 -3 56 28q9 12 39 60q19 31 38 31q12 0 32 -17q16 -15 39 -39q30 -32 33 -42t-15 -34q-21 -27 -22 -41l9 -32q6 -12 23 -9q11 2 21 6.5t21 9.5t35 29l35 35l34 61
q27 81 27 125q0 9 -1 19.5t-3 21.5q-6 30 -21 34q-19 6 -22 12q-2 5 9 31q12 32 29 37q13 5 35 18q18 12 28 12t18 -12q29 -46 29 -107q0 -37 -10 -76q-16 -72 -76 -141l-83 -95q-76 -88 -156 -88q-89 0 -86 88q0 11 6 37q7 24 7 36q-8 -6 -23.5 -19t-39.5 -33
q-13 -17 -23 -29q-17 -18 -35 -18q-43 0 -80 51q-5 10 -24 37q-6 6 -7 17q-1 15 -3 17l-13 34q-2 2 -4 3l-3 45v0z" />
    <glyph glyph-name="x" unicode="x" horiz-adv-x="343" 
d="M285 272q-16 0 -32 -24q-12 -20 -18 -39q-3 -11 -7.5 -30t-11.5 -46q-8 -33 7 -33q-3 0 11 8l95 54q4 2 6.5 4.5l4.5 4.5q4 5 12 13t21 19q1 1 1 2l1 -1l-9 -13q-4 -7 -6.5 -11.5t-3.5 -6.5l-44 -67q-11 -17 -11 -22q0 -2 3 -2t5 1q9 3 10 6l14 15v-1q0 -1 -3 -7l-20 -40
q-9 -18 -30 -42q-26 -29 -40 -33q-3 4 -11 6q0 -11 -7 -11q-1 0 -5 2q-7 3 -14 13t-12 13q-34 22 -34 58q0 10 3 39l-45 -39q-11 -10 -24 -19t-28 -19l-44 -28l-28 -20q-2 2 -3 4l23 35q8 6 46 43q31 28 46 74q3 10 6.5 22.5t7.5 28.5q2 24 -7 41q-6 10 -30 25q-9 5 -23 8
q-16 1 -23 5q-7 -2 -14.5 -4t-15.5 -3q-4 4 -4 12q0 27 17 56q4 7 17 7q25 0 72 -22q33 -15 45 -24q16 -14 30 -39q4 -6 5 -9q3 3 4 11q8 17 17.5 42t22.5 57q1 5 -4 16t-5 16q0 16 27 28q6 2 8 2q23 0 49 -39q24 -38 24 -62q0 -6 -3 -12q-12 -23 -16 -23h-25z" />
    <glyph glyph-name="y" unicode="y" horiz-adv-x="590" 
d="M403 141q0 35 -31 35q-22 0 -57 -19q-15 -8 -27.5 -16.5t-22.5 -18.5q-12 -12 -12 -16q0 -3 5 -3q3 0 12 3l33 11q1 -1 1 -3l-47 -32q-83 -56 -133 -56q-42 0 -74 32q-11 11 -11 27q0 9 15 65q4 19 18 57q5 15 10 25q4 8 9.5 15.5t12.5 15.5q25 18 44 18q5 0 11 -2
q11 2 21 10q7 5 8 4q2 -2 -4.5 -9t-9.5 -7q-1 0 -7 -2q-2 -2 16 -11q18 -19 8 -38l-32 -57q-4 -6 -2 -18q1 -3 1 -7q0 -5 -2 -7q-25 -34 -25 -40l2 -2q4 0 6 1l44 17q18 7 106 57q68 38 107 38q41 0 73 -33q37 -37 37 -85q0 -8 -1 -13q1 0 31 8q14 7 29.5 13.5t32.5 12.5
q2 1 11 1q9 -2 10 -18q1 -6 1 -9t0 -2q-6 -8 -21 -16q-7 -4 -12 -6t-8 -4q-4 -2 -7 -3q-5 -2 -13.5 -6.5t-20.5 -9.5l-36 -18q-4 -1 -18 -73q-7 -36 -11.5 -65t-7.5 -52q-5 -20 -11 -48t-13 -65q-8 -53 -31 -118q-7 -19 -17 -47t-24 -66q-18 -52 -53 -95l-23 -27l-11 -9
q-2 -1 -4 1q5 11 15 27.5t24 36.5q29 43 40 65.5t11 38.5q0 4 -2 6q-7 0 -19 -35q-8 -18 -43 -57q-43 -46 -65 -46q-7 0 -12 5q-66 59 -91 108q-13 25 -20 57t-9 71q-1 7 -1 14v14q0 69 34 140q24 49 63 87q15 13 84 69q23 18 68 45q11 6 19 11t13 8q6 4 11 7q1 6 1.5 29
t2.5 64q0 3 0.5 10t0.5 10zM303 138q-10 -9 -18 -11q-13 -9 -21 -13q16 13 33 24q12 12 21 14q14 2 15 5q-12 -9 -18 -10q-12 -8 -12 -9zM279 114q4 4 21 15q6 0 17 9q-9 -5 -18.5 -11t-19.5 -13zM346 151q-21 -6 -26 -9q22 12 23 12q8 0 15 7q1 1 3 1q-2 -10 -15 -11z
M293 116q15 12 33 22q-9 -8 -12 -6q-8 -6 -13 -10t-8 -6zM260 -644q-5 -3 -6 -3q-2 0 -2 3l1 3l3 1q3 1 5 -1l-1 -3v0zM303 -599q-5 -11 -18 -26q-9 -9 -14 -9q-4 0 -2 5l2 4l25 30q4 0 7 -4zM240 -166q-39 -57 -53 -110q-12 -48 -12 -119q0 -42 15 -88q21 -59 55 -59
q12 0 24 13q31 40 70 176q39 133 39 190q0 5 9 67q5 30 7.5 48t2.5 23q0 3 -1 4t-29 -20q-30 -22 -50 -41q-15 -14 -25.5 -23.5t-15.5 -16.5q-10 -10 -19 -20.5t-17 -23.5z" />
    <glyph glyph-name="z" unicode="z" horiz-adv-x="518" 
d="M212 168q8 8 8 14q0 2 -1 2q-2 0 -3 -1q-8 -3 -21 -15q-22 -19 -22 -21q0 -1 2 -7l7 -3q-14 -5 -32 -15q-23 -11 -20 -18l18 -2l26 -4q19 -5 63 -12q58 -9 100 -9q72 0 191 32q-3 -2 -7 -6q-8 -6 -8 -9v-2q4 -3 9 -3q8 0 18 7q8 5 12 5q1 0 2 -1t-24 -26q-6 2 -14 2
q-9 -2 -21 -11q-15 -12 -20 -13q-24 -13 -86 -32q-27 -4 -115 -12q-49 -4 -89.5 -6t-72.5 -2q-66 0 -76 9q-3 7 -7.5 16.5t-11.5 22.5q-17 23 -17 38q0 22 44 33q56 14 64 20l4 3q8 6 22 17t34 27q25 21 25 28q0 1 -1 2q-1 3 -25 -3q-10 -2 -27 -6.5t-40 -10.5
q-35 -5 -55 21q-16 20 -16 56q0 47 25 47q12 0 28 -25q17 -24 31 -26q18 -2 51 7t49 7q56 -8 56 -42q0 -20 -20 -46q-8 -11 -17.5 -20t-19.5 -16l-29 -20q-2 2 -2 3zM168 125q-1 -1 -4 -1q-1 1 -1 3q0 1 3 1q2 -2 2 -3z" />
    <glyph glyph-name="acute" unicode="&#xb4;" horiz-adv-x="441" 
d="M421 678q7 -8 16 -15q10 -7 10 -10q0 -9 -51 -24q-23 -24 -51 -51q-32 -16 -106 -102l-8 -8t-17 -16q-20 -20 -19 -21l-5 -5t-6 -5q4 6 7 9q0 1 -1 1q-3 -2 -5 -11l-6 -7l-27 -24q-1 1 -2 1t-7 -2q-3 -3 -5 -4h6l1 -2l-37 -33v4q-2 1 -5 -1.5t-3 -4.5q0 -1 1 -1q5 0 5 2
q3 -3 -6 -8q-1 0 -2 1.5t-2 1.5q-6 -6 -8 -11l1 1q1 1 1.5 1t2.5 2q3 0 4 1q-8 -9 -16.5 -20t-18.5 -25q1 -3 1 -13v-14q-4 -10 -36 -16q-4 -1 -14 7l-1 2q1 1 5 -2l4 -3q4 0 4 2t-14 10l1 2q8 5 1 21l-12 12q-6 7 -6 15q0 5 3 5q1 0 4.5 -2t4.5 -1q28 25 44 21q9 -2 49 37
q117 112 180 177t73 85q1 2 11 16q6 7 6 13q0 2 -3.5 6t-3.5 5q0 7 15 12q13 3 22 3q6 0 10 -2zM112 359l1 -2q1 1 1.5 1t1.5 1q1 3 -2 3zM121 365q3 1 7 7q-5 -2 -7 -7zM136 378q-2 2 -3 2h-1l-2 -2q4 -2 6 -1v1zM154 397q7 0 7 5q0 1 -1 1q-6 0 -6 -6z" />
    <glyph glyph-name="periodcentered" unicode="&#xb7;" horiz-adv-x="218" 
d="M80 86q2 8 11.5 15.5t16.5 7.5q22 -2 50 -33q29 -32 29 -53q0 -23 -41 -31q-51 -8 -60 -18q-4 -4 -17 27q-1 1 4.5 7.5t7.5 10.5q0 2 -2.5 5t-6 6.5t-6 8t-0.5 8.5z" />
    <glyph glyph-name="periodcentered" unicode="&#x2219;" horiz-adv-x="218" 
d="M80 86q2 8 11.5 15.5t16.5 7.5q22 -2 50 -33q29 -32 29 -53q0 -23 -41 -31q-51 -8 -60 -18q-4 -4 -17 27q-1 1 4.5 7.5t7.5 10.5q0 2 -2.5 5t-6 6.5t-6 8t-0.5 8.5z" />
    <glyph glyph-name="cedilla" unicode="&#xb8;" horiz-adv-x="224" 
d="M96 73q8 20 24 19q19 0 43 -27q24 -26 24 -45q0 -22 -1 -25q-13 -32 -33 -55q-7 -8 -22 -20q-29 -23 -37 -27q10 6 13 17q0 7 -1 10l-2 -1q-2 -2 -2 -1q-2 2 3 11q11 8 28 37q10 32 -2 52q-3 5 -13 2q-3 -1 -9 -1q-2 0 -21 8q-7 4 -4 13z" />
    <glyph glyph-name="Agrave" unicode="&#xc0;" horiz-adv-x="474" 
d="M156 292q-3 -3 -58 -1q-51 2 -62 0q-21 -1 -46 -14q-1 0 -1 -2t5 -7.5t5 -6.5q-1 -1 -3 -1q-4 0 -7 1q-5 1 -8 1h-5q-1 -1 -1 -2q0 -2 4 -5l4 -4l8 -5q0 -1 -2.5 -8.5t-2.5 -10.5q0 -19 33 -23l38 -6q2 1 6 2q3 1 6 1.5t8 0.5q12 0 35 -3q11 -1 17 -1.5t5 -0.5q4 0 4 -3
q-18 -105 -26 -130l-2 -6q-32 -35 -51 -48q-8 -11 -8 -36q0 -42 18 -61l43 -47q4 -6 12 -6q24 0 48 26q20 23 20 71q0 28 -6 75q-6 43 -4 55l18 113q1 9 19 9q7 0 21 -2t20 -2h12q10 1 17 0q8 -1 10 -6q34 -297 113 -506q7 0 12 3q1 -1 4 -1q14 0 9 23l-16 78q-5 20 -3 31
q2 12 5 -1l7 -27q1 -2 6 -4q5 -1 7 1q-2 8 -2.5 13t-1.5 9q-3 28 -16 62q-11 33 -12 43q-2 29 -3.5 55t-3.5 50q-4 48 -5.5 81.5t-1.5 55.5q0 32 5 37t64 0q20 -2 20 3q-1 1 -3 1l-19 7q0 3 1 4l20 -3q8 -2 8 5q0 4 -4 12t-4 11l19 -6h2q2 0 4 2q2 3 -2 5q-10 10 -40 18
l-77 21q-10 43 -10 62q-5 25 -5 62v15q0 16 1 21v36q0 35 -11 73q-9 32 -20 45q-7 8 -33 22q-8 4 -17 13q-5 6 -11 6q-7 0 -10 -4q-13 -12 -13 -18t13 -20q1 -1 7 -10q3 -8 3 -10q0 -1 -1 -2l-32 11q-34 10 -54 10q-24 0 -24 -21q0 -9 11 -29q15 -26 15 -49q0 -27 -11 -73
l-17 -69q-5 -21 -9 -36t-7 -25zM420 -168q-5 -2 -6 6q-2 8 2 8q4 -5 4 -14zM227 290q-4 0 -4 7q0 -3 5 22q3 19 6 29l11 60q16 46 29 66q7 15 13 15q2 0 4 -2v-42t-1 -94q0 -23 4 -43q2 -14 1 -15t-12 1q-13 1 -28 0zM510 596q-24 -4 -30 8q-5 7 -34 24q-28 19 -31 19h-1
q2 -2 11 -7q4 -2 6.5 -4t4.5 -3q-36 22 -113 41q-52 14 -97 27.5t-85 24.5q-11 2 -17.5 3.5t-8.5 1.5q-22 -20 -62 -10q-1 0 -3 -4t-4 -4q-3 0 -4 3q-1 5 -1 15q0 12 3 18q-1 16 -11 18h-2l2 4q7 7 7 11q0 2 -3 2q-1 3 -3 -2.5t-6 -6.5v1q4 13 10 14q16 4 22 6t4 2
q6 0 13 -4q11 -17 11 -24q16 -7 29.5 -12.5t24.5 -9.5q-1 -1 -4 -1q-4 0 -7 1q0 -2 5.5 -4.5t6.5 -1.5q2 4 2 5q7 -2 10 -4h-1h-2l-3 -2q2 -2 5 -2q4 0 4 1q-1 1 -1 1.5t-1 1.5q0 1 1 1l48 -10l2 -2q0 -1 -2 -1l-4 -2h1q2 -1 5 -1q9 0 8 3l35 -8l9 -3q3 -9 7 -9q1 1 1.5 1
t1.5 1q-4 6 -10 7q3 3 14 -4q28 -9 49 -15.5t35 -10.5q40 -13 64 -20.5t32 -10.5q40 -10 47 -9q19 2 31 -5q15 -9 15 -26q0 -19 -18 -20zM168 735l2 2l-1 1q-1 0 -2 0.5t-2 0.5t-1 -1q1 -3 4 -3zM177 736q0 -3 4 -3h5l-2 2t-3 2t-4 -1zM195 733l-3 -3l1 -1h1q1 1 1 1.5
t1 1.5zM222 726q1 -3 8 -3q-1 1 -8 3zM435 637v-2l-2 -1h-1v1q1 1 1 1.5t1 1.5z" />
    <glyph glyph-name="Aacute" unicode="&#xc1;" horiz-adv-x="489" 
d="M203 297q1 3 3.5 14t7.5 31l17 70q11 46 11 73q0 23 -14 49q-12 19 -12 29q0 21 24 21q16 0 54 -11l32 -10q1 1 1 2q0 3 -3 9q-5 10 -7 11q-13 13 -13 19q0 7 13 19q3 3 10 3q16 0 45 -15q26 -14 33 -22q19 -22 19 -102v-36v-21q-1 -5 -1 -9v-6q0 -37 5 -62
q5 -20 10 -39.5t12 -38.5l77 -21q28 -8 39 -18q4 -2 2 -5q-2 -2 -3 -2h-2l-20 6q1 -3 5 -11.5t4 -11.5q0 -7 -9 -5l-19 3q-1 -1 -1 -4l18 -7q2 0 3 -1q0 -5 -19 -4q-59 5 -64 0t-5 -36q0 -44 6 -137q2 -24 4 -50t4 -55q1 -15 3.5 -42t7.5 -67q1 -3 1.5 -8t2.5 -13
q-2 -3 -7 -2q-4 1 -6 5l-7 27q-3 12 -5 1t3 -31l16 -79q4 -22 -9 -22q-3 0 -4 1q-5 -3 -12 -3q-77 209 -113 505q-1 6 -10 7q-6 2 -17 0l-12 -1q-7 0 -20.5 2.5t-20.5 2.5q-18 0 -19 -10l-18 -112q-1 -5 0.5 -19t3.5 -36q6 -47 6 -75q0 -49 -20 -71q-24 -26 -48 -26
q-7 0 -12 5l-43 48q-18 19 -18 61q0 25 8 36q19 12 51 48l2 6q8 25 26 130q0 3 -4 3q-3 0 -9.5 -2l-13 -4t-12.5 -4t-9 -2l-96 23q-33 7 -33 23q0 3 3 10.5t2 8.5l-8 5l-3 4q-4 3 -4 5t1 2h4.5t7.5 -1h7h3q0 1 -5 6.5t-5 7.5t1 2q56 26 138 25q55 -2 58 1zM462 -178
q-5 -2 -6 6q-2 8 2 8q4 -7 4 -14zM289 287q40 -10 48 -4q1 1 -1 15q-4 19 -4 43q1 60 1 94v42q-2 2 -4 2q-6 0 -13 -15q-6 -10 -13.5 -26.5t-15.5 -40.5l-11 -59q-2 -4 -3 -8t-2 -9q-5 -18 -5 -22q0 -6 4 -7zM582 941q8 -8 8 -11q0 -10 -5 -18q-10 -15 -31 -19
q-23 -23 -54 -48q-6 -2 -9 -2h-2h-2q-5 0 -39 -36q-5 -5 -15 -12q-7 -4 -7 -7l-5 -5t-6 -5q4 6 7 9q0 1 -1 1q-3 -2 -5 -11l-6 -6l-29 -23q-1 5 -3 7q-2 0 -7 -11q-6 -13 -13 -18l1 4q-2 1 -5.5 -1t-3.5 -4q0 -1 1 -1q5 0 5 1q3 -3 -6 -7q-2 2 -4 3q-7 -5 -9 -11q1 0 5 4
q3 0 4 1q-8 -8 -17 -19t-20 -24q1 -3 1 -9v-8.5t-1 -9.5q-4 -9 -36 -14q-5 -2 -15 8l-1 2q1 0 6 -3l3 -3q4 0 4 2q0 3 -13 10l1 2q8 5 2 21q-1 1 -3 4.5t-7 8.5q-7 7 -7 15q2 5 4 5q1 0 4.5 -2t4.5 -1q29 23 46 18q8 -2 50 35q118 100 135 117q12 12 25 33q1 2 11 16
q7 7 7 12q0 3 -3 7t-3 5q0 6 15 11q13 3 23 3q7 -2 9 -4zM362 737q1 -1 1 -3q1 1 2 1.5t2 1.5q-2 2 -5 0zM385 756q6 0 6 5q0 1 -1 1q-6 0 -6 -5q0 -1 1 -1z" />
    <glyph glyph-name="Acircumflex" unicode="&#xc2;" horiz-adv-x="489" 
d="M196 285q1 3 3.5 14.5t7.5 31.5l18 69q5 22 7.5 40.5t2.5 32.5q0 23 -14 49q-12 19 -12 29q0 21 24 21q21 0 54 -10l32 -11q1 1 1 2q0 2 -3 10q-6 9 -7 10q-13 14 -13 19q0 7 13 19q3 4 10 4q17 0 45 -16q26 -14 33 -22q19 -22 19 -102v-36v-21q-1 -5 -1 -9v-6
q0 -37 5 -62q5 -20 10.5 -39.5t11.5 -38.5l77 -21q30 -8 40 -18q4 -2 2 -5q-2 -2 -4 -2h-2l-19 6q0 -3 4 -11t4 -12q0 -7 -8 -5l-20 3q-1 -1 -1 -4l19 -7q2 0 3 -1q0 -6 -20 -4q-59 5 -64 0q-5 -3 -5 -36q0 -22 1.5 -55.5t5.5 -81.5q2 -24 3.5 -50t3.5 -55q1 -15 3.5 -42
t7.5 -67q1 -3 1.5 -8t2.5 -13q-2 -3 -7 -2q-4 1 -6 5l-6 27q-3 12 -6 1q-1 -5 0.5 -13t3.5 -18l15 -79q4 -22 -9 -22q-2 0 -3 1q-6 -3 -13 -3q-77 209 -113 506q-2 5 -10 6q-6 1 -16 0l-13 -1q-7 0 -20.5 2.5t-19.5 2.5q-19 0 -20 -9l-18 -113q-1 -5 0.5 -19t3.5 -36
q4 -23 5.5 -42t1.5 -33q0 -49 -21 -71q-24 -26 -48 -26q-8 0 -12 6l-43 47q-18 19 -18 61q0 25 8 36q19 12 51 48l2 6q7 21 27 130q0 3 -5 3q-3 0 -9.5 -2l-13 -4t-12.5 -4t-8 -2l-97 23q-32 8 -32 23q0 3 2.5 11t1.5 9l-8 4l-3 4q-4 3 -4 5t1 2h5t8 -1h6h3q0 1 -4.5 7
t-4.5 7v2q56 26 138 25q55 -2 58 1zM456 -190q-6 -1 -7 6q-2 8 2 8q5 -7 5 -14zM282 275q40 -10 49 -4q0 1 -0.5 4.5l-1.5 10.5q-4 20 -4 43q1 60 1.5 94t-0.5 42q-2 2 -4 2q-6 0 -13 -15q-11 -17 -28 -67l-12 -59q-2 -4 -3 -8t-2 -9q-5 -18 -5 -22q0 -5 4 -6zM153 559
q-4 -4 -18 -4q-16 0 -36 5q-26 6 -26 19q0 75 102 137q91 55 172 55q99 0 152 -80q8 -10 25 -37q15 -26 16 -40q3 -33 -11 -33q-6 0 -11.5 8.5t-9.5 9.5l-6 -4q-6 -3 -10 -3q-9 0 -13 42q-5 36 -19 53q-45 54 -131 54q-62 0 -114 -27q-59 -32 -78 -85q-9 -24 -4 -32
q1 -1 2 -1t1.5 7t2.5 7q1 0 3 -2q4 -12 9 -12q2 0 2 4l-1 10l1 1q1 0 2 -1l1 -14q0 -3 4 -10.5t4 -12.5q0 -6 -3 -7z" />
    <glyph glyph-name="Atilde" unicode="&#xc3;" horiz-adv-x="489" 
d="M206 399q11 46 11 73q0 34 1 30q0 3 -0.5 7.5t-1.5 9.5q-1 3 -3 7.5t-4 9.5q-5 10 -5 13q0 21 24 21q10 0 27 -6l46 -14q1 1 1 2q0 2 -3 10q-6 9 -7 10q-13 14 -13 19q0 7 13 19q3 4 10 4q17 0 45 -16q26 -14 33 -22q19 -22 19 -102v-36v-9t-1 -12v-15q0 -37 5 -62
q3 -11 0 -35q-2 -23 3 -37l72 -22q30 -11 39 -18q4 -2 2 -5t-4 -3q-1 0 -2 1l-19 6q0 -3 4.5 -11.5t4.5 -11.5q0 -7 -9 -5l-19 3q-1 -1 -1 -4l18 -7q2 0 3 -1q0 -5 -19 -4q-56 4 -61 -1v-54q0 -13 5 -41q3 -16 5 -31t3 -31q4 -28 8 -59t9 -66q1 -15 3.5 -42t7.5 -66
q1 -4 1.5 -9t2.5 -13q-2 -3 -7 -2q-4 1 -6 5l-7 27q-3 13 -5 1q-2 -11 3 -31l16 -79q4 -22 -9 -22q-3 0 -4 1q-5 -3 -12 -3q-77 209 -113 506q-2 5 -10 6q-7 1 -17 0l-12 -1q-7 0 -20.5 2.5t-20.5 2.5q-18 0 -19 -9l-18 -113q-2 -13 4 -55q6 -47 6 -75q0 -48 -20 -71
q-24 -26 -48 -26q-8 0 -12 6l-43 47q-18 19 -18 61q0 25 8 36q19 13 51 48l2 6q4 11 10 43.5t16 86.5q0 3 -4 3q-26 0 -34 -2h-20l-57 11q-33 7 -33 23q0 3 3 11t2 9l-8 5l-3 3q-4 3 -4 5t1 2h4.5t7.5 -1h7h3q0 1 -5 7t-5 8q0 1 1 1q36 17 107 16q54 -1 56 1q1 3 15 57z
M437 -191q-5 -2 -6 6q-2 8 2 8q4 -5 4 -14zM269 268q17 -1 43 2q0 1 -0.5 4.5l-1.5 10.5q-3 22 -3 43q1 60 1 94v42q-2 2 -4 2q-6 0 -13 -15q-13 -20 -29 -66l-11 -60q-1 -2 -2 -6.5t-3 -10.5q-11 -38 -11 -33q0 -7 4 -7h30zM76 748q5 -1 9.5 -1h9.5q9 0 22.5 1.5l31.5 3.5
q19 2 32.5 3.5t23.5 1.5q53 0 151 -27q106 -30 152 -36q12 -2 41 8q35 11 46 11q36 0 36 -24q0 -14 -12 -21.5t-26 -6.5q-14 -1 -33.5 -0.5t-42.5 2.5l-46 13q-3 1 -3 2h9l-4 2l-4 1l-5 2l-70 15q-15 0 -42 3q-32 10 -96 21h-54q-19 0 -43 -10q-30 -11 -40 -11q-20 0 -32 19
q-20 14 -18 20q5 10 7 8zM463 679q-4 1 -4 2v1q4 -2 5 -2zM484 681q-1 0 4 4q3 2 4 1q-5 0 -8 -1q-12 5 -16 5q-1 0 -1 -3t2 -3zM457 692q-1 1 -5 1q-2 -2 -1 -2q4 0 6 1zM439 691q4 1 10 3h-13h-9zM601 694q4 0 5 1q-1 0 -2 1q-2 0 -3 -1t0 -1zM392 706q-1 0 -1 -1t1 -1h13
v1z" />
    <glyph glyph-name="Adieresis" unicode="&#xc4;" horiz-adv-x="546" 
d="M402 54q2 0 17 -6t34 -6q6 0 12.5 0.5t14.5 1.5q16 3 67 29q55 29 60 29q15 0 17 -3q1 -2 -3 -3l-18 3q-4 0 -6 -1q7 -1 16 -6q-9 -12 -29 -34q-5 -3 -11.5 -8t-16.5 -12q-5 -5 -14 -11.5t-23 -14.5q-5 -2 -15.5 -7.5t-27.5 -15.5q-10 -6 -42 -19q-19 -4 -45 -4
q-21 0 -47 17q-27 19 -39 54q-4 11 -4 26v27q-1 18 -1.5 37.5t-2.5 39.5q-1 4 -56 -69l-32 -44q-7 -9 -38 -22q-30 -13 -43 -13t-31 8q-35 21 -35 32l-9 23q-11 27 -15 40q-2 5 -4 13.5t-4 19.5q-2 8 -5 21.5t-8 31.5q-3 9 -6 30q-2 26 3 37q2 5 14 18q3 3 57 4
q22 1 35 -5.5t26 -12.5q39 -13 49 -31q5 -10 9 -28t8 -45q2 -11 14 6l34 48q10 14 34 19q26 5 47 -8q7 -4 19 -7q6 -4 14 -22q8 -21 8 -43q0 -5 3 -24q3 -20 3 -25q0 -15 6 -39t6 -22q0 -4 4 -4zM641 110q0 -4 -12 -2q-12 1 -13 5q7 7 12 6q2 -3 11 -8z" />
    <glyph glyph-name="Aring" unicode="&#xc5;" horiz-adv-x="509" 
d="M-17 74q-5 5 -8 16t0 11t5 -3q7 1 51 53q12 14 19.5 23t10.5 12q0 5 0.5 11.5t1.5 14.5q1 10 1 20t1 20l3 102q0 25 10 64q5 23 8.5 39t4.5 26q5 37 15 83l8 30t8 31q15 71 46 121q10 18 25 18q19 0 36 -23q15 -21 15 -41v-142q-3 -81 -26 -139q-2 -5 -6 -2q-5 2 -2 10
q1 1 1 4t-7 3h-7q-1 -7 -3 -17t-4 -24q-3 -13 -2 -13q7 -4 12 10q1 2 2.5 6.5t3.5 9.5q1 -5 7 -11l2 1v3q0 7 3 7q1 0 1 -2q6 -11 6 -27q0 -47 -46 -130q-4 -7 -12.5 -21t-21.5 -37q-4 -11 -1 -46q3 -33 9 -45l4 -8q13 -25 21 -25q6 0 27 7q24 7 72 24q45 14 73 14
q67 0 93 -69q4 -30 7 -33q2 -4 3.5 -7.5t3.5 -7.5q6 -14 15 -15q18 -1 26 5l10 12t10 11q5 4 15 16q11 18 22 29.5t14 10.5q1 0 1 -1q0 -2 -1 -3l-14 -11q-1 -1 -3 -5q4 3 14 7q-1 1 -6 -26l1 1q1 2 1 7q-1 -2 -3 -8l-5 -15q0 -3 -4 -9.5t-9.5 -15t-12.5 -17t-13 -14.5
q-15 -15 -34 -22q-29 -10 -60 2q-17 7 -33 24q-12 15 -20 35q-5 27 -19 43q-9 10 -22 17q-14 7 -15 6q-33 -6 -53 -19l-22 -14l-22 -14q-29 -17 -48 -17q-47 0 -78 57q-6 10 -12 37q-4 26 -9 37q-9 -15 -28 -34q-10 -11 -33 -23q-17 -2 -24 5zM213 444q-2 2 -4 2l-2 -2
l-1 -4q0 -2 2 -2q5 0 5 6zM180 502q5 44 0 98q-3 33 -8 28q-5 -3 -14 -42q-2 -8 -4.5 -20t-6.5 -28l-20 -77q2 -2 5 -2l6 15q4 12 11 12q4 0 3 -10l-11 -134l-6 -33q-1 -10 1 -10q7 -3 31 91l13 112v0zM573 84q1 -1 -1 -4t-5.5 -6t-7.5 -5t-5 -1q-1 9 4 13q2 -1 12 2z" />
    <glyph glyph-name="Ccedilla" unicode="&#xc7;" horiz-adv-x="987" 
d="M988 21q0 -15 -18 -31q-8 -6 -15.5 -12t-15.5 -11q-8 -6 -36 -9q-10 -1 -20 -10l-25 -39q-24 -23 -71 -86q-1 -2 -5 -5t-11 -8q-14 -11 -17 -11q-2 2 -2 3q0 -4 15 25q10 19 49 107q42 94 40 103q-6 32 -9 31q-27 -6 -98 -51q-23 -15 -44 -15q-47 0 -78 58q-2 3 -9 18
t-20 43l-15 -8q-4 -1 -18 -28q-12 -23 -18 -22q1 -3 -7 -8q-6 -4 -9 -5h-7.5t-8.5 -1q-2 -2 0 -5q4 -15 0 -18q-5 -7 -13.5 -15.5l-19.5 -19.5q-26 -25 -51.5 -41.5t-48.5 -26.5q-63 -26 -108 -26q-33 0 -69 10q-97 26 -149 113q-48 79 -48 183q0 129 71 250q13 21 106 116
q49 49 102 81q46 27 65 24q15 -3 36 -49q15 -32 21 -56l3.5 -10.5t7.5 -20.5q8 -24 8 -35q0 -26 -27 -30q-3 0 -8.5 2.5t-11 5.5t-11.5 5t-10 1q-129 -39 -180 -109q-67 -91 -67 -190q0 -86 38 -154q44 -81 127 -89q7 -1 13 -1h13q76 0 166 69q50 39 75 80q15 15 36 63
q21 50 24 77l18 137q6 38 18 130q5 48 9.5 81t9.5 53q15 70 46 122q11 17 25 17q20 0 35 -22q16 -22 16 -42v-142q-3 -81 -26 -139q-1 -4 -6 -2q-5 3 -2 10q1 1 1 4q0 4 -7 4q-6 0 -7 -1q-1 -6 -3 -16.5t-4 -24.5q-1 -5 -1 -10q0 -2 -1 -3q7 -4 12 10q1 2 2.5 6.5t3.5 9.5
q1 -5 7 -11l2 1v3q0 7 3 7q1 0 1 -2q6 -11 6 -27q0 -47 -46 -130q-4 -6 -12.5 -20.5t-21.5 -37.5q-4 -11 -1 -46q3 -33 9 -45l4 -8q13 -25 21 -25q6 0 27 7q24 7 72 24q45 14 73 14q67 0 93 -69q7 -17 7 -29zM749 -216q1 -1 -1 -6t-5 -2q-5 3 0 6q4 4 6 2zM751 451
q-2 2 -4 2l-2 -2l-1 -3q0 -3 2 -3q5 0 5 6zM718 509q5 44 0 98q-3 33 -8 28q-5 -2 -14 -42q-2 -8 -4.5 -20t-6.5 -28l-20 -77q2 -2 5 -2l6 15q4 12 11 12q4 0 3 -10l-11 -134q-2 -12 -6 -32q-2 -11 1 -11q7 -1 31 92l13 111v0zM459 -17q-2 0 -5.5 -2.5t-3.5 -3.5h4
q3 1 4.5 3t1.5 3h-1z" />
    <glyph glyph-name="Egrave" unicode="&#xc8;" horiz-adv-x="760" 
d="M240 -172q14 13 117 23l123 12q127 12 133 12q5 0 17 -3t16 -3q3 0 5.5 5.5t3.5 5.5q0 1 16 -3t21 -4q3 0 3 2q-3 4 -8 6q2 1 5 1q4 1 9 0q4 -1 4 -5t6 -4q1 -1 5 -1q2 0 6.5 0.5t7.5 0.5h3l42 -12q10 -2 24 -4t32 -3q45 -2 47 0q1 1 1 3q-4 2 -7 3t-5 2q-4 7 23 18l-5 6
h-8q-5 0 -6 3q0 5 1 6q4 -1 8 -3q8 -4 10 -3q3 1 5 7q6 2 7 1q0 2 -15 34l-39 19q-13 8 -25 15t-25 14q-10 6 -50 13q-69 11 -95 8q-34 -3 -39 -2q-12 -2 -15 -3q-2 -8 14 -8q-7 0 -13.5 -0.5t-12.5 -1.5l-6 -2q0 -1 6 -1q64 0 64 -3l-3 -1q-52 -9 -116 -12q-40 -2 -67 -3.5
t-41 -3.5q-8 -2 -10 4q-1 6 6 7l60 8q7 1 20 -1t17 -2q6 0 4 8q0 7 -5 7q-101 -11 -138 -15l-106 -10q-11 -2 -11 7q0 11 14 23q4 4 49 30q36 22 38 31q3 17 46 29q46 13 51 18q10 18 15 30q4 5 66 25q61 19 66 18q5 -2 2 -16l-1 -5q82 27 82 67q0 22 -13 35q-4 4 -11.5 9.5
t-19.5 13.5q-44 28 -92 17q-42 -10 -65 -15.5t-30 -7.5q-69 -22 -99 -22q-22 0 -40.5 15t-19.5 33q-2 7 18 30t20 30q0 17 -28 17q-21 0 -55 -17q-39 -18 -39 -38q0 -4 3 -5q21 -47 21 -177q0 -100 -14 -109l-90 -50q-42 -19 -59 -23l-3 -1l-2 -4q1 0 12 -3l1 -1q0 -1 -1 -2
q-2 -2 -3 -2q-6 -1 -15.5 3.5t-14.5 4.5q-9 0 -23 -8q-6 -9 -6 -13q-1 -1 -3 -1q-4 0 -10 2.5t-13 5.5q-6 -6 -7 -11l31 -2q6 -3 6 -6q0 -4 -11 -13q-11 -11 -10 -13q13 -47 28 -67q18 -23 52 -23q5 0 13 1t20 3zM886 -125q-1 1 -3 1q-3 0 -4 -1l-1 -3l2 -2q5 0 7 1v1z
M757 -125h-13q-2 0 -2 3t2 3q4 1 13 -4l1 -1q0 -1 -1 -1zM14 -88q-7 4 -16 4q9 -4 16 -4zM555 -20q6 1 8 6q0 5 -5 5h-28q-6 0 -5 -7q0 -9 5 -7zM578 -18q-2 3 -6 5l-2 -2l1 -3l3 -2zM490 -4l-11 2q-14 -2 -13 -5q1 -1 13 -1q10 1 11 4zM302 54q5 -1 7 -3q0 -3 -11 -5.5
t-15 -1.5l-3 3q0 3 9 5.5t13 1.5zM333 64q-3 -5 -5 -5l-2 2l-1 3q1 1 6 3q1 -1 1 -1.5t1 -1.5zM478 167q1 -1 1 -2t1 -2q-45 -29 -74 -46t-45 -22l-61 -22q-4 -1 -6.5 -2t-4.5 -2q-2 1 -6 1q28 77 45 91q11 9 47 2q50 -9 103 4zM510 429q2 -1 37 2q16 2 19 5.5t6 3.5
q25 0 25 -8q0 -7 -19 -22l-3 -3q0 -4 21 -4q13 -2 20 0t11.5 5t8.5 6.5t10 5.5h11l19 -3q-3 -8 -8 -13q1 -1 5 -1q9 0 35 9q35 14 35 28q0 59 -70 59q-17 0 -47 -6q-16 -4 -27.5 -5.5t-18.5 -2.5q-69 -4 -110 -5.5t-56 -1.5q-19 0 -41 1.5t-48 3.5q-36 4 -62 1
q-18 -1 -103 20q-77 20 -82 16q-16 -13 -16 -33q0 -52 37 -88q55 -51 83 -50q43 21 56 31q37 15 74 21q10 2 20 3t21 2l100 13q-5 2 -9 5l-8 6q1 1 6 1q62 0 68 -2zM470 427q-1 -1 1 -2h37q12 0 -15 3q-20 3 -23 -1zM686 564q-22 -4 -30 7q-11 18 -28 26q-18 10 -46 18
q-6 2 -31.5 9t-70.5 19q-26 7 -66 17t-97 23q-23 7 -42.5 12.5t-35.5 10.5q-13 -13 -50 -4q-1 0 -3 -4t-4 -4q-3 0 -4 3q-2 20 1 25q1 13 3 13h-2q0 1 2 5q7 7 7 10q0 2 -3 2q0 2 -3 -3t-5 -5q3 12 9 14q31 9 26 9q5 0 13 -5q11 -17 11 -23q17 -8 43.5 -18t63.5 -23
q-1 -1 -5 -1t-6 1q0 -2 5 -4.5t7 -1.5q2 4 2 5q6 -2 10 -4q0 -1 -1 -1q-2 0 -3 1l-2 -2q2 -2 5 -2t3 1q-1 1 -1 3l1 1l48 -10q1 -1 1 -2l-1 -1q-3 -1 -5 -1q0 -1 1 -1q2 -1 6 -1q9 0 8 3l35 -8l9 -3q2 -8 6 -8q3 0 4 1q-6 6 -10 7q3 3 14 -4q28 -9 48.5 -15.5t34.5 -10.5
q32 -10 53 -16.5t31 -9.5q43 -11 49 -10q16 3 30 -5q16 -7 16 -25q0 -6 -14 -8h-18zM370 685q1 1 1 2q0 2 -4 2q-1 0 -1 -1q1 -3 4 -3zM378 686q0 -3 5 -3h4q-1 1 -1.5 2t-2.5 2q-3 1 -5 -1zM397 683q-3 -2 -3 -3l1 -1h1q1 1 1 1.5t1 1.5zM424 676q1 -3 7 -3q-1 1 -7 3z
M638 594v-2l-2 -1h-1v1q1 1 1 1.5t1 1.5z" />
    <glyph glyph-name="Eacute" unicode="&#xc9;" horiz-adv-x="788" 
d="M117 -152q-17 -4 -33 -4q-32 0 -52 23q-15 20 -28 67q-1 2 10 13q12 9 12 13q0 3 -7 6l-31 2q1 5 7 11q4 -2 7 -3l6 -2q7 -3 10 -3q2 0 3 1q0 4 6 13q14 8 24 8q4 0 13.5 -4.5t15.5 -3.5q1 0 3 2q1 1 1 2t-1 1q-11 4 -12 3l3 4l3 1q64 12 112 38l90 50q14 8 14 109
q0 132 -22 177q-2 2 -2 5q0 18 39 38q34 17 55 17q28 0 28 -17q0 -7 -20 -30q-19 -22 -19 -30q4 -36 46 -36q30 0 99 22q48 15 76 23.5t38 10.5q2 1 6 1q20 0 67 -29q59 -36 59 -70q0 -40 -83 -67l1 5q3 14 -2 16q-2 1 -65 -19q-61 -19 -67 -24q-2 -6 -5.5 -13.5t-8.5 -16.5
q-5 -5 -51 -18q-43 -13 -46 -29q-1 -8 -39 -31q-23 -14 -35 -21t-14 -9q-13 -12 -13 -23q0 -8 10 -7l106 10q19 2 53.5 6t85.5 9q5 0 5 -7q2 -8 -4 -8q-2 0 -7 0.5t-12 1.5q-6 1 -10.5 1.5t-8.5 -0.5l-59 -8q-7 -1 -6 -7q2 -5 9 -4q15 2 42 3.5t66 3.5q64 3 117 12l3 1
q0 3 -64 3q-6 0 -7 1l7 2q6 1 12.5 1.5t13.5 0.5q-16 0 -14 8q1 1 14 3q7 -1 18.5 -0.5t28.5 2.5q20 2 32.5 3t17.5 1q95 0 168 -82l29 -32q1 -2 1 -6t1 -11q1 -15 0 -19q-1 1 -7 1q-3 -5 -7 -5q-2 0 -8 6t-7 6q-2 -2 -3 -5q0 -4 6 -6l6 -2l3 -7q-29 0 -29 -9q0 -2 5 -5
t5 -4l-2 -2q-1 -1 -44 17q-12 5 -25 10.5t-27 11.5l-43 12h-3q-2 0 -6.5 -0.5t-7.5 -0.5t-5 1q-5 0 -5 4t-4 5t-10 0q-2 0 -4 -1q3 -1 8 -6q0 -2 -4 -2t-20 4t-17 3q-2 -3 -3 -6q-3 -5 -5 -5q-5 0 -16.5 3t-16.5 3q-7 0 -134 -12l-123 -12q-102 -10 -116 -23zM940 -109
l-1 -2q-2 0 -6 2l-1 3l2 2q3 1 6 -2v-3zM810 -70q1 0 1 1l-1 1q-7 5 -13 4q-2 0 -2 -3t2 -3h13v0zM14 -48q-7 0 -15 4q8 0 15 -4zM583 32q-5 -2 -5 7q-1 7 5 7h28q5 0 5 -5q-2 -5 -8 -6zM628 35l-3 2l-1 3l2 2q4 -2 5 -5zM544 51q-1 -2 -12 -4q-11 0 -12 1q-1 4 12 5l12 -2
v0zM356 109q-4 1 -13.5 -2t-9.5 -5q2 -2 4 -3q4 -1 15 1.5t11 5.5q-2 2 -7 3zM386 119q0 2 -1 3q-6 -2 -7 -3l1 -3q2 -2 3 -2q2 0 4 5zM531 222q-52 -13 -103 -4q-35 7 -46 -2q-17 -14 -45 -91q4 0 6 -1q2 1 4.5 2t5.5 2l62 22q29 10 118 68q0 2 -2 4zM564 484q-6 2 -68 2
q-6 0 -6 -1l2.5 -2t5.5 -4t5.5 -3.5l2.5 -1.5l-100 -13q-20 -3 -112 -39q-14 -6 -35.5 -15t-50.5 -20q-34 -1 -86 52q-51 54 -51 90q0 21 16 34q6 3 82 -16q42 -11 67.5 -16t35.5 -4q73 6 196 6q79 0 128 0.5t69 1.5q7 1 18.5 2.5t27.5 4.5q28 7 47 7q69 0 69 -59
q0 -15 -34 -28q-26 -9 -35 -9q-4 0 -5 1q5 5 8 13l-19 3h-11q-6 -2 -10 -5.5t-8.5 -6.5t-11.5 -5t-20 0q-21 0 -21 4q1 1 1 1.5t1 1.5q20 15 20 22q0 8 -25 8q-9 0 -23 -1t-33 -3q-33 -4 -37 -2zM524 482q3 3 23 1q27 -3 15 -3h-37q-2 1 -1 2zM461 559q-6 6 -18 15
q-9 6 -9 10q0 7 51 24q11 13 23.5 25.5l26.5 26.5l4 2q6 0 -7 -16q3 4 21 27q2 3 14 15q8 8 7 9l5 5t6 5q-4 -6 -7 -9q0 -1 1 -1q3 2 5 11l6 7l26 25q1 -1 2 -1q2 0 8 2q3 3 5 4h-7q-2 1 -1 2l37 33v-4q2 1 4 3l4 4l-1 1q-5 0 -5 -2q-3 3 5 8q1 -1 5 -3q6 6 8 11q-1 0 -5 -4
q-3 0 -5 -1q8 9 16.5 20t18.5 25q-2 6 -2 15v12q4 10 35 17q5 2 15 -7l1 -2q-2 -2 -5 2l-4 3q-4 0 -4 -2t14 -10l-1 -2q-8 -5 0 -21q1 -1 3.5 -4t7.5 -8q7 -7 7 -14q0 -5 -3 -5q-4 2 -9 2q-27 -26 -44 -21q-7 1 -48 -38q-54 -54 -84 -84.5t-38 -38.5q-7 -7 -18 -31
q-1 -2 -11 -16q-6 -8 -6 -13q3 -3 7 -11q0 -8 -15 -12q-13 -5 -21 -5q-7 0 -10 3zM656 769q0 2 -1 3l-3 -3l2 -1zM647 764q-4 -1 -6 -7q4 1 6 7zM632 751q2 -2 4 -2h1l1 2q-4 2 -6 1v-1zM614 732q-7 0 -7 -6h2q6 0 6 5q0 1 -1 1z" />
    <glyph glyph-name="Ecircumflex" unicode="&#xca;" horiz-adv-x="788" 
d="M104 -132q-10 -2 -18 -3t-14 -1q-34 0 -52 23q-14 17 -28 67q-1 2 10 13q11 9 11 13q0 3 -7 6l-31 2q2 6 8 11q7 -3 13 -5.5t9 -2.5t4 1q0 4 6 13q13 8 23 8q4 0 13.5 -4.5t16.5 -3.5q1 0 3 2v1v2q-12 4 -12 3l2 4l3 1q65 12 113 38l89 50q15 7 15 109q0 129 -23 177
q-2 2 -2 5q0 18 39 38q34 17 56 17q28 0 28 -17q0 -7 -20 -30t-20 -30q4 -36 46 -36q31 0 100 22q48 14 76 23t38 11h5q21 0 67 -28q59 -35 59 -70q0 -41 -83 -67l2 5q3 15 -3 16q-3 2 -65 -18q-31 -10 -47.5 -16.5t-19.5 -8.5q-3 -11 -14 -30q-5 -5 -51 -18
q-44 -14 -45 -29q-1 -8 -40 -31q-45 -27 -48 -30q-13 -13 -13 -23q0 -9 9 -7l107 10q19 2 53.5 6t85.5 9q5 0 5 -7q2 -8 -4 -8q-2 0 -7 0.5t-13 1.5q-5 1 -9.5 1h-8.5l-59 -8q-7 -1 -6 -7q2 -6 8 -4q15 2 42 3.5t67 3.5q63 3 117 12l2 1q0 3 -64 3h-7q2 2 7 3q7 1 13 1.5
t13 0.5q-15 0 -13 8q2 2 14 3q6 -1 17.5 -0.5t28.5 2.5q20 2 33 3t18 1q95 0 168 -82l29 -32v-6t1 -11q1 -16 0 -19q-1 1 -6 1q-3 -5 -7 -5q-3 0 -8.5 6t-6.5 6q-2 -2 -3 -5q0 -4 5.5 -6t6.5 -3l2 -6q-28 0 -28 -9q0 -2 5 -5.5t5 -4.5q-1 -1 -2 -1q-3 -1 -44 17
q-12 5 -25 10.5t-27 11.5l-44 12h-2q-2 0 -7 -0.5t-7 -0.5q-4 0 -5 1q-6 0 -6 4t-3 5q-5 2 -10 0q-3 0 -5 -1q3 -1 9 -7q0 -1 -4 -1q-3 0 -21 3q-15 4 -17 4l-2 -6q-2 -5 -5 -5q-5 0 -16.5 2.5t-17.5 2.5q-3 0 -36 -3t-97 -8l-123 -12q-102 -12 -116 -23zM927 -89l-1 -2
q-3 0 -5 2l-1 3l2 2q1 1 5 -2v-3zM797 -51q1 1 1 2l-1 1q-5 5 -12 4q-2 0 -2 -3q0 -4 2 -4h12v0zM1 -28q-5 0 -15 3q7 0 15 -3zM570 51q-5 0 -5 8q-1 7 5 7h29q5 0 5 -5q-2 -6 -9 -6zM615 55l-2 2l-1 3l2 2l2 -2t2 -3zM532 71q-1 -3 -13 -4q-10 0 -11 1q-1 3 11 5l13 -2v0z
M343 128q-4 1 -13 -1.5t-9 -4.5q2 -2 4 -3q3 -1 14.5 1.5t11.5 5.5q-2 2 -8 2zM374 139q-1 1 -1 1.5t-1 1.5q-3 -1 -7 -3l2 -3l2 -2q2 0 5 5zM518 242q-52 -13 -103 -4q-35 6 -46 -2q-15 -13 -44 -91q4 0 6 -1q2 1 4 1.5t6 2.5l62 22q33 11 118 68q-1 1 -1.5 2t-1.5 2z
M551 504q-6 2 -67 2q-6 0 -6 -1q0 -2 8 -6.5t7 -4.5l-99 -13q-22 -3 -112 -39q-14 -6 -35.5 -15t-50.5 -20q-35 -1 -87 52q-50 55 -50 90q0 21 16 34q4 4 81 -16q43 -11 68.5 -16t34.5 -4q73 6 197 6q79 0 127.5 0.5t68.5 1.5q7 1 18.5 2.5t27.5 5.5q30 6 47 6q70 0 70 -59
q0 -14 -35 -28q-24 -10 -35 -10q-2 0 -4 2q3 3 7 13l-19 3h-11q-6 -1 -12.5 -8t-12.5 -8q-4 -1 -25 -1t-21 4l3 3q19 15 19 22q0 8 -25 8q-9 0 -22.5 -1t-32.5 -3q-33 -4 -38 -2zM512 502q1 3 23 1q27 -3 14 -3h-36q-2 1 -1 2zM352 590q-6 -2 -18 -2q-62 0 -62 19
q0 64 109 113q91 42 165 42q99 0 152 -65q7 -7 25 -30q15 -19 16 -32q3 -26 -11 -26q-6 0 -11.5 6.5t-9.5 7.5l-6 -3q-6 -3 -10 -3q-9 0 -13 34q-5 30 -19 43q-46 44 -131 44q-57 0 -109 -20q-63 -26 -83 -71q-9 -19 -4 -26q1 -1 2 -1t1.5 6t2.5 6q1 0 3 -2q4 -10 9 -10
q2 2 2 4l-1 8q1 1 3 0l1 -12q0 -1 4 -7.5t4 -10.5q0 -5 -3 -6z" />
    <glyph glyph-name="Igrave" unicode="&#xcc;" horiz-adv-x="628" 
d="M361 -74q13 3 39 3h76.5t32.5 -1q27 -3 63 -15l36 -11q8 0 20 5l6 2q29 -20 35 -17q5 2 5 4q0 1 -4 3.5t-8.5 5t-8 5t-3.5 4.5q-3 17 -7 17q-1 0 -4 -3t-4 -3q-2 0 -2 13q0 8 13 8q17 0 23 -8q0 -1 -3 -8t-3 -10q0 -11 17 -17q4 -2 6 -2q6 -2 8 0h1q0 2 -1 3
q-19 16 -19 19t1 5q0 -1 11 -6q7 -1 12 -1.5t9 0.5q2 1 4 3q-8 25 -41 44q-26 15 -93 42q-41 17 -79 21q-19 2 -37 4.5t-36 4.5q-8 1 -14.5 1.5t-11.5 -0.5q-13 -3 -21 1t-9 4q-33 0 -33 31q0 66 22 120q26 75 28 91q7 42 10.5 66.5t3.5 32.5q0 35 -17 67q-4 7 -6 11t-3 5
q0 3 2 5l36 29q19 14 90 17q65 3 88 27q3 4 3 12q0 25 -18 33q-36 17 -80 17q-37 0 -86 -12q-28 -6 -48.5 -10.5t-34.5 -7.5q-75 -17 -162 -42q-27 -9 -36 -1q-2 1 -8 9t-10 8q-3 0 -5 -2q-29 -23 -27 -26l27 -61q14 -29 43 -29q23 0 73 24q49 24 58 24q10 0 10 -18
q0 -57 -14 -93q-16 -23 -28.5 -41.5t-21.5 -32.5q-29 -33 -45 -69q-19 -43 -30 -67.5t-14 -30.5q-5 -14 -10 -27t-10 -25q-12 -31 -27 -50q-16 -22 -46 -33q-20 -8 -29 -39q-1 -2 -2.5 -6.5t-5.5 -12.5q-6 -14 -6 -16t31 -21q1 -1 4 -4.5t8 -8.5q9 -11 19 -15q13 -7 20 -10
q4 -2 7 -4q5 0 24 8q23 8 37 12l79 16q8 1 24 5t42 12q20 5 36 8.5t29 4.5zM80 -144l-3 3l-4 -2v-2q0 -2 1 -3h3q3 1 3 4zM7 -26q-1 -1 -2 -1.5t-2 -1.5q-2 -6 -2 -7q0 -2 2 -4q2 -3 4 14zM663 -40q-4 -1 -9 5q-4 7 1 7q12 0 12 -8q0 -3 -4 -4zM269 257q0 -2 6.5 -3.5
t5.5 -3.5q-1 -7 -4 -22.5t-10 -40.5q-11 -42 -8 -59q1 -28 1.5 -49.5t-0.5 -37.5q-2 -6 -5 -7l-105 -22q-2 -1 -4 1q-1 2 1 9l43 132l4 18t4 17q3 11 7.5 23.5t11.5 26.5q7 13 13 28.5t13 34.5q7 21 14 21q16 0 12 -66zM378 484q-3 -3 -8 -3q-7 0 -18.5 6.5t-11.5 13.5
q0 2 3 4l27 8q107 32 119 33q44 10 54 10q5 0 7 -2q0 -3 -1 -4q-5 -5 -71 -21q-70 -18 -100 -45zM568 653q-23 -3 -30 9q-5 8 -12.5 14.5t-15.5 11.5q-44 22 -201 63l-162 41q-19 4 -25 4q-14 -12 -50 -3q-1 0 -3.5 -4t-3.5 -4q-3 0 -4 3q-1 5 -1.5 8.5t-0.5 7.5q0 9 3 17
q-1 16 -11 17l-2 1q0 1 3 4q6 7 6 10q0 2 -3 2q-2 3 -3.5 -2.5t-4.5 -6.5l-1 1q4 13 10 15q34 8 26 8q6 0 13 -5q11 -17 12 -23q15 -8 28.5 -13t24.5 -9q-1 -1 -5 -1q-3 0 -6 1q0 -7 10 -7q2 0 3 1q1 2 1 3t1 2l10 -4q-1 -1 -3.5 -1.5t-3.5 -1.5q1 -1 6 -1q3 0 4 1
q-5 3 -2 3l49 -11q1 0 1 -1l-1 -1q-7 -1 -5 -3q3 -1 6 -1q9 0 8 4l36 -7l8 -3q3 -9 6 -9q2 0 4 2q-3 5 -10 6q3 3 14 -4q28 -9 48.5 -15t34.5 -10q51 -17 84.5 -28t52.5 -17q40 -11 48 -9q18 1 31 -6q16 -7 16 -26q0 -16 -19 -19zM187 806q1 1 1 2t-1.5 1.5t-2.5 1.5
q-1 0 -1 -1q1 -4 4 -4zM195 808q0 -3 5 -5q1 1 4 1q0 2 -5 4q-2 0 -3 1zM214 803q-4 0 -4 -3l1 -1l1 1q2 2 2 3zM240 796q1 -1 8 -1q-2 1 -8 1zM521 685l-2 -4l-2 1l2 4h1z" />
    <glyph glyph-name="Iacute" unicode="&#xcd;" horiz-adv-x="650" 
d="M449 -70q-80 -6 -131 -31l-140 -67q-43 -20 -61 -20q-13 0 -27 14q-10 10 -17.5 17t-13.5 11q-46 30 -46 35q0 2 6 17q4 8 5.5 12t2.5 6q9 31 29 39q30 11 46 33q15 19 27 50q5 13 10 25.5t10 26.5q72 143 142 220q6 7 15.5 17t22.5 24q14 36 14 94q0 17 -10 17
q-8 0 -57 -24q-50 -24 -73 -24q-31 0 -44 30l-27 60q-2 3 27 26q2 2 5 2q4 0 10 -7q3 -5 5 -7l3 -3q8 -7 36 1q87 27 162 42q14 3 34.5 7.5t48.5 11.5q25 5 46 8t40 3q47 0 80 -16q18 -8 18 -34q0 -7 -3 -11q-23 -24 -88 -27q-71 -3 -90 -18l-36 -29q-2 -2 -2 -4q1 -1 9 -17
q17 -31 17 -66q0 -8 -3.5 -32.5t-10.5 -66.5q-1 -2 -10.5 -25.5t-28.5 -69.5q-35 -84 -35 -118q0 -31 33 -31q7 0 17.5 1.5l24.5 3.5q26 5 38 3q87 -12 180 -49q119 -47 134 -98q-2 -2 -4 -3q-4 -1 -9 -0.5t-12 1.5l-8 4q-2 1 -3 2q-1 -1 -1 -5q0 -3 19 -19q1 -1 1 -2t-1 -1
q-2 -2 -8 0q-2 1 -3 1t-3 1q-17 6 -17 17q0 4 3 10.5t3 7.5q-6 8 -23 8q-13 0 -13 -8q0 -13 2 -13q1 0 4 3t4 3q4 0 7 -17q0 -2 3.5 -4t8 -5t8.5 -5.5t4 -3.5q0 -2 -5 -4q-6 -3 -35 17l-6 -2q-12 -5 -20 -5q-5 0 -77 32q-69 31 -124 31q-26 0 -39 -3zM107 -192q0 -3 -3 -4
h-3q-2 2 -2 3t1 2l4 2q1 0 3 -3zM19 -60q-2 -17 -4 -14q-2 2 -2 4q0 1 2 7q1 1 2 1.5t2 1.5zM744 -72q4 1 4 4q0 8 -12 8q-5 0 -1 -7q5 -6 9 -5zM322 244q5 65 -12 65q-19 0 -62 -84q-17 -33 -28.5 -59t-17.5 -45l-43 -133q-2 -7 -1 -8q2 -3 4 -2l146 43q5 2 5 6
q1 16 0.5 38t-1.5 50q-3 17 8 59q7 25 10 40t4 22q1 3 -5.5 4t-6.5 4zM431 470q30 27 100 45q67 18 71 22q1 1 1 3q-2 2 -7 2q-8 0 -54 -9q-6 -1 -35.5 -9.5t-83.5 -24.5l-27 -8q-3 -2 -3 -4q0 -6 12 -13q10 -7 18 -7q5 0 8 3zM599 1005q3 -3 7.5 -6.5t9.5 -8.5q9 -8 9 -10
q0 -9 -51 -24q-23 -24 -51 -51q-32 -16 -106 -102q-3 -2 -25 -24q-20 -20 -19 -21l-5 -5t-6 -5q4 6 7 9q0 1 -1 1q-3 -2 -5 -11l-6 -7l-27 -24l-2 2q-3 0 -7 -3q-3 -3 -5 -4h6l1 -2l-37 -33v4q-1 1 -4.5 -1.5t-3.5 -4.5q0 -1 1 -1q5 0 5 2q3 -3 -6 -8q-1 0 -2 1.5t-2 1.5
q-6 -6 -8 -11q1 0 5 4q3 0 4 1q-8 -9 -16.5 -20t-18.5 -25q2 -6 2 -13v-6.5t-1 -7.5q-4 -10 -35 -16q-5 -2 -15 7l-1 2q1 1 9 -5q4 0 4 2t-14 10l1 2q8 5 1 21q-1 1 -3.5 4t-7.5 8q-7 7 -7 15q0 5 3 5q2 0 5 -2t4 -1q28 25 45 21q8 -2 48 37q117 112 180 177t73 85
q1 2 11 16q6 7 6 13q0 3 -3.5 6.5t-3.5 4.5q0 8 16 12q11 4 21 4q7 0 10 -3zM290 687q0 -2 1 -3l3 3q2 2 -2 2zM299 692q3 1 7 7q-5 -2 -7 -7zM314 705q-2 2 -3 2h-1l-1 -2q2 -2 5 -1v1zM333 724q6 0 6 5q0 1 -1 1q-6 0 -6 -5q0 -1 1 -1z" />
    <glyph glyph-name="Ntilde" unicode="&#xd1;" horiz-adv-x="909" 
d="M913 -16q0 -15 -19 -31q-8 -5 -15 -11t-15 -12q-7 -6 -37 -9q-9 -2 -19 -10l-25 -39q-24 -23 -71 -86q-2 -2 -6 -5t-11 -8q-14 -11 -16 -11q-2 2 -2 3q0 -2 15 25q10 19 49 107q41 96 40 103q-8 32 -10 31q-27 -4 -98 -51q-23 -15 -43 -15q-42 0 -73 58q-6 10 -9 36
t-8 40q-9 -12 -41 -42q-12 -8 -23.5 -16.5t-24.5 -9.5q-20 -2 -45 12q-2 2 -11 9.5t-25 21.5q-2 2 -7 8t-13 16q-9 12 -28 23q-6 3 -13 3q-28 0 -62 -37q-8 -8 -15.5 -17t-15.5 -19q-5 -8 -11 -15.5t-12 -15.5q-19 -24 -27 -25q-33 -8 -53 0q-36 37 -37 48q-7 13 -16.5 34.5
t-23.5 51.5q-6 13 -15 34t-20 50q-1 1 -1 4q0 4 3 9.5l6 11t6 9.5t3 5q20 10 44 17q5 -1 13 -3t21 -5q22 -6 28 -6q14 0 40 -15q22 -12 27 -19q2 -7 6.5 -20.5t12.5 -35.5q11 -26 12 -25q10 12 39 34q23 13 45 13q19 0 36 -11l33 -24q5 -4 11 -11t13 -14.5t13.5 -14.5
t12.5 -10q9 -6 17 -12t22 -5q12 -4 13 -4q3 0 31 25q13 16 31 37q1 10 3 63l1 118q0 32 9 118q2 19 6 41t10 48q4 17 8 33t9 33q15 70 46 122q11 17 24 17q21 0 37 -22q14 -23 14 -42v-142q-3 -81 -26 -139q-1 -4 -6 -2q-5 3 -2 11q1 1 1 3q0 4 -6 4t-7 -1q-1 -6 -3 -16.5
t-5 -24.5l-1.5 -9t-0.5 -4q7 -4 13 10q1 2 2 6.5t3 9.5q1 -5 7 -11l2 1v3q2 7 3 7t1 -2q8 -15 -5 -48q-3 -10 -6 -19t-5 -19q-6 -17 -24 -51q-5 -13 -15.5 -34.5t-24.5 -50.5q-3 -11 0 -50q1 -22 12 -40l3 -8q10 -19 25 -19q5 0 26 7q13 4 31 10l42 14q44 14 73 14
q66 0 93 -69q7 -17 7 -29zM673 -253q2 -1 -0.5 -6t-5.5 -2t0 6q6 4 6 2zM675 414q0 2 -4 2l-2 -2l-1 -3q2 -2 3 -2q4 0 4 5zM645 472q2 45 -3 98q-2 33 -7 28q-5 -2 -15 -42q-2 -8 -4 -20t-6 -28l-20 -77q2 -2 4 -2l6 15q4 12 12 12q3 0 3 -10l-17 -186q1 -11 0 -36
q-2 -11 1 -11q1 6 5 16q3 8 7 19.5t10 28.5q2 13 6.5 34t10.5 50l7 111v0z" />
    <glyph glyph-name="Ograve" unicode="&#xd2;" 
d="M462 -40q-2 11 7 28q2 5 9.5 6.5t9.5 5.5q7 15 14 57q5 26 9 44t6 29l3 68q0 3 5 5l33 5q24 11 31 17q37 19 37 38q0 4 -7 4q-6 0 -10 -1q-10 -5 -19.5 -10.5t-17.5 -10.5q-20 -9 -50 -9q-3 0 -9 2q0 5 -0.5 11t-1.5 14q-3 19 -3 22q-1 4 -2 10t-3 16q-3 16 -3 20
q-2 10 -3.5 18t-3.5 13q-1 5 -1 9t-1 7q-13 25 -13 33q-10 23 -21 34q-15 13 -15 23q0 3 6 6q9 3 10 4q4 6 6.5 9.5t3.5 5.5l-1 11q0 1 2 4t2 5q-3 2 -6 3.5t-5 3.5q-17 27 -23 31q-8 5 -15 8.5t-14 5.5q-6 11 -5 14q-9 4 -17 4q-7 4 -12 6.5l-9 4.5q-29 11 -48 16.5
t-29 6.5q-4 0 -11.5 -1.5t-10.5 -1.5q-5 -1 -8.5 -1t-6.5 -1q-11 -4 -18 -6.5t-9 -3.5v-1q8 -21 8 -15q0 -9 -16 -31q-23 -32 -40.5 -56.5t-28.5 -40.5q-32 -47 -58 -103q-2 -5 -4.5 -9t-5.5 -8q0 -1 3.5 -5t2.5 -7q-6 -14 -11 -23.5t-9 -16.5q-8 -20 -13 -33.5t-7 -18.5
q-3 -11 -3 -19q-5 -11 -8.5 -20t-5.5 -14q-6 -32 -9 -58q-2 -8 -4 -13t-4 -9q-1 -14 -1.5 -25t0.5 -21q-2 -1 -4.5 -2t-6.5 -2q0 -3 1 -5l5 -40q-1 -3 -1 -5t-1 -4q1 -1 5 -3q3 -5 3 -8q4 -13 7.5 -22t5.5 -15q0 -7 -1 -9q10 -16 15 -25.5t7 -12.5l-2 -2h-3l-5 2h-2l-2 -1
q-1 -4 15 -22q15 -16 17 -23q1 -1 2 -1l1 1l4 4h2l1 -1q8 -35 65 -54q43 -15 88 -15q37 0 57 12q6 1 9 3q2 1 3 1q8 6 9 7q12 -2 47 22q36 24 34 33l-1 1q-4 0 -12 -7q-2 4 28 29q1 0 3 -2q-14 -12 -15 -15l1 -2h2q6 1 20 15t14 20q0 1 -2 1q-3 0 -8 -4q0 5 6 13q6 1 13 -1
q3 3 3 7v3q-2 3 -6 5q2 2 3.5 3t2.5 2q3 5 4.5 8l2.5 5l2 1l6 -3l3 3q0 1 -2.5 3t-1.5 3q3 2 11 4zM301 -176q5 2 8 4t5 3q7 7 10 9q2 1 4 -2q-2 -2 -3 -2.5t-2 -1.5q0 -3 2 -7q-7 -7 -15 -7q-4 0 -6 1l-2 1zM207 -198q-39 1 -39 7q0 1 4 2q2 1 15 -1q21 -3 29 -2l4 -2
q0 -5 -13 -4zM196 -100q-14 6 -33 34q-17 26 -19 41l-2 22h2h3l24 -58q7 -21 19 -26q5 1 7 3l-14 14q-5 11 -10 22.5t-10 23.5q-11 34 -9 48q5 49 1 51h-1q-3 -1 -6 2h-3q-2 0 -1 -1q4 -3 4 -7q0 -2 -2.5 -7.5t-2.5 -7.5q2 -18 3 -19q-4 -2 -10 -4q-3 -8 -5 -10l-2 1
q-1 1 -1 15v18q3 3 7 3q-6 57 -5 63q8 26 13.5 47t9.5 35q5 3 16 29t25 30q2 -2 2 -5q-12 -29 -21 -43q0 -12 1 -17q-9 -24 -15.5 -43.5t-10.5 -34.5q-1 -3 -1 -7q0 -3 3 -3q4 0 8 7q7 17 8 23q5 14 8.5 26t5.5 22v10q5 13 10.5 24.5t10.5 22.5q4 12 4 19l7 10.5t5 8.5
q-8 -16 -8 -12q5 10 9.5 16.5t6.5 10.5q11 13 19.5 22.5t14.5 15.5q15 22 26 39t19 29q19 21 46 35h2l2 -1q1 -1 -2 -18q-3 -20 -3 -22q-1 -17 1 -36t7 -39q4 -8 7 -14.5t5 -11.5l3 -9q4 2 5 3l3 -1l1 -1q-1 -1 -5 -3l-1 -1q18 -45 74 -69q11 -4 18.5 -6.5t12.5 -3.5
q3 -3 0 -26q-10 -83 -20 -102q-9 -29 -15 -45q-6 -5 -6 -16q-1 0 -2 -1q-5 -11 -16 -19t-12 -13q-4 -5 -7.5 -8.5t-5.5 -6.5q-47 -66 -92 -85q-6 -3 -39 -3q-14 0 -32 5q-1 1 -5.5 4.5t-12.5 8.5q-14 9 -16 9t-2 -2l1 -3l-2 -2h-2zM447 -55q-5 -4 -4 -6l2 -1q4 0 5 4l-1 1z
M143 83q12 1 12 18q0 1 -1 2q-3 0 -7 -3q-17 -13 -4 -17zM435 282q-6 9 -10.5 16t-7.5 12q-11 30 -11 81q0 11 1 13l18 38l1 2l2 1l3 -1q8 -8 14.5 -15t12.5 -14q5 -9 6 -16q9 -16 14 -46q2 -13 3 -25t3 -24q2 -23 3.5 -33.5t1.5 -8.5q0 -17 -8 -17q-1 0 -5 2
q-14 11 -22.5 18t-11.5 11q-3 5 -7 6zM127 403h-2l-1 3q1 4 4 4l2 -3q0 -3 -3 -4zM368 490l-2 1v2l2 1h3l2 -1v-2l-2 -1h-3zM247 579l-2 1l1 1q2 2 5 3h1q2 -2 1 -3q-2 -2 -4 -2h-2zM292 597l-2 1l-1 1v2l2 1q6 0 7 -1v-1q-2 -2 -6 -3zM277 596q-11 -3 -12 -3l-3 3
q-2 2 -2 4q0 -1 17 -1l1 -1zM252 590h-3h-3l-1 1v2l1 1q2 1 6 -1l1 -2zM583 638q-22 -4 -30 8q-11 18 -28 26q-11 5 -24.5 10t-30.5 10q-16 5 -110 30q-25 7 -65 17t-96 23q-20 5 -36 10t-28 9q-3 -4 -10 -4q-3 0 -40 10q-1 0 -3 -4t-4 -4q-3 0 -4 3q-2 14 3 23q-2 8 -5 9
h-8h-2l2 4q7 7 7 11q0 2 -3 2q-1 3 -3 -2.5t-6 -6.5v1q0 2 0.5 2.5t0.5 1.5t1 2q1 -1 3 -1q16 4 22 6t4 2q7 0 12 -4q4 -5 12 -9q5 -3 5 -6q55 -17 92 -27q-1 -1 -4 -1q-4 0 -6 1q0 -2 5 -4.5t6 -1.5q2 4 2 5q7 -1 11 -4h-1h-3l-2 -2q2 -2 5 -2t4 1q-2 2 -2 3t1 1l48 -10
q1 -1 1 -2t-1 -1l-5 -2h1q2 -1 6 -1q8 0 7 3l36 -8l9 -3q3 -9 6 -9q1 1 1.5 1t1.5 1q-4 6 -9 7q3 3 13 -4q22 -8 36.5 -13t22.5 -8q48 -14 78.5 -22.5t46.5 -13.5q40 -10 47 -9q17 2 31.5 -5.5t14.5 -24.5q0 -18 -17 -21zM237 777l2 2l-1 1q-1 0 -2 0.5t-2 0.5t-1 -1
q1 -3 4 -3zM246 778q0 -3 5 -3h5l-2 2t-3 2q-3 1 -5 -1zM264 775l-3 -3l1 -1h1q1 1 1 1.5t1 1.5zM291 768q3 -3 8 -3q-1 1 -8 3zM535 669v-2l-2 -1h-1v1q1 1 1 1.5t1 1.5z" />
    <glyph glyph-name="Oacute" unicode="&#xd3;" 
d="M482 5q-8 -2 -11 -4q-1 -1 1.5 -3t2.5 -3q-1 -1 -1.5 -2t-1.5 -2q-4 2 -6 4l-2 -1q-1 -2 -3 -5t-4 -8q-1 -1 -2.5 -2t-3.5 -3q4 -2 6 -5v-3q0 -6 -3 -7q-7 2 -13 1q-6 -8 -6 -13q5 4 8 4q2 0 2 -1q0 -6 -14 -20t-21 -15h-1l-1 2q1 3 15 15q-2 2 -3 2q-30 -25 -28 -29
q9 6 12 6q1 0 1 -1q2 -10 -34 -32q-35 -24 -47 -22q-1 -1 -9 -7q-5 -1 -11.5 -3t-15.5 -4q-20 -12 -57 -12q-44 0 -89 15q-58 20 -65 54v1h-2l-4 -4l-1 -1q-1 0 -2 1q-2 7 -17 23q-16 18 -15 22l2 1h2l5 -2h3l2 2q-2 3 -7 12.5t-15 25.5q1 2 1 9q-2 6 -5.5 15t-7.5 22
q0 3 -3 8q-4 2 -5 3q1 2 1 4t1 5l-5 40q-1 2 -1 5q4 1 6.5 2t4.5 2q-1 10 -0.5 21t1.5 25q2 4 4 9t4 13q1 5 2 12.5t3 18.5q2 5 5.5 14t8.5 20q0 8 3 19q2 5 7 18.5t13 33.5q4 7 9 16.5t11 23.5q1 3 -2.5 7t-3.5 5q3 4 5.5 8t4.5 8q26 56 58 103q11 17 28.5 41.5t40.5 56.5
q16 22 16 30q0 -5 -8 16v1l27 9q2 1 6 1t9 1q3 0 10.5 2t11.5 2q10 -1 29 -6.5t48 -16.5l9 -4.5t12 -6.5q8 0 17 -4q-1 -3 5 -14q7 -2 13.5 -5.5t14.5 -8.5q6 -3 24 -31q3 -2 11 -8q0 -2 -2 -4.5t-2 -3.5l1 -11q-1 -2 -3.5 -5.5t-6.5 -9.5l-10 -5q-6 -2 -6 -5q0 -10 15 -23
q10 -10 21 -34q0 -8 13 -33l-2 -4t-2 -5q2 -5 4 -13t4 -18q-2 -15 0 -33q1 -7 4 -22.5t10 -40.5q6 -2 10 -2q19 0 61 19q50 22 64 22q7 0 7 -4q0 -12 -40 -40q-39 -26 -53 -29l-39 -7q-6 -2 -6 -4l8 -40q2 -13 -7 -55q-4 -22 -7.5 -35.5t-6.5 -20.5q-21 -46 -19 -56z
M322 -133l2 -1q2 -1 6 -1q8 0 15 7q-2 4 -2 7q1 1 2 1.5t3 2.5q-2 3 -4 2q-2 -2 -4.5 -4t-6.5 -5q-2 -1 -4.5 -3t-7.5 -4zM212 -156q13 0 13 4l-4 2q-8 -1 -29 2q-14 2 -15 1q-4 -1 -4 -2q0 -6 39 -7zM190 -80l2 2l-1 3q0 2 2 2t16 -9q15 -11 19 -13q17 -5 32 -5
q77 0 158 113q2 2 5.5 6t7.5 9q4 16 21 48q2 0 2 1q0 11 6 16q5 13 15 44l8 56q3 24 0 27q-5 1 -12.5 3.5t-18.5 6.5q-56 24 -74 69l1 1q4 2 5 3l-1 1l-3 1q-1 -1 -5 -3l-3 9q-2 5 -5.5 11.5t-7.5 14.5q-9 39 -7 75q0 2 3 22q3 17 2 18l-2 1h-2q-27 -14 -46 -35
q-8 -12 -19 -29t-26 -39q-6 -6 -14.5 -15.5t-19.5 -22.5q-2 -4 -6.5 -10.5t-9.5 -16.5q0 -7 -16 -30q0 -7 -4 -19q-5 -11 -10.5 -22.5t-10.5 -24.5v-10q-2 -4 -4.5 -8.5t-6.5 -11.5q-1 -4 -2.5 -9.5t-4.5 -13.5q-4 -7 -9 -7q-3 0 -3 3q0 4 1 6q5 11 10.5 24t12.5 27
q-1 5 -1 17q9 14 21 43q0 3 -2 5q-16 -4 -25 -29q-11 -27 -16 -30q-4 -9 -9 -22.5t-10 -32.5q-1 -6 5 -62q-4 0 -8 -3v-18q0 -14 2 -16l2 -1q3 3 4 11q2 1 5 1.5t5 2.5q-1 1 -3 19q0 2 2.5 7t2.5 7q0 4 -4 7q-1 0 1 2h3q3 -5 6 -3h2q3 -3 -2 -51q-2 -14 9 -47q8 -22 21 -46
q3 -3 6 -6.5t7 -8.5q-2 -2 -6 -3q-12 5 -20 26l-24 58q-1 1 -3 1t-2 -1l2 -21q2 -16 19 -42q19 -27 33 -33h2zM469 -12l1 -1q-1 -4 -5 -4l-3 1q0 3 5 5zM135 103q-12 4 4 16q4 3 8 4q0 -2 1 -3q0 -16 -13 -17zM436 296q3 -1 7 -5q7 -11 34 -29q4 -2 5 -2q8 0 8 17
q0 -2 -1.5 8.5t-3.5 32.5q-2 13 -3 25t-3 24q-2 14 -5.5 26t-8.5 21q-1 5 -6 16q-6 7 -12.5 14t-14.5 15l-3 1l-2 -1l-1 -2l-18 -38q-1 -2 -1 -13q0 -51 11 -81q3 -5 7.5 -12t10.5 -17zM128 418q3 1 3 3q-1 4 -3 4q-2 -2 -3 -5l1 -2h2v0zM372 505l2 1v2l-2 1h-3l-2 -1v-2
l2 -1h3zM250 594q2 0 4 2q1 1 -1 3h-1q-3 -1 -5 -3l-1 -1l2 -1h2zM293 612q4 1 6 3v1q-1 1 -7 1l-2 -1v-2l1 -1l2 -1v0zM279 613l-1 1q-17 0 -17 1q0 -2 2 -4l3 -3q1 0 12 3zM254 606l-1 2q-4 2 -6 1l-1 -1v-2l1 -1h3h3zM328 637l-2.5 2t-5.5 4.5t-5.5 5t-2.5 4.5
q0 10 51 24q22 24 51 51q29 35 28 36l5 5t6 5q-4 -6 -7 -9q0 -1 1 -1q3 2 5 11l6 7l27 24q1 -1 2 -1t7 2q3 3 5 4h-6q-2 1 -1 2l37 33v-4q1 -1 5 1.5t4 4.5l-1 1q-6 0 -6 -2q-4 3 7 8q0 -1 1 -2t2 -1q6 6 8 11l-1 -1q-1 -1 -2 -1.5t-2 -1.5q-3 0 -4 -1q8 9 16.5 20t18.5 25
q-2 6 -2 13v6.5t1 7.5q4 10 35 16q6 2 15 -7l1 -2q-2 -2 -5 2l-4 3q-4 0 -4 -2t14 -10l-1 -2q-4 -2 -7 -3q-2 -2 1 -9q0 -1 11 -12q7 -7 7 -15q0 -5 -3 -5q-2 0 -5 2t-4 1q-10 -8 -22 -18t-27 -23q-4 -2 -14 -11t-27 -25q-38 -38 -126 -123q-4 -2 -8.5 -7t-11.5 -13
q-6 -8 -20 -26q-15 -16 -18 -16q-6 0 -10 3zM525 835q0 2 -1 3l-3 -3q-2 -2 2 -2zM516 830q-2 -1 -3.5 -3t-3.5 -4q5 2 7 7zM501 817q2 -2 3 -2h1l1 2q-2 2 -5 1v-1zM482 798q-6 0 -6 -5q0 -1 1 -1q6 0 6 5q0 1 -1 1z" />
    <glyph glyph-name="Ocircumflex" unicode="&#xd4;" 
d="M482 1q-8 -2 -11 -4q-1 -1 1.5 -3t2.5 -3q-1 -1 -1.5 -2t-1.5 -2q-4 2 -6 4l-3 -1q-1 -3 -6 -13q-1 -1 -2.5 -2t-3.5 -3q4 -2 6 -5v-4q0 -5 -3 -6q-7 2 -13 1q-6 -8 -6 -13q5 4 8 4q2 0 2 -1q0 -6 -14 -20t-21 -15h-1l-1 2q1 3 15 15q-2 2 -3 2q-30 -25 -28 -29q9 6 12 6
q1 0 1 -1q2 -10 -34 -32q-35 -24 -47 -22q-1 -1 -9 -7q-5 -1 -11.5 -3t-15.5 -4q-20 -12 -57 -12q-45 0 -89 16q-58 20 -65 53v1h-2l-4 -4h-1h-2q-2 7 -17 23q-16 18 -15 22l2 1h2l5 -2h3l2 2q-2 4 -7.5 13t-15.5 25q1 2 1 9q-5 14 -12 37q0 3 -3 8q-4 2 -5 3q1 2 1 4t1 5
l-5 40q-2 4 -2 5q4 1 7 2t5 2q-1 10 -0.5 21t1.5 25q2 4 4 9t4 13q1 5 1.5 12.5t2.5 18.5q3 5 6.5 14t8.5 20q0 8 3 19q3 10 20 52q4 7 9 16.5t11 23.5q1 3 -3 6.5t-4 5.5q4 4 6.5 8t4.5 8q26 56 58 103q11 17 28.5 41.5t40.5 56.5q15 22 15 30q0 -2 -7 16v1l27 9q2 1 6 1
t9 1q3 0 10.5 2t11.5 2q10 -1 29 -6.5t48 -16.5q4 -2 8.5 -4.5t11.5 -6.5q9 0 18 -4q-1 -3 5 -14q7 -2 13.5 -5.5t14.5 -8.5q6 -3 24 -31q3 -2 11 -8q0 -2 -2 -4.5t-2 -3.5l1 -11q-1 -2 -3.5 -5.5t-6.5 -9.5q-1 -1 -10 -4q-6 -3 -6 -6q0 -10 15 -23q10 -10 21 -34
q0 -8 13 -33q-2 -2 -4 -9q2 -5 4 -13t4 -18q-2 -15 0 -33q1 -7 4 -22.5t10 -40.5q6 -2 10 -2q19 0 61 19q50 22 63 22q8 0 8 -4q0 -12 -40 -40q-39 -26 -53 -29l-39 -7q-6 -2 -6 -4l8 -40q2 -12 -7 -56q-7 -41 -14 -56q-21 -46 -19 -55zM322 -137l2 -1q2 -1 6 -1q8 0 15 7
q-2 4 -2 7q1 1 2 1.5t3 2.5q-2 3 -4 2q-2 -2 -4.5 -4t-6.5 -5q-2 -1 -4.5 -3t-7.5 -4zM212 -160q13 0 13 4l-4 2q-8 -1 -29 2q-14 2 -15 1q-4 -1 -4 -2q0 -6 39 -7zM190 -84l2 2l-1 3q0 2 2 2q3 0 17 -10q15 -11 18 -12q17 -5 31 -5q78 0 159 113q2 2 5.5 6t7.5 9
q4 16 21 48q2 0 2 1q0 11 6 16q5 13 15 44l8 56q3 24 0 27q-5 1 -12.5 3.5t-18.5 6.5q-56 23 -74 69l1 1q4 2 5 3l-1 1l-3 1q-1 -1 -5 -3l-3 9q-2 5 -5.5 11.5t-7.5 14.5q-9 39 -7 75q0 2 3 22q3 17 2 18l-2 1h-2q-27 -14 -46 -35q-8 -12 -19 -29t-26 -39q-6 -6 -14.5 -15.5
t-19.5 -22.5q-2 -4 -6.5 -10.5t-9.5 -16.5q0 -7 -16 -30q0 -7 -4 -19q-5 -11 -10.5 -22.5t-10.5 -24.5v-10q-2 -4 -4.5 -8.5t-6.5 -11.5q-1 -4 -2.5 -9.5t-4.5 -13.5q-4 -7 -9 -7q-3 0 -3 3t1 6q5 11 10.5 24t12.5 27q-1 5 -1 17q9 14 21 43q0 3 -3 5q-15 -4 -24 -29
q-11 -27 -16 -30q-4 -9 -9 -22.5t-10 -32.5q-1 -6 5 -62q-4 0 -8 -3v-18q0 -14 2 -16l2 -1q3 3 4 11q2 1 5 1.5t5 2.5q-1 1 -3 19q0 2 2.5 7t2.5 7q0 4 -4 7q-1 0 1 2h3q3 -5 6 -3h2q3 -3 -2 -51q-1 -13 9 -47q8 -22 21 -46q2 -3 5.5 -6.5t7.5 -8.5q-2 -2 -7 -3
q-10 4 -19 26l-24 58q-1 1 -3 1t-2 -1l2 -21q2 -16 19 -42q19 -27 33 -33h2zM469 -16l1 -1q-1 -4 -6 -4l-2 1q0 3 5 5zM135 99q-12 4 4 16q4 3 8 4v-3q0 -16 -12 -17zM436 292q2 -1 3.5 -2t3.5 -3q3 -4 11.5 -11t22.5 -18q2 -2 5 -2q7 0 7 17q0 -2 -1 8.5t-3 32.5
q-2 13 -3 25t-3 24q-5 29 -15 47q-1 3 -2 7t-3 9q-6 7 -12.5 14t-14.5 15l-3 1l-2 -1l-1 -2l-18 -38q-1 -2 -1 -13q0 -51 11 -81q3 -5 7.5 -12t10.5 -17zM128 414q2 2 2 3q0 4 -2 4q-2 -2 -3 -5l1 -2h2v0zM372 501l2 1v2l-2 1h-3l-2 -1v-2l2 -1h3zM250 590q2 0 4 2q1 1 -1 3
h-1q-3 -1 -5 -3l-1 -1l2 -1h2zM293 608q4 1 6 3v1q-1 1 -7 1l-2 -1v-2l1 -1l2 -1v0zM279 609l-1 1q-17 0 -17 1q0 -2 2 -4l3 -3q1 0 12 3zM254 602l-1 2q-4 2 -6 1l-1 -1v-2l1 -1h3h3zM169 640q-5 -3 -19 -1q-17 2 -35 9q-25 10 -23 23q7 52 103 102q76 40 152 40
q19 0 39 -3q97 -13 152 -85q4 -12 18 -36q16 -23 18 -39q4 -33 -9 -34q-5 0 -11.5 8.5t-10.5 8.5l-5 -4q-5 -4 -10 -4q-8 -1 -16 41q-6 33 -22 58q-29 46 -126 59q-64 9 -119 -13q-64 -25 -83 -58q-12 -24 -8 -31l2 -2q1 4 2 7q2 6 4 6t2 -2q4 -12 8 -13q2 0 2 4l1 10
q1 1 3 0l-1 -15q1 -4 2 -10t2 -14q0 -5 -3 -6z" />
    <glyph glyph-name="Otilde" unicode="&#xd5;" 
d="M468 -5q-8 -2 -11 -4q-1 -1 1.5 -3t2.5 -3q-1 -1 -1.5 -2t-1.5 -2q-4 2 -6 4l-2 -1q-2 -5 -7 -13q-1 -1 -2.5 -2t-3.5 -3q4 -2 6 -5v-4q0 -5 -3 -6q-7 2 -13 1q-6 -8 -6 -13q5 4 8 4q2 0 2 -1q0 -6 -14 -20t-20 -15h-2l-1 2q1 3 15 15q-2 2 -3 2q-30 -25 -28 -29
q9 6 12 6q1 0 1 -1q2 -8 -34 -32q-34 -24 -47 -22q-1 -1 -9 -7q-5 -1 -11.5 -3t-15.5 -4q-20 -12 -57 -12q-45 0 -89 16q-57 19 -64 53l-1 1h-2l-4 -4h-1h-2q-2 7 -17 24q-17 16 -15 21l2 1h2l5 -2h3l2 2q-3 7 -22 38q1 2 1 9q-2 6 -5.5 15t-7.5 22q0 3 -3 8q-4 2 -5 3
q1 2 1 4t1 5l-5 40q-1 2 -1 5q4 1 6.5 2t4.5 2q-1 10 -0.5 21t1.5 25q2 4 4 9t4 13q1 5 2 12.5t3 18.5q2 5 5.5 14t8.5 20q0 8 3 19q2 5 7 18.5t13 33.5q4 7 9 16.5t11 23.5q1 3 -2.5 6.5t-3.5 5.5q3 4 5.5 8t4.5 8q13 28 27.5 53.5t30.5 49.5q11 17 28.5 41.5t40.5 56.5
q16 22 16 30q0 -5 -8 16v1l27 9q3 1 6.5 1t8.5 1q3 0 10.5 2t11.5 2q11 -1 30 -6.5t47 -16.5l9 -4.5t12 -6.5q8 0 17 -4q-1 -3 5 -14q13 -4 29 -14q7 -4 23 -31q3 -2 11 -8q0 -2 -2 -4.5t-2 -3.5l1 -11q-1 -2 -3 -5.5t-7 -9.5q-1 -1 -9 -4q-7 -3 -7 -6q0 -10 15 -23
q10 -10 21 -34q0 -8 13 -33q-2 -3 -3 -9q2 -5 3.5 -13t3.5 -18q0 -4 4 -13q4 -11 6 -20q1 -7 4 -22.5t10 -40.5q6 -2 10 -2q9 0 51 19q50 22 64 22q7 0 7 -4q0 -11 -37 -38q-40 -29 -56 -31l-34 -2q-5 0 -5 -4l2 -45q1 -17 -6 -54q-10 -47 -27 -85q-9 -19 -7 -28zM308 -143
l2 -1q2 -1 6 -1q8 0 15 7q-2 4 -2 7q1 1 2 1.5t3 2.5q-2 3 -4 2q-3 -2 -10 -9q-2 -1 -5 -3t-8 -4zM198 -166q13 0 13 4l-4 2q-8 -1 -29 2q-13 2 -15 1q-4 0 -4 -2q0 -6 39 -7zM152 -95l2 2l-1 3q0 2 2 2q3 0 16 -10q18 -12 19 -12q17 -5 32 -5q37 0 60 9q64 28 122 109
q2 2 5.5 6t7.5 9q6 16 21 48q2 0 2 1q0 11 6 16q5 13 15 44l8 56q3 24 0 27q-5 1 -12.5 3.5t-18.5 6.5q-54 22 -74 69l1 1q4 2 5 3l-1 1l-3 1q-1 -1 -5 -3l-3 9q-2 5 -5 11.5t-7 14.5q-5 20 -7 39t-1 36q0 2 3 22q3 17 2 18l-2 1h-2q-27 -14 -46 -35q-13 -11 -30 -29.5
t-39 -44.5q-6 -5 -14.5 -14.5t-19.5 -22.5q-2 -4 -6.5 -10.5t-9.5 -16.5q0 -7 -16 -30q0 -8 -4 -19q-5 -11 -10.5 -22.5t-10.5 -24.5v-10l-4.5 -9t-6.5 -11q-1 -4 -2.5 -9.5t-4.5 -13.5q-4 -7 -9 -7q-3 0 -3 3t1 6q5 11 10.5 24t12.5 27q-1 4 -1 17q9 13 21 42q0 2 -2 6
q-15 -4 -26 -31q-9 -24 -15 -29q-4 -8 -9 -21.5t-10 -32.5q-1 -6 5 -62q-4 0 -8 -3v-18q0 -14 2 -16l2 -1q3 3 5 11q6 2 9 4q0 2 -3 19q0 2 2.5 7t2.5 7q0 5 -4 6q-1 0 1 2h3q3 -5 6 -3h2q3 -1 -2 -51q-2 -14 10 -46q7 -23 20 -46q3 -3 6 -6.5t7 -8.5q-2 -2 -6 -3
q-12 5 -20 26l-24 57q-1 1 -3 1q-1 0 -2 -1l2 -20q2 -16 19 -42q19 -29 33 -33h2zM455 -22l1 -1q-1 -4 -5 -4l-2 1q-2 3 4 5zM97 88q-13 4 4 15q3 3 8 5v-4q0 -15 -12 -16zM422 286q3 -1 7 -5t12 -11t22 -18q4 -2 5 -2q8 0 8 17q0 -2 -1.5 8.5t-3.5 32.5q-2 13 -3 25t-3 25
q-5 30 -14 46q-1 5 -6 16q-6 7 -12.5 14t-14.5 15l-3 1l-2 -1l-1 -2l-18 -38q-1 -2 -1 -13q0 -51 11 -81q3 -5 7.5 -12t10.5 -17zM114 408q3 1 3 3q-1 4 -2 4l-2 -2t-2 -3l1 -2h2v0zM358 495l2 1v2l-2 1h-3l-2 -1v-2l2 -1h3zM236 584q2 0 4 2q1 1 -1 3h-1q-3 -1 -5 -3l-1 -1
l2 -1h2zM279 602q4 1 6 3v1q-1 1 -7 1l-2 -1v-2l1 -1l2 -1v0zM265 603l-1 1q-16 0 -17 1q0 -2 2 -4l3 -3q1 0 12 3zM240 596l-1 2q-4 2 -6 1l-1 -1v-2l1 -1h3h3zM96 759q5 -1 9.5 -1h9.5q9 0 22.5 1.5l31.5 3.5q19 2 32.5 3.5t23.5 1.5q53 0 151 -27q106 -30 152 -36
q12 -2 41 8q35 11 46 11q36 0 36 -24q0 -14 -12 -21.5t-26 -6.5q-14 -1 -33.5 -0.5t-42.5 2.5l-46 13q-3 1 -3 2h9l-4 2l-4 1l-5 2l-70 15q-15 0 -42 3q-32 10 -96 21h-54q-19 0 -43 -10q-30 -11 -40 -11q-20 0 -32 19q-21 13 -18 20q5 10 7 8zM483 690q-4 1 -4 2v1
q4 -2 5 -2zM504 692q-1 0 4 4q3 2 4 1q-5 0 -8 -1q-12 5 -16 5q-1 -1 -1 -3q0 -3 2 -3zM477 703q-1 1 -5 1q-2 -2 -1 -2q4 0 6 1zM459 702q4 1 10 3h-13h-9zM621 705q4 0 4 1l-1 1q-2 0 -3 -1t0 -1zM412 717q-1 0 -1 -1t1 -1h13v1z" />
    <glyph glyph-name="Ugrave" unicode="&#xd9;" horiz-adv-x="416" 
d="M301 435q7 -111 -3 -175q2 -23 4.5 -44.5t5.5 -41.5l-50 -122q-6 -14 -24 -34q-29 -29 -50 -29q-25 0 -42 32q-14 28 -11 39q10 2 16 2q1 1 -4 4l-7 -1q-5 0 -5 4l-2 24q-2 2 3 2q9 0 7 5q-8 3 -13 2q-2 4 2 24l15 90q1 6 1.5 16t0.5 24l4 2q2 0 12 -7q3 2 5 6l-8 2
q-6 1 -6 6q0 6 4 7q1 0 4 -6q0 -1 1 -1t1 2l4 40q16 52 33 99q29 84 29 115q0 11 -3 16q-5 9 -20 21t-38 28q-55 37 -91 37q-28 0 -40 -22q0 -1 -3 -5t-6.5 -8t-6 -7.5l-2.5 -3.5q1 -16 11 -29q3 -4 9 -9.5t15 -12.5l9 -67q9 -68 9 -71l-2 -79q0 -9 -7 -5q-5 10 -5 17
q-2 22 -3 15q-1 -43 3 -73q-2 -8 -3 -62q-1 -23 -1.5 -41t-0.5 -31q0 -153 58 -196q35 -26 66 -26q34 0 61 31q11 28 14 42q13 33 18 40q5 -2 4 -5l-5 -64v-2q-7 -10 -6 -31q1 -13 1 -21.5v-13.5v-4q67 -49 111 -49q16 0 20 10q-18 120 -27.5 188t-10.5 87l-6 110q0 2 3 19
q1 10 -2 17q-1 1 -7 2t-6 4q2 8 4 33t4 68q3 75 15 101l36 53q30 44 28 52q-4 22 -45 40q-36 16 -75 16t-46 -15q-5 -8 -5 -16q0 -11 19 -30q20 -20 21 -31zM298 132q4 12 11 7v-12q-1 -14 -2 -22t-2 -10q-15 -42 -23 -49q-4 11 -4 27zM344 199l-2 -1q-2 2 -2 4l1 1
q4 0 5 -1q0 -1 -2 -3zM341 207v4q6 1 6 -3q0 -2 -4 -2q-1 0 -2 1zM342 307q-1 1 -2 1.5t-2 2.5l1 2l3 2q5 -2 3 -5q0 -3 -3 -3zM345 321q-1 -4 -4 -3q-3 0 -3 4l2 18q0 4 2 2q1 0 3 -2v-19zM503 672q-11 -2 -23 1q-28 14 -41 24q-22 11 -59 23.5t-90 26.5q-26 7 -66 17
l-96 24q-35 7 -51 12q-13 -13 -50 -4q-1 0 -3 -4t-4 -4q-3 0 -4 3q-1 5 -1 15q0 12 3 18q-1 16 -11 18h-2l2 4q7 7 7 11q0 2 -3 2q-2 3 -4 -2.5t-5 -6.5v1q4 13 10 14q16 4 22 6t4 2q7 0 12 -4q12 -17 12 -24q13 -5 43.5 -17t81.5 -29q-1 -1 -5 -1t-6 1q0 -2 5.5 -4.5
t6.5 -1.5q2 4 2 5q6 -2 10 -4h-1h-3l-2 -2q2 -2 5 -2q4 0 4 1q-1 1 -1 1.5t-1 1.5q0 1 1 1l48 -10l2 -2q-1 0 -2 -1q-4 -1 -4 -2q2 -1 6 -1q9 0 8 3l35 -8l9 -3q3 -8 6 -8t4 1q-4 6 -10 7q3 3 14 -4q16 -6 25.5 -9t11.5 -4q38 -11 61 -17t30 -8q40 -11 48 -9q17 2 31.5 -5.5
t14.5 -24.5q0 -12 -18 -15zM213 786q1 1 1 2q0 2 -4 2q-1 0 -1 -1q1 -3 4 -3zM221 787q0 -3 5 -3h5l-2 2t-3 2q-3 1 -5 -1zM240 784q-3 -2 -3 -3l1 -1h1q1 1 1 1.5t1 1.5zM267 777q1 -3 7 -3q-1 1 -7 3zM402 653q1 -3 -1 -4q-1 0 -1 1q1 1 1 1.5t1 1.5z" />
    <glyph glyph-name="Uacute" unicode="&#xda;" horiz-adv-x="416" 
d="M299 533q-2 10 -21 30q-19 19 -19 30q0 7 5 17q9 14 46 14t75 -15q40 -18 45 -41q2 -6 -28 -52l-36 -53q-12 -26 -15 -101q-3 -82 -8 -101q0 -3 6 -4t7 -1q3 -7 2 -18q-3 -17 -3 -19l6 -110q1 -18 10.5 -86.5t27.5 -188.5q-4 -10 -20 -10q-44 0 -111 49v4v14t-1 22
q-1 21 6 31v2l5 63q1 3 -4 5q-4 -4 -18 -40q-3 -14 -14 -42q-27 -31 -61 -31q-31 0 -66 26q-58 45 -58 197q0 13 0.5 31t1.5 41q1 53 3 61q-5 30 -3 74q1 7 3 -16q0 -6 5 -16q7 -4 7 5l2 79q0 3 -9 71l-9 66q-20 16 -23 22q-9 12 -12 29l2.5 3.5t6 7.5t6.5 8t3 5
q12 22 40 22q35 0 91 -36q47 -32 58 -49q3 -5 3 -17q0 -30 -29 -114q-17 -47 -33 -99l-4 -41q0 -2 -1 -2l-1 1q-3 6 -4 6q-4 -1 -4 -7q0 -4 6 -5l8 -2q-2 -4 -5 -7q-5 4 -8 5.5t-4 2.5l-4 -2q0 -14 -0.5 -24t-1.5 -17l-15 -89q-4 -20 -2 -24q5 1 13 -2q1 -6 -7 -6
q-5 0 -3 -2l2 -24q0 -4 5 -4l7 1q5 -3 4 -4q-6 0 -16 -2q-3 -12 11 -38q16 -33 42 -33q23 0 50 29q19 20 24 35l50 121q-3 20 -5.5 42t-4.5 45q10 64 3 175zM283 68q0 -18 4 -27q8 7 23 48q1 3 1.5 11t2.5 22q1 10 0 11q-7 5 -11 -6zM349 193q2 2 2 4q-1 1 -5 1l-1 -1
q0 -1 2 -5l2 1v0zM346 202q1 -1 3 -1q3 0 3 2q0 3 -6 2v-3v0zM347 302q3 0 3 3q1 3 -3 4l-3 -1l-1 -2q1 -2 2 -2.5t2 -1.5zM350 315q-1 -4 -4 -3q-3 0 -3 4l2 18q0 4 2 2q3 0 3 -2v-19zM467 895q2 -4 6 -8l9 -9q8 -8 8 -11q-2 -9 -54 -18q-13 -11 -27 -22t-30 -22l-9 -3h2
q0 -3 -19 -18q-19 -13 -19 -15q-5 -5 -12 -9q2 2 4.5 4t4.5 4q0 1 -1 1q-4 -1 -7 -10l-7 -7l-30 -20q0 2 -2 2t-5.5 -2t-6.5 -3l6 -1l1 -2l-41 -29v4q0 2 -4 -0.5t-4 -4.5q0 -1 1 -1q5 0 5 2q-3 -4 -7 -7l-3 3q-6 -3 -10 -10q2 0 6 4q2 -2 4 0q-19 -16 -41 -41q1 -1 1 -5
q0 -8 -3 -21q-5 -11 -36 -12q-6 -2 -15 9v2q2 2 5 -3l3 -3q4 0 4 2q1 1 -13 11l2 2q7 4 3 21q0 1 -9 13q-6 8 -5 16q2 5 4 4q1 0 4 -2.5t4 -1.5q31 21 47 15q8 -2 52 31q57 43 91.5 70t47.5 38q2 2 8 9.5t14 20.5q2 3 14 15q5 6 7 12q0 3 -3 7t-2 5q0 7 16 10q7 1 12 1.5
t10 -0.5q7 -2 10 -4zM243 708q0 -2 1 -3l3 3q1 1 -1 2zM253 712q3 1 8 6q-5 -2 -8 -6zM269 723q0 2 -2 2h-1l-2 -2q2 -2 5 -1v1zM291 740q7 -1 7 4l-2 1q-6 0 -6 -5h1v0z" />
    <glyph glyph-name="Yacute" unicode="&#xdd;" horiz-adv-x="448" 
d="M161 -203q-7 -4 -18 -20q-9 -17 -10 -17q0 -1 0 1.5t1 7.5q0 14 4 34q7 61 21 132q33 94 93 288q1 1 1 4q-1 1 -1 2h-3h-3h-1q-1 -2 -6 -11q-4 -4 -16.5 -21t-35.5 -46q-1 -1 -1 -4t1.5 -8t1.5 -8q0 -5 -6 -6q-1 -4 -2 -3q-2 3 -5 3t-8.5 -4t-11 -9t-10 -11t-5.5 -9
q-14 -27 -59 -27q-68 0 -68 127q0 28 3 63.5t10 80.5l17 118q4 76 3 86q-1 5 -10.5 15t-9.5 16q0 12 5.5 23t14.5 19.5t20 13.5t22 5q41 0 88 -44q40 -37 40 -60q0 -5 -1 -7l-26 -89q-4 -17 -24 -52q-17 -32 -22 -51l-2.5 -10t-5.5 -14q-8 -11 -6 -16q1 -3 0 -22
q-3 -26 -3 -32q0 -14 6 -14q40 -6 97 52q47 47 61 83l37 101q13 34 14 99q2 50 22 72q12 12 28 12q31 0 75 -45q38 -38 37 -47q0 -2 -20 -31q-10 -14 -16.5 -22t-8.5 -11q-21 -24 -45 -89q-7 -17 -15.5 -40t-19.5 -52q-5 -19 -18 -43q-23 -27 -19 -29q6 4 14 6l-1 -4
q-7 -14 -27 -40t-24 -39q0 -12 -7 -34q-8 2 -14 2l-1 -4q0 -4 1 -7q2 1 3.5 2t3.5 2q2 0 3 1l1 -1q0 -2 -4 -6t-4 -5q0 -2 3 -3h4l-4 -1q-6 -2 -8 -8q-2 -5 -4.5 -11t-4.5 -11q1 1 1 4q0 2 -1 3q-6 -2 -7 -8l4 -2q2 -1 4 -1q0 -1 -6.5 -3t-5.5 -6q1 -1 3 -2q4 -2 4 -4
q-4 1 -10 0l-1 -7q1 -23 -15 -48q-15 -26 -15 -30h4l9 12q2 0 3 -1q-1 -7 -5 -19t-12 -31q-17 -38 -24 -36h-2zM206 -114q-4 -2 -6 -1q1 3 4 4q3 -2 2 -3zM254 41q1 1 2 1q2 0 3 -1q2 -6 1 -8q-1 -1 -2 -1q-6 0 -4 9zM297 137v4l-2 2q-1 1 -5 -4l1 -2q2 -2 4 -2zM519 955
q1 -1 16 7q18 8 23 8q2 0 4 -2q9 -8 9 -10q0 -6 -26 -24q-27 -20 -51 -28q-23 -24 -51 -51q-6 -2 -7 -2h-1q-3 -4 -7 -8q-4 -5 -9.5 -11t-12.5 -14l-5 -5t-8 -6q-6 -5 -5 -6l-5 -5t-6 -5q3 3 7 9q0 1 -1 1q-3 -2 -5 -11l-6 -7l-27 -24q-1 1 -2 1t-7 -2q-3 -3 -5 -4h6l1 -2
l-37 -33v4q-1 1 -4.5 -1.5t-3.5 -4.5q0 -1 1 -1q5 0 5 2q3 -3 -6 -8q-1 0 -2 1.5t-2 1.5q-6 -6 -8 -11q1 0 5 4q3 0 4 1q-8 -9 -16.5 -20t-18.5 -25q2 -6 2 -13v-6.5t-1 -7.5q-4 -10 -35 -16q-5 -2 -15 7l-1 2q1 1 9 -5q4 0 4 2t-14 10l1 2q8 5 1 21q-1 1 -3.5 4t-7.5 8
q-7 7 -7 15q0 5 3 5q2 0 5 -2t4 -1q28 25 45 21q8 -2 48 37q55 52 88 84t44 44q15 18 26 39q2 5 11 16q6 7 6 13q0 3 -3.5 6.5t-3.5 4.5q0 8 16 12q11 4 21 4q7 0 10 -3zM305 732q0 -2 1 -3l3 3q2 2 -2 2zM314 737q3 1 7 7q-5 -2 -7 -7zM329 750q-2 2 -3 2h-1l-1 -2
q2 -2 5 -1v1zM348 769q7 0 7 5q0 1 -2 1q-6 0 -6 -6h1v0z" />
    <glyph glyph-name="agrave" unicode="&#xe0;" horiz-adv-x="434" 
d="M292 258q2 0 11 -11q8 -10 16 -8q19 6 27 20q9 18 14 23q4 4 24 15q12 7 12 15q0 1 -5 29q-3 15 -13 22q-7 5 -17 10.5t-24 11.5t-30 6q-19 0 -110 -38q-54 -23 -122 -112q-13 -10 -43 -75q-20 -42 -21 -81q1 8 1 -6v-52q0 -30 18 -42q0 5 1 6q-3 4 -3 7q0 1 1 1t5.5 -3
t10 -7t10.5 -7.5t8 -3.5q88 27 89 27q3 0 -4 -5v-3l3 1q2 0 31 21q41 29 54 29q2 0 5 -15q5 -19 14 -31q26 -32 46 -37q10 -2 18 -2q45 0 56 15q1 1 -6 2q-3 0 -8.5 -2t-9.5 -1q-5 0 -7 2q0 1 3 3q14 3 25.5 4.5t21.5 2.5v5q-2 -2 -6 -3q-9 -5 -18 0l3 1l8 1q4 0 6 3.5
t4 3.5l36 6q6 5 8 12q56 68 56 76q0 1 -1 2q-4 0 -35 -24q-17 -14 -29 -22.5t-18 -12.5q-15 -9 -28 -9q-15 0 -21 7q-2 2 -4.5 7.5t-6.5 14.5q-14 31 -14 74q0 64 -1 60q-12 8 -28 11t-19 7q-29 18 -37 18q-15 0 -15 -29v-43q-14 -52 -30 -71q-20 -26 -70 -49q-20 -9 -43 -9
q-24 0 -24 25q0 24 14 61q13 32 29 52q70 87 145 92zM93 -26v2l-1 1h-2l-1 -1v-1l1 -1h2h1zM476 415q-21 -4 -29 7q-2 5 -17 16q-4 2 -6 4l-4 4t-4 3q5 -1 11 -5l-44 16q-27 10 -53 17.5t-52 14.5q-24 7 -62 16t-92 22q-22 5 -24 5q-13 -13 -48 -4q-1 0 -3 -4t-4 -4t-3 3
q-2 10 -2 15q0 12 4 17q-1 15 -11 17h-2q0 1 2 3q6 7 6 11q0 1 -2 1q-2 3 -4 -2t-5 -6v1q4 12 10 13q30 8 24 8q7 0 12 -4q11 -16 11 -23q15 -7 27.5 -11.5t23.5 -8.5q-1 -1 -4 -1q-4 0 -6 1q0 -2 5 -4.5t6 -1.5q2 2 2 5q6 -2 10 -4q0 -1 -4 0l-2 -2q2 -2 5 -2t4 1
q-2 2 -2 3l1 1l45 -10l2 -2q-1 0 -2 -1q-4 -1 -3 -2h5q10 0 8 2l33 -7l9 -3q2 -8 6 -8q2 0 3 1q-2 6 -9 7q3 3 13 -4q26 -8 46 -14.5t33 -10.5q35 -11 55.5 -17.5t26.5 -8.5q39 -11 45 -9q18 2 29 -4q15 -8 15 -25t-17 -19zM161 544l2 2q-1 0 -2 1h-2q-1 0 -1 1q-1 0 -1 -1
q1 -3 4 -3zM169 545q0 -3 5 -3h5l-2 2t-3 2q-3 1 -5 -1zM187 542q-3 -2 -3 -3l1 -1h1q1 1 1 1.5t1 1.5zM212 536q1 -3 7 -3q-1 1 -7 3zM430 444v-2l-1 -1h-1v1q1 1 1 3z" />
    <glyph glyph-name="aacute" unicode="&#xe1;" horiz-adv-x="434" 
d="M255 256q-40 -1 -91 -29q-53 -28 -91 -75q-4 -15 -21 -55q-10 -24 -10 -62q0 -21 26 -21q21 0 66 21q41 20 71 57q5 8 5 18v20q1 5 1.5 9.5t2.5 9.5v43q0 29 15 29q37 0 57 -12q5 -7 15 -16.5t25 -20.5q-3 -14 -3 -33q0 -45 13 -74q16 -37 44 -37q13 0 28 9q6 4 18 12.5
t29 22.5q31 24 35 24q1 -1 1 -2q0 -8 -56 -76q-2 -7 -8 -12l-36 -6q-2 0 -4 -3.5t-6 -3.5l-8 -1l-3 -1q9 -5 18 0q4 1 6 3v-5q-10 -1 -21.5 -2.5t-25.5 -4.5q-3 -2 -3 -3q2 -2 7 -2q4 -1 9.5 1t8.5 2q7 -1 6 -2q-11 -15 -56 -15q-8 0 -18 2q-20 5 -46 37q-5 10 -11 20
t-14 20q-16 0 -48 -23q-29 -21 -31 -21l-3 -1v3q7 5 4 5q-48 -17 -102 -33q-3 0 -8 3.5l-10 7t-9.5 6.5t-6.5 3q-1 0 -1 -1q1 -1 3 -7q-1 -1 -1 -5q-18 10 -18 42q0 75 21 138t50 101q50 68 142 106q57 25 95 25q16 0 30 -6t24 -11.5t17 -10.5q10 -7 13 -22q5 -28 5 -29
q0 -8 -12 -15q-9 -5 -13 -15q-1 -2 -2 -4.5t-2 -5.5q-3 -2 -14 -22q-2 -6 -13 -7.5t-21 -3.5q-8 -2 -16 8q-9 11 -11 11zM79 -33h-2l-1 2v1l1 1h2l1 -1v-2zM644 846q-1 -1 7 -11q9 -8 9 -10q0 -16 -41 -28q-21 -24 -51 -51q-33 -16 -106 -102q-2 -2 -8 -7.5t-17 -16.5
q-20 -20 -18 -21q-8 -6 -11 -9q2 2 6 8q0 1 -1 1q-2 -1 -4 -10l-6 -7l-27 -24q-1 1 -2 1t-7 -2q-2 -1 -6 -5h7l1 -2l-37 -33v4q-1 2 -4.5 -1t-3.5 -5v-1q6 0 6 2q3 -3 -6 -7q-1 0 -2 1.5t-2 1.5q-5 -5 -9 -12q1 0 6 5q3 0 4 1q-17 -20 -36 -45q2 -6 2 -14t-1 -13
q-4 -10 -34 -17q-6 -2 -16 8l-1 2q1 1 6 -2l4 -4q4 0 4 2q0 3 -15 11l1 2q9 4 1 21q0 1 -10 11q-7 7 -7 16q0 4 3 4q1 0 4.5 -1.5t4.5 -0.5q27 25 45 21q7 -2 48 36q31 29 70 65.5t88 81.5q45 41 53 56q11 12 24.5 26t28.5 31q17 23 17 35l-1 1q-1 1 -3 5q-1 1 -1.5 2
t-1.5 2q0 6 13 12q6 2 13 2t10 -4zM335 529q1 -1 1 -4q2 2 3 4q2 2 -2 2zM345 534q4 1 7 6q-6 -2 -7 -6zM359 546q0 2 -2 2h-1l-1 -2q2 -3 4 -1v1zM379 565q6 0 6 6h-1q-6 0 -6 -5q0 -1 1 -1z" />
    <glyph glyph-name="acircumflex" unicode="&#xe2;" horiz-adv-x="414" 
d="M265 267q-5 1 -10.5 1.5t-10.5 0.5q-66 0 -139 -90q-36 -44 -57 -96q-12 -29 -12 -46q0 -25 24 -25q34 0 66 23q10 5 23.5 15.5t32.5 26.5q34 34 49 87q2 9 3.5 21.5t3.5 29.5q2 29 15 29q8 0 37 -18q2 -4 26 -28q-4 -17 -4 -48q0 -72 9 -91q16 -37 44 -37q14 0 28 9
q6 4 18 12.5t29 22.5q39 30 50 30q1 -1 1 -2q0 -8 -56 -76q-2 -7 -8 -12l-36 -6q-2 0 -4 -3.5t-6 -3.5l-8 -1l-3 -1q9 -5 18 0q4 1 6 3v-5q-10 -1 -21.5 -2.5t-25.5 -4.5q-3 -2 -3 -3q2 -2 7 -2q4 -1 9.5 1t8.5 2q7 -1 6 -2q-3 -5 -10 -6h-18q-9 1 -15.5 1h-10.5q-8 0 -18 2
q-20 4 -46 36q-5 12 -12.5 24t-15.5 24q-6 0 -16 -9q-7 -8 -11.5 -13t-7.5 -7q-44 -32 -43 -32l-3 -1v3q7 5 4 5q-48 -17 -102 -33q-3 0 -8 3.5l-10 7t-9.5 6.5t-6.5 3q-1 0 -1 -1q1 -1 3 -7q-1 -1 -1 -5q-18 10 -18 42q0 54 45 152q39 85 58 101q39 51 90 82q59 35 115 35
q16 0 30 -6t24 -11.5t17 -10.5q10 -7 13 -22q5 -28 5 -29q0 -8 -12 -15q-4 -2 -9 -4t-11 -4q-4 -2 -11 -14l-10 -20q-7 -12 -16 -16q-3 -1 -7.5 1.5t-8.5 6.5t-7 7.5t-4 3.5zM79 -33h-2l-1 2v1l1 1h2l1 -1v-2zM127 369q-5 -5 -19 -3q-15 1 -35 8q-26 9 -25 21q5 65 98 121
q85 52 169 52q114 0 166 -91q4 -7 9 -16.5t13 -22.5q13 -25 13 -41q0 -33 -13 -32q-5 0 -10.5 9t-8.5 11l-7 -4q-6 -3 -10 -2q-9 0 -10 42q-2 36 -15 54q-40 58 -127 63q-63 5 -115 -19q-61 -27 -85 -79q-10 -25 -6 -31q1 -1 2 -1q1 -1 2 6t3 7q1 0 3 -2q4 -12 8 -13
q2 0 2 4v10q1 1 3 0v-14q0 -3 3.5 -11t2.5 -12q0 -6 -3 -7z" />
    <glyph glyph-name="atilde" unicode="&#xe3;" horiz-adv-x="434" 
d="M249 262q-5 1 -10.5 1h-10.5q-74 0 -133 -71q-13 -16 -27 -50.5t-14 -97.5q0 -25 24 -25q23 0 56 16q22 10 36.5 20t22.5 20q16 21 30 72v43q2 29 15 29q32 0 48 -10q3 -4 16 -10q8 -4 14.5 -7.5t11.5 -7.5q-2 -12 -3.5 -23t-1.5 -22q0 -45 13 -74q16 -37 44 -37
q13 0 28 9q6 4 18 12.5t29 22.5q31 24 35 24q1 -1 1 -2q0 -8 -56 -76q-2 -7 -8 -12l-36 -6q-2 0 -4 -3.5t-6 -3.5l-8 -1l-3 -1q9 -5 18 0q4 1 6 3v-5q-10 -1 -21.5 -2.5t-25.5 -4.5q-3 -2 -3 -3q2 -2 7 -2q4 -1 9.5 1t8.5 2q7 -1 6 -2q-11 -15 -56 -15q-8 0 -18 2
q-17 4 -46 38q-27 32 -34 32q-15 1 -39 -16q-29 -21 -31 -21l-3 -1v3q7 5 4 5q-48 -17 -102 -33q-3 0 -8 3.5l-10 7t-9.5 6.5t-6.5 3q-1 0 -1 -1q1 -1 3 -7q-1 -1 -1 -5q-18 10 -18 42q0 95 31 161q39 83 57 98q38 50 125 86q42 18 87 18q16 0 30 -6t24 -11.5t17 -10.5
q11 -8 13 -22q5 -28 5 -29q0 -8 -12 -15q-18 -10 -24 -16l-1.5 -4.5t-5 -10.5t-10 -11.5t-16.5 -8.5q-8 -2 -16 8q-9 11 -11 11zM79 -33h-2l-1 2v1l1 1h2l1 -1v-2zM11 503q5 -1 9.5 -1h9.5q9 0 22.5 1.5l31.5 3.5q37 6 56 6q53 0 151 -27q54 -15 91.5 -24t60.5 -13
q10 -1 41 9q30 10 46 10q35 0 35 -24q0 -13 -11.5 -21t-25.5 -7q-14 -1 -33.5 -0.5t-42.5 2.5l-46 14q-3 0 -3 2h8l-3 2h-4l-5 2l-70 15q-15 0 -42 3q-32 10 -96 21h-54q-19 0 -43 -10q-30 -11 -41 -11q-19 0 -31 19q-21 14 -18 20q5 10 7 8zM398 435q-5 0 -5 1t1 1
q3 -1 5 -1zM419 436q-1 0 4 4q3 2 4 1q-5 0 -8 -1q-12 5 -16 5q-1 0 -1 -3t2 -3zM392 447q-1 1 -6 1q-1 -1 -1 -2q5 0 7 1zM374 446q4 1 10 3q-4 1 -7.5 1h-5.5q-7 0 -10 -1zM536 449q4 0 4 1t-2 1q-1 0 -2 -1t0 -1zM327 462l-1 -1q0 -1 1 -1h13v1z" />
    <glyph glyph-name="ccedilla" unicode="&#xe7;" horiz-adv-x="844" 
d="M832 50q0 -15 -18 -31q-8 -6 -15.5 -12t-15.5 -11q-8 -6 -36 -9q-10 -1 -20 -10l-25 -39q-24 -23 -71 -86q-1 -2 -5 -5t-11 -8q-14 -11 -17 -11q-2 2 -2 3q0 -4 15 25q10 19 49 107q42 94 40 103q-6 32 -9 31q-27 -6 -98 -51q-23 -15 -44 -15q-47 0 -78 58q-2 3 -9 18
t-20 43q-5 -9 -20 -22q-4 -4 -7 -7.5t-7 -7.5q-5 -5 -12.5 -11l-17.5 -14q-36 -42 -62 -58q0 -2 2 -4l27 14q2 -2 2 -3q-80 -62 -160 -62q-78 0 -130 54q-52 53 -52 131q0 68 47 132q64 87 141 120q4 4 24 12q25 9 33 12q38 2 71 -29q29 -26 37 -57q-2 -9 -6 -18.5
t-11 -20.5t-10 -17l-4 -8q-1 -4 2 -12.5t3 -12.5q0 -16 -17 -16q-16 0 -62 15q-45 16 -71 16q-51 0 -87 -44q-34 -41 -34 -94q0 -50 38 -83q36 -30 87 -30q32 0 59 10q43 16 136 98q7 7 17 22t23 39q4 5 7 10t5 10q13 24 16 48l18 137q3 18 7.5 50.5t11.5 80.5q9 92 18 133
q15 70 46 122q11 17 25 17q20 0 35 -22q16 -22 16 -42v-142q-3 -81 -26 -139q-1 -4 -6 -2q-5 3 -2 10q1 1 1 4q0 4 -7 4q-6 0 -7 -1q-1 -6 -3 -16.5t-4 -24.5q-3 -13 -2 -13q7 -4 12 10q1 2 2.5 6.5t3.5 9.5q1 -5 7 -11l2 1v3q0 7 3 7q1 0 1 -2q6 -11 6 -27q0 -47 -46 -130
q-4 -6 -12.5 -20.5t-21.5 -37.5q-4 -11 -1 -46q3 -33 9 -45l4 -8q13 -25 21 -25q6 0 27 7q24 7 72 24q45 14 73 14q67 0 93 -69q7 -17 7 -29zM593 -187q1 -1 -1 -6t-5 -2q-5 3 0 6q4 4 6 2zM595 480q-2 2 -4 2l-2 -2l-1 -3q1 -3 2 -3q5 0 5 6zM562 538q5 44 0 98
q-3 33 -8 28q-5 -2 -14 -42q-2 -8 -4.5 -20t-6.5 -28l-20 -77q2 -2 5 -2l6 15q4 12 11 12q4 0 3 -10l-11 -134q-2 -12 -6 -32q-2 -11 1 -11q7 -1 31 92l13 111v0z" />
    <glyph glyph-name="egrave" unicode="&#xe8;" horiz-adv-x="401" 
d="M187 140l1 4q1 1 1.5 1t1.5 1q1 0 1 -5.5t3 -4.5l39 23q11 6 19.5 10.5t13.5 6.5q21 21 25 23q36 15 36 30q0 4 -3 12q-10 36 -17 62t-11 42q-21 65 -71 65q-24 0 -50 -22q-172 -138 -172 -270q0 -72 52 -115q44 -37 128 -37t168 34q4 1 3 6.5t1 6.5q33 11 49 15
q17 29 62 53q18 10 20 12q-3 4 -25 -9q-56 -32 -91 -40q-31 -12 -49 -20q-12 -5 -51 -9q-32 -4 -49.5 -5t-22.5 0q-20 4 -37.5 9.5t-31.5 12.5q-11 6 -20.5 22.5t-9.5 29.5t10 17zM267 251q8 -2 3 -7l-91 -71q-46 -37 -67 -37q-11 0 -11 11q0 29 44 71q40 40 89 40
q18 0 33 -7zM496 406q-2 0 -6.5 0.5t-12.5 1.5q-9 2 -11 5q-18 15 -32 20q-22 11 -72.5 27t-129.5 37q-25 7 -65 17t-96 23q-26 6 -31 6q-8 -6 -52 4q-1 0 -3 -4t-4 -4q-3 0 -4 3q-2 11 2 16q2 3 7 8q-2 7 -3 9h-6h-2l2 4q7 7 7 11q0 2 -3 2q-1 3 -3.5 -2.5t-4.5 -6.5v1
q3 12 9 14q16 4 22 6t4 2q6 0 13 -4q11 -17 11 -24q18 -5 31 -8.5t21 -4.5q-2 -1 -5 -1q-4 0 -6 1q0 -2 5 -4.5t7 -1.5q2 4 2 5q6 -2 10 -4h-1h-3l-2 -2q2 -2 5 -2t4 1q-2 2 -2 3t1 1l48 -10q1 -1 1 -2l-1 -1l-5 -2h1q2 -1 6 -1q8 0 7 3l36 -8l9 -3q3 -8 6 -8q2 0 3 1
q-4 6 -9 7q3 3 14 -4q28 -9 48.5 -15.5t34.5 -10.5q51 -16 84.5 -27t52.5 -18q40 -11 48 -9q16 3 30 -5q16 -9 16 -25q0 -26 -18 -21zM110 552q1 1 1 2q0 2 -5 2l-1 -1q1 -3 5 -3zM118 553q0 -3 5 -3h5l-2 2t-3 2q-3 1 -5 -1zM137 550q-2 -1 -4 -3l1 -1h2q1 1 1 1.5t1 1.5z
M164 543q1 -3 7 -3q-1 1 -7 3zM444 430v-2l-3 -1h-1v1l3 3z" />
    <glyph glyph-name="eacute" unicode="&#xe9;" horiz-adv-x="401" 
d="M110 101q-10 -4 -10 -17t9.5 -29.5t20.5 -22.5q28 -14 76 -14q12 0 30 1.5l42 3.5q39 4 51 9q16 6 42 12q35 8 91 40q22 13 25 9q-2 -2 -20 -12q-45 -24 -62 -53q-5 -1 -16 -1q-8 -2 -13 -4q-3 -1 -1.5 -6.5t-2.5 -6.5q-98 -39 -171 -39q-105 0 -145 32q-52 43 -52 115
q0 76 36 151q40 85 124 154q7 5 17 5q11 0 38 -8t31 -8q21 0 44 -24q26 -26 38 -62q0 -1 1.5 -10t3.5 -27q1 -3 2 -7.5t3 -10.5q2 -3 -3 -29q-2 -8 -2.5 -12.5t-1.5 -8.5t-1 -7q0 -12 -12 -18q-8 -11 -24 -24q-7 1 -25 -11q-10 -10 -33 -17l-55 -18q-2 -1 -3 0.5t-1 3.5
q-1 2 0 5q-1 -1 -1.5 -1t-1.5 -1l-1 -4zM240 283q-5 8 -10 8q-46 0 -107 -60q-37 -36 -37 -81q0 -11 11 -11q18 0 68 37l80 58q3 1 6 19q3 16 -2 18q-5 1 -9 12zM587 894l1 -1q16 -7 16 -14q0 -15 -56 -32q-5 -5 -13.5 -15.5t-22.5 -25.5q-26 -12 -111 -112q-5 -8 -21 -27
q-20 -20 -19 -21q-3 -3 -11 -9q5 5 7 8q0 1 -1 1q-3 -2 -5 -10l-6 -7l-27 -24q-1 1 -2 1t-7 -2q-3 -3 -5 -4h6l1 -2l-37 -34v4q-1 2 -4.5 -1t-3.5 -4t1 -1q5 0 5 2q3 -3 -6 -8q-1 0 -2 1.5t-2 1.5q-6 -6 -8 -11q0 -1 5 4q3 0 4 1q-8 -9 -16.5 -20t-18.5 -25q1 -2 -4 -6.5
t-6 -12.5q-5 -10 -15 -11q-3 -1 -4.5 -7t-4.5 -7q-5 -2 -15 8l-1 2q1 1 5 -2l4 -3q4 0 4 2t-14 10l1 2q8 5 1 21l-3.5 3.5l-7.5 7.5q-7 7 -7 16q0 5 3 5q1 0 4.5 -2t4.5 -1q28 25 45 21q7 -2 48 36q117 112 180 177.5t73 85.5q1 2 11 16q6 7 6 13q0 2 -3.5 6t-3.5 5
q0 6 15 11t22 5t10 -3zM278 576q0 -2 1 -3l3 3q2 2 -2 2zM287 581q3 1 7 7q-5 -2 -7 -7zM302 593q-2 2 -3 2h-1l-1 -2q2 -2 5 -1v1zM321 613q7 0 7 5h-2q-6 0 -6 -5h1v0z" />
    <glyph glyph-name="ecircumflex" unicode="&#xea;" horiz-adv-x="380" 
d="M85 101q-9 -5 -9 -17q0 -13 9 -29.5t20 -22.5q30 -14 76 -14q12 0 30 1.5t43 3.5q37 4 51 9q18 7 41 12q37 8 91 40q23 14 25 9q-2 -2 -20 -12q-44 -23 -61 -53q-3 -5 -33 -18q-3 -1 -2 -6.5t-3 -6.5q-90 -37 -171 -37q-43 0 -67 9q-10 4 -22 12t-26 19q-52 43 -52 114
q0 72 33 131q38 65 122 133q26 22 50 22q42 0 66 -76q5 -14 12.5 -38.5t18.5 -59.5q2 -10 2 -12q0 -15 -35 -30q-8 -5 -25 -23q-12 -12 -34 -17l-44 -8q-3 -1 -3.5 4.5t-1.5 5.5q-1 -1 -1.5 -1t-1.5 -1l-1 -4zM238 262q-14 7 -33 7q-51 0 -100 -48q-44 -42 -44 -71
q0 -11 12 -11q21 0 67 37l101 79q6 4 -3 7zM67 376q-5 -5 -18 -3q-20 2 -36 7q-26 8 -25 20q5 76 109 131q94 51 175 46q97 -4 147 -88q4 -6 9.5 -15.5t13.5 -22.5q14 -25 14 -41q2 -32 -13 -32q-5 0 -10.5 9t-9.5 10l-6 -3q-6 -3 -10 -3q-8 0 -11 42q-1 35 -16 54
q-42 56 -128 61q-62 5 -115 -21q-61 -29 -83 -81q-10 -23 -5 -31l2 -2q0 8 4 15q3 -2 3 -3q4 -12 9 -12q2 0 2 4v10q1 1 3 0v-15q0 -2 3.5 -10t2.5 -13q0 -5 -3 -6z" />
    <glyph glyph-name="igrave" unicode="&#xec;" horiz-adv-x="293" 
d="M54 204q-4 -2 -2 -12q3 -18 2 -33q0 1 2 1t2 -2l12 -47q12 -51 46 -82q34 -29 84 -29q27 0 48 12q16 7 27 11t18 6q24 11 39 23l50 42q-1 4 -4 4l-18 -14q-20 -15 -24 -15q-3 0 -4.5 3t-1.5 6q0 4 1 6q-5 2 -11 -7q-4 -5 -6.5 -7t-3.5 -3q-27 -13 -65 -13q-25 0 -49 11
q-22 10 -22 54q0 65 7 97q15 70 13 75q-7 17 -28 27q-11 2 -19 2.5t-13 -0.5q-5 1 -26 11q-9 4 -32 4q-21 0 -21 -17q-7 -10 -7 -29q0 -6 2 -16q4 -20 -3 -54q-5 -9 3 -9q1 0 2 1l1 3q3 -2 2 -5zM203 413q1 14 -25 50q-32 42 -58 42q-16 0 -26 -12q-14 -14 -14 -35
q0 -31 6 -56q3 0 6 4q13 -12 21 -21q3 -3 3 -16t4 -18q1 0 7 5.5t26 5.5q3 0 4.5 -4.5t3.5 -4.5q40 40 42 60zM411 474q-22 -4 -30 8q-11 18 -28 26q-42 21 -201 64l-128 30q-39 10 -60 15q-13 -13 -50 -4q-1 0 -3 -4t-4 -4q-3 0 -4 3q-1 5 -1 15q0 12 3 18q-1 16 -11 18h-2
l2 4q7 7 7 11q-2 2 -3 2q-1 3 -3 -2.5t-6 -6.5v1q4 13 10 14q16 4 22 6t4 2q7 0 12 -4q12 -17 12 -24q27 -11 49 -19t39 -13q-1 -1 -5 -1t-6 1q0 -2 5.5 -4.5t6.5 -1.5q2 4 2 5q6 -2 10 -4h-1h-3l-2 -2q2 -2 5 -2t4 1q-2 2 -2 3v1l49 -10l1 -1q0 -1 -1 -1l-5 -2h1q4 -2 6 -2
q9 0 8 4l35 -9l9 -3q2 -8 6 -8q3 0 4 1q-4 6 -10 7q3 4 14 -4q19 -7 31.5 -10.5t17.5 -5.5q51 -16 84.5 -27t52.5 -18q40 -11 48 -9q17 3 31.5 -5.5t14.5 -24.5q0 -18 -18 -21zM63 617q1 1 1 2q0 2 -4 2q-1 0 -1 -1q1 -3 4 -3zM71 618q0 -3 5 -3h5l-2 2t-3 2q-3 1 -5 -1z
M90 615q-3 0 -3 -2l1 -1h1q1 1 1 1.5t1 1.5h-1zM117 608q1 -3 7 -3q-1 1 -7 3zM362 506q1 -1 1 -3q-1 -1 -3 -1v1q1 1 1 1.5t1 1.5z" />
    <glyph glyph-name="iacute" unicode="&#xed;" horiz-adv-x="293" 
d="M28 197q1 3 -2 5v-3q-1 -1 -2 -1q-8 0 -3 8q6 34 -1 67q-2 6 -2 11q0 23 14 46q0 17 20 17q27 0 56 -17q17 -7 26.5 -11t11.5 -5q20 -10 28 -27q2 -5 -13 -71q-7 -32 -10 -56.5t-3 -40.5q0 -38 20 -53q18 -12 58 -12q37 0 64 13q3 1 10 10q7 8 11 7q-1 -2 -1 -6
q0 -3 1.5 -6t4.5 -3q4 0 24 15l19 14q2 0 3 -4l-37 -41q-10 -13 -71 -25q-14 -3 -41 -17q-7 -4 -34 -6q-11 -1 -18 -0.5t-11 1.5q-26 6 -27 6q-7 3 -15.5 9.5t-19.5 16.5q-20 18 -38 53l-17 32q-1 0 -5 29q-1 3 -1 14l1 31v0zM183 413q-2 -20 -42 -60q-1 0 -3 4.5t-5 4.5
q-4 0 -10.5 -6t-7.5 -6q-3 5 -3.5 18t-3.5 16q-6 9 -21 21q-3 -4 -6 -4q-9 43 -9 74q0 48 25 48q12 0 20 -5q0 5 4 5q1 0 4 -2t4 -1q28 25 46 21q7 -1 47 37q117 112 180 177t73 85q2 2 4.5 6t7.5 10q5 8 5 13q0 3 -3 6.5t-3 4.5q0 7 15 12q11 4 21 4q8 0 11 -3l10 -12
q6 -8 18 -15q8 -8 8 -10q0 -9 -51 -24q-23 -24 -51 -51q-33 -17 -106 -102q-3 -5 -24 -24q-21 -20 -20 -21l-10 -10l6 9q0 1 -1 1q-2 -1 -4 -11l-6 -7l-27 -24q-1 1 -3 1q-1 0 -7 -2q-3 -3 -5 -4h6l1 -2l-36 -33v4q-1 1 -5 -1.5t-4 -4.5l1 -1q6 0 6 2q2 -4 -7 -8q-1 0 -2 1
l-2 2q-6 -6 -8 -11q1 0 5 4q3 0 4 1q-8 -9 -16.5 -20t-18.5 -25q-2 -2 -3 -10.5t-9 -22.5q-2 -2 -3 -4q15 -26 14 -45zM234 563q0 -2 1 -3l3 3q2 2 -2 2zM243 568q2 1 4 3l4 4q-6 -2 -8 -7zM258 581l-2 2h-1l-1 -2q2 -3 4 -1v1zM278 600q6 0 6 5q-1 1 -2 1q-5 0 -5 -6h1v0z
" />
    <glyph glyph-name="ntilde" unicode="&#xf1;" horiz-adv-x="922" 
d="M662 83q0 -4 -12 -2q-12 1 -13 5q7 7 12 6q1 -3 10 -8l3 -1v0zM965 77q0 -4 -9 -7q-13 -5 -14 -6q-7 -3 -17.5 -8.5t-24.5 -13.5l-28 -18q2 -50 3 -136q-4 -69 -44 -153l-53 -112q-1 0 -3 2l7 29q-2 2 -4 2l-34 -61q-29 -56 -59 -56q-17 0 -21 7q-6 6 -16 33
q-22 51 -22 123q0 46 11 88q27 99 71 139q32 37 94 81l1 5q-14 89 -31 89q-15 0 -64 -49q-42 -42 -64 -53l-19 -8l-2 -2q0 -2 1 -3q1 -4 4 -3l31 5q2 0 4 -3q0 -3 -3 -4l-35 -4q-4 0 -19 4l-21 5q-4 1 -9 1q-2 0 -2 -1t6 -1.5t6 -2.5h-6q-7 0 -7 -2q3 -6 22 -13q15 -6 10 -8
q-3 -1 -9 -1q-10 0 -19 12q-4 5 -7 10.5t-6 10.5q-19 22 -23 70q0 1 1 6t1.5 10t1.5 9.5t1 5.5q-5 -10 -16.5 -23.5t-28.5 -32.5l-15 -12t-7 -5q-12 -7 -26 -9q-22 -2 -44 11q-6 3 -37 31q-2 2 -7 8t-12 16q-9 12 -28 23q-6 3 -14 3q-28 0 -62 -36q-8 -9 -15.5 -18
t-14.5 -19q-6 -8 -12 -15.5t-12 -15.5q-17 -24 -27 -25q-32 -8 -53 0q-34 35 -37 49q-6 13 -16 34.5t-24 51.5q-6 12 -15 33t-20 50v5q0 7 9 19q9 14 8 15q22 10 45 17q5 -1 13 -2.5t21 -5.5q21 -6 28 -6q14 0 40 -14q23 -15 26 -19q2 -7 7 -20.5t13 -35.5q10 -26 11 -25
q10 12 39 33q25 13 45 13t37 -11l33 -24q10 -7 23.5 -25t26.5 -25q8 -6 16.5 -11.5t22.5 -5.5q2 -1 7 -1q9 0 23 11q8 8 17 15t17 15q8 10 17.5 21t20.5 24q8 21 39 62q21 29 49.5 59.5t65.5 61.5q4 4 21 39q13 30 25 31q13 1 23 -13q12 -20 16 -21q8 -5 18.5 -14.5
t23.5 -22.5q32 -34 32 -52q0 -25 -35 -25q-4 0 -11 1t-15 2.5t-15.5 3t-11.5 1.5q-12 0 -20 -4q-36 -15 -99 -90q-70 -82 -70 -127q0 -8 3 -15q2 -2 8 -1q44 17 76 43q39 31 48 68q2 25 3.5 37t1.5 13q7 25 38 25q7 0 27 -3q21 -3 39 -76q4 -17 8.5 -39.5t11.5 -48.5
q7 4 19 10t29 15q7 4 16.5 8t22.5 9q9 1 9 -11zM593 140q-8 3 -8 -11l3 -3q5 2 5 12v2v0zM584 122q0 3 -1 4q-3 -3 -5 -7l-9 -19.5t-4 -8.5q0 -5 5 -3q14 5 14 34zM609 83q0 3 -4 3q-3 1 -5 -2l-9 -18v-2q0 -3 3 -4q1 -1 3 -1t3 1l1 2q8 18 8 21zM569 81q-2 5 -5 5
q-1 0 -2 -9q-1 -10 2 -10q8 0 5 14zM600 54q-6 2 -10 3q-2 0 -3 -16q0 -7 2 -9q4 0 11 22zM567 61q-1 1 -3 1q-5 0 -5 -3q0 -1 5 -3q3 1 3 5zM807 -20q-2 3 -7 3l-45 -45q-32 -34 -49 -64q-26 -50 -36 -116q-8 -48 -3 -92q1 -11 1.5 -15.5t0.5 -2.5q-1 -6 11 -26
q13 -20 13 -22q4 -6 8 -6q2 0 3 1q15 19 56 129q8 20 16 41t16 41q10 27 10 42l5 132v0z" />
    <glyph glyph-name="ograve" unicode="&#xf2;" horiz-adv-x="374" 
d="M331 307q31 0 31 27q0 34 -38 63q-41 30 -58 30q-5 0 -6 -1q-84 -30 -165 -108q-69 -66 -87 -180q-3 -17 -3 -33q0 -57 27 -94q45 -61 107 -61q67 0 152 100q68 80 68 162q0 57 -50 78q-12 5 -23 5q-37 0 -94 -24q-11 -5 -19.5 -9t-14.5 -8q-8 -6 -10 -4q-3 2 13 15
q52 45 117 45h14.5t11.5 -1q10 -1 16.5 -1.5t10.5 -0.5zM143 229q37 19 53 24q10 3 50 3q24 0 38.5 -23.5t12.5 -51.5q-1 -53 -27 -100q-8 -16 -20.5 -31t-28.5 -31q-49 -49 -84 -49q-15 0 -31 6q-50 20 -50 92q0 48 23 92q24 47 64 69zM478 432q-22 -4 -30 8q-11 18 -28 26
q-11 5 -20.5 9.5t-19.5 7.5q-6 2 -30 8t-66 17q-26 7 -66 17t-96 23q-23 5 -26 5q-13 -13 -50 -4q-1 0 -3 -4t-4 -4q-3 0 -4 3q-1 5 -1 8.5v7.5q0 11 3 17q-1 16 -11 18h-2l2 4q7 7 7 11q0 2 -3 2q-2 3 -4 -2.5t-5 -6.5v1q4 13 10 14q16 4 22 6t4 2q7 0 12 -4q12 -17 12 -24
q16 -7 29.5 -12.5t24.5 -9.5q-1 -1 -5 -1q-3 0 -6 1q0 -2 5.5 -4.5t6.5 -1.5q2 4 2 5q6 -2 10 -4h-1h-3l-2 -2q2 -2 5 -2q4 0 4 1q-1 1 -1 1.5t-1 1.5l1 1l48 -9l2 -2l-2 -2q-4 0 -4 -1v-1q2 -1 6 -1q9 0 8 3l35 -8l9 -3q3 -8 7 -8q2 0 3 1q-4 6 -10 7q3 3 14 -4
q28 -9 48.5 -15.5t34.5 -10.5q34 -11 52 -16.5t20 -6.5q40 -11 48 -9q18 2 30 -5q16 -7 16 -25t-18 -21zM161 564q1 0 2 1q-2 2 -5 2q-1 0 -1 -1q2 -2 4 -2zM169 564q0 -2 5 -2h5q-2 2 -5 3t-5 -1zM188 562q-3 -2 -3 -4l1 -1h1q1 1 1 1.5t1 1.5zM215 554q1 -3 7 -3
q-1 1 -7 3zM430 463v-2l-2 -1h-1v1q1 1 1 1.5t1 1.5z" />
    <glyph glyph-name="oacute" unicode="&#xf3;" horiz-adv-x="374" 
d="M339 305q-10 0 -30.5 2.5t-30.5 2.5q-65 0 -117 -45q-16 -13 -13 -15q2 -2 10 4q6 4 14.5 8t19.5 9q57 24 94 24q18 0 32 -6q50 -21 50 -78q0 -73 -75 -160q-76 -91 -148 -91q-55 0 -110 76q-35 49 -35 101q0 89 95 181q81 78 165 108q1 1 6 1q17 0 58 -30q47 -35 47 -64
q0 -28 -32 -28zM129 213q-65 -26 -65 -103q0 -76 54 -104q17 -10 36 -10q45 0 94 55q13 14 33 52q24 44 22 57q-16 91 -65 91q-13 0 -34 -8zM660 889q3 -4 7.5 -7.5t9.5 -8.5q9 -6 9 -9q0 -9 -51 -24q-23 -24 -51 -51q-32 -16 -106 -102l-8 -8t-17 -16q-21 -21 -19 -22
q-3 -3 -11 -9q4 6 7 9h-1q-4 -2 -5 -10l-6 -7l-28 -24q0 1 -2 1l-6 -2l-5 -5h6l1 -2l-37 -32v4q-1 0 -5 -2t-4 -4l1 -1q6 0 6 2q3 -4 -7 -8q-1 0 -2 1l-2 2q-4 -4 -7 -12l5 5q2 0 3 1q-8 -9 -16 -20t-18 -25q2 -6 2 -14v-5.5t-1 -7.5q-4 -10 -35 -16q-6 -2 -15 6l-1 3
q2 2 5 -3l3 -3q5 0 5 2t-3.5 -0.5t-4.5 -1.5q0 1 -1 1q-2 0 -3 1l1 2q2 2 -1 9q-2 8 2 12l12 16t13 16q3 4 8 8t13 9q7 8 20.5 22.5t33.5 35.5q213 204 237 252q2 2 4.5 6.5t7.5 10.5q6 7 6 12q0 3 -3.5 7t-3.5 5q0 6 15 11q12 4 22 4q7 0 10 -3zM351 570q0 -2 1 -3l3 3
q1 3 -2 3zM359 576q2 1 4 3l4 4q-6 -2 -8 -7zM375 589q-1 1 -3 1h-1l-1 -1q2 -2 5 -1v1zM394 608q6 0 6 5q0 1 -1 1q-6 0 -6 -6h1v0z" />
    <glyph glyph-name="ocircumflex" unicode="&#xf4;" horiz-adv-x="357" 
d="M339 305q-10 0 -30.5 2.5t-30.5 2.5q-65 0 -117 -45q-16 -13 -13 -15q2 -2 10 4q6 4 14.5 8t19.5 9q57 24 94 24q18 0 32 -6q50 -21 50 -78q0 -73 -75 -160q-76 -91 -148 -91q-55 0 -110 76q-35 49 -35 101q0 89 95 181q81 78 165 108q1 1 6 1q17 0 58 -30q47 -35 47 -64
q0 -28 -32 -28zM127 196q-65 -26 -65 -103q0 -75 54 -105q18 -9 37 -9q43 0 93 54q6 7 14 20t19 32q24 44 22 57q-16 91 -65 91q-16 0 -34 -7zM91 376q-5 -5 -18 -3q-20 2 -36 7q-25 7 -25 20q2 30 27 52q7 6 25 18t47 31q92 60 188 55q99 -6 147 -88q2 -6 6.5 -15t9.5 -22
q3 -4 8 -22q0 -4 0.5 -8.5t1.5 -9.5q1 -4 1 -6.5v-3.5q-2 -3 -5 -3q-6 0 -11.5 9t-8.5 10l-6 -3q-6 -3 -10 -3q-10 0 -11 42q-2 18 -14 33q-43 57 -128 61q-64 3 -117 -23q-13 -6 -25.5 -12t-25.5 -11q-24 -14 -32 -35q-11 -24 -5 -31l2 -2q0 8 4 15l3 -3q4 -12 8 -12
q2 0 3 4l-1 10q1 1 3 0v-15q0 -2 3.5 -10t3.5 -13t-3 -6z" />
    <glyph glyph-name="otilde" unicode="&#xf5;" horiz-adv-x="374" 
d="M312 308q-10 1 -18.5 1.5t-15.5 0.5q-65 0 -117 -45q-16 -13 -13 -15q2 -2 10 4q6 4 14.5 8t19.5 9q44 19 70 19q18 0 32 -6q50 -21 50 -78q0 -94 -53 -156q-77 -90 -146 -90q-55 0 -110 76q-26 37 -26 104q0 95 86 178q78 76 177 111q6 2 9 2q28 0 55 -31q23 -26 23 -64
q0 -28 -32 -28h-15zM135 221q-71 -30 -71 -111q0 -76 54 -104q17 -10 36 -10q45 0 94 55q13 14 33 52q24 44 22 57q-16 91 -65 91q-31 0 -53 -9zM29 548q5 -1 9.5 -1h9.5q18 -1 55 3t55 3q52 -1 150 -32q54 -17 91 -27t60 -14q11 -2 41 7q34 9 46 8q36 -2 35 -25
q0 -13 -12 -20.5t-27 -6.5q-14 0 -33.5 1.5t-42.5 3.5l-45 15q-3 0 -3 2l9 -1q0 2 -4 3l-4 1l-5 2l-69 17q-8 1 -18 2t-24 3q-31 10 -95 24l-54 2q-16 1 -43 -8q-27 -10 -41 -10q-21 2 -31 20q-18 13 -18 18q0 2 1 3q5 9 7 7zM413 466q-4 1 -4 2v1q4 -2 5 -2zM434 467
q-1 0 4 4q3 2 4 1q-4 0 -7 -1q-11 6 -17 6q-1 0 -1 -3t2 -3zM408 479q-1 1 -2 1t-3 1q-2 -2 -1 -2q3 -2 6 0zM389 479q5 1 11 3q-15 1 -22 0zM552 476q4 0 4 1t-1 1zM343 495q-1 0 -1 -1t1 -1h13v1z" />
    <glyph glyph-name="odieresis" unicode="&#xf6;" horiz-adv-x="852" 
d="M688 45q-9 8 -22 16q-14 8 -15 7q-35 -8 -53 -19q-11 -8 -22 -15l-22 -14q-29 -17 -48 -17q-47 0 -78 58q-6 10 -12 37t-9 36q-5 -7 -12 -15t-16 -18l-33 -24q1 -17 0.5 -44t-1.5 -64q-4 -69 -44 -153l-53 -112q-1 0 -3 2l7 29q-2 2 -4 2l-33 -61q-21 -40 -52 -40
q-17 0 -25 5q-9 6 -20 33q-22 51 -22 123q0 47 11 89q22 84 68 124q15 14 39 34t58 47l1 5q-13 88 -31 88q-15 0 -64 -49q-43 -41 -64 -52l-19 -9l-2 -2q0 -1 1 -2q1 -4 4 -3l31 5q2 0 4 -3q0 -3 -3 -4l-35 -4q-4 0 -19 4l-21 5h-8h-3q0 -2 6 -2t6 -2h-6q-7 0 -7 -2
q3 -7 22 -14q13 -6 10 -7t-9 -1q-10 0 -19 11q-3 5 -6 10.5t-7 10.5q-24 28 -24 67q0 64 68 153q50 65 115 121q4 4 21 39q13 28 26 30q14 2 22 -12q14 -20 16 -21q19 -13 42 -37q32 -34 32 -53q0 -24 -34 -24q-9 0 -27 4t-27 4q-11 0 -20 -4q-36 -15 -99 -90
q-70 -82 -70 -127q0 -8 3 -15q1 -3 9 -1q42 15 75 42q40 31 48 69q5 49 6 50q7 25 37 25q7 0 27 -3q11 -1 19 -21q4 -12 7 -24t7 -25q2 -8 5.5 -21.5t7.5 -33.5q6 -26 14 -34q7 1 30 27q12 14 19.5 23t10.5 12v12t1 15l3 39l3 102q0 25 10 65q5 23 8.5 39t4.5 25q4 37 15 84
l8 30l8 30q15 70 46 122q11 17 25 17q19 0 35 -22t16 -42v-142q-3 -81 -26 -139q-1 -4 -6 -2q-6 3 -2 10v4q0 4 -7 4q-5 0 -6 -1q-1 -6 -3 -16.5t-4 -24.5q-3 -13 -2 -13q6 -4 11 10q1 2 3 6.5t4 9.5q1 -5 7 -11l2 1v3q0 7 3 7l1 -2q6 -11 6 -27q0 -45 -47 -130
q-4 -6 -12 -20.5t-21 -37.5q-4 -11 -1 -46q3 -33 9 -45l4 -8q12 -25 21 -25q6 0 27 7q24 7 72 24q44 14 73 14q66 0 93 -69q4 -29 7 -32q2 -4 3 -8t3 -8q8 -14 16 -14q18 -1 26 5q5 5 10 11t10 11l6 6t9 10q11 18 21.5 29.5t14.5 11.5q1 -1 1 -2q0 -2 -1 -3l-14 -11
q-3 -3 -4 -5q4 2 7.5 3.5t7.5 3.5q-1 1 -6 -26q-1 0 0 1q1 2 1 3.5t1 3.5q-1 0 -1 1q-1 -2 -3 -8t-4 -15q-2 -7 -14 -25q-7 -10 -13 -18t-12 -13q-17 -16 -34 -22q-31 -11 -60 1q-17 8 -33 25q-12 13 -20 34q-5 27 -19 44zM552 452q-2 2 -4 2l-2 -2l-1 -3q0 -3 2 -3q5 0 5 6
zM519 510q5 44 0 98q-5 31 -8 28q-5 -2 -14 -42q-2 -8 -4.5 -20t-6.5 -28l-21 -77q4 -2 6 -2l6 15q4 12 10 12q4 0 3 -10l-10 -134q-2 -12 -6 -32q-2 -11 1 -11q7 -1 31 92l13 111v0zM63 221q-8 3 -8 -11q1 -1 1.5 -2t1.5 -2q6 3 6 13q0 1 -1 2zM54 202q0 3 -1 4
q-3 -3 -5 -6q-11 -27 -12 -28q0 -4 4 -3q14 5 14 33zM79 164q0 3 -4 3q-3 1 -5 -2l-8 -18q-1 -1 -1 -2q0 -5 7 -5q1 0 2 1l1 2q8 18 8 21zM39 162q-2 5 -4 5t-3 -10q-2 -9 3 -9q7 0 4 14zM70 135q-6 2 -10 3q-2 0 -3 -16q0 -7 2 -9q4 0 11 22zM37 142q-1 1 -3 1t-3.5 -1.5
l-2.5 -2.5q0 -2 6 -2q3 1 3 5zM278 25q-2 3 -7 3l-39 -42q-27 -30 -43 -60q-27 -52 -37 -116q-2 -14 -2.5 -29t0.5 -30q1 -33 3 -27q-1 -3 0.5 -6t3.5 -6q2 -4 5 -7q4 -6 8 -6q1 0 2 1q15 20 23 32q10 16 18.5 34.5t16.5 38.5q33 91 36 117l12 103v0zM912 93q2 -3 -7 -11
t-13 -5q0 9 4 12q2 0 5 0.5t8 1.5z" />
    <glyph glyph-name="ugrave" unicode="&#xf9;" horiz-adv-x="566" 
d="M571 395q0 -18 -18 -21l-19 -3q-22 -3 -30 8q-11 17 -28 27q-30 16 -163 51q-51 13 -162 39q-33 11 -64 18q-4 -2 -8 -2q-5 0 -17 4q-8 3 -14 5t-11 3q-1 0 -3 -4t-4 -4q-3 0 -4 3q-1 12 2 19q-1 16 -11 18h-2q0 1 2 5q7 7 7 10q0 2 -3 2q-2 0 -4.5 -4.5t-4.5 -4.5v1
q4 13 10 14q31 9 26 9q5 0 12 -5q12 -17 12 -23q10 -5 127 -46q-3 -1 -46 10q2 -1 5 -2q2 -1 5.5 -2t8.5 -3q18 -7 21 -7q6 -3 7 -2q2 4 2 5q6 -2 9 -4h-1h-3l-2 -2q2 -2 5 -2q4 0 5 1q-2 2 -2 3v1l48 -10l2 -2l-2 -1t-3 -1h-1v-1q2 -1 6 -1q10 0 9 3l35 -8l8 -3q3 -8 7 -8
q3 0 4 1q-4 6 -11 7q4 4 15 -4q8 -3 20 -7t28 -9q28 -8 52.5 -15.5t46.5 -15.5q43 -11 48 -10q17 3 31 -5q15 -8 15 -25zM562 50q-11 -17 -50 -50t-68 -33q-26 0 -48 27q-7 4 -21 32q-2 5 -4 15q-1 5 -2.5 14t-3.5 20q-6 31 -8 31q-5 0 -34 -19l-59 -38q-44 -24 -82 -24
q-87 0 -121 49q-2 3 -6.5 9.5t-12.5 16.5q-3 7 -6.5 15t-8.5 19l-14 34q-4 14 -9 30.5t-10 33.5q-1 3 -1 7q0 12 16 19q13 6 27 6q4 0 10 -2l66 -18q21 -8 26 -23q3 -34 18 -92q28 -55 50 -55q76 0 150 105q18 26 27 26q4 0 27 -12q14 -8 47 -21q23 -9 23 -22q0 -2 -1.5 -9
t-1.5 -10v-21q1 -10 2 -21.5t3 -24.5q2 -5 14 -17q7 -4 15 -4q20 0 40 26l37 47q1 -1 7 -1q6 -2 5 -3zM486 402l-1 1q-1 0 -2 -3v-1h1l2 1v2zM285 489l-6 3q1 -3 6 -3zM252 499q-3 -2 -3 -3l1 -1h1q1 1 1 1.5t1 1.5zM243 499q-3 3 -6 4t-5 -1q0 -3 5 -3h6v0zM225 501
q1 1 1 2q0 2 -4 2q-1 0 -1 -1q1 -3 4 -3z" />
    <glyph glyph-name="uacute" unicode="&#xfa;" horiz-adv-x="593" 
d="M17 158l-5 15q-5 31 -7.5 47.5t-3.5 19.5t-1 7q0 12 16 19q13 6 27 6q4 0 10 -2l67 -23q25 -11 29 -24q2 -9 4 -38q1 -26 9 -39q14 -25 42 -41q23 -13 38 -13q74 0 138 91q17 26 27 26q4 0 27 -12q14 -7 23 -11t13 -6q23 -8 23 -21q0 -3 -2 -8.5t-5 -11t-5 -10.5t-2 -8
q-2 -41 -3 -54q2 -4 3.5 -7.5t3.5 -7.5q7 -15 16 -19q7 -4 15 -4q9 0 51 24l50 29q3 -2 2 -6l-22 -37q-10 -18 -18 -25q-3 -3 -10.5 -9t-19.5 -16q-35 -28 -65 -28q-26 0 -52 17q-10 8 -18 15.5t-13 14.5q-11 22 -11 33q0 1 -3.5 6.5t-1.5 9.5q2 5 -2 14t-4 10q0 31 -9 31
q-20 0 -42 -25q-28 -31 -40 -38q-44 -24 -81 -24q-45 0 -63 3q-36 8 -66 32q-15 15 -35 46q-8 11 -11.5 18.5t-4.5 9.5zM634 727q5 -7 17 -15q9 -8 9 -10q0 -11 -51 -24q-23 -24 -51 -51q-32 -16 -106 -102l-8 -8t-17 -16q-20 -20 -19 -21l-5 -5t-6 -5q4 6 7 9q0 1 -1 1
q-3 -2 -5 -11l-6 -7l-27 -24q-1 1 -3 1l-6 -2q-3 -3 -5 -4h6l1 -2l-37 -33v4q-1 1 -4.5 -1.5t-3.5 -4.5v-1q6 0 6 2q3 -3 -6 -8q-1 0 -2.5 1.5t-2.5 1.5q-4 -4 -7 -11q1 0 5 4q2 0 3 1q-8 -9 -16 -20t-18 -25q2 -6 2 -13v-6.5t-1 -7.5q-4 -10 -35 -16q-5 -2 -15 7l-1 2
q1 1 5 -2l3 -3q5 0 5 2t-14 10l1 2q8 5 1 21q-1 1 -3.5 4t-7.5 8q-8 8 -8 15q0 5 4 5q1 0 4.5 -2t4.5 -1q28 25 45 21q8 -2 48 37q233 222 252 262q2 2 4.5 6t7.5 10q6 7 6 13q0 3 -3.5 6.5t-3.5 4.5q0 7 15 12q12 4 22 4q7 0 10 -3zM325 409q0 -2 1 -3l3 3q1 1 -2 1z
M333 414q4 1 8 7q-6 -2 -8 -7zM349 427q-2 2 -3 2h-1l-1 -2q2 -2 5 -1v1zM368 446q6 0 6 5q0 1 -1 1q-6 0 -6 -6h1v0z" />
    <glyph glyph-name="ucircumflex" unicode="&#xfb;" horiz-adv-x="725" 
d="M744 64q-20 -14 -39.5 -28t-39.5 -28q-11 -8 -20 -23l-16 -30q-18 -31 -45 -31q-33 0 -74 47q-38 41 -36 55q0 20 42 73q35 42 62 63q29 23 29 35q0 5 -4 6q-48 24 -51 24q-17 0 -28 -14l-33 -45q-8 -10 -45 -46q-4 -5 -17 -15q-2 -2 -10 -9t-23 -20l-49 -41
q-13 -12 -43 -29q-32 -18 -42 -18q-48 0 -79 85q-13 33 -19 88q-2 21 -3.5 42t-3.5 42q-1 13 -54 13q-54 1 -90 30q-38 30 -38 83q0 68 53 86q10 3 17 -13q9 -24 13 -26q14 -16 44 -37q42 -18 51 -18q8 0 10 14l12 139q2 14 -3 49q-2 18 -3 30t-1 19q0 46 30 46t77 -35
q63 -47 63 -71q0 -8 -8.5 -18t-9.5 -14l-41 -179q-2 -8 4 -9q106 -7 144 -1q16 4 28 8t22 9l17 8q8 -5 -10 -13l-95 -46q-4 0 -11 -3q4 -7 10 -5l41 10q1 -1 1 -5l-80 -27q-15 -5 -41 -5q-23 -1 -33.5 -1t-8.5 0q-4 -1 -4 -6q-7 -46 -10.5 -73.5t-3.5 -36.5v-13t1 -12
q2 -31 18 -53q9 -12 19 -12q9 0 41 19q32 20 49 34q7 5 19.5 17t29.5 30q3 4 7.5 9t11.5 12q2 3 6.5 9l10.5 14q24 34 27 54q6 30 11 35q15 19 63 15q18 -2 18 -21q0 -4 -1 -7v-8q0 -4 2 -8q28 -35 71 -52q29 -11 29 -26q0 -21 -40 -120q-2 -6 7 -6q-1 0 9 3t32 8
q8 2 16 3.5t16 3.5q10 3 51 27q2 -2 2 -19z" />
    <glyph glyph-name="yacute" unicode="&#xfd;" horiz-adv-x="576" 
d="M58 332q16 2 30 14q7 5 8 4q2 -2 -4.5 -9t-9.5 -7q-1 0 -7 -2q-1 -1 16 -11q29 -5 74 -36q22 -16 15 -28l-31 -56q-4 -6 -2 -19q1 -2 1 -6t-2 -8q-25 -32 -25 -40q0 -1 2 -1q4 0 5 1l45 16q10 4 36 18.5t70 39.5q65 37 106 37q39 0 74 -33q28 -26 35 -60q8 -35 7 -36
q-1 -5 4 -29q4 0 11.5 5.5t19.5 8.5q14 7 29.5 13.5t32.5 12.5q2 1 11 1q8 -2 10 -19q1 -5 1 -8t0 -2q-6 -8 -21 -16q-7 -4 -12 -6t-8 -4q-4 -2 -7 -3q-5 -2 -13.5 -6.5t-20.5 -9.5l-36 -18q-4 -1 -18 -73q-7 -36 -11.5 -65t-7.5 -52q-5 -20 -11 -48t-13 -65
q-8 -54 -31 -118q-7 -19 -17 -47.5t-24 -66.5q-17 -51 -53 -94l-23 -27l-11 -10q-2 -1 -4 1q11 25 39 65q29 43 40 65t11 39q0 5 -2 5q-7 0 -19 -34q-8 -19 -43 -57q-43 -46 -65 -46q-7 0 -12 5q-66 57 -91 108q-13 25 -20 56.5t-9 70.5q-1 8 -1 15v14q0 69 34 140
q24 50 63 86q8 8 28.5 25t55.5 45q23 18 68 45q11 6 19 11t13 8q6 4 11 7q9 9 10 61q1 31 -3 40q-3 7 -3 15q3 22 -9.5 37.5t-30.5 15.5q-23 0 -57 -19q-30 -16 -50 -34q-12 -12 -12 -17q0 -3 5 -3q3 0 12 3l33 11q1 -1 1 -3l-47 -32q-83 -56 -133 -56q-77 0 -98 60
q-6 17 -4 61q1 8 2.5 18t5.5 22q7 24 7 33q4 36 8 49q6 24 23 32zM260 -635q-5 -3 -6 -3q-2 0 -2 3l1 3l3 2q3 2 5 -2l-1 -3v0zM303 -590q-4 -10 -18 -25q-9 -9 -14 -9q-4 0 -2 5l2 4l25 29q4 0 7 -4zM240 -156q-19 -28 -32 -55t-20 -55q-13 -46 -13 -119q0 -43 15 -88
q21 -60 55 -60q12 0 24 14q31 40 70 176q39 133 39 189q0 5 9 67q10 59 10 72q0 3 -1 4t-29 -20q-32 -24 -50 -42q-32 -27 -42 -39q-19 -19 -35 -44zM639 804q5 -7 17 -15q9 -8 9 -10q0 -11 -51 -24q-23 -24 -51 -51q-32 -16 -106 -102q-3 -5 -24 -24q-21 -20 -20 -21l-5 -5
t-6 -5q3 3 7 9q0 1 -1 1q-3 -2 -5 -11l-6 -8l-27 -24l-2 2q-3 0 -7 -3q-1 -1 -5 -3h6l1 -2l-37 -33v4q-1 1 -4.5 -1.5t-3.5 -4.5q0 -1 1 -1q5 0 5 2q3 -3 -6 -8q-1 0 -2 1.5t-2 1.5q-5 -5 -8 -11q1 0 5 4h4q-8 -8 -16.5 -19t-18.5 -25q2 -6 2 -13v-6.5t-1 -7.5
q-4 -10 -35 -16q-5 -2 -15 7l-1 2q1 1 5 -2l4 -3q4 0 4 2t-14 10l1 2q8 5 1 21q0 1 -11 12q-7 7 -7 15q0 5 3 5q2 0 5 -2t4 -1q28 25 45 20q7 -1 48 38q117 112 180 177t73 85q1 2 11 16q6 7 6 13q0 3 -3.5 6.5t-3.5 4.5q0 7 15 12q12 4 22 4q7 0 10 -3zM330 486q0 -2 1 -3
l3 3q1 1 -2 1zM339 491q3 1 7 7q-5 -2 -7 -7zM354 504q-2 2 -3 2h-1l-1 -2q2 -2 5 -1v1zM373 523q7 0 7 5q0 1 -2 1q-6 0 -6 -6h1v0z" />
    <glyph glyph-name="ydieresis" unicode="&#xff;" horiz-adv-x="632" 
d="M-36 72q-10 4 -10 18q0 22 18 27q4 1 11.5 2.5t19.5 3.5q31 5 60 15.5t55 24.5q19 10 48 25.5t71 37.5q11 2 21 10q7 5 8 4q2 -2 -4.5 -9t-9.5 -7q-1 0 -7 -2q-2 -2 16 -11q18 -19 8 -38l-32 -57q-4 -6 -2 -18q1 -3 1 -7q0 -5 -2 -7q-25 -32 -25 -40q0 -2 2 -2q4 0 6 1
l44 17q18 7 106 57q68 38 107 38q41 0 73 -33q37 -37 37 -85q0 -2 -2 -18.5t-6 -45.5q-1 -13 9 -13q14 0 41 6t41 6q52 0 108 -24q65 -29 78 -71q3 -10 -17 -25q-19 -16 -32 -16q-4 0 -10 2q-65 35 -102 35q-21 0 -54 -11q-13 -5 -31.5 -12t-44.5 -16q-8 -3 -20 -90
q-13 -101 -15 -110q-5 -28 -12 -55.5t-17 -53.5q-7 -19 -17 -47.5t-24 -66.5q-17 -51 -53 -94l-23 -27l-11 -10q-2 -1 -4 1q11 25 39 65q30 43 40.5 65t10.5 38q0 6 -2 6q-7 0 -19 -34q-6 -19 -43 -57q-43 -46 -65 -46q-8 0 -12 4q-131 116 -131 271q0 96 56 175
q54 73 145 115q32 15 51 24.5t24 13.5q13 12 15 44q1 44 2 72t3 41q1 3 1 10q0 35 -31 35q-23 0 -57 -19q-32 -17 -50 -35q-12 -12 -12 -16q0 -3 5 -3q3 0 12 3l33 11q1 -1 1 -3l-47 -32q-83 -56 -133 -56q-42 0 -74 32q-11 11 -11 27q0 35 43 91q0 1 -1 1q-4 0 -37 -24
l-48 -35q-23 -17 -39 -17q-8 0 -17 4zM348 -719q-5 -3 -6 -3q-2 0 -2 3l1 3l3 2q3 2 5 -2l-1 -3v0zM391 -674q-4 -8 -18 -26q-10 -8 -14 -8q-3 0 -2 4l2 4l25 30q4 0 7 -4zM376 -254q-113 -81 -113 -216q0 -43 16 -87q19 -60 54 -60q13 0 24 14q30 37 71 176q38 134 38 189
q0 23 -7 29q-2 2 -36 -16q-17 -10 -28.5 -17t-18.5 -12zM186 160q-3 -5 -24 -10q-19 -4 -19 -13q0 -10 19 -3q13 4 24 22q9 13 9 20v1q-3 -3 -9 -17zM307 466q3 9 13 17t19 8q25 -2 56 -36q32 -35 32 -58q0 -28 -46 -35q-56 -9 -67 -20q-5 -5 -11 11l-4 10t-3 9q-1 1 3 7
q9 9 10 12t-1.5 6t-6.5 7l-7 7t-3 6q0 4 1 6zM507 466q3 9 13 17t19 8q25 -2 56 -36q32 -35 32 -58q0 -28 -46 -35q-56 -9 -67 -20q-4 -4 -11 11l-4 10t-3 9q-1 1 3 7q9 9 10 12t-1.5 6t-6.5 7l-7 7t-3 6q0 4 1 6z" />
    <glyph glyph-name="Abreve" unicode="&#x102;" horiz-adv-x="489" 
d="M212 292q-3 -1 -58 0q-82 1 -138 -25q-1 0 -1 -2t5 -7.5t5 -6.5h-3h-7q-5 1 -7.5 1h-4.5l-2 -2l2 -2l3 -3l3 -4l8 -5q1 -1 -2 -8.5t-3 -10.5q0 -16 33 -23l96 -23q3 0 9 2t12.5 4l13 4t9.5 2q4 0 4 -3q-9 -54 -15.5 -86.5t-10.5 -43.5l-2 -6q-32 -36 -51 -48
q-8 -11 -8 -36q0 -42 18 -61l43 -48q5 -5 12 -5q24 0 48 26q20 22 20 71q0 28 -6 75q-6 42 -4 55l18 112q1 10 19 10q7 0 21 -2.5t20 -2.5l12 1q10 1 17 0q10 -1 10 -7q36 -298 113 -505q7 0 12 3q1 -1 4 -1q13 0 9 22l-16 79q-5 20 -3 31t5 -1l7 -27q2 -4 6 -5q5 -1 7 2
q-2 8 -2.5 13t-1.5 8q-5 40 -7.5 67t-3.5 42q-2 29 -4 55t-4 50q-6 93 -6 137q0 31 5 36t64 0q19 -1 19 4q-1 1 -3 1l-18 7q0 3 1 4l19 -3q9 -2 9 5q0 3 -4 11.5t-5 11.5l20 -6q1 -1 2 -1l3 3q2 3 -2 5q-11 10 -39 18l-77 21q-7 19 -12 38.5t-10 39.5q-5 25 -5 62v6t1 9v21
v36q0 80 -19 102q-4 4 -12 9.5t-21 12.5q-29 15 -45 15q-6 0 -10 -3q-13 -12 -13 -19q0 -6 13 -19q2 -1 7 -11q3 -6 3 -9q0 -1 -1 -2l-32 10q-38 11 -54 11q-24 0 -24 -21q0 -10 12 -29q14 -26 14 -49q0 -15 -3 -33t-8 -40l-17 -70q-5 -20 -7.5 -31t-3.5 -15zM471 -182
q-5 -2 -6 6q-2 8 2 8q4 -7 4 -14zM279 288q-4 1 -4 7q0 4 5 22q1 8 5 17l11 59q8 24 15.5 40.5t13.5 26.5q7 15 13 15q2 0 4 -2v-42t-1 -94q0 -24 4 -44q2 -13 1 -14q-10 -6 -48 4zM215 841q3 -3 3 -7q0 -5 -4 -13t-4 -10l-1 -14q-1 -1 -2 -1t-1 1l1 10q0 2 -2 4
q-5 0 -9 -12q-2 -2 -3 -2q-2 0 -2.5 7t-1.5 7t-2 -1q-6 -8 4 -32q19 -53 78 -85q52 -27 114 -27q86 0 131 54q14 17 19 53q4 42 13 42q5 0 10 -4l6 -3q3 1 9.5 9.5t11.5 8.5q14 0 11 -33q-1 -14 -16 -40q-17 -27 -25 -37q-53 -80 -152 -80q-81 0 -172 55q-102 61 -102 137
q0 11 26 19q22 5 36 5t18 -4z" />
    <glyph glyph-name="abreve" unicode="&#x103;" horiz-adv-x="418" 
d="M272 258q1 0 4.5 -3.5l7 -7t8 -6.5t7.5 -2q19 6 27 20q9 19 15 23q2 2 7.5 6t15.5 9q12 7 12 15q0 1 -5 29q-1 14 -12 22q-13 9 -42 22q-14 6 -30 6q-15 0 -37 -9q-13 -6 -25 -12t-24 -11q-56 -23 -98 -80q-19 -16 -58 -101q-45 -99 -45 -152q0 -31 18 -43q0 5 1 6
q-3 4 -3 7q0 1 1 1t5.5 -3t10 -7t10.5 -7.5t8 -3.5q29 10 49.5 17t31.5 12q3 0 -4 -5v-3l3 1q2 0 31 21q24 17 40 16q6 0 33 -32q29 -34 47 -38q4 -1 8 -1.5t9 -0.5q46 0 57 15q0 1 -7 2q-2 0 -8 -2t-9 -1q-5 0 -7 2q0 1 3 3q14 3 25 4.5t21 2.5v5q-2 -2 -6 -3q-9 -5 -18 0
l4 1l7 1q5 0 7 3.5t3 3.5l37 6q5 5 7 12q56 68 56 76q0 1 -1 2q-4 0 -34 -24q-18 -14 -30 -22.5t-18 -12.5q-14 -9 -28 -9q-28 0 -44 37q-12 30 -12 74q0 19 3 33q-29 22 -41 37q-29 18 -36 18q-14 0 -16 -29v-43q-14 -52 -30 -71q-20 -26 -70 -49q-33 -16 -56 -16
q-24 0 -24 25q0 22 17 62q13 33 26 51q76 94 158 99zM60 -32v2l-1 1h-2l-1 -1v-1l1 -2h2zM202 602q3 -2 3 -5q0 -4 -3.5 -10.5t-4.5 -8.5v-11q-2 -2 -3 0l1 8q0 3 -2 3q-4 0 -8 -10q-1 -1 -3 -1q-3 0 -3 5v6q-1 0 -2 -1q-5 -5 3 -26q20 -44 73 -69q46 -21 100 -21
q77 0 118 44q14 14 17 43q4 33 12 33q1 0 9 -2l5 -3q3 0 8.5 7t10.5 7q12 0 10 -26q-2 -15 -14 -33q-8 -10 -13.5 -17.5t-9.5 -12.5q-47 -65 -137 -65q-68 0 -151 44q-95 50 -95 112q0 20 56 20q12 0 16 -4z" />
    <glyph glyph-name="Dslash" unicode="&#x110;" horiz-adv-x="593" 
d="M142 667q5 -3 24.5 -13.5t54.5 -29.5q21 -6 43.5 -13.5t45.5 -15.5q20 -10 49 -25.5t68 -35.5q33 -18 98 -96l49 -87q5 -8 12 -31q8 -26 7 -31q-1 -4 -2 -8.5t-2 -10.5q1 -1 1 -6q0 -15 -15 -63q-2 -1 -4 -3.5t-6 -6.5q-3 -7 -2 -11t8 -3l71 9q10 1 8 -12q-6 -6 -17 -7
q-3 2 -1 4l6 3q1 0 1 1l-2 2q-21 -2 -21 -7q0 -1 2 -7l1 -1q6 0 18 1.5t29 5.5q2 -2 3 -7q-26 -4 -67 -12l-113 -44q-4 -1 -54 -56q-9 -6 -17.5 -12.5t-16.5 -13.5q-14 -12 -31 -27t-38 -32q-48 -39 -77 -44q-1 -1 -1 -2t-1 -3q-16 0 -43 -6q-2 -1 -8.5 -3t-17.5 -5
q-1 -1 -1 -4q0 -6 5.5 -15.5t5.5 -14.5q0 -28 -27 -28q-28 0 -45 14q-10 9 -29 50q-10 20 -15.5 33.5t-6.5 20.5q-3 16 14 38q18 21 20 32l9 101l2 1h2q3 -3 3 -15q0 -6 -1 -15t-3 -21q-3 -24 -3 -35q0 -7 1 -8l2 -1l3 1q6 16 9 39q-4 9 -2 24q1 7 3 25q1 14 1 36v51
q-2 76 -6 81q-9 1 -9 -14q0 -7 1.5 -20t1.5 -20q0 -6 -1 -7h-2h-3q-2 1 -3 63q0 2 -28 -1q-14 -2 -48 -18q-17 -9 -42 4q3 7 3 31q-4 5 -10 19q-1 2 -1 8q0 5 0.5 11t1.5 14l4 23q3 0 6 -1q9 -1 16 3q1 1 0 6l-2 8q0 2 3 2q5 0 47 -18l40 -16l-3 24q-1 7 -4.5 25t-9.5 47
q-4 20 -6 36t-2 29q0 32 10 61q2 7 -20 42q-21 38 -17 42q12 17 30 17q20 0 64 -25zM464 154h-20q-4 -4 -8 -4q-1 0 -1 1q4 5 10 15t16 24q32 53 32 101q0 31 -13 54q-21 40 -78 79q-56 38 -101 43q-2 0 -9 -0.5t-19 -1.5q-6 -1 -12.5 -2t-13.5 -3q-2 -8 -5 -8q-2 0 -7 2
t-7 2h-24q-20 -2 -21 -10l-16 -87l63 -5q102 -9 172 0l9 -10l-70 -17l-46 -6v-6q0 -4 -1 -6q0 -2 -52 -8q-51 -6 -66 -6q-24 1 -24 -1q-1 -30 -3 -113q-6 -161 6 -212l2 -10t3 -10q1 -1 3 -1t3.5 1t3.5 6l24 35q4 4 7 3q3 -2 4 -1q4 4 9 8.5t12 11.5q14 14 50 37t94 55
q13 5 34 16q6 5 12.5 11t13.5 13h6l6 1q6 0 6 -4q0 -3 -1 -6q-1 -2 1 -4q2 -1 8 1.5t7 4.5q-2 1 -3 9q5 8 6 8h-2zM508 136q5 2 3 4q-4 9 -8 -1q2 -2 5 -3zM116 136l-2 1l1 2q4 2 5 1v-2q0 -2 -2 -2h-2zM120 145l-1 -1q-3 0 -5 1l1 3l1 1h2q1 0 2 -1v-3zM485 154q1 -1 3 -1
q7 0 7 7q0 3 -3 3t-8 -5v-3l1 -1v0zM114 157v35q0 4 3 4q4 0 4 -4v-24t-0.5 -11t-1.5 -3h-2zM141 161q1 5 1 43q-1 1 -3 1t-2 -1v-41q0 -3 1 -3q2 0 3 1zM560 196q0 4 -7 0q-10 -6 -10 -13q0 -4 11 -4q1 2 6 17zM120 203l-2 -1q-5 0 -5 3q0 1 1 2l2 1q3 0 5 -3zM114 212
q-1 2 -1 6t1 6h3l2 -2v-5v-3q0 -4 -5 -2z" />
    <glyph glyph-name="dcroat" unicode="&#x111;" horiz-adv-x="410" 
d="M217 401l-3.5 17.5t-1.5 13.5q0 9 4.5 20.5t4.5 13.5q0 4 -6 9l4 49l-78 -10q-13 -6 -25.5 -12t-25.5 -13q-14 -5 -27.5 -8.5t-27.5 -4.5q-10 20 -10 51q0 27 7 49l22 42l47 10q1 1 5 1q12 0 59 -12q61 -15 61 -13q3 18 3 36q0 36 -24 92q-24 55 -24 74q0 10 13 24
q14 17 14 27q0 6 -2.5 16.5t-2.5 15.5q0 12 24 11h19q1 -1 4.5 -4t8.5 -8l46 -45q36 -35 36 -66q0 -22 -25 -71q-32 -65 -42 -114q-1 -1 43 -12q22 -5 38 -7.5t27 -3.5q51 -5 55 -12l21 -29l-78 -2h-111l-2 -211q-1 -125 14 -171q21 -62 110 -151q16 -16 16 -28
q0 -25 -70 -25q-55 0 -77 9q-6 1 -12 12l-8 14q-20 8 -40 19v2q0 5 11 35q15 34 15 45q0 7 -5 7q-7 0 -23 -11l-67 -49q-17 -13 -36 -13q-17 0 -41 12q-54 27 -54 81q0 57 61 137q48 63 98 103q6 4 15 27q6 19 18 20q28 0 25 11zM203 246q-74 -39 -114 -84q-34 -37 -34 -68
q0 -24 22 -24q32 0 110 83q43 46 44 65q4 42 -3 42q-1 -1 -25 -14zM227 413l-2 27z" />
    <glyph glyph-name="Itilde" unicode="&#x128;" horiz-adv-x="667" 
d="M416 -44q-80 -6 -131 -31l-140 -67q-41 -19 -61 -19q-14 0 -27 13q-19 21 -31 28q-46 30 -46 36q0 3 7 17q3 7 4.5 11t2.5 6q8 32 29 40q28 10 46 33q16 20 27 50q5 12 10 25t10 27q73 144 142 219q6 7 15.5 17t22.5 24q14 36 14 95q0 16 -10 16q-8 0 -57 -24
q-50 -24 -74 -24q-30 0 -43 31l-27 59q-1 4 27 26q2 2 5 2q4 0 10 -7q4 -5 5.5 -7t2.5 -3q8 -7 36 1q87 28 162 42q14 4 34.5 8.5t48.5 11.5q47 10 86 10q45 0 80 -15q18 -9 18 -35q0 -7 -3 -10q-23 -24 -88 -27q-71 -5 -90 -19l-36 -29q-2 0 -2 -3l9 -18q17 -31 17 -65
q0 -8 -3.5 -32.5t-10.5 -66.5q0 -5 -39 -96q-35 -84 -35 -118q0 -31 33 -31q7 0 17.5 1.5l24.5 3.5t23.5 3.5t14.5 0.5q87 -12 180 -49q119 -48 134 -98q-2 -2 -4 -3q-4 -1 -9 -0.5t-12 1.5q-12 5 -11 6q-1 -2 -1 -5q0 -4 19 -20l2 -2h-2q-2 -2 -8 0q-4 0 -6 1q-17 6 -17 18
q0 4 3 10q1 4 3 7q-6 9 -23 9q-13 0 -13 -9q0 -12 2 -12q1 0 4 2.5t4 2.5q4 0 7 -17q0 -1 3.5 -3.5t8 -5t8.5 -5t4 -3.5q0 -2 -5 -4q-7 -3 -35 16l-6 -2q-9 -4 -20 -4q-8 0 -77 31q-68 31 -124 31q-26 0 -39 -3zM74 -165q0 -4 -3 -5h-3q-2 2 -2 4q0 1 1 2l4 2l3 -3v0z
M-14 -33q-2 -17 -4 -15t-2 4t2 8q1 1 2 1.5t2 1.5zM711 -46q4 1 4 4q0 9 -12 9q-6 0 -1 -8q5 -6 9 -5zM289 271q4 64 -12 64q-18 0 -62 -83q-34 -67 -46 -104l-43 -133q-2 -7 -1 -9q2 -3 4 -2l146 44q5 2 5 5q1 16 0.5 38t-1.5 50q-3 17 8 60q7 24 10 39t4 22q1 3 -5.5 4.5
t-6.5 4.5zM398 496q30 29 100 45q65 17 71 23q1 1 1 2q-2 2 -7 2q-4 0 -17.5 -2t-36.5 -6q-6 -2 -35.5 -10.5t-83.5 -24.5l-27 -8q-3 -2 -3 -4q0 -6 11.5 -13t18.5 -7q5 0 8 3zM67 763q5 -1 9.5 -1h9.5q9 0 22.5 1t31.5 3q19 2 32.5 3.5t22.5 1.5q53 0 151 -27
q54 -14 92 -23t61 -12q13 -2 41 8q31 10 46 10q35 0 35 -24q0 -13 -11.5 -20.5t-25.5 -7.5q-14 -1 -33.5 -0.5t-42.5 2.5l-46 14q-1 0 -2 1h-1h9q-1 0 -5 2l-3 1l-5 2l-71 16q-14 0 -42 3q-31 9 -95 21h-55q-14 0 -41 -11q-27 -10 -42 -10q-19 0 -32 19q-3 1 -11 8
q-9 6 -6 11q5 11 7 9zM453 693l-4 2l1 1q2 -1 3 -1t2 -1zM474 695q-2 0 2.5 3.5t6.5 1.5q-6 0 -9 -1q-12 5 -15 5q-2 0 -2 -3q1 -1 1 -1.5t1 -1.5zM448 707q-2 1 -5 1l-2 -2l1 -1zM429 705q4 1 6 2l4 2h-13h-9zM596 709q0 1 -1 2q-2 0 -3 -1t0 -1h4zM382 720q-1 0 -1 -1
t1 -1h13l1 1z" />
    <glyph glyph-name="itilde" unicode="&#x129;" horiz-adv-x="293" 
d="M56 213q1 3 -2 5l-1 -3q-1 -1 -2 -1q-1 1 -1 1.5t-1 1.5l-4 2l-4 2l7 2q7 31 -1 66q-1 5 -1.5 9t-0.5 8q0 17 7 24q0 17 20 17q27 0 56 -18q17 -7 26.5 -10.5t11.5 -4.5q20 -10 28 -27q1 -1 -4 -23q-8 -29 -9 -48q-4 -35 -6 -56.5t-2 -29.5q0 -50 30 -63q24 -11 55 -11
q25 0 52 11q1 1 3.5 3t6.5 7q6 9 11 7q-1 -2 -1 -6q0 -3 1.5 -6t4.5 -3q4 0 24 15l18 14q3 0 4 -4l-37 -41q-11 -12 -72 -36q-13 0 -29 -8q-17 -9 -44 -9q-51 0 -94 38q-36 32 -41 73l-5 44q0 2 -2 2t-2 -1l-2 18l-2 18q-1 13 3 16zM203 413q-2 -20 -42 -60q-2 0 -3.5 4.5
t-4.5 4.5q-4 0 -10.5 -6t-7.5 -6q-4 5 -4.5 18t-2.5 16q-8 9 -21 21q-3 -4 -6 -4q-10 41 -10 74q0 48 25 48q26 0 58 -41q31 -39 29 -69zM-119 577q25 0 79 19t85 19q49 0 136 -26q93 -28 135 -29q9 0 45 15q34 15 53 12q24 -5 24 -22q0 -29 -35 -29q-4 0 -9 -1
q-8 -1 -28 -3q-26 -3 -39 -1l-50 10q2 1 4.5 1t4.5 1l-8 2l-5 1l-78 7q-5 2 -14 4t-21 4q-13 2 -39 10q-23 7 -39 6q-23 3 -74 -7q-2 0 -34 -17q-34 -17 -51 -17q-18 0 -29 14q-20 11 -20 16q0 11 7 11zM272 542l-4 2q4 0 5 -1zM292 546q-2 0 3 3.5t5 2.5q-2 -1 -4 -1t-4 -1
q-3 0 -8 1.5t-8 1.5q-1 0 -1 -3l2 -2zM260 555q-2 -2 -1 -2q2 0 6 2h-5zM247 552q3 1 5.5 2t4.5 2q-14 -1 -22 -3zM409 569q4 0 4 1t-2 1t-3 -1t1 -1zM199 563q-1 0 -1 -1t1 -1l13 1v1h-13z" />
    <glyph glyph-name="Utilde" unicode="&#x168;" horiz-adv-x="416" 
d="M276 529q-1 11 -21 31q-19 19 -19 30q0 8 5 16q9 15 46 15q39 0 75 -16q40 -16 45 -40q2 -8 -28 -52q-33 -49 -36 -52q-12 -26 -15 -102q-3 -82 -8 -101q0 -2 6.5 -3.5t6.5 -2.5q3 -7 2 -17q-3 -17 -3 -19l6 -110q1 -18 10.5 -86.5t27.5 -188.5q-4 -10 -20 -10
q-43 0 -111 50v3v13.5t-1 21.5q-1 21 6 31v2l5 64q1 3 -4 5q-3 -6 -18 -39q-2 -9 -5.5 -19.5t-8.5 -23.5q-27 -31 -61 -31q-31 0 -66 26q-58 45 -58 196q0 7 -3 33q-3 25 -2 39q0 10 -0.5 20.5t-2 19.5l-2.5 15l-1 6q-5 29 -3 73q3 7 3 -16q1 -4 2 -7.5t3 -8.5q7 -4 7 5
l2 79q0 3 -9 71l-9 66q-20 16 -23 22q-9 12 -12 29l2.5 4t6 8t6.5 8l3 4q12 23 40 23q27 0 71 -29q47 -32 58 -49q3 -5 3 -17q0 -5 -1.5 -16t-5.5 -28q-9 -42 -12 -70q-2 -16 -5.5 -33.5t-8.5 -37.5l-9 -36l-4 -41v-2l-2 2q-3 5 -4 5q-2 -1 -3 -3t-1 -3q0 -5 6 -6l8 -2
q-2 -4 -5 -7q-5 4 -8 5.5t-4 2.5l-4 -2q0 -5 -1 -18.5t-1 -22.5l1 -88q-1 -5 -1 -11t-1 -13q5 1 13 -2q2 -5 -7 -5q-5 0 -3 -2l2 -24q0 -4 5 -4l7 1q5 -3 4 -4q-6 0 -16 -2q-3 -11 11 -39q17 -32 42 -32q23 0 50 29q18 20 24 34l50 122q-3 20 -5.5 41.5t-4.5 44.5
q10 64 3 175zM260 64q0 -15 4 -27q10 8 23 49q1 3 2 11t2 21q1 10 0 12q-7 5 -11 -7zM326 190q2 2 2 3q-1 1 -5 1l-1 -1q0 -2 2 -4l2 1v0zM326 198q4 0 4 2q-1 1 -2 1q-2 4 -5 2v-5h3zM324 298q3 0 3 3q1 3 -3 6l-3 -3l-1 -2q1 -2 2 -2.5t2 -1.5zM327 312q-1 -4 -4 -3
q-3 0 -3 4l2 19q0 3 2 1q3 0 3 -1v-20zM-42 758q5 -1 9.5 -1h9.5q9 0 22.5 1.5l31.5 3.5q19 2 32.5 3.5t23.5 1.5q53 0 151 -27q106 -30 152 -36q10 -1 41 9q30 10 46 10q36 0 36 -24q0 -13 -12 -21t-26 -7q-14 -1 -33.5 -0.5t-42.5 2.5l-46 13q-3 1 -3 2h9q0 1 -4 2l-4 1
l-5 2l-70 15q-15 0 -42 3q-32 10 -96 21h-54q-19 0 -43 -10q-30 -11 -40 -11q-20 0 -32 19q-20 14 -18 20q5 10 7 8zM345 689l-5 2q0 1 1 1q4 -2 5 -2zM366 691q-1 0 4 4q3 2 4 1q-5 0 -8 -1q-12 5 -16 5q-1 0 -1 -3t2 -3zM339 702q-1 1 -5 1q-2 -2 -1 -2q4 0 6 1zM321 701
q4 1 10 3q-4 1 -7.5 1h-5.5q-7 0 -9 -1zM483 704q4 0 4 1l-1 1q-2 0 -3 -1t0 -1zM274 716q-1 0 -1 -1t1 -1h13v1z" />
    <glyph glyph-name="utilde" unicode="&#x169;" horiz-adv-x="571" 
d="M1 230q0 24 10 28q8 4 20 4q13 0 44 -7q17 -4 28.5 -6.5t16.5 -4.5q21 -9 26 -23q6 -36 25 -92q19 -37 57 -37q40 0 57 9q22 12 52 55q4 6 12 35q6 22 16 25q14 3 40 -11q19 -6 57 -21q23 -8 23 -22q0 -1 -0.5 -12t-0.5 -18v-7.5t1 -14.5q1 -39 9 -50q7 -9 19 -7
q13 2 46 16l41 28q1 0 3.5 -3.5t4.5 -7.5t3.5 -7.5t1.5 -4.5l-42 -32q0 -4 -33 -29q-50 -38 -83 -36q-31 2 -51 17l-7.5 7.5t-14.5 15.5q-4 7 -4 15q0 1 -6 11t-4 14q2 5 -1 11t-3 8q0 11 -3.5 23.5t-4.5 20.5q-1 0 -2 -2q-2 -2 -3.5 -4t-3.5 -4q-6 -7 -12 -11.5t-11 -8.5
q-16 -12 -32.5 -24.5t-33.5 -25.5q-61 -34 -83 -34q-66 0 -101 50q-2 4 -7 11t-13 17q-11 11 -20 39l-7 24q-1 5 -2 11t-2 11q-5 21 -6 21l-16 40v0zM13 400q5 -1 9 -1h9q10 0 23.5 1.5l31.5 3.5q19 2 32.5 3.5t23.5 1.5q52 0 150 -27q107 -28 152 -36q10 -2 42 9
q30 10 46 10q35 0 35 -24q0 -13 -12 -21t-25 -7q-14 -1 -33.5 -0.5t-42.5 2.5l-46 13q-3 1 -3 2h8q0 2 -3 2l-4 1l-5 2l-70 15q-16 0 -43 3q-31 10 -95 21h-55q-18 0 -42 -10q-30 -11 -41 -11q-21 0 -31 19q-21 13 -19 20q5 10 8 8zM400 331l-5 2v1l6 -2zM420 333q-2 0 5 4
q3 2 4 1q-5 0 -9 -1q-12 5 -15 5q-1 0 -1 -3t2 -3zM393 344q-1 1 -5 1q-2 -2 -1 -2q4 0 6 1zM376 343q6 1 9 3q-5 1 -12 1t-10 -1zM538 346q4 0 4 1t-2 1t-2 -1q-1 -1 0 -1zM329 358q-1 0 -1 -1t1 -1h12v1z" />
    <glyph glyph-name="Ohorn" unicode="&#x1a0;" 
d="M661 295q0 -13 -40 -40q-39 -26 -54 -29l-38 -7q-5 -2 -5 -4l7 -40q2 -12 -7 -56q-5 -21 -8.5 -35t-5.5 -21q-21 -47 -20 -55q-2 -1 -5 -1.5t-5 -2.5q-1 -1 1.5 -3t2.5 -3q-1 -1 -1.5 -2t-1.5 -2q-4 2 -6 4l-2 -1q-2 -5 -7 -13q-4 -2 -6 -5q1 -1 2.5 -2t3.5 -3v-4
q0 -5 -4 -6q-6 2 -12 1q-6 -8 -6 -13q5 4 8 4q2 0 2 -1q0 -6 -14 -20t-20 -15h-2l-1 2q1 3 15 15q-2 2 -3 2q-30 -25 -28 -29q9 6 11 6q1 0 1 -1q3 -9 -33 -32q-35 -24 -47 -22q-1 -1 -9 -7q-5 -1 -11.5 -3t-15.5 -4q-20 -12 -57 -12q-44 0 -89 15q-56 19 -64 54l-1 1h-2
l-5 -4q0 -1 -1 -1t-1 1q-2 7 -17 23q-16 18 -15 22l2 1h2l4 -2h4l2 2q-2 3 -7.5 12.5t-14.5 25.5q1 2 1 9q-2 6 -5.5 15t-7.5 22q0 3 -3 8q-4 2 -5 3q1 2 1 4t1 5l-5 40q-1 2 -1 5q4 1 6.5 2t4.5 2q-1 10 -0.5 21t1.5 25q1 4 3 9t5 13q1 5 2 12.5t3 18.5q2 5 5.5 14t7.5 20
q0 8 3 19q2 5 7.5 18.5t13.5 33.5q4 7 9 16.5t11 23.5q1 3 -2.5 6.5t-3.5 5.5q3 4 5.5 8t4.5 8q25 54 57 103q12 17 29.5 41.5t40.5 56.5q16 22 16 30q0 -4 -9 16v1q2 1 9.5 3t18.5 6q3 1 6.5 1t8.5 1q3 0 10.5 2t11.5 2q10 -1 29 -6.5t48 -16.5l9 -4.5t12 -6.5q8 0 16 -4
q-1 -4 6 -14q7 -2 14 -5.5t15 -8.5q6 -4 23 -31q3 -2 11 -8q0 -2 -2 -4.5t-2 -3.5l1 -11q-1 -2 -3.5 -5.5t-6.5 -9.5q-1 -1 -3.5 -2t-6.5 -3q-6 -3 -6 -5q0 -10 15 -23q8 -10 17 -26q3 3 11 6q13 6 47 15q24 6 50 23q24 15 24 19q1 21 7 22q2 -2 4 -3q6 2 4 8q-7 31 -15 46
q-12 33 -26 47l-1 1l-1 2q2 -6 2 -7v-1q-6 0 -21 16q-4 4 -8.5 9t-11.5 12q-86 73 -150 72q-10 1 -22 -3l-3 -9q-5 -12 -12 -12q-15 0 -30 39q-12 34 -12 54q0 28 20 26q88 -11 192 -90q112 -87 112 -169q0 -10 -1 -15q2 -6 2 -10q0 -11 -4 -22q-35 -39 -65 -55
q-26 -14 -82 -25h-8q1 -1 1 -4q0 -7 14 -33q-2 -3 -3 -9q2 -5 3.5 -13t3.5 -18q-2 -15 0 -33q1 -8 4 -23.5t10 -39.5q6 -2 10 -2q19 0 61 19q50 22 64 22q7 0 7 -4zM479 -10q-1 -4 -5 -4l-2 1q-2 3 4 5l2 -1l1 -1v0zM308 619q-1 1 -7 1l-2 -1v-2l1 -1l2 -1q4 1 6 3v1z
M287 617q-16 0 -17 1q0 -2 2 -4l3 -3q1 0 12 3l1 2zM383 511l-2 1h-3l-2 -1v-2l2 -1h3l2 1v2zM262 611q-5 2 -6 1l-1 -1v-2l1 -1h2h4l1 1zM263 599q0 2 -1 3h-1q-5 -2 -5 -3l-1 -1l1 -1h2q3 0 5 2zM499 280q0 -2 -1.5 8.5t-3.5 32.5q-2 13 -3 25t-3 24q-2 14 -5.5 26
t-8.5 21q-1 5 -6 16q-6 7 -12.5 14t-14.5 15l-4 1l-1 -1l-1 -2l-18 -38q-1 -2 -1 -13q0 -51 11 -81q3 -5 7.5 -12t10.5 -17q3 -1 7 -5q7 -11 34 -29q2 -2 4 -2q9 0 9 17zM140 424q-1 4 -3 4q-2 -2 -3 -5l1 -2h2q3 1 3 3zM492 196q3 24 0 27q-5 1 -12.5 3.5t-18.5 6.5
q-56 22 -75 69l1 1q4 1 6 3l-1 1l-3 1q-4 -2 -5 -3l-3 9q-2 5 -5 11.5t-7 14.5q-11 40 -9 75q1 1 4 21q3 18 2 19l-2 1h-3q-28 -15 -45 -35q-8 -12 -19 -29t-26 -39q-7 -6 -15 -15.5t-19 -22.5q-3 -5 -7 -11.5t-9 -15.5q0 -7 -16 -30q0 -7 -4 -19q-5 -11 -10.5 -22.5
t-11.5 -24.5v-10q-3 -7 -10 -20q-1 -4 -2.5 -9.5t-4.5 -13.5q-4 -7 -9 -7q-3 0 -3 3t1 6q5 11 10.5 24t12.5 27q-1 5 -1 17q4 7 9 17.5t12 25.5q0 3 -2 5q-16 -4 -25 -29q-11 -27 -16 -30q-4 -9 -9 -22.5t-11 -32.5q-1 -7 6 -62q-5 0 -9 -3v-18l2 -16l3 -1q3 3 5 11q6 2 9 4
q-1 1 -3 19q0 2 2.5 7t2.5 7q0 4 -4 7q-1 0 1 2h3q3 -5 5 -3h2q4 -3 -2 -51q-1 -13 11 -47q4 -12 9 -23.5t11 -22.5q3 -3 6 -6.5t7 -8.5q-2 -2 -6 -3q-12 5 -20 26l-24 58q-1 1 -3 1q-1 0 -2 -1l2 -21q2 -16 19 -42q19 -27 33 -33h2l2 2l-1 3q0 2 2 2t16 -9q15 -11 19 -13
q17 -5 32 -5q77 0 158 113q4 4 12 15q4 8 9 20t13 28q1 0 1 1q0 12 7 16q5 13 15 44zM357 -114q-2 3 -4 2q-3 -2 -10 -9q-2 -1 -5 -3t-8 -4l1 -2l2 -1q2 -1 6 -1q8 0 15 7q-2 4 -2 7q1 1 2 1.5t3 2.5zM233 -149q-1 1 -1.5 1t-1.5 1q-8 -1 -29 2q-14 2 -15 1l-5 -2
q0 -6 40 -7q12 -2 12 4zM155 126q1 -1 1 -3q0 -16 -12 -17q-12 4 4 16q3 2 7 4z" />
    <glyph glyph-name="ohorn" unicode="&#x1a1;" horiz-adv-x="335" 
d="M421 324q0 -18 -16 -40q-31 -42 -54 -55l-18 -9q1 -5 1 -9.5v-9.5q0 -66 -68 -146q-70 -82 -134 -82q-49 0 -100 69q-35 47 -35 100q0 82 78 162q68 71 150 100q2 1 6 1q17 0 58 -30q48 -36 48 -64q0 -24 -29 -24q-9 0 -28 2t-28 2q-57 0 -106 -41q-14 -12 -12 -14
q2 0 9 4q14 10 31 16q49 21 86 21q17 0 29 -5q30 -14 40 -39q5 4 9 7t7 5q10 8 17 15t11 13q6 9 11 29q4 16 4 22q-5 40 -35 71l-1 1q3 -4 7 -7l-6 6q-21 20 -52 40q-77 48 -133 48q-10 0 -15 -1q-10 0 -22 -6l-2 -8q-3 -14 -11 -14q-16 0 -34 40q-16 35 -16 55q0 23 18 22
q261 -14 330 -217q5 -17 5 -30zM264 150q-4 23 -7.5 37t-5.5 21q-12 29 -37 29q-13 0 -28 -7l-69 -28q-47 -20 -47 -84q0 -65 42 -89q13 -7 28 -7q36 0 83 50q12 13 26 37q17 29 15 41z" />
    <glyph glyph-name="Uhorn" unicode="&#x1af;" horiz-adv-x="416" 
d="M501 573q0 -10 -1 -15q1 -3 1 -10q0 -10 -3 -22q-35 -40 -62 -54q-33 -19 -95 -29q-7 -31 -8 -80q-2 -43 -4 -68t-4 -33q0 -3 6 -4.5t7 -1.5q3 -7 2 -17q-3 -17 -3 -19l6 -110q1 -19 10.5 -87t27.5 -188q-4 -10 -20 -10q-44 0 -111 49v4v13.5t-1 21.5q0 21 7 31v2l4 64
q1 3 -4 5q-2 -3 -6 -13t-12 -27q-3 -14 -14 -42q-27 -31 -61 -31q-31 0 -66 26q-58 43 -58 196q0 13 0.5 31t1.5 41q3 54 3 62q-4 30 -3 73q3 7 3 -15q2 -8 6 -17q6 -5 6 5l2 79q0 2 -2 19.5t-6 51.5l-10 67q-18 15 -23 21q-9 12 -12 30l8 11q5 5 7.5 8.5t3.5 4.5
q10 22 39 22q36 0 91 -37q24 -16 38.5 -28.5t19.5 -20.5q3 -5 3 -16q0 -30 -29 -115q-8 -23 -16 -48t-16 -51l-5 -40v-3l-2 2q-1 3 -4 6q-4 -1 -4 -7q0 -5 6 -6l9 -2q-2 -3 -6 -6q-10 7 -12 7l-4 -2q0 -14 -0.5 -24t-1.5 -16l-15 -90q-3 -22 -2 -24q6 1 14 -2q2 -5 -8 -5
q-5 0 -3 -2l2 -24q1 -4 5 -4l7 1q5 -3 4 -4q-4 0 -7.5 -0.5t-8.5 -1.5q-3 -11 11 -39q17 -32 42 -32q23 0 50 29q18 20 24 34l50 122q-3 20 -5.5 41.5t-4.5 44.5q10 64 3 175l-6 103q-2 10 -21 30q-20 20 -20 31q0 6 5 16q9 15 46 15q39 0 75 -16q42 -18 45 -40
q1 -7 -27 -52q-17 -26 -26.5 -39t-10.5 -14q-1 -2 -2 -5l-2 -6q1 1 8 3q15 7 46 14q22 4 51 24q23 15 24 19q1 20 6 22q2 -2 4 -3q5 1 4 7q-2 10 -5.5 21.5t-8.5 25.5q-10 30 -27 47l-1 1q-1 1 -1 2q3 -5 3 -7q0 -1 -1 -1q-5 0 -21 16q-5 5 -10 10.5t-10 10.5
q-87 74 -149 72q-9 1 -23 -4l-2 -8q-5 -12 -12 -12q-15 0 -30 38q-13 32 -13 54q0 29 20 27q88 -11 192 -91q113 -87 113 -168zM328 335q-2 2 -4 2q-2 2 -2 -2l-2 -18q0 -4 3 -4q4 -1 5 3v19zM328 305q2 3 -4 5l-3 -2l-1 -2q1 -2 2 -2.5t2 -1.5q4 0 4 3zM335 203
q-1 1 -2 2.5t-5 0.5v-4q2 0 3 -1q1 0 1.5 0.5t1.5 0.5t1 1zM333 197q-1 1 -5 1l-1 -1q0 -2 2 -4l3 1q1 1 1 3zM296 122q1 10 0 12q-7 6 -11 -7l-20 -59q0 -16 4 -27q10 7 23 49q1 2 2 10t2 22z" />
    <glyph glyph-name="uhorn" unicode="&#x1b0;" horiz-adv-x="583" 
d="M364 418l-1 2v1l2 1h1q1 -1 1 -4h-3zM124 242q12 -37 21.5 -61.5t16.5 -38.5q14 -26 35 -40q16 -12 31 -12q34 0 57 17q21 16 53 63q1 3 21 36q14 23 18 23q6 0 27 -12q28 -17 57 -27q23 -11 23 -22q0 -9 -7 -20q15 8 52 24q25 11 48 38q21 25 21 44q0 50 -23 73l-3 3
q3 -5 3 -7q0 -1 -1 -1q-4 -1 -20 15q-4 4 -9 9.5t-12 12.5q-84 74 -149 72q-8 1 -23 -4l-3 -8q-5 -12 -11 -12q-15 0 -30 38q-12 33 -12 54q0 28 19 27q93 -10 185 -67q104 -65 113 -149q4 -32 5.5 -46t1.5 -11q0 -31 -13 -45q-33 -34 -61 -47q-25 -12 -76 -21q-3 -1 -8 -1
q-1 -3 -1 -10q3 -39 9 -50q4 -2 9 -2q15 1 56 12l42 13q3 -2 2 -6l-20 -7q-39 -14 -78 -65q-34 -46 -53 -46q-20 0 -48 36q-4 1 -7 12q-5 12 -12 20q-4 7 -4 15q-5 5 -4.5 17t-3.5 17q0 31 -9 31q-4 0 -33 -20l-59 -37q-45 -24 -82 -24q-66 0 -109 61q-20 20 -32 48l-11 26
q-14 39 -17 39q-9 12 -18 36q-1 2 -1 6q0 13 16 20q15 5 27 5q4 0 10 -2l58 -19q21 -8 26 -23zM603 324q1 1 1 2q0 2 -2 4q-1 -1 -1 -3q0 -1 2 -3zM548 359q-1 1 -1 1.5t-1 1.5l-5 6h-1q-1 -1 -1 -2q0 -6 9 -7zM594 313l-1 3l-1 1l-1 -1q-1 -3 1 -5l2 1v1zM554 353
q-1 -1 -1 -2l4 -3q1 0 1 1zM569 333l-5 9q-4 2 -5 3l-2 -2q3 -3 6 -5l5 -5l2 -2z" />
    <glyph glyph-name="circumflex" unicode="&#x2c6;" horiz-adv-x="441" 
d="M67 335q-4 -4 -18 -4t-36 5q-26 8 -26 19q0 75 102 137q91 55 172 55q99 0 152 -80q8 -10 25 -37q14 -23 16 -40q3 -33 -11 -33q-5 0 -11 8.5t-10 9.5l-6 -4q-6 -3 -10 -3q-9 0 -13 42q-5 36 -19 53q-45 54 -131 54q-62 0 -114 -28q-57 -30 -78 -84q-9 -24 -4 -32
q1 -1 2 -1t1.5 7t2.5 7q1 -1 1.5 -1t1.5 -1q4 -12 9 -12q2 2 2 4l-1 10h2h1l1 -14q1 -3 4.5 -10.5t3.5 -12.5q0 -4 -3 -7z" />
    <glyph glyph-name="breve" unicode="&#x2d8;" horiz-adv-x="441" 
d="M75 530q3 -3 3 -7q0 -5 -3.5 -13t-4.5 -10l-1 -14l-1 -1q-1 0 -2 1l1 9q0 3 -2 5q-5 0 -9 -13q-1 -1 -3 -1t-2.5 7t-1.5 7t-2 -1q-5 -8 4 -33q21 -53 78 -84q52 -27 114 -27q86 0 131 54q14 17 19 53q4 42 13 42q5 0 10 -4l6 -3q4 0 10 8.5t11 8.5q14 0 11 -32
q-2 -18 -16 -41l-14 -21t-11 -15q-53 -80 -152 -80q-81 0 -172 55q-102 61 -102 136q0 12 26 20q17 4 36 4q13 0 18 -3z" />
    <glyph glyph-name="tilde" unicode="&#x2dc;" horiz-adv-x="441" 
d="M-55 463q21 -1 78 17q28 10 49.5 14.5t36.5 5.5q49 0 136 -25q46 -14 79.5 -21t55.5 -8q10 -2 45 15q32 13 53 11q25 -4 25 -22q0 -27 -35 -29q-13 -1 -38 -3q-16 -2 -25.5 -2.5t-12.5 0.5l-47 10q-3 0 -3 1q6 0 9 1q-1 0 -5 2h-4l-5 1l-79 7q-5 2 -14 4t-20 4
q-7 2 -16.5 4.5t-22.5 6.5q-20 7 -38 5q-3 1 -14 1q-23 0 -61 -7q-2 0 -35 -18q-32 -17 -50 -17t-29 14l-12 8q-9 6 -7 11q4 9 6 9zM335 428q-1 0 -3 2q4 0 5 -1zM357 431q-1 1 2 5q5 2 6 1q-3 -1 -9 -1q-3 0 -8.5 1.5t-7.5 1.5q-1 -1 -1 -3q1 -3 2 -3zM324 440q-1 -1 0 -1
q1 -1 5 1h-5zM311 438q7 1 10 4q-14 -1 -22 -3zM473 454q4 1 4 2l-1 1q-3 0 -4 -1q0 -1 1 -2zM263 449q-1 -1 -1 -2t1 -1l13 2z" />
    <glyph glyph-name="combininggraveaccent" unicode="&#x300;" horiz-adv-x="0" 
d="M142 408q-22 -4 -30 7q-9 18 -28 27q-42 21 -201 64q-25 7 -65 16.5t-97 23.5q-23 5 -26 5q-13 -13 -50 -4q-1 0 -3 -4.5t-4 -4.5q-3 0 -4 3q-1 5 -1 8.5v7.5q0 10 3 18q-1 15 -11 17h-2q0 1 2 5q7 7 7 11q0 2 -3 2q-1 3 -3 -2.5t-6 -6.5v1q4 13 10 13q31 9 26 9
q5 0 12 -5q12 -15 12 -23q16 -7 29.5 -12.5t24.5 -9.5q-1 -1 -4 -1q-4 0 -7 1q0 -2 5.5 -5t6.5 -2l2 6q8 -2 10 -5h-1h-2l-3 -2q2 -2 5 -2q4 0 4 1q-1 1 -1 1.5t-1 1.5q0 1 1 1l48 -9l2 -2q0 -1 -2 -1l-4 -2q2 -1 6 -1q9 0 8 3l35 -8l9 -3q3 -9 7 -9q2 0 3 1q-4 5 -10 8
q3 3 14 -5q28 -8 49 -14.5t35 -11.5q50 -16 83.5 -26.5t52.5 -17.5q40 -11 48 -9q19 2 31 -5q15 -9 15 -25q0 -19 -18 -22zM-240 561l2 2h-1q-1 0 -2 0.5t-2 0.5h-1q1 -3 4 -3zM-231 562q0 -3 4 -3h5l-2 2t-3 2q-4 1 -4 -1zM-213 559l-3 -3l1 -1h1q1 1 1 1.5t1 1.5z
M-186 552q1 -3 7 -3q-2 2 -7 3zM94 438v-2h-2h-1q0 1 2 3z" />
    <glyph glyph-name="combiningacuteaccent" unicode="&#x301;" horiz-adv-x="0" 
d="M165 854q2 -3 6.5 -6.5t9.5 -8.5q10 -7 10 -10q0 -9 -51 -24q-23 -24 -51 -51q-34 -15 -107 -102q-2 -2 -8 -7.5t-17 -16.5q-20 -20 -18 -21l-5 -5t-7 -5q2 2 4 4.5t4 4.5l-1 1q-4 -1 -6 -11l-5 -7l-27 -24q-1 1 -2 1t-7 -2q-3 -3 -6 -4h7l1 -2l-38 -33v4q-1 1 -4 -1.5
t-3 -4.5q0 -1 1 -1q4 0 4 2q3 -3 -5 -8q-1 0 -2 1.5t-2 1.5q-6 -6 -8 -11l1 1q1 1 1.5 1t2.5 2q1 1 4 1q-18 -20 -35 -45q1 -3 1 -13v-14q-4 -10 -36 -16q-4 -1 -14 7l-1 2q1 1 5 -2l4 -3q4 0 4 2t-14 10l1 2q8 5 1 21l-12 12q-6 7 -6 15q0 5 3 5q1 0 4.5 -2t3.5 -1
q28 25 45 21q7 -1 49 37q117 112 180 177t73 85q1 4 10 16q7 7 7 13q0 3 -4 6.5t-4 4.5q0 8 16 12q11 4 22 4q7 0 10 -3zM-145 536q1 -1 1 -1.5t1 -1.5l3 3q2 2 -2 2zM-135 541q3 1 7 7q-5 -2 -7 -7zM-121 554q-2 2 -3 2h-1l-1 -2q2 -2 5 -1v1zM-102 573q7 0 7 6h-2
q-6 0 -6 -5l1 -1v0z" />
    <glyph glyph-name="combiningcircumflexaccent" unicode="&#x302;" horiz-adv-x="0" 
d="M-344 346q-4 -4 -18 -4t-36 5q-26 8 -26 19q0 75 102 137q91 55 172 55q99 0 152 -80q8 -10 25 -37q14 -23 16 -40q3 -33 -11 -33q-5 0 -11 8.5t-10 9.5l-6 -3q-4 -4 -10 -4q-9 0 -13 42q-5 36 -19 53q-45 54 -131 54q-62 0 -114 -27q-58 -32 -77 -85q-10 -24 -5 -32
q1 -1 2 -1t2 7t2 7t3 -2q4 -12 9 -12q2 2 2 4l-1 10q1 1 2 1l1 -1l1 -14q1 -2 4.5 -10t3.5 -13q0 -4 -3 -7z" />
    <glyph glyph-name="combiningtilde" unicode="&#x303;" horiz-adv-x="0" 
d="M-410 520q5 -1 10 -1h10q9 0 22.5 1.5t32.5 3.5l31.5 3.5t22.5 1.5q54 0 152 -27q108 -29 152 -36q10 -1 41 9q30 10 45 10q37 0 37 -23q0 -14 -12 -21.5t-27 -7.5q-29 -2 -76 3l-45 12q-3 1 -3 2h9l-4 2l-4 1l-6 2l-69 15q-15 0 -42 3q-31 10 -97 21h-53q-19 0 -43 -10
q-30 -11 -40 -11q-20 0 -32 19q-21 13 -18 21q5 8 6 7zM-23 451l-4 2q0 1 1 1l4 -2zM-1 453q-1 0 3 4q3 2 4 1q-4 0 -7 -1q-12 5 -16 5q-2 0 -2 -3t3 -3zM-28 464q-1 1 -5 1q-2 -2 -1 -2q4 0 6 1zM-47 463q5 1 11 3q-4 1 -7.5 1h-6.5q-6 0 -8 -1zM116 466q4 0 4 1t-1 1
q-2 0 -3 -1t0 -1zM-93 478q-1 0 -1 -1t1 -1h13v1z" />
    <glyph glyph-name="combiningbreve" unicode="&#x306;" horiz-adv-x="0" 
d="M-298 627q3 -3 3 -7q0 -5 -4 -12.5t-4 -10.5l-1 -14h-2h-1l1 10q0 2 -2 4q-5 0 -9 -12q-1 -1 -1.5 -1t-1.5 -1q-2 0 -2.5 7t-1.5 7t-2 -1q-7 -7 4 -32q19 -53 78 -84q52 -28 114 -28q86 0 131 54q14 17 19 54q5 41 13 41q4 0 10 -3l6 -4q3 1 9 9.5t12 8.5q12 0 11 -33
q-1 -14 -16 -40q-17 -27 -25 -37q-53 -80 -152 -80q-81 0 -172 55q-102 61 -102 137q0 11 26 19q20 5 36 5q14 0 18 -4z" />
    <glyph glyph-name="combininghookabove" unicode="&#x309;" horiz-adv-x="0" 
d="M-234 627q3 -8 3 -11q0 -8 -12 -8q-22 0 -56 22q-37 24 -37 43q0 8 8 14q82 55 226 55q143 0 183 -70l5 -5t6 -5q8 -11 8 -16q-1 -54 -12 -83q-11 -31 -50 -73q-7 -13 -30 -34q-33 -20 -62 -37q-6 -2 -37 5q-5 -5 -12 -6q-2 4 3 6l4 2q2 2 -2 5q-20 14 -20 30q0 7 7 10
q17 3 35 6t35 6q58 9 97 52q14 15 27 55q7 25 6 30q-11 14 -11 19q0 2 1 2h2h3q4 4 -1 8q-15 11 -25.5 17.5t-15.5 9.5q-27 16 -51 19h-1q5 0 5 -2q0 -1 -1 -1q-3 -4 -26 -1q-5 1 -12 1t-17 1q-114 2 -161 -42q-17 -14 -15 -16zM-227 631l-2 -1l-2 2v2h1q1 -1 1.5 -1t1.5 -1
v-1zM15 696l-1 2h-3l-1 -1q1 -3 4 -3zM-27 699q-5 2 -6 -1q-1 0 -1 -1q1 -1 4 -1h4q-2 -1 8 -1h3l-12 4v0zM-36 701h-5q-2 -1 0 -1l5 -1v2zM-62 705q3 -1 7 -1q2 0 1 1h-8v0zM15 712q0 3 -5 3q1 -3 5 -3z" />
    <glyph glyph-name="combiningdotbelow" unicode="&#x323;" horiz-adv-x="0" 
d="M-351 -126q3 8 14 16.5t18 8.5q25 -2 56 -36q32 -35 32 -59q0 -28 -46 -35q-56 -9 -67 -20h-1q-4 0 -10 14l-7 16q-2 2 5 11q2 2 4 4.5t4 4.5q1 3 -1.5 6.5t-6.5 7t-7 6.5t-3 6q0 4 1 5z" />
    <glyph glyph-name="Adotbelow" unicode="&#x1ea0;" horiz-adv-x="489" 
d="M178 289q1 3 3.5 14t7.5 31l17 70q11 46 11 73q0 23 -14 49q-12 19 -12 29q0 21 24 21q16 0 54 -11l32 -10q1 1 1 2q0 3 -3 9q-5 10 -7 11q-13 13 -13 19q0 7 13 19q3 3 10 3q16 0 45 -15q26 -14 33 -22q19 -22 19 -102v-36v-9t-1 -12v-15q0 -37 5 -62q5 -20 10 -39.5
t12 -38.5l77 -21q28 -8 39 -18q4 -2 2 -5q-2 -2 -3 -2h-2l-20 6q1 -3 5 -11.5t4 -11.5q0 -7 -9 -5l-19 3q-1 -1 -1 -4l18 -7q2 0 3 -1q0 -5 -19 -4q-60 4 -64 0q-5 -5 -5 -36q0 -44 6 -137q2 -24 4 -50t4 -55q1 -15 3.5 -42t7.5 -67q1 -3 1.5 -8t2.5 -13q-2 -3 -7 -2
q-4 1 -6 5l-7 27q-3 13 -5 1q-2 -11 3 -31l16 -79q4 -22 -9 -22q-3 0 -4 1q-5 -3 -12 -3q-77 209 -113 505q-1 6 -10 7q-7 1 -17 0l-12 -1q-7 0 -20.5 2.5t-20.5 2.5q-18 0 -19 -10l-18 -112q-2 -13 4 -55q6 -47 6 -75q0 -48 -20 -71q-24 -26 -48 -26q-7 0 -12 5l-43 48
q-18 19 -18 61q0 25 8 36q19 12 51 48l2 6q4 11 10 43.5t16 86.5q0 3 -4 3q-7 0 -23 -6q-17 -6 -21 -6l-96 23q-33 7 -33 23q0 3 2.5 10.5t2.5 8.5l-8 5l-3 4q-4 3 -4 5t1 2h4.5t7.5 -1h7h3q0 1 -5 6.5t-5 7.5t1 2q54 26 138 25q53 -1 58 1zM437 -186q-5 -2 -6 6q-2 8 2 8
q4 -7 4 -14zM264 279q40 -10 48 -4q0 1 -0.5 4.5l-1.5 10.5q-3 21 -3 43q1 60 1 94v42q-2 2 -4 2q-6 0 -13 -15q-6 -10 -13.5 -26.5t-15.5 -40.5l-11 -59q-2 -4 -3 -8t-2 -9q-5 -18 -5 -22q0 -6 4 -7zM211 -284q2 7 13 16t19 9q24 -2 55 -36q33 -35 33 -59q0 -27 -47 -35
q-57 -11 -66 -20q-1 -1 -2 -1q-4 0 -10 14l-6 17q-2 1 5 10q4 6 8 10q0 3 -2.5 6t-6 6.5t-6.5 7t-3 6.5t1 5z" />
    <glyph glyph-name="adotbelow" unicode="&#x1ea1;" horiz-adv-x="434" 
d="M255 256q-88 -4 -157 -90q-7 -8 -28 -60q-16 -38 -16 -62q0 -25 24 -25q23 0 56 16q50 23 70 49q5 6 10 21l4 18l4 18v43q2 29 15 29q29 0 48 -11q3 -5 16 -9q8 -2 14.5 -5.5t11.5 -7.5q-4 -15 -4 -41q0 -45 13 -74q16 -37 44 -37q13 0 28 9q6 4 18 12.5t29 22.5
q31 24 35 24q1 -1 1 -2q0 -8 -56 -76q-2 -7 -8 -12l-36 -6q-2 0 -4 -3.5t-6 -3.5l-8 -1l-3 -1q9 -5 18 0q4 1 6 3v-5q-10 -1 -21.5 -2.5t-25.5 -4.5q-3 -2 -3 -3q2 -2 7 -2q4 -1 9.5 1t8.5 2q7 -1 6 -2q-11 -15 -56 -15q-8 0 -18 2q-17 4 -46 38q-27 32 -34 32
q-15 1 -39 -16q-29 -21 -31 -21l-3 -1v3q7 5 4 5q-48 -17 -102 -33q-3 0 -8 3.5l-10 7t-9.5 6.5t-6.5 3q-1 0 -1 -1q1 -1 3 -7q-1 -1 -1 -5q-18 10 -18 42q0 84 30 150q41 90 68 112q38 51 115 83q57 25 95 25q16 0 30 -6t24 -11.5t17 -10.5q10 -7 13 -22q5 -28 5 -29
q0 -8 -12 -15q-20 -11 -24 -15q-5 -5 -14 -23q-8 -14 -27 -20q-8 -2 -16 8q-9 11 -11 11zM79 -33h-2l-1 2v1l1 1h2l1 -1v-2zM93 -99q2 8 13.5 16.5t18.5 8.5h16t16 -1q24 -2 38 -17q24 -26 24 -63q0 -14 -16.5 -28.5t-39.5 -18.5q-13 -1 -27 -2.5t-30 -5.5q-1 -1 -2 -1
q-3 0 -9 14l-7 17q-2 1 5 10q2 2 4 5t4 5q1 3 -1.5 6t-6.5 6.5t-7 7t-3 6.5t1 5z" />
    <glyph glyph-name="Ahookabove" unicode="&#x1ea2;" horiz-adv-x="489" 
d="M161 283q1 3 4 14.5t8 31.5q2 16 5 37t8 48q11 46 11 73q0 23 -14 49q-12 19 -12 29q0 21 24 21q18 0 54 -11l33 -10v2q0 1 -2 9q-5 10 -8 11q-13 13 -13 19q0 7 13 19q4 3 10 3q17 0 46 -15q24 -13 32 -22q20 -23 20 -102v-36q-1 -5 -1 -21v-15q0 -37 5 -62
q0 -14 2.5 -35.5t7.5 -49.5l89 -14q24 -4 38 -18q4 -2 2 -5q-2 -2 -3 -2h-2l-20 6q1 -3 5.5 -11.5t4.5 -11.5q0 -6 -10 -5l-19 3q-1 -1 -1 -4l18 -7q2 0 3 -1q0 -5 -19 -4q-10 1 -24.5 3t-34.5 5q-29 4 -31 2q-1 -1 0 -17q1 -11 1.5 -18.5t0.5 -12.5q0 -9 1 -24.5t3 -38.5
q3 -31 4.5 -52t2.5 -32q2 -34 12 -62q10 -27 10 -31q2 -15 4.5 -42t6.5 -67q1 -3 1.5 -8t2.5 -13q-2 -3 -6 -2q-5 1 -7 5l-7 27q-3 12 -5 1t3 -31l17 -79q4 -22 -9 -22q-4 0 -5 1q-5 -3 -11 -3q-1 2 -12.5 40t-34.5 113q-15 51 -30 142t-31 225q-2 5 -10 6q-7 1 -17 0
l-13 -1q-6 0 -19.5 2.5t-20.5 2.5q-18 0 -19 -10l-24 -126q-1 -5 0.5 -18.5t3.5 -36.5q6 -47 6 -75q0 -49 -20 -71q-24 -26 -48 -26q-7 0 -12 5l-43 48q-17 20 -17 61q0 26 7 36q19 12 51 48l2 6q20 61 36 151q0 3 -4 3q4 0 -0.5 0.5t-17.5 1.5q-10 1 -16 0.5t-10 -1.5h-27
l-55 -4q-31 -1 -31 16q0 3 2.5 10.5t2.5 8.5l-8 5v-11q-4 3 -4 5q0 1 1 2h4.5t7.5 -1q3 -1 8 -1q2 0 2 1t-5 6.5t-5 7.5q1 1 1 2q54 26 113 25q55 -2 57 0zM417 -176q-5 -2 -6 6q-2 8 2 8q4 -7 4 -14zM259 278q7 0 24 -3q11 -3 14 0q-1 5 -6 25q-4 19 -4 43q1 60 1.5 94
t-0.5 42q-2 2 -4 2q-6 0 -13 -15q-6 -10 -13.5 -26.5t-15.5 -40.5l-7 -74q-4 -9 -5 -17q-5 -18 -5 -22q0 -7 4 -7zM203 879q2 -8 2 -9q0 -8 -10 -8q-19 0 -51 20q-33 21 -33 40q0 7 7 11q42 28 76 35q25 6 83 6q121 0 165 -75q6 -6 10 -9q7 -8 7 -14q0 -49 -11 -76
q-11 -29 -45 -65q-5 -12 -27 -31q-14 -8 -28 -16.5t-28 -16.5q-4 -2 -33 4q-3 -3 -11 -5q-1 4 3 5l3 2q2 2 -1 4q-19 12 -19 27q0 9 7 10q16 2 31.5 5t31.5 5q52 9 87 47q12 12 25 50q7 22 5 28q-10 10 -10 17q1 1 1 2q2 -2 5 0q3 4 -1 7q-14 9 -23 15t-14 9q-8 7 -19.5 14
t-26.5 15h-1q4 -1 4 -2t-1 -2q-1 -3 -23 -1q-7 1 -26 3q-22 0 -35.5 -0.5t-18.5 -1.5q-22 -4 -46 -27q-15 -12 -14 -15zM209 883l-2 -1l-2 2v1h1q2 0 3 -1v-1zM383 933l-1 1h-3h-1q1 -3 4 -3zM345 935q-5 2 -6 -1h-1q0 -1 1 -1q2 -2 7 0q-2 -1 7 -1h3l-11 3v0zM336 937h-4
q-2 -1 0 -1l4 -1v2zM313 940q9 -2 7 0h-7v0zM383 946q0 3 -5 3q1 -3 5 -3z" />
    <glyph glyph-name="ahookabove" unicode="&#x1ea3;" horiz-adv-x="434" 
d="M255 256q-82 -5 -158 -99q-14 -17 -27 -51q-16 -38 -16 -62q0 -25 24 -25q23 0 56 16q50 23 70 49q16 19 30 71v43q0 29 15 29q8 0 37 -18q5 -7 15 -16.5t25 -20.5q-3 -14 -3 -33q0 -45 13 -74q16 -37 44 -37q13 0 28 9q6 4 18 12.5t29 22.5q31 24 35 24q1 -1 1 -2
q0 -8 -56 -76q-2 -7 -8 -12l-36 -6q-2 0 -4 -3.5t-6 -3.5l-8 -1l-3 -1q9 -5 18 0q4 1 6 3v-5q-10 -1 -21.5 -2.5t-25.5 -4.5q-3 -2 -3 -3q2 -2 7 -2q4 -1 9.5 1t8.5 2q7 -1 6 -2q-11 -15 -56 -15q-8 0 -18 2q-17 4 -46 38q-27 32 -34 32q-15 1 -39 -16q-29 -21 -31 -21
l-3 -1v3q7 5 4 5q-48 -17 -102 -33q-3 0 -8 3.5l-10 7t-9.5 6.5t-6.5 3q-1 0 -1 -1q1 -1 3 -7q-1 -1 -1 -5q-18 10 -18 42q0 54 45 152q39 85 58 101q39 51 90 82q59 35 115 35q16 0 30 -6t24 -11.5t17 -10.5q10 -7 13 -22q5 -28 5 -29q0 -8 -12 -15q-20 -11 -24 -15
q-5 -5 -14 -23q-8 -14 -27 -20q-8 -2 -16 8q-9 11 -11 11zM79 -33h-2l-1 2v1l1 1h2l1 -1v-2zM265 641q3 -6 3 -10q0 -9 -12 -9q-22 0 -56 22q-37 24 -37 44q0 7 8 13q46 32 66 40q33 12 99 12q130 0 180 -84l5 -5t6 -5q8 -11 8 -16q-2 -55 -12 -83q-11 -31 -50 -73
q-7 -13 -30 -34q-16 -10 -31.5 -19t-30.5 -17q-5 -3 -37 4q-3 -3 -12 -5q-1 4 3 5l4 2q2 2 -2 5q-20 14 -20 30q0 7 7 11q17 2 35 5t35 6q58 9 97 52q13 15 27 56q8 26 6 29q-11 14 -11 20q0 1 1 2q1 -1 2 -1q2 0 3 1q3 3 -1 8q-15 10 -25.5 16.5t-15.5 10.5q-17 15 -48 33
h-1q5 -2 5 -3l-1 -1q-3 -4 -26 -1q-12 2 -29 3q-51 0 -67 -9q-17 -15 -33.5 -29.5t-15.5 -17.5zM272 645l-2 -1l-2 2v2h1q1 -1 1.5 -1t1.5 -1v-1zM453 708l-1 2h-3l-1 -1q1 -3 4 -3zM411 711q-4 1 -6 -1l-1 -1l4 -2q3 0 4 1q-2 -1 8 -1h3l-12 4v0zM402 713h-5q-2 -1 0 -1
l5 -1v2zM376 716h8h-1h-7zM453 723q0 3 -5 3q1 -3 5 -3z" />
    </font>
</defs>
</svg>
