<?xml version="1.0" standalone="no"?>
<!DOCTYPE svg PUBLIC "-//W3C//DTD SVG 1.1//EN" "http://www.w3.org/Graphics/SVG/1.1/DTD/svg11.dtd" >
<svg xmlns="http://www.w3.org/2000/svg" xmlns:xlink="http://www.w3.org/1999/xlink" version="1.1">
<metadata>
Created by FontForge 20170731 at Tue Feb 15 19:12:52 2011
 By Aleksey,,,
(c) Copyright 2005 by Tong Duc Thinh. All Rights Reserved
</metadata>
<defs>
<font id="SFUVectoraLH-BlackItalic" horiz-adv-x="630" >
  <font-face 
    font-family="SFU Vectora LH"
    font-weight="900"
    font-style="italic"
    font-stretch="normal"
    units-per-em="1000"
    panose-1="0 0 3 0 0 0 0 0 0 0"
    ascent="800"
    descent="-200"
    x-height="603"
    cap-height="712"
    bbox="-166 -250 1148 1225"
    underline-thickness="50"
    underline-position="-200"
    slope="-12"
    unicode-range="U+0020-F002"
  />
<missing-glyph horiz-adv-x="852" 
d="M214 347q-76 0 -114 39.5t-38 104.5q0 38 13.5 79t38 77t65.5 59t90 23q66 0 111.5 -34t45.5 -110q0 -41 -12.5 -81.5t-37 -76t-67 -58t-95.5 -22.5zM266 649q-38 0 -63.5 -47t-25.5 -113q0 -62 45 -62q38 0 63.5 47t25.5 113q0 62 -45 62zM578 -14q-76 0 -114 39.5
t-38 104.5q0 38 13.5 79t38 77t65.5 59t90 23q66 0 111.5 -34t45.5 -110q0 -41 -12.5 -81.5t-37 -76t-67 -58t-95.5 -22.5zM630 288q-38 0 -63.5 -47t-25.5 -113q0 -62 45 -62q38 0 63.5 47t25.5 113q0 62 -45 62zM113 -24l539 763h85l-539 -763h-85z" />
    <glyph glyph-name=".notdef" horiz-adv-x="852" 
d="M214 347q-76 0 -114 39.5t-38 104.5q0 38 13.5 79t38 77t65.5 59t90 23q66 0 111.5 -34t45.5 -110q0 -41 -12.5 -81.5t-37 -76t-67 -58t-95.5 -22.5zM266 649q-38 0 -63.5 -47t-25.5 -113q0 -62 45 -62q38 0 63.5 47t25.5 113q0 62 -45 62zM578 -14q-76 0 -114 39.5
t-38 104.5q0 38 13.5 79t38 77t65.5 59t90 23q66 0 111.5 -34t45.5 -110q0 -41 -12.5 -81.5t-37 -76t-67 -58t-95.5 -22.5zM630 288q-38 0 -63.5 -47t-25.5 -113q0 -62 45 -62q38 0 63.5 47t25.5 113q0 62 -45 62zM113 -24l539 763h85l-539 -763h-85z" />
    <glyph glyph-name=".null" horiz-adv-x="0" 
 />
    <glyph glyph-name="nonmarkingreturn" horiz-adv-x="333" 
 />
    <glyph glyph-name="space" unicode=" " horiz-adv-x="296" 
 />
    <glyph glyph-name="exclam" unicode="!" horiz-adv-x="370" 
d="M94 245l69 467h181l-117 -467h-133zM36 0l30 156h156l-30 -156h-156z" />
    <glyph glyph-name="quotedbl" unicode="&#x22;" horiz-adv-x="537" 
d="M336 507v270h120v-270h-120zM140 507v270h120v-270h-120z" />
    <glyph glyph-name="numbersign" unicode="#" horiz-adv-x="592" 
d="M276 0l37 200h-94l-37 -200h-100l37 200h-84l18 95h84l24 122h-84l18 95h84l37 200h100l-37 -200h94l37 200h100l-37 -200h84l-18 -95h-84l-24 -122h84l-18 -95h-84l-37 -200h-100zM331 295l24 122h-94l-24 -122h94z" />
    <glyph glyph-name="dollar" unicode="$" horiz-adv-x="592" 
d="M295 267l-31 -145q92 5 92 74q0 24 -14.5 39.5t-46.5 31.5zM286 462l27 128q-31 -4 -51.5 -21.5t-20.5 -46.5q0 -38 45 -60zM-30 167l174 53q3 -28 20 -57t52 -38l35 162l-89 40q-115 54 -115 170q0 103 82 167.5t211 64.5l15 75h48l-16 -75q97 -9 151 -57t58 -111
l-172 -47q-12 67 -63 75l-31 -147l78 -35q70 -32 108 -74t38 -107q0 -43 -17 -84t-52 -77.5t-99 -59t-149 -22.5l-14 -66h-48l14 69q-65 7 -111.5 31t-67.5 54.5t-29.5 53.5t-10.5 42z" />
    <glyph glyph-name="percent" unicode="%" horiz-adv-x="1111" 
d="M670 -14q-64 0 -102 33.5t-38 104.5q0 90 50.5 163t141.5 73q64 0 102 -33.5t38 -104.5q0 -90 -50.5 -163t-141.5 -73zM675 61q28 0 47 28t27 65.5t8 78.5q0 52 -40 52q-28 0 -47 -28t-27 -65.5t-8 -78.5q0 -52 40 -52zM349 355q-64 0 -102 33.5t-38 104.5q0 90 50.5 163
t141.5 73q64 0 102 -33.5t38 -104.5q0 -90 -50.5 -163t-141.5 -73zM354 430q28 0 47 28t27 65.5t8 78.5q0 52 -40 52q-28 0 -47 -28t-27 -65.5t-8 -78.5q0 -52 40 -52zM223 -24l541 763h84l-540 -763h-85z" />
    <glyph glyph-name="ampersand" unicode="&#x26;" horiz-adv-x="796" 
d="M527 0l-43 50q-100 -64 -233 -64q-66 0 -114.5 18.5t-74 49t-37 63t-11.5 66.5q0 42 15 77t32 55.5t48.5 40.5t44.5 25.5t40 16.5q-20 20 -31 33t-24 42t-13 60q0 94 75 145t181 51t164 -45t58 -119q0 -41 -16.5 -74t-49.5 -57.5t-53 -35t-55 -26.5q-8 -3 -11 -5
l113 -142q34 21 51.5 69.5t17.5 82.5h153q0 -53 -30.5 -117.5t-83.5 -103.5l-31 -23l116 -133h-198zM296 538q0 -8 1.5 -15.5t4.5 -15t5.5 -12.5t8.5 -12t8 -9.5t8.5 -10t7.5 -8.5q101 40 101 89q0 62 -71 62q-32 0 -53 -19.5t-21 -48.5zM192 194q0 -85 105 -85q67 0 117 29
l-135 162q-40 -18 -63.5 -46t-23.5 -60z" />
    <glyph glyph-name="quotesingle" unicode="'" horiz-adv-x="296" 
d="M128 507v270h120v-270h-120z" />
    <glyph glyph-name="parenleft" unicode="(" horiz-adv-x="352" 
d="M294 785l84 -73q-90 -117 -124 -177q-93 -162 -93 -342q0 -75 16.5 -160t43.5 -134l-102 -56q-36 72 -54.5 115t-35.5 115.5t-17 148.5q0 64 11.5 124.5t36 114t47.5 95t61.5 88.5t62 73t63.5 68z" />
    <glyph glyph-name="parenright" unicode=")" horiz-adv-x="352" 
d="M38 -157l-84 73q90 117 124 177q93 162 93 342q0 74 -17 158t-43 136l102 56q36 -72 54.5 -115t35.5 -115.5t17 -148.5q0 -64 -11.5 -124.5t-36 -114t-47.5 -95t-61.5 -88.5t-62 -73t-63.5 -68z" />
    <glyph glyph-name="asterisk" unicode="*" horiz-adv-x="481" 
d="M54 520l47 97l134 -60l15 155h106l-41 -155l152 60l16 -98l-159 -36l81 -119l-92 -59l-61 133l-105 -131l-73 62l120 114z" />
    <glyph glyph-name="plus" unicode="+" horiz-adv-x="600" 
d="M240 0v193h-193v120h193v193h120v-193h193v-120h-193v-193h-120z" />
    <glyph glyph-name="comma" unicode="," horiz-adv-x="296" 
d="M-60 -114l123 270h156l-146 -270h-133z" />
    <glyph glyph-name="hyphen" unicode="-" horiz-adv-x="296" 
d="M2 244l24 126h248l-24 -126h-248z" />
    <glyph glyph-name="period" unicode="." horiz-adv-x="296" 
d="M2 0l30 156h156l-30 -156h-156z" />
    <glyph glyph-name="slash" unicode="/" horiz-adv-x="407" 
d="M-75 0l452 746l105 -34l-452 -746z" />
    <glyph glyph-name="zero" unicode="0" horiz-adv-x="592" 
d="M6 226q0 75 11.5 145t38.5 135.5t66.5 114.5t100 78.5t135.5 29.5q107 0 166.5 -58t59.5 -167q0 -65 -9.5 -131.5t-34.5 -137.5t-62.5 -125t-99 -89t-138.5 -35q-234 0 -234 240zM246 106q49 0 76 42t58 160q26 114 26 203q0 48 -15.5 70t-51.5 22q-47 0 -80.5 -57.5
t-48 -137.5t-20.5 -134t-6 -78q0 -42 16 -66t46 -24z" />
    <glyph glyph-name="one" unicode="1" horiz-adv-x="592" 
d="M220 0l99 517l-171 -120l-68 119l288 196h172l-136 -712h-184z" />
    <glyph glyph-name="two" unicode="2" horiz-adv-x="592" 
d="M-34 0l25 132l305 251q96 79 96 146q0 35 -20 54.5t-53 19.5q-49 0 -72 -38.5t-23 -76.5l-162 30q48 211 273 211q113 0 174 -49t61 -136q0 -75 -33 -126t-97 -103l-227 -187v-2h277l-24 -126h-500z" />
    <glyph glyph-name="three" unicode="3" horiz-adv-x="592" 
d="M0 177l163 35q0 -100 75 -100q41 0 69.5 34t28.5 77q0 42 -25.5 59.5t-61.5 17.5q-33 0 -49 -4l25 137q26 0 41 0.5t41.5 6t41.5 15t27 29.5t12 49q0 35 -20.5 52.5t-48.5 17.5q-42 0 -62.5 -28.5t-20.5 -51.5l-150 44q65 162 252 162q115 0 171.5 -51t56.5 -124
q0 -76 -56 -124t-126 -55v-2q57 -9 95 -48.5t38 -105.5q0 -93 -74 -163t-205 -70q-71 0 -121 19.5t-73 52t-32.5 60t-11.5 59.5z" />
    <glyph glyph-name="four" unicode="4" horiz-adv-x="592" 
d="M250 0l21 110h-301l29 154l372 448h181l-91 -476h89l-24 -126h-89l-21 -110h-166zM301 236l45 212q8 37 25 87l-2 2q-11 -24 -48 -67l-193 -234h173z" />
    <glyph glyph-name="five" unicode="5" horiz-adv-x="592" 
d="M584 712l-25 -130h-274l-22 -115q13 6 42 6q114 0 164.5 -59.5t50.5 -149.5q0 -51 -17 -99t-51 -89t-92.5 -65.5t-134.5 -24.5q-109 0 -162 51.5t-53 129.5v16l149 26q-4 -15 -4 -35q0 -28 19.5 -46.5t52.5 -18.5q50 0 81 35.5t31 90.5q0 58 -33.5 86.5t-92.5 28.5
q-71 0 -133 -41l77 403h427z" />
    <glyph glyph-name="six" unicode="6" horiz-adv-x="592" 
d="M550 712l-268 -270l2 -2q39 13 79 13q74 0 120.5 -51t46.5 -142q0 -122 -76.5 -198t-209.5 -76q-113 0 -173.5 59t-60.5 163q0 135 100 251l216 253h224zM251 112q48 0 74.5 42t26.5 98q0 40 -18.5 59t-48.5 19q-40 0 -55 -9l-8 -11q-7 -12 -12 -22t-12 -26t-10.5 -34.5
t-3.5 -37.5q0 -38 18.5 -58t48.5 -20z" />
    <glyph glyph-name="seven" unicode="7" horiz-adv-x="592" 
d="M-34 0l409 573h-285l26 139h490l-24 -125l-410 -587h-206z" />
    <glyph glyph-name="eight" unicode="8" horiz-adv-x="592" 
d="M6 160q0 35 11.5 65t26 49t42 38.5t44 28.5t48.5 24q-93 52 -93 154q0 83 70.5 146.5t196.5 63.5q96 0 160 -42t64 -120q0 -18 -5 -38.5t-19.5 -52.5t-51.5 -59.5t-92 -41.5v-2q40 -15 75 -53.5t35 -100.5q0 -103 -70.5 -168.5t-209.5 -65.5q-107 0 -169.5 45.5
t-62.5 129.5zM184 176q0 -71 72 -71q36 0 62 27.5t26 68.5q0 63 -61 96q-21 -9 -35 -17t-30.5 -22t-25 -35t-8.5 -47zM251 529q0 -8 1.5 -15t3 -13t5.5 -12t6 -10t8 -10t8 -8.5t9 -7.5t8.5 -6t8.5 -6l7 -5q94 44 94 107q0 32 -20.5 49t-55.5 17t-59 -21.5t-24 -58.5z" />
    <glyph glyph-name="nine" unicode="9" horiz-adv-x="592" 
d="M30 0l268 273l-2 2q-28 -16 -71 -16q-71 0 -122.5 48.5t-51.5 139.5q0 129 79.5 205.5t207.5 76.5q116 0 175 -61.5t59 -160.5q0 -147 -130 -296l-186 -211h-226zM229 463q0 -40 18 -59t47 -19q40 0 55 9q1 1 6 9.5t9 15.5t10 20t10 25t7 28.5t3 32.5q0 39 -18 58.5
t-48 19.5q-48 0 -73.5 -42t-25.5 -98z" />
    <glyph glyph-name="colon" unicode=":" horiz-adv-x="296" 
d="M2 0l30 156h156l-30 -156h-156zM87 447l30 156h156l-30 -156h-156z" />
    <glyph glyph-name="semicolon" unicode=";" horiz-adv-x="296" 
d="M-60 -114l123 270h156l-146 -270h-133zM87 447l30 156h156l-30 -156h-156z" />
    <glyph glyph-name="less" unicode="&#x3c;" horiz-adv-x="600" 
d="M47 206v94l506 214v-115l-350 -146l350 -146v-115z" />
    <glyph glyph-name="equal" unicode="=" horiz-adv-x="600" 
d="M47 305v120h506v-120h-506zM47 81v120h506v-120h-506z" />
    <glyph glyph-name="greater" unicode="&#x3e;" horiz-adv-x="600" 
d="M553 300v-94l-506 -214v115l350 146l-350 146v115z" />
    <glyph glyph-name="question" unicode="?" horiz-adv-x="556" 
d="M184 245l14 73q6 36 53 71l75 57q20 15 31.5 25.5t21.5 29t10 38.5q0 30 -19 47t-50 17q-24 0 -42 -8.5t-27 -17t-15.5 -25.5t-7.5 -21.5t-3 -16.5l-149 29q0 13 13 40.5t39.5 61.5t78.5 59t117 25q115 0 171.5 -47t56.5 -124q0 -100 -97 -164l-88 -57q-34 -25 -41 -57
l-6 -35h-136zM135 0l30 156h156l-30 -156h-156z" />
    <glyph glyph-name="at" unicode="@" horiz-adv-x="800" 
d="M297 334q0 -36 21.5 -61t57.5 -25q46 0 73.5 32t27.5 76t-20.5 67.5t-57.5 23.5q-45 0 -73.5 -33t-28.5 -80zM516 536h95l-43 -232q-6 -30 -6 -38q0 -24 23 -24q35 0 63 38.5t28 113.5q0 245 -276 245q-121 0 -198.5 -78.5t-77.5 -197.5q0 -135 77 -212.5t200 -77.5
q139 0 220 62h98q-111 -152 -319 -152q-153 0 -259.5 107t-106.5 273q0 153 109 259.5t257 106.5q161 0 263.5 -80.5t102.5 -222.5q0 -66 -19.5 -117.5t-47.5 -79.5t-63.5 -46.5t-62 -24t-47.5 -5.5q-65 0 -80 45h-2q-45 -45 -106 -45q-56 0 -98.5 47t-42.5 116
q0 103 56.5 164.5t140.5 61.5q39 0 64.5 -12.5t48.5 -42.5z" />
    <glyph glyph-name="A" unicode="A" horiz-adv-x="759" 
d="M494 0l-18 146h-258l-78 -146h-207l399 712h248l110 -712h-196zM459 285l-24 191q-6 54 -6 91h-5q-28 -72 -37 -89l-95 -193h167z" />
    <glyph glyph-name="B" unicode="B" horiz-adv-x="685" 
d="M0 0l136 712h329q93 0 145 -40.5t52 -119.5q0 -36 -12 -70t-51 -68t-101 -45v-7q53 -9 86 -47t33 -99q0 -93 -73 -154.5t-189 -61.5h-355zM271 432h102q98 0 98 79q0 62 -78 62h-96zM215 139h106q54 0 81 21t27 70q0 29 -19 46t-49 17h-117z" />
    <glyph glyph-name="C" unicode="C" horiz-adv-x="704" 
d="M700 510l-184 -35q-3 39 -25.5 72t-71.5 33q-51 0 -90 -32t-60 -82.5t-31 -103.5t-10 -105q0 -129 106 -129q30 0 56.5 14.5t43.5 36t27 37.5t14 28l167 -39q-3 -12 -9.5 -30.5t-29.5 -54.5t-54.5 -64.5t-89 -50.5t-127.5 -22q-142 0 -224.5 75t-82.5 224
q0 84 25.5 162.5t75 143t130.5 103t182 38.5q64 0 114 -20t76 -46.5t43.5 -61.5t22 -54.5t6.5 -36.5z" />
    <glyph glyph-name="D" unicode="D" horiz-adv-x="759" 
d="M0 0l136 712h286q141 0 219.5 -80t78.5 -222q0 -176 -111.5 -293t-279.5 -117h-329zM222 145h90q102 0 153.5 78t51.5 194q0 66 -34.5 106t-103.5 40h-77z" />
    <glyph glyph-name="E" unicode="E" 
d="M0 0l136 712h498l-27 -145h-304l-26 -132h286l-28 -145h-285l-28 -145h313l-28 -145h-507z" />
    <glyph glyph-name="F" unicode="F" horiz-adv-x="611" 
d="M0 0l136 712h498l-27 -145h-304l-30 -151h294l-27 -145h-294l-52 -271h-194z" />
    <glyph glyph-name="G" unicode="G" horiz-adv-x="741" 
d="M472 271h-105l27 139h289l-66 -344q-138 -83 -285 -83q-142 0 -224.5 75t-82.5 224q0 67 16 130.5t50 121t82 101t116 69t149 25.5q64 0 114.5 -16t78.5 -37.5t47 -50t25.5 -47.5t8.5 -35l-187 -45q-17 86 -105 86q-54 0 -94 -34t-60 -87t-29 -104t-9 -99q0 -66 32.5 -99
t91.5 -33q43 0 97 26z" />
    <glyph glyph-name="H" unicode="H" horiz-adv-x="759" 
d="M432 0l57 301h-238l-57 -301h-194l136 712h194l-51 -266h238l51 266h194l-136 -712h-194z" />
    <glyph glyph-name="I" unicode="I" horiz-adv-x="333" 
d="M0 0l136 712h194l-136 -712h-194z" />
    <glyph glyph-name="J" unicode="J" horiz-adv-x="463" 
d="M183 265l87 447h194l-90 -473q-26 -134 -99 -195t-201 -61q-91 0 -159 49l101 131q35 -35 75 -35q66 0 92 137z" />
    <glyph glyph-name="K" unicode="K" horiz-adv-x="722" 
d="M0 0l136 712h194l-53 -275l2 -2l252 277h242l-333 -337l216 -375h-224l-178 317l-60 -317h-194z" />
    <glyph glyph-name="L" unicode="L" horiz-adv-x="537" 
d="M0 0l137 712h193l-107 -559h267l-29 -153h-461z" />
    <glyph glyph-name="M" unicode="M" horiz-adv-x="1000" 
d="M674 0l89 468q9 48 27 99h-10q-4 -8 -16.5 -37.5t-20.5 -45.5l-241 -484h-144l-55 458q-2 17 -5.5 53.5t-5.5 55.5h-7q-3 -16 -8 -57t-10 -67l-86 -443h-181l136 712h294l35 -291q10 -79 10 -126q0 -33 -2 -54h8q13 43 48 115l176 356h289l-136 -712h-184z" />
    <glyph glyph-name="N" unicode="N" horiz-adv-x="796" 
d="M0 0l136 712h246l112 -414q5 -19 13 -54t11 -46h8q0 3 3.5 38.5t8.5 59.5l80 416h181l-136 -712h-249l-111 382q-12 39 -27 127h-5q-7 -81 -16 -125l-74 -384h-181z" />
    <glyph glyph-name="O" unicode="O" horiz-adv-x="778" 
d="M745 428q0 -66 -16 -130t-50 -121t-82 -100t-116 -68.5t-149 -25.5q-144 0 -225.5 75t-81.5 204q0 68 16 133.5t49.5 126t81 106.5t116.5 73.5t150 27.5q141 0 224 -76t83 -225zM542 444q0 136 -112 136q-46 0 -82.5 -23t-58 -57t-36 -78.5t-20 -83t-5.5 -74.5
q0 -136 112 -136q46 0 82.5 23t58 58t36 79t20 82.5t5.5 73.5z" />
    <glyph glyph-name="P" unicode="P" 
d="M0 0l136 712h287q112 0 173.5 -48t61.5 -145q0 -131 -80.5 -204.5t-202.5 -73.5h-135l-46 -241h-194zM267 386h101q45 0 73.5 27.5t28.5 72.5q0 46 -20 63.5t-64 17.5h-84z" />
    <glyph glyph-name="Q" unicode="Q" horiz-adv-x="778" 
d="M576 -86l-117 -109l-273 204q-161 64 -161 273q0 67 16 130.5t50 121t82 101t116 69t149 25.5q141 0 224 -76t83 -225q0 -95 -31.5 -181t-99.5 -154t-163 -93zM542 444q0 136 -112 136q-46 0 -82.5 -23t-58 -57t-36 -78.5t-20 -83t-5.5 -74.5q0 -136 112 -136
q46 0 82.5 23t58 58t36 79t20 82.5t5.5 73.5z" />
    <glyph glyph-name="R" unicode="R" horiz-adv-x="685" 
d="M389 0l-68 277h-74l-53 -277h-194l136 712h301q223 0 223 -186q0 -57 -17 -100.5t-44.5 -67.5t-54 -37t-53.5 -16l95 -305h-197zM274 416h97q43 0 72 23t29 70q0 33 -16.5 48.5t-57.5 15.5h-94z" />
    <glyph glyph-name="S" unicode="S" horiz-adv-x="648" 
d="M1 167l174 53q17 -98 107 -98q105 0 105 74q0 28 -21 45t-67 38l-106 48q-115 54 -115 170q0 103 82 167.5t211 64.5q120 0 186 -49t70 -119l-172 -47q-11 76 -93 76q-36 0 -63 -17.5t-27 -50.5q0 -16 5.5 -27.5t19.5 -21t21.5 -13t28.5 -12.5l92 -41q70 -32 108 -74
t38 -107q0 -43 -17 -84t-51.5 -77.5t-97 -59t-145.5 -22.5q-66 0 -117.5 16t-79 37.5t-45.5 49.5t-23.5 46.5t-7.5 34.5z" />
    <glyph glyph-name="T" unicode="T" horiz-adv-x="574" 
d="M122 0l107 559h-186l29 153h566l-29 -153h-186l-107 -559h-194z" />
    <glyph glyph-name="U" unicode="U" horiz-adv-x="741" 
d="M53 300l78 412h195l-76 -394q-15 -75 -15 -110q0 -36 24.5 -58t65.5 -22q72 0 101 34.5t43 105.5l85 444h188l-85 -440q-29 -148 -106 -218.5t-239 -70.5q-122 0 -196.5 56.5t-74.5 166.5q0 17 12 94z" />
    <glyph glyph-name="V" unicode="V" horiz-adv-x="704" 
d="M145 0l-79 712h199l34 -446q1 -12 1 -96h4q6 22 41 93l222 449h203l-375 -712h-250z" />
    <glyph glyph-name="W" unicode="W" horiz-adv-x="1019" 
d="M540 0l8 464q1 58 7 103h-7q-8 -37 -30 -101l-174 -466h-240l-24 712h184l-4 -459q-1 -24 -2.5 -62.5t-1.5 -45.5h7q13 56 32 111l161 456h244v-452q0 -36 -9 -115h7q19 89 39 145l154 422h188l-294 -712h-245z" />
    <glyph glyph-name="X" unicode="X" horiz-adv-x="722" 
d="M442 0l-68 182q-20 53 -21 82h-5q-14 -32 -48 -78l-140 -186h-225l302 374l-150 338h209l55 -156q16 -45 23 -90h6q14 30 52 85l112 161h220l-274 -347l160 -365h-208z" />
    <glyph glyph-name="Y" unicode="Y" horiz-adv-x="722" 
d="M196 0l50 262l-174 450h210l65 -200q3 -9 18 -91h5q26 54 43 79l147 212h226l-346 -450l-50 -262h-194z" />
    <glyph glyph-name="Z" unicode="Z" horiz-adv-x="611" 
d="M-40 0l33 172l399 391h-310l29 149h535l-32 -169l-406 -394h331l-29 -149h-550z" />
    <glyph glyph-name="bracketleft" unicode="[" horiz-adv-x="296" 
d="M-22 -130l169 888h225l-16 -85h-79l-137 -718h79l-16 -85h-225z" />
    <glyph glyph-name="backslash" unicode="\" horiz-adv-x="407" 
d="M377 -34l-452 746l105 34l452 -746z" />
    <glyph glyph-name="bracketright" unicode="]" horiz-adv-x="296" 
d="M-96 -130l16 85h79l137 718h-79l16 85h225l-169 -888h-225z" />
    <glyph glyph-name="asciicircum" unicode="^" horiz-adv-x="600" 
d="M188 347h-115l174 365h106l174 -365h-115l-112 245z" />
    <glyph glyph-name="underscore" unicode="_" horiz-adv-x="500" 
d="M500 -125h-500v50h500v-50z" />
    <glyph glyph-name="grave" unicode="`" horiz-adv-x="278" 
d="M22 804h204l104 -145h-129z" />
    <glyph glyph-name="a" unicode="a" horiz-adv-x="611" 
d="M304 0l16 76h-2q-58 -54 -98 -72t-80 -18q-62 0 -103 39t-41 116q0 114 85.5 174t222.5 64l76 2q8 43 8 59q0 54 -64 54q-17 0 -32.5 -7t-26.5 -19t-17.5 -21.5t-13.5 -22.5l-6 -13l-156 48q75 158 261 158q107 0 170 -43t63 -137q0 -33 -11 -91l-51 -270
q-11 -53 -12 -76h-188zM341 179l17 92l-52 -2q-126 -5 -126 -83q0 -21 13.5 -38.5t38.5 -17.5q23 0 56.5 16.5t52.5 32.5z" />
    <glyph glyph-name="b" unicode="b" horiz-adv-x="667" 
d="M-6 0l148 777h188l-45 -236l2 -2q28 32 71 55t86 23q63 0 103.5 -32.5t56 -79t15.5 -105.5q0 -71 -16.5 -141t-48 -132.5t-86.5 -101.5t-125 -39q-57 0 -94.5 23t-51.5 58h-2l-13 -67h-188zM264 429l-47 -247q31 -57 81 -57q39 0 69.5 42t45.5 101t15 119q0 91 -68 91
q-27 0 -54 -15.5t-42 -33.5z" />
    <glyph glyph-name="c" unicode="c" horiz-adv-x="574" 
d="M356 219l163 -40q-31 -84 -98 -138.5t-165 -54.5q-113 0 -176.5 67t-63.5 182q0 51 10 102t33 102t57.5 90t88 63.5t119.5 24.5q115 0 174 -51.5t63 -132.5l-167 -43q4 17 4 35q0 27 -18 44.5t-51 17.5q-38 0 -66 -34.5t-40.5 -86.5t-17.5 -94.5t-5 -75.5q0 -77 70 -77
q37 0 59 31.5t27 68.5z" />
    <glyph glyph-name="d" unicode="d" horiz-adv-x="667" 
d="M344 0l11 59l-2 2q-27 -34 -70 -54.5t-90 -20.5q-85 0 -127.5 60t-42.5 148q0 79 16.5 152.5t49 135t87 98.5t123.5 37q95 0 148 -78l45 238h188l-148 -777h-188zM377 174l49 257q-29 47 -79 47q-45 0 -77 -45.5t-44 -101.5t-12 -112q0 -44 15 -66.5t56 -22.5q46 0 92 44
z" />
    <glyph glyph-name="e" unicode="e" 
d="M382 192l155 -53q-14 -21 -26 -37t-36.5 -39.5t-50 -38.5t-64.5 -26.5t-83 -11.5q-127 0 -194.5 66.5t-67.5 182.5q0 98 40 184.5t117.5 142t173.5 55.5q124 0 189 -64t65 -185q0 -83 -16 -121h-381q-7 -17 -7 -46q0 -82 83 -82q35 0 63.5 24.5t39.5 48.5zM221 370h195
q6 16 6 42q0 37 -24 56t-59 19q-36 0 -62.5 -21.5t-37.5 -44.5t-18 -51z" />
    <glyph glyph-name="f" unicode="f" horiz-adv-x="407" 
d="M27 0l81 424h-86l25 130h86l15 79q17 87 87 133t165 46q75 0 115 -14l-24 -125q-41 9 -70 9q-39 0 -62 -24t-28 -51l-11 -53h124l-25 -130h-123l-81 -424h-188z" />
    <glyph glyph-name="g" unicode="g" 
d="M653 503h-130q31 -41 31 -92q0 -72 -71.5 -128.5t-183.5 -56.5q-13 0 -28 2t-20 2q-23 0 -23 -21q0 -19 31 -27l115 -30q36 -9 60.5 -18.5t51 -25.5t40 -40.5t13.5 -57.5q0 -88 -89 -150t-246 -62q-119 0 -189 40t-70 102q0 47 38 89.5t89 61.5l21 9q-24 16 -24 51
q0 33 27.5 61.5t55.5 37.5q-99 50 -99 151q0 98 74 157t179 59q28 0 70 -6q46 -8 64 -8h234zM391 424q0 36 -21 53t-54 17q-97 0 -97 -85q0 -32 21.5 -47.5t56.5 -15.5q36 0 65 21t29 57zM285 23l-112 28l-17 -12q-45 -34 -45 -68q0 -58 116 -58q128 0 128 61q0 19 -14 28
t-56 21z" />
    <glyph glyph-name="h" unicode="h" horiz-adv-x="667" 
d="M-6 0l148 777h188l-49 -257q2 1 13.5 10t16 12t17.5 12t20 13.5t20.5 12.5t23 12t22.5 9.5t24 8.5t24 5t25 2q59 0 92.5 -35t33.5 -83q0 -44 -6 -71l-82 -428h-188l69 362q9 43 9 53q0 21 -13 32t-30 11q-32 0 -89 -40l-24 -16l-77 -402h-188z" />
    <glyph glyph-name="i" unicode="i" horiz-adv-x="315" 
d="M-6 0l115 603h188l-115 -603h-188zM119 654l23 123h188l-23 -123h-188z" />
    <glyph glyph-name="j" unicode="j" horiz-adv-x="315" 
d="M3 49l106 554h188l-118 -618q-35 -187 -228 -187q-61 0 -96 15l35 140q18 -10 37 -10q26 0 41.5 15t21 33t13.5 58zM119 654l23 123h188l-23 -123h-188z" />
    <glyph glyph-name="k" unicode="k" horiz-adv-x="648" 
d="M365 0l-126 291h-2l-55 -291h-188l148 777h188l-83 -435l2 -2q20 33 38 56l169 207h224l-259 -287l156 -316h-212z" />
    <glyph glyph-name="l" unicode="l" horiz-adv-x="315" 
d="M-6 0l148 777h188l-148 -777h-188z" />
    <glyph glyph-name="m" unicode="m" horiz-adv-x="981" 
d="M-6 0l115 603h188l-16 -80l2 -2q35 37 86 66.5t99 29.5q57 0 90 -26.5t39 -75.5q109 102 215 102q57 0 89.5 -34.5t32.5 -83.5q0 -44 -6 -71l-81 -428h-188l66 350q9 47 9 62q0 42 -43 42q-13 0 -29.5 -8t-39 -23.5t-31.5 -20.5l-77 -402h-188l67 350q9 47 9 62
q0 42 -43 42q-13 0 -29.5 -8t-39 -23.5t-31.5 -20.5l-77 -402h-188z" />
    <glyph glyph-name="n" unicode="n" horiz-adv-x="667" 
d="M-6 0l115 603h188l-16 -83q127 97 208 97q60 0 92 -34t32 -84q0 -44 -6 -71l-82 -428h-188l69 362q9 43 9 53q0 21 -13 32t-30 11q-32 0 -89 -40l-24 -16l-77 -402h-188z" />
    <glyph glyph-name="o" unicode="o" horiz-adv-x="648" 
d="M12 235q0 50 13.5 102t41.5 102.5t67 90t95.5 63.5t120.5 24q127 0 193.5 -66.5t66.5 -182.5q0 -50 -13.5 -102t-41.5 -102.5t-67 -90t-95.5 -63.5t-120.5 -24q-127 0 -193.5 66.5t-66.5 182.5zM278 119q45 0 79.5 49t49.5 109t15 113q0 94 -78 94q-38 0 -67.5 -26.5
t-45.5 -69t-23.5 -87t-7.5 -88.5q0 -94 78 -94z" />
    <glyph glyph-name="p" unicode="p" horiz-adv-x="667" 
d="M-38 -195l153 798h188l-11 -60h2q27 32 70.5 53t89.5 21q85 0 127.5 -60t42.5 -148q0 -79 -16.5 -152.5t-49 -135t-87 -98.5t-123.5 -37q-95 0 -148 78l-50 -259h-188zM270 429l-49 -257q32 -47 79 -47q36 0 63 25.5t41.5 66.5t21.5 84t7 85q0 87 -65 87q-52 0 -98 -44z
" />
    <glyph glyph-name="q" unicode="q" horiz-adv-x="667" 
d="M300 -195l49 257l-2 2q-28 -32 -71.5 -55t-85.5 -23q-63 0 -103.5 32.5t-56 79t-15.5 105.5q0 73 17 144t49.5 132.5t87 99.5t122.5 38q57 0 94.5 -23t51.5 -58h2l13 67h188l-152 -798h-188zM370 174l47 247q-31 57 -81 57q-34 0 -60.5 -25.5t-41 -66t-21.5 -84t-7 -86.5
q0 -91 68 -91q27 0 54 15.5t42 33.5z" />
    <glyph glyph-name="r" unicode="r" horiz-adv-x="444" 
d="M-6 0l115 603h188l-18 -95h3q29 44 77.5 73t95.5 29q26 0 41 -7l-32 -168q-31 12 -61 12q-43 0 -84 -21.5t-65 -47.5l-72 -378h-188z" />
    <glyph glyph-name="s" unicode="s" horiz-adv-x="556" 
d="M-18 141l164 47q2 -19 6.5 -32t24 -26.5t51.5 -13.5q31 0 51 13.5t20 36.5q0 13 -4 22t-17 16.5t-21 10.5t-33 12l-68 25q-110 39 -110 157q0 96 73.5 152t185.5 56q57 0 102 -15.5t71 -41t39.5 -46t21.5 -41.5l-159 -47q-2 11 -4 17.5t-9.5 20t-23 20.5t-37.5 7
q-36 0 -56 -16t-20 -39q0 -22 16.5 -33.5t58.5 -23.5l75 -23q117 -36 117 -149q0 -37 -14.5 -73.5t-45.5 -71t-89 -55.5t-135 -21q-62 0 -106.5 13.5t-68.5 39t-36 48.5t-20 54z" />
    <glyph glyph-name="t" unicode="t" horiz-adv-x="444" 
d="M13 424l25 130h95l23 124l199 79l-38 -203h141l-25 -130h-141l-35 -184q-9 -47 -9 -57q0 -58 65 -58q21 0 64 10l-25 -130q-65 -19 -127 -19q-67 0 -117.5 35t-50.5 106q0 33 13 98l38 199h-95z" />
    <glyph glyph-name="u" unicode="u" horiz-adv-x="648" 
d="M331 0l16 83q-34 -27 -53.5 -41.5t-64.5 -35t-82 -20.5q-59 0 -92.5 32t-33.5 86q0 38 9 85l79 414h188l-69 -362q-8 -38 -8 -53q0 -43 51 -43q29 0 70 28l26 21l79 409h188l-115 -603h-188z" />
    <glyph glyph-name="v" unicode="v" horiz-adv-x="593" 
d="M115 0l-71 603h194l23 -355q1 -16 1 -26t-1 -23t-1 -18h6q4 38 25 85l147 337h200l-305 -603h-218z" />
    <glyph glyph-name="w" unicode="w" horiz-adv-x="981" 
d="M43 603h192l17 -362q0 -11 -1 -30.5t-1 -26.5h10q6 40 25 85l140 334h231l7 -363q0 -10 -0.5 -29.5t-0.5 -26.5h12q2 7 9.5 33t13.5 42l132 344h192l-273 -603h-238l-7 373q0 36 4 53h-10q-1 -2 -3.5 -11.5t-6 -21.5t-8.5 -24l-145 -369h-233z" />
    <glyph glyph-name="x" unicode="x" 
d="M352 0l-41 150q-10 33 -10 65h-4q-2 -4 -26 -41l-119 -174h-216l250 322l-112 281h199l38 -134q12 -38 14 -55h3q6 20 27 51l93 138h209l-217 -281l114 -322h-202z" />
    <glyph glyph-name="y" unicode="y" horiz-adv-x="593" 
d="M139 7l-95 596h194l21 -315q3 -35 -3 -106h9q12 65 33 107l147 314h194l-338 -639q-45 -85 -102 -125.5t-139 -40.5q-81 0 -130 21l35 134q42 -16 78 -16q31 0 57 19t31 33z" />
    <glyph glyph-name="z" unicode="z" horiz-adv-x="556" 
d="M-42 0l27 140l322 337q-25 -4 -77 -4h-169l25 130h479l-26 -135l-326 -340l2 -2q20 4 73 4h195l-25 -130h-500z" />
    <glyph glyph-name="braceleft" unicode="{" horiz-adv-x="333" 
d="M241 -130h-100q-42 0 -77 26t-35 74q0 16 5 48l27 160q6 30 6 48q0 21 -27.5 29.5t-54.5 8.5l18 100q13 0 27 2t32 8t31.5 18.5t17.5 31.5l37 196q14 69 58 103.5t105 34.5h100l-18 -90h-48q-36 0 -50.5 -18.5t-19.5 -46.5l-36 -192q-6 -36 -32 -58.5t-48 -29t-45 -8.5
l-1 -2q90 -9 90 -67q0 -16 -6 -48l-33 -171q-5 -25 -5 -37q0 -30 51 -30h49z" />
    <glyph glyph-name="bar" unicode="|" horiz-adv-x="222" 
d="M51 -250v1000h120v-1000h-120z" />
    <glyph glyph-name="braceright" unicode="}" horiz-adv-x="333" 
d="M72 758h100q42 0 77 -26t35 -74q0 -16 -5 -48l-27 -160q-6 -30 -6 -48q0 -21 27.5 -29.5t54.5 -8.5l-18 -100q-13 0 -27 -2t-32 -8t-31.5 -18.5t-17.5 -31.5l-37 -196q-14 -69 -58 -103.5t-105 -34.5h-100l18 90h48q36 0 50.5 18.5t19.5 46.5l36 192q6 36 32 58.5t48 29
t45 8.5l1 2q-90 9 -90 67q0 16 6 48l33 171q5 25 5 37q0 30 -51 30h-49z" />
    <glyph glyph-name="asciitilde" unicode="~" horiz-adv-x="600" 
d="M495 346l36 -96q-27 -41 -55 -63.5t-70 -22.5q-45 0 -102 33q-59 35 -115 35q-51 0 -84 -72l-36 96q42 86 125 86q38 0 111 -32q7 -3 21.5 -9.5t23 -10t20 -8t20.5 -6.5t17 -2q19 0 37 13t25.5 23t25.5 36z" />
    <glyph glyph-name="euro" horiz-adv-x="498" 
d="M522 633l-23 -156l-48 6q0 157 -94 157q-103 0 -161 -211h172l-21 -48h-164q-3 -14 -16 -73h147l-21 -47h-134q-6 -41 -6 -74q0 -55 21 -91q25 -43 78 -43q57 0 101 68q24 37 51 119l55 -10l-54 -188q-77 -53 -159 -53q-110 0 -166 84q-47 71 -47 188h-74l21 47h56
q3 24 12 73h-66l21 48h59q40 113 108 183q82 88 187 88q95 0 165 -67z" />
    <glyph glyph-name="nbspace" unicode="&#xa0;" horiz-adv-x="296" 
 />
    <glyph glyph-name="exclamdown" unicode="&#xa1;" horiz-adv-x="370" 
d="M276 355l-69 -467h-181l117 467h133zM334 603l-30 -156h-156l30 156h156z" />
    <glyph glyph-name="cent" unicode="&#xa2;" horiz-adv-x="592" 
d="M204 171l158 310q-14 6 -33 6q-38 0 -66 -34.5t-40.5 -86.5t-17.5 -94.5t-5 -75.5q0 -7 2 -25h2zM82 -64l43 83q-109 62 -109 216q0 51 10 102t33 102t57.5 90t88 63.5t119.5 24.5q64 0 101 -14l43 83l42 -18l-42 -82q86 -50 93 -153l-167 -43q4 13 4 30q0 14 -3 25
l-163 -317q13 -9 38 -9q37 0 59 31.5t27 68.5l163 -40q-31 -84 -98 -138.5t-165 -54.5q-48 0 -90 14l-42 -82z" />
    <glyph glyph-name="sterling" unicode="&#xa3;" horiz-adv-x="592" 
d="M-12 0l24 126h66l35 184h-75l21 110h75l16 83q44 226 276 226q62 0 107.5 -19.5t67 -48.5t30.5 -54t9 -46l-164 -37q0 18 -4 33.5t-20 30.5t-43 15q-44 0 -61 -26.5t-31 -92.5l-13 -64h144l-21 -110h-144l-35 -184h266l-24 -126h-502z" />
    <glyph glyph-name="currency" unicode="&#xa4;" horiz-adv-x="592" 
d="M35 165l56 56q-43 62 -43 138q0 77 42 138l-55 55l68 68l55 -55q62 42 138 42q77 0 138 -42l55 55l68 -68l-55 -55q42 -61 42 -138t-42 -138l55 -56l-68 -68l-56 56q-61 -42 -137 -42t-137 42l-56 -56zM158 359q0 -57 40.5 -97.5t97.5 -40.5t97.5 40.5t40.5 97.5
t-40.5 97.5t-97.5 40.5t-97.5 -40.5t-40.5 -97.5z" />
    <glyph glyph-name="yen" unicode="&#xa5;" horiz-adv-x="592" 
d="M156 0l21 108h-137l14 75h137l15 78h-137l14 75h101l-111 376h166l63 -311h4l160 311h178l-232 -376h97l-14 -75h-129l-15 -78h129l-14 -75h-129l-21 -108h-160z" />
    <glyph glyph-name="brokenbar" unicode="&#xa6;" horiz-adv-x="222" 
d="M51 -175v350h120v-350h-120zM51 325v350h120v-350h-120z" />
    <glyph glyph-name="section" unicode="&#xa7;" horiz-adv-x="592" 
d="M237 91l-112 57q-90 44 -90 120q0 118 144 165q-21 14 -32 24t-22.5 33t-11.5 53q0 85 68.5 135.5t179.5 50.5q55 0 96.5 -13.5t62.5 -34.5t30.5 -34.5t12.5 -24.5l-128 -65q-23 62 -96 62q-29 0 -51 -15t-22 -41q0 -21 17 -35.5t65 -37.5l76 -38q55 -27 79.5 -59
t24.5 -82q0 -59 -42.5 -97t-91.5 -48q55 -36 55 -100q0 -96 -74 -149.5t-189 -53.5q-48 0 -87 12t-60 27.5t-36 35.5t-19 30.5t-6 18.5l128 57q1 -8 4.5 -16t13 -21t29.5 -21t48 -8q39 0 62 16.5t23 42.5q0 17 -11.5 29t-37.5 25zM216 259l115 -59q58 24 58 70q0 45 -68 79
l-81 40q-66 -22 -66 -70q0 -39 42 -60z" />
    <glyph glyph-name="dieresis" unicode="&#xa8;" horiz-adv-x="278" 
d="M-8 664l26 133h174l-26 -133h-174zM228 664l26 133h174l-26 -133h-174z" />
    <glyph glyph-name="copyright" unicode="&#xa9;" horiz-adv-x="800" 
d="M493 302h100q-9 -74 -62.5 -115.5t-123.5 -41.5q-90 0 -147.5 61.5t-57.5 152.5q0 94 56.5 155t148.5 61q72 0 124.5 -39.5t61.5 -114.5h-100q-11 64 -86 64q-47 0 -71 -33t-24 -91q0 -56 24.5 -91t72.5 -35q80 0 84 67zM27 356q0 154 109.5 263.5t263.5 109.5
t263.5 -109.5t109.5 -263.5t-109.5 -263.5t-263.5 -109.5t-263.5 109.5t-109.5 263.5zM117 356q0 -117 83 -200t200 -83t200 83t83 200t-83 200t-200 83t-200 -83t-83 -200z" />
    <glyph glyph-name="ordfeminine" unicode="&#xaa;" horiz-adv-x="397" 
d="M239 359l9 44v2l-2 -2h1l-2 2q-21 -24 -53 -39t-64 -15q-47 0 -71.5 25t-24.5 71q0 106 213 135l43 6q5 27 5 39q0 27 -36 27q-15 0 -26.5 -4t-19 -11t-11.5 -12.5t-8 -12.5l-3 -8l-101 28q52 95 171 95q72 0 116 -24.5t44 -76.5q0 -15 -10 -61l-38 -162q-8 -30 -8 -46
h-124zM261 466l13 61l-26 -4q-62 -12 -77 -24q-13 -11 -13 -28q0 -13 8.5 -22.5t25.5 -9.5q15 0 37.5 9t31.5 18z" />
    <glyph glyph-name="guillemotleft" unicode="&#xab;" horiz-adv-x="592" 
d="M0 328l214 232l92 -78l-153 -175l95 -193l-110 -59zM266 328l214 232l92 -78l-153 -175l95 -193l-110 -59z" />
    <glyph glyph-name="logicalnot" unicode="&#xac;" horiz-adv-x="600" 
d="M433 108v197h-386v120h506v-317h-120z" />
    <glyph glyph-name="sfthyphen" unicode="&#xad;" horiz-adv-x="833" 
 />
    <glyph glyph-name="registered" unicode="&#xae;" horiz-adv-x="800" 
d="M464 154l-90 163h-34v-163h-95v405h184q143 0 143 -117q0 -52 -29 -84.5t-75 -37.5l97 -166h-101zM340 392h70q62 0 62 48q0 27 -17.5 35.5t-54.5 8.5h-60v-92zM27 356q0 154 109.5 263.5t263.5 109.5t263.5 -109.5t109.5 -263.5t-109.5 -263.5t-263.5 -109.5
t-263.5 109.5t-109.5 263.5zM117 356q0 -117 83 -200t200 -83t200 83t83 200t-83 200t-200 83t-200 -83t-83 -200z" />
    <glyph glyph-name="overscore" unicode="&#xaf;" horiz-adv-x="278" 
d="M30 689l18 90h342l-18 -90h-342z" />
    <glyph glyph-name="degree" unicode="&#xb0;" horiz-adv-x="400" 
d="M56 561q0 70 49 119t119 49t119 -49t49 -119t-49 -119t-119 -49t-119 49t-49 119zM156 561q0 -29 19.5 -48.5t48.5 -19.5t48.5 19.5t19.5 48.5t-19.5 48.5t-48.5 19.5t-48.5 -19.5t-19.5 -48.5z" />
    <glyph glyph-name="plusminus" unicode="&#xb1;" horiz-adv-x="600" 
d="M241 150v118h-194v120h194v118h120v-118h192v-120h-192v-118h-120zM47 0v120h506v-120h-506z" />
    <glyph glyph-name="twosuperior" unicode="&#xb2;" horiz-adv-x="385" 
d="M12 291l17 80l198 151q63 47 63 87t-48 40q-32 0 -46.5 -21.5t-14.5 -42.5l-106 18q32 126 178 126q77 0 118.5 -29.5t41.5 -81.5q0 -45 -23 -75.5t-66 -61.5l-149 -108v-2h179l-16 -80h-326z" />
    <glyph glyph-name="threesuperior" unicode="&#xb3;" horiz-adv-x="385" 
d="M163 470l16 82q106 0 106 60q0 37 -45 37q-26 0 -40 -15t-14 -28l-97 26q2 8 10 21t25.5 31.5t51.5 31.5t77 13q77 0 114.5 -29.5t37.5 -75.5t-37 -74.5t-85 -32.5v-2q38 -4 63 -28t25 -64q0 -56 -48.5 -97.5t-134.5 -41.5q-151 0 -160 114l110 19q0 -53 50 -53
q28 0 45.5 18t17.5 44q0 46 -56 46q-16 0 -32 -2z" />
    <glyph glyph-name="acute" unicode="&#xb4;" horiz-adv-x="278" 
d="M130 659l110 145h208l-188 -145h-130z" />
    <glyph glyph-name="mu" unicode="&#xb5;" horiz-adv-x="648" 
d="M-43 -195l152 798h188l-74 -386q-3 -18 -3 -31q0 -26 15.5 -39.5t42.5 -13.5q35 0 60.5 20t30.5 49l77 401h188l-115 -603h-188l14 67l-2 2q-38 -76 -100 -76q-32 0 -57 27l-41 -215h-188z" />
    <glyph glyph-name="paragraph" unicode="&#xb6;" horiz-adv-x="592" 
d="M125 -123l85 447q-67 0 -111.5 51.5t-44.5 124.5q0 94 62.5 153t190.5 59h315l-159 -835h-120l142 745h-98l-142 -745h-120z" />
    <glyph glyph-name="ch270" unicode="&#xb7;" horiz-adv-x="296" 
d="M56 282q0 39 26.5 65.5t65.5 26.5t65.5 -26.5t26.5 -65.5t-26.5 -65.5t-65.5 -26.5t-65.5 26.5t-26.5 65.5z" />
    <glyph glyph-name="cedilla" unicode="&#xb8;" horiz-adv-x="278" 
d="M6 -86l65 88h63l-46 -62v-2q9 4 30 4q34 0 56.5 -19t22.5 -54q0 -47 -36.5 -70t-92.5 -23q-62 0 -125 29l27 49q53 -23 82 -23q50 0 50 35q0 26 -38 26q-22 0 -33 -7z" />
    <glyph glyph-name="onesuperior" unicode="&#xb9;" horiz-adv-x="385" 
d="M155 291l63 306l-110 -70l-46 77l189 114h118l-88 -427h-126z" />
    <glyph glyph-name="ordmasculine" unicode="&#xba;" horiz-adv-x="397" 
d="M24 500q0 51 24.5 102.5t77.5 89t122 37.5q85 0 129 -39.5t44 -109.5q0 -83 -60.5 -156t-163.5 -73q-85 0 -129 39.5t-44 109.5zM150 487q0 -56 51 -56q37 0 65.5 48.5t28.5 113.5q0 56 -51 56q-37 0 -65.5 -48.5t-28.5 -113.5z" />
    <glyph glyph-name="guillemotright" unicode="&#xbb;" horiz-adv-x="592" 
d="M568 286l-214 -232l-92 78l153 175l-95 193l110 59zM302 286l-214 -232l-92 78l153 175l-95 193l110 59z" />
    <glyph glyph-name="onequarter" unicode="&#xbc;" horiz-adv-x="889" 
d="M629 0l14 65h-196l18 93l240 269h128l-59 -282h59l-16 -80h-59l-14 -65h-115zM663 145l45 176l-1 1h-2l-155 -177h113zM195 -24l414 763h85l-414 -763h-85zM155 291l63 306l-110 -70l-46 77l189 114h118l-88 -427h-126z" />
    <glyph glyph-name="onehalf" unicode="&#xbd;" horiz-adv-x="889" 
d="M155 -24l414 763h85l-414 -763h-85zM115 291l63 306l-110 -70l-46 77l189 114h118l-88 -427h-126zM458 -1l17 80l198 151q63 47 63 87t-48 40q-32 0 -46.5 -21.5t-14.5 -42.5l-106 18q32 126 178 126q77 0 118.5 -29.5t41.5 -81.5q0 -45 -23 -75.5t-66 -61.5l-149 -108
v-2h179l-16 -80h-326z" />
    <glyph glyph-name="threequarters" unicode="&#xbe;" horiz-adv-x="889" 
d="M657 0l14 65h-196l18 93l240 269h128l-59 -282h59l-16 -80h-59l-14 -65h-115zM691 145l45 176l-1 1h-2l-155 -177h113zM220 -24l414 763h85l-414 -763h-85zM163 470l16 82q106 0 106 60q0 37 -45 37q-26 0 -40 -15t-14 -28l-97 26q2 8 10 21t25.5 31.5t51.5 31.5t77 13
q77 0 114.5 -29.5t37.5 -75.5t-37 -74.5t-85 -32.5v-2q38 -4 63 -28t25 -64q0 -56 -48.5 -97.5t-134.5 -41.5q-151 0 -160 114l110 19q0 -53 50 -53q28 0 45.5 18t17.5 44q0 46 -56 46q-16 0 -32 -2z" />
    <glyph glyph-name="questiondown" unicode="&#xbf;" horiz-adv-x="556" 
d="M372 358l-14 -73q-6 -36 -53 -71l-75 -57q-20 -15 -31.5 -25.5t-21.5 -29t-10 -38.5q0 -30 19 -47t50 -17q24 0 42 8.5t27 17t15.5 25.5t7.5 21.5t3 16.5l149 -29q0 -13 -13 -40.5t-39.5 -61.5t-78.5 -59t-117 -25q-115 0 -171.5 47t-56.5 124q0 100 97 164l88 57
q34 25 41 57l6 35h136zM421 603l-30 -156h-156l30 156h156z" />
    <glyph glyph-name="Agrave" unicode="&#xc0;" horiz-adv-x="759" 
d="M301 885h153l78 -119h-96zM494 0l-18 146h-258l-78 -146h-207l399 712h248l110 -712h-196zM459 285l-24 191q-6 54 -6 91h-5q-28 -72 -37 -89l-95 -193h167z" />
    <glyph glyph-name="Aacute" unicode="&#xc1;" horiz-adv-x="759" 
d="M411 766l82 119h156l-141 -119h-97zM494 0l-18 146h-258l-78 -146h-207l399 712h248l110 -712h-196zM459 285l-24 191q-6 54 -6 91h-5q-28 -72 -37 -89l-95 -193h167z" />
    <glyph glyph-name="Acircumflex" unicode="&#xc2;" horiz-adv-x="759" 
d="M317 758l105 105h118l63 -105h-86l-38 54l-61 -54h-101zM494 0l-18 146h-258l-78 -146h-207l399 712h248l110 -712h-196zM459 285l-24 191q-6 54 -6 91h-5q-28 -72 -37 -89l-95 -193h167z" />
    <glyph glyph-name="Atilde" unicode="&#xc3;" horiz-adv-x="759" 
d="M384 768h-58q0 15 7.5 36t33 43.5t63.5 22.5q15 0 29 -6l41 -17q22 -6 25 -6q12 0 22 6.5t14.5 13.5t4.5 10h58q0 -15 -6.5 -36t-31.5 -43.5t-63 -22.5q-8 0 -25 5l-46 18q-22 6 -27 6q-12 0 -22 -6.5t-14.5 -13.5t-4.5 -10zM494 0l-18 146h-258l-78 -146h-207l399 712
h248l110 -712h-196zM459 285l-24 191q-6 54 -6 91h-5q-28 -72 -37 -89l-95 -193h167z" />
    <glyph glyph-name="Adieresis" unicode="&#xc4;" horiz-adv-x="759" 
d="M494 0l-18 146h-258l-78 -146h-207l399 712h248l110 -712h-196zM459 285l-24 191q-6 54 -6 91h-5q-28 -72 -37 -89l-95 -193h167zM233 773l26 133h174l-26 -133h-174zM469 773l26 133h174l-26 -133h-174z" />
    <glyph glyph-name="Aring" unicode="&#xc5;" horiz-adv-x="759" 
d="M494 0l-18 146h-258l-78 -146h-207l399 712h248l110 -712h-196zM459 285l-24 191q-6 54 -6 91h-5q-28 -72 -37 -89l-95 -193h167zM347 845q0 45 33 78t78 33t78 -33t33 -78t-33 -78t-78 -33t-78 33t-33 78zM407 845q0 -21 15 -36t36 -15t36 15t15 36t-15 36t-36 15
t-36 -15t-15 -36z" />
    <glyph glyph-name="AE" unicode="&#xc6;" horiz-adv-x="1000" 
d="M431 0l29 152h-208l-102 -152h-220l512 712h566l-27 -145h-258l-26 -132h240l-28 -145h-239l-28 -145h267l-28 -145h-450zM486 291l57 295h-8q-6 -13 -22 -39t-22 -38l-145 -218h140z" />
    <glyph glyph-name="Ccedilla" unicode="&#xc7;" horiz-adv-x="704" 
d="M475 244l167 -39q-3 -12 -9.5 -30.5t-29.5 -54.5t-54.5 -64.5t-88.5 -50.5t-127 -22l-32 -43v-2q9 4 30 4q34 0 56.5 -19t22.5 -54q0 -47 -36.5 -70t-92.5 -23q-62 0 -125 29l27 49q53 -23 82 -23q50 0 50 35q0 26 -38 26q-22 0 -33 -7l-25 29l54 73q-116 15 -182 88.5
t-66 206.5q0 84 25.5 162.5t75 143t130.5 103t182 38.5q64 0 114 -20t76 -46.5t43.5 -61.5t22 -54.5t6.5 -36.5l-184 -35q-3 39 -25.5 72t-71.5 33q-51 0 -90 -32t-60 -82.5t-31 -103.5t-10 -105q0 -129 106 -129q30 0 56.5 14.5t43.5 36t27 37.5t14 28z" />
    <glyph glyph-name="Egrave" unicode="&#xc8;" 
d="M301 885h153l78 -119h-96zM0 0l136 712h498l-27 -145h-304l-26 -132h286l-28 -145h-285l-28 -145h313l-28 -145h-507z" />
    <glyph glyph-name="Eacute" unicode="&#xc9;" 
d="M331 766l82 119h156l-141 -119h-97zM0 0l136 712h498l-27 -145h-304l-26 -132h286l-28 -145h-285l-28 -145h313l-28 -145h-507z" />
    <glyph glyph-name="Ecircumflex" unicode="&#xca;" 
d="M247 758l105 105h118l63 -105h-86l-38 54l-61 -54h-101zM0 0l136 712h498l-27 -145h-304l-26 -132h286l-28 -145h-285l-28 -145h313l-28 -145h-507z" />
    <glyph glyph-name="Edieresis" unicode="&#xcb;" 
d="M0 0l136 712h498l-27 -145h-304l-26 -132h286l-28 -145h-285l-28 -145h313l-28 -145h-507zM168 773l26 133h174l-26 -133h-174zM404 773l26 133h174l-26 -133h-174z" />
    <glyph glyph-name="Igrave" unicode="&#xcc;" horiz-adv-x="333" 
d="M111 885h153l78 -119h-96zM0 0l136 712h194l-136 -712h-194z" />
    <glyph glyph-name="Iacute" unicode="&#xcd;" horiz-adv-x="333" 
d="M191 766l82 119h156l-141 -119h-97zM0 0l136 712h194l-136 -712h-194z" />
    <glyph glyph-name="Icircumflex" unicode="&#xce;" horiz-adv-x="333" 
d="M0 0l136 712h194l-136 -712h-194zM28 768l146 145h164l88 -145h-120l-53 74l-85 -74h-140z" />
    <glyph glyph-name="Idieresis" unicode="&#xcf;" horiz-adv-x="333" 
d="M0 0l136 712h194l-136 -712h-194zM20 773l26 133h174l-26 -133h-174zM256 773l26 133h174l-26 -133h-174z" />
    <glyph glyph-name="Eth" unicode="&#xd0;" horiz-adv-x="759" 
d="M0 0l65 341h-77l14 75h77l57 296h286q141 0 219.5 -80t78.5 -222q0 -176 -111.5 -293t-279.5 -117h-329zM397 416l-14 -75h-123l-38 -196h90q102 0 153.5 78t51.5 194q0 66 -34.5 106t-103.5 40h-77l-28 -147h123z" />
    <glyph glyph-name="Ntilde" unicode="&#xd1;" horiz-adv-x="796" 
d="M0 0l136 712h246l112 -414q5 -19 13 -54t11 -46h8q0 3 3.5 38.5t8.5 59.5l80 416h181l-136 -712h-249l-111 382q-12 39 -27 127h-5q-7 -81 -16 -125l-74 -384h-181zM354 766h-81q0 15 4.5 34.5t16.5 45.5t40.5 43.5t69.5 17.5q18 0 40 -8l58 -23q27 -9 34 -9
q24 0 35 15.5t11 26.5h81q0 -15 -4.5 -34.5t-16.5 -45.5t-40.5 -43.5t-68.5 -17.5q-16 0 -34 6l-65 25q-22 8 -37 8q-24 0 -33.5 -14.5t-9.5 -26.5z" />
    <glyph glyph-name="Ograve" unicode="&#xd2;" horiz-adv-x="778" 
d="M301 885h153l78 -119h-96zM745 428q0 -66 -16 -130t-50 -121t-82 -100t-116 -68.5t-149 -25.5q-144 0 -225.5 75t-81.5 204q0 68 16 133.5t49.5 126t81 106.5t116.5 73.5t150 27.5q141 0 224 -76t83 -225zM542 444q0 136 -112 136q-46 0 -82.5 -23t-58 -57t-36 -78.5
t-20 -83t-5.5 -74.5q0 -136 112 -136q46 0 82.5 23t58 58t36 79t20 82.5t5.5 73.5z" />
    <glyph glyph-name="Oacute" unicode="&#xd3;" horiz-adv-x="778" 
d="M411 766l82 119h156l-141 -119h-97zM745 428q0 -66 -16 -130t-50 -121t-82 -100t-116 -68.5t-149 -25.5q-144 0 -225.5 75t-81.5 204q0 68 16 133.5t49.5 126t81 106.5t116.5 73.5t150 27.5q141 0 224 -76t83 -225zM542 444q0 136 -112 136q-46 0 -82.5 -23t-58 -57
t-36 -78.5t-20 -83t-5.5 -74.5q0 -136 112 -136q46 0 82.5 23t58 58t36 79t20 82.5t5.5 73.5z" />
    <glyph glyph-name="Ocircumflex" unicode="&#xd4;" horiz-adv-x="778" 
d="M317 758l105 105h118l63 -105h-86l-38 54l-61 -54h-101zM745 428q0 -66 -16 -130t-50 -121t-82 -100t-116 -68.5t-149 -25.5q-144 0 -225.5 75t-81.5 204q0 68 16 133.5t49.5 126t81 106.5t116.5 73.5t150 27.5q141 0 224 -76t83 -225zM542 444q0 136 -112 136
q-46 0 -82.5 -23t-58 -57t-36 -78.5t-20 -83t-5.5 -74.5q0 -136 112 -136q46 0 82.5 23t58 58t36 79t20 82.5t5.5 73.5z" />
    <glyph glyph-name="Otilde" unicode="&#xd5;" horiz-adv-x="778" 
d="M384 768h-58q0 15 7.5 36t33 43.5t63.5 22.5q15 0 29 -6l41 -17q22 -6 25 -6q12 0 22 6.5t14.5 13.5t4.5 10h58q0 -15 -6.5 -36t-31.5 -43.5t-63 -22.5q-8 0 -25 5l-46 18q-22 6 -27 6q-12 0 -22 -6.5t-14.5 -13.5t-4.5 -10zM745 428q0 -66 -16 -130t-50 -121t-82 -100
t-116 -68.5t-149 -25.5q-144 0 -225.5 75t-81.5 204q0 68 16 133.5t49.5 126t81 106.5t116.5 73.5t150 27.5q141 0 224 -76t83 -225zM542 444q0 136 -112 136q-46 0 -82.5 -23t-58 -57t-36 -78.5t-20 -83t-5.5 -74.5q0 -136 112 -136q46 0 82.5 23t58 58t36 79t20 82.5
t5.5 73.5z" />
    <glyph glyph-name="Odieresis" unicode="&#xd6;" horiz-adv-x="778" 
d="M745 428q0 -66 -16 -130t-50 -121t-82 -100t-116 -68.5t-149 -25.5q-144 0 -225.5 75t-81.5 204q0 68 16 133.5t49.5 126t81 106.5t116.5 73.5t150 27.5q141 0 224 -76t83 -225zM542 444q0 136 -112 136q-46 0 -82.5 -23t-58 -57t-36 -78.5t-20 -83t-5.5 -74.5
q0 -136 112 -136q46 0 82.5 23t58 58t36 79t20 82.5t5.5 73.5zM242 773l26 133h174l-26 -133h-174zM478 773l26 133h174l-26 -133h-174z" />
    <glyph glyph-name="multiply" unicode="&#xd7;" horiz-adv-x="600" 
d="M218 253l-154 154l82 82l154 -154l154 154l82 -82l-155 -154l155 -154l-82 -82l-154 155l-154 -155l-82 82z" />
    <glyph glyph-name="Oslash" unicode="&#xd8;" horiz-adv-x="778" 
d="M541 470l-301 -278q26 -64 100 -64q46 0 82.5 23t58 58t36 79t20 82.5t5.5 73.5q0 18 -1 26zM229 243l300 277q-26 60 -99 60q-46 0 -82.5 -23t-58 -57t-36 -78.5t-20 -83t-5.5 -74.5q0 -14 1 -21zM-2 30l73 68q-46 67 -46 164q0 68 16 133.5t49.5 126t81 106.5
t116.5 73.5t150 27.5q148 0 229 -81l72 67l33 -31l-76 -71q49 -74 49 -185q0 -66 -16 -130t-50 -121t-82 -100t-116 -68.5t-149 -25.5q-150 0 -231 81l-70 -65z" />
    <glyph glyph-name="Ugrave" unicode="&#xd9;" horiz-adv-x="741" 
d="M301 885h153l78 -119h-96zM53 300l78 412h195l-76 -394q-15 -75 -15 -110q0 -36 24.5 -58t65.5 -22q72 0 101 34.5t43 105.5l85 444h188l-85 -440q-29 -148 -106 -218.5t-239 -70.5q-122 0 -196.5 56.5t-74.5 166.5q0 17 12 94z" />
    <glyph glyph-name="Uacute" unicode="&#xda;" horiz-adv-x="741" 
d="M411 766l82 119h156l-141 -119h-97zM53 300l78 412h195l-76 -394q-15 -75 -15 -110q0 -36 24.5 -58t65.5 -22q72 0 101 34.5t43 105.5l85 444h188l-85 -440q-29 -148 -106 -218.5t-239 -70.5q-122 0 -196.5 56.5t-74.5 166.5q0 17 12 94z" />
    <glyph glyph-name="Ucircumflex" unicode="&#xdb;" horiz-adv-x="741" 
d="M53 300l78 412h195l-76 -394q-15 -75 -15 -110q0 -36 24.5 -58t65.5 -22q72 0 101 34.5t43 105.5l85 444h188l-85 -440q-29 -148 -106 -218.5t-239 -70.5q-122 0 -196.5 56.5t-74.5 166.5q0 17 12 94zM232 768l146 145h164l88 -145h-120l-53 74l-85 -74h-140z" />
    <glyph glyph-name="Udieresis" unicode="&#xdc;" horiz-adv-x="741" 
d="M53 300l78 412h195l-76 -394q-15 -75 -15 -110q0 -36 24.5 -58t65.5 -22q72 0 101 34.5t43 105.5l85 444h188l-85 -440q-29 -148 -106 -218.5t-239 -70.5q-122 0 -196.5 56.5t-74.5 166.5q0 17 12 94zM230 773l26 133h174l-26 -133h-174zM466 773l26 133h174l-26 -133
h-174z" />
    <glyph glyph-name="Yacute" unicode="&#xdd;" horiz-adv-x="722" 
d="M411 766l82 119h156l-141 -119h-97zM196 0l50 262l-174 450h210l65 -200q3 -9 18 -91h5q26 54 43 79l147 212h226l-346 -450l-50 -262h-194z" />
    <glyph glyph-name="Thorn" unicode="&#xde;" 
d="M251 300h101q45 0 73.5 27.5t28.5 72.5q0 46 -20 63.5t-64 17.5h-84zM0 0l136 712h194l-16 -86h92q113 0 174.5 -48t61.5 -145q0 -131 -81 -204.5t-203 -73.5h-134l-30 -155h-194z" />
    <glyph glyph-name="germandbls" unicode="&#xdf;" horiz-adv-x="667" 
d="M-6 0l102 536q27 129 101 191t206 62q99 0 160 -43.5t61 -132.5q0 -72 -46 -125.5t-123 -61.5l-4 -10q18 -3 35.5 -8t39 -17t37 -29t26 -45t10.5 -63q0 -110 -73 -189t-192 -79q-64 0 -111 14l46 136q24 -11 45 -11q51 0 81 37.5t30 98.5q0 87 -96 87h-19l24 126h19
q93 0 93 118q0 31 -19.5 47.5t-47.5 16.5q-40 0 -59.5 -22.5t-29.5 -68.5l-12 -58l-96 -507h-188z" />
    <glyph glyph-name="agrave" unicode="&#xe0;" horiz-adv-x="611" 
d="M245 770h144l73 -111h-90zM304 0l16 76h-2q-58 -54 -98 -72t-80 -18q-62 0 -103 39t-41 116q0 114 85.5 174t222.5 64l76 2q8 43 8 59q0 54 -64 54q-17 0 -32.5 -7t-26.5 -19t-17.5 -21.5t-13.5 -22.5l-6 -13l-156 48q75 158 261 158q107 0 170 -43t63 -137
q0 -33 -11 -91l-51 -270q-11 -53 -12 -76h-188zM341 179l17 92l-52 -2q-126 -5 -126 -83q0 -21 13.5 -38.5t38.5 -17.5q23 0 56.5 16.5t52.5 32.5z" />
    <glyph glyph-name="aacute" unicode="&#xe1;" horiz-adv-x="611" 
d="M335 664l77 111h147l-133 -111h-91zM304 0l16 76h-2q-58 -54 -98 -72t-80 -18q-62 0 -103 39t-41 116q0 114 85.5 174t222.5 64l76 2q8 43 8 59q0 54 -64 54q-17 0 -32.5 -7t-26.5 -19t-17.5 -21.5t-13.5 -22.5l-6 -13l-156 48q75 158 261 158q107 0 170 -43t63 -137
q0 -33 -11 -91l-51 -270q-11 -53 -12 -76h-188zM341 179l17 92l-52 -2q-126 -5 -126 -83q0 -21 13.5 -38.5t38.5 -17.5q23 0 56.5 16.5t52.5 32.5z" />
    <glyph glyph-name="acircumflex" unicode="&#xe2;" horiz-adv-x="611" 
d="M235 657l98 99h111l59 -99h-80l-36 51l-57 -51h-95zM304 0l16 76h-2q-58 -54 -98 -72t-80 -18q-62 0 -103 39t-41 116q0 114 85.5 174t222.5 64l76 2q8 43 8 59q0 54 -64 54q-17 0 -32.5 -7t-26.5 -19t-17.5 -21.5t-13.5 -22.5l-6 -13l-156 48q75 158 261 158
q107 0 170 -43t63 -137q0 -33 -11 -91l-51 -270q-11 -53 -12 -76h-188zM341 179l17 92l-52 -2q-126 -5 -126 -83q0 -21 13.5 -38.5t38.5 -17.5q23 0 56.5 16.5t52.5 32.5z" />
    <glyph glyph-name="atilde" unicode="&#xe3;" horiz-adv-x="611" 
d="M285 655h-54q0 14 7 34t31 41t60 21q13 0 27 -6l38 -16q18 -5 24 -5q16 0 27.5 11t11.5 17h54q0 -10 -4 -23.5t-13 -31t-29.5 -29.5t-48.5 -12q-8 0 -23 5l-44 17q-15 5 -25 5q-17 0 -28 -10.5t-11 -17.5zM304 0l16 76h-2q-58 -54 -98 -72t-80 -18q-62 0 -103 39t-41 116
q0 114 85.5 174t222.5 64l76 2q8 43 8 59q0 54 -64 54q-17 0 -32.5 -7t-26.5 -19t-17.5 -21.5t-13.5 -22.5l-6 -13l-156 48q75 158 261 158q107 0 170 -43t63 -137q0 -33 -11 -91l-51 -270q-11 -53 -12 -76h-188zM341 179l17 92l-52 -2q-126 -5 -126 -83q0 -21 13.5 -38.5
t38.5 -17.5q23 0 56.5 16.5t52.5 32.5z" />
    <glyph glyph-name="adieresis" unicode="&#xe4;" horiz-adv-x="611" 
d="M304 0l16 76h-2q-58 -54 -98 -72t-80 -18q-62 0 -103 39t-41 116q0 114 85.5 174t222.5 64l76 2q8 43 8 59q0 54 -64 54q-17 0 -32.5 -7t-26.5 -19t-17.5 -21.5t-13.5 -22.5l-6 -13l-156 48q75 158 261 158q107 0 170 -43t63 -137q0 -33 -11 -91l-51 -270
q-11 -53 -12 -76h-188zM341 179l17 92l-52 -2q-126 -5 -126 -83q0 -21 13.5 -38.5t38.5 -17.5q23 0 56.5 16.5t52.5 32.5zM159 664l26 133h174l-26 -133h-174zM395 664l26 133h174l-26 -133h-174z" />
    <glyph glyph-name="aring" unicode="&#xe5;" horiz-adv-x="611" 
d="M304 0l16 76h-2q-58 -54 -98 -72t-80 -18q-62 0 -103 39t-41 116q0 114 85.5 174t222.5 64l76 2q8 43 8 59q0 54 -64 54q-17 0 -32.5 -7t-26.5 -19t-17.5 -21.5t-13.5 -22.5l-6 -13l-156 48q75 158 261 158q107 0 170 -43t63 -137q0 -33 -11 -91l-51 -270
q-11 -53 -12 -76h-188zM341 179l17 92l-52 -2q-126 -5 -126 -83q0 -21 13.5 -38.5t38.5 -17.5q23 0 56.5 16.5t52.5 32.5zM267 751q0 45 33 78t78 33t78 -33t33 -78t-33 -78t-78 -33t-78 33t-33 78zM327 751q0 -21 15 -36t36 -15t36 15t15 36t-15 36t-36 15t-36 -15t-15 -36
z" />
    <glyph glyph-name="ae" unicode="&#xe6;" horiz-adv-x="944" 
d="M897 247h-384q-4 -17 -4 -46q0 -82 83 -82q35 0 63.5 24.5t39.5 48.5l155 -53q-14 -21 -26 -36.5t-37.5 -39.5t-53.5 -39t-71 -26.5t-92 -11.5q-58 0 -116 25.5t-84 72.5q-33 -33 -99.5 -65.5t-122.5 -32.5q-75 0 -119 38.5t-44 116.5q0 114 85.5 174t222.5 64l76 2
q8 43 8 59q0 54 -64 54q-17 0 -32.5 -7t-26.5 -19t-17.5 -21.5t-12.5 -22.5l-7 -13l-156 48q75 158 261 158q43 0 76 -7.5t55.5 -22.5t30.5 -22t21 -21q63 73 179 73q100 0 164.5 -65.5t64.5 -183.5q0 -83 -16 -121zM534 370h195q6 16 6 42q0 37 -24 56t-59 19
q-36 0 -62.5 -21.5t-37.5 -44.5t-18 -51zM330 179l17 92l-52 -2q-126 -5 -126 -83q0 -21 13.5 -38.5t38.5 -17.5q23 0 56.5 16.5t52.5 32.5z" />
    <glyph glyph-name="ccedilla" unicode="&#xe7;" horiz-adv-x="574" 
d="M356 219l163 -40q-28 -80 -92 -134.5t-156 -58.5l-35 -46v-2q9 4 30 4q34 0 56.5 -19t22.5 -54q0 -47 -36.5 -70t-92.5 -23q-62 0 -125 29l27 49q53 -23 82 -23q50 0 50 35q0 26 -38 26q-22 0 -33 -7l-25 29l56 72q-93 13 -143.5 79.5t-50.5 169.5q0 51 10 102t33 102
t57.5 90t88 63.5t119.5 24.5q115 0 174 -51.5t63 -132.5l-167 -43q4 17 4 35q0 27 -18 44.5t-51 17.5q-38 0 -66 -34.5t-40.5 -86.5t-17.5 -94.5t-5 -75.5q0 -77 70 -77q37 0 59 31.5t27 68.5z" />
    <glyph glyph-name="egrave" unicode="&#xe8;" 
d="M245 770h144l73 -111h-90zM382 192l155 -53q-14 -21 -26 -37t-36.5 -39.5t-50 -38.5t-64.5 -26.5t-83 -11.5q-127 0 -194.5 66.5t-67.5 182.5q0 98 40 184.5t117.5 142t173.5 55.5q124 0 189 -64t65 -185q0 -83 -16 -121h-381q-7 -17 -7 -46q0 -82 83 -82q35 0 63.5 24.5
t39.5 48.5zM221 370h195q6 16 6 42q0 37 -24 56t-59 19q-36 0 -62.5 -21.5t-37.5 -44.5t-18 -51z" />
    <glyph glyph-name="eacute" unicode="&#xe9;" 
d="M335 664l77 111h147l-133 -111h-91zM382 192l155 -53q-14 -21 -26 -37t-36.5 -39.5t-50 -38.5t-64.5 -26.5t-83 -11.5q-127 0 -194.5 66.5t-67.5 182.5q0 98 40 184.5t117.5 142t173.5 55.5q124 0 189 -64t65 -185q0 -83 -16 -121h-381q-7 -17 -7 -46q0 -82 83 -82
q35 0 63.5 24.5t39.5 48.5zM221 370h195q6 16 6 42q0 37 -24 56t-59 19q-36 0 -62.5 -21.5t-37.5 -44.5t-18 -51z" />
    <glyph glyph-name="ecircumflex" unicode="&#xea;" 
d="M235 657l98 99h111l59 -99h-80l-36 51l-57 -51h-95zM382 192l155 -53q-14 -21 -26 -37t-36.5 -39.5t-50 -38.5t-64.5 -26.5t-83 -11.5q-127 0 -194.5 66.5t-67.5 182.5q0 98 40 184.5t117.5 142t173.5 55.5q124 0 189 -64t65 -185q0 -83 -16 -121h-381q-7 -17 -7 -46
q0 -82 83 -82q35 0 63.5 24.5t39.5 48.5zM221 370h195q6 16 6 42q0 37 -24 56t-59 19q-36 0 -62.5 -21.5t-37.5 -44.5t-18 -51z" />
    <glyph glyph-name="edieresis" unicode="&#xeb;" 
d="M382 192l155 -53q-14 -21 -26 -37t-36.5 -39.5t-50 -38.5t-64.5 -26.5t-83 -11.5q-127 0 -194.5 66.5t-67.5 182.5q0 98 40 184.5t117.5 142t173.5 55.5q124 0 189 -64t65 -185q0 -83 -16 -121h-381q-7 -17 -7 -46q0 -82 83 -82q35 0 63.5 24.5t39.5 48.5zM221 370h195
q6 16 6 42q0 37 -24 56t-59 19q-36 0 -62.5 -21.5t-37.5 -44.5t-18 -51zM168 664l26 133h174l-26 -133h-174zM404 664l26 133h174l-26 -133h-174z" />
    <glyph glyph-name="igrave" unicode="&#xec;" horiz-adv-x="315" 
d="M45 770h144l73 -111h-90zM-6 0l115 603h188l-115 -603h-188z" />
    <glyph glyph-name="iacute" unicode="&#xed;" horiz-adv-x="315" 
d="M165 654l77 111h147l-133 -111h-91zM-6 0l115 603h188l-115 -603h-188z" />
    <glyph glyph-name="icircumflex" unicode="&#xee;" horiz-adv-x="315" 
d="M-6 0l115 603h188l-115 -603h-188zM19 659l146 145h164l88 -145h-120l-53 74l-85 -74h-140z" />
    <glyph glyph-name="idieresis" unicode="&#xef;" horiz-adv-x="315" 
d="M-6 0l115 603h188l-115 -603h-188zM11 664l26 133h174l-26 -133h-174zM247 664l26 133h174l-26 -133h-174z" />
    <glyph glyph-name="eth" unicode="&#xf0;" horiz-adv-x="648" 
d="M145 630l106 53q-12 14 -57 57l128 72q36 -25 72 -61l118 61l48 -59l-116 -59q33 -39 52.5 -65t45 -69.5t38 -93t12.5 -105.5q0 -54 -11.5 -106t-37 -101t-62.5 -86t-93.5 -59.5t-125.5 -22.5q-114 0 -182 59t-68 187q0 79 33.5 152.5t98 122.5t143.5 49q44 0 87 -20l2 2
q-28 49 -72 93l-116 -57zM196 204q0 -49 19 -70.5t56 -21.5q44 0 76.5 38t46.5 88.5t14 102.5q0 100 -77 100q-44 0 -76 -39.5t-45.5 -91.5t-13.5 -106z" />
    <glyph glyph-name="ntilde" unicode="&#xf1;" horiz-adv-x="667" 
d="M-6 0l115 603h188l-16 -83q127 97 208 97q60 0 92 -34t32 -84q0 -44 -6 -71l-82 -428h-188l69 362q9 43 9 53q0 21 -13 32t-30 11q-32 0 -89 -40l-24 -16l-77 -402h-188zM290 657h-81q0 15 4.5 34.5t16.5 45.5t40.5 43.5t69.5 17.5q18 0 40 -8l58 -23q27 -9 34 -9
q24 0 35 15.5t11 26.5h81q0 -15 -4.5 -34.5t-16.5 -45.5t-40.5 -43.5t-68.5 -17.5q-16 0 -34 6l-65 25q-22 8 -37 8q-24 0 -33.5 -14.5t-9.5 -26.5z" />
    <glyph glyph-name="ograve" unicode="&#xf2;" horiz-adv-x="648" 
d="M245 770h144l73 -111h-90zM12 235q0 50 13.5 102t41.5 102.5t67 90t95.5 63.5t120.5 24q127 0 193.5 -66.5t66.5 -182.5q0 -50 -13.5 -102t-41.5 -102.5t-67 -90t-95.5 -63.5t-120.5 -24q-127 0 -193.5 66.5t-66.5 182.5zM278 119q45 0 79.5 49t49.5 109t15 113
q0 94 -78 94q-38 0 -67.5 -26.5t-45.5 -69t-23.5 -87t-7.5 -88.5q0 -94 78 -94z" />
    <glyph glyph-name="oacute" unicode="&#xf3;" horiz-adv-x="648" 
d="M335 664l77 111h147l-133 -111h-91zM12 235q0 50 13.5 102t41.5 102.5t67 90t95.5 63.5t120.5 24q127 0 193.5 -66.5t66.5 -182.5q0 -50 -13.5 -102t-41.5 -102.5t-67 -90t-95.5 -63.5t-120.5 -24q-127 0 -193.5 66.5t-66.5 182.5zM278 119q45 0 79.5 49t49.5 109t15 113
q0 94 -78 94q-38 0 -67.5 -26.5t-45.5 -69t-23.5 -87t-7.5 -88.5q0 -94 78 -94z" />
    <glyph glyph-name="ocircumflex" unicode="&#xf4;" horiz-adv-x="648" 
d="M235 657l98 99h111l59 -99h-80l-36 51l-57 -51h-95zM12 235q0 50 13.5 102t41.5 102.5t67 90t95.5 63.5t120.5 24q127 0 193.5 -66.5t66.5 -182.5q0 -50 -13.5 -102t-41.5 -102.5t-67 -90t-95.5 -63.5t-120.5 -24q-127 0 -193.5 66.5t-66.5 182.5zM278 119q45 0 79.5 49
t49.5 109t15 113q0 94 -78 94q-38 0 -67.5 -26.5t-45.5 -69t-23.5 -87t-7.5 -88.5q0 -94 78 -94z" />
    <glyph glyph-name="otilde" unicode="&#xf5;" horiz-adv-x="648" 
d="M305 665h-54q0 14 7 34t31 41t60 21q13 0 27 -6l38 -16q18 -5 24 -5q16 0 27.5 11t11.5 17h54q0 -10 -4 -23.5t-13 -31t-29.5 -29.5t-48.5 -12q-8 0 -23 5l-44 17q-15 5 -25 5q-17 0 -28 -10.5t-11 -17.5zM12 235q0 50 13.5 102t41.5 102.5t67 90t95.5 63.5t120.5 24
q127 0 193.5 -66.5t66.5 -182.5q0 -50 -13.5 -102t-41.5 -102.5t-67 -90t-95.5 -63.5t-120.5 -24q-127 0 -193.5 66.5t-66.5 182.5zM278 119q45 0 79.5 49t49.5 109t15 113q0 94 -78 94q-38 0 -67.5 -26.5t-45.5 -69t-23.5 -87t-7.5 -88.5q0 -94 78 -94z" />
    <glyph glyph-name="odieresis" unicode="&#xf6;" horiz-adv-x="648" 
d="M12 235q0 50 13.5 102t41.5 102.5t67 90t95.5 63.5t120.5 24q127 0 193.5 -66.5t66.5 -182.5q0 -50 -13.5 -102t-41.5 -102.5t-67 -90t-95.5 -63.5t-120.5 -24q-127 0 -193.5 66.5t-66.5 182.5zM278 119q45 0 79.5 49t49.5 109t15 113q0 94 -78 94q-38 0 -67.5 -26.5
t-45.5 -69t-23.5 -87t-7.5 -88.5q0 -94 78 -94zM177 664l26 133h174l-26 -133h-174zM413 664l26 133h174l-26 -133h-174z" />
    <glyph glyph-name="divide" unicode="&#xf7;" horiz-adv-x="600" 
d="M47 193v120h253h253v-120h-506zM208 460q0 39 26.5 65.5t65.5 26.5t65.5 -26.5t26.5 -65.5t-26.5 -65.5t-65.5 -26.5t-65.5 26.5t-26.5 65.5zM208 46q0 39 26.5 65.5t65.5 26.5t65.5 -26.5t26.5 -65.5t-26.5 -65.5t-65.5 -26.5t-65.5 26.5t-26.5 65.5z" />
    <glyph glyph-name="oslash" unicode="&#xf8;" horiz-adv-x="648" 
d="M422 382l-219 -204q12 -59 77 -59q59 0 100.5 85t41.5 178zM200 232l216 202q-16 50 -74 50q-47 0 -80.5 -43.5t-47.5 -98.5t-14 -110zM-29 16l79 74q-38 59 -38 145q0 50 13.5 102t41.5 102.5t67 90t95.5 63.5t120.5 24q125 0 192 -65l77 72l29 -30l-79 -74
q41 -62 41 -152q0 -50 -13.5 -102t-41.5 -102.5t-67 -90t-95.5 -63.5t-120.5 -24q-129 0 -197 71l-75 -71z" />
    <glyph glyph-name="ugrave" unicode="&#xf9;" horiz-adv-x="648" 
d="M245 770h144l73 -111h-90zM331 0l16 83q-34 -27 -53.5 -41.5t-64.5 -35t-82 -20.5q-59 0 -92.5 32t-33.5 86q0 38 9 85l79 414h188l-69 -362q-8 -38 -8 -53q0 -43 51 -43q29 0 70 28l26 21l79 409h188l-115 -603h-188z" />
    <glyph glyph-name="uacute" unicode="&#xfa;" horiz-adv-x="648" 
d="M335 664l77 111h147l-133 -111h-91zM331 0l16 83q-34 -27 -53.5 -41.5t-64.5 -35t-82 -20.5q-59 0 -92.5 32t-33.5 86q0 38 9 85l79 414h188l-69 -362q-8 -38 -8 -53q0 -43 51 -43q29 0 70 28l26 21l79 409h188l-115 -603h-188z" />
    <glyph glyph-name="ucircumflex" unicode="&#xfb;" horiz-adv-x="648" 
d="M331 0l16 83q-34 -27 -53.5 -41.5t-64.5 -35t-82 -20.5q-59 0 -92.5 32t-33.5 86q0 38 9 85l79 414h188l-69 -362q-8 -38 -8 -53q0 -43 51 -43q29 0 70 28l26 21l79 409h188l-115 -603h-188zM185 659l146 145h164l88 -145h-120l-53 74l-85 -74h-140z" />
    <glyph glyph-name="udieresis" unicode="&#xfc;" horiz-adv-x="648" 
d="M331 0l16 83q-34 -27 -53.5 -41.5t-64.5 -35t-82 -20.5q-59 0 -92.5 32t-33.5 86q0 38 9 85l79 414h188l-69 -362q-8 -38 -8 -53q0 -43 51 -43q29 0 70 28l26 21l79 409h188l-115 -603h-188zM177 664l26 133h174l-26 -133h-174zM413 664l26 133h174l-26 -133h-174z" />
    <glyph glyph-name="yacute" unicode="&#xfd;" horiz-adv-x="593" 
d="M335 664l77 111h147l-133 -111h-91zM139 7l-95 596h194l21 -315q3 -35 -3 -106h9q12 65 33 107l147 314h194l-338 -639q-45 -85 -102 -125.5t-139 -40.5q-81 0 -130 21l35 134q42 -16 78 -16q31 0 57 19t31 33z" />
    <glyph glyph-name="thorn" unicode="&#xfe;" horiz-adv-x="667" 
d="M-38 -195l186 972h188l-44 -234h2q27 32 70.5 53t89.5 21q85 0 127.5 -60t42.5 -148q0 -79 -16.5 -152.5t-49 -135t-87 -98.5t-123.5 -37q-95 0 -148 78l-12 -64l-38 -195h-188zM270 429l-49 -257q32 -47 79 -47q46 0 77 41t43.5 94.5t12.5 112.5q0 51 -15.5 75t-55.5 24
q-43 0 -92 -43z" />
    <glyph glyph-name="ydieresis" unicode="&#xff;" horiz-adv-x="593" 
d="M139 7l-95 596h194l21 -315q3 -35 -3 -106h9q12 65 33 107l147 314h194l-338 -639q-45 -85 -102 -125.5t-139 -40.5q-81 0 -130 21l35 134q42 -16 78 -16q31 0 57 19t31 33zM150 664l26 133h174l-26 -133h-174zM386 664l26 133h174l-26 -133h-174z" />
    <glyph glyph-name="glyph271" unicode="&#x102;" horiz-adv-x="759" 
d="M494 0l-18 146h-258l-78 -146h-207l399 712h248l110 -712h-196zM459 285l-24 191q-6 54 -6 91h-5q-28 -72 -37 -89l-95 -193h167zM341 874h58q0 -5 2.5 -13t9 -18.5t22 -18t38.5 -7.5q63 0 87 57h63q-3 -12 -10.5 -27t-23.5 -37.5t-46.5 -37.5t-69.5 -15q-40 0 -68.5 14
t-40.5 35t-16.5 37.5t-4.5 30.5z" />
    <glyph glyph-name="glyph272" unicode="&#x103;" horiz-adv-x="611" 
d="M304 0l16 76h-2q-58 -54 -98 -72t-80 -18q-62 0 -103 39t-41 116q0 114 85.5 174t222.5 64l76 2q8 43 8 59q0 54 -64 54q-17 0 -32.5 -7t-26.5 -19t-17.5 -21.5t-13.5 -22.5l-6 -13l-156 48q75 158 261 158q107 0 170 -43t63 -137q0 -33 -11 -91l-51 -270
q-11 -53 -12 -76h-188zM341 179l17 92l-52 -2q-126 -5 -126 -83q0 -21 13.5 -38.5t38.5 -17.5q23 0 56.5 16.5t52.5 32.5zM248 771h55q0 -7 3.5 -18t20.5 -23.5t44 -12.5q58 0 83 54h60q-39 -111 -143 -111q-38 0 -64.5 13t-38 33t-16 35.5t-4.5 29.5z" />
    <glyph glyph-name="Cacute" unicode="&#x106;" horiz-adv-x="711" 
d="M700 510l-184 -35q-3 39 -25.5 72t-71.5 33q-51 0 -90 -32t-60 -82.5t-31 -103.5t-10 -105q0 -129 106 -129q30 0 56.5 14.5t43.5 36t27 37.5t14 28l167 -39q-3 -12 -9.5 -30.5t-29.5 -54.5t-54.5 -64.5t-89 -50.5t-127.5 -22q-142 0 -224.5 75t-82.5 224
q0 84 25.5 162.5t75 143t130.5 103t182 38.5q64 0 114 -20t76 -46.5t43.5 -61.5t22 -54.5t6.5 -36.5zM307 914l110 145h208l-188 -145h-130z" />
    <glyph glyph-name="cacute" unicode="&#x107;" horiz-adv-x="441" 
d="M356 219l163 -40q-31 -84 -98 -138.5t-165 -54.5q-113 0 -176.5 67t-63.5 182q0 51 10 102t33 102t57.5 90t88 63.5t119.5 24.5q115 0 174 -51.5t63 -132.5l-167 -43q4 17 4 35q0 27 -18 44.5t-51 17.5q-38 0 -66 -34.5t-40.5 -86.5t-17.5 -94.5t-5 -75.5q0 -77 70 -77
q37 0 59 31.5t27 68.5zM110 659l110 145h208l-188 -145h-130z" />
    <glyph glyph-name="Ccaron" unicode="&#x10c;" horiz-adv-x="711" 
d="M700 510l-184 -35q-3 39 -25.5 72t-71.5 33q-51 0 -90 -32t-60 -82.5t-31 -103.5t-10 -105q0 -129 106 -129q30 0 56.5 14.5t43.5 36t27 37.5t14 28l167 -39q-3 -12 -9.5 -30.5t-29.5 -54.5t-54.5 -64.5t-89 -50.5t-127.5 -22q-142 0 -224.5 75t-82.5 224
q0 84 25.5 162.5t75 143t130.5 103t182 38.5q64 0 114 -20t76 -46.5t43.5 -61.5t22 -54.5t6.5 -36.5zM266 968l82 -102l82 102h65l-113 -139h-67l-114 139h65z" />
    <glyph glyph-name="ccaron" unicode="&#x10d;" horiz-adv-x="441" 
d="M356 219l163 -40q-31 -84 -98 -138.5t-165 -54.5q-113 0 -176.5 67t-63.5 182q0 51 10 102t33 102t57.5 90t88 63.5t119.5 24.5q115 0 174 -51.5t63 -132.5l-167 -43q4 17 4 35q0 27 -18 44.5t-51 17.5q-38 0 -66 -34.5t-40.5 -86.5t-17.5 -94.5t-5 -75.5q0 -77 70 -77
q37 0 59 31.5t27 68.5zM69 713l82 -102l82 102h65l-113 -139h-67l-114 139h65z" />
    <glyph glyph-name="Dslash" unicode="&#x110;" horiz-adv-x="759" 
d="M0 0l65 341h-77l14 75h77l57 296h286q141 0 219.5 -80t78.5 -222q0 -176 -111.5 -293t-279.5 -117h-329zM397 416l-14 -75h-123l-38 -196h90q102 0 153.5 78t51.5 194q0 66 -34.5 106t-103.5 40h-77l-28 -147h123z" />
    <glyph glyph-name="dslash" unicode="&#x111;" horiz-adv-x="667" 
d="M394 649l18 77h76l14 61h188l-12 -61h124l-18 -77h-123l-129 -649h-188l11 59l-2 2q-27 -34 -70 -54.5t-90 -20.5q-85 0 -127.5 60t-42.5 148q0 79 16.5 152.5t49 135t87 98.5t123.5 37q95 0 148 -78l23 110h-76zM377 174l49 257q-29 47 -79 47q-45 0 -77 -45.5
t-44 -101.5t-12 -112q0 -44 15 -66.5t56 -22.5q46 0 92 44z" />
    <glyph glyph-name="Gbreve" unicode="&#x11e;" horiz-adv-x="767" 
d="M472 271h-105l27 139h289l-66 -344q-138 -83 -285 -83q-142 0 -224.5 75t-82.5 224q0 67 16 130.5t50 121t82 101t116 69t149 25.5q64 0 114.5 -16t78.5 -37.5t47 -50t25.5 -47.5t8.5 -35l-187 -45q-17 86 -105 86q-54 0 -94 -34t-60 -87t-29 -104t-9 -99q0 -66 32.5 -99
t91.5 -33q43 0 97 26zM224 961h39q17 -81 105 -81t107 81h37q-14 -126 -149 -126q-60 0 -97.5 33.5t-41.5 92.5z" />
    <glyph glyph-name="gbreve" unicode="&#x11f;" horiz-adv-x="492" 
d="M653 503h-130q31 -41 31 -92q0 -72 -71.5 -128.5t-183.5 -56.5q-13 0 -28 2t-20 2q-23 0 -23 -21q0 -19 31 -27l115 -30q36 -9 60.5 -18.5t51 -25.5t40 -40.5t13.5 -57.5q0 -88 -89 -150t-246 -62q-119 0 -189 40t-70 102q0 47 38 89.5t89 61.5l21 9q-24 16 -24 51
q0 33 27.5 61.5t55.5 37.5q-99 50 -99 151q0 98 74 157t179 59q28 0 70 -6q46 -8 64 -8h234zM391 424q0 36 -21 53t-54 17q-97 0 -97 -85q0 -32 21.5 -47.5t56.5 -15.5q36 0 65 21t29 57zM285 23l-112 28l-17 -12q-45 -34 -45 -68q0 -58 116 -58q128 0 128 61q0 19 -14 28
t-56 21zM26 706h39q17 -81 105 -81t107 81h37q-14 -126 -149 -126q-60 0 -97.5 33.5t-41.5 92.5z" />
    <glyph glyph-name="glyph273" unicode="&#x128;" horiz-adv-x="333" 
d="M0 0l136 712h194l-136 -712h-194zM174 768h-58q0 15 7.5 36t33 43.5t63.5 22.5q15 0 29 -6l41 -17q22 -6 25 -6q12 0 22 6.5t14.5 13.5t4.5 10h58q0 -15 -6.5 -36t-31.5 -43.5t-63 -22.5q-8 0 -25 5l-46 18q-22 6 -27 6q-12 0 -22 -6.5t-14.5 -13.5t-4.5 -10z" />
    <glyph glyph-name="glyph274" unicode="&#x129;" horiz-adv-x="315" 
d="M-6 0l115 603h188l-115 -603h-188zM125 655h-54q0 14 7 34t31 41t60 21q13 0 27 -6l38 -16q18 -5 24 -5q16 0 27.5 11t11.5 17h54q0 -10 -4 -23.5t-13 -31t-29.5 -29.5t-48.5 -12q-8 0 -23 5l-44 17q-15 5 -25 5q-17 0 -28 -10.5t-11 -17.5z" />
    <glyph glyph-name="Idot" unicode="&#x130;" horiz-adv-x="429" 
d="M0 0l136 712h194l-136 -712h-194zM226 839h-65v102h65v-102z" />
    <glyph glyph-name="dotlessi" unicode="&#x131;" horiz-adv-x="222" 
d="M138 518v-518h-60v518h60z" />
    <glyph glyph-name="Lslash" unicode="&#x141;" horiz-adv-x="556" 
d="M535 58v-58h-454v360l-81 -40v60l81 40v300h68v-250l81 40v-60l-81 -40v-352h386z" />
    <glyph glyph-name="lslash" unicode="&#x142;" horiz-adv-x="222" 
d="M141 390v-390h-60v340l-71 -40v60l71 40v320h60v-270l71 40v-60z" />
    <glyph glyph-name="OE" unicode="&#x152;" horiz-adv-x="1000" 
d="M878 0h-512q-151 0 -245 77t-94 226q0 30 5 63.5t19.5 75t36 80t57.5 76t81.5 65t111.5 44.5t143 17q33 0 111 -6q80 -6 116 -6h297l-27 -145h-256l-26 -132h238l-28 -145h-237l-28 -145h265zM452 153l79 412q-32 6 -77 6q-98 0 -161 -73t-63 -178q0 -90 45.5 -127.5
t145.5 -39.5h31z" />
    <glyph glyph-name="oe" unicode="&#x153;" horiz-adv-x="1000" 
d="M750 192l155 -53q-14 -21 -26 -36.5t-37.5 -39.5t-53.5 -39t-71 -26.5t-92 -11.5q-111 0 -170 71q-67 -71 -202 -71q-114 0 -179 66t-65 183q0 67 22.5 133.5t63.5 122.5t106.5 91t144.5 35q131 0 195 -68q62 68 198 68q100 0 164.5 -65.5t64.5 -183.5q0 -83 -16 -121
h-384q-4 -17 -4 -46q0 -82 83 -82q35 0 63.5 24.5t39.5 48.5zM589 370h195q6 16 6 42q0 37 -24 56t-59 19q-36 0 -62.5 -21.5t-37.5 -44.5t-18 -51zM197 213q0 -94 78 -94q45 0 79.5 49t49.5 109t15 113q0 94 -78 94q-38 0 -67.5 -26.5t-45.5 -69t-23.5 -87t-7.5 -88.5z" />
    <glyph glyph-name="Scedilla" unicode="&#x15e;" horiz-adv-x="656" 
d="M1 167l174 53q17 -98 107 -98q105 0 105 74q0 28 -21 45t-67 38l-106 48q-115 54 -115 170q0 103 82 167.5t211 64.5q120 0 186 -49t70 -119l-172 -47q-11 76 -93 76q-36 0 -63 -17.5t-27 -50.5q0 -16 5.5 -27.5t19.5 -21t21.5 -13t28.5 -12.5l92 -41q70 -32 108 -74
t38 -107q0 -43 -17 -84t-51.5 -77.5t-97 -59t-145.5 -22.5q-66 0 -117.5 16t-79 37.5t-45.5 49.5t-23.5 46.5t-7.5 34.5zM45 -86l65 88h63l-46 -62v-2q9 4 30 4q34 0 56.5 -19t22.5 -54q0 -47 -36.5 -70t-92.5 -23q-62 0 -125 29l27 49q53 -23 82 -23q50 0 50 35
q0 26 -38 26q-22 0 -33 -7z" />
    <glyph glyph-name="scedilla" unicode="&#x15f;" horiz-adv-x="383" 
d="M-18 141l164 47q2 -19 6.5 -32t24 -26.5t51.5 -13.5q31 0 51 13.5t20 36.5q0 13 -4 22t-17 16.5t-21 10.5t-33 12l-68 25q-110 39 -110 157q0 96 73.5 152t185.5 56q57 0 102 -15.5t71 -41t39.5 -46t21.5 -41.5l-159 -47q-2 11 -4 17.5t-9.5 20t-23 20.5t-37.5 7
q-36 0 -56 -16t-20 -39q0 -22 16.5 -33.5t58.5 -23.5l75 -23q117 -36 117 -149q0 -37 -14.5 -73.5t-45.5 -71t-89 -55.5t-135 -21q-62 0 -106.5 13.5t-68.5 39t-36 48.5t-20 54zM-50 -86l65 88h63l-46 -62v-2q9 4 30 4q34 0 56.5 -19t22.5 -54q0 -47 -36.5 -70t-92.5 -23
q-62 0 -125 29l27 49q53 -23 82 -23q50 0 50 35q0 26 -38 26q-22 0 -33 -7z" />
    <glyph glyph-name="Scaron" unicode="&#x160;" horiz-adv-x="648" 
d="M1 167l174 53q17 -98 107 -98q105 0 105 74q0 28 -21 45t-67 38l-106 48q-115 54 -115 170q0 103 82 167.5t211 64.5q120 0 186 -49t70 -119l-172 -47q-11 76 -93 76q-36 0 -63 -17.5t-27 -50.5q0 -16 5.5 -27.5t19.5 -21t21.5 -13t28.5 -12.5l92 -41q70 -32 108 -74
t38 -107q0 -43 -17 -84t-51.5 -77.5t-97 -59t-145.5 -22.5q-66 0 -117.5 16t-79 37.5t-45.5 49.5t-23.5 46.5t-7.5 34.5zM232 913h120l56 -75l85 75h138l-145 -145h-166z" />
    <glyph glyph-name="scaron" unicode="&#x161;" horiz-adv-x="556" 
d="M-18 141l164 47q2 -19 6.5 -32t24 -26.5t51.5 -13.5q31 0 51 13.5t20 36.5q0 13 -4 22t-17 16.5t-21 10.5t-33 12l-68 25q-110 39 -110 157q0 96 73.5 152t185.5 56q57 0 102 -15.5t71 -41t39.5 -46t21.5 -41.5l-159 -47q-2 11 -4 17.5t-9.5 20t-23 20.5t-37.5 7
q-36 0 -56 -16t-20 -39q0 -22 16.5 -33.5t58.5 -23.5l75 -23q117 -36 117 -149q0 -37 -14.5 -73.5t-45.5 -71t-89 -55.5t-135 -21q-62 0 -106.5 13.5t-68.5 39t-36 48.5t-20 54zM171 804h120l56 -75l85 75h138l-145 -145h-166z" />
    <glyph glyph-name="ch903" unicode="&#x168;" horiz-adv-x="741" 
d="M53 300l78 412h195l-76 -394q-15 -75 -15 -110q0 -36 24.5 -58t65.5 -22q72 0 101 34.5t43 105.5l85 444h188l-85 -440q-29 -148 -106 -218.5t-239 -70.5q-122 0 -196.5 56.5t-74.5 166.5q0 17 12 94zM384 768h-58q0 15 7.5 36t33 43.5t63.5 22.5q15 0 29 -6l41 -17
q22 -6 25 -6q12 0 22 6.5t14.5 13.5t4.5 10h58q0 -15 -6.5 -36t-31.5 -43.5t-63 -22.5q-8 0 -25 5l-46 18q-22 6 -27 6q-12 0 -22 -6.5t-14.5 -13.5t-4.5 -10z" />
    <glyph glyph-name="ch904" unicode="&#x169;" horiz-adv-x="648" 
d="M331 0l16 83q-34 -27 -53.5 -41.5t-64.5 -35t-82 -20.5q-59 0 -92.5 32t-33.5 86q0 38 9 85l79 414h188l-69 -362q-8 -38 -8 -53q0 -43 51 -43q29 0 70 28l26 21l79 409h188l-115 -603h-188zM315 655h-54q0 14 7 34t31 41t60 21q13 0 27 -6l38 -16q18 -5 24 -5
q16 0 27.5 11t11.5 17h54q0 -10 -4 -23.5t-13 -31t-29.5 -29.5t-48.5 -12q-8 0 -23 5l-44 17q-15 5 -25 5q-17 0 -28 -10.5t-11 -17.5z" />
    <glyph glyph-name="Ydieresis" unicode="&#x178;" horiz-adv-x="722" 
d="M196 0l50 262l-174 450h210l65 -200q3 -9 18 -91h5q26 54 43 79l147 212h226l-346 -450l-50 -262h-194zM214 773l26 133h174l-26 -133h-174zM450 773l26 133h174l-26 -133h-174z" />
    <glyph glyph-name="Zcaron" unicode="&#x17d;" horiz-adv-x="611" 
d="M-40 0l33 172l399 391h-310l29 149h535l-32 -169l-406 -394h331l-29 -149h-550zM214 913h120l56 -75l85 75h138l-145 -145h-166z" />
    <glyph glyph-name="zcaron" unicode="&#x17e;" horiz-adv-x="556" 
d="M-42 0l27 140l322 337q-25 -4 -77 -4h-169l25 130h479l-26 -135l-326 -340l2 -2q20 4 73 4h195l-25 -130h-500zM171 804h120l56 -75l85 75h138l-145 -145h-166z" />
    <glyph glyph-name="florin" unicode="&#x192;" horiz-adv-x="592" 
d="M-46 -115l65 107q13 -13 39 -13t42 15.5t25 54.5l70 290h-116l22 95h116l29 118q20 83 70.5 130t148.5 47q40 0 72 -10t43 -20l-69 -104q-16 14 -40 14q-32 0 -46 -21t-23 -65l-22 -89h116l-22 -95h-116l-60 -256q-17 -74 -44.5 -123t-61 -70.5t-60 -29t-57.5 -7.5
q-89 0 -121 32z" />
    <glyph glyph-name="glyph277" unicode="&#x1a0;" horiz-adv-x="778" 
d="M696 619l-2 1q51 -75 51 -192q0 -66 -16 -130t-50 -121t-82 -100t-116 -68.5t-149 -25.5q-144 0 -225.5 75t-81.5 204q0 68 16 133.5t49.5 126t81 106.5t116.5 73.5t150 27.5q131 0 207 -58q32 13 40 26q11 18 6 29q-4 12 -28 18q-23 8 -7 50l28 25q84 -7 105 -62
q22 -54 -29 -102q-21 -15 -64 -36zM542 444q0 136 -112 136q-46 0 -82.5 -23t-58 -57t-36 -78.5t-20 -83t-5.5 -74.5q0 -136 112 -136q46 0 82.5 23t58 58t36 79t20 82.5t5.5 73.5z" />
    <glyph glyph-name="glyph278" unicode="&#x1a1;" horiz-adv-x="556" 
d="M581 506v-2q29 -55 29 -136q0 -50 -13.5 -102t-41.5 -102.5t-67 -90t-95.5 -63.5t-120.5 -24q-127 0 -193.5 66.5t-66.5 182.5q0 50 13.5 102t41.5 102.5t67 90t95.5 63.5t120.5 24q129 0 197 -68q24 16 28 24q11 17 6 27q-5 11 -26 17t-6 44l25 24q77 -11 96 -59
q20 -48 -27 -93q-21 -16 -62 -27zM278 119q45 0 79.5 49t49.5 109t15 113q0 94 -78 94q-38 0 -67.5 -26.5t-45.5 -69t-23.5 -87t-7.5 -88.5q0 -94 78 -94z" />
    <glyph glyph-name="glyph279" unicode="&#x1af;" horiz-adv-x="741" 
d="M736 657l-2 -8l-77 -377q-29 -148 -106 -218.5t-239 -70.5q-122 0 -196.5 56.5t-74.5 166.5q0 17 12 94l78 412h195l-76 -394q-15 -75 -15 -110q0 -36 24.5 -58t65.5 -22q72 0 101 34.5t43 105.5l85 444q11 -2 44 -9t44.5 -7.5t44.5 0.5q40 15 46 34q5 20 -24 26
q-27 7 -14 52q20 23 44 24q65 -17 80 -63t-15 -83q-21 -24 -68 -29z" />
    <glyph glyph-name="glyph280" unicode="&#x1b0;" horiz-adv-x="656" 
d="M626 569l1 -2l-108 -567h-188l16 83q-34 -27 -53.5 -41.5t-64.5 -35t-82 -20.5q-59 0 -92.5 32t-33.5 86q0 38 9 85l79 414h188l-69 -362q-8 -38 -8 -53q0 -43 51 -43q29 0 70 28l26 21l79 409h142q39 19 43 34q4 18 -22 24t-13 48q17 21 41 23q60 -15 74 -59t-14 -77
q-34 -22 -71 -27z" />
    <glyph glyph-name="circumflex" unicode="&#x2c6;" horiz-adv-x="278" 
d="M0 659l146 145h164l88 -145h-120l-53 74l-85 -74h-140z" />
    <glyph glyph-name="caron" unicode="&#x2c7;" horiz-adv-x="333" 
d="M89 713l82 -102l82 102h65l-113 -139h-67l-114 139h65z" />
    <glyph glyph-name="breve" unicode="&#x2d8;" horiz-adv-x="333" 
d="M28 706h39q17 -81 105 -81t107 81h37q-14 -126 -149 -126q-60 0 -97.5 33.5t-41.5 92.5z" />
    <glyph glyph-name="dotaccent" unicode="&#x2d9;" horiz-adv-x="333" 
d="M199 584h-65v102h65v-102z" />
    <glyph glyph-name="ring" unicode="&#x2da;" horiz-adv-x="333" 
d="M167 578q-40 0 -71 29q-29 31 -29 70q0 40 30 70t70 30t69.5 -30t29.5 -70q0 -39 -29 -70q-29 -29 -70 -29zM167 611q26 0 46 20t20 46q0 27 -19.5 47t-46.5 20t-47 -20t-20 -47t20 -46.5t47 -19.5z" />
    <glyph glyph-name="ogonek" unicode="&#x2db;" horiz-adv-x="333" 
d="M149 0h50v-2q-80 -41 -80 -87q0 -28 21 -43q19 -14 46 -14q21 0 42 9v-44q-25 -9 -52 -9q-42 0 -70 22q-32 24 -32 65q0 65 75 103z" />
    <glyph glyph-name="tilde" unicode="&#x2dc;" horiz-adv-x="278" 
d="M95 657h-81q0 15 4.5 34.5t16.5 45.5t40.5 43.5t69.5 17.5q18 0 40 -8l58 -23q27 -9 34 -9q24 0 35 15.5t11 26.5h81q0 -15 -4.5 -34.5t-16.5 -45.5t-40.5 -43.5t-68.5 -17.5q-16 0 -34 6l-65 25q-22 8 -37 8q-24 0 -33.5 -14.5t-9.5 -26.5z" />
    <glyph glyph-name="hungarumlaut" unicode="&#x2dd;" horiz-adv-x="333" 
d="M297 713l-137 -139h-51l111 139h77zM459 713l-137 -139h-51l111 139h77z" />
    <glyph glyph-name="increment" unicode="&#x394;" horiz-adv-x="1000" 
 />
    <glyph glyph-name="increment" unicode="&#x2206;" horiz-adv-x="1000" 
 />
    <glyph glyph-name="Omega" unicode="&#x3a9;" horiz-adv-x="1000" 
 />
    <glyph glyph-name="Omega" unicode="&#x2126;" horiz-adv-x="1000" 
 />
    <glyph glyph-name="pi" unicode="&#x3c0;" horiz-adv-x="1000" 
 />
    <glyph glyph-name="glyph281" unicode="&#x1ea0;" horiz-adv-x="759" 
d="M494 0l-18 146h-258l-78 -146h-207l399 712h248l110 -712h-196zM459 285l-24 191q-6 54 -6 91h-5q-28 -72 -37 -89l-95 -193h167zM227 -175l24 124h124l-24 -124h-124z" />
    <glyph glyph-name="glyph282" unicode="&#x1ea1;" horiz-adv-x="611" 
d="M304 0l16 76h-2q-58 -54 -98 -72t-80 -18q-62 0 -103 39t-41 116q0 114 85.5 174t222.5 64l76 2q8 43 8 59q0 54 -64 54q-17 0 -32.5 -7t-26.5 -19t-17.5 -21.5t-13.5 -22.5l-6 -13l-156 48q75 158 261 158q107 0 170 -43t63 -137q0 -33 -11 -91l-51 -270
q-11 -53 -12 -76h-188zM341 179l17 92l-52 -2q-126 -5 -126 -83q0 -21 13.5 -38.5t38.5 -17.5q23 0 56.5 16.5t52.5 32.5zM219 -165v116h112v-116h-112z" />
    <glyph glyph-name="glyph283" unicode="&#x1ea2;" horiz-adv-x="759" 
d="M494 0l-18 146h-258l-78 -146h-207l399 712h248l110 -712h-196zM459 285l-24 191q-6 54 -6 91h-5q-28 -72 -37 -89l-95 -193h167zM485 760l-56 -1q0 30 23 61q32 40 34 54q1 11 -6 17t-21 8q-14 1 -41 -19l-23 30q37 54 94 49q30 -1 54 -16q28 -18 24 -70q-2 -22 -62 -77
q-14 -14 -20 -36z" />
    <glyph glyph-name="glyph284" unicode="&#x1ea3;" horiz-adv-x="611" 
d="M304 0l16 76h-2q-58 -54 -98 -72t-80 -18q-62 0 -103 39t-41 116q0 114 85.5 174t222.5 64l76 2q8 43 8 59q0 54 -64 54q-17 0 -32.5 -7t-26.5 -19t-17.5 -21.5t-13.5 -22.5l-6 -13l-156 48q75 158 261 158q107 0 170 -43t63 -137q0 -33 -11 -91l-51 -270
q-11 -53 -12 -76h-188zM341 179l17 92l-52 -2q-126 -5 -126 -83q0 -21 13.5 -38.5t38.5 -17.5q23 0 56.5 16.5t52.5 32.5zM386 673h-54q-2 23 18 54q28 40 28 53q0 21 -28 21q-14 0 -37 -21l-24 26q31 54 84 54q29 0 53 -11q28 -13 28 -63q0 -19 -53 -77q-11 -15 -15 -36z
" />
    <glyph glyph-name="glyph285" unicode="&#x1ea4;" horiz-adv-x="759" 
d="M324 751l100 99h112l60 -99h-82l-36 51l-58 -51h-96zM630 801l78 113h148l-134 -113h-92zM494 0l-18 146h-258l-78 -146h-207l399 712h248l110 -712h-196zM459 285l-24 191q-6 54 -6 91h-5q-28 -72 -37 -89l-95 -193h167z" />
    <glyph glyph-name="glyph286" unicode="&#x1ea5;" horiz-adv-x="611" 
d="M304 0l16 76h-2q-58 -54 -98 -72t-80 -18q-62 0 -103 39t-41 116q0 114 85.5 174t222.5 64l76 2q8 43 8 59q0 54 -64 54q-17 0 -32.5 -7t-26.5 -19t-17.5 -21.5t-13.5 -22.5l-6 -13l-156 48q75 158 261 158q107 0 170 -43t63 -137q0 -33 -11 -91l-51 -270
q-11 -53 -12 -76h-188zM341 179l17 92l-52 -2q-126 -5 -126 -83q0 -21 13.5 -38.5t38.5 -17.5q23 0 56.5 16.5t52.5 32.5zM227 655l95 94h107l57 -94h-78l-34 49l-56 -49h-91zM518 703l74 107h141l-128 -107h-87z" />
    <glyph glyph-name="glyph287" unicode="&#x1ea6;" horiz-adv-x="759" 
d="M324 751l100 99h112l60 -99h-82l-36 51l-58 -51h-96zM117 922h145l74 -113h-91zM494 0l-18 146h-258l-78 -146h-207l399 712h248l110 -712h-196zM459 285l-24 191q-6 54 -6 91h-5q-28 -72 -37 -89l-95 -193h167z" />
    <glyph glyph-name="glyph288" unicode="&#x1ea7;" horiz-adv-x="611" 
d="M304 0l16 76h-2q-58 -54 -98 -72t-80 -18q-62 0 -103 39t-41 116q0 114 85.5 174t222.5 64l76 2q8 43 8 59q0 54 -64 54q-17 0 -32.5 -7t-26.5 -19t-17.5 -21.5t-13.5 -22.5l-6 -13l-156 48q75 158 261 158q107 0 170 -43t63 -137q0 -33 -11 -91l-51 -270
q-11 -53 -12 -76h-188zM341 179l17 92l-52 -2q-126 -5 -126 -83q0 -21 13.5 -38.5t38.5 -17.5q23 0 56.5 16.5t52.5 32.5zM214 648l95 94h106l57 -94h-78l-34 49l-55 -49h-91zM17 811h138l70 -108h-86z" />
    <glyph glyph-name="glyph289" unicode="&#x1ea8;" horiz-adv-x="759" 
d="M324 751l100 99h112l60 -99h-82l-36 51l-58 -51h-96zM645 809l-52 -1q0 28 21 57q30 36 32 50q1 11 -5.5 16.5t-19.5 6.5t-38 -17l-22 28q36 49 88 45q29 -2 50 -15q26 -16 22 -65q-1 -19 -58 -71q-14 -14 -18 -34zM494 0l-18 146h-258l-78 -146h-207l399 712h248
l110 -712h-196zM459 285l-24 191q-6 54 -6 91h-5q-28 -72 -37 -89l-95 -193h167z" />
    <glyph glyph-name="glyph290" unicode="&#x1ea9;" horiz-adv-x="611" 
d="M304 0l16 76h-2q-58 -54 -98 -72t-80 -18q-62 0 -103 39t-41 116q0 114 85.5 174t222.5 64l76 2q8 43 8 59q0 54 -64 54q-17 0 -32.5 -7t-26.5 -19t-17.5 -21.5t-13.5 -22.5l-6 -13l-156 48q75 158 261 158q107 0 170 -43t63 -137q0 -33 -11 -91l-51 -270
q-11 -53 -12 -76h-188zM341 179l17 92l-52 -2q-126 -5 -126 -83q0 -21 13.5 -38.5t38.5 -17.5q23 0 56.5 16.5t52.5 32.5zM230 661l95 94h106l57 -94h-77l-35 49l-55 -49h-91zM535 716l-49 -1q0 28 20 54q28 36 30 48q1 10 -5 15.5t-19 6.5q-12 1 -36 -16l-21 26
q34 48 84 43q27 -1 47 -14q26 -15 21 -62q-1 -18 -55 -67q-13 -14 -17 -33z" />
    <glyph glyph-name="glyph291" unicode="&#x1eaa;" horiz-adv-x="759" 
d="M324 751l100 99h112l60 -99h-82l-36 51l-58 -51h-96zM420 892h-54q0 26 23 60t74 34q15 0 27 -5l38 -16q22 -6 23 -6q12 0 21.5 6.5t13.5 12.5t4 9h54q0 -14 -6.5 -33.5t-29.5 -40t-58 -20.5q-13 0 -24 4l-42 17q-22 6 -26 6q-16 0 -27 -11t-11 -17zM494 0l-18 146h-258
l-78 -146h-207l399 712h248l110 -712h-196zM459 285l-24 191q-6 54 -6 91h-5q-28 -72 -37 -89l-95 -193h167z" />
    <glyph glyph-name="glyph292" unicode="&#x1eab;" horiz-adv-x="611" 
d="M304 0l16 76h-2q-58 -54 -98 -72t-80 -18q-62 0 -103 39t-41 116q0 114 85.5 174t222.5 64l76 2q8 43 8 59q0 54 -64 54q-17 0 -32.5 -7t-26.5 -19t-17.5 -21.5t-13.5 -22.5l-6 -13l-156 48q75 158 261 158q107 0 170 -43t63 -137q0 -33 -11 -91l-51 -270
q-11 -53 -12 -76h-188zM341 179l17 92l-52 -2q-126 -5 -126 -83q0 -21 13.5 -38.5t38.5 -17.5q23 0 56.5 16.5t52.5 32.5zM237 652l95 94h106l57 -94h-78l-34 48l-55 -48h-91zM328 786h-51q0 24 22 56.5t70 32.5q14 0 26 -5l36 -15q18 -6 22 -6q11 0 20 6t13 12t4 9h51
q0 -9 -4 -21.5t-12.5 -29t-27.5 -27.5t-45 -11q-14 0 -23 4l-40 16q-18 5 -25 5q-15 0 -25.5 -10t-10.5 -16z" />
    <glyph glyph-name="glyph293" unicode="&#x1eac;" horiz-adv-x="759" 
d="M324 751l100 99h112l60 -99h-82l-36 51l-58 -51h-96zM227 -175l24 124h124l-24 -124h-124zM494 0l-18 146h-258l-78 -146h-207l399 712h248l110 -712h-196zM459 285l-24 191q-6 54 -6 91h-5q-28 -72 -37 -89l-95 -193h167z" />
    <glyph glyph-name="glyph294" unicode="&#x1ead;" horiz-adv-x="611" 
d="M304 0l16 76h-2q-58 -54 -98 -72t-80 -18q-62 0 -103 39t-41 116q0 114 85.5 174t222.5 64l76 2q8 43 8 59q0 54 -64 54q-17 0 -32.5 -7t-26.5 -19t-17.5 -21.5t-13.5 -22.5l-6 -13l-156 48q75 158 261 158q107 0 170 -43t63 -137q0 -33 -11 -91l-51 -270
q-11 -53 -12 -76h-188zM341 179l17 92l-52 -2q-126 -5 -126 -83q0 -21 13.5 -38.5t38.5 -17.5q23 0 56.5 16.5t52.5 32.5zM247 660l95 95h106l57 -95h-78l-34 49l-55 -49h-91zM191 -172l22 118h118l-23 -118h-117z" />
    <glyph glyph-name="glyph295" unicode="&#x1eae;" horiz-adv-x="759" 
d="M494 0l-18 146h-258l-78 -146h-207l399 712h248l110 -712h-196zM459 285l-24 191q-6 54 -6 91h-5q-28 -72 -37 -89l-95 -193h167zM348 866h55q0 -7 3.5 -18t20.5 -23.5t44 -12.5q58 0 83 54h60q-39 -111 -143 -111q-38 0 -64.5 13t-38 33t-16 35.5t-4.5 29.5zM433 884
l78 113h148l-134 -113h-92z" />
    <glyph glyph-name="glyph296" unicode="&#x1eaf;" horiz-adv-x="611" 
d="M304 0l16 76h-2q-58 -54 -98 -72t-80 -18q-62 0 -103 39t-41 116q0 114 85.5 174t222.5 64l76 2q8 43 8 59q0 54 -64 54q-17 0 -32.5 -7t-26.5 -19t-17.5 -21.5t-13.5 -22.5l-6 -13l-156 48q75 158 261 158q107 0 170 -43t63 -137q0 -33 -11 -91l-51 -270
q-11 -53 -12 -76h-188zM341 179l17 92l-52 -2q-126 -5 -126 -83q0 -21 13.5 -38.5t38.5 -17.5q23 0 56.5 16.5t52.5 32.5zM265 769h52q0 -7 3.5 -17t19.5 -22t42 -12q35 0 54.5 18t23.5 33h57q-4 -12 -10 -24t-21 -33.5t-42 -34.5t-62 -13q-36 0 -61.5 12.5t-36.5 31.5
t-15 34t-4 27zM346 787l74 107h140l-127 -107h-87z" />
    <glyph glyph-name="glyph297" unicode="&#x1eb0;" horiz-adv-x="759" 
d="M494 0l-18 146h-258l-78 -146h-207l399 712h248l110 -712h-196zM459 285l-24 191q-6 54 -6 91h-5q-28 -72 -37 -89l-95 -193h167zM348 866h55q0 -7 3.5 -18t20.5 -23.5t44 -12.5q58 0 83 54h60q-39 -111 -143 -111q-38 0 -64.5 13t-38 33t-16 35.5t-4.5 29.5zM305 992
h145l74 -113h-91z" />
    <glyph glyph-name="glyph298" unicode="&#x1eb1;" horiz-adv-x="611" 
d="M304 0l16 76h-2q-58 -54 -98 -72t-80 -18q-62 0 -103 39t-41 116q0 114 85.5 174t222.5 64l76 2q8 43 8 59q0 54 -64 54q-17 0 -32.5 -7t-26.5 -19t-17.5 -21.5t-13.5 -22.5l-6 -13l-156 48q75 158 261 158q107 0 170 -43t63 -137q0 -33 -11 -91l-51 -270
q-11 -53 -12 -76h-188zM341 179l17 92l-52 -2q-126 -5 -126 -83q0 -21 13.5 -38.5t38.5 -17.5q23 0 56.5 16.5t52.5 32.5zM262 755h52q0 -7 3.5 -17t19 -22t41.5 -12q56 0 79 51h57q-4 -12 -10 -24t-21 -33.5t-42.5 -34.5t-62.5 -13q-36 0 -61.5 12.5t-36 31.5t-14.5 33.5
t-4 27.5zM221 875h137l71 -107h-87z" />
    <glyph glyph-name="glyph299" unicode="&#x1eb2;" horiz-adv-x="759" 
d="M494 0l-18 146h-258l-78 -146h-207l399 712h248l110 -712h-196zM459 285l-24 191q-6 54 -6 91h-5q-28 -72 -37 -89l-95 -193h167zM348 856h55q0 -7 3.5 -18t20.5 -23.5t44 -12.5q58 0 83 54h60q-39 -111 -143 -111q-38 0 -64.5 13t-38 33t-16 35.5t-4.5 29.5zM508 863
l-52 -1q0 26 21 54q30 36 32 50q1 11 -5.5 16.5t-19.5 6.5t-38 -17l-22 28q36 49 88 45q29 -2 50 -15q26 -16 22 -65q-1 -19 -58 -71q-14 -14 -18 -31z" />
    <glyph glyph-name="glyph300" unicode="&#x1eb3;" horiz-adv-x="611" 
d="M304 0l16 76h-2q-58 -54 -98 -72t-80 -18q-62 0 -103 39t-41 116q0 114 85.5 174t222.5 64l76 2q8 43 8 59q0 54 -64 54q-17 0 -32.5 -7t-26.5 -19t-17.5 -21.5t-13.5 -22.5l-6 -13l-156 48q75 158 261 158q107 0 170 -43t63 -137q0 -33 -11 -91l-51 -270
q-11 -53 -12 -76h-188zM341 179l17 92l-52 -2q-126 -5 -126 -83q0 -21 13.5 -38.5t38.5 -17.5q23 0 56.5 16.5t52.5 32.5zM261 774h52q0 -7 3.5 -17t19 -22t41.5 -12q36 0 55.5 18t23.5 33h57q-4 -12 -10 -24t-21 -33.5t-42.5 -34.5t-62.5 -13q-36 0 -61.5 12.5t-36 31.5
t-14.5 33.5t-4 27.5zM413 781l-50 -1q0 23 20 51q29 34 31 48q2 19 -24 21q-12 1 -36 -16l-21 27q35 47 83 43q28 -2 48 -15q25 -15 21 -61q-2 -19 -55 -68q-12 -11 -17 -29z" />
    <glyph glyph-name="glyph301" unicode="&#x1eb4;" horiz-adv-x="759" 
d="M494 0l-18 146h-258l-78 -146h-207l399 712h248l110 -712h-196zM459 285l-24 191q-6 54 -6 91h-5q-28 -72 -37 -89l-95 -193h167zM348 856h55q0 -7 3.5 -18t20.5 -23.5t44 -12.5q58 0 83 54h60q-39 -111 -143 -111q-38 0 -64.5 13t-38 33t-16 35.5t-4.5 29.5zM420 892
h-54q0 26 23 60t74 34q15 0 27 -5l38 -16q22 -6 23 -6q12 0 21.5 6.5t13.5 12.5t4 9h54q0 -14 -6.5 -33.5t-29.5 -40t-58 -20.5q-13 0 -24 4l-42 17q-22 6 -26 6q-16 0 -27 -11t-11 -17z" />
    <glyph glyph-name="glyph302" unicode="&#x1eb5;" horiz-adv-x="611" 
d="M304 0l16 76h-2q-58 -54 -98 -72t-80 -18q-62 0 -103 39t-41 116q0 114 85.5 174t222.5 64l76 2q8 43 8 59q0 54 -64 54q-17 0 -32.5 -7t-26.5 -19t-17.5 -21.5t-13.5 -22.5l-6 -13l-156 48q75 158 261 158q107 0 170 -43t63 -137q0 -33 -11 -91l-51 -270
q-11 -53 -12 -76h-188zM341 179l17 92l-52 -2q-126 -5 -126 -83q0 -21 13.5 -38.5t38.5 -17.5q23 0 56.5 16.5t52.5 32.5zM261 763h53q0 -7 3.5 -17t19 -22t41.5 -12q54 0 79 51h57q-4 -12 -10 -24t-21 -33.5t-42.5 -34.5t-62.5 -13q-36 0 -61.5 12.5t-36 31.5t-15 34
t-4.5 27zM330 798h-52q0 24 22.5 56.5t70.5 32.5q17 0 25 -5l36 -15l22 -6q11 0 20.5 6t13 12t3.5 9h52q0 -9 -4 -21.5t-12.5 -29t-28 -27.5t-45.5 -11q-9 0 -23 3l-39 17q-18 5 -25 5q-11 0 -20 -6t-12.5 -11.5t-3.5 -8.5z" />
    <glyph glyph-name="glyph303" unicode="&#x1eb6;" horiz-adv-x="759" 
d="M494 0l-18 146h-258l-78 -146h-207l399 712h248l110 -712h-196zM459 285l-24 191q-6 54 -6 91h-5q-28 -72 -37 -89l-95 -193h167zM348 866h55q0 -7 3.5 -18t20.5 -23.5t44 -12.5q58 0 83 54h60q-39 -111 -143 -111q-38 0 -64.5 13t-38 33t-16 35.5t-4.5 29.5zM227 -175
l24 124h124l-24 -124h-124z" />
    <glyph glyph-name="glyph304" unicode="&#x1eb7;" horiz-adv-x="611" 
d="M304 0l16 76h-2q-58 -54 -98 -72t-80 -18q-62 0 -103 39t-41 116q0 114 85.5 174t222.5 64l76 2q8 43 8 59q0 54 -64 54q-17 0 -32.5 -7t-26.5 -19t-17.5 -21.5t-13.5 -22.5l-6 -13l-156 48q75 158 261 158q107 0 170 -43t63 -137q0 -33 -11 -91l-51 -270
q-11 -53 -12 -76h-188zM341 179l17 92l-52 -2q-126 -5 -126 -83q0 -21 13.5 -38.5t38.5 -17.5q23 0 56.5 16.5t52.5 32.5zM251 765h52q0 -7 3.5 -17t19 -22t41.5 -12q36 0 55.5 18t23.5 33h57q-4 -12 -10 -24t-21 -33.5t-42.5 -34.5t-62.5 -13q-36 0 -61.5 12.5t-36 31.5
t-14.5 33.5t-4 27.5zM171 -172l22 118h118l-23 -118h-117z" />
    <glyph glyph-name="glyph305" unicode="&#x1eb8;" 
d="M0 0l136 712h498l-27 -145h-304l-26 -132h286l-28 -145h-285l-28 -145h313l-28 -145h-507zM187 -175l24 124h124l-24 -124h-124z" />
    <glyph glyph-name="glyph306" unicode="&#x1eb9;" 
d="M382 192l155 -53q-14 -21 -26 -37t-36.5 -39.5t-50 -38.5t-64.5 -26.5t-83 -11.5q-127 0 -194.5 66.5t-67.5 182.5q0 98 40 184.5t117.5 142t173.5 55.5q124 0 189 -64t65 -185q0 -83 -16 -121h-381q-7 -17 -7 -46q0 -82 83 -82q35 0 63.5 24.5t39.5 48.5zM221 370h195
q6 16 6 42q0 37 -24 56t-59 19q-36 0 -62.5 -21.5t-37.5 -44.5t-18 -51zM199 -175v116h112v-116h-112z" />
    <glyph glyph-name="glyph307" unicode="&#x1eba;" 
d="M0 0l136 712h498l-27 -145h-304l-26 -132h286l-28 -145h-285l-28 -145h313l-28 -145h-507zM435 760l-56 -1q0 30 23 61q32 40 34 54q1 11 -6 17t-21 8q-14 1 -41 -19l-23 30q37 54 94 49q30 -1 54 -16q28 -18 24 -70q-2 -22 -62 -77q-14 -14 -20 -36z" />
    <glyph glyph-name="glyph308" unicode="&#x1ebb;" 
d="M382 192l155 -53q-14 -21 -26 -37t-36.5 -39.5t-50 -38.5t-64.5 -26.5t-83 -11.5q-127 0 -194.5 66.5t-67.5 182.5q0 98 40 184.5t117.5 142t173.5 55.5q124 0 189 -64t65 -185q0 -83 -16 -121h-381q-7 -17 -7 -46q0 -82 83 -82q35 0 63.5 24.5t39.5 48.5zM221 370h195
q6 16 6 42q0 37 -24 56t-59 19q-36 0 -62.5 -21.5t-37.5 -44.5t-18 -51zM396 673h-54q-2 23 18 54q28 40 28 53q0 21 -28 21q-14 0 -37 -21l-24 26q31 54 84 54q29 0 53 -11q28 -13 28 -63q0 -19 -53 -77q-11 -15 -15 -36z" />
    <glyph glyph-name="glyph309" unicode="&#x1ebc;" 
d="M0 0l136 712h498l-27 -145h-304l-26 -132h286l-28 -145h-285l-28 -145h313l-28 -145h-507zM334 768h-58q0 15 7.5 36t33 43.5t63.5 22.5q15 0 29 -6l41 -17q22 -6 25 -6q12 0 22 6.5t14.5 13.5t4.5 10h58q0 -15 -6.5 -36t-31.5 -43.5t-63 -22.5q-8 0 -25 5l-46 18
q-22 6 -27 6q-12 0 -22 -6.5t-14.5 -13.5t-4.5 -10z" />
    <glyph glyph-name="glyph310" unicode="&#x1ebd;" 
d="M382 192l155 -53q-14 -21 -26 -37t-36.5 -39.5t-50 -38.5t-64.5 -26.5t-83 -11.5q-127 0 -194.5 66.5t-67.5 182.5q0 98 40 184.5t117.5 142t173.5 55.5q124 0 189 -64t65 -185q0 -83 -16 -121h-381q-7 -17 -7 -46q0 -82 83 -82q35 0 63.5 24.5t39.5 48.5zM221 370h195
q6 16 6 42q0 37 -24 56t-59 19q-36 0 -62.5 -21.5t-37.5 -44.5t-18 -51zM295 665h-54q0 14 7 34t31 41t60 21q13 0 27 -6l38 -16q18 -5 24 -5q16 0 27.5 11t11.5 17h54q0 -10 -4 -23.5t-13 -31t-29.5 -29.5t-48.5 -12q-8 0 -23 5l-44 17q-15 5 -25 5q-17 0 -28 -10.5
t-11 -17.5z" />
    <glyph glyph-name="glyph311" unicode="&#x1ebe;" 
d="M254 754l100 99h112l60 -99h-82l-36 51l-58 -51h-96zM530 801l78 113h148l-134 -113h-92zM0 0l136 712h498l-27 -145h-304l-26 -132h286l-28 -145h-285l-28 -145h313l-28 -145h-507z" />
    <glyph glyph-name="glyph312" unicode="&#x1ebf;" 
d="M382 192l155 -53q-14 -21 -26 -37t-36.5 -39.5t-50 -38.5t-64.5 -26.5t-83 -11.5q-127 0 -194.5 66.5t-67.5 182.5q0 98 40 184.5t117.5 142t173.5 55.5q124 0 189 -64t65 -185q0 -83 -16 -121h-381q-7 -17 -7 -46q0 -82 83 -82q35 0 63.5 24.5t39.5 48.5zM221 370h195
q6 16 6 42q0 37 -24 56t-59 19q-36 0 -62.5 -21.5t-37.5 -44.5t-18 -51zM255 654l95 94h106l57 -94h-78l-34 48l-55 -48h-91zM517 699l74 107h140l-127 -107h-87z" />
    <glyph glyph-name="glyph313" unicode="&#x1ec0;" 
d="M254 754l100 99h112l60 -99h-82l-36 51l-58 -51h-96zM57 922h145l74 -113h-91zM0 0l136 712h498l-27 -145h-304l-26 -132h286l-28 -145h-285l-28 -145h313l-28 -145h-507z" />
    <glyph glyph-name="glyph314" unicode="&#x1ec1;" 
d="M382 192l155 -53q-14 -21 -26 -37t-36.5 -39.5t-50 -38.5t-64.5 -26.5t-83 -11.5q-127 0 -194.5 66.5t-67.5 182.5q0 98 40 184.5t117.5 142t173.5 55.5q124 0 189 -64t65 -185q0 -83 -16 -121h-381q-7 -17 -7 -46q0 -82 83 -82q35 0 63.5 24.5t39.5 48.5zM221 370h195
q6 16 6 42q0 37 -24 56t-59 19q-36 0 -62.5 -21.5t-37.5 -44.5t-18 -51zM250 649l95 94h106l57 -94h-78l-34 49l-55 -49h-91zM63 809h137l71 -108h-87z" />
    <glyph glyph-name="glyph315" unicode="&#x1ec2;" 
d="M254 754l100 99h112l60 -99h-82l-36 51l-58 -51h-96zM585 809l-52 -1q0 28 21 57q30 36 32 50q1 11 -5.5 16.5t-19.5 6.5t-38 -17l-22 28q36 49 88 45q29 -2 50 -15q26 -16 22 -65q-1 -19 -58 -71q-14 -14 -18 -34zM0 0l136 712h498l-27 -145h-304l-26 -132h286l-28 -145
h-285l-28 -145h313l-28 -145h-507z" />
    <glyph glyph-name="glyph316" unicode="&#x1ec3;" 
d="M382 192l155 -53q-14 -21 -26 -37t-36.5 -39.5t-50 -38.5t-64.5 -26.5t-83 -11.5q-127 0 -194.5 66.5t-67.5 182.5q0 98 40 184.5t117.5 142t173.5 55.5q124 0 189 -64t65 -185q0 -83 -16 -121h-381q-7 -17 -7 -46q0 -82 83 -82q35 0 63.5 24.5t39.5 48.5zM221 370h195
q6 16 6 42q0 37 -24 56t-59 19q-36 0 -62.5 -21.5t-37.5 -44.5t-18 -51zM249 655l95 94h107l57 -94h-78l-34 49l-56 -49h-91zM564 707l-50 -1q0 27 20 55q29 34 31 47q1 10 -5 15.5t-19 6.5q-12 1 -36 -16l-21 26q34 48 84 43q27 -1 47 -14q26 -15 21 -62q-1 -18 -55 -67
q-12 -12 -17 -33z" />
    <glyph glyph-name="glyph317" unicode="&#x1ec4;" 
d="M254 754l100 99h112l60 -99h-82l-36 51l-58 -51h-96zM350 892h-54q0 26 23 60t74 34q15 0 27 -5l38 -16q22 -6 23 -6q12 0 21.5 6.5t13.5 12.5t4 9h54q0 -14 -6.5 -33.5t-29.5 -40t-58 -20.5q-13 0 -24 4l-42 17q-22 6 -26 6q-16 0 -27 -11t-11 -17zM0 0l136 712h498
l-27 -145h-304l-26 -132h286l-28 -145h-285l-28 -145h313l-28 -145h-507z" />
    <glyph glyph-name="glyph318" unicode="&#x1ec5;" 
d="M382 192l155 -53q-14 -21 -26 -37t-36.5 -39.5t-50 -38.5t-64.5 -26.5t-83 -11.5q-127 0 -194.5 66.5t-67.5 182.5q0 98 40 184.5t117.5 142t173.5 55.5q124 0 189 -64t65 -185q0 -83 -16 -121h-381q-7 -17 -7 -46q0 -82 83 -82q35 0 63.5 24.5t39.5 48.5zM221 370h195
q6 16 6 42q0 37 -24 56t-59 19q-36 0 -62.5 -21.5t-37.5 -44.5t-18 -51zM236 652l95 94h106l57 -94h-78l-34 48l-55 -48h-91zM327 783h-51q0 24 22 56.5t70 32.5q14 0 26 -5l36 -15q17 -5 22 -5q11 0 20 6t13 11.5t4 8.5h51q0 -9 -4 -21.5t-12.5 -29t-27.5 -27.5t-45 -11
q-14 0 -23 4l-40 16q-22 6 -25 6q-15 0 -25.5 -10.5t-10.5 -16.5z" />
    <glyph glyph-name="glyph319" unicode="&#x1ec6;" 
d="M254 754l100 99h112l60 -99h-82l-36 51l-58 -51h-96zM177 -175l24 124h124l-24 -124h-124zM0 0l136 712h498l-27 -145h-304l-26 -132h286l-28 -145h-285l-28 -145h313l-28 -145h-507z" />
    <glyph glyph-name="glyph320" unicode="&#x1ec7;" 
d="M382 192l155 -53q-14 -21 -26 -37t-36.5 -39.5t-50 -38.5t-64.5 -26.5t-83 -11.5q-127 0 -194.5 66.5t-67.5 182.5q0 98 40 184.5t117.5 142t173.5 55.5q124 0 189 -64t65 -185q0 -83 -16 -121h-381q-7 -17 -7 -46q0 -82 83 -82q35 0 63.5 24.5t39.5 48.5zM221 370h195
q6 16 6 42q0 37 -24 56t-59 19q-36 0 -62.5 -21.5t-37.5 -44.5t-18 -51zM256 658l95 95h106l57 -95h-78l-34 49l-55 -49h-91zM181 -172l22 118h118l-23 -118h-117z" />
    <glyph glyph-name="glyph321" unicode="&#x1ec8;" horiz-adv-x="333" 
d="M0 0l136 712h194l-136 -712h-194zM265 770l-56 -1q0 30 23 61q32 40 34 54q1 11 -6 17t-21 8q-14 1 -41 -19l-23 30q37 54 94 49q30 -1 54 -16q28 -18 24 -70q-2 -22 -62 -77q-14 -14 -20 -36z" />
    <glyph glyph-name="glyph322" unicode="&#x1ec9;" horiz-adv-x="315" 
d="M-6 0l115 603h188l-115 -603h-188zM236 673h-54q-2 23 18 54q28 40 28 53q0 21 -28 21q-14 0 -37 -21l-24 26q31 54 84 54q29 0 53 -11q28 -13 28 -63q0 -19 -53 -77q-11 -15 -15 -36z" />
    <glyph glyph-name="glyph323" unicode="&#x1eca;" horiz-adv-x="333" 
d="M0 0l136 712h194l-136 -712h-194zM-3 -175l24 124h124l-24 -124h-124z" />
    <glyph glyph-name="glyph324" unicode="&#x1ecb;" horiz-adv-x="315" 
d="M-6 0l115 603h188l-115 -603h-188zM130 650l20 111h169l-20 -111h-169zM-5 -175l22 118h118l-23 -118h-117z" />
    <glyph glyph-name="glyph325" unicode="&#x1ecc;" horiz-adv-x="778" 
d="M745 428q0 -66 -16 -130t-50 -121t-82 -100t-116 -68.5t-149 -25.5q-144 0 -225.5 75t-81.5 204q0 68 16 133.5t49.5 126t81 106.5t116.5 73.5t150 27.5q141 0 224 -76t83 -225zM542 444q0 136 -112 136q-46 0 -82.5 -23t-58 -57t-36 -78.5t-20 -83t-5.5 -74.5
q0 -136 112 -136q46 0 82.5 23t58 58t36 79t20 82.5t5.5 73.5zM227 -175l24 124h124l-24 -124h-124z" />
    <glyph glyph-name="glyph326" unicode="&#x1ecd;" horiz-adv-x="648" 
d="M12 235q0 50 13.5 102t41.5 102.5t67 90t95.5 63.5t120.5 24q127 0 193.5 -66.5t66.5 -182.5q0 -50 -13.5 -102t-41.5 -102.5t-67 -90t-95.5 -63.5t-120.5 -24q-127 0 -193.5 66.5t-66.5 182.5zM278 119q45 0 79.5 49t49.5 109t15 113q0 94 -78 94q-38 0 -67.5 -26.5
t-45.5 -69t-23.5 -87t-7.5 -88.5q0 -94 78 -94zM171 -172l22 118h118l-23 -118h-117z" />
    <glyph glyph-name="glyph327" unicode="&#x1ece;" horiz-adv-x="778" 
d="M745 428q0 -66 -16 -130t-50 -121t-82 -100t-116 -68.5t-149 -25.5q-144 0 -225.5 75t-81.5 204q0 68 16 133.5t49.5 126t81 106.5t116.5 73.5t150 27.5q141 0 224 -76t83 -225zM542 444q0 136 -112 136q-46 0 -82.5 -23t-58 -57t-36 -78.5t-20 -83t-5.5 -74.5
q0 -136 112 -136q46 0 82.5 23t58 58t36 79t20 82.5t5.5 73.5zM515 770l-56 -1q0 30 23 61q32 40 34 54q1 11 -6 17t-21 8q-14 1 -41 -19l-23 30q37 54 94 49q30 -1 54 -16q28 -18 24 -70q-2 -22 -62 -77q-14 -14 -20 -36z" />
    <glyph glyph-name="glyph328" unicode="&#x1ecf;" horiz-adv-x="648" 
d="M12 235q0 50 13.5 102t41.5 102.5t67 90t95.5 63.5t120.5 24q127 0 193.5 -66.5t66.5 -182.5q0 -50 -13.5 -102t-41.5 -102.5t-67 -90t-95.5 -63.5t-120.5 -24q-127 0 -193.5 66.5t-66.5 182.5zM278 119q45 0 79.5 49t49.5 109t15 113q0 94 -78 94q-38 0 -67.5 -26.5
t-45.5 -69t-23.5 -87t-7.5 -88.5q0 -94 78 -94zM404 668h-54q-2 22 18 54q28 40 28 53q0 21 -28 21q-14 0 -37 -21l-24 26q31 54 84 54q29 0 53 -11q28 -13 28 -63q0 -19 -53 -77q-11 -15 -15 -36z" />
    <glyph glyph-name="glyph329" unicode="&#x1ed0;" horiz-adv-x="778" 
d="M324 761l100 99h112l60 -99h-82l-36 51l-58 -51h-96zM610 801l78 113h148l-134 -113h-92zM745 428q0 -66 -16 -130t-50 -121t-82 -100t-116 -68.5t-149 -25.5q-144 0 -225.5 75t-81.5 204q0 68 16 133.5t49.5 126t81 106.5t116.5 73.5t150 27.5q141 0 224 -76t83 -225z
M542 444q0 136 -112 136q-46 0 -82.5 -23t-58 -57t-36 -78.5t-20 -83t-5.5 -74.5q0 -136 112 -136q46 0 82.5 23t58 58t36 79t20 82.5t5.5 73.5z" />
    <glyph glyph-name="glyph330" unicode="&#x1ed1;" horiz-adv-x="648" 
d="M12 235q0 50 13.5 102t41.5 102.5t67 90t95.5 63.5t120.5 24q127 0 193.5 -66.5t66.5 -182.5q0 -50 -13.5 -102t-41.5 -102.5t-67 -90t-95.5 -63.5t-120.5 -24q-127 0 -193.5 66.5t-66.5 182.5zM278 119q45 0 79.5 49t49.5 109t15 113q0 94 -78 94q-38 0 -67.5 -26.5
t-45.5 -69t-23.5 -87t-7.5 -88.5q0 -94 78 -94zM267 663l95 94h106l57 -94h-78l-34 48l-55 -48h-91zM538 701l75 107h140l-127 -107h-88z" />
    <glyph glyph-name="glyph331" unicode="&#x1ed2;" horiz-adv-x="778" 
d="M324 761l100 99h112l60 -99h-82l-36 51l-58 -51h-96zM107 922h145l74 -113h-91zM745 428q0 -66 -16 -130t-50 -121t-82 -100t-116 -68.5t-149 -25.5q-144 0 -225.5 75t-81.5 204q0 68 16 133.5t49.5 126t81 106.5t116.5 73.5t150 27.5q141 0 224 -76t83 -225zM542 444
q0 136 -112 136q-46 0 -82.5 -23t-58 -57t-36 -78.5t-20 -83t-5.5 -74.5q0 -136 112 -136q46 0 82.5 23t58 58t36 79t20 82.5t5.5 73.5z" />
    <glyph glyph-name="glyph332" unicode="&#x1ed3;" horiz-adv-x="648" 
d="M12 235q0 50 13.5 102t41.5 102.5t67 90t95.5 63.5t120.5 24q127 0 193.5 -66.5t66.5 -182.5q0 -50 -13.5 -102t-41.5 -102.5t-67 -90t-95.5 -63.5t-120.5 -24q-127 0 -193.5 66.5t-66.5 182.5zM278 119q45 0 79.5 49t49.5 109t15 113q0 94 -78 94q-38 0 -67.5 -26.5
t-45.5 -69t-23.5 -87t-7.5 -88.5q0 -94 78 -94zM252 646l95 94h107l57 -94h-78l-34 48l-55 -48h-92zM46 799h138l70 -107h-86z" />
    <glyph glyph-name="glyph333" unicode="&#x1ed4;" horiz-adv-x="778" 
d="M324 761l100 99h112l60 -99h-82l-36 51l-58 -51h-96zM665 809l-52 -1q0 28 21 57q30 36 32 50q1 11 -5.5 16.5t-19.5 6.5t-38 -17l-22 28q36 49 88 45q29 -2 50 -15q26 -16 22 -65q-1 -19 -58 -71q-14 -14 -18 -34zM745 428q0 -66 -16 -130t-50 -121t-82 -100t-116 -68.5
t-149 -25.5q-144 0 -225.5 75t-81.5 204q0 68 16 133.5t49.5 126t81 106.5t116.5 73.5t150 27.5q141 0 224 -76t83 -225zM542 444q0 136 -112 136q-46 0 -82.5 -23t-58 -57t-36 -78.5t-20 -83t-5.5 -74.5q0 -136 112 -136q46 0 82.5 23t58 58t36 79t20 82.5t5.5 73.5z" />
    <glyph glyph-name="glyph334" unicode="&#x1ed5;" horiz-adv-x="648" 
d="M12 235q0 50 13.5 102t41.5 102.5t67 90t95.5 63.5t120.5 24q127 0 193.5 -66.5t66.5 -182.5q0 -50 -13.5 -102t-41.5 -102.5t-67 -90t-95.5 -63.5t-120.5 -24q-127 0 -193.5 66.5t-66.5 182.5zM278 119q45 0 79.5 49t49.5 109t15 113q0 94 -78 94q-38 0 -67.5 -26.5
t-45.5 -69t-23.5 -87t-7.5 -88.5q0 -94 78 -94zM277 659l95 94h106l57 -94h-78l-34 48l-55 -48h-91zM600 705l-49 -1q0 26 20 54q28 34 30 47q1 10 -5 15.5t-18 6.5t-36 -16l-21 27q34 46 83 42q28 -1 48 -14q26 -15 21 -62q-1 -18 -55 -67q-14 -14 -18 -32z" />
    <glyph glyph-name="glyph335" unicode="&#x1ed6;" horiz-adv-x="778" 
d="M324 761l100 99h112l60 -99h-82l-36 51l-58 -51h-96zM420 892h-54q0 26 23 60t74 34q15 0 27 -5l38 -16q22 -6 23 -6q12 0 21.5 6.5t13.5 12.5t4 9h54q0 -14 -6.5 -33.5t-29.5 -40t-58 -20.5q-13 0 -24 4l-42 17q-22 6 -26 6q-16 0 -27 -11t-11 -17zM745 428
q0 -66 -16 -130t-50 -121t-82 -100t-116 -68.5t-149 -25.5q-144 0 -225.5 75t-81.5 204q0 68 16 133.5t49.5 126t81 106.5t116.5 73.5t150 27.5q141 0 224 -76t83 -225zM542 444q0 136 -112 136q-46 0 -82.5 -23t-58 -57t-36 -78.5t-20 -83t-5.5 -74.5q0 -136 112 -136
q46 0 82.5 23t58 58t36 79t20 82.5t5.5 73.5z" />
    <glyph glyph-name="glyph336" unicode="&#x1ed7;" horiz-adv-x="648" 
d="M12 235q0 50 13.5 102t41.5 102.5t67 90t95.5 63.5t120.5 24q127 0 193.5 -66.5t66.5 -182.5q0 -50 -13.5 -102t-41.5 -102.5t-67 -90t-95.5 -63.5t-120.5 -24q-127 0 -193.5 66.5t-66.5 182.5zM278 119q45 0 79.5 49t49.5 109t15 113q0 94 -78 94q-38 0 -67.5 -26.5
t-45.5 -69t-23.5 -87t-7.5 -88.5q0 -94 78 -94zM282 664l95 94h106l57 -94h-78l-34 48l-55 -48h-91zM373 788h-51q0 24 22 56.5t70 32.5q17 0 26 -4l36 -16q15 -5 22 -5q11 0 20 6t13 11.5t4 8.5h51q0 -9 -4 -21.5t-12.5 -29t-27.5 -27.5t-45 -11q-14 0 -23 4l-40 16
q-22 6 -25 6q-15 0 -25.5 -10.5t-10.5 -16.5z" />
    <glyph glyph-name="glyph337" unicode="&#x1ed8;" horiz-adv-x="778" 
d="M324 761l100 99h112l60 -99h-82l-36 51l-58 -51h-96zM227 -175l24 124h124l-24 -124h-124zM745 428q0 -66 -16 -130t-50 -121t-82 -100t-116 -68.5t-149 -25.5q-144 0 -225.5 75t-81.5 204q0 68 16 133.5t49.5 126t81 106.5t116.5 73.5t150 27.5q141 0 224 -76t83 -225z
M542 444q0 136 -112 136q-46 0 -82.5 -23t-58 -57t-36 -78.5t-20 -83t-5.5 -74.5q0 -136 112 -136q46 0 82.5 23t58 58t36 79t20 82.5t5.5 73.5z" />
    <glyph glyph-name="glyph338" unicode="&#x1ed9;" horiz-adv-x="648" 
d="M12 235q0 50 13.5 102t41.5 102.5t67 90t95.5 63.5t120.5 24q127 0 193.5 -66.5t66.5 -182.5q0 -50 -13.5 -102t-41.5 -102.5t-67 -90t-95.5 -63.5t-120.5 -24q-127 0 -193.5 66.5t-66.5 182.5zM278 119q45 0 79.5 49t49.5 109t15 113q0 94 -78 94q-38 0 -67.5 -26.5
t-45.5 -69t-23.5 -87t-7.5 -88.5q0 -94 78 -94zM250 652l95 95h106l57 -95h-78l-34 49l-55 -49h-91zM180 -177l22 118h118l-23 -118h-117z" />
    <glyph glyph-name="glyph339" unicode="&#x1eda;" horiz-adv-x="778" 
d="M696 619l-2 1q51 -75 51 -192q0 -66 -16 -130t-50 -121t-82 -100t-116 -68.5t-149 -25.5q-144 0 -225.5 75t-81.5 204q0 68 16 133.5t49.5 126t81 106.5t116.5 73.5t150 27.5q131 0 207 -58q32 13 40 26q11 18 6 29q-4 12 -28 18q-23 8 -7 50l28 25q84 -7 105 -62
q22 -54 -29 -102q-21 -15 -64 -36zM542 444q0 136 -112 136q-46 0 -82.5 -23t-58 -57t-36 -78.5t-20 -83t-5.5 -74.5q0 -136 112 -136q46 0 82.5 23t58 58t36 79t20 82.5t5.5 73.5zM411 766l82 119h156l-141 -119h-97z" />
    <glyph glyph-name="glyph340" unicode="&#x1edb;" horiz-adv-x="556" 
d="M581 506v-2q29 -55 29 -136q0 -50 -13.5 -102t-41.5 -102.5t-67 -90t-95.5 -63.5t-120.5 -24q-127 0 -193.5 66.5t-66.5 182.5q0 50 13.5 102t41.5 102.5t67 90t95.5 63.5t120.5 24q129 0 197 -68q24 16 28 24q11 17 6 27q-5 11 -26 17t-6 44l25 24q77 -11 96 -59
q20 -48 -27 -93q-21 -16 -62 -27zM278 119q45 0 79.5 49t49.5 109t15 113q0 94 -78 94q-38 0 -67.5 -26.5t-45.5 -69t-23.5 -87t-7.5 -88.5q0 -94 78 -94zM335 664l77 111h147l-133 -111h-91z" />
    <glyph glyph-name="glyph341" unicode="&#x1edc;" horiz-adv-x="778" 
d="M696 619l-2 1q51 -75 51 -192q0 -66 -16 -130t-50 -121t-82 -100t-116 -68.5t-149 -25.5q-144 0 -225.5 75t-81.5 204q0 68 16 133.5t49.5 126t81 106.5t116.5 73.5t150 27.5q131 0 207 -58q32 13 40 26q11 18 6 29q-4 12 -28 18q-23 8 -7 50l28 25q84 -7 105 -62
q22 -54 -29 -102q-21 -15 -64 -36zM542 444q0 136 -112 136q-46 0 -82.5 -23t-58 -57t-36 -78.5t-20 -83t-5.5 -74.5q0 -136 112 -136q46 0 82.5 23t58 58t36 79t20 82.5t5.5 73.5zM301 885h153l78 -119h-96z" />
    <glyph glyph-name="glyph342" unicode="&#x1edd;" horiz-adv-x="556" 
d="M581 506v-2q29 -55 29 -136q0 -50 -13.5 -102t-41.5 -102.5t-67 -90t-95.5 -63.5t-120.5 -24q-127 0 -193.5 66.5t-66.5 182.5q0 50 13.5 102t41.5 102.5t67 90t95.5 63.5t120.5 24q129 0 197 -68q24 16 28 24q11 17 6 27q-5 11 -26 17t-6 44l25 24q77 -11 96 -59
q20 -48 -27 -93q-21 -16 -62 -27zM278 119q45 0 79.5 49t49.5 109t15 113q0 94 -78 94q-38 0 -67.5 -26.5t-45.5 -69t-23.5 -87t-7.5 -88.5q0 -94 78 -94zM245 770h144l73 -111h-90z" />
    <glyph glyph-name="glyph343" unicode="&#x1ede;" horiz-adv-x="778" 
d="M696 619l-2 1q51 -75 51 -192q0 -66 -16 -130t-50 -121t-82 -100t-116 -68.5t-149 -25.5q-144 0 -225.5 75t-81.5 204q0 68 16 133.5t49.5 126t81 106.5t116.5 73.5t150 27.5q131 0 207 -58q32 13 40 26q11 18 6 29q-4 12 -28 18q-23 8 -7 50l28 25q84 -7 105 -62
q22 -54 -29 -102q-21 -15 -64 -36zM542 444q0 136 -112 136q-46 0 -82.5 -23t-58 -57t-36 -78.5t-20 -83t-5.5 -74.5q0 -136 112 -136q46 0 82.5 23t58 58t36 79t20 82.5t5.5 73.5zM485 770l-56 -1q0 30 23 61q32 40 34 54q1 11 -6 17t-21 8q-14 1 -41 -19l-23 30
q37 54 94 49q30 -1 54 -16q28 -18 24 -70q-2 -22 -62 -77q-14 -14 -20 -36z" />
    <glyph glyph-name="glyph344" unicode="&#x1edf;" horiz-adv-x="556" 
d="M581 506v-2q29 -55 29 -136q0 -50 -13.5 -102t-41.5 -102.5t-67 -90t-95.5 -63.5t-120.5 -24q-127 0 -193.5 66.5t-66.5 182.5q0 50 13.5 102t41.5 102.5t67 90t95.5 63.5t120.5 24q129 0 197 -68q24 16 28 24q11 17 6 27q-5 11 -26 17t-6 44l25 24q77 -11 96 -59
q20 -48 -27 -93q-21 -16 -62 -27zM278 119q45 0 79.5 49t49.5 109t15 113q0 94 -78 94q-38 0 -67.5 -26.5t-45.5 -69t-23.5 -87t-7.5 -88.5q0 -94 78 -94zM406 663h-54q-2 23 18 54q28 40 28 53q0 21 -28 21q-14 0 -37 -21l-24 26q31 54 84 54q29 0 53 -11q28 -13 28 -63
q0 -19 -53 -77q-11 -15 -15 -36z" />
    <glyph glyph-name="glyph345" unicode="&#x1ee0;" horiz-adv-x="778" 
d="M696 619l-2 1q51 -75 51 -192q0 -66 -16 -130t-50 -121t-82 -100t-116 -68.5t-149 -25.5q-144 0 -225.5 75t-81.5 204q0 68 16 133.5t49.5 126t81 106.5t116.5 73.5t150 27.5q131 0 207 -58q32 13 40 26q11 18 6 29q-4 12 -28 18q-23 8 -7 50l28 25q84 -7 105 -62
q22 -54 -29 -102q-21 -15 -64 -36zM542 444q0 136 -112 136q-46 0 -82.5 -23t-58 -57t-36 -78.5t-20 -83t-5.5 -74.5q0 -136 112 -136q46 0 82.5 23t58 58t36 79t20 82.5t5.5 73.5zM384 768h-58q0 15 7.5 36t33 43.5t63.5 22.5q15 0 29 -6l41 -17q22 -6 25 -6q12 0 22 6.5
t14.5 13.5t4.5 10h58q0 -15 -6.5 -36t-31.5 -43.5t-63 -22.5q-8 0 -25 5l-46 18q-22 6 -27 6q-12 0 -22 -6.5t-14.5 -13.5t-4.5 -10z" />
    <glyph glyph-name="glyph346" unicode="&#x1ee1;" horiz-adv-x="556" 
d="M581 506v-2q29 -55 29 -136q0 -50 -13.5 -102t-41.5 -102.5t-67 -90t-95.5 -63.5t-120.5 -24q-127 0 -193.5 66.5t-66.5 182.5q0 50 13.5 102t41.5 102.5t67 90t95.5 63.5t120.5 24q129 0 197 -68q24 16 28 24q11 17 6 27q-5 11 -26 17t-6 44l25 24q77 -11 96 -59
q20 -48 -27 -93q-21 -16 -62 -27zM278 119q45 0 79.5 49t49.5 109t15 113q0 94 -78 94q-38 0 -67.5 -26.5t-45.5 -69t-23.5 -87t-7.5 -88.5q0 -94 78 -94zM285 665h-54q0 14 7 34t31 41t60 21q13 0 27 -6l38 -16q18 -5 24 -5q16 0 27.5 11t11.5 17h54q0 -10 -4 -23.5
t-13 -31t-29.5 -29.5t-48.5 -12q-8 0 -23 5l-44 17q-15 5 -25 5q-17 0 -28 -10.5t-11 -17.5z" />
    <glyph glyph-name="glyph347" unicode="&#x1ee2;" horiz-adv-x="778" 
d="M696 619l-2 1q51 -75 51 -192q0 -66 -16 -130t-50 -121t-82 -100t-116 -68.5t-149 -25.5q-144 0 -225.5 75t-81.5 204q0 68 16 133.5t49.5 126t81 106.5t116.5 73.5t150 27.5q131 0 207 -58q32 13 40 26q11 18 6 29q-4 12 -28 18q-23 8 -7 50l28 25q84 -7 105 -62
q22 -54 -29 -102q-21 -15 -64 -36zM542 444q0 136 -112 136q-46 0 -82.5 -23t-58 -57t-36 -78.5t-20 -83t-5.5 -74.5q0 -136 112 -136q46 0 82.5 23t58 58t36 79t20 82.5t5.5 73.5zM227 -175l24 124h124l-24 -124h-124z" />
    <glyph glyph-name="glyph348" unicode="&#x1ee3;" horiz-adv-x="556" 
d="M581 506v-2q29 -55 29 -136q0 -50 -13.5 -102t-41.5 -102.5t-67 -90t-95.5 -63.5t-120.5 -24q-127 0 -193.5 66.5t-66.5 182.5q0 50 13.5 102t41.5 102.5t67 90t95.5 63.5t120.5 24q129 0 197 -68q24 16 28 24q11 17 6 27q-5 11 -26 17t-6 44l25 24q77 -11 96 -59
q20 -48 -27 -93q-21 -16 -62 -27zM278 119q45 0 79.5 49t49.5 109t15 113q0 94 -78 94q-38 0 -67.5 -26.5t-45.5 -69t-23.5 -87t-7.5 -88.5q0 -94 78 -94zM171 -182l22 118h118l-23 -118h-117z" />
    <glyph glyph-name="glyph349" unicode="&#x1ee4;" horiz-adv-x="741" 
d="M53 300l78 412h195l-76 -394q-15 -75 -15 -110q0 -36 24.5 -58t65.5 -22q72 0 101 34.5t43 105.5l85 444h188l-85 -440q-29 -148 -106 -218.5t-239 -70.5q-122 0 -196.5 56.5t-74.5 166.5q0 17 12 94zM227 -175l24 124h124l-24 -124h-124z" />
    <glyph glyph-name="glyph350" unicode="&#x1ee5;" horiz-adv-x="648" 
d="M331 0l16 83q-34 -27 -53.5 -41.5t-64.5 -35t-82 -20.5q-59 0 -92.5 32t-33.5 86q0 38 9 85l79 414h188l-69 -362q-8 -38 -8 -53q0 -43 51 -43q29 0 70 28l26 21l79 409h188l-115 -603h-188zM171 -172l22 118h118l-23 -118h-117z" />
    <glyph glyph-name="glyph351" unicode="&#x1ee6;" horiz-adv-x="741" 
d="M53 300l78 412h195l-76 -394q-15 -75 -15 -110q0 -36 24.5 -58t65.5 -22q72 0 101 34.5t43 105.5l85 444h188l-85 -440q-29 -148 -106 -218.5t-239 -70.5q-122 0 -196.5 56.5t-74.5 166.5q0 17 12 94zM485 760l-56 -1q0 30 23 61q32 40 34 54q1 11 -6 17t-21 8
q-14 1 -41 -19l-23 30q37 54 94 49q30 -1 54 -16q28 -18 24 -70q-2 -22 -62 -77q-14 -14 -20 -36z" />
    <glyph glyph-name="glyph352" unicode="&#x1ee7;" horiz-adv-x="648" 
d="M331 0l16 83q-34 -27 -53.5 -41.5t-64.5 -35t-82 -20.5q-59 0 -92.5 32t-33.5 86q0 38 9 85l79 414h188l-69 -362q-8 -38 -8 -53q0 -43 51 -43q29 0 70 28l26 21l79 409h188l-115 -603h-188zM406 673h-54q-2 23 18 54q28 40 28 53q0 21 -28 21q-14 0 -37 -21l-24 26
q31 54 84 54q29 0 53 -11q28 -13 28 -63q0 -19 -53 -77q-11 -15 -15 -36z" />
    <glyph glyph-name="glyph353" unicode="&#x1ee8;" horiz-adv-x="741" 
d="M736 657l-2 -8l-77 -377q-29 -148 -106 -218.5t-239 -70.5q-122 0 -196.5 56.5t-74.5 166.5q0 17 12 94l78 412h195l-76 -394q-15 -75 -15 -110q0 -36 24.5 -58t65.5 -22q72 0 101 34.5t43 105.5l85 444q11 -2 44 -9t44.5 -7.5t44.5 0.5q40 15 46 34q5 20 -24 26
q-27 7 -14 52q20 23 44 24q65 -17 80 -63t-15 -83q-21 -24 -68 -29zM411 766l82 119h156l-141 -119h-97z" />
    <glyph glyph-name="glyph354" unicode="&#x1ee9;" horiz-adv-x="656" 
d="M626 569l1 -2l-108 -567h-188l16 83q-34 -27 -53.5 -41.5t-64.5 -35t-82 -20.5q-59 0 -92.5 32t-33.5 86q0 38 9 85l79 414h188l-69 -362q-8 -38 -8 -53q0 -43 51 -43q29 0 70 28l26 21l79 409h142q39 19 43 34q4 18 -22 24t-13 48q17 21 41 23q60 -15 74 -59t-14 -77
q-34 -22 -71 -27zM335 664l77 111h147l-133 -111h-91z" />
    <glyph glyph-name="glyph355" unicode="&#x1eea;" horiz-adv-x="741" 
d="M736 657l-2 -8l-77 -377q-29 -148 -106 -218.5t-239 -70.5q-122 0 -196.5 56.5t-74.5 166.5q0 17 12 94l78 412h195l-76 -394q-15 -75 -15 -110q0 -36 24.5 -58t65.5 -22q72 0 101 34.5t43 105.5l85 444q11 -2 44 -9t44.5 -7.5t44.5 0.5q40 15 46 34q5 20 -24 26
q-27 7 -14 52q20 23 44 24q65 -17 80 -63t-15 -83q-21 -24 -68 -29zM301 885h153l78 -119h-96z" />
    <glyph glyph-name="glyph356" unicode="&#x1eeb;" horiz-adv-x="656" 
d="M626 569l1 -2l-108 -567h-188l16 83q-34 -27 -53.5 -41.5t-64.5 -35t-82 -20.5q-59 0 -92.5 32t-33.5 86q0 38 9 85l79 414h188l-69 -362q-8 -38 -8 -53q0 -43 51 -43q29 0 70 28l26 21l79 409h142q39 19 43 34q4 18 -22 24t-13 48q17 21 41 23q60 -15 74 -59t-14 -77
q-34 -22 -71 -27zM245 770h144l73 -111h-90z" />
    <glyph glyph-name="glyph357" unicode="&#x1eec;" horiz-adv-x="741" 
d="M736 657l-2 -8l-77 -377q-29 -148 -106 -218.5t-239 -70.5q-122 0 -196.5 56.5t-74.5 166.5q0 17 12 94l78 412h195l-76 -394q-15 -75 -15 -110q0 -36 24.5 -58t65.5 -22q72 0 101 34.5t43 105.5l85 444q11 -2 44 -9t44.5 -7.5t44.5 0.5q40 15 46 34q5 20 -24 26
q-27 7 -14 52q20 23 44 24q65 -17 80 -63t-15 -83q-21 -24 -68 -29zM485 760l-56 -1q0 30 23 61q32 40 34 54q1 11 -6 17t-21 8q-14 1 -41 -19l-23 30q37 54 94 49q30 -1 54 -16q28 -18 24 -70q-2 -22 -62 -77q-14 -14 -20 -36z" />
    <glyph glyph-name="glyph358" unicode="&#x1eed;" horiz-adv-x="656" 
d="M626 569l1 -2l-108 -567h-188l16 83q-34 -27 -53.5 -41.5t-64.5 -35t-82 -20.5q-59 0 -92.5 32t-33.5 86q0 38 9 85l79 414h188l-69 -362q-8 -38 -8 -53q0 -43 51 -43q29 0 70 28l26 21l79 409h142q39 19 43 34q4 18 -22 24t-13 48q17 21 41 23q60 -15 74 -59t-14 -77
q-34 -22 -71 -27zM386 673h-54q-2 23 18 54q28 40 28 53q0 21 -28 21q-14 0 -37 -21l-24 26q31 54 84 54q29 0 53 -11q28 -13 28 -63q0 -19 -53 -77q-11 -15 -15 -36z" />
    <glyph glyph-name="glyph359" unicode="&#x1eee;" horiz-adv-x="741" 
d="M736 657l-2 -8l-77 -377q-29 -148 -106 -218.5t-239 -70.5q-122 0 -196.5 56.5t-74.5 166.5q0 17 12 94l78 412h195l-76 -394q-15 -75 -15 -110q0 -36 24.5 -58t65.5 -22q72 0 101 34.5t43 105.5l85 444q11 -2 44 -9t44.5 -7.5t44.5 0.5q40 15 46 34q5 20 -24 26
q-27 7 -14 52q20 23 44 24q65 -17 80 -63t-15 -83q-21 -24 -68 -29zM384 768h-58q0 15 7.5 36t33 43.5t63.5 22.5q15 0 29 -6l41 -17q22 -6 25 -6q12 0 22 6.5t14.5 13.5t4.5 10h58q0 -15 -6.5 -36t-31.5 -43.5t-63 -22.5q-8 0 -25 5l-46 18q-22 6 -27 6q-12 0 -22 -6.5
t-14.5 -13.5t-4.5 -10z" />
    <glyph glyph-name="glyph360" unicode="&#x1eef;" horiz-adv-x="656" 
d="M626 569l1 -2l-108 -567h-188l16 83q-34 -27 -53.5 -41.5t-64.5 -35t-82 -20.5q-59 0 -92.5 32t-33.5 86q0 38 9 85l79 414h188l-69 -362q-8 -38 -8 -53q0 -43 51 -43q29 0 70 28l26 21l79 409h142q39 19 43 34q4 18 -22 24t-13 48q17 21 41 23q60 -15 74 -59t-14 -77
q-34 -22 -71 -27zM325 655h-54q0 14 7 34t31 41t60 21q13 0 27 -6l38 -16q18 -5 24 -5q16 0 27.5 11t11.5 17h54q0 -10 -4 -23.5t-13 -31t-29.5 -29.5t-48.5 -12q-8 0 -23 5l-44 17q-15 5 -25 5q-17 0 -28 -10.5t-11 -17.5z" />
    <glyph glyph-name="glyph361" unicode="&#x1ef0;" horiz-adv-x="741" 
d="M736 657l-2 -8l-77 -377q-29 -148 -106 -218.5t-239 -70.5q-122 0 -196.5 56.5t-74.5 166.5q0 17 12 94l78 412h195l-76 -394q-15 -75 -15 -110q0 -36 24.5 -58t65.5 -22q72 0 101 34.5t43 105.5l85 444q11 -2 44 -9t44.5 -7.5t44.5 0.5q40 15 46 34q5 20 -24 26
q-27 7 -14 52q20 23 44 24q65 -17 80 -63t-15 -83q-21 -24 -68 -29zM217 -185l24 124h124l-24 -124h-124z" />
    <glyph glyph-name="glyph362" unicode="&#x1ef1;" horiz-adv-x="656" 
d="M626 569l1 -2l-108 -567h-188l16 83q-34 -27 -53.5 -41.5t-64.5 -35t-82 -20.5q-59 0 -92.5 32t-33.5 86q0 38 9 85l79 414h188l-69 -362q-8 -38 -8 -53q0 -43 51 -43q29 0 70 28l26 21l79 409h142q39 19 43 34q4 18 -22 24t-13 48q17 21 41 23q60 -15 74 -59t-14 -77
q-34 -22 -71 -27zM181 -172l22 118h118l-23 -118h-117z" />
    <glyph glyph-name="glyph363" unicode="&#x1ef2;" horiz-adv-x="722" 
d="M196 0l50 262l-174 450h210l65 -200q3 -9 18 -91h5q26 54 43 79l147 212h226l-346 -450l-50 -262h-194zM261 885h153l78 -119h-96z" />
    <glyph glyph-name="glyph364" unicode="&#x1ef3;" horiz-adv-x="593" 
d="M139 7l-95 596h194l21 -315q3 -35 -3 -106h9q12 65 33 107l147 314h194l-338 -639q-45 -85 -102 -125.5t-139 -40.5q-81 0 -130 21l35 134q42 -16 78 -16q31 0 57 19t31 33zM195 770h144l73 -111h-90z" />
    <glyph glyph-name="glyph365" unicode="&#x1ef4;" horiz-adv-x="722" 
d="M196 0l50 262l-174 450h210l65 -200q3 -9 18 -91h5q26 54 43 79l147 212h226l-346 -450l-50 -262h-194zM197 -175l24 124h124l-24 -124h-124z" />
    <glyph glyph-name="glyph366" unicode="&#x1ef5;" horiz-adv-x="593" 
d="M139 7l-95 596h194l21 -315q3 -35 -3 -106h9q12 65 33 107l147 314h194l-338 -639q-45 -85 -102 -125.5t-139 -40.5q-81 0 -130 21l35 134q42 -16 78 -16q31 0 57 19t31 33zM371 -172l22 118h118l-23 -118h-117z" />
    <glyph glyph-name="glyph367" unicode="&#x1ef6;" horiz-adv-x="722" 
d="M196 0l50 262l-174 450h210l65 -200q3 -9 18 -91h5q26 54 43 79l147 212h226l-346 -450l-50 -262h-194zM465 760l-56 -1q0 30 23 61q32 40 34 54q1 11 -6 17t-21 8q-14 1 -41 -19l-23 30q37 54 94 49q30 -1 54 -16q28 -18 24 -70q-2 -22 -62 -77q-14 -14 -20 -36z" />
    <glyph glyph-name="glyph368" unicode="&#x1ef7;" horiz-adv-x="593" 
d="M139 7l-95 596h194l21 -315q3 -35 -3 -106h9q12 65 33 107l147 314h194l-338 -639q-45 -85 -102 -125.5t-139 -40.5q-81 0 -130 21l35 134q42 -16 78 -16q31 0 57 19t31 33zM376 673h-54q-2 23 18 54q28 40 28 53q0 21 -28 21q-14 0 -37 -21l-24 26q31 54 84 54
q29 0 53 -11q28 -13 28 -63q0 -19 -53 -77q-11 -15 -15 -36z" />
    <glyph glyph-name="glyph369" unicode="&#x1ef8;" horiz-adv-x="722" 
d="M196 0l50 262l-174 450h210l65 -200q3 -9 18 -91h5q26 54 43 79l147 212h226l-346 -450l-50 -262h-194zM364 768h-58q0 15 7.5 36t33 43.5t63.5 22.5q15 0 29 -6l41 -17q22 -6 25 -6q12 0 22 6.5t14.5 13.5t4.5 10h58q0 -15 -6.5 -36t-31.5 -43.5t-63 -22.5q-8 0 -25 5
l-46 18q-22 6 -27 6q-12 0 -22 -6.5t-14.5 -13.5t-4.5 -10z" />
    <glyph glyph-name="glyph370" unicode="&#x1ef9;" horiz-adv-x="593" 
d="M139 7l-95 596h194l21 -315q3 -35 -3 -106h9q12 65 33 107l147 314h194l-338 -639q-45 -85 -102 -125.5t-139 -40.5q-81 0 -130 21l35 134q42 -16 78 -16q31 0 57 19t31 33zM285 655h-54q0 14 7 34t31 41t60 21q13 0 27 -6l38 -16q18 -5 24 -5q16 0 27.5 11t11.5 17h54
q0 -10 -4 -23.5t-13 -31t-29.5 -29.5t-48.5 -12q-8 0 -23 5l-44 17q-15 5 -25 5q-17 0 -28 -10.5t-11 -17.5z" />
    <glyph glyph-name="endash" unicode="&#x2013;" horiz-adv-x="500" 
d="M-24 252l24 110h500l-24 -110h-500z" />
    <glyph glyph-name="emdash" unicode="&#x2014;" horiz-adv-x="1000" 
d="M-24 252l24 110h1000l-24 -110h-1000z" />
    <glyph glyph-name="quoteleft" unicode="&#x2018;" horiz-adv-x="296" 
d="M66 507l146 270h133l-123 -270h-156z" />
    <glyph glyph-name="quoteright" unicode="&#x2019;" horiz-adv-x="296" 
d="M63 507l123 270h156l-146 -270h-133z" />
    <glyph glyph-name="quotesinglbase" unicode="&#x201a;" horiz-adv-x="296" 
d="M-60 -114l123 270h156l-146 -270h-133z" />
    <glyph glyph-name="quotedblleft" unicode="&#x201c;" horiz-adv-x="537" 
d="M311 507l146 270h133l-123 -270h-156zM66 507l146 270h133l-123 -270h-156z" />
    <glyph glyph-name="quotedblright" unicode="&#x201d;" horiz-adv-x="537" 
d="M60 507l123 270h156l-146 -270h-133zM305 507l123 270h156l-146 -270h-133z" />
    <glyph glyph-name="quotedblbase" unicode="&#x201e;" horiz-adv-x="537" 
d="M-60 -114l123 270h156l-146 -270h-133zM182 -114l123 270h156l-146 -270h-133z" />
    <glyph glyph-name="dagger" unicode="&#x2020;" horiz-adv-x="592" 
d="M113 -125l98 504h-175l29 149h174l36 184h178l-36 -184h176l-29 -149h-175l-98 -504h-178z" />
    <glyph glyph-name="daggerdbl" unicode="&#x2021;" horiz-adv-x="592" 
d="M122 -125l31 163h-165l27 139h165l45 231h-165l26 139h165l32 165h170l-32 -165h159l-27 -139h-158l-45 -231h159l-27 -139h-159l-31 -163h-170z" />
    <glyph glyph-name="bullet" unicode="&#x2022;" horiz-adv-x="500" 
d="M72 356q0 74 52 126t126 52t126 -52t52 -126t-52 -126t-126 -52t-126 52t-52 126z" />
    <glyph glyph-name="ellipsis" unicode="&#x2026;" horiz-adv-x="1000" 
d="M74 0l30 156h156l-30 -156h-156zM407 0l30 156h156l-30 -156h-156zM740 0l30 156h156l-30 -156h-156z" />
    <glyph glyph-name="perthousand" unicode="&#x2030;" horiz-adv-x="1111" 
d="M507 -14q-64 0 -102 33.5t-38 104.5q0 90 50.5 163t141.5 73q64 0 102 -33.5t38 -104.5q0 -90 -50.5 -163t-141.5 -73zM512 61q28 0 47 28t27 65.5t8 78.5q0 52 -40 52q-28 0 -47 -28t-27 -65.5t-8 -78.5q0 -52 40 -52zM878 61q28 0 47 28t27 65.5t8 78.5q0 52 -40 52
q-28 0 -47 -28t-27 -65.5t-8 -78.5q0 -52 40 -52zM873 -14q-64 0 -102 33.5t-38 104.5q0 90 50.5 163t141.5 73q64 0 102 -33.5t38 -104.5q0 -90 -50.5 -163t-141.5 -73zM186 355q-64 0 -102 33.5t-38 104.5q0 90 50.5 163t141.5 73q64 0 102 -33.5t38 -104.5
q0 -90 -50.5 -163t-141.5 -73zM191 430q28 0 47 28t27 65.5t8 78.5q0 52 -40 52q-28 0 -47 -28t-27 -65.5t-8 -78.5q0 -52 40 -52zM60 -24l541 763h84l-540 -763h-85z" />
    <glyph glyph-name="guilsinglleft" unicode="&#x2039;" horiz-adv-x="334" 
d="M-4 328l214 232l92 -78l-153 -175l95 -193l-110 -59z" />
    <glyph glyph-name="guilsinglright" unicode="&#x203a;" horiz-adv-x="334" 
d="M306 286l-214 -232l-92 78l153 175l-95 193l110 59z" />
    <glyph glyph-name="fraction" unicode="&#x2044;" horiz-adv-x="167" 
d="M331 705l-444 -719h-51l444 719h51z" />
    <glyph glyph-name="franc" unicode="&#x20a3;" horiz-adv-x="1035" 
d="M0 0l136 712h498l-27 -145h-304l-30 -151h294l-27 -145h-294l-52 -271h-194zM646 0l115 603h188l-18 -95h3q29 44 77.5 73t95.5 29q26 0 41 -7l-32 -168q-31 12 -61 12q-43 0 -84 -21.5t-65 -47.5l-72 -378h-188z" />
    <glyph glyph-name="u20AB" unicode="&#x20ab;" horiz-adv-x="393" 
d="M197 501q-48 0 -84 -88q-20 -51 -20 -90q0 -51 39 -51q41 0 74 71q28 59 28 107q0 51 -37 51zM200 267q-53 -62 -106 -62q-44 0 -67.5 28t-23.5 74q0 79 55 152q60 79 136 79q34 0 61 -24l20 75h-100l10 36h100l2 16q0 31 -48 32l7 33q60 1 128 14q12 3 15 3q6 0 6 -9
q-1 -3 -3 -12l-19 -77h65l-10 -36h-65l-69 -280q-5 -25 -5 -27q0 -15 12 -15q6 0 49 42l20 -18q-71 -86 -117 -86q-42 0 -53 62zM9 104v56h221v-56h-221z" />
    <glyph glyph-name="Euro" unicode="&#x20ac;" horiz-adv-x="592" 
d="M6 226q0 75 11.5 145t38.5 135.5t66.5 114.5t100 78.5t135.5 29.5q107 0 166.5 -58t59.5 -167q0 -65 -9.5 -131.5t-34.5 -137.5t-62.5 -125t-99 -89t-138.5 -35q-234 0 -234 240zM246 106q49 0 76 42t58 160q26 114 26 203q0 48 -15.5 70t-51.5 22q-47 0 -80.5 -57.5
t-48 -137.5t-20.5 -134t-6 -78q0 -42 16 -66t46 -24zM43 425v-120h506v120h-506zM43 81v120h506v-120h-506z" />
    <glyph glyph-name="trademark" unicode="&#x2122;" horiz-adv-x="1000" 
d="M148 300v322h-112v90h344v-90h-112v-322h-120zM854 300v270h-2l-89 -270h-88l-89 270h-2v-270h-110v412h156l89 -239l89 239h156v-412h-110z" />
    <glyph glyph-name="partialdiff" unicode="&#x2202;" horiz-adv-x="1000" 
 />
    <glyph glyph-name="product" unicode="&#x220f;" horiz-adv-x="1000" 
 />
    <glyph glyph-name="summation" unicode="&#x2211;" horiz-adv-x="1000" 
 />
    <glyph glyph-name="minus" unicode="&#x2212;" horiz-adv-x="660" 
d="M580 220h-500v60h500v-60z" />
    <glyph glyph-name="radical" unicode="&#x221a;" horiz-adv-x="1000" 
 />
    <glyph glyph-name="infinity" unicode="&#x221e;" horiz-adv-x="1000" 
 />
    <glyph glyph-name="integral" unicode="&#x222b;" horiz-adv-x="1000" 
 />
    <glyph glyph-name="approxequal" unicode="&#x2248;" horiz-adv-x="1000" 
 />
    <glyph glyph-name="approxequal" unicode="&#x22f2;" horiz-adv-x="1000" 
 />
    <glyph glyph-name="notequal" unicode="&#x2260;" horiz-adv-x="1000" 
 />
    <glyph glyph-name="lessequal" unicode="&#x2264;" horiz-adv-x="1000" 
 />
    <glyph glyph-name="greaterequal" unicode="&#x2265;" horiz-adv-x="1000" 
 />
    <glyph glyph-name="SF370000" unicode="&#x255f;" horiz-adv-x="718" 
d="M494 0l-18 146h-258l-78 -146h-207l399 712h248l110 -712h-196zM459 285l-24 191q-6 54 -6 91h-5q-28 -72 -37 -89l-95 -193h167z" />
    <glyph glyph-name="SF420000" unicode="&#x2560;" horiz-adv-x="681" 
d="M0 0l136 712h498l-27 -145h-304l-26 -132h286l-28 -145h-285l-28 -145h313l-28 -145h-507z" />
    <glyph glyph-name="SF190000" unicode="&#x2561;" horiz-adv-x="429" 
d="M0 0l136 712h194l-136 -712h-194z" />
    <glyph glyph-name="SF200000" unicode="&#x2562;" horiz-adv-x="773" 
d="M745 428q0 -66 -16 -130t-50 -121t-82 -100t-116 -68.5t-149 -25.5q-144 0 -225.5 75t-81.5 204q0 68 16 133.5t49.5 126t81 106.5t116.5 73.5t150 27.5q141 0 224 -76t83 -225zM542 444q0 136 -112 136q-46 0 -82.5 -23t-58 -57t-36 -78.5t-20 -83t-5.5 -74.5
q0 -136 112 -136q46 0 82.5 23t58 58t36 79t20 82.5t5.5 73.5z" />
    <glyph glyph-name="SF230000" unicode="&#x2563;" horiz-adv-x="811" 
d="M53 300l78 412h195l-76 -394q-15 -75 -15 -110q0 -36 24.5 -58t65.5 -22q72 0 101 34.5t43 105.5l85 444h188l-85 -440q-29 -148 -106 -218.5t-239 -70.5q-122 0 -196.5 56.5t-74.5 166.5q0 17 12 94z" />
    <glyph glyph-name="SF470000" unicode="&#x2564;" horiz-adv-x="699" 
d="M196 0l50 262l-174 450h210l65 -200q3 -9 18 -91h5q26 54 43 79l147 212h226l-346 -450l-50 -262h-194z" />
    <glyph glyph-name="SF480000" unicode="&#x2565;" horiz-adv-x="541" 
d="M304 0l16 76h-2q-58 -54 -98 -72t-80 -18q-62 0 -103 39t-41 116q0 114 85.5 174t222.5 64l76 2q8 43 8 59q0 54 -64 54q-17 0 -32.5 -7t-26.5 -19t-17.5 -21.5t-13.5 -22.5l-6 -13l-156 48q75 158 261 158q107 0 170 -43t63 -137q0 -33 -11 -91l-51 -270
q-11 -53 -12 -76h-188zM341 179l17 92l-52 -2q-126 -5 -126 -83q0 -21 13.5 -38.5t38.5 -17.5q23 0 56.5 16.5t52.5 32.5z" />
    <glyph glyph-name="SF410000" unicode="&#x2566;" horiz-adv-x="431" 
d="M382 192l155 -53q-14 -21 -26 -37t-36.5 -39.5t-50 -38.5t-64.5 -26.5t-83 -11.5q-127 0 -194.5 66.5t-67.5 182.5q0 98 40 184.5t117.5 142t173.5 55.5q124 0 189 -64t65 -185q0 -83 -16 -121h-381q-7 -17 -7 -46q0 -82 83 -82q35 0 63.5 24.5t39.5 48.5zM221 370h195
q6 16 6 42q0 37 -24 56t-59 19q-36 0 -62.5 -21.5t-37.5 -44.5t-18 -51z" />
    <glyph glyph-name="SF450000" unicode="&#x2567;" horiz-adv-x="314" 
d="M-6 0l115 603h188l-115 -603h-188zM119 654l23 123h188l-23 -123h-188z" />
    <glyph glyph-name="SF460000" unicode="&#x2568;" horiz-adv-x="314" 
d="M138 518v-518h-60v518h60z" />
    <glyph glyph-name="SF400000" unicode="&#x2569;" horiz-adv-x="498" 
d="M12 235q0 50 13.5 102t41.5 102.5t67 90t95.5 63.5t120.5 24q127 0 193.5 -66.5t66.5 -182.5q0 -50 -13.5 -102t-41.5 -102.5t-67 -90t-95.5 -63.5t-120.5 -24q-127 0 -193.5 66.5t-66.5 182.5zM278 119q45 0 79.5 49t49.5 109t15 113q0 94 -78 94q-38 0 -67.5 -26.5
t-45.5 -69t-23.5 -87t-7.5 -88.5q0 -94 78 -94z" />
    <glyph glyph-name="SF540000" unicode="&#x256a;" horiz-adv-x="557" 
d="M331 0l16 83q-34 -27 -53.5 -41.5t-64.5 -35t-82 -20.5q-59 0 -92.5 32t-33.5 86q0 38 9 85l79 414h188l-69 -362q-8 -38 -8 -53q0 -43 51 -43q29 0 70 28l26 21l79 409h188l-115 -603h-188z" />
    <glyph glyph-name="SF530000" unicode="&#x256b;" horiz-adv-x="497" 
d="M139 7l-95 596h194l21 -315q3 -35 -3 -106h9q12 65 33 107l147 314h194l-338 -639q-45 -85 -102 -125.5t-139 -40.5q-81 0 -130 21l35 134q42 -16 78 -16q31 0 57 19t31 33z" />
    <glyph glyph-name="lozenge" unicode="&#x25ca;" horiz-adv-x="1000" 
 />
    <glyph glyph-name="circle" unicode="&#x25cb;" horiz-adv-x="718" 
d="M228 891l146 145h164l88 -145h-120l-53 74l-85 -74h-140zM332 1079l110 145h208l-188 -145h-130z" />
    <glyph glyph-name="H18533" unicode="&#x25cf;" horiz-adv-x="718" 
d="M228 891l146 145h164l88 -145h-120l-53 74l-85 -74h-140zM333 1225h204l104 -145h-129z" />
    <glyph glyph-name="invbullet" unicode="&#x25d8;" horiz-adv-x="718" 
d="M228 891l146 145h164l88 -145h-120l-53 74l-85 -74h-140zM647 903h-33q10 32 11 64q2 12 8 13q4 0 8 1q67 10 67 54q0 35 -28 35q-4 0 -15 -1t-13 -1q-21 0 -21 18q0 28 32 28q47 0 76.5 -26.5t25.5 -69.5q-6 -58 -87 -81q-25 -7 -31 -34z" />
    <glyph glyph-name="invcircle" unicode="&#x25d9;" horiz-adv-x="718" 
d="M228 891l146 145h164l88 -145h-120l-53 74l-85 -74h-140zM370 1077h-81q0 15 4.5 34.5t16.5 45.5t40.5 43.5t69.5 17.5q18 0 40 -8l58 -23q27 -9 34 -9q24 0 35 15.5t11 26.5h81q0 -15 -4.5 -34.5t-16.5 -45.5t-40.5 -43.5t-68.5 -17.5q-16 0 -34 6l-65 25q-22 8 -37 8
q-24 0 -33.5 -14.5t-9.5 -26.5z" />
    <glyph glyph-name="apple" unicode="&#xf000;" horiz-adv-x="1000" 
 />
    <glyph glyph-name="fi" unicode="&#xf001;" horiz-adv-x="500" 
d="M92 0v468h-79v50h79v82q0 134 110 134q31 0 50 -4v-55q-22 5 -36 5q-42 0 -55 -31q-9 -19 -9 -67v-64h98v-50h-98v-468h-60zM432 518v-518h-60v518h60zM369 720h66v-89h-66v89z" />
    <glyph glyph-name="fl" unicode="&#xf002;" horiz-adv-x="500" 
d="M92 0v468h-79v50h79v82q0 134 110 134q31 0 50 -4v-55q-22 5 -36 5q-42 0 -55 -31q-9 -19 -9 -67v-64h98v-50h-98v-468h-60zM432 720v-720h-60v720h60z" />
    <glyph glyph-name="NULL" horiz-adv-x="296" 
 />
    <glyph glyph-name="CR.001" horiz-adv-x="315" 
d="M-6 0l115 603h188l-115 -603h-188z" />
    <glyph glyph-name="percent.001" horiz-adv-x="833" 
 />
    <glyph glyph-name="middot" horiz-adv-x="537" 
d="M0 0l44 226l-73 -42l17 99l75 44l74 385h193l-50 -259l197 114l-17 -99l-199 -115l-38 -200h267l-29 -153h-461z" />
    <glyph glyph-name="HT" horiz-adv-x="315" 
d="M-6 0l53 277l-76 -48l16 93l78 49l77 406h188l-52 -272l69 43l-16 -93l-71 -44l-78 -411h-188z" />
    <glyph glyph-name="LF" horiz-adv-x="278" 
d="M47 804h120l56 -75l85 75h138l-145 -145h-166z" />
    <glyph glyph-name="CR" horiz-adv-x="278" 
d="M-26 804h78q0 -7 3.5 -17.5t12.5 -24.5t30 -24t50 -10q36 0 64 17t38 32t14 27h84q-5 -14 -9.5 -26t-21.5 -38.5t-37 -44.5t-55 -32.5t-77 -14.5q-43 0 -76.5 13t-51 31t-29 41.5t-14.5 40t-3 30.5z" />
    <glyph glyph-name="DLE" horiz-adv-x="278" 
d="M128 664l26 133h174l-26 -133h-174z" />
    <glyph glyph-name="DC1" horiz-adv-x="278" 
d="M100 751q0 45 33 78t78 33t78 -33t33 -78t-33 -78t-78 -33t-78 33t-33 78zM160 751q0 -21 15 -36t36 -15t36 15t15 36t-15 36t-36 15t-36 -15t-15 -36z" />
    <glyph glyph-name="DC2" horiz-adv-x="278" 
d="M259 -105l-17 -82q-2 -1 -12 -5l-15 -6t-15.5 -6t-19.5 -5.5t-21 -4t-25.5 -3.5t-28.5 -1q-48 0 -74.5 24.5t-26.5 59.5q0 67 102 128l67 40h89l-79 -62q-34 -25 -34 -58q0 -14 10.5 -25.5t33.5 -11.5q24 0 66 18z" />
    <glyph glyph-name="DC3" horiz-adv-x="278" 
d="M-26 659l86 145h181l-152 -145h-115zM186 659l112 145h181l-178 -145h-115z" />
    <glyph glyph-name="DC4" horiz-adv-x="167" 
d="M-166 -24l414 763h85l-414 -763h-85z" />
    <glyph glyph-name="RS" horiz-adv-x="600" 
d="M47 193v120h506v-120h-506z" />
    <glyph glyph-name="US" horiz-adv-x="722" 
d="M388 0l115 603h188l-115 -603h-188zM513 654l23 123h188l-23 -123h-188zM15 0l81 424h-86l25 130h86l15 79q17 87 87 133t165 46q75 0 115 -14l-24 -125q-41 9 -70 9q-39 0 -62 -24t-28 -51l-11 -53h124l-25 -130h-123l-81 -424h-188z" />
    <glyph glyph-name="DEL" horiz-adv-x="722" 
d="M388 0l148 777h188l-148 -777h-188zM15 0l81 424h-86l25 130h86l15 79q17 87 87 133t165 46q75 0 115 -14l-24 -125q-41 9 -70 9q-39 0 -62 -24t-28 -51l-11 -53h124l-25 -130h-123l-81 -424h-188z" />
    <glyph glyph-name="glyph275" horiz-adv-x="249" 
 />
    <glyph glyph-name="glyph276" horiz-adv-x="249" 
 />
    <glyph glyph-name="glyph261" horiz-adv-x="500" 
d="M286 522h-33q10 32 11 64q2 12 8 13q4 0 8 1q67 10 67 54q0 35 -28 35q-4 0 -15 -1t-13 -1q-21 0 -21 18q0 28 32 28q47 0 76.5 -26.5t25.5 -69.5q-6 -59 -87 -81q-25 -7 -31 -34z" />
    <glyph glyph-name="glyph262" horiz-adv-x="541" 
d="M25 659l146 145h164l88 -145h-120l-53 74l-85 -74h-140zM130 848l110 145h208l-188 -145h-130z" />
    <glyph glyph-name="glyph263" horiz-adv-x="541" 
d="M25 659l146 145h164l88 -145h-120l-53 74l-85 -74h-140zM130 993h204l104 -145h-129z" />
    <glyph glyph-name="glyph264" horiz-adv-x="541" 
d="M25 659l146 145h164l88 -145h-120l-53 74l-85 -74h-140zM444 671h-33q10 32 11 64q2 12 8 13q4 0 8 1q67 10 67 54q0 35 -28 35q-4 0 -15 -1t-13 -1q-21 0 -21 18q0 28 32 28q47 0 76.5 -26.5t25.5 -69.5q-6 -58 -87 -81q-25 -7 -31 -34z" />
    <glyph glyph-name="glyph265" horiz-adv-x="541" 
d="M25 659l146 145h164l88 -145h-120l-53 74l-85 -74h-140zM167 845h-81q0 15 4.5 34.5t16.5 45.5t40.5 43.5t69.5 17.5q18 0 40 -8l58 -23q27 -9 34 -9q24 0 35 15.5t11 26.5h81q0 -15 -4.5 -34.5t-16.5 -45.5t-40.5 -43.5t-68.5 -17.5q-16 0 -34 6l-65 25q-22 8 -37 8
q-24 0 -33.5 -14.5t-9.5 -26.5z" />
    <glyph glyph-name="glyph266" horiz-adv-x="541" 
d="M58 706h39q17 -81 105 -81t107 81h37q-14 -126 -149 -126q-60 0 -97.5 33.5t-41.5 92.5zM207 848l110 145h208l-188 -145h-130z" />
    <glyph glyph-name="glyph267" horiz-adv-x="541" 
d="M58 706h39q17 -81 105 -81t107 81h37q-14 -126 -149 -126q-60 0 -97.5 33.5t-41.5 92.5zM77 993h204l104 -145h-129z" />
    <glyph glyph-name="glyph268" horiz-adv-x="541" 
d="M58 706h39q17 -81 105 -81t107 81h37q-14 -126 -149 -126q-60 0 -97.5 33.5t-41.5 92.5zM339 671h-33q10 32 11 64q2 12 8 13q4 0 8 1q67 10 67 54q0 35 -28 35q-4 0 -15 -1t-13 -1q-21 0 -21 18q0 28 32 28q47 0 76.5 -26.5t25.5 -69.5q-6 -58 -87 -81q-25 -7 -31 -34z
" />
    <glyph glyph-name="glyph269" horiz-adv-x="541" 
d="M58 706h39q17 -81 105 -81t107 81h37q-14 -126 -149 -126q-60 0 -97.5 33.5t-41.5 92.5zM167 845h-81q0 15 4.5 34.5t16.5 45.5t40.5 43.5t69.5 17.5q18 0 40 -8l58 -23q27 -9 34 -9q24 0 35 15.5t11 26.5h81q0 -15 -4.5 -34.5t-16.5 -45.5t-40.5 -43.5t-68.5 -17.5
q-16 0 -34 6l-65 25q-22 8 -37 8q-24 0 -33.5 -14.5t-9.5 -26.5z" />
    <glyph glyph-name="glyph270" horiz-adv-x="249" 
 />
    <glyph glyph-name="_403" horiz-adv-x="500" 
 />
    <glyph glyph-name="_405" horiz-adv-x="500" 
 />
    <glyph glyph-name="_406" horiz-adv-x="500" 
 />
    <glyph glyph-name="_407" horiz-adv-x="500" 
 />
    <glyph glyph-name="_408" horiz-adv-x="500" 
 />
    <glyph glyph-name="_409" horiz-adv-x="500" 
 />
  </font>
</defs>
</svg>
