<?xml version="1.0" standalone="no"?>
<!DOCTYPE svg PUBLIC "-//W3C//DTD SVG 1.1//EN" "http://www.w3.org/Graphics/SVG/1.1/DTD/svg11.dtd" >
<svg xmlns="http://www.w3.org/2000/svg" xmlns:xlink="http://www.w3.org/1999/xlink" version="1.1">
<metadata>
Created by FontForge 20170731 at Tue Feb 15 19:12:52 2011
 By Aleksey,,,
(c) Copyright 2005 by Tong Duc Thinh. All Rights Reserved
</metadata>
<defs>
<font id="SFUVectoraLH-Bold" horiz-adv-x="592" >
  <font-face 
    font-family="SFU Vectora LH"
    font-weight="700"
    font-stretch="normal"
    units-per-em="1000"
    panose-1="0 0 3 0 0 0 0 0 0 0"
    ascent="800"
    descent="-200"
    x-height="598"
    cap-height="712"
    bbox="-164 -304 1072 1229"
    underline-thickness="50"
    underline-position="-200"
    unicode-range="U+0020-F002"
  />
<missing-glyph horiz-adv-x="833" 
d="M207 416q75 0 75 121t-75 121t-75 -121t75 -121zM207 345q-87 0 -129 52.5t-42 139.5q0 80 44.5 136t126.5 56q88 0 129.5 -52t41.5 -140q0 -80 -44.5 -136t-126.5 -56zM626 -17q-87 0 -129 52.5t-42 139.5q0 80 44.5 136t126.5 56q88 0 129.5 -52t41.5 -140
q0 -80 -44.5 -136t-126.5 -56zM626 54q75 0 75 121t-75 121t-75 -121t75 -121zM182 -25l387 762h79l-387 -762h-79z" />
    <glyph glyph-name=".notdef" horiz-adv-x="833" 
d="M207 416q75 0 75 121t-75 121t-75 -121t75 -121zM207 345q-87 0 -129 52.5t-42 139.5q0 80 44.5 136t126.5 56q88 0 129.5 -52t41.5 -140q0 -80 -44.5 -136t-126.5 -56zM626 -17q-87 0 -129 52.5t-42 139.5q0 80 44.5 136t126.5 56q88 0 129.5 -52t41.5 -140
q0 -80 -44.5 -136t-126.5 -56zM626 54q75 0 75 121t-75 121t-75 -121t75 -121zM182 -25l387 762h79l-387 -762h-79z" />
    <glyph glyph-name=".null" horiz-adv-x="0" 
 />
    <glyph glyph-name="nonmarkingreturn" horiz-adv-x="333" 
 />
    <glyph glyph-name="space" unicode=" " horiz-adv-x="296" 
 />
    <glyph glyph-name="exclam" unicode="!" horiz-adv-x="332" 
d="M112 225l-18 487h144l-18 -487h-108zM102 0v132h128v-132h-128z" />
    <glyph glyph-name="quotedbl" unicode="&#x22;" horiz-adv-x="333" 
d="M204 524v253h102v-253h-102zM27 524v253h102v-253h-102z" />
    <glyph glyph-name="numbersign" unicode="#" 
d="M301 0l29 211h-108l-28 -211h-84l29 211h-93v76h104l18 138h-93v76h104l29 211h83l-29 -211h108l28 211h84l-29 -211h93v-76h-104l-18 -138h93v-76h-104l-29 -211h-83zM340 287l19 138h-107l-19 -138h107z" />
    <glyph glyph-name="dollar" unicode="$" 
d="M270 -87v70q-59 1 -106 20t-72.5 47t-38.5 51.5t-18 44.5l126 38q14 -79 109 -95v217q-39 8 -72.5 22t-68 38t-55 64t-20.5 91q0 79 59.5 143.5t156.5 64.5v70h56v-70q46 0 83.5 -11t60.5 -27.5t39 -38t23 -40t10 -36.5l-124 -27q-9 33 -34 53.5t-58 20.5v-203
q121 -28 176.5 -77.5t55.5 -133.5q0 -108 -64.5 -164t-167.5 -62v-70h-56zM270 435v188q-42 -2 -67 -26t-25 -65q0 -35 22 -57t70 -40zM326 291v-202q47 9 74.5 33.5t27.5 64.5q0 24 -7.5 41t-25 29t-31 18.5t-38.5 15.5z" />
    <glyph glyph-name="percent" unicode="%" horiz-adv-x="1093" 
d="M350 416q69 0 69 124t-69 124t-69 -124t69 -124zM350 351q-86 0 -123.5 53.5t-37.5 135.5t37.5 135.5t123.5 53.5t123.5 -53.5t37.5 -135.5t-37.5 -135.5t-123.5 -53.5zM717 -17q-86 0 -123.5 53.5t-37.5 135.5t37.5 135.5t123.5 53.5t123.5 -53.5t37.5 -135.5
t-37.5 -135.5t-123.5 -53.5zM717 48q69 0 69 124t-69 124t-69 -124t69 -124zM304 -25l387 762h73l-387 -762h-73z" />
    <glyph glyph-name="ampersand" unicode="&#x26;" horiz-adv-x="741" 
d="M227 549q0 -30 17.5 -54.5t54.5 -58.5q33 20 45.5 28t29.5 23t22.5 29t5.5 34q0 34 -23 57t-64 23q-43 0 -65.5 -23t-22.5 -58zM560 0l-52 61q-55 -39 -97 -56t-110 -17q-132 0 -198 61t-66 151q0 36 12 66t25 48t38.5 36t36 23.5t33.5 16.5q-35 24 -64 68.5t-29 95.5
q0 49 20.5 84.5t55 54.5t72 27.5t79.5 8.5q114 0 167 -50.5t53 -118.5q0 -38 -14.5 -70t-42 -55t-47.5 -35.5t-50 -27.5l139 -146q16 21 24.5 36t17 45.5t10.5 72.5h128q0 -144 -96 -246l123 -134h-168zM435 140l-171 176q-86 -43 -86 -110q0 -53 35.5 -86t89.5 -33
q75 0 132 53z" />
    <glyph glyph-name="quotesingle" unicode="'" horiz-adv-x="222" 
d="M63 524v253h102v-253h-102z" />
    <glyph glyph-name="parenleft" unicode="(" horiz-adv-x="315" 
d="M291 -82l-79 -51q-171 232 -172 460q1 228 172 460l79 -51q-39 -64 -62 -111t-44 -128.5t-21 -169.5t21 -169.5t44 -128.5t62 -111z" />
    <glyph glyph-name="parenright" unicode=")" horiz-adv-x="315" 
d="M24 736l79 51q171 -232 172 -460q-1 -228 -172 -460l-79 51q41 70 62 112.5t43 125.5t22 171t-22 171t-43 125.5t-62 112.5z" />
    <glyph glyph-name="asterisk" unicode="*" horiz-adv-x="500" 
d="M96 376l98 117l-149 39l27 84l144 -58l-12 154h92l-12 -154l144 58l27 -84l-149 -39l98 -117l-71 -52l-83 130l-83 -130z" />
    <glyph glyph-name="plus" unicode="+" horiz-adv-x="600" 
d="M252 301v205h96v-205h204v-96h-204v-205h-96v205h-204v96h204z" />
    <glyph glyph-name="comma" unicode="," horiz-adv-x="296" 
d="M95 132h130l-90 -253h-108z" />
    <glyph glyph-name="hyphen" unicode="-" horiz-adv-x="315" 
d="M35 350h246v-102h-246v102z" />
    <glyph glyph-name="period" unicode="." horiz-adv-x="296" 
d="M84 0v132h128v-132h-128z" />
    <glyph glyph-name="slash" unicode="/" horiz-adv-x="389" 
d="M2 0l294 746l91 -33l-294 -746z" />
    <glyph glyph-name="zero" unicode="0" 
d="M178 359q0 -62 4.5 -106.5t17 -83.5t36.5 -59t60 -20t60 20t36.5 59t17 83.5t4.5 106.5q0 58 -3.5 98.5t-15 83t-36.5 64.5t-63 22t-63 -22t-36.5 -64.5t-15 -83t-3.5 -98.5zM34 359q0 370 262 370t262 -370q0 -76 -12.5 -139t-41 -117t-81.5 -84.5t-127 -30.5t-127 30.5
t-81.5 84.5t-41 117t-12.5 139z" />
    <glyph glyph-name="one" unicode="1" 
d="M300 0v566l-156 -125l-68 84l240 187h128v-712h-144z" />
    <glyph glyph-name="two" unicode="2" 
d="M46 0v102l205 201q37 36 61.5 63t50.5 74t26 87q0 46 -25.5 73t-75.5 27q-58 0 -84.5 -37.5t-26.5 -83.5l-132 23q15 94 79 147t172 53q107 0 169 -57.5t62 -142.5q0 -64 -28.5 -117.5t-84.5 -110.5l-200 -199h316v-102h-484z" />
    <glyph glyph-name="three" unicode="3" 
d="M179 536l-125 36q60 157 242 157q43 0 80.5 -9t72 -28.5t54.5 -57t20 -88.5q0 -57 -35 -102t-107 -67v-2q156 -27 156 -179q0 -36 -13 -70.5t-41.5 -66.5t-81 -51.5t-122.5 -19.5q-51 0 -92.5 13.5t-66.5 34t-43 47.5t-25.5 50t-10.5 45l128 28q6 -54 34.5 -85t80.5 -31
q51 0 80 33.5t29 80.5q0 113 -133 113h-41v106h35q56 0 93.5 26t37.5 79q0 43 -25 71t-73 28q-27 0 -46.5 -8t-31.5 -24.5t-17.5 -28t-12.5 -30.5z" />
    <glyph glyph-name="four" unicode="4" 
d="M334 0v123h-302v120l289 469h147v-487h94v-102h-94v-123h-134zM334 225v196q0 58 12 151h-6q-20 -47 -49 -97l-144 -250h187z" />
    <glyph glyph-name="five" unicode="5" 
d="M510 712v-102h-284l-4 -155q35 13 84 13q99 0 164.5 -67t65.5 -173q0 -102 -67.5 -171t-181.5 -69q-101 0 -154.5 45.5t-73.5 144.5l120 25q0 -43 24.5 -78t76.5 -35t82 32t30 97q0 75 -41.5 111t-112.5 36q-64 0 -140 -43l8 389h404z" />
    <glyph glyph-name="six" unicode="6" 
d="M302 712h169l-91 -109q-102 -118 -129 -171l2 -2q45 21 90 21q92 0 146.5 -64.5t54.5 -157.5q0 -103 -64 -172t-182 -69q-62 0 -109.5 19t-73 47t-42 64.5t-21 64.5t-4.5 55q0 68 28.5 140t72.5 129zM400 221q0 56 -30 92t-85 36q-16 0 -35 -4.5t-30.5 -10t-11.5 -7.5
q-22 -46 -22 -111q0 -56 27 -90t72 -36q109 0 115 131z" />
    <glyph glyph-name="seven" unicode="7" 
d="M67 0l308 602h-324v110h473v-101l-299 -611h-158z" />
    <glyph glyph-name="eight" unicode="8" 
d="M388 548q0 38 -25.5 61.5t-64.5 23.5q-49 0 -74.5 -23.5t-25.5 -62.5q0 -67 105 -116q85 56 85 117zM293 322l-34 -24q-69 -51 -69 -116q0 -44 27 -71t77 -27t76 28.5t26 77.5q0 66 -78 116zM299 729q102 0 162.5 -47.5t60.5 -120.5q0 -107 -126 -176q30 -17 50 -31
t44.5 -38t37 -56t12.5 -70q0 -82 -64 -142t-178 -60q-121 0 -183.5 57t-62.5 136q0 63 32 99.5t102 81.5q4 2 6.5 3.5t5.5 3.5q-134 62 -134 176q0 88 67 136t168 48z" />
    <glyph glyph-name="nine" unicode="9" 
d="M121 0l91 109q103 126 129 176l-2 2q-45 -21 -90 -21q-92 0 -146.5 64.5t-54.5 157.5q0 103 64 172t182 69q62 0 109.5 -19t73 -47t42 -64.5t21 -64.5t4.5 -55q0 -68 -28.5 -140t-72.5 -129l-153 -210h-169zM192 496q0 -56 30 -92t85 -36q16 0 35 4.5t30.5 10t11.5 7.5
q22 46 22 111q0 56 -27 90t-72 36q-109 0 -115 -131z" />
    <glyph glyph-name="colon" unicode=":" horiz-adv-x="296" 
d="M84 466v132h128v-132h-128zM84 0v132h128v-132h-128z" />
    <glyph glyph-name="semicolon" unicode=";" horiz-adv-x="296" 
d="M95 132h130l-90 -253h-108zM84 466v132h128v-132h-128z" />
    <glyph glyph-name="less" unicode="&#x3c;" horiz-adv-x="600" 
d="M554 88v-96l-508 221v80l508 221v-96l-383 -165z" />
    <glyph glyph-name="equal" unicode="=" horiz-adv-x="600" 
d="M552 408v-96h-504v96h504zM552 194v-96h-504v96h504z" />
    <glyph glyph-name="greater" unicode="&#x3e;" horiz-adv-x="600" 
d="M46 -8v96l383 165l-383 165v96l508 -221v-80z" />
    <glyph glyph-name="question" unicode="?" horiz-adv-x="537" 
d="M214 225v50q0 68 40 109l53 53q54 54 54 108q0 37 -23 59.5t-67 22.5q-26 0 -45.5 -10.5t-29.5 -27t-14 -29t-6 -24.5l-126 26q42 167 232 167q97 0 154 -50.5t57 -131.5q0 -79 -72 -144l-43 -39q-54 -49 -54 -89v-50h-110zM205 0v132h128v-132h-128z" />
    <glyph glyph-name="at" unicode="@" horiz-adv-x="800" 
d="M290 318q0 -40 22 -65.5t57 -25.5q53 0 89 49t36 104q0 36 -22.5 60.5t-56.5 24.5q-52 0 -88.5 -47t-36.5 -100zM621 544l-59 -243q-11 -36 -11 -58q0 -23 20 -23q42 0 78.5 53.5t36.5 129.5q0 117 -77.5 183.5t-193.5 66.5q-127 0 -206 -85t-79 -214q0 -131 83.5 -213
t213.5 -82q134 0 215 86h78q-51 -78 -130.5 -120t-173.5 -42q-162 0 -270 107t-108 266q0 155 108 264t252 109q162 0 263 -88t101 -217q0 -72 -28 -130.5t-69 -91t-81 -50t-70 -17.5q-24 0 -40 14.5t-18 42.5h-2q-46 -57 -116 -57q-63 0 -105.5 49.5t-42.5 119.5
q0 99 61.5 176t155.5 77q78 0 117 -68l15 55h82z" />
    <glyph glyph-name="A" unicode="A" horiz-adv-x="722" 
d="M250 276h220l-79 224q-16 46 -28 98h-5q-7 -45 -26 -98zM2 0l268 712h191l259 -712h-157l-57 166h-294l-59 -166h-151z" />
    <glyph glyph-name="B" unicode="B" horiz-adv-x="648" 
d="M217 110h131q46 0 78 23.5t32 74.5q0 102 -106 102h-135v-200zM73 0v712h290q115 0 169 -50t54 -130q0 -59 -32 -103.5t-97 -57.5v-2q58 -7 103 -52t45 -120q0 -197 -246 -197h-286zM217 420h123q45 0 73.5 23.5t28.5 71.5q0 87 -88 87h-137v-182z" />
    <glyph glyph-name="C" unicode="C" horiz-adv-x="685" 
d="M642 527l-139 -29q-5 52 -40 84.5t-86 32.5q-83 0 -129.5 -63.5t-46.5 -195.5q0 -259 161 -259q67 0 103.5 39.5t44.5 86.5l140 -31q-2 -15 -9 -36t-28 -53t-52 -57.5t-85.5 -44t-123.5 -18.5q-143 0 -226 96.5t-83 276.5q0 179 91 276t243 97q108 0 174 -53t91 -149z
" />
    <glyph glyph-name="D" unicode="D" horiz-adv-x="722" 
d="M73 0v712h282q44 0 86.5 -10.5t86 -36.5t76 -65t53.5 -102.5t21 -143.5q0 -176 -98 -265t-273 -89h-234zM223 598v-484h90q100 0 153.5 68t53.5 175q0 66 -19.5 118.5t-67 87.5t-118.5 35h-92z" />
    <glyph glyph-name="E" unicode="E" horiz-adv-x="593" 
d="M73 0v712h462v-114h-312v-174h295v-114h-295v-196h322v-114h-472z" />
    <glyph glyph-name="F" unicode="F" horiz-adv-x="574" 
d="M73 0v712h464v-114h-314v-193h301v-114h-301v-291h-150z" />
    <glyph glyph-name="G" unicode="G" horiz-adv-x="704" 
d="M649 546l-139 -36q-4 34 -43 69.5t-90 35.5q-83 0 -129.5 -63.5t-46.5 -195.5t46.5 -195.5t129.5 -63.5q56 0 124 29v160h-123v110h267v-336q-40 -28 -114 -52.5t-154 -24.5q-152 0 -243 97t-91 276t91 276t243 97q118 0 179.5 -47t92.5 -136z" />
    <glyph glyph-name="H" unicode="H" horiz-adv-x="722" 
d="M73 0v712h150v-280h276v280h150v-712h-150v318h-276v-318h-150z" />
    <glyph glyph-name="I" unicode="I" horiz-adv-x="296" 
d="M73 0v712h150v-712h-150z" />
    <glyph glyph-name="J" unicode="J" horiz-adv-x="407" 
d="M-14 26l60 107q28 -32 67 -32q42 0 59 27t17 84v500h150v-516q0 -93 -54 -153t-157 -60q-88 0 -142 43z" />
    <glyph glyph-name="K" unicode="K" horiz-adv-x="667" 
d="M73 0v712h150v-303h2l244 303h179l-283 -337l301 -375h-190l-251 326h-2v-326h-150z" />
    <glyph glyph-name="L" unicode="L" horiz-adv-x="519" 
d="M73 0v712h150v-594h283v-118h-433z" />
    <glyph glyph-name="M" unicode="M" horiz-adv-x="944" 
d="M413 0l-159 465q-29 86 -36 137h-9q2 -54 2 -77v-525h-138v712h233l132 -396q12 -38 31 -124h6q6 48 31 124l132 396h233v-712h-138v525q0 23 2 77h-9q-7 -51 -36 -137l-159 -465h-118z" />
    <glyph glyph-name="N" unicode="N" horiz-adv-x="759" 
d="M73 0v712h193l190 -345q78 -146 92 -211h7q-7 42 -7 196v360h138v-712h-198l-217 407q-42 76 -61 149h-6q7 -114 7 -165v-391h-138z" />
    <glyph glyph-name="O" unicode="O" horiz-adv-x="740" 
d="M370 97q83 0 129.5 63.5t46.5 195.5t-46.5 195.5t-129.5 63.5t-129.5 -63.5t-46.5 -195.5t46.5 -195.5t129.5 -63.5zM370 -17q-152 0 -243 97t-91 276t91 276t243 97t243 -97t91 -276t-91 -276t-243 -97z" />
    <glyph glyph-name="P" unicode="P" horiz-adv-x="611" 
d="M60 0v712h283q122 0 181.5 -60.5t59.5 -157.5q0 -115 -70.5 -171t-169.5 -56h-134v-267h-150zM210 377h100q130 0 130 123q0 46 -23.5 74t-74.5 28h-132v-225z" />
    <glyph glyph-name="Q" unicode="Q" horiz-adv-x="740" 
d="M370 97q83 0 129.5 63.5t46.5 195.5t-46.5 195.5t-129.5 63.5t-129.5 -63.5t-46.5 -195.5t46.5 -195.5t129.5 -63.5zM606 -187l-242 170q-143 0 -235.5 96t-92.5 277q0 179 91 276t243 97t243 -97t91 -276q0 -129 -47.5 -215.5t-133.5 -125.5l167 -107z" />
    <glyph glyph-name="R" unicode="R" horiz-adv-x="648" 
d="M223 405h115q53 0 80 23t27 77q0 97 -91 97h-131v-197zM466 0l-131 295h-112v-295h-150v712h299q112 0 167.5 -55.5t55.5 -151.5q0 -129 -122 -179l161 -326h-168z" />
    <glyph glyph-name="S" unicode="S" horiz-adv-x="611" 
d="M553 583l-136 -45q-7 18 -11 26t-15.5 24t-31 23.5t-46.5 7.5q-56 0 -84 -25.5t-28 -59.5q0 -27 12.5 -42.5t48.5 -30.5l156 -65q78 -33 114 -77t36 -113q0 -95 -72.5 -159t-202.5 -64q-59 0 -107 15.5t-78 41t-48 53.5t-24 57l135 51q17 -104 129 -104q54 0 86 25.5
t32 68.5q0 57 -86 90l-95 37q-85 32 -135.5 77.5t-50.5 121.5q0 40 14 76t43 67.5t81 50t121 18.5q96 0 155.5 -32t87.5 -114z" />
    <glyph glyph-name="T" unicode="T" horiz-adv-x="556" 
d="M203 0v594h-195v118h540v-118h-195v-594h-150z" />
    <glyph glyph-name="U" unicode="U" horiz-adv-x="704" 
d="M494 712h144v-432q0 -297 -296 -297q-135 0 -205.5 75.5t-70.5 221.5v432h144v-432q0 -183 142 -183t142 183v432z" />
    <glyph glyph-name="V" unicode="V" horiz-adv-x="667" 
d="M5 712h158l143 -482q7 -25 22 -96h6q7 29 27 101l151 477h150l-238 -712h-194z" />
    <glyph glyph-name="W" unicode="W" horiz-adv-x="963" 
d="M178 0l-169 712h152l82 -394q22 -105 29 -193h9q10 103 30 197l83 390h184l90 -428q8 -36 24 -159h9q3 62 24 168l88 419h141l-166 -712h-188l-90 416q-8 35 -15 92.5t-7 78.5h-9q-9 -96 -26 -162l-88 -425h-187z" />
    <glyph glyph-name="X" unicode="X" horiz-adv-x="685" 
d="M201 712l93 -161q32 -53 50 -101h4q11 37 45 89l98 173h166l-213 -340l232 -372h-177l-113 195q-32 58 -45 94h-7q-21 -51 -50 -101l-108 -188h-167l232 372l-213 340h173z" />
    <glyph glyph-name="Y" unicode="Y" horiz-adv-x="667" 
d="M257 0v275l-256 437h175l125 -229q5 -9 35 -83h3q12 41 37 87l122 225h168l-259 -437v-275h-150z" />
    <glyph glyph-name="Z" unicode="Z" horiz-adv-x="574" 
d="M28 0v118l338 480h-328v114h501v-120l-336 -478h342v-114h-517z" />
    <glyph glyph-name="bracketleft" unicode="[" horiz-adv-x="296" 
d="M70 -130v888h200v-70h-82v-748h82v-70h-200z" />
    <glyph glyph-name="backslash" unicode="\" horiz-adv-x="389" 
d="M93 746l294 -746l-91 -33l-294 746z" />
    <glyph glyph-name="bracketright" unicode="]" horiz-adv-x="296" 
d="M226 758v-888h-200v70h82v748h-82v70h200z" />
    <glyph glyph-name="asciicircum" unicode="^" horiz-adv-x="600" 
d="M63 318l193 394h88l193 -394h-96l-142 298l-140 -298h-96z" />
    <glyph glyph-name="underscore" unicode="_" horiz-adv-x="500" 
d="M500 -125h-500v50h500v-50z" />
    <glyph glyph-name="grave" unicode="`" horiz-adv-x="278" 
d="M137 808l99 -146h-104l-159 146h164z" />
    <glyph glyph-name="a" unicode="a" horiz-adv-x="574" 
d="M382 0l-5 90q-82 -102 -184 -102q-77 0 -121 49.5t-44 131.5q0 108 77 157t209 49h63v46q0 41 -23.5 67t-72.5 26q-25 0 -42 -5.5t-29 -20.5t-18 -27t-17 -38l-126 35q30 73 83 112.5t154 39.5q105 0 167 -52t62 -164v-292q0 -60 5 -102h-138zM377 168v121h-43
q-88 0 -128 -27t-40 -81q0 -39 19.5 -61t54.5 -22q39 0 62.5 13t74.5 57z" />
    <glyph glyph-name="b" unicode="b" horiz-adv-x="630" 
d="M70 0v777h144v-249q33 30 51 44t48.5 26t65.5 12q60 0 103.5 -29t65 -77.5t31 -98t9.5 -103.5q0 -314 -208 -314q-90 0 -166 83v-71h-144zM214 433v-268q48 -67 115 -67q57 0 84.5 54.5t27.5 148.5q0 199 -118 199q-57 0 -109 -67z" />
    <glyph glyph-name="c" unicode="c" horiz-adv-x="537" 
d="M401 196l130 -33q-11 -29 -19 -47t-27 -45.5t-41.5 -43t-60.5 -27.5t-86 -12q-69 0 -120.5 26.5t-80 72t-41.5 98t-13 112.5q0 139 64 226t196 87q54 0 97.5 -19t69 -48t39.5 -57t17 -53l-134 -36q0 46 -24 78.5t-68 32.5q-56 0 -81.5 -49t-25.5 -151q0 -51 4.5 -87.5
t16 -67.5t33.5 -47t55 -16q46 0 70.5 33.5t29.5 72.5z" />
    <glyph glyph-name="d" unicode="d" horiz-adv-x="630" 
d="M560 777v-777h-144v71q-76 -83 -166 -83q-208 0 -208 314q0 55 9 104t30.5 97.5t65 77.5t104.5 29q35 0 65.5 -12t48.5 -26t51 -44v249h144zM416 165v268q-52 67 -109 67q-118 0 -118 -199q0 -94 27.5 -148.5t84.5 -54.5q67 0 115 67z" />
    <glyph glyph-name="e" unicode="e" 
d="M416 179l122 -40q-61 -151 -232 -151q-126 0 -200 83.5t-74 229.5q0 140 72.5 224.5t202.5 84.5q121 0 187 -84t66 -209v-54h-384q0 -30 5.5 -57.5t19 -55t39.5 -44t63 -16.5q44 0 73.5 27.5t39.5 61.5zM176 359h240q0 72 -30 111.5t-84 37.5q-61 2 -91.5 -41t-34.5 -108
z" />
    <glyph glyph-name="f" unicode="f" horiz-adv-x="370" 
d="M99 0v447h-86v102h86v54q0 197 203 197q43 0 86 -11v-102q-24 11 -70 11q-75 0 -75 -100v-49h118v-102h-118v-447h-144z" />
    <glyph glyph-name="g" unicode="g" horiz-adv-x="593" 
d="M586 598v-80h-117q46 -46 46 -111q0 -31 -12 -60.5t-38 -57t-74 -44t-113 -16.5q-26 0 -38 4q-15 -15 -15 -34q0 -11 6.5 -16t27.5 -10l180 -49q59 -15 95 -51t36 -96q0 -49 -23.5 -85t-64 -56t-87.5 -29t-101 -9q-124 0 -195.5 42t-71.5 112q0 32 10.5 58t31 44t35 27
t36.5 20q-35 19 -35 63q0 24 17 49.5t41 36.5q-68 31 -94 70t-26 100q0 81 61.5 135.5t157.5 54.5q31 0 108 -12h216zM280 325q48 0 76.5 26t28.5 69q0 47 -31 70.5t-72 23.5q-54 0 -81.5 -25t-27.5 -69t29.5 -69.5t77.5 -25.5zM364 25l-148 38q-63 -41 -63 -94
q0 -40 41.5 -59.5t104.5 -19.5q133 0 133 74q0 25 -17 38.5t-51 22.5z" />
    <glyph glyph-name="h" unicode="h" horiz-adv-x="630" 
d="M70 0v777h144v-268q105 101 200 101q146 0 146 -176v-434h-144v403q0 42 -19.5 63.5t-55.5 21.5q-32 0 -57 -16.5t-70 -58.5v-413h-144z" />
    <glyph glyph-name="i" unicode="i" horiz-adv-x="278" 
d="M67 0v598h144v-598h-144zM67 670v107h144v-107h-144z" />
    <glyph glyph-name="j" unicode="j" horiz-adv-x="278" 
d="M67 -10v608h144v-636q0 -79 -45.5 -121.5t-124.5 -42.5q-47 0 -77 9l7 108q21 -7 37 -7q59 0 59 82zM67 670v107h144v-107h-144z" />
    <glyph glyph-name="k" unicode="k" horiz-adv-x="593" 
d="M71 777h144v-444h2l190 267h167l-214 -282l231 -318h-173l-201 300h-2v-300h-144v777z" />
    <glyph glyph-name="l" unicode="l" horiz-adv-x="278" 
d="M67 0v777h144v-777h-144z" />
    <glyph glyph-name="m" unicode="m" horiz-adv-x="944" 
d="M70 0v598h144v-88q62 58 86 74q43 26 95 26q102 0 139 -100q89 100 190 100q77 0 113.5 -48t36.5 -129v-433h-144v399q0 42 -18.5 65.5t-51.5 23.5q-28 0 -50 -14t-66 -60v-414h-144v399q0 42 -18.5 65.5t-51.5 23.5q-28 0 -50 -14t-66 -60v-414h-144z" />
    <glyph glyph-name="n" unicode="n" horiz-adv-x="630" 
d="M416 0v403q0 42 -19.5 63.5t-55.5 21.5q-32 0 -57 -16.5t-70 -58.5v-413h-144v598h144v-89q105 101 200 101q146 0 146 -176v-434h-144z" />
    <glyph glyph-name="o" unicode="o" horiz-adv-x="612" 
d="M182 299q0 -209 124 -209t124 209t-124 209t-124 -209zM32 301q0 138 75 223.5t199 85.5q130 0 202 -84.5t72 -224.5q0 -144 -76 -228.5t-198 -84.5q-126 0 -200 83.5t-74 229.5z" />
    <glyph glyph-name="p" unicode="p" horiz-adv-x="630" 
d="M70 -195v793h144v-70q33 30 51 44t48.5 26t65.5 12q60 0 103.5 -29t65 -77.5t31 -98t9.5 -103.5q0 -314 -208 -314q-90 0 -166 83v-266h-144zM214 433v-268q48 -67 115 -67q57 0 84.5 54.5t27.5 148.5q0 199 -118 199q-57 0 -109 -67z" />
    <glyph glyph-name="q" unicode="q" horiz-adv-x="630" 
d="M560 598v-793h-144v266q-76 -83 -166 -83q-208 0 -208 314q0 55 9 104t30.5 97.5t65 77.5t104.5 29q35 0 65.5 -12t48.5 -26t51 -44v70h144zM416 165v268q-52 67 -109 67q-118 0 -118 -199q0 -94 27.5 -148.5t84.5 -54.5q67 0 115 67z" />
    <glyph glyph-name="r" unicode="r" horiz-adv-x="407" 
d="M70 0v598h144v-94h2q82 106 169 106q9 0 27 -2v-132q-25 4 -51 4q-33 0 -63.5 -15t-46 -29t-37.5 -38v-398h-144z" />
    <glyph glyph-name="s" unicode="s" horiz-adv-x="519" 
d="M482 471l-120 -37q-4 15 -8.5 25.5t-15.5 25t-31 22t-49 7.5q-33 0 -55.5 -17t-22.5 -50q0 -29 17.5 -43t45.5 -22l115 -38q135 -45 135 -163q0 -193 -255 -193q-54 0 -95.5 15.5t-64.5 41t-35 48.5t-17 47l123 38q13 -45 37.5 -66.5t72.5 -21.5q45 0 67.5 24t22.5 51
q0 30 -17 44t-49 24l-92 29q-149 46 -149 166q0 92 62 137t154 45q95 0 150.5 -39.5t73.5 -99.5z" />
    <glyph glyph-name="t" unicode="t" horiz-adv-x="407" 
d="M383 549v-102h-140v-246q0 -37 3 -55.5t19.5 -33t49.5 -14.5q42 0 70 12v-104q-44 -18 -112 -18q-174 0 -174 191v268h-86v102h86v136l144 60v-196h140z" />
    <glyph glyph-name="u" unicode="u" horiz-adv-x="611" 
d="M547 598v-598h-144v91q-103 -103 -200 -103q-139 0 -139 176v434h144v-403q0 -41 18.5 -63t49.5 -22t56 16.5t71 60.5v411h144z" />
    <glyph glyph-name="v" unicode="v" horiz-adv-x="556" 
d="M194 0l-192 598h155l93 -313q7 -23 12 -47t9.5 -52.5t6.5 -40.5h6q7 67 28 139l98 314h144l-191 -598h-169z" />
    <glyph glyph-name="w" unicode="w" horiz-adv-x="907" 
d="M564 0l-81 328q-5 20 -9.5 42.5t-9 47.5t-6.5 36h-6q-1 -32 -20 -118l-76 -336h-181l-170 598h151l74 -290q5 -19 35 -168h6q5 51 32 168l66 290h180l70 -297q24 -106 33 -161h7q3 44 32 168l67 290h144l-157 -598h-181z" />
    <glyph glyph-name="x" unicode="x" horiz-adv-x="574" 
d="M1 0l188 319l-167 279h163l78 -145q16 -27 30 -61h4q13 31 25 53l85 153h150l-168 -277l184 -321h-167l-98 184q-14 27 -21 47h-5q-7 -13 -24 -47l-103 -184h-154z" />
    <glyph glyph-name="y" unicode="y" horiz-adv-x="556" 
d="M50 -188l7 111q42 -11 59 -11q18 0 30 4t30 27t36 67l-210 588h155l92 -284q10 -31 32 -147h6q9 81 31 143l92 288h144l-217 -639q-29 -84 -70 -122.5t-114 -38.5q-53 0 -103 14z" />
    <glyph glyph-name="z" unicode="z" horiz-adv-x="519" 
d="M23 0v96l291 400h-279v102h451v-97l-292 -399h302v-102h-473z" />
    <glyph glyph-name="braceleft" unicode="{" horiz-adv-x="352" 
d="M31 278v73q32 0 58 24t26 70v186q0 59 39.5 93t84.5 34h87v-70h-51q-52 0 -52 -73v-184q0 -33 -10.5 -56.5t-27.5 -35.5t-31 -17.5t-27 -6.5v-2q13 -1 27 -6.5t31 -17.5t27.5 -35.5t10.5 -56.5v-184q0 -73 52 -73h51v-70h-87q-45 0 -84.5 34t-39.5 93v186q0 46 -26 70.5
t-58 24.5z" />
    <glyph glyph-name="bar" unicode="|" horiz-adv-x="222" 
d="M63 -250v1000h96v-1000h-96z" />
    <glyph glyph-name="braceright" unicode="}" horiz-adv-x="352" 
d="M321 350v-73q-32 0 -58 -24t-26 -70v-186q0 -59 -39.5 -93t-84.5 -34h-87v70h51q52 0 52 73v184q0 33 11 57t27.5 35.5t30.5 17t27 6.5v2q-13 1 -27 6.5t-30.5 17t-27.5 35.5t-11 57v184q0 73 -52 73h-51v70h87q45 0 84.5 -34t39.5 -93v-186q0 -46 26 -70.5t58 -24.5z
" />
    <glyph glyph-name="asciitilde" unicode="~" horiz-adv-x="600" 
d="M495 336l36 -76q-27 -41 -55 -63.5t-70 -22.5q-45 0 -102 33q-59 35 -115 35q-51 0 -84 -72l-36 76q42 86 125 86q38 0 111 -32q7 -3 21.5 -9.5t23 -10t20 -8t20.5 -6.5t17 -2q19 0 37 13t25.5 23t25.5 36z" />
    <glyph glyph-name="euro" horiz-adv-x="498" 
d="M522 633l-23 -156l-48 6q0 157 -94 157q-103 0 -161 -211h172l-21 -48h-164q-3 -14 -16 -73h147l-21 -47h-134q-6 -41 -6 -74q0 -55 21 -91q25 -43 78 -43q57 0 101 68q24 37 51 119l55 -10l-54 -188q-77 -53 -159 -53q-110 0 -166 84q-47 71 -47 188h-74l21 47h56
q3 24 12 73h-66l21 48h59q40 113 108 183q82 88 187 88q95 0 165 -67z" />
    <glyph glyph-name="nbspace" unicode="&#xa0;" horiz-adv-x="296" 
 />
    <glyph glyph-name="exclamdown" unicode="&#xa1;" horiz-adv-x="332" 
d="M220 373l18 -487h-144l18 487h108zM230 598v-132h-128v132h128z" />
    <glyph glyph-name="cent" unicode="&#xa2;" 
d="M226 143l116 360q-18 5 -34 5q-56 0 -81.5 -49t-25.5 -151q0 -115 25 -165zM160 -64l25 79q-70 36 -102 111.5t-32 170.5q0 139 64 226t196 87q36 0 63 -6l25 77l52 -17l-24 -77q87 -39 117 -135l-120 -42q-11 38 -34 63l-120 -374q16 -9 40 -9q49 0 74.5 21t41.5 73
l121 -36q-51 -160 -241 -160q-35 0 -69 8l-25 -77z" />
    <glyph glyph-name="sterling" unicode="&#xa3;" 
d="M58 0v102h78v218h-75v92h75v89q0 40 10 76.5t34 72.5t71 57.5t113 21.5q89 0 138 -33t72 -112l-128 -34q-18 77 -87 77q-52 0 -70.5 -35.5t-18.5 -93.5v-86h150v-92h-150v-218h261v-102h-473z" />
    <glyph glyph-name="currency" unicode="&#xa4;" 
d="M38 155l57 58q-49 57 -49 143t49 143l-57 58l53 53l56 -57q56 50 149 50t149 -50l56 57l53 -53l-57 -58q49 -57 49 -143t-49 -143l57 -58l-53 -53l-56 57q-56 -50 -149 -50t-149 50l-56 -57zM142 356q0 -64 45 -109.5t109 -45.5t109 45.5t45 109.5t-45 109.5t-109 45.5
t-109 -45.5t-45 -109.5z" />
    <glyph glyph-name="yen" unicode="&#xa5;" 
d="M224 0v137h-148v64h148v60h-148v64h116l-191 387h159l139 -328h6l139 328h147l-191 -387h116v-64h-148v-60h148v-64h-148v-137h-144z" />
    <glyph glyph-name="brokenbar" unicode="&#xa6;" horiz-adv-x="222" 
d="M63 -175v350h96v-350h-96zM63 325v350h96v-350h-96z" />
    <glyph glyph-name="section" unicode="&#xa7;" 
d="M67 -5l103 50q33 -87 117 -87q46 0 67 21.5t21 45.5q0 15 -4.5 26t-18.5 21t-24 15.5t-37 17.5l-105 48q-112 51 -112 150q0 95 105 134q-23 14 -38 26t-30 39.5t-15 62.5q0 68 51 116t157 48q151 3 204 -110l-103 -55q-11 23 -19.5 35.5t-30.5 26t-52 13.5t-56.5 -15
t-26.5 -50q0 -28 16.5 -44.5t49.5 -31.5l127 -57q112 -51 112 -149q0 -93 -92 -128q70 -43 70 -120q0 -73 -52.5 -127.5t-164.5 -54.5q-90 0 -148 44t-71 89zM331 355l-88 41q-56 -23 -56 -71q0 -45 58 -72l122 -55q15 8 30 27.5t15 42.5q0 30 -21 49.5t-60 37.5z" />
    <glyph glyph-name="dieresis" unicode="&#xa8;" horiz-adv-x="278" 
d="M173 777h144v-107h-144v107zM-39 777h144v-107h-144v107z" />
    <glyph glyph-name="copyright" unicode="&#xa9;" horiz-adv-x="800" 
d="M511 294h80q-12 -73 -60.5 -114.5t-116.5 -41.5q-92 0 -150.5 63t-58.5 157q0 98 56 160t151 62q70 0 117.5 -40t58.5 -114h-77q-6 38 -33 59.5t-66 21.5q-55 0 -85 -41t-30 -106q0 -62 32.5 -105.5t84.5 -43.5q40 0 66 22.5t31 60.5zM27 356q0 154 109.5 263.5
t263.5 109.5t263.5 -109.5t109.5 -263.5t-109.5 -263.5t-263.5 -109.5t-263.5 109.5t-109.5 263.5zM110 356q0 -120 85 -205t205 -85t205 85t85 205t-85 205t-205 85t-205 -85t-85 -205z" />
    <glyph glyph-name="ordfeminine" unicode="&#xaa;" horiz-adv-x="370" 
d="M114 616l-82 22q38 91 156 91q75 0 114 -30.5t39 -99.5v-175q0 -41 4 -61h-96v54h-4q-51 -61 -120 -61q-51 0 -81 29.5t-30 78.5q0 64 48.5 94.5t121.5 30.5h61v27q0 53 -62 53q-31 0 -45 -13t-24 -40zM245 464v70h-41q-94 0 -94 -62q0 -24 12.5 -37.5t35.5 -13.5
q47 0 87 43z" />
    <glyph glyph-name="guillemotleft" unicode="&#xab;" horiz-adv-x="537" 
d="M258 300l176 241l79 -53l-125 -188l125 -188l-79 -52zM24 300l176 241l79 -53l-125 -188l125 -188l-79 -52z" />
    <glyph glyph-name="logicalnot" unicode="&#xac;" horiz-adv-x="600" 
d="M456 108v204h-408v96h504v-300h-96z" />
    <glyph glyph-name="sfthyphen" unicode="&#xad;" horiz-adv-x="833" 
 />
    <glyph glyph-name="registered" unicode="&#xae;" horiz-adv-x="800" 
d="M482 150l-102 173h-52v-173h-83v417h158q82 0 123 -29t41 -95q0 -54 -30 -84t-78 -32l109 -177h-86zM328 383h74q82 0 82 60q0 27 -20 40.5t-50 13.5h-86v-114zM27 356q0 154 109.5 263.5t263.5 109.5t263.5 -109.5t109.5 -263.5t-109.5 -263.5t-263.5 -109.5
t-263.5 109.5t-109.5 263.5zM110 356q0 -120 85 -205t205 -85t205 85t85 205t-85 205t-205 85t-205 -85t-85 -205z" />
    <glyph glyph-name="overscore" unicode="&#xaf;" horiz-adv-x="278" 
d="M-16 773h310v-76h-310v76z" />
    <glyph glyph-name="degree" unicode="&#xb0;" horiz-adv-x="400" 
d="M57 586q0 60 41.5 101.5t101.5 41.5t101.5 -41.5t41.5 -101.5t-41.5 -101.5t-101.5 -41.5t-101.5 41.5t-41.5 101.5zM127 586q0 -30 21.5 -51.5t51.5 -21.5t51.5 21.5t21.5 51.5t-21.5 51.5t-51.5 21.5t-51.5 -21.5t-21.5 -51.5z" />
    <glyph glyph-name="plusminus" unicode="&#xb1;" horiz-adv-x="600" 
d="M252 366v140h96v-140h204v-96h-204v-140h-96v140h-204v96h204zM48 0v96h504v-96h-504z" />
    <glyph glyph-name="twosuperior" unicode="&#xb2;" horiz-adv-x="385" 
d="M36 291v61l133 120q28 26 41 38.5t31 38.5t18 45q0 59 -66 59q-34 0 -52 -20t-21 -43l-92 13q20 126 176 126q70 0 110.5 -34.5t40.5 -87.5q0 -69 -73 -137l-113 -103h182v-76h-315z" />
    <glyph glyph-name="threesuperior" unicode="&#xb3;" horiz-adv-x="385" 
d="M27 398l83 17q3 -24 24.5 -41t50.5 -17q34 0 53 17.5t19 40.5q0 32 -24 48t-64 16h-27v65q32 2 50.5 5t37 17t18.5 39q0 22 -16 38t-45 16q-49 0 -71 -45l-84 21q40 94 160 94q62 0 105 -25.5t43 -85.5q0 -74 -86 -101v-2q95 -18 95 -105q0 -49 -39 -87.5t-122 -38.5
q-69 0 -107 28.5t-54 85.5z" />
    <glyph glyph-name="acute" unicode="&#xb4;" horiz-adv-x="278" 
d="M42 662l99 146h164l-159 -146h-104z" />
    <glyph glyph-name="mu" unicode="&#xb5;" horiz-adv-x="611" 
d="M64 -195v793h144v-388q0 -60 19 -80t54 -20q14 0 25.5 3t24 11t20 14.5t24.5 23t28 25.5v411h144v-598h-144v79h-2q-18 -43 -42.5 -65t-69.5 -22q-51 0 -79 44h-2v-231h-144z" />
    <glyph glyph-name="paragraph" unicode="&#xb6;" horiz-adv-x="600" 
d="M222 -121v472q-96 0 -153.5 48.5t-57.5 128.5q0 184 238 184h282v-833h-102v758h-105v-758h-102z" />
    <glyph glyph-name="ch270" unicode="&#xb7;" horiz-adv-x="296" 
d="M66 293q0 34 24 58t58 24t58 -24t24 -58t-24 -58t-58 -24t-58 24t-24 58z" />
    <glyph glyph-name="cedilla" unicode="&#xb8;" horiz-adv-x="278" 
d="M117 0h51l-41 -63q20 5 39 5q45 0 65.5 -23.5t20.5 -51.5q0 -31 -26.5 -61t-92.5 -30q-45 0 -120 25l18 43q55 -20 86 -20q21 0 36 11t15 28q0 19 -11.5 30t-31.5 11q-24 0 -44 -9l-22 16z" />
    <glyph glyph-name="onesuperior" unicode="&#xb9;" horiz-adv-x="385" 
d="M177 291v334l-101 -75l-45 50l156 112h86v-421h-96z" />
    <glyph glyph-name="ordmasculine" unicode="&#xba;" horiz-adv-x="388" 
d="M116 542q0 -121 79 -121q78 0 78 121q0 122 -78 122q-79 0 -79 -122zM13 544q0 84 47.5 134.5t134.5 50.5q85 0 133 -50.5t48 -134.5q0 -88 -48 -138t-133 -50t-133.5 50t-48.5 138z" />
    <glyph glyph-name="guillemotright" unicode="&#xbb;" horiz-adv-x="537" 
d="M279 300l-176 -241l-79 52l125 189l-125 187l79 52zM513 300l-176 -241l-79 52l125 189l-125 187l79 52z" />
    <glyph glyph-name="onequarter" unicode="&#xbc;" horiz-adv-x="889" 
d="M692 0v68h-202v78l188 281h103v-289h59v-70h-59v-68h-89zM692 138v115q0 39 8 90h-4q-12 -28 -32 -58l-93 -147h121zM202 -25l387 762h79l-387 -762h-79zM177 291v334l-101 -75l-45 50l156 112h86v-421h-96z" />
    <glyph glyph-name="onehalf" unicode="&#xbd;" horiz-adv-x="889" 
d="M172 -25l387 762h79l-387 -762h-79zM177 291v334l-101 -75l-45 50l156 112h86v-421h-96zM501 -1v61l133 120q28 26 41 38.5t31 38.5t18 45q0 59 -66 59q-34 0 -52 -20t-21 -43l-92 13q20 126 176 126q70 0 110.5 -34.5t40.5 -87.5q0 -69 -73 -137l-113 -103h182v-76h-315
z" />
    <glyph glyph-name="threequarters" unicode="&#xbe;" horiz-adv-x="889" 
d="M692 0v68h-202v78l188 281h103v-289h59v-70h-59v-68h-89zM692 138v115q0 39 8 90h-4q-12 -28 -32 -58l-93 -147h121zM222 -25l387 762h79l-387 -762h-79zM31 398l83 17q3 -24 24.5 -41t50.5 -17q34 0 53 17.5t19 40.5q0 32 -24 48t-64 16h-27v65q32 2 50.5 5t37 17
t18.5 39q0 22 -16 38t-45 16q-49 0 -71 -45l-84 21q40 94 160 94q62 0 105 -25.5t43 -85.5q0 -74 -86 -101v-2q95 -18 95 -105q0 -49 -39 -87.5t-122 -38.5q-69 0 -107 28.5t-54 85.5z" />
    <glyph glyph-name="questiondown" unicode="&#xbf;" horiz-adv-x="537" 
d="M323 373v-50q0 -68 -40 -109l-53 -53q-54 -54 -54 -108q0 -37 23 -59.5t67 -22.5q26 0 45.5 10.5t29.5 27t14 29t6 24.5l126 -26q-42 -167 -232 -167q-97 0 -154 50.5t-57 131.5q0 79 72 144l43 39l4 4q49 50 50 85v50h110zM332 598v-132h-128v132h128z" />
    <glyph glyph-name="Agrave" unicode="&#xc0;" horiz-adv-x="722" 
d="M338 874l79 -118h-83l-128 118h132zM250 276h220l-79 224q-16 46 -28 98h-5q-7 -45 -26 -98zM2 0l268 712h191l259 -712h-157l-57 166h-294l-59 -166h-151z" />
    <glyph glyph-name="Aacute" unicode="&#xc1;" horiz-adv-x="722" 
d="M280 758l79 118h132l-128 -118h-83zM250 276h220l-79 224q-16 46 -28 98h-5q-7 -45 -26 -98zM2 0l268 712h191l259 -712h-157l-57 166h-294l-59 -166h-151z" />
    <glyph glyph-name="Acircumflex" unicode="&#xc2;" horiz-adv-x="722" 
d="M311 864h100l87 -110h-87l-50 64l-50 -64h-87zM250 276h220l-79 224q-16 46 -28 98h-5q-7 -45 -26 -98zM2 0l268 712h191l259 -712h-157l-57 166h-294l-59 -166h-151z" />
    <glyph glyph-name="Atilde" unicode="&#xc3;" horiz-adv-x="722" 
d="M272 760h-53q12 55 32 76.5t56 21.5q21 0 60 -15t57 -15q30 0 38 34h53q-12 -55 -32 -76.5t-56 -21.5q-21 0 -60 15t-57 15q-30 0 -38 -34zM250 276h220l-79 224q-16 46 -28 98h-5q-7 -45 -26 -98zM2 0l268 712h191l259 -712h-157l-57 166h-294l-59 -166h-151z" />
    <glyph glyph-name="Adieresis" unicode="&#xc4;" horiz-adv-x="722" 
d="M250 276h220l-79 224q-16 46 -28 98h-5q-7 -45 -26 -98zM2 0l268 712h191l259 -712h-157l-57 166h-294l-59 -166h-151zM395 876h144v-107h-144v107zM183 876h144v-107h-144v107z" />
    <glyph glyph-name="Aring" unicode="&#xc5;" horiz-adv-x="722" 
d="M250 276h220l-79 224q-16 46 -28 98h-5q-7 -45 -26 -98zM2 0l268 712h191l259 -712h-157l-57 166h-294l-59 -166h-151zM256 857q0 44 30.5 74.5t74.5 30.5q43 0 74 -31t31 -74q0 -44 -30.5 -74.5t-74.5 -30.5t-74.5 30.5t-30.5 74.5zM306 857q0 -23 16 -39t39 -16t39 16
t16 39t-16 39t-39 16t-39 -16t-16 -39z" />
    <glyph glyph-name="AE" unicode="&#xc6;" horiz-adv-x="963" 
d="M496 0v172h-241l-91 -172h-160l392 712h505v-114h-261v-174h246v-114h-246v-196h275v-114h-419zM496 282v328h-11l-174 -328h185z" />
    <glyph glyph-name="Ccedilla" unicode="&#xc7;" horiz-adv-x="685" 
d="M642 527l-139 -29q-5 52 -40 84.5t-86 32.5q-83 0 -129.5 -63.5t-46.5 -195.5q0 -259 161 -259q67 0 103.5 39.5t44.5 86.5l140 -31q-2 -14 -8.5 -34t-26 -50.5t-48 -56t-78.5 -45.5t-113 -23l-31 -46q20 5 39 5q45 0 65.5 -23.5t20.5 -51.5q0 -31 -26.5 -61t-92.5 -30
q-45 0 -120 25l18 43q55 -20 86 -20q21 0 36 11t15 28q0 19 -11.5 30t-31.5 11q-24 0 -44 -9l-22 16l48 72q-131 10 -206.5 106t-75.5 267q0 179 91 276t243 97q108 0 174 -53t91 -149z" />
    <glyph glyph-name="Egrave" unicode="&#xc8;" horiz-adv-x="593" 
d="M299 879l79 -118h-83l-128 118h132zM73 0v712h462v-114h-312v-174h295v-114h-295v-196h322v-114h-472z" />
    <glyph glyph-name="Eacute" unicode="&#xc9;" horiz-adv-x="593" 
d="M223 760l79 118h132l-128 -118h-83zM73 0v712h462v-114h-312v-174h295v-114h-295v-196h322v-114h-472z" />
    <glyph glyph-name="Ecircumflex" unicode="&#xca;" horiz-adv-x="593" 
d="M252 863h95l83 -104h-83l-47 61l-48 -61h-82zM73 0v712h462v-114h-312v-174h295v-114h-295v-196h322v-114h-472z" />
    <glyph glyph-name="Edieresis" unicode="&#xcb;" horiz-adv-x="593" 
d="M73 0v712h462v-114h-312v-174h295v-114h-295v-196h322v-114h-472zM331 876h144v-107h-144v107zM119 876h144v-107h-144v107z" />
    <glyph glyph-name="Igrave" unicode="&#xcc;" horiz-adv-x="296" 
d="M148 879l79 -118h-83l-128 118h132zM73 0v712h150v-712h-150z" />
    <glyph glyph-name="Iacute" unicode="&#xcd;" horiz-adv-x="296" 
d="M59 760l79 118h132l-128 -118h-83zM73 0v712h150v-712h-150z" />
    <glyph glyph-name="Icircumflex" unicode="&#xce;" horiz-adv-x="296" 
d="M73 0v712h150v-712h-150zM82 907h132l114 -146h-114l-66 86l-66 -86h-114z" />
    <glyph glyph-name="Idieresis" unicode="&#xcf;" horiz-adv-x="296" 
d="M73 0v712h150v-712h-150zM182 876h144v-107h-144v107zM-30 876h144v-107h-144v107z" />
    <glyph glyph-name="Eth" unicode="&#xd0;" horiz-adv-x="722" 
d="M73 0v347h-73v65h73v300h282q44 0 86.5 -10.5t86 -36.5t76 -65t53.5 -102.5t21 -143.5q0 -176 -98 -265t-273 -89h-234zM223 347v-233h90q100 0 153.5 68t53.5 175q0 66 -19.5 118.5t-67 87.5t-118.5 35h-92v-186h156v-65h-156z" />
    <glyph glyph-name="Ntilde" unicode="&#xd1;" horiz-adv-x="759" 
d="M73 0v712h193l190 -345q78 -146 92 -211h7q-7 42 -7 196v360h138v-712h-198l-217 407q-42 76 -61 149h-6q7 -114 7 -165v-391h-138zM262 771h-65q14 67 39 94t70 27q26 0 74 -18.5t71 -18.5q35 0 47 42h65q-14 -67 -39 -94t-70 -27q-26 0 -74 18.5t-71 18.5
q-35 0 -47 -42z" />
    <glyph glyph-name="Ograve" unicode="&#xd2;" horiz-adv-x="740" 
d="M387 883l79 -118h-83l-128 118h132zM370 97q83 0 129.5 63.5t46.5 195.5t-46.5 195.5t-129.5 63.5t-129.5 -63.5t-46.5 -195.5t46.5 -195.5t129.5 -63.5zM370 -17q-152 0 -243 97t-91 276t91 276t243 97t243 -97t91 -276t-91 -276t-243 -97z" />
    <glyph glyph-name="Oacute" unicode="&#xd3;" horiz-adv-x="740" 
d="M291 767l79 118h132l-128 -118h-83zM370 97q83 0 129.5 63.5t46.5 195.5t-46.5 195.5t-129.5 63.5t-129.5 -63.5t-46.5 -195.5t46.5 -195.5t129.5 -63.5zM370 -17q-152 0 -243 97t-91 276t91 276t243 97t243 -97t91 -276t-91 -276t-243 -97z" />
    <glyph glyph-name="Ocircumflex" unicode="&#xd4;" horiz-adv-x="740" 
d="M323 862h95l83 -104h-83l-47 61l-48 -61h-82zM370 97q83 0 129.5 63.5t46.5 195.5t-46.5 195.5t-129.5 63.5t-129.5 -63.5t-46.5 -195.5t46.5 -195.5t129.5 -63.5zM370 -17q-152 0 -243 97t-91 276t91 276t243 97t243 -97t91 -276t-91 -276t-243 -97z" />
    <glyph glyph-name="Otilde" unicode="&#xd5;" horiz-adv-x="740" 
d="M269 761h-53q12 55 32 76.5t56 21.5q20 0 60 -15t57 -15q30 0 38 34h53q-12 -55 -32 -76.5t-56 -21.5q-20 0 -60 15t-57 15q-30 0 -38 -34zM370 97q83 0 129.5 63.5t46.5 195.5t-46.5 195.5t-129.5 63.5t-129.5 -63.5t-46.5 -195.5t46.5 -195.5t129.5 -63.5zM370 -17
q-152 0 -243 97t-91 276t91 276t243 97t243 -97t91 -276t-91 -276t-243 -97z" />
    <glyph glyph-name="Odieresis" unicode="&#xd6;" horiz-adv-x="740" 
d="M370 97q83 0 129.5 63.5t46.5 195.5t-46.5 195.5t-129.5 63.5t-129.5 -63.5t-46.5 -195.5t46.5 -195.5t129.5 -63.5zM370 -17q-152 0 -243 97t-91 276t91 276t243 97t243 -97t91 -276t-91 -276t-243 -97zM404 876h144v-107h-144v107zM192 876h144v-107h-144v107z" />
    <glyph glyph-name="multiply" unicode="&#xd7;" horiz-adv-x="600" 
d="M233 253l-166 166l67 67l166 -167l166 167l67 -67l-167 -166l167 -166l-67 -67l-166 167l-166 -167l-67 67z" />
    <glyph glyph-name="Oslash" unicode="&#xd8;" horiz-adv-x="740" 
d="M528 490l-289 -326q44 -67 131 -67q83 0 129.5 63.5t46.5 195.5q0 80 -18 134zM86 -9l-43 38l65 74q-72 93 -72 253q0 179 91 276t243 97q136 0 223 -78l61 69l43 -38l-65 -73q72 -93 72 -253q0 -179 -91 -276t-243 -97q-136 0 -222 78zM213 221l288 326q-45 68 -131 68
q-83 0 -129.5 -63.5t-46.5 -195.5q0 -85 19 -135z" />
    <glyph glyph-name="Ugrave" unicode="&#xd9;" horiz-adv-x="704" 
d="M338 877l79 -118h-83l-128 118h132zM494 712h144v-432q0 -297 -296 -297q-135 0 -205.5 75.5t-70.5 221.5v432h144v-432q0 -183 142 -183t142 183v432z" />
    <glyph glyph-name="Uacute" unicode="&#xda;" horiz-adv-x="704" 
d="M293 758l79 118h132l-128 -118h-83zM494 712h144v-432q0 -297 -296 -297q-135 0 -205.5 75.5t-70.5 221.5v432h144v-432q0 -183 142 -183t142 183v432z" />
    <glyph glyph-name="Ucircumflex" unicode="&#xdb;" horiz-adv-x="704" 
d="M494 712h144v-432q0 -297 -296 -297q-135 0 -205.5 75.5t-70.5 221.5v432h144v-432q0 -183 142 -183t142 183v432zM286 907h132l114 -146h-114l-66 86l-66 -86h-114z" />
    <glyph glyph-name="Udieresis" unicode="&#xdc;" horiz-adv-x="704" 
d="M494 712h144v-432q0 -297 -296 -297q-135 0 -205.5 75.5t-70.5 221.5v432h144v-432q0 -183 142 -183t142 183v432zM386 876h144v-107h-144v107zM174 876h144v-107h-144v107z" />
    <glyph glyph-name="Yacute" unicode="&#xdd;" horiz-adv-x="667" 
d="M280 761l79 118h132l-128 -118h-83zM257 0v275l-256 437h175l125 -229q5 -9 35 -83h3q12 41 37 87l122 225h168l-259 -437v-275h-150z" />
    <glyph glyph-name="Thorn" unicode="&#xde;" horiz-adv-x="611" 
d="M60 0v712h150v-97h133q122 0 181.5 -60.5t59.5 -157.5q0 -115 -70.5 -171t-169.5 -56h-134v-170h-150zM210 505v-225h118q45 0 78.5 32t33.5 86q0 107 -98 107h-132z" />
    <glyph glyph-name="germandbls" unicode="&#xdf;" horiz-adv-x="630" 
d="M76 0v548q0 47 11 86t38 76t80 58t129 21q105 0 157.5 -58.5t52.5 -137.5q0 -68 -35.5 -113.5t-95.5 -56.5v-6q84 -10 129.5 -64t45.5 -142q0 -105 -59.5 -164t-148.5 -59q-70 0 -111 15l22 105q32 -14 54 -14q53 0 79 37.5t26 90.5q0 141 -134 141q-13 0 -25 -3v102
q55 0 87.5 23t32.5 87q0 27 -6.5 49.5t-28.5 42.5t-59 20q-52 0 -74.5 -33.5t-22.5 -82.5v-568h-144z" />
    <glyph glyph-name="agrave" unicode="&#xe0;" horiz-adv-x="574" 
d="M267 773l77 -114h-81l-124 114h128zM382 0l-5 90q-82 -102 -184 -102q-77 0 -121 49.5t-44 131.5q0 108 77 157t209 49h63v46q0 41 -23.5 67t-72.5 26q-25 0 -42 -5.5t-29 -20.5t-18 -27t-17 -38l-126 35q30 73 83 112.5t154 39.5q105 0 167 -52t62 -164v-292
q0 -60 5 -102h-138zM377 168v121h-43q-88 0 -128 -27t-40 -81q0 -39 19.5 -61t54.5 -22q39 0 62.5 13t74.5 57z" />
    <glyph glyph-name="aacute" unicode="&#xe1;" horiz-adv-x="574" 
d="M225 657l77 114h128l-124 -114h-81zM382 0l-5 90q-82 -102 -184 -102q-77 0 -121 49.5t-44 131.5q0 108 77 157t209 49h63v46q0 41 -23.5 67t-72.5 26q-25 0 -42 -5.5t-29 -20.5t-18 -27t-17 -38l-126 35q30 73 83 112.5t154 39.5q105 0 167 -52t62 -164v-292
q0 -60 5 -102h-138zM377 168v121h-43q-88 0 -128 -27t-40 -81q0 -39 19.5 -61t54.5 -22q39 0 62.5 13t74.5 57z" />
    <glyph glyph-name="acircumflex" unicode="&#xe2;" horiz-adv-x="574" 
d="M245 741h92l77 -98h-77l-46 58l-46 -58h-78zM382 0l-5 90q-82 -102 -184 -102q-77 0 -121 49.5t-44 131.5q0 108 77 157t209 49h63v46q0 41 -23.5 67t-72.5 26q-25 0 -42 -5.5t-29 -20.5t-18 -27t-17 -38l-126 35q30 73 83 112.5t154 39.5q105 0 167 -52t62 -164v-292
q0 -60 5 -102h-138zM377 168v121h-43q-88 0 -128 -27t-40 -81q0 -39 19.5 -61t54.5 -22q39 0 62.5 13t74.5 57z" />
    <glyph glyph-name="atilde" unicode="&#xe3;" horiz-adv-x="574" 
d="M214 651h-49q11 50 29.5 70t51.5 20q19 0 54.5 -13.5t52.5 -13.5q28 0 35 31h49q-11 -50 -29.5 -70t-51.5 -20q-19 0 -54.5 13.5t-52.5 13.5q-28 0 -35 -31zM382 0l-5 90q-82 -102 -184 -102q-77 0 -121 49.5t-44 131.5q0 108 77 157t209 49h63v46q0 41 -23.5 67
t-72.5 26q-25 0 -42 -5.5t-29 -20.5t-18 -27t-17 -38l-126 35q30 73 83 112.5t154 39.5q105 0 167 -52t62 -164v-292q0 -60 5 -102h-138zM377 168v121h-43q-88 0 -128 -27t-40 -81q0 -39 19.5 -61t54.5 -22q39 0 62.5 13t74.5 57z" />
    <glyph glyph-name="adieresis" unicode="&#xe4;" horiz-adv-x="574" 
d="M382 0l-5 90q-82 -102 -184 -102q-77 0 -121 49.5t-44 131.5q0 108 77 157t209 49h63v46q0 41 -23.5 67t-72.5 26q-25 0 -42 -5.5t-29 -20.5t-18 -27t-17 -38l-126 35q30 73 83 112.5t154 39.5q105 0 167 -52t62 -164v-292q0 -60 5 -102h-138zM377 168v121h-43
q-88 0 -128 -27t-40 -81q0 -39 19.5 -61t54.5 -22q39 0 62.5 13t74.5 57zM321 777h144v-107h-144v107zM109 777h144v-107h-144v107z" />
    <glyph glyph-name="aring" unicode="&#xe5;" horiz-adv-x="574" 
d="M382 0l-5 90q-82 -102 -184 -102q-77 0 -121 49.5t-44 131.5q0 108 77 157t209 49h63v46q0 41 -23.5 67t-72.5 26q-25 0 -42 -5.5t-29 -20.5t-18 -27t-17 -38l-126 35q30 73 83 112.5t154 39.5q105 0 167 -52t62 -164v-292q0 -60 5 -102h-138zM377 168v121h-43
q-88 0 -128 -27t-40 -81q0 -39 19.5 -61t54.5 -22q39 0 62.5 13t74.5 57zM182 745q0 44 30.5 74.5t74.5 30.5q43 0 74 -31t31 -74q0 -44 -30.5 -74.5t-74.5 -30.5t-74.5 30.5t-30.5 74.5zM232 745q0 -23 16 -39t39 -16t39 16t16 39t-16 39t-39 16t-39 -16t-16 -39z" />
    <glyph glyph-name="ae" unicode="&#xe6;" horiz-adv-x="926" 
d="M385 179v102h-66q-69 0 -108 -27t-39 -73q0 -42 25.5 -60.5t58.5 -18.5q61 0 129 77zM183 420l-128 39q21 62 75.5 106.5t155.5 44.5q126 0 179 -83q38 45 74 64t111 19q80 0 137 -43t82 -108.5t25 -145.5v-46h-371q0 -94 33 -135.5t83 -41.5q79 0 113 91l125 -41
q-68 -152 -232 -152q-63 0 -108.5 17.5t-65 37t-45.5 53.5q-48 -55 -107.5 -81.5t-109.5 -26.5q-88 0 -134.5 54t-46.5 127q0 85 75 144.5t226 59.5h56v34q0 101 -99 101q-42 0 -68.5 -28t-34.5 -60zM523 363h227q0 74 -32 109.5t-80 35.5q-61 0 -88 -40.5t-27 -104.5z" />
    <glyph glyph-name="ccedilla" unicode="&#xe7;" horiz-adv-x="537" 
d="M401 196l130 -33q-9 -26 -17 -44.5t-25.5 -43.5t-38.5 -41t-55.5 -29.5t-76.5 -16.5l-34 -51q20 5 39 5q45 0 65.5 -23.5t20.5 -51.5q0 -31 -26.5 -61t-92.5 -30q-45 0 -120 25l18 43q55 -20 86 -20q21 0 36 11t15 28q0 19 -11.5 30t-31.5 11q-24 0 -44 -9l-22 16l51 77
q-62 6 -107 34.5t-70 73t-36.5 94.5t-11.5 107q0 139 64 226t196 87q54 0 97.5 -19t69 -48t39.5 -57t17 -53l-134 -36q0 46 -24 78.5t-68 32.5q-56 0 -81.5 -49t-25.5 -151q0 -51 4.5 -87.5t16 -67.5t33.5 -47t55 -16q46 0 70.5 33.5t29.5 72.5z" />
    <glyph glyph-name="egrave" unicode="&#xe8;" 
d="M323 771l77 -114h-81l-124 114h128zM416 179l122 -40q-61 -151 -232 -151q-126 0 -200 83.5t-74 229.5q0 140 72.5 224.5t202.5 84.5q121 0 187 -84t66 -209v-54h-384q0 -30 5.5 -57.5t19 -55t39.5 -44t63 -16.5q44 0 73.5 27.5t39.5 61.5zM176 359h240q0 72 -30 111.5
t-84 37.5q-61 2 -91.5 -41t-34.5 -108z" />
    <glyph glyph-name="eacute" unicode="&#xe9;" 
d="M218 656l77 114h128l-124 -114h-81zM416 179l122 -40q-61 -151 -232 -151q-126 0 -200 83.5t-74 229.5q0 140 72.5 224.5t202.5 84.5q121 0 187 -84t66 -209v-54h-384q0 -30 5.5 -57.5t19 -55t39.5 -44t63 -16.5q44 0 73.5 27.5t39.5 61.5zM176 359h240q0 72 -30 111.5
t-84 37.5q-61 2 -91.5 -41t-34.5 -108z" />
    <glyph glyph-name="ecircumflex" unicode="&#xea;" 
d="M255 742h92l77 -98h-77l-46 58l-46 -58h-78zM416 179l122 -40q-61 -151 -232 -151q-126 0 -200 83.5t-74 229.5q0 140 72.5 224.5t202.5 84.5q121 0 187 -84t66 -209v-54h-384q0 -30 5.5 -57.5t19 -55t39.5 -44t63 -16.5q44 0 73.5 27.5t39.5 61.5zM176 359h240
q0 72 -30 111.5t-84 37.5q-61 2 -91.5 -41t-34.5 -108z" />
    <glyph glyph-name="edieresis" unicode="&#xeb;" 
d="M416 179l122 -40q-61 -151 -232 -151q-126 0 -200 83.5t-74 229.5q0 140 72.5 224.5t202.5 84.5q121 0 187 -84t66 -209v-54h-384q0 -30 5.5 -57.5t19 -55t39.5 -44t63 -16.5q44 0 73.5 27.5t39.5 61.5zM176 359h240q0 72 -30 111.5t-84 37.5q-61 2 -91.5 -41t-34.5 -108
zM330 777h144v-107h-144v107zM118 777h144v-107h-144v107z" />
    <glyph glyph-name="igrave" unicode="&#xec;" horiz-adv-x="278" 
d="M147 769l77 -114h-81l-124 114h128zM67 0v598h144v-598h-144z" />
    <glyph glyph-name="iacute" unicode="&#xed;" horiz-adv-x="278" 
d="M54 652l77 114h128l-124 -114h-81zM67 0v598h144v-598h-144z" />
    <glyph glyph-name="icircumflex" unicode="&#xee;" horiz-adv-x="278" 
d="M67 0v598h144v-598h-144zM73 808h132l114 -146h-114l-66 86l-66 -86h-114z" />
    <glyph glyph-name="idieresis" unicode="&#xef;" horiz-adv-x="278" 
d="M67 0v598h144v-598h-144zM173 777h144v-107h-144v107zM-39 777h144v-107h-144v107z" />
    <glyph glyph-name="eth" unicode="&#xf0;" horiz-adv-x="612" 
d="M306 90q124 0 124 209q0 78 -34.5 125t-84.5 47q-64 0 -96.5 -47t-32.5 -125q0 -209 124 -209zM158 581l-39 50l92 46q-41 32 -76 52l101 70q62 -43 90 -65l103 51l39 -50l-90 -45q202 -183 202 -389q0 -146 -74 -229.5t-200 -83.5t-200 83.5t-74 229.5q0 101 66.5 179.5
t171.5 78.5q51 0 90 -27l2 2q-42 50 -99 99z" />
    <glyph glyph-name="ntilde" unicode="&#xf1;" horiz-adv-x="630" 
d="M416 0v403q0 42 -19.5 63.5t-55.5 21.5q-32 0 -57 -16.5t-70 -58.5v-413h-144v598h144v-89q105 101 200 101q146 0 146 -176v-434h-144zM197 672h-65q14 67 39 94t70 27q25 0 74 -18.5t71 -18.5q35 0 47 42h65q-14 -67 -39 -94t-70 -27q-25 0 -74 18.5t-71 18.5
q-35 0 -47 -42z" />
    <glyph glyph-name="ograve" unicode="&#xf2;" horiz-adv-x="612" 
d="M319 769l77 -114h-81l-124 114h128zM182 299q0 -209 124 -209t124 209t-124 209t-124 -209zM32 301q0 138 75 223.5t199 85.5q130 0 202 -84.5t72 -224.5q0 -144 -76 -228.5t-198 -84.5q-126 0 -200 83.5t-74 229.5z" />
    <glyph glyph-name="oacute" unicode="&#xf3;" horiz-adv-x="612" 
d="M225 656l77 114h128l-124 -114h-81zM182 299q0 -209 124 -209t124 209t-124 209t-124 -209zM32 301q0 138 75 223.5t199 85.5q130 0 202 -84.5t72 -224.5q0 -144 -76 -228.5t-198 -84.5q-126 0 -200 83.5t-74 229.5z" />
    <glyph glyph-name="ocircumflex" unicode="&#xf4;" horiz-adv-x="612" 
d="M267 736h92l77 -98h-77l-46 58l-46 -58h-78zM182 299q0 -209 124 -209t124 209t-124 209t-124 -209zM32 301q0 138 75 223.5t199 85.5q130 0 202 -84.5t72 -224.5q0 -144 -76 -228.5t-198 -84.5q-126 0 -200 83.5t-74 229.5z" />
    <glyph glyph-name="otilde" unicode="&#xf5;" horiz-adv-x="612" 
d="M241 645h-49q11 50 29.5 70t51.5 20q19 0 54.5 -13.5t52.5 -13.5q28 0 35 31h49q-11 -50 -29.5 -70t-51.5 -20q-19 0 -54.5 13.5t-52.5 13.5q-28 0 -35 -31zM182 299q0 -209 124 -209t124 209t-124 209t-124 -209zM32 301q0 138 75 223.5t199 85.5q130 0 202 -84.5
t72 -224.5q0 -144 -76 -228.5t-198 -84.5q-126 0 -200 83.5t-74 229.5z" />
    <glyph glyph-name="odieresis" unicode="&#xf6;" horiz-adv-x="612" 
d="M182 299q0 -209 124 -209t124 209t-124 209t-124 -209zM32 301q0 138 75 223.5t199 85.5q130 0 202 -84.5t72 -224.5q0 -144 -76 -228.5t-198 -84.5q-126 0 -200 83.5t-74 229.5zM340 777h144v-107h-144v107zM128 777h144v-107h-144v107z" />
    <glyph glyph-name="divide" unicode="&#xf7;" horiz-adv-x="600" 
d="M552 205h-504v96h504v-96zM220 460q0 33 24 57t57 24q32 0 56 -24.5t24 -56.5q0 -30 -24.5 -55t-54.5 -25q-34 0 -58 24t-24 56zM220 46q0 33 24 56.5t57 23.5q32 0 56 -24t24 -56q0 -30 -24.5 -55.5t-54.5 -25.5q-34 0 -58 24.5t-24 56.5z" />
    <glyph glyph-name="oslash" unicode="&#xf8;" horiz-adv-x="612" 
d="M190 208l211 241q-31 60 -95 59q-124 2 -124 -209q0 -51 8 -91zM422 390l-211 -242q30 -58 95 -58q124 0 124 209q0 48 -8 91zM24 19l65 74q-57 83 -57 208q0 140 72 224.5t202 84.5q109 0 180 -63l61 68l41 -36l-65 -73q57 -79 57 -205q0 -146 -74 -229.5t-200 -83.5
q-110 0 -180 63l-61 -68z" />
    <glyph glyph-name="ugrave" unicode="&#xf9;" horiz-adv-x="611" 
d="M313 767l77 -114h-81l-124 114h128zM547 598v-598h-144v91q-103 -103 -200 -103q-139 0 -139 176v434h144v-403q0 -41 18.5 -63t49.5 -22t56 16.5t71 60.5v411h144z" />
    <glyph glyph-name="uacute" unicode="&#xfa;" horiz-adv-x="611" 
d="M218 652l77 114h128l-124 -114h-81zM547 598v-598h-144v91q-103 -103 -200 -103q-139 0 -139 176v434h144v-403q0 -41 18.5 -63t49.5 -22t56 16.5t71 60.5v411h144z" />
    <glyph glyph-name="ucircumflex" unicode="&#xfb;" horiz-adv-x="611" 
d="M547 598v-598h-144v91q-103 -103 -200 -103q-139 0 -139 176v434h144v-403q0 -41 18.5 -63t49.5 -22t56 16.5t71 60.5v411h144zM240 808h132l114 -146h-114l-66 86l-66 -86h-114z" />
    <glyph glyph-name="udieresis" unicode="&#xfc;" horiz-adv-x="611" 
d="M547 598v-598h-144v91q-103 -103 -200 -103q-139 0 -139 176v434h144v-403q0 -41 18.5 -63t49.5 -22t56 16.5t71 60.5v411h144zM340 777h144v-107h-144v107zM128 777h144v-107h-144v107z" />
    <glyph glyph-name="yacute" unicode="&#xfd;" horiz-adv-x="556" 
d="M187 649l77 114h128l-124 -114h-81zM50 -188l7 111q42 -11 59 -11q18 0 30 4t30 27t36 67l-210 588h155l92 -284q10 -31 32 -147h6q9 81 31 143l92 288h144l-217 -639q-29 -84 -70 -122.5t-114 -38.5q-53 0 -103 14z" />
    <glyph glyph-name="thorn" unicode="&#xfe;" horiz-adv-x="630" 
d="M70 -195v972h144v-249q33 30 51 44t48.5 26t65.5 12q60 0 103.5 -29t65 -77.5t31 -98t9.5 -103.5q0 -314 -208 -314q-90 0 -166 83v-266h-144zM214 433v-268q48 -67 115 -67q57 0 84.5 54.5t27.5 148.5q0 199 -118 199q-57 0 -109 -67z" />
    <glyph glyph-name="ydieresis" unicode="&#xff;" horiz-adv-x="556" 
d="M50 -188l7 111q42 -11 59 -11q18 0 30 4t30 27t36 67l-210 588h155l92 -284q10 -31 32 -147h6q9 81 31 143l92 288h144l-217 -639q-29 -84 -70 -122.5t-114 -38.5q-53 0 -103 14zM312 777h144v-107h-144v107zM100 777h144v-107h-144v107z" />
    <glyph glyph-name="glyph271" unicode="&#x102;" horiz-adv-x="722" 
d="M250 276h220l-79 224q-16 46 -28 98h-5q-7 -45 -26 -98zM2 0l268 712h191l259 -712h-157l-57 166h-294l-59 -166h-151zM439 847h58q-4 -103 -129 -103q-115 -4 -128 103h59q10 -33 22 -42.5t47 -9.5t47 9.5t24 42.5z" />
    <glyph glyph-name="glyph272" unicode="&#x103;" horiz-adv-x="574" 
d="M382 0l-5 90q-82 -102 -184 -102q-77 0 -121 49.5t-44 131.5q0 108 77 157t209 49h63v46q0 41 -23.5 67t-72.5 26q-25 0 -42 -5.5t-29 -20.5t-18 -27t-17 -38l-126 35q30 73 83 112.5t154 39.5q105 0 167 -52t62 -164v-292q0 -60 5 -102h-138zM377 168v121h-43
q-88 0 -128 -27t-40 -81q0 -39 19.5 -61t54.5 -22q39 0 62.5 13t74.5 57zM357 742h58q-4 -103 -129 -103q-61 0 -91.5 25.5t-36.5 77.5h59q10 -33 22 -42.5t47 -9.5t47 9.5t24 42.5z" />
    <glyph glyph-name="Cacute" unicode="&#x106;" horiz-adv-x="711" 
d="M642 527l-139 -29q-5 52 -40 84.5t-86 32.5q-83 0 -129.5 -63.5t-46.5 -195.5q0 -259 161 -259q67 0 103.5 39.5t44.5 86.5l140 -31q-2 -15 -9 -36t-28 -53t-52 -57.5t-85.5 -44t-123.5 -18.5q-143 0 -226 96.5t-83 276.5q0 179 91 276t243 97q108 0 174 -53t91 -149z
M219 917l99 146h164l-159 -146h-104z" />
    <glyph glyph-name="cacute" unicode="&#x107;" horiz-adv-x="441" 
d="M401 196l130 -33q-11 -29 -19 -47t-27 -45.5t-41.5 -43t-60.5 -27.5t-86 -12q-69 0 -120.5 26.5t-80 72t-41.5 98t-13 112.5q0 139 64 226t196 87q54 0 97.5 -19t69 -48t39.5 -57t17 -53l-134 -36q0 46 -24 78.5t-68 32.5q-56 0 -81.5 -49t-25.5 -151q0 -51 4.5 -87.5
t16 -67.5t33.5 -47t55 -16q46 0 70.5 33.5t29.5 72.5zM22 662l99 146h164l-159 -146h-104z" />
    <glyph glyph-name="Ccaron" unicode="&#x10c;" horiz-adv-x="711" 
d="M642 527l-139 -29q-5 52 -40 84.5t-86 32.5q-83 0 -129.5 -63.5t-46.5 -195.5q0 -259 161 -259q67 0 103.5 39.5t44.5 86.5l140 -31q-2 -15 -9 -36t-28 -53t-52 -57.5t-85.5 -44t-123.5 -18.5q-143 0 -226 96.5t-83 276.5q0 179 91 276t243 97q108 0 174 -53t91 -149z
M266 968l82 -102l82 102h65l-113 -139h-67l-114 139h65z" />
    <glyph glyph-name="ccaron" unicode="&#x10d;" horiz-adv-x="441" 
d="M401 196l130 -33q-11 -29 -19 -47t-27 -45.5t-41.5 -43t-60.5 -27.5t-86 -12q-69 0 -120.5 26.5t-80 72t-41.5 98t-13 112.5q0 139 64 226t196 87q54 0 97.5 -19t69 -48t39.5 -57t17 -53l-134 -36q0 46 -24 78.5t-68 32.5q-56 0 -81.5 -49t-25.5 -151q0 -51 4.5 -87.5
t16 -67.5t33.5 -47t55 -16q46 0 70.5 33.5t29.5 72.5zM69 713l82 -102l82 102h65l-113 -139h-67l-114 139h65z" />
    <glyph glyph-name="Dslash" unicode="&#x110;" horiz-adv-x="722" 
d="M-4 414h77v298h282q44 0 86.5 -10.5t86 -36.5t76 -65t53.5 -102.5t21 -143.5q0 -176 -98 -265t-273 -89h-234v338h-77v76zM223 598v-184h83v-76h-83v-224h90q100 0 153.5 68t53.5 175q0 66 -19.5 118.5t-67 87.5t-118.5 35h-92z" />
    <glyph glyph-name="dslash" unicode="&#x111;" horiz-adv-x="630" 
d="M334 738h82v39h144v-39h84v-69h-84v-669h-144v71q-76 -83 -166 -83q-208 0 -208 314q0 55 9 104t30.5 97.5t65 77.5t104.5 29q35 0 65.5 -12t48.5 -26t51 -44v141h-82v69zM416 165v268q-52 67 -109 67q-118 0 -118 -199q0 -94 27.5 -148.5t84.5 -54.5q67 0 115 67z" />
    <glyph glyph-name="Gbreve" unicode="&#x11e;" horiz-adv-x="767" 
d="M649 546l-139 -36q-4 34 -43 69.5t-90 35.5q-83 0 -129.5 -63.5t-46.5 -195.5t46.5 -195.5t129.5 -63.5q56 0 124 29v160h-123v110h267v-336q-40 -28 -114 -52.5t-154 -24.5q-152 0 -243 97t-91 276t91 276t243 97q118 0 179.5 -47t92.5 -136zM224 961h39q17 -81 105 -81
t107 81h37q-14 -126 -149 -126q-60 0 -97.5 33.5t-41.5 92.5z" />
    <glyph glyph-name="gbreve" unicode="&#x11f;" horiz-adv-x="492" 
d="M586 598v-80h-117q46 -46 46 -111q0 -31 -12 -60.5t-38 -57t-74 -44t-113 -16.5q-26 0 -38 4q-15 -15 -15 -34q0 -11 6.5 -16t27.5 -10l180 -49q59 -15 95 -51t36 -96q0 -49 -23.5 -85t-64 -56t-87.5 -29t-101 -9q-124 0 -195.5 42t-71.5 112q0 32 10.5 58t31 44t35 27
t36.5 20q-35 19 -35 63q0 24 17 49.5t41 36.5q-68 31 -94 70t-26 100q0 81 61.5 135.5t157.5 54.5q31 0 108 -12h216zM280 325q48 0 76.5 26t28.5 69q0 47 -31 70.5t-72 23.5q-54 0 -81.5 -25t-27.5 -69t29.5 -69.5t77.5 -25.5zM364 25l-148 38q-63 -41 -63 -94
q0 -40 41.5 -59.5t104.5 -19.5q133 0 133 74q0 25 -17 38.5t-51 22.5zM26 706h39q17 -81 105 -81t107 81h37q-14 -126 -149 -126q-60 0 -97.5 33.5t-41.5 92.5z" />
    <glyph glyph-name="glyph273" unicode="&#x128;" horiz-adv-x="296" 
d="M73 0v712h150v-712h-150zM53 765h-56q13 58 33.5 80.5t59.5 22.5q22 0 62.5 -15.5t60.5 -15.5q32 0 40 36h56q-13 -58 -33.5 -80.5t-59.5 -22.5q-23 0 -63.5 15.5t-59.5 15.5q-32 0 -40 -36z" />
    <glyph glyph-name="glyph274" unicode="&#x129;" horiz-adv-x="278" 
d="M67 0v598h144v-598h-144zM60 656h-49q11 50 29.5 70t51.5 20q19 0 54.5 -13.5t52.5 -13.5q28 0 35 31h49q-11 -50 -29.5 -70t-51.5 -20q-19 0 -54.5 13.5t-52.5 13.5q-28 0 -35 -31z" />
    <glyph glyph-name="Idot" unicode="&#x130;" horiz-adv-x="429" 
d="M73 0v712h150v-712h-150zM226 839h-65v102h65v-102z" />
    <glyph glyph-name="dotlessi" unicode="&#x131;" horiz-adv-x="222" 
d="M138 518v-518h-60v518h60z" />
    <glyph glyph-name="Lslash" unicode="&#x141;" horiz-adv-x="556" 
d="M535 58v-58h-454v360l-81 -40v60l81 40v300h68v-250l81 40v-60l-81 -40v-352h386z" />
    <glyph glyph-name="lslash" unicode="&#x142;" horiz-adv-x="222" 
d="M141 390v-390h-60v340l-71 -40v60l71 40v320h60v-270l71 40v-60z" />
    <glyph glyph-name="OE" unicode="&#x152;" horiz-adv-x="944" 
d="M480 120v480q-30 2 -51 2q-105 0 -167 -65.5t-62 -170.5q0 -71 20.5 -121.5t57 -77t76 -38t86.5 -11.5q14 0 40 2zM865 424v-114h-241v-196h272v-114h-337q-16 0 -70 -2t-80 -2q-164 0 -265.5 93t-101.5 270q0 176 104.5 266.5t262.5 90.5q31 0 95 -2q66 -2 85 -2h293
v-114h-258v-174h241z" />
    <glyph glyph-name="oe" unicode="&#x153;" horiz-adv-x="981" 
d="M182 299q0 -209 124 -209t124 209t-124 209t-124 -209zM804 181l125 -41q-68 -152 -232 -152q-46 0 -80 7.5t-58 25t-34 28t-28 32.5q-22 -29 -40 -46t-57.5 -32t-93.5 -15q-126 0 -200 83.5t-74 229.5q0 140 72 224.5t202 84.5q74 0 118 -23.5t74 -66.5q73 90 207 90
q80 0 137 -43t82 -108.5t25 -145.5v-46h-375q0 -94 33 -135.5t83 -41.5q80 0 114 91zM574 363h231q0 74 -32 109.5t-81 35.5q-118 0 -118 -145z" />
    <glyph glyph-name="Scedilla" unicode="&#x15e;" horiz-adv-x="656" 
d="M553 583l-136 -45q-7 18 -11 26t-15.5 24t-31 23.5t-46.5 7.5q-56 0 -84 -25.5t-28 -59.5q0 -27 12.5 -42.5t48.5 -30.5l156 -65q78 -33 114 -77t36 -113q0 -95 -72.5 -159t-202.5 -64q-59 0 -107 15.5t-78 41t-48 53.5t-24 57l135 51q17 -104 129 -104q54 0 86 25.5
t32 68.5q0 57 -86 90l-95 37q-85 32 -135.5 77.5t-50.5 121.5q0 40 14 76t43 67.5t81 50t121 18.5q96 0 155.5 -32t87.5 -114zM156 0h51l-41 -63q20 5 39 5q45 0 65.5 -23.5t20.5 -51.5q0 -31 -26.5 -61t-92.5 -30q-45 0 -120 25l18 43q55 -20 86 -20q21 0 36 11t15 28
q0 19 -11.5 30t-31.5 11q-24 0 -44 -9l-22 16z" />
    <glyph glyph-name="scedilla" unicode="&#x15f;" horiz-adv-x="383" 
d="M482 471l-120 -37q-4 15 -8.5 25.5t-15.5 25t-31 22t-49 7.5q-33 0 -55.5 -17t-22.5 -50q0 -29 17.5 -43t45.5 -22l115 -38q135 -45 135 -163q0 -193 -255 -193q-54 0 -95.5 15.5t-64.5 41t-35 48.5t-17 47l123 38q13 -45 37.5 -66.5t72.5 -21.5q45 0 67.5 24t22.5 51
q0 30 -17 44t-49 24l-92 29q-149 46 -149 166q0 92 62 137t154 45q95 0 150.5 -39.5t73.5 -99.5zM61 0h51l-41 -63q20 5 39 5q45 0 65.5 -23.5t20.5 -51.5q0 -31 -26.5 -61t-92.5 -30q-45 0 -120 25l18 43q55 -20 86 -20q21 0 36 11t15 28q0 19 -11.5 30t-31.5 11
q-24 0 -44 -9l-22 16z" />
    <glyph glyph-name="Scaron" unicode="&#x160;" horiz-adv-x="611" 
d="M553 583l-136 -45q-7 18 -11 26t-15.5 24t-31 23.5t-46.5 7.5q-56 0 -84 -25.5t-28 -59.5q0 -27 12.5 -42.5t48.5 -30.5l156 -65q78 -33 114 -77t36 -113q0 -95 -72.5 -159t-202.5 -64q-59 0 -107 15.5t-78 41t-48 53.5t-24 57l135 51q17 -104 129 -104q54 0 86 25.5
t32 68.5q0 57 -86 90l-95 37q-85 32 -135.5 77.5t-50.5 121.5q0 40 14 76t43 67.5t81 50t121 18.5q96 0 155.5 -32t87.5 -114zM372 761h-132l-114 146h114l66 -86l66 86h114z" />
    <glyph glyph-name="scaron" unicode="&#x161;" horiz-adv-x="519" 
d="M482 471l-120 -37q-4 15 -8.5 25.5t-15.5 25t-31 22t-49 7.5q-33 0 -55.5 -17t-22.5 -50q0 -29 17.5 -43t45.5 -22l115 -38q135 -45 135 -163q0 -193 -255 -193q-54 0 -95.5 15.5t-64.5 41t-35 48.5t-17 47l123 38q13 -45 37.5 -66.5t72.5 -21.5q45 0 67.5 24t22.5 51
q0 30 -17 44t-49 24l-92 29q-149 46 -149 166q0 92 62 137t154 45q95 0 150.5 -39.5t73.5 -99.5zM326 662h-132l-114 146h114l66 -86l66 86h114z" />
    <glyph glyph-name="ch903" unicode="&#x168;" horiz-adv-x="704" 
d="M494 712h144v-432q0 -297 -296 -297q-135 0 -205.5 75.5t-70.5 221.5v432h144v-432q0 -183 142 -183t142 183v432zM267 754h-56q13 58 33.5 80.5t59.5 22.5q22 0 63 -15.5t60 -15.5q32 0 40 36h56q-13 -58 -33.5 -80.5t-59.5 -22.5q-22 0 -63 15.5t-60 15.5
q-32 0 -40 -36z" />
    <glyph glyph-name="ch904" unicode="&#x169;" horiz-adv-x="611" 
d="M547 598v-598h-144v91q-103 -103 -200 -103q-139 0 -139 176v434h144v-403q0 -41 18.5 -63t49.5 -22t56 16.5t71 60.5v411h144zM231 646h-49q11 50 29.5 70t51.5 20q19 0 54.5 -13.5t52.5 -13.5q28 0 35 31h49q-11 -50 -29.5 -70t-51.5 -20q-19 0 -54.5 13.5t-52.5 13.5
q-28 0 -35 -31z" />
    <glyph glyph-name="Ydieresis" unicode="&#x178;" horiz-adv-x="667" 
d="M257 0v275l-256 437h175l125 -229q5 -9 35 -83h3q12 41 37 87l122 225h168l-259 -437v-275h-150zM368 876h144v-107h-144v107zM156 876h144v-107h-144v107z" />
    <glyph glyph-name="Zcaron" unicode="&#x17d;" horiz-adv-x="574" 
d="M28 0v118l338 480h-328v114h501v-120l-336 -478h342v-114h-517zM353 761h-132l-114 146h114l66 -86l66 86h114z" />
    <glyph glyph-name="zcaron" unicode="&#x17e;" horiz-adv-x="519" 
d="M23 0v96l291 400h-279v102h451v-97l-292 -399h302v-102h-473zM326 662h-132l-114 146h114l66 -86l66 86h114z" />
    <glyph glyph-name="florin" unicode="&#x192;" 
d="M159 61l68 293h-100l6 80h112l31 128q23 93 70.5 130t129.5 37q52 0 104 -28l-57 -84q-21 16 -50 16q-50 0 -65 -66l-33 -133h111l-6 -80h-124l-76 -318q-42 -176 -188 -176q-64 0 -108 28l51 86q22 -12 44 -12q16 0 28.5 6t20 13t14 23.5t9.5 25.5t8 31z" />
    <glyph glyph-name="glyph277" unicode="&#x1a0;" horiz-adv-x="740" 
d="M593 646q111 -109 111 -290q0 -179 -91 -276t-243 -97t-243 97t-91 276t91 276t243 97q111 0 191 -53q60 31 50 67q-5 14 -28 20t-9 36q19 19 15 19q61 -14 80 -48.5t-4 -79.5q-20 -30 -72 -44zM370 97q83 0 129.5 63.5t46.5 195.5t-46.5 195.5t-129.5 63.5t-129.5 -63.5
t-46.5 -195.5t46.5 -195.5t129.5 -63.5z" />
    <glyph glyph-name="glyph278" unicode="&#x1a1;" horiz-adv-x="612" 
d="M504 531h-2q78 -84 78 -230q0 -144 -76 -228.5t-198 -84.5q-126 0 -200 83.5t-74 229.5q0 138 75 223.5t199 85.5q96 0 163 -50q25 18 28 26q8 18 4 31q-5 14 -28 20t-9 36q16 18 15 19q62 -14 80.5 -49t-8.5 -77q-15 -17 -47 -35zM182 299q0 -209 124 -209t124 209
t-124 209t-124 -209z" />
    <glyph glyph-name="glyph279" unicode="&#x1af;" horiz-adv-x="704" 
d="M640 652l1 -1l-3 -371q-5 -297 -296 -297q-135 0 -205.5 75.5t-70.5 221.5v432h144v-432q0 -183 142 -183t142 183v431q13 -2 37.5 -8.5t41.5 -8.5t35 0q45 14 45 41q2 18 -23 26q-23 8 -17 35q13 22 33 21q40 -10 61 -40t7 -72q-16 -36 -74 -53z" />
    <glyph glyph-name="glyph280" unicode="&#x1b0;" horiz-adv-x="611" 
d="M543 546l4 -546h-144v91q-103 -103 -200 -103q-139 0 -139 176v434h144v-403q0 -41 18.5 -63t49.5 -22t56 16.5t71 60.5v411q12 -1 34 -5.5t34 -5.5t39 2q26 12 33 33q-4 25 -15 31q-7 6 -21 11q-13 5 -5 23q11 26 25 22q47 -16 66 -48.5t1 -73.5q-17 -32 -51 -41z" />
    <glyph glyph-name="circumflex" unicode="&#x2c6;" horiz-adv-x="278" 
d="M73 808h132l114 -146h-114l-66 86l-66 -86h-114z" />
    <glyph glyph-name="caron" unicode="&#x2c7;" horiz-adv-x="333" 
d="M89 713l82 -102l82 102h65l-113 -139h-67l-114 139h65z" />
    <glyph glyph-name="breve" unicode="&#x2d8;" horiz-adv-x="333" 
d="M28 706h39q17 -81 105 -81t107 81h37q-14 -126 -149 -126q-60 0 -97.5 33.5t-41.5 92.5z" />
    <glyph glyph-name="dotaccent" unicode="&#x2d9;" horiz-adv-x="333" 
d="M199 584h-65v102h65v-102z" />
    <glyph glyph-name="ring" unicode="&#x2da;" horiz-adv-x="333" 
d="M167 578q-40 0 -71 29q-29 31 -29 70q0 40 30 70t70 30t69.5 -30t29.5 -70q0 -39 -29 -70q-29 -29 -70 -29zM167 611q26 0 46 20t20 46q0 27 -19.5 47t-46.5 20t-47 -20t-20 -47t20 -46.5t47 -19.5z" />
    <glyph glyph-name="ogonek" unicode="&#x2db;" horiz-adv-x="333" 
d="M149 0h50v-2q-80 -41 -80 -87q0 -28 21 -43q19 -14 46 -14q21 0 42 9v-44q-25 -9 -52 -9q-42 0 -70 22q-32 24 -32 65q0 65 75 103z" />
    <glyph glyph-name="tilde" unicode="&#x2dc;" horiz-adv-x="278" 
d="M21 672h-65q14 67 39 94t70 27q25 0 74 -18.5t71 -18.5q35 0 47 42h65q-14 -67 -39 -94t-70 -27q-25 0 -74 18.5t-71 18.5q-35 0 -47 -42z" />
    <glyph glyph-name="hungarumlaut" unicode="&#x2dd;" horiz-adv-x="333" 
d="M297 713l-137 -139h-51l111 139h77zM459 713l-137 -139h-51l111 139h77z" />
    <glyph glyph-name="increment" unicode="&#x394;" horiz-adv-x="1000" 
 />
    <glyph glyph-name="increment" unicode="&#x2206;" horiz-adv-x="1000" 
 />
    <glyph glyph-name="Omega" unicode="&#x3a9;" horiz-adv-x="1000" 
 />
    <glyph glyph-name="Omega" unicode="&#x2126;" horiz-adv-x="1000" 
 />
    <glyph glyph-name="pi" unicode="&#x3c0;" horiz-adv-x="1000" 
 />
    <glyph glyph-name="glyph281" unicode="&#x1ea0;" horiz-adv-x="722" 
d="M250 276h220l-79 224q-16 46 -28 98h-5q-7 -45 -26 -98zM2 0l268 712h191l259 -712h-157l-57 166h-294l-59 -166h-151zM292 -142v106h102v-106h-102z" />
    <glyph glyph-name="glyph282" unicode="&#x1ea1;" horiz-adv-x="574" 
d="M382 0l-5 90q-82 -102 -184 -102q-77 0 -121 49.5t-44 131.5q0 108 77 157t209 49h63v46q0 41 -23.5 67t-72.5 26q-25 0 -42 -5.5t-29 -20.5t-18 -27t-17 -38l-126 35q30 73 83 112.5t154 39.5q105 0 167 -52t62 -164v-292q0 -60 5 -102h-138zM377 168v121h-43
q-88 0 -128 -27t-40 -81q0 -39 19.5 -61t54.5 -22q39 0 62.5 13t74.5 57zM248 -142v106h102v-106h-102z" />
    <glyph glyph-name="glyph283" unicode="&#x1ea2;" horiz-adv-x="722" 
d="M250 276h220l-79 224q-16 46 -28 98h-5q-7 -45 -26 -98zM2 0l268 712h191l259 -712h-157l-57 166h-294l-59 -166h-151zM352 756q13 37 31 52q17 16 19 42q0 31 -44 28q-14 5 -17 21q-5 25 13 29q46 8 79.5 -10.5t37.5 -58.5q0 -36 -50 -66q-22 -22 -24 -30
q-14 -20 -45 -7z" />
    <glyph glyph-name="glyph284" unicode="&#x1ea3;" horiz-adv-x="574" 
d="M382 0l-5 90q-82 -102 -184 -102q-77 0 -121 49.5t-44 131.5q0 108 77 157t209 49h63v46q0 41 -23.5 67t-72.5 26q-25 0 -42 -5.5t-29 -20.5t-18 -27t-17 -38l-126 35q30 73 83 112.5t154 39.5q105 0 167 -52t62 -164v-292q0 -60 5 -102h-138zM377 168v121h-43
q-88 0 -128 -27t-40 -81q0 -39 19.5 -61t54.5 -22q39 0 62.5 13t74.5 57zM280 660q12 35 29 50t18 40q0 29 -42 26q-13 4 -16 20q-5 23 12 28q44 7 76 -10.5t36 -55.5q0 -34 -48 -63q-21 -21 -23 -28q-13 -20 -42 -7z" />
    <glyph glyph-name="glyph285" unicode="&#x1ea4;" horiz-adv-x="722" 
d="M316 849h92l80 -102h-80l-46 59l-46 -59h-80zM463 819l71 106h118l-114 -106h-75zM250 276h220l-79 224q-16 46 -28 98h-5q-7 -45 -26 -98zM2 0l268 712h191l259 -712h-157l-57 166h-294l-59 -166h-151z" />
    <glyph glyph-name="glyph286" unicode="&#x1ea5;" horiz-adv-x="574" 
d="M382 0l-5 90q-82 -102 -184 -102q-77 0 -121 49.5t-44 131.5q0 108 77 157t209 49h63v46q0 41 -23.5 67t-72.5 26q-25 0 -42 -5.5t-29 -20.5t-18 -27t-17 -38l-126 35q30 73 83 112.5t154 39.5q105 0 167 -52t62 -164v-292q0 -60 5 -102h-138zM377 168v121h-43
q-88 0 -128 -27t-40 -81q0 -39 19.5 -61t54.5 -22q39 0 62.5 13t74.5 57zM250 737h88l76 -97h-76l-44 56l-44 -56h-76zM390 709l67 101h113l-109 -101h-71z" />
    <glyph glyph-name="glyph287" unicode="&#x1ea6;" horiz-adv-x="722" 
d="M316 845h92l80 -102h-80l-46 59l-46 -59h-80zM187 922l71 -106h-75l-114 106h118zM250 276h220l-79 224q-16 46 -28 98h-5q-7 -45 -26 -98zM2 0l268 712h191l259 -712h-157l-57 166h-294l-59 -166h-151z" />
    <glyph glyph-name="glyph288" unicode="&#x1ea7;" horiz-adv-x="574" 
d="M382 0l-5 90q-82 -102 -184 -102q-77 0 -121 49.5t-44 131.5q0 108 77 157t209 49h63v46q0 41 -23.5 67t-72.5 26q-25 0 -42 -5.5t-29 -20.5t-18 -27t-17 -38l-126 35q30 73 83 112.5t154 39.5q105 0 167 -52t62 -164v-292q0 -60 5 -102h-138zM377 168v121h-43
q-88 0 -128 -27t-40 -81q0 -39 19.5 -61t54.5 -22q39 0 62.5 13t74.5 57zM239 737h88l76 -97h-76l-44 57l-44 -57h-76zM117 811l67 -101h-71l-109 101h113z" />
    <glyph glyph-name="glyph289" unicode="&#x1ea8;" horiz-adv-x="722" 
d="M318 844h92l80 -102h-80l-46 59l-46 -59h-80zM476 813q11 32 26 46q15 13 17 36q0 25 -38 25q-13 4 -16 18q-4 21 12 25q41 7 70 -9.5t33 -50.5q0 -31 -45 -58q-16 -16 -20 -26q-13 -18 -39 -6zM250 276h220l-79 224q-16 46 -28 98h-5q-7 -45 -26 -98zM2 0l268 712h191
l259 -712h-157l-57 166h-294l-59 -166h-151z" />
    <glyph glyph-name="glyph290" unicode="&#x1ea9;" horiz-adv-x="574" 
d="M382 0l-5 90q-82 -102 -184 -102q-77 0 -121 49.5t-44 131.5q0 108 77 157t209 49h63v46q0 41 -23.5 67t-72.5 26q-25 0 -42 -5.5t-29 -20.5t-18 -27t-17 -38l-126 35q30 73 83 112.5t154 39.5q105 0 167 -52t62 -164v-292q0 -60 5 -102h-138zM377 168v121h-43
q-88 0 -128 -27t-40 -81q0 -39 19.5 -61t54.5 -22q39 0 62.5 13t74.5 57zM246 749h87l76 -97h-76l-44 56l-43 -56h-76zM396 719q10 31 25 44t15 34q0 24 -36 24q-12 5 -15 17q-5 20 12 24q39 6 66.5 -9.5t30.5 -47.5q0 -29 -42 -55q-14 -14 -19 -25q-14 -19 -37 -6z" />
    <glyph glyph-name="glyph291" unicode="&#x1eaa;" horiz-adv-x="722" 
d="M316 842h92l80 -102h-80l-46 59l-46 -59h-80zM285 861h-48q11 50 28.5 69t50.5 19q19 0 54 -13.5t51 -13.5q27 0 34 31h48q-11 -50 -28.5 -69t-50.5 -19q-19 0 -54 13.5t-51 13.5q-27 0 -34 -31zM250 276h220l-79 224q-16 46 -28 98h-5q-7 -45 -26 -98zM2 0l268 712h191
l259 -712h-157l-57 166h-294l-59 -166h-151z" />
    <glyph glyph-name="glyph292" unicode="&#x1eab;" horiz-adv-x="574" 
d="M382 0l-5 90q-82 -102 -184 -102q-77 0 -121 49.5t-44 131.5q0 108 77 157t209 49h63v46q0 41 -23.5 67t-72.5 26q-25 0 -42 -5.5t-29 -20.5t-18 -27t-17 -38l-126 35q30 73 83 112.5t154 39.5q105 0 167 -52t62 -164v-292q0 -60 5 -102h-138zM377 168v121h-43
q-88 0 -128 -27t-40 -81q0 -39 19.5 -61t54.5 -22q39 0 62.5 13t74.5 57zM243 749h87l76 -97h-76l-44 56l-43 -56h-76zM213 767h-45q10 46 27 65t48 19q19 0 51.5 -13t47.5 -13q27 0 33 30h45q-11 -47 -28 -65.5t-47 -18.5q-18 0 -50.5 13t-48.5 13q-27 0 -33 -30z" />
    <glyph glyph-name="glyph293" unicode="&#x1eac;" horiz-adv-x="722" 
d="M316 849h92l80 -102h-80l-46 59l-46 -59h-80zM292 -142v106h102v-106h-102zM250 276h220l-79 224q-16 46 -28 98h-5q-7 -45 -26 -98zM2 0l268 712h191l259 -712h-157l-57 166h-294l-59 -166h-151z" />
    <glyph glyph-name="glyph294" unicode="&#x1ead;" horiz-adv-x="574" 
d="M382 0l-5 90q-82 -102 -184 -102q-77 0 -121 49.5t-44 131.5q0 108 77 157t209 49h63v46q0 41 -23.5 67t-72.5 26q-25 0 -42 -5.5t-29 -20.5t-18 -27t-17 -38l-126 35q30 73 83 112.5t154 39.5q105 0 167 -52t62 -164v-292q0 -60 5 -102h-138zM377 168v121h-43
q-88 0 -128 -27t-40 -81q0 -39 19.5 -61t54.5 -22q39 0 62.5 13t74.5 57zM251 743h88l76 -96h-76l-44 56l-44 -56h-76zM250 -139v100h96v-100h-96z" />
    <glyph glyph-name="glyph295" unicode="&#x1eae;" horiz-adv-x="722" 
d="M250 276h220l-79 224q-16 46 -28 98h-5q-7 -45 -26 -98zM2 0l268 712h191l259 -712h-157l-57 166h-294l-59 -166h-151zM435 842h56q-5 -98 -123 -98q-109 -4 -122 98h56q10 -31 21.5 -40t44.5 -9t45 9.5t22 39.5zM333 852l71 106h118l-114 -106h-75z" />
    <glyph glyph-name="glyph296" unicode="&#x1eaf;" horiz-adv-x="574" 
d="M382 0l-5 90q-82 -102 -184 -102q-77 0 -121 49.5t-44 131.5q0 108 77 157t209 49h63v46q0 41 -23.5 67t-72.5 26q-25 0 -42 -5.5t-29 -20.5t-18 -27t-17 -38l-126 35q30 73 83 112.5t154 39.5q105 0 167 -52t62 -164v-292q0 -60 5 -102h-138zM377 168v121h-43
q-88 0 -128 -27t-40 -81q0 -39 19.5 -61t54.5 -22q39 0 62.5 13t74.5 57zM347 747h54q-5 -93 -117 -93q-105 -4 -116 93h53q10 -29 21 -37.5t42 -8.5t42 8.5t21 37.5zM251 757l67 101h112l-108 -101h-71z" />
    <glyph glyph-name="glyph297" unicode="&#x1eb0;" horiz-adv-x="722" 
d="M250 276h220l-79 224q-16 46 -28 98h-5q-7 -45 -26 -98zM2 0l268 712h191l259 -712h-157l-57 166h-294l-59 -166h-151zM435 846h56q-5 -98 -123 -98q-109 -4 -122 98h56q10 -31 21.5 -40t44.5 -9t45 9.5t22 39.5zM336 962l71 -106h-75l-114 106h118z" />
    <glyph glyph-name="glyph298" unicode="&#x1eb1;" horiz-adv-x="574" 
d="M382 0l-5 90q-82 -102 -184 -102q-77 0 -121 49.5t-44 131.5q0 108 77 157t209 49h63v46q0 41 -23.5 67t-72.5 26q-25 0 -42 -5.5t-29 -20.5t-18 -27t-17 -38l-126 35q30 73 83 112.5t154 39.5q105 0 167 -52t62 -164v-292q0 -60 5 -102h-138zM377 168v121h-43
q-88 0 -128 -27t-40 -81q0 -39 19.5 -61t54.5 -22q39 0 62.5 13t74.5 57zM347 734h53q-5 -93 -117 -93q-103 -4 -116 93h54q10 -29 21 -37.5t41 -8.5q31 0 42.5 8.5t21.5 37.5zM253 845l67 -101h-71l-108 101h112z" />
    <glyph glyph-name="glyph299" unicode="&#x1eb2;" horiz-adv-x="722" 
d="M250 276h220l-79 224q-16 46 -28 98h-5q-7 -45 -26 -98zM2 0l268 712h191l259 -712h-157l-57 166h-294l-59 -166h-151zM435 842h56q-5 -98 -123 -98q-109 -4 -122 98h56q10 -31 21.5 -40t44.5 -9t45 9.5t22 39.5zM352 851q11 32 26 46q15 13 17 36q0 25 -38 25
q-13 4 -16 18q-4 21 12 25q41 7 70 -9.5t33 -50.5q0 -31 -45 -58q-16 -16 -20 -26q-13 -18 -39 -6z" />
    <glyph glyph-name="glyph300" unicode="&#x1eb3;" horiz-adv-x="574" 
d="M382 0l-5 90q-82 -102 -184 -102q-77 0 -121 49.5t-44 131.5q0 108 77 157t209 49h63v46q0 41 -23.5 67t-72.5 26q-25 0 -42 -5.5t-29 -20.5t-18 -27t-17 -38l-126 35q30 73 83 112.5t154 39.5q105 0 167 -52t62 -164v-292q0 -60 5 -102h-138zM377 168v121h-43
q-88 0 -128 -27t-40 -81q0 -39 19.5 -61t54.5 -22q39 0 62.5 13t74.5 57zM349 741h53q-4 -93 -117 -93q-103 -4 -116 93h53q11 -30 21.5 -38.5t41.5 -8.5t42 8.5t22 38.5zM270 749q10 31 25 44t16 34q0 24 -36 24q-13 4 -16 17q-3 20 12 24q39 6 66.5 -9.5t31.5 -47.5
q0 -30 -43 -55q-14 -14 -19 -25q-14 -19 -37 -6z" />
    <glyph glyph-name="glyph301" unicode="&#x1eb4;" horiz-adv-x="722" 
d="M250 276h220l-79 224q-16 46 -28 98h-5q-7 -45 -26 -98zM2 0l268 712h191l259 -712h-157l-57 166h-294l-59 -166h-151zM435 834h56q-5 -98 -123 -98q-110 0 -122 98h56q10 -31 21.5 -40t44.5 -9t45 9.5t22 39.5zM285 857h-48q11 50 28.5 69t50.5 19q19 0 54 -13.5
t51 -13.5q27 0 34 31h48q-11 -50 -28.5 -69t-50.5 -19q-19 0 -54 13.5t-51 13.5q-27 0 -34 -31z" />
    <glyph glyph-name="glyph302" unicode="&#x1eb5;" horiz-adv-x="574" 
d="M382 0l-5 90q-82 -102 -184 -102q-77 0 -121 49.5t-44 131.5q0 108 77 157t209 49h63v46q0 41 -23.5 67t-72.5 26q-25 0 -42 -5.5t-29 -20.5t-18 -27t-17 -38l-126 35q30 73 83 112.5t154 39.5q105 0 167 -52t62 -164v-292q0 -60 5 -102h-138zM377 168v121h-43
q-88 0 -128 -27t-40 -81q0 -39 19.5 -61t54.5 -22q39 0 62.5 13t74.5 57zM347 744h53q-5 -93 -117 -93q-104 0 -116 93h53q10 -29 21 -37.5t42 -8.5t42.5 8.5t21.5 37.5zM204 766h-45q10 46 27 65t48 19q18 0 51 -13t48 -13q27 0 33 30h45q-11 -47 -28 -65.5t-47 -18.5
q-18 0 -51 13t-48 13q-27 0 -33 -30z" />
    <glyph glyph-name="glyph303" unicode="&#x1eb6;" horiz-adv-x="722" 
d="M250 276h220l-79 224q-16 46 -28 98h-5q-7 -45 -26 -98zM2 0l268 712h191l259 -712h-157l-57 166h-294l-59 -166h-151zM435 843h56q-5 -98 -123 -98q-109 -4 -122 98h56q10 -31 21.5 -40t44.5 -9t45 9.5t22 39.5zM292 -142v106h102v-106h-102z" />
    <glyph glyph-name="glyph304" unicode="&#x1eb7;" horiz-adv-x="574" 
d="M382 0l-5 90q-82 -102 -184 -102q-77 0 -121 49.5t-44 131.5q0 108 77 157t209 49h63v46q0 41 -23.5 67t-72.5 26q-25 0 -42 -5.5t-29 -20.5t-18 -27t-17 -38l-126 35q30 73 83 112.5t154 39.5q105 0 167 -52t62 -164v-292q0 -60 5 -102h-138zM377 168v121h-43
q-88 0 -128 -27t-40 -81q0 -39 19.5 -61t54.5 -22q39 0 62.5 13t74.5 57zM351 737h53q-5 -93 -117 -93q-103 -4 -116 93h53q10 -29 21 -37.5t42 -8.5t42.5 8.5t21.5 37.5zM247 -142v100h96v-100h-96z" />
    <glyph glyph-name="glyph305" unicode="&#x1eb8;" horiz-adv-x="593" 
d="M73 0v712h462v-114h-312v-174h295v-114h-295v-196h322v-114h-472zM267 -142v106h102v-106h-102z" />
    <glyph glyph-name="glyph306" unicode="&#x1eb9;" 
d="M416 179l122 -40q-61 -151 -232 -151q-126 0 -200 83.5t-74 229.5q0 140 72.5 224.5t202.5 84.5q121 0 187 -84t66 -209v-54h-384q0 -30 5.5 -57.5t19 -55t39.5 -44t63 -16.5q44 0 73.5 27.5t39.5 61.5zM176 359h240q0 72 -30 111.5t-84 37.5q-61 2 -91.5 -41t-34.5 -108
zM260 -141v100h96v-100h-96z" />
    <glyph glyph-name="glyph307" unicode="&#x1eba;" horiz-adv-x="593" 
d="M73 0v712h462v-114h-312v-174h295v-114h-295v-196h322v-114h-472zM284 751q13 37 31 52q17 16 19 42q0 31 -44 28q-14 5 -17 21q-5 25 13 29q46 8 79.5 -10.5t37.5 -58.5q0 -36 -50 -66q-22 -22 -24 -30q-14 -20 -45 -7z" />
    <glyph glyph-name="glyph308" unicode="&#x1ebb;" 
d="M416 179l122 -40q-61 -151 -232 -151q-126 0 -200 83.5t-74 229.5q0 140 72.5 224.5t202.5 84.5q121 0 187 -84t66 -209v-54h-384q0 -30 5.5 -57.5t19 -55t39.5 -44t63 -16.5q44 0 73.5 27.5t39.5 61.5zM176 359h240q0 72 -30 111.5t-84 37.5q-61 2 -91.5 -41t-34.5 -108
zM288 655q13 37 31 52q17 16 19 42q0 31 -44 28q-14 5 -17 21q-5 25 13 29q46 8 79.5 -10.5t37.5 -58.5q0 -36 -50 -66q-22 -22 -24 -30q-14 -20 -45 -7z" />
    <glyph glyph-name="glyph309" unicode="&#x1ebc;" horiz-adv-x="593" 
d="M73 0v712h462v-114h-312v-174h295v-114h-295v-196h322v-114h-472zM223 750h-56q13 58 33.5 80.5t59.5 22.5q22 0 62.5 -15.5t60.5 -15.5q32 0 40 36h56q-13 -58 -33.5 -80.5t-59.5 -22.5q-23 0 -63.5 15.5t-59.5 15.5q-32 0 -40 -36z" />
    <glyph glyph-name="glyph310" unicode="&#x1ebd;" 
d="M416 179l122 -40q-61 -151 -232 -151q-126 0 -200 83.5t-74 229.5q0 140 72.5 224.5t202.5 84.5q121 0 187 -84t66 -209v-54h-384q0 -30 5.5 -57.5t19 -55t39.5 -44t63 -16.5q44 0 73.5 27.5t39.5 61.5zM176 359h240q0 72 -30 111.5t-84 37.5q-61 2 -91.5 -41t-34.5 -108
zM227 642h-53q12 55 32 76.5t56 21.5q20 0 60 -15t57 -15q30 0 38 34h53q-12 -55 -32 -76.5t-56 -21.5q-20 0 -60 15t-57 15q-30 0 -38 -34z" />
    <glyph glyph-name="glyph311" unicode="&#x1ebe;" horiz-adv-x="593" 
d="M255 836h87l77 -96h-77l-43 56l-44 -56h-76zM385 814l71 106h118l-114 -106h-75zM73 0v712h462v-114h-312v-174h295v-114h-295v-196h322v-114h-472z" />
    <glyph glyph-name="glyph312" unicode="&#x1ebf;" 
d="M416 179l122 -40q-61 -151 -232 -151q-126 0 -200 83.5t-74 229.5q0 140 72.5 224.5t202.5 84.5q121 0 187 -84t66 -209v-54h-384q0 -30 5.5 -57.5t19 -55t39.5 -44t63 -16.5q44 0 73.5 27.5t39.5 61.5zM176 359h240q0 72 -30 111.5t-84 37.5q-61 2 -91.5 -41t-34.5 -108
zM265 725h83l73 -92h-73l-41 54l-42 -54h-72zM389 704l67 100h112l-108 -100h-71z" />
    <glyph glyph-name="glyph313" unicode="&#x1ec0;" horiz-adv-x="593" 
d="M256 843h87l77 -96h-77l-43 56l-44 -56h-76zM134 916l71 -106h-75l-114 106h118zM73 0v712h462v-114h-312v-174h295v-114h-295v-196h322v-114h-472z" />
    <glyph glyph-name="glyph314" unicode="&#x1ec1;" 
d="M416 179l122 -40q-61 -151 -232 -151q-126 0 -200 83.5t-74 229.5q0 140 72.5 224.5t202.5 84.5q121 0 187 -84t66 -209v-54h-384q0 -30 5.5 -57.5t19 -55t39.5 -44t63 -16.5q44 0 73.5 27.5t39.5 61.5zM176 359h240q0 72 -30 111.5t-84 37.5q-61 2 -91.5 -41t-34.5 -108
zM263 733h83l73 -91h-73l-41 53l-42 -53h-72zM147 803l68 -101h-72l-108 101h112z" />
    <glyph glyph-name="glyph315" unicode="&#x1ec2;" horiz-adv-x="593" 
d="M256 840h87l77 -96h-77l-43 56l-44 -56h-76zM388 811q11 32 26 46q15 13 17 36q0 25 -38 25q-13 4 -16 18q-4 21 12 25q41 7 70 -9.5t33 -50.5q0 -31 -45 -58q-16 -16 -20 -26q-13 -18 -39 -6zM73 0v712h462v-114h-312v-174h295v-114h-295v-196h322v-114h-472z" />
    <glyph glyph-name="glyph316" unicode="&#x1ec3;" 
d="M416 179l122 -40q-61 -151 -232 -151q-126 0 -200 83.5t-74 229.5q0 140 72.5 224.5t202.5 84.5q121 0 187 -84t66 -209v-54h-384q0 -30 5.5 -57.5t19 -55t39.5 -44t63 -16.5q44 0 73.5 27.5t39.5 61.5zM176 359h240q0 72 -30 111.5t-84 37.5q-61 2 -91.5 -41t-34.5 -108
zM265 729h83l73 -91h-73l-41 53l-42 -53h-72zM390 701q10 29 25 44q15 13 16 34q0 24 -36 24q-12 5 -15 17q-4 19 11 24q39 6 66.5 -9.5t31.5 -47.5q0 -30 -43 -55q-15 -15 -19 -25q-10 -15 -37 -6z" />
    <glyph glyph-name="glyph317" unicode="&#x1ec4;" horiz-adv-x="593" 
d="M256 840h87l77 -96h-77l-43 56l-44 -56h-76zM230 855h-48q11 50 28.5 69t50.5 19q19 0 54 -13.5t51 -13.5q27 0 34 31h48q-11 -50 -28.5 -69t-50.5 -19q-19 0 -54 13.5t-51 13.5q-27 0 -34 -31zM73 0v712h462v-114h-312v-174h295v-114h-295v-196h322v-114h-472z" />
    <glyph glyph-name="glyph318" unicode="&#x1ec5;" 
d="M416 179l122 -40q-61 -151 -232 -151q-126 0 -200 83.5t-74 229.5q0 140 72.5 224.5t202.5 84.5q121 0 187 -84t66 -209v-54h-384q0 -30 5.5 -57.5t19 -55t39.5 -44t63 -16.5q44 0 73.5 27.5t39.5 61.5zM176 359h240q0 72 -30 111.5t-84 37.5q-61 2 -91.5 -41t-34.5 -108
zM262 730h83l73 -91h-73l-41 53l-42 -53h-72zM237 745h-45q11 47 28 65t47 18q19 0 51 -13t48 -13q27 0 33 30h45q-11 -47 -28 -65.5t-47 -18.5q-18 0 -51.5 13t-48.5 13q-26 0 -32 -29z" />
    <glyph glyph-name="glyph319" unicode="&#x1ec6;" horiz-adv-x="593" 
d="M256 841h87l77 -96h-77l-43 56l-44 -56h-76zM260 -141v106h102v-106h-102zM73 0v712h462v-114h-312v-174h295v-114h-295v-196h322v-114h-472z" />
    <glyph glyph-name="glyph320" unicode="&#x1ec7;" 
d="M416 179l122 -40q-61 -151 -232 -151q-126 0 -200 83.5t-74 229.5q0 140 72.5 224.5t202.5 84.5q121 0 187 -84t66 -209v-54h-384q0 -30 5.5 -57.5t19 -55t39.5 -44t63 -16.5q44 0 73.5 27.5t39.5 61.5zM176 359h240q0 72 -30 111.5t-84 37.5q-61 2 -91.5 -41t-34.5 -108
zM265 734h83l73 -92h-73l-41 54l-42 -54h-72zM257 -145v100h96v-100h-96z" />
    <glyph glyph-name="glyph321" unicode="&#x1ec8;" horiz-adv-x="296" 
d="M73 0v712h150v-712h-150zM125 756q13 37 31 52q17 16 19 42q0 31 -44 28q-14 5 -17 21q-5 25 13 29q46 8 79.5 -10.5t37.5 -58.5q0 -36 -50 -66q-22 -22 -24 -30q-14 -20 -45 -7z" />
    <glyph glyph-name="glyph322" unicode="&#x1ec9;" horiz-adv-x="278" 
d="M67 0v598h144v-598h-144zM118 646q13 37 31 52q17 16 19 42q0 31 -44 28q-14 5 -17 21q-5 25 13 29q46 8 79.5 -10.5t37.5 -58.5q0 -36 -50 -66q-22 -22 -24 -30q-14 -20 -45 -7z" />
    <glyph glyph-name="glyph323" unicode="&#x1eca;" horiz-adv-x="296" 
d="M73 0v712h150v-712h-150zM102 -137v106h102v-106h-102z" />
    <glyph glyph-name="glyph324" unicode="&#x1ecb;" horiz-adv-x="278" 
d="M67 0v598h144v-598h-144zM78 647v91h122v-91h-122zM90 -137v106h102v-106h-102z" />
    <glyph glyph-name="glyph325" unicode="&#x1ecc;" horiz-adv-x="740" 
d="M370 97q83 0 129.5 63.5t46.5 195.5t-46.5 195.5t-129.5 63.5t-129.5 -63.5t-46.5 -195.5t46.5 -195.5t129.5 -63.5zM370 -17q-152 0 -243 97t-91 276t91 276t243 97t243 -97t91 -276t-91 -276t-243 -97zM322 -156v106h102v-106h-102z" />
    <glyph glyph-name="glyph326" unicode="&#x1ecd;" horiz-adv-x="612" 
d="M182 299q0 -209 124 -209t124 209t-124 209t-124 -209zM32 301q0 138 75 223.5t199 85.5q130 0 202 -84.5t72 -224.5q0 -144 -76 -228.5t-198 -84.5q-126 0 -200 83.5t-74 229.5zM260 -155v106h102v-106h-102z" />
    <glyph glyph-name="glyph327" unicode="&#x1ece;" horiz-adv-x="740" 
d="M370 97q83 0 129.5 63.5t46.5 195.5t-46.5 195.5t-129.5 63.5t-129.5 -63.5t-46.5 -195.5t46.5 -195.5t129.5 -63.5zM370 -17q-152 0 -243 97t-91 276t91 276t243 97t243 -97t91 -276t-91 -276t-243 -97zM364 764q13 37 31 52q17 16 19 42q0 31 -44 28q-14 5 -17 21
q-5 25 13 29q46 8 79.5 -10.5t37.5 -58.5q0 -36 -50 -66q-22 -22 -24 -30q-14 -20 -45 -7z" />
    <glyph glyph-name="glyph328" unicode="&#x1ecf;" horiz-adv-x="612" 
d="M182 299q0 -209 124 -209t124 209t-124 209t-124 -209zM32 301q0 138 75 223.5t199 85.5q130 0 202 -84.5t72 -224.5q0 -144 -76 -228.5t-198 -84.5q-126 0 -200 83.5t-74 229.5zM298 646q12 35 29 50t18 40q0 29 -42 26q-13 4 -16 20q-5 23 12 28q44 7 76 -10.5
t36 -55.5q0 -34 -48 -63q-21 -21 -23 -28q-13 -20 -42 -7z" />
    <glyph glyph-name="glyph329" unicode="&#x1ed0;" horiz-adv-x="740" 
d="M329 851h87l77 -96h-77l-43 56l-44 -56h-76zM468 819l71 106h118l-114 -106h-75zM370 97q83 0 129.5 63.5t46.5 195.5t-46.5 195.5t-129.5 63.5t-129.5 -63.5t-46.5 -195.5t46.5 -195.5t129.5 -63.5zM370 -17q-152 0 -243 97t-91 276t91 276t243 97t243 -97t91 -276
t-91 -276t-243 -97z" />
    <glyph glyph-name="glyph330" unicode="&#x1ed1;" horiz-adv-x="612" 
d="M182 299q0 -209 124 -209t124 209t-124 209t-124 -209zM32 301q0 138 75 223.5t199 85.5q130 0 202 -84.5t72 -224.5q0 -144 -76 -228.5t-198 -84.5q-126 0 -200 83.5t-74 229.5zM264 729h83l73 -91h-73l-41 53l-42 -53h-72zM396 699l68 101h112l-108 -101h-72z" />
    <glyph glyph-name="glyph331" unicode="&#x1ed2;" horiz-adv-x="740" 
d="M330 853h87l77 -96h-77l-43 56l-44 -56h-76zM199 918l71 -106h-75l-114 106h118zM370 97q83 0 129.5 63.5t46.5 195.5t-46.5 195.5t-129.5 63.5t-129.5 -63.5t-46.5 -195.5t46.5 -195.5t129.5 -63.5zM370 -17q-152 0 -243 97t-91 276t91 276t243 97t243 -97t91 -276
t-91 -276t-243 -97z" />
    <glyph glyph-name="glyph332" unicode="&#x1ed3;" horiz-adv-x="612" 
d="M182 299q0 -209 124 -209t124 209t-124 209t-124 -209zM32 301q0 138 75 223.5t199 85.5q130 0 202 -84.5t72 -224.5q0 -144 -76 -228.5t-198 -84.5q-126 0 -200 83.5t-74 229.5zM265 728h83l73 -91h-73l-41 53l-42 -53h-72zM140 790l68 -101h-71l-109 101h112z" />
    <glyph glyph-name="glyph333" unicode="&#x1ed4;" horiz-adv-x="740" 
d="M329 852h87l77 -96h-77l-43 56l-44 -56h-76zM463 827q11 32 26 46q15 13 17 36q0 25 -38 25q-13 4 -16 18q-4 21 12 25q41 7 70 -9.5t33 -50.5q0 -31 -45 -58q-16 -16 -20 -26q-13 -18 -39 -6zM370 97q83 0 129.5 63.5t46.5 195.5t-46.5 195.5t-129.5 63.5t-129.5 -63.5
t-46.5 -195.5t46.5 -195.5t129.5 -63.5zM370 -17q-152 0 -243 97t-91 276t91 276t243 97t243 -97t91 -276t-91 -276t-243 -97z" />
    <glyph glyph-name="glyph334" unicode="&#x1ed5;" horiz-adv-x="612" 
d="M182 299q0 -209 124 -209t124 209t-124 209t-124 -209zM32 301q0 138 75 223.5t199 85.5q130 0 202 -84.5t72 -224.5q0 -144 -76 -228.5t-198 -84.5q-126 0 -200 83.5t-74 229.5zM263 738h87l77 -96h-77l-43 56l-44 -56h-76zM397 713q11 32 26 46q15 13 17 36
q0 25 -38 25q-13 4 -16 18q-4 21 12 25q41 7 70 -9.5t33 -50.5q0 -31 -45 -58q-16 -16 -20 -26q-13 -18 -39 -6z" />
    <glyph glyph-name="glyph335" unicode="&#x1ed6;" horiz-adv-x="740" 
d="M329 851h87l77 -96h-77l-43 56l-44 -56h-76zM301 863h-48q11 50 28.5 69t50.5 19q19 0 54 -13.5t51 -13.5q27 0 34 31h48q-11 -50 -28.5 -69t-50.5 -19q-19 0 -54 13.5t-51 13.5q-27 0 -34 -31zM370 97q83 0 129.5 63.5t46.5 195.5t-46.5 195.5t-129.5 63.5t-129.5 -63.5
t-46.5 -195.5t46.5 -195.5t129.5 -63.5zM370 -17q-152 0 -243 97t-91 276t91 276t243 97t243 -97t91 -276t-91 -276t-243 -97z" />
    <glyph glyph-name="glyph336" unicode="&#x1ed7;" horiz-adv-x="612" 
d="M182 299q0 -209 124 -209t124 209t-124 209t-124 -209zM32 301q0 138 75 223.5t199 85.5q130 0 202 -84.5t72 -224.5q0 -144 -76 -228.5t-198 -84.5q-126 0 -200 83.5t-74 229.5zM265 724h82l74 -91h-74l-40 53l-42 -53h-72zM238 736h-45q11 47 28 65t47 18
q18 0 50.5 -12.5t48.5 -12.5q27 0 33 29h45q-11 -47 -28 -65.5t-47 -18.5q-18 0 -51 13t-48 13q-27 0 -33 -29z" />
    <glyph glyph-name="glyph337" unicode="&#x1ed8;" horiz-adv-x="740" 
d="M329 857h87l77 -96h-77l-43 56l-44 -56h-76zM322 -156v106h102v-106h-102zM370 97q83 0 129.5 63.5t46.5 195.5t-46.5 195.5t-129.5 63.5t-129.5 -63.5t-46.5 -195.5t46.5 -195.5t129.5 -63.5zM370 -17q-152 0 -243 97t-91 276t91 276t243 97t243 -97t91 -276t-91 -276
t-243 -97z" />
    <glyph glyph-name="glyph338" unicode="&#x1ed9;" horiz-adv-x="612" 
d="M182 299q0 -209 124 -209t124 209t-124 209t-124 -209zM32 301q0 138 75 223.5t199 85.5q130 0 202 -84.5t72 -224.5q0 -144 -76 -228.5t-198 -84.5q-126 0 -200 83.5t-74 229.5zM266 730h83l73 -92h-73l-41 54l-42 -54h-72zM259 -150v100h96v-100h-96z" />
    <glyph glyph-name="glyph339" unicode="&#x1eda;" horiz-adv-x="740" 
d="M593 646q111 -109 111 -290q0 -179 -91 -276t-243 -97t-243 97t-91 276t91 276t243 97q111 0 191 -53q60 31 50 67q-5 14 -28 20t-9 36q19 19 15 19q61 -14 80 -48.5t-4 -79.5q-20 -30 -72 -44zM370 97q83 0 129.5 63.5t46.5 195.5t-46.5 195.5t-129.5 63.5t-129.5 -63.5
t-46.5 -195.5t46.5 -195.5t129.5 -63.5zM373 769l79 118h132l-128 -118h-83z" />
    <glyph glyph-name="glyph340" unicode="&#x1edb;" horiz-adv-x="612" 
d="M504 531h-2q78 -84 78 -230q0 -144 -76 -228.5t-198 -84.5q-126 0 -200 83.5t-74 229.5q0 138 75 223.5t199 85.5q96 0 163 -50q25 18 28 26q8 18 4 31q-5 14 -28 20t-9 36q16 18 15 19q62 -14 80.5 -49t-8.5 -77q-15 -17 -47 -35zM182 299q0 -209 124 -209t124 209
t-124 209t-124 -209zM278 659l73 108h122l-118 -108h-77z" />
    <glyph glyph-name="glyph341" unicode="&#x1edc;" horiz-adv-x="740" 
d="M593 646q111 -109 111 -290q0 -179 -91 -276t-243 -97t-243 97t-91 276t91 276t243 97q111 0 191 -53q60 31 50 67q-5 14 -28 20t-9 36q19 19 15 19q61 -14 80 -48.5t-4 -79.5q-20 -30 -72 -44zM370 97q83 0 129.5 63.5t46.5 195.5t-46.5 195.5t-129.5 63.5t-129.5 -63.5
t-46.5 -195.5t46.5 -195.5t129.5 -63.5zM404 885l79 -118h-83l-128 118h132z" />
    <glyph glyph-name="glyph342" unicode="&#x1edd;" horiz-adv-x="612" 
d="M504 531h-2q78 -84 78 -230q0 -144 -76 -228.5t-198 -84.5q-126 0 -200 83.5t-74 229.5q0 138 75 223.5t199 85.5q96 0 163 -50q25 18 28 26q8 18 4 31q-5 14 -28 20t-9 36q16 18 15 19q62 -14 80.5 -49t-8.5 -77q-15 -17 -47 -35zM182 299q0 -209 124 -209t124 209
t-124 209t-124 -209zM275 754l75 -112h-79l-122 112h126z" />
    <glyph glyph-name="glyph343" unicode="&#x1ede;" horiz-adv-x="740" 
d="M593 646q111 -109 111 -290q0 -179 -91 -276t-243 -97t-243 97t-91 276t91 276t243 97q111 0 191 -53q60 31 50 67q-5 14 -28 20t-9 36q19 19 15 19q61 -14 80 -48.5t-4 -79.5q-20 -30 -72 -44zM370 97q83 0 129.5 63.5t46.5 195.5t-46.5 195.5t-129.5 63.5t-129.5 -63.5
t-46.5 -195.5t46.5 -195.5t129.5 -63.5zM352 756q13 37 31 52q17 16 19 42q0 31 -44 28q-14 5 -17 21q-5 25 13 29q46 8 79.5 -10.5t37.5 -58.5q0 -36 -50 -66q-22 -22 -24 -30q-14 -20 -45 -7z" />
    <glyph glyph-name="glyph344" unicode="&#x1edf;" horiz-adv-x="612" 
d="M504 531h-2q78 -84 78 -230q0 -144 -76 -228.5t-198 -84.5q-126 0 -200 83.5t-74 229.5q0 138 75 223.5t199 85.5q96 0 163 -50q25 18 28 26q8 18 4 31q-5 14 -28 20t-9 36q16 18 15 19q62 -14 80.5 -49t-8.5 -77q-15 -17 -47 -35zM182 299q0 -209 124 -209t124 209
t-124 209t-124 -209zM301 650q12 35 29 50t18 40q0 29 -42 26q-13 4 -16 20q-5 23 12 28q44 7 76 -10.5t36 -55.5q0 -34 -48 -63q-20 -21 -23 -28q-13 -20 -42 -7z" />
    <glyph glyph-name="glyph345" unicode="&#x1ee0;" horiz-adv-x="740" 
d="M593 646q111 -109 111 -290q0 -179 -91 -276t-243 -97t-243 97t-91 276t91 276t243 97q111 0 191 -53q60 31 50 67q-5 14 -28 20t-9 36q19 19 15 19q61 -14 80 -48.5t-4 -79.5q-20 -30 -72 -44zM370 97q83 0 129.5 63.5t46.5 195.5t-46.5 195.5t-129.5 63.5t-129.5 -63.5
t-46.5 -195.5t46.5 -195.5t129.5 -63.5zM277 766h-56q13 58 33.5 80.5t59.5 22.5q22 0 63 -15.5t60 -15.5q32 0 40 36h56q-13 -58 -33.5 -80.5t-59.5 -22.5q-22 0 -63 15.5t-60 15.5q-32 0 -40 -36z" />
    <glyph glyph-name="glyph346" unicode="&#x1ee1;" horiz-adv-x="612" 
d="M504 531h-2q78 -84 78 -230q0 -144 -76 -228.5t-198 -84.5q-126 0 -200 83.5t-74 229.5q0 138 75 223.5t199 85.5q96 0 163 -50q25 18 28 26q8 18 4 31q-5 14 -28 20t-9 36q16 18 15 19q62 -14 80.5 -49t-8.5 -77q-15 -17 -47 -35zM182 299q0 -209 124 -209t124 209
t-124 209t-124 -209zM212 644h-50q11 52 30 72.5t53 20.5q20 0 57 -14t54 -14q28 0 36 33h50q-11 -52 -30 -72.5t-53 -20.5q-20 0 -57 14t-54 14q-29 0 -36 -33z" />
    <glyph glyph-name="glyph347" unicode="&#x1ee2;" horiz-adv-x="740" 
d="M593 646q111 -109 111 -290q0 -179 -91 -276t-243 -97t-243 97t-91 276t91 276t243 97q111 0 191 -53q60 31 50 67q-5 14 -28 20t-9 36q19 19 15 19q61 -14 80 -48.5t-4 -79.5q-20 -30 -72 -44zM370 97q83 0 129.5 63.5t46.5 195.5t-46.5 195.5t-129.5 63.5t-129.5 -63.5
t-46.5 -195.5t46.5 -195.5t129.5 -63.5zM322 -156v106h102v-106h-102z" />
    <glyph glyph-name="glyph348" unicode="&#x1ee3;" horiz-adv-x="612" 
d="M504 531h-2q78 -84 78 -230q0 -144 -76 -228.5t-198 -84.5q-126 0 -200 83.5t-74 229.5q0 138 75 223.5t199 85.5q96 0 163 -50q25 18 28 26q8 18 4 31q-5 14 -28 20t-9 36q16 18 15 19q62 -14 80.5 -49t-8.5 -77q-15 -17 -47 -35zM182 299q0 -209 124 -209t124 209
t-124 209t-124 -209zM254 -152v100h96v-100h-96z" />
    <glyph glyph-name="glyph349" unicode="&#x1ee4;" horiz-adv-x="704" 
d="M494 712h144v-432q0 -297 -296 -297q-135 0 -205.5 75.5t-70.5 221.5v432h144v-432q0 -183 142 -183t142 183v432zM304 -156v106h102v-106h-102z" />
    <glyph glyph-name="glyph350" unicode="&#x1ee5;" horiz-adv-x="611" 
d="M547 598v-598h-144v91q-103 -103 -200 -103q-139 0 -139 176v434h144v-403q0 -41 18.5 -63t49.5 -22t56 16.5t71 60.5v411h144zM256 -156v106h102v-106h-102z" />
    <glyph glyph-name="glyph351" unicode="&#x1ee6;" horiz-adv-x="704" 
d="M494 712h144v-432q0 -297 -296 -297q-135 0 -205.5 75.5t-70.5 221.5v432h144v-432q0 -183 142 -183t142 183v432zM331 756q13 37 31 52q17 16 19 42q0 31 -44 28q-14 5 -17 21q-5 25 13 29q46 8 79.5 -10.5t37.5 -58.5q0 -36 -50 -66q-22 -22 -24 -30q-14 -20 -45 -7z
" />
    <glyph glyph-name="glyph352" unicode="&#x1ee7;" horiz-adv-x="611" 
d="M547 598v-598h-144v91q-103 -103 -200 -103q-139 0 -139 176v434h144v-403q0 -41 18.5 -63t49.5 -22t56 16.5t71 60.5v411h144zM287 651q13 37 31 52q17 16 19 42q0 31 -44 28q-14 5 -17 21q-5 25 13 29q46 8 79.5 -10.5t37.5 -58.5q0 -36 -50 -66q-22 -22 -24 -30
q-14 -20 -45 -7z" />
    <glyph glyph-name="glyph353" unicode="&#x1ee8;" horiz-adv-x="704" 
d="M640 652l1 -1l-3 -371q-5 -297 -296 -297q-135 0 -205.5 75.5t-70.5 221.5v432h144v-432q0 -183 142 -183t142 183v431q13 -2 37.5 -8.5t41.5 -8.5t35 0q45 14 45 41q2 18 -23 26q-23 8 -17 35q13 22 33 21q40 -10 61 -40t7 -72q-16 -36 -74 -53zM307 749l79 118h132
l-128 -118h-83z" />
    <glyph glyph-name="glyph354" unicode="&#x1ee9;" horiz-adv-x="611" 
d="M543 546l4 -546h-144v91q-103 -103 -200 -103q-139 0 -139 176v434h144v-403q0 -41 18.5 -63t49.5 -22t56 16.5t71 60.5v411q12 -1 34 -5.5t34 -5.5t39 2q26 12 33 33q-4 25 -15 31q-7 6 -21 11q-13 5 -5 23q11 26 25 22q47 -16 66 -48.5t1 -73.5q-17 -32 -51 -41z
M272 636l75 112h126l-122 -112h-79z" />
    <glyph glyph-name="glyph355" unicode="&#x1eea;" horiz-adv-x="704" 
d="M640 652l1 -1l-3 -371q-5 -297 -296 -297q-135 0 -205.5 75.5t-70.5 221.5v432h144v-432q0 -183 142 -183t142 183v431q13 -2 37.5 -8.5t41.5 -8.5t35 0q45 14 45 41q2 18 -23 26q-23 8 -17 35q13 22 33 21q40 -10 61 -40t7 -72q-16 -36 -74 -53zM331 869l79 -118h-83
l-128 118h132z" />
    <glyph glyph-name="glyph356" unicode="&#x1eeb;" horiz-adv-x="611" 
d="M543 546l4 -546h-144v91q-103 -103 -200 -103q-139 0 -139 176v434h144v-403q0 -41 18.5 -63t49.5 -22t56 16.5t71 60.5v411q12 -1 34 -5.5t34 -5.5t39 2q26 12 33 33q-4 25 -15 31q-7 6 -21 11q-13 5 -5 23q11 26 25 22q47 -16 66 -48.5t1 -73.5q-17 -32 -51 -41z
M289 761l79 -118h-83l-128 118h132z" />
    <glyph glyph-name="glyph357" unicode="&#x1eec;" horiz-adv-x="704" 
d="M640 652l1 -1l-3 -371q-5 -297 -296 -297q-135 0 -205.5 75.5t-70.5 221.5v432h144v-432q0 -183 142 -183t142 183v431q13 -2 37.5 -8.5t41.5 -8.5t35 0q45 14 45 41q2 18 -23 26q-23 8 -17 35q13 22 33 21q40 -10 61 -40t7 -72q-16 -36 -74 -53zM346 747q13 37 31 52
q17 16 19 42q0 31 -44 28q-14 5 -17 21q-5 25 13 29q46 8 79.5 -10.5t37.5 -58.5q0 -36 -50 -66q-22 -22 -24 -30q-14 -20 -45 -7z" />
    <glyph glyph-name="glyph358" unicode="&#x1eed;" horiz-adv-x="611" 
d="M543 546l4 -546h-144v91q-103 -103 -200 -103q-139 0 -139 176v434h144v-403q0 -41 18.5 -63t49.5 -22t56 16.5t71 60.5v411q12 -1 34 -5.5t34 -5.5t39 2q26 12 33 33q-4 25 -15 31q-7 6 -21 11q-13 5 -5 23q11 26 25 22q47 -16 66 -48.5t1 -73.5q-17 -32 -51 -41z
M282 643q13 37 31 52q17 16 19 42q0 31 -44 28q-14 5 -17 21q-5 25 13 29q46 8 79.5 -10.5t37.5 -58.5q0 -36 -50 -66q-22 -22 -24 -30q-14 -20 -45 -7z" />
    <glyph glyph-name="glyph359" unicode="&#x1eee;" horiz-adv-x="704" 
d="M640 652l1 -1l-3 -371q-5 -297 -296 -297q-135 0 -205.5 75.5t-70.5 221.5v432h144v-432q0 -183 142 -183t142 183v431q13 -2 37.5 -8.5t41.5 -8.5t35 0q45 14 45 41q2 18 -23 26q-23 8 -17 35q13 22 33 21q40 -10 61 -40t7 -72q-16 -36 -74 -53zM271 754h-56
q13 58 33.5 80.5t59.5 22.5q22 0 63 -15.5t60 -15.5q32 0 40 36h56q-13 -58 -33.5 -80.5t-59.5 -22.5q-22 0 -63 15.5t-60 15.5q-32 0 -40 -36z" />
    <glyph glyph-name="glyph360" unicode="&#x1eef;" horiz-adv-x="611" 
d="M543 546l4 -546h-144v91q-103 -103 -200 -103q-139 0 -139 176v434h144v-403q0 -41 18.5 -63t49.5 -22t56 16.5t71 60.5v411q12 -1 34 -5.5t34 -5.5t39 2q26 12 33 33q-4 25 -15 31q-7 6 -21 11q-13 5 -5 23q11 26 25 22q47 -16 66 -48.5t1 -73.5q-17 -32 -51 -41z
M233 642h-50q11 52 30 72.5t53 20.5q20 0 57 -14t54 -14q28 0 36 33h50q-11 -52 -30 -72.5t-53 -20.5q-20 0 -57 14t-54 14q-29 0 -36 -33z" />
    <glyph glyph-name="glyph361" unicode="&#x1ef0;" horiz-adv-x="704" 
d="M640 652l1 -1l-3 -371q-5 -297 -296 -297q-135 0 -205.5 75.5t-70.5 221.5v432h144v-432q0 -183 142 -183t142 183v431q13 -2 37.5 -8.5t41.5 -8.5t35 0q45 14 45 41q2 18 -23 26q-23 8 -17 35q13 22 33 21q40 -10 61 -40t7 -72q-16 -36 -74 -53zM293 -156v106h102v-106
h-102z" />
    <glyph glyph-name="glyph362" unicode="&#x1ef1;" horiz-adv-x="611" 
d="M543 546l4 -546h-144v91q-103 -103 -200 -103q-139 0 -139 176v434h144v-403q0 -41 18.5 -63t49.5 -22t56 16.5t71 60.5v411q12 -1 34 -5.5t34 -5.5t39 2q26 12 33 33q-4 25 -15 31q-7 6 -21 11q-13 5 -5 23q11 26 25 22q47 -16 66 -48.5t1 -73.5q-17 -32 -51 -41z
M266 -153v100h96v-100h-96z" />
    <glyph glyph-name="glyph363" unicode="&#x1ef2;" horiz-adv-x="667" 
d="M257 0v275l-256 437h175l125 -229q5 -9 35 -83h3q12 41 37 87l122 225h168l-259 -437v-275h-150zM290 869l79 -118h-83l-128 118h132z" />
    <glyph glyph-name="glyph364" unicode="&#x1ef3;" horiz-adv-x="556" 
d="M50 -188l7 111q42 -11 59 -11q18 0 30 4t30 27t36 67l-210 588h155l92 -284q10 -31 32 -147h6q9 81 31 143l92 288h144l-217 -639q-29 -84 -70 -122.5t-114 -38.5q-53 0 -103 14zM240 756l79 -118h-83l-128 118h132z" />
    <glyph glyph-name="glyph365" unicode="&#x1ef4;" horiz-adv-x="667" 
d="M257 0v275l-256 437h175l125 -229q5 -9 35 -83h3q12 41 37 87l122 225h168l-259 -437v-275h-150zM284 -153v106h102v-106h-102z" />
    <glyph glyph-name="glyph366" unicode="&#x1ef5;" horiz-adv-x="556" 
d="M50 -188l7 111q42 -11 59 -11q18 0 30 4t30 27t36 67l-210 588h155l92 -284q10 -31 32 -147h6q9 81 31 143l92 288h144l-217 -639q-29 -84 -70 -122.5t-114 -38.5q-53 0 -103 14zM249 -304v96h92v-96h-92z" />
    <glyph glyph-name="glyph367" unicode="&#x1ef6;" horiz-adv-x="667" 
d="M257 0v275l-256 437h175l125 -229q5 -9 35 -83h3q12 41 37 87l122 225h168l-259 -437v-275h-150zM308 751q13 37 31 52q17 16 19 42q0 31 -44 28q-14 5 -17 21q-5 25 13 29q46 8 79.5 -10.5t37.5 -58.5q0 -36 -50 -66q-22 -22 -24 -30q-14 -20 -45 -7z" />
    <glyph glyph-name="glyph368" unicode="&#x1ef7;" horiz-adv-x="556" 
d="M50 -188l7 111q42 -11 59 -11q18 0 30 4t30 27t36 67l-210 588h155l92 -284q10 -31 32 -147h6q9 81 31 143l92 288h144l-217 -639q-29 -84 -70 -122.5t-114 -38.5q-53 0 -103 14zM261 635q12 35 29 50t18 40q0 29 -42 26q-13 4 -16 20q-5 23 12 28q44 7 76 -10.5
t36 -55.5q0 -35 -48 -63q-20 -21 -23 -28q-13 -20 -42 -7z" />
    <glyph glyph-name="glyph369" unicode="&#x1ef8;" horiz-adv-x="667" 
d="M257 0v275l-256 437h175l125 -229q5 -9 35 -83h3q12 41 37 87l122 225h168l-259 -437v-275h-150zM245 753h-56q13 58 33.5 80.5t59.5 22.5q22 0 63 -15.5t60 -15.5q32 0 40 36h56q-13 -58 -33.5 -80.5t-59.5 -22.5q-22 0 -63 15.5t-60 15.5q-32 0 -40 -36z" />
    <glyph glyph-name="glyph370" unicode="&#x1ef9;" horiz-adv-x="556" 
d="M50 -188l7 111q42 -11 59 -11q18 0 30 4t30 27t36 67l-210 588h155l92 -284q10 -31 32 -147h6q9 81 31 143l92 288h144l-217 -639q-29 -84 -70 -122.5t-114 -38.5q-53 0 -103 14zM211 644h-50q11 52 30 72.5t53 20.5q20 0 57 -14t54 -14q28 0 36 33h50q-11 -52 -30 -72.5
t-53 -20.5q-20 0 -57 14t-54 14q-29 0 -36 -33z" />
    <glyph glyph-name="endash" unicode="&#x2013;" horiz-adv-x="500" 
d="M0 348h500v-96h-500v96z" />
    <glyph glyph-name="emdash" unicode="&#x2014;" horiz-adv-x="1000" 
d="M0 348h1000v-96h-1000v96z" />
    <glyph glyph-name="quoteleft" unicode="&#x2018;" horiz-adv-x="296" 
d="M188 524h-130l90 253h108z" />
    <glyph glyph-name="quoteright" unicode="&#x2019;" horiz-adv-x="296" 
d="M108 777h130l-90 -253h-108z" />
    <glyph glyph-name="quotesinglbase" unicode="&#x201a;" horiz-adv-x="296" 
d="M95 132h130l-90 -253h-108z" />
    <glyph glyph-name="quotedblleft" unicode="&#x201c;" horiz-adv-x="500" 
d="M188 524h-130l90 253h108zM405 524h-130l90 253h108z" />
    <glyph glyph-name="quotedblright" unicode="&#x201d;" horiz-adv-x="500" 
d="M312 777h130l-90 -253h-108zM95 777h130l-90 -253h-108z" />
    <glyph glyph-name="quotedblbase" unicode="&#x201e;" horiz-adv-x="500" 
d="M312 132h130l-90 -253h-108zM95 132h130l-90 -253h-108z" />
    <glyph glyph-name="dagger" unicode="&#x2020;" 
d="M227 -127v533h-184v114h184v192h138v-192h184v-114h-184v-533h-138z" />
    <glyph glyph-name="daggerdbl" unicode="&#x2021;" 
d="M227 -127v176h-170v110h170v267h-170v110h170v176h138v-176h170v-110h-170v-267h170v-110h-170v-176h-138z" />
    <glyph glyph-name="bullet" unicode="&#x2022;" horiz-adv-x="500" 
d="M425 356q0 -73 -51 -124t-124 -51t-124 50.5t-51 124.5q0 73 50.5 124t124.5 51q73 0 124 -51t51 -124z" />
    <glyph glyph-name="ellipsis" unicode="&#x2026;" horiz-adv-x="1000" 
d="M103 0v132h128v-132h-128zM436 0v132h128v-132h-128zM769 0v132h128v-132h-128z" />
    <glyph glyph-name="perthousand" unicode="&#x2030;" horiz-adv-x="1093" 
d="M182 416q69 0 69 124t-69 124t-69 -124t69 -124zM182 351q-86 0 -123.5 53.5t-37.5 135.5t37.5 135.5t123.5 53.5t123.5 -53.5t37.5 -135.5t-37.5 -135.5t-123.5 -53.5zM549 -17q-86 0 -123.5 53.5t-37.5 135.5t37.5 135.5t123.5 53.5t123.5 -53.5t37.5 -135.5
t-37.5 -135.5t-123.5 -53.5zM549 48q69 0 69 124t-69 124t-69 -124t69 -124zM911 -17q-86 0 -123.5 53.5t-37.5 135.5t37.5 135.5t123.5 53.5t123.5 -53.5t37.5 -135.5t-37.5 -135.5t-123.5 -53.5zM911 48q69 0 69 124t-69 124t-69 -124t69 -124zM136 -25l387 762h73
l-387 -762h-73z" />
    <glyph glyph-name="guilsinglleft" unicode="&#x2039;" horiz-adv-x="315" 
d="M24 300l176 241l79 -53l-125 -188l125 -188l-79 -53z" />
    <glyph glyph-name="guilsinglright" unicode="&#x203a;" horiz-adv-x="315" 
d="M291 300l-176 -241l-79 52l125 189l-125 187l79 52z" />
    <glyph glyph-name="fraction" unicode="&#x2044;" horiz-adv-x="167" 
d="M331 705l-444 -719h-51l444 719h51z" />
    <glyph glyph-name="franc" unicode="&#x20a3;" horiz-adv-x="1035" 
d="M73 0v712h464v-114h-314v-193h301v-114h-301v-291h-150zM722 0v598h144v-94h2q82 106 169 106q9 0 27 -2v-132q-25 4 -51 4q-33 0 -63.5 -15t-46 -29t-37.5 -38v-398h-144z" />
    <glyph glyph-name="u20AB" unicode="&#x20ab;" horiz-adv-x="393" 
d="M197 501q-48 0 -84 -88q-20 -51 -20 -90q0 -51 39 -51q41 0 74 71q28 59 28 107q0 51 -37 51zM200 267q-53 -62 -106 -62q-44 0 -67.5 28t-23.5 74q0 79 55 152q60 79 136 79q34 0 61 -24l20 75h-100l10 36h100l2 16q0 31 -48 32l7 33q60 1 128 14q12 3 15 3q6 0 6 -9
q-1 -3 -3 -12l-19 -77h65l-10 -36h-65l-69 -280q-5 -25 -5 -27q0 -15 12 -15q6 0 49 42l20 -18q-71 -86 -117 -86q-42 0 -53 62zM9 104v56h221v-56h-221z" />
    <glyph glyph-name="Euro" unicode="&#x20ac;" 
d="M178 359q0 -62 4.5 -106.5t17 -83.5t36.5 -59t60 -20t60 20t36.5 59t17 83.5t4.5 106.5q0 58 -3.5 98.5t-15 83t-36.5 64.5t-63 22t-63 -22t-36.5 -64.5t-15 -83t-3.5 -98.5zM34 359q0 370 262 370t262 -370q0 -76 -12.5 -139t-41 -117t-81.5 -84.5t-127 -30.5t-127 30.5
t-81.5 84.5t-41 117t-12.5 139zM548 312v96h-504v-96h504zM548 194v-96h-504v96h504z" />
    <glyph glyph-name="trademark" unicode="&#x2122;" horiz-adv-x="1000" 
d="M827 300v302h-2l-111 -302h-69l-111 302h-2v-302h-92v412h138l102 -271l101 271h138v-412h-92zM172 300v337h-120v75h336v-75h-120v-337h-96z" />
    <glyph glyph-name="partialdiff" unicode="&#x2202;" horiz-adv-x="1000" 
 />
    <glyph glyph-name="product" unicode="&#x220f;" horiz-adv-x="1000" 
 />
    <glyph glyph-name="summation" unicode="&#x2211;" horiz-adv-x="1000" 
 />
    <glyph glyph-name="minus" unicode="&#x2212;" horiz-adv-x="660" 
d="M580 220h-500v60h500v-60z" />
    <glyph glyph-name="radical" unicode="&#x221a;" horiz-adv-x="1000" 
 />
    <glyph glyph-name="infinity" unicode="&#x221e;" horiz-adv-x="1000" 
 />
    <glyph glyph-name="integral" unicode="&#x222b;" horiz-adv-x="1000" 
 />
    <glyph glyph-name="approxequal" unicode="&#x2248;" horiz-adv-x="1000" 
 />
    <glyph glyph-name="approxequal" unicode="&#x22f2;" horiz-adv-x="1000" 
 />
    <glyph glyph-name="notequal" unicode="&#x2260;" horiz-adv-x="1000" 
 />
    <glyph glyph-name="lessequal" unicode="&#x2264;" horiz-adv-x="1000" 
 />
    <glyph glyph-name="greaterequal" unicode="&#x2265;" horiz-adv-x="1000" 
 />
    <glyph glyph-name="SF370000" unicode="&#x255f;" horiz-adv-x="718" 
d="M250 276h220l-79 224q-16 46 -28 98h-5q-7 -45 -26 -98zM2 0l268 712h191l259 -712h-157l-57 166h-294l-59 -166h-151z" />
    <glyph glyph-name="SF420000" unicode="&#x2560;" horiz-adv-x="681" 
d="M73 0v712h462v-114h-312v-174h295v-114h-295v-196h322v-114h-472z" />
    <glyph glyph-name="SF190000" unicode="&#x2561;" horiz-adv-x="429" 
d="M73 0v712h150v-712h-150z" />
    <glyph glyph-name="SF200000" unicode="&#x2562;" horiz-adv-x="773" 
d="M370 97q83 0 129.5 63.5t46.5 195.5t-46.5 195.5t-129.5 63.5t-129.5 -63.5t-46.5 -195.5t46.5 -195.5t129.5 -63.5zM370 -17q-152 0 -243 97t-91 276t91 276t243 97t243 -97t91 -276t-91 -276t-243 -97z" />
    <glyph glyph-name="SF230000" unicode="&#x2563;" horiz-adv-x="811" 
d="M494 712h144v-432q0 -297 -296 -297q-135 0 -205.5 75.5t-70.5 221.5v432h144v-432q0 -183 142 -183t142 183v432z" />
    <glyph glyph-name="SF470000" unicode="&#x2564;" horiz-adv-x="699" 
d="M257 0v275l-256 437h175l125 -229q5 -9 35 -83h3q12 41 37 87l122 225h168l-259 -437v-275h-150z" />
    <glyph glyph-name="SF480000" unicode="&#x2565;" horiz-adv-x="541" 
d="M382 0l-5 90q-82 -102 -184 -102q-77 0 -121 49.5t-44 131.5q0 108 77 157t209 49h63v46q0 41 -23.5 67t-72.5 26q-25 0 -42 -5.5t-29 -20.5t-18 -27t-17 -38l-126 35q30 73 83 112.5t154 39.5q105 0 167 -52t62 -164v-292q0 -60 5 -102h-138zM377 168v121h-43
q-88 0 -128 -27t-40 -81q0 -39 19.5 -61t54.5 -22q39 0 62.5 13t74.5 57z" />
    <glyph glyph-name="SF410000" unicode="&#x2566;" horiz-adv-x="431" 
d="M416 179l122 -40q-61 -151 -232 -151q-126 0 -200 83.5t-74 229.5q0 140 72.5 224.5t202.5 84.5q121 0 187 -84t66 -209v-54h-384q0 -30 5.5 -57.5t19 -55t39.5 -44t63 -16.5q44 0 73.5 27.5t39.5 61.5zM176 359h240q0 72 -30 111.5t-84 37.5q-61 2 -91.5 -41t-34.5 -108
z" />
    <glyph glyph-name="SF450000" unicode="&#x2567;" horiz-adv-x="314" 
d="M67 0v598h144v-598h-144zM67 670v107h144v-107h-144z" />
    <glyph glyph-name="SF460000" unicode="&#x2568;" horiz-adv-x="314" 
d="M138 518v-518h-60v518h60z" />
    <glyph glyph-name="SF400000" unicode="&#x2569;" horiz-adv-x="498" 
d="M182 299q0 -209 124 -209t124 209t-124 209t-124 -209zM32 301q0 138 75 223.5t199 85.5q130 0 202 -84.5t72 -224.5q0 -144 -76 -228.5t-198 -84.5q-126 0 -200 83.5t-74 229.5z" />
    <glyph glyph-name="SF540000" unicode="&#x256a;" horiz-adv-x="557" 
d="M547 598v-598h-144v91q-103 -103 -200 -103q-139 0 -139 176v434h144v-403q0 -41 18.5 -63t49.5 -22t56 16.5t71 60.5v411h144z" />
    <glyph glyph-name="SF530000" unicode="&#x256b;" horiz-adv-x="497" 
d="M50 -188l7 111q42 -11 59 -11q18 0 30 4t30 27t36 67l-210 588h155l92 -284q10 -31 32 -147h6q9 81 31 143l92 288h144l-217 -639q-29 -84 -70 -122.5t-114 -38.5q-53 0 -103 14z" />
    <glyph glyph-name="lozenge" unicode="&#x25ca;" horiz-adv-x="1000" 
 />
    <glyph glyph-name="circle" unicode="&#x25cb;" horiz-adv-x="718" 
d="M301 1040h132l114 -146h-114l-66 86l-66 -86h-114zM244 1082l99 146h164l-159 -146h-104z" />
    <glyph glyph-name="H18533" unicode="&#x25cf;" horiz-adv-x="718" 
d="M301 1040h132l114 -146h-114l-66 86l-66 -86h-114zM448 1229l99 -146h-104l-159 146h164z" />
    <glyph glyph-name="invbullet" unicode="&#x25d8;" horiz-adv-x="718" 
d="M301 1040h132l114 -146h-114l-66 86l-66 -86h-114zM647 903h-33q10 32 11 64q2 12 8 13q4 0 8 1q67 10 67 54q0 35 -28 35q-4 0 -15 -1t-13 -1q-21 0 -21 18q0 28 32 28q47 0 76.5 -26.5t25.5 -69.5q-6 -58 -87 -81q-25 -7 -31 -34z" />
    <glyph glyph-name="invcircle" unicode="&#x25d9;" horiz-adv-x="718" 
d="M301 1040h132l114 -146h-114l-66 86l-66 -86h-114zM296 1092h-65q14 67 39 94t70 27q26 0 74.5 -18.5t70.5 -18.5q35 0 47 42h65q-14 -67 -39 -94t-70 -27q-25 0 -73.5 18.5t-71.5 18.5q-35 0 -47 -42z" />
    <glyph glyph-name="apple" unicode="&#xf000;" horiz-adv-x="1000" 
 />
    <glyph glyph-name="fi" unicode="&#xf001;" horiz-adv-x="500" 
d="M92 0v468h-79v50h79v82q0 134 110 134q31 0 50 -4v-55q-22 5 -36 5q-42 0 -55 -31q-9 -19 -9 -67v-64h98v-50h-98v-468h-60zM432 518v-518h-60v518h60zM369 720h66v-89h-66v89z" />
    <glyph glyph-name="fl" unicode="&#xf002;" horiz-adv-x="500" 
d="M92 0v468h-79v50h79v82q0 134 110 134q31 0 50 -4v-55q-22 5 -36 5q-42 0 -55 -31q-9 -19 -9 -67v-64h98v-50h-98v-468h-60zM432 720v-720h-60v720h60z" />
    <glyph glyph-name="NULL" horiz-adv-x="296" 
 />
    <glyph glyph-name="CR.001" horiz-adv-x="278" 
d="M67 0v598h144v-598h-144z" />
    <glyph glyph-name="percent.001" horiz-adv-x="833" 
 />
    <glyph glyph-name="middot" horiz-adv-x="519" 
d="M73 0v248l-67 -44v75l67 44v389h150v-291l186 122v-77l-186 -121v-227h283v-118h-433z" />
    <glyph glyph-name="HT" horiz-adv-x="278" 
d="M67 0v316l-65 -48v74l65 48v387h144v-282l65 48v-74l-65 -48v-421h-144z" />
    <glyph glyph-name="LF" horiz-adv-x="278" 
d="M205 662h-132l-114 146h114l66 -86l66 86h114z" />
    <glyph glyph-name="CR" horiz-adv-x="278" 
d="M243 808h65q-19 -146 -169 -146t-169 146h65q14 -40 37 -56t67 -16t67 16t37 56z" />
    <glyph glyph-name="DLE" horiz-adv-x="278" 
d="M67 777h144v-107h-144v107z" />
    <glyph glyph-name="DC1" horiz-adv-x="278" 
d="M34 768q0 44 30.5 74.5t74.5 30.5q43 0 74 -30.5t31 -74.5t-30.5 -74.5t-74.5 -30.5t-74.5 30.5t-30.5 74.5zM84 768q0 -23 16 -39t39 -16t39 16t16 39t-16 39t-39 16t-39 -16t-16 -39z" />
    <glyph glyph-name="DC2" horiz-adv-x="278" 
d="M293 -129v-66q-62 -29 -113 -29q-45 0 -79 24t-34 67q0 39 25 69.5t82 69.5h77q-82 -56 -82 -105q0 -21 14.5 -34.5t42.5 -13.5q33 0 67 18z" />
    <glyph glyph-name="DC3" horiz-adv-x="278" 
d="M-69 662l99 146h164l-159 -146h-104zM153 662l99 146h164l-159 -146h-104z" />
    <glyph glyph-name="DC4" horiz-adv-x="168" 
d="M-149 -25l387 762h79l-387 -762h-79z" />
    <glyph glyph-name="RS" horiz-adv-x="600" 
d="M552 205h-504v96h504v-96z" />
    <glyph glyph-name="US" horiz-adv-x="648" 
d="M437 0v598h144v-598h-144zM437 670v107h144v-107h-144zM99 0v447h-86v102h86v54q0 197 203 197q43 0 86 -11v-102q-24 11 -70 11q-75 0 -75 -100v-49h118v-102h-118v-447h-144z" />
    <glyph glyph-name="DEL" horiz-adv-x="648" 
d="M437 0v777h144v-777h-144zM99 0v447h-86v102h86v54q0 197 203 197q43 0 86 -11v-102q-24 11 -70 11q-75 0 -75 -100v-49h118v-102h-118v-447h-144z" />
    <glyph glyph-name="glyph275" horiz-adv-x="249" 
 />
    <glyph glyph-name="glyph276" horiz-adv-x="249" 
 />
    <glyph glyph-name="glyph261" horiz-adv-x="500" 
d="M286 522h-33q10 32 11 64q2 12 8 13q4 0 8 1q67 10 67 54q0 35 -28 35q-4 0 -15 -1t-13 -1q-21 0 -21 18q0 28 32 28q47 0 76.5 -26.5t25.5 -69.5q-6 -59 -87 -81q-25 -7 -31 -34z" />
    <glyph glyph-name="glyph262" horiz-adv-x="541" 
d="M98 808h132l114 -146h-114l-66 86l-66 -86h-114zM42 851l99 146h164l-159 -146h-104z" />
    <glyph glyph-name="glyph263" horiz-adv-x="541" 
d="M98 808h132l114 -146h-114l-66 86l-66 -86h-114zM245 997l99 -146h-104l-159 146h164z" />
    <glyph glyph-name="glyph264" horiz-adv-x="541" 
d="M98 808h132l114 -146h-114l-66 86l-66 -86h-114zM444 671h-33q10 32 11 64q2 12 8 13q4 0 8 1q67 10 67 54q0 35 -28 35q-4 0 -15 -1t-13 -1q-21 0 -21 18q0 28 32 28q47 0 76.5 -26.5t25.5 -69.5q-6 -58 -87 -81q-25 -7 -31 -34z" />
    <glyph glyph-name="glyph265" horiz-adv-x="541" 
d="M98 808h132l114 -146h-114l-66 86l-66 -86h-114zM93 860h-65q14 67 39 94t70 27q25 0 74 -18.5t71 -18.5q35 0 47 42h65q-14 -67 -39 -94t-70 -27q-25 0 -74 18.5t-71 18.5q-35 0 -47 -42z" />
    <glyph glyph-name="glyph266" horiz-adv-x="541" 
d="M58 706h39q17 -81 105 -81t107 81h37q-14 -126 -149 -126q-60 0 -97.5 33.5t-41.5 92.5zM119 851l99 146h164l-159 -146h-104z" />
    <glyph glyph-name="glyph267" horiz-adv-x="541" 
d="M58 706h39q17 -81 105 -81t107 81h37q-14 -126 -149 -126q-60 0 -97.5 33.5t-41.5 92.5zM192 997l99 -146h-104l-159 146h164z" />
    <glyph glyph-name="glyph268" horiz-adv-x="541" 
d="M58 706h39q17 -81 105 -81t107 81h37q-14 -126 -149 -126q-60 0 -97.5 33.5t-41.5 92.5zM339 671h-33q10 32 11 64q2 12 8 13q4 0 8 1q67 10 67 54q0 35 -28 35q-4 0 -15 -1t-13 -1q-21 0 -21 18q0 28 32 28q47 0 76.5 -26.5t25.5 -69.5q-6 -58 -87 -81q-25 -7 -31 -34z
" />
    <glyph glyph-name="glyph269" horiz-adv-x="541" 
d="M58 706h39q17 -81 105 -81t107 81h37q-14 -126 -149 -126q-60 0 -97.5 33.5t-41.5 92.5zM93 860h-65q14 67 39 94t70 27q25 0 74 -18.5t71 -18.5q35 0 47 42h65q-14 -67 -39 -94t-70 -27q-25 0 -74 18.5t-71 18.5q-35 0 -47 -42z" />
    <glyph glyph-name="glyph270" horiz-adv-x="249" 
 />
    <glyph glyph-name="_403" horiz-adv-x="500" 
 />
    <glyph glyph-name="_405" horiz-adv-x="500" 
 />
    <glyph glyph-name="_406" horiz-adv-x="500" 
 />
    <glyph glyph-name="_407" horiz-adv-x="500" 
 />
    <glyph glyph-name="_408" horiz-adv-x="500" 
 />
    <glyph glyph-name="_409" horiz-adv-x="500" 
 />
  </font>
</defs>
</svg>
