<?xml version="1.0" standalone="no"?>
<!DOCTYPE svg PUBLIC "-//W3C//DTD SVG 1.1//EN" "http://www.w3.org/Graphics/SVG/1.1/DTD/svg11.dtd" >
<svg xmlns="http://www.w3.org/2000/svg" xmlns:xlink="http://www.w3.org/1999/xlink" version="1.1">
<metadata>
Created by FontForge 20170731 at Tue Feb 15 19:12:52 2011
 By Aleksey,,,
(c) Copyright 2005 by Tong Duc Thinh. All Rights Reserved
</metadata>
<defs>
<font id="SFUVectoraLH-Italic" horiz-adv-x="556" >
  <font-face 
    font-family="SFU Vectora LH"
    font-weight="400"
    font-style="italic"
    font-stretch="normal"
    units-per-em="1000"
    panose-1="0 0 3 0 0 0 0 0 0 0"
    ascent="800"
    descent="-200"
    x-height="591"
    cap-height="712"
    bbox="-166 -250 1062 1224"
    underline-thickness="50"
    underline-position="-200"
    slope="-12"
    unicode-range="U+0020-F002"
  />
<missing-glyph horiz-adv-x="796" 
d="M51 486q0 102 58 171.5t143 69.5q57 0 97.5 -35t40.5 -103q0 -105 -59.5 -174.5t-141.5 -69.5q-60 0 -99 37t-39 104zM125 479q0 -34 17 -55t51 -21q62 0 92.5 58t30.5 128q0 34 -16 57t-53 23q-32 0 -57 -20.5t-38.5 -51.5t-20 -61.5t-6.5 -56.5zM406 129
q0 102 58 171.5t143 69.5q57 0 97.5 -35t40.5 -103q0 -105 -59.5 -174.5t-141.5 -69.5q-60 0 -99 37t-39 104zM480 122q0 -34 17 -55t51 -21q62 0 92.5 58t30.5 128q0 34 -16 57t-53 23q-32 0 -57 -20.5t-38.5 -51.5t-20 -61.5t-6.5 -56.5zM92 -24l538 763h72l-538 -763h-72
z" />
    <glyph glyph-name=".notdef" horiz-adv-x="796" 
d="M51 486q0 102 58 171.5t143 69.5q57 0 97.5 -35t40.5 -103q0 -105 -59.5 -174.5t-141.5 -69.5q-60 0 -99 37t-39 104zM125 479q0 -34 17 -55t51 -21q62 0 92.5 58t30.5 128q0 34 -16 57t-53 23q-32 0 -57 -20.5t-38.5 -51.5t-20 -61.5t-6.5 -56.5zM406 129
q0 102 58 171.5t143 69.5q57 0 97.5 -35t40.5 -103q0 -105 -59.5 -174.5t-141.5 -69.5q-60 0 -99 37t-39 104zM480 122q0 -34 17 -55t51 -21q62 0 92.5 58t30.5 128q0 34 -16 57t-53 23q-32 0 -57 -20.5t-38.5 -51.5t-20 -61.5t-6.5 -56.5zM92 -24l538 763h72l-538 -763h-72
z" />
    <glyph glyph-name=".null" horiz-adv-x="0" 
 />
    <glyph glyph-name="nonmarkingreturn" horiz-adv-x="333" 
 />
    <glyph glyph-name="space" unicode=" " horiz-adv-x="278" 
 />
    <glyph glyph-name="exclam" unicode="!" horiz-adv-x="315" 
d="M90 198l85 514h100l-115 -514h-70zM38 0l20 104h98l-21 -104h-97z" />
    <glyph glyph-name="quotedbl" unicode="&#x22;" horiz-adv-x="444" 
d="M150 541v236h72v-236h-72zM306 541v236h72v-236h-72z" />
    <glyph glyph-name="numbersign" unicode="#" 
d="M328 283l29 146h-126l-29 -146h126zM274 0l42 217h-126l-42 -217h-66l42 217h-111l12 66h111l29 146h-112l13 66h111l42 217h66l-42 -217h126l42 217h66l-42 -217h110l-13 -66h-109l-29 -146h110l-12 -66h-110l-42 -217h-66z" />
    <glyph glyph-name="dollar" unicode="$" 
d="M290 313l-48 -252q60 6 101 46.5t41 91.5q0 38 -21 62t-73 52zM271 423l44 229q-64 -6 -95 -42t-31 -81q0 -35 20 -60t62 -46zM-3 139l88 29q4 -42 31.5 -73t85.5 -34l52 271l-63 33q-98 51 -98 153q0 96 62 150t174 58l12 63h40l-12 -63q70 -5 115.5 -38.5t56.5 -91.5
l-89 -27q-3 31 -26.5 54.5t-70.5 28.5l-48 -247l44 -21q68 -34 98.5 -72t30.5 -110q0 -92 -72 -153t-181 -63l-11 -60h-40l12 62q-54 4 -93.5 22.5t-58.5 44.5t-27.5 46t-11.5 38z" />
    <glyph glyph-name="percent" unicode="%" horiz-adv-x="1074" 
d="M682 42q33 0 57 19.5t36 50t17 60.5t5 59q0 80 -66 80q-31 0 -55 -19.5t-36 -49.5t-18 -60.5t-6 -58.5q0 -34 17.5 -57.5t48.5 -23.5zM674 -12q-19 0 -38 5t-41 18.5t-35.5 44t-13.5 75.5q0 54 18.5 105.5t64.5 90t110 38.5q19 0 38 -5t41 -18.5t35.5 -44t13.5 -75.5
q0 -54 -18.5 -105.5t-64.5 -90t-110 -38.5zM356 350q-19 0 -38 5t-41 18.5t-35.5 44t-13.5 75.5q0 54 18.5 105.5t64.5 90t110 38.5q19 0 38 -5t41 -18.5t35.5 -44t13.5 -75.5q0 -54 -18.5 -105.5t-64.5 -90t-110 -38.5zM364 404q33 0 57 19.5t36 50t17 60.5t5 59
q0 80 -66 80q-31 0 -55 -19.5t-36 -49.5t-18 -60.5t-6 -58.5q0 -34 17.5 -57.5t48.5 -23.5zM242 -24l537 763h70l-537 -763h-70z" />
    <glyph glyph-name="ampersand" unicode="&#x26;" horiz-adv-x="685" 
d="M494 0l-54 72q-98 -84 -225 -84q-32 0 -63.5 8t-65 26.5t-54 56.5t-20.5 90q0 74 46 125t109 78l34 14l-18 25q-48 67 -48 132q0 75 59 129.5t159 54.5q74 0 123.5 -41t49.5 -105q0 -75 -46 -122t-130 -81l-28 -13l134 -179q39 39 65.5 90.5t32.5 99.5h85
q-10 -56 -45.5 -128t-90.5 -123l95 -125h-104zM281 418l41 18q59 30 87.5 60t28.5 78q0 38 -26.5 60.5t-66.5 22.5q-50 0 -84 -34t-34 -83q0 -46 34 -94zM396 129l-149 201l-33 -15q-110 -50 -110 -144q0 -55 35 -84t89 -29q90 0 168 71z" />
    <glyph glyph-name="quotesingle" unicode="'" horiz-adv-x="278" 
d="M135 541v236h72v-236h-72z" />
    <glyph glyph-name="parenleft" unicode="(" horiz-adv-x="278" 
d="M104 -130l-17 38q-70 154 -70 308q0 139 62.5 268t145.5 220l49 54l50 -46l-37 -41q-32 -35 -60 -75t-59.5 -96.5t-50 -126t-18.5 -139.5q0 -191 47 -295l18 -40z" />
    <glyph glyph-name="parenright" unicode=")" horiz-adv-x="278" 
d="M159 758l17 -38q70 -154 70 -308q0 -139 -62.5 -268t-145.5 -220l-49 -54l-50 46l37 41q32 35 60 75t59.5 96.5t50 126t18.5 139.5q0 189 -47 295l-18 40z" />
    <glyph glyph-name="asterisk" unicode="*" 
d="M120 546l34 64l130 -56l24 158h74l-39 -158l154 56l9 -67l-155 -41l74 -120l-65 -41l-61 128l-107 -126l-52 40l120 122z" />
    <glyph glyph-name="plus" unicode="+" horiz-adv-x="600" 
d="M267 0v220h-220v66h220v220h66v-220h220v-66h-220v-220h-66z" />
    <glyph glyph-name="comma" unicode="," horiz-adv-x="278" 
d="M-34 -132l106 236h100l-132 -236h-74z" />
    <glyph glyph-name="hyphen" unicode="-" horiz-adv-x="334" 
d="M26 259l15 74h243l-15 -74h-243z" />
    <glyph glyph-name="period" unicode="." horiz-adv-x="278" 
d="M23 0l20 104h98l-20 -104h-98z" />
    <glyph glyph-name="slash" unicode="/" horiz-adv-x="370" 
d="M-62 -3l432 742l62 -24l-432 -742z" />
    <glyph glyph-name="zero" unicode="0" 
d="M18 225q0 61 10 125.5t34.5 133t60.5 122t92.5 87.5t125.5 34q87 0 142 -59t55 -178q0 -61 -10 -125.5t-34.5 -133t-60.5 -122t-92.5 -87.5t-125.5 -34q-87 0 -142 59t-55 178zM110 220q0 -162 112 -162q55 0 100 44.5t71 113.5t39.5 141.5t13.5 137.5q0 162 -112 162
q-55 0 -100 -45t-71 -113.5t-39.5 -141t-13.5 -137.5z" />
    <glyph glyph-name="one" unicode="1" 
d="M218 0l117 611l-185 -128l-40 62l249 167h84l-137 -712h-88z" />
    <glyph glyph-name="two" unicode="2" 
d="M-28 0l15 74l337 294q62 53 90 92t28 86q0 111 -123 111q-34 0 -61 -11t-41 -24.5t-25 -36t-14 -33.5t-7 -29l-88 14q19 89 81.5 139.5t166.5 50.5q87 0 143 -46.5t56 -116.5t-27.5 -119.5t-106.5 -116.5l-300 -258h350l-15 -70h-459z" />
    <glyph glyph-name="three" unicode="3" 
d="M-6 168l88 21q0 -67 37 -99t92 -32q44 0 78 16.5t52.5 43t27.5 54.5t9 56q0 107 -133 107q-1 0 -46 -3l14 77q219 0 219 145q0 40 -31 71.5t-91 31.5q-106 0 -147 -106l-81 27q11 23 18 35t27.5 37t43 39t61.5 26t86 12q98 0 152 -49t54 -119q0 -35 -14 -70.5t-55 -69
t-102 -43.5v-2q117 -28 117 -144q0 -41 -15.5 -82t-45.5 -77.5t-81.5 -59.5t-116.5 -23q-88 0 -148 44t-69 136z" />
    <glyph glyph-name="four" unicode="4" 
d="M265 0l26 135h-301l18 93l365 484h117l-98 -507h98l-14 -70h-97l-26 -135h-88zM304 205l71 349q9 41 23 79l-4 1l-319 -429h229z" />
    <glyph glyph-name="five" unicode="5" 
d="M538 712l-15 -70h-288l-44 -204q51 18 93 18q78 0 132.5 -51.5t54.5 -145.5q0 -115 -71.5 -193t-191.5 -78q-45 0 -80 14t-55 33.5t-33 45t-18 45t-6 36.5l82 21q0 -13 2.5 -27.5t10.5 -32.5t20 -32t33.5 -23.5t49.5 -9.5q71 0 120 56.5t49 134.5q0 64 -39.5 100.5
t-98.5 36.5q-81 0 -157 -54l82 380h368z" />
    <glyph glyph-name="six" unicode="6" 
d="M479 712l-280 -300l2 -2q55 27 105 27q75 0 126.5 -52t51.5 -138q0 -102 -73 -180.5t-192 -78.5q-94 0 -148.5 56t-54.5 145q0 121 103 240l248 283h112zM223 58q81 0 125 59t44 131q0 58 -34 88.5t-77 30.5q-64 0 -127 -36q-50 -69 -50 -146q0 -54 31.5 -90.5
t87.5 -36.5z" />
    <glyph glyph-name="seven" unicode="7" 
d="M12 0l436 634h-351l15 78h454l-15 -74l-431 -638h-108z" />
    <glyph glyph-name="eight" unicode="8" 
d="M524 576q0 -65 -43 -112t-92 -69l-39 -17l33 -23q35 -25 61 -66.5t26 -81.5q0 -95 -69 -157t-179 -62q-104 0 -157 47t-53 120q0 123 158 202l43 23q-54 34 -81.5 71t-27.5 95q0 75 65 128t162 53q88 0 140.5 -41t52.5 -110zM382 197q0 64 -75 118l-35 25l-48 -24
q-124 -64 -124 -156q0 -46 31.5 -74t92.5 -28q76 0 117 41t41 98zM294 418l34 16q108 51 108 136q0 40 -30.5 63.5t-81.5 23.5q-60 0 -97.5 -31.5t-37.5 -82.5q0 -60 66 -101z" />
    <glyph glyph-name="nine" unicode="9" 
d="M71 0l280 303l-2 2q-55 -27 -105 -27q-75 0 -126.5 52t-51.5 138q0 102 73 180.5t192 78.5q94 0 148.5 -56t54.5 -145q0 -121 -103 -240l-248 -286h-112zM158 467q0 -58 34 -88.5t77 -30.5q64 0 127 36q50 65 50 146q0 54 -31.5 90.5t-87.5 36.5q-81 0 -125 -59t-44 -131
z" />
    <glyph glyph-name="colon" unicode=":" horiz-adv-x="278" 
d="M126 487l20 104h98l-20 -104h-98zM32 0l20 104h98l-20 -104h-98z" />
    <glyph glyph-name="semicolon" unicode=";" horiz-adv-x="278" 
d="M-34 -132l106 236h100l-132 -236h-74zM126 487l20 104h98l-20 -104h-98z" />
    <glyph glyph-name="less" unicode="&#x3c;" horiz-adv-x="600" 
d="M47 224v58l506 232v-66l-424 -195l424 -195v-66z" />
    <glyph glyph-name="equal" unicode="=" horiz-adv-x="600" 
d="M47 317v66h506v-66h-506zM47 123v66h506v-66h-506z" />
    <glyph glyph-name="greater" unicode="&#x3e;" horiz-adv-x="600" 
d="M47 -8v66l424 195l-424 195v66l506 -232v-58z" />
    <glyph glyph-name="question" unicode="?" horiz-adv-x="519" 
d="M171 200l5 31q5 33 10 53t20.5 47.5t40.5 48.5l82 68q65 53 65 117q0 47 -28.5 69.5t-74.5 22.5q-52 0 -84.5 -32.5t-35.5 -62.5l-84 29q1 1 8.5 15.5t16 27.5t26.5 31t39 30.5t54.5 22t72.5 9.5q82 0 130 -39.5t48 -118.5q0 -90 -82 -157l-90 -73q-26 -20 -36.5 -43
t-19.5 -70l-5 -26h-78zM132 0l20 104h98l-20 -104h-98z" />
    <glyph glyph-name="at" unicode="@" horiz-adv-x="800" 
d="M263 296q0 -44 22 -70.5t64 -26.5q61 0 107.5 71.5t46.5 140.5q0 93 -81 93q-66 0 -112.5 -69t-46.5 -139zM534 490l23 62h62l-86 -281q-10 -27 -10 -53q0 -31 22 -31q53 0 101 74.5t48 153.5q0 113 -81.5 182.5t-196.5 69.5q-132 0 -221 -92t-89 -222q0 -128 91 -218
t218 -90q78 0 148 30t107 85h66q-48 -81 -134.5 -128t-186.5 -47q-159 0 -267 106t-108 265q0 155 109.5 263t265.5 108q145 0 245 -87t100 -220q0 -61 -23.5 -116.5t-58.5 -91.5t-74 -57.5t-73 -21.5q-70 0 -76 65h-2q-18 -20 -31 -32t-36 -22.5t-50 -10.5q-66 0 -106.5 45
t-40.5 111q0 107 66.5 194t166.5 87q79 0 112 -80z" />
    <glyph glyph-name="A" unicode="A" horiz-adv-x="667" 
d="M-52 0l412 712h117l132 -712h-92l-34 189h-329l-108 -189h-98zM469 263l-52 288q-10 51 -12 79h-5q-18 -40 -55 -106l-149 -261h273z" />
    <glyph glyph-name="B" unicode="B" horiz-adv-x="611" 
d="M6 0l137 712h233q100 0 148.5 -42.5t48.5 -114.5q0 -73 -43.5 -121t-112.5 -60v-6q36 -3 74.5 -39.5t38.5 -105.5q0 -93 -67 -158t-192 -65h-265zM176 405h135q80 0 125 36.5t45 99.5q0 97 -128 97h-132zM112 74h155q80 0 125.5 41.5t45.5 102.5q0 55 -32 84t-113 29
h-131z" />
    <glyph glyph-name="C" unicode="C" horiz-adv-x="648" 
d="M492 200l88 -23q-10 -32 -29 -62t-51.5 -61.5t-85 -50t-118.5 -18.5q-127 0 -194.5 73.5t-67.5 194.5q0 63 14 127.5t44 127t72.5 111t105.5 78.5t137 30q66 0 114.5 -20t73 -51t35.5 -58t13 -52l-92 -20q0 14 -7.5 33.5t-22.5 41.5t-45.5 37t-69.5 15q-68 0 -123 -38.5
t-87 -97.5t-49 -123.5t-17 -124.5q0 -108 41 -159t125 -51q77 0 125 40.5t71 100.5z" />
    <glyph glyph-name="D" unicode="D" horiz-adv-x="667" 
d="M3 0l137 712h199q80 0 139 -23.5t92 -64.5t48 -90.5t15 -109.5q0 -73 -25 -146t-72 -136t-125.5 -102.5t-174.5 -39.5h-233zM109 74h112q70 0 126 24t91 62t58 87t32 95.5t9 91.5q0 94 -51 149t-154 55h-114z" />
    <glyph glyph-name="E" unicode="E" 
d="M3 0l137 712h431l-15 -74h-339l-44 -232h321l-16 -74h-319l-49 -258h346l-15 -74h-438z" />
    <glyph glyph-name="F" unicode="F" horiz-adv-x="537" 
d="M3 0l137 712h424l-14 -74h-332l-48 -244h315l-14 -74h-315l-61 -320h-92z" />
    <glyph glyph-name="G" unicode="G" horiz-adv-x="667" 
d="M368 379h235l-64 -329q-1 -1 -18.5 -9.5t-22.5 -11t-23 -10.5t-28.5 -11t-30 -8.5t-36 -8t-39 -4.5t-45.5 -2q-127 0 -194.5 73.5t-67.5 194.5q0 63 14 127.5t44 127t72.5 111t105.5 78.5t137 30q66 0 114.5 -20t73 -50.5t35.5 -56t13 -48.5l-92 -21q0 12 -7.5 30.5
t-22.5 40t-45.5 36.5t-69.5 15q-68 0 -123 -38.5t-87 -97.5t-49 -123.5t-17 -124.5q0 -214 179 -214q91 0 147 38l40 212h-143z" />
    <glyph glyph-name="H" unicode="H" horiz-adv-x="667" 
d="M435 0l65 340h-340l-65 -340h-92l137 712h92l-57 -294h340l57 294h92l-137 -712h-92z" />
    <glyph glyph-name="I" unicode="I" horiz-adv-x="241" 
d="M6 0l137 712h92l-137 -712h-92z" />
    <glyph glyph-name="J" unicode="J" horiz-adv-x="352" 
d="M-63 25l52 71q29 -29 62 -29q45 0 68 31t36 101l99 513h92l-101 -526q-19 -100 -65.5 -150.5t-133.5 -50.5q-64 0 -109 40z" />
    <glyph glyph-name="K" unicode="K" horiz-adv-x="593" 
d="M6 0l137 712h92l-60 -308l2 -2l345 310h124l-386 -339l262 -373h-115l-242 348l-67 -348h-92z" />
    <glyph glyph-name="L" unicode="L" horiz-adv-x="481" 
d="M6 0l137 712h92l-122 -634h305l-14 -78h-398z" />
    <glyph glyph-name="M" unicode="M" horiz-adv-x="870" 
d="M329 0l-95 554q-8 62 -10 80h-8q-2 -34 -14 -93l-104 -541h-92l137 712h154l78 -485q2 -13 10 -105h7q13 45 41 93l282 497h149l-137 -712h-92l107 554q11 58 19 80h-9q-36 -75 -52 -103l-299 -531h-72z" />
    <glyph glyph-name="N" unicode="N" horiz-adv-x="704" 
d="M9 0l137 712h118l194 -520q12 -33 27 -94h5q4 52 14 102l99 512h92l-137 -712h-122l-195 518q-18 50 -27 96h-5q0 -56 -8 -93l-100 -521h-92z" />
    <glyph glyph-name="O" unicode="O" horiz-adv-x="704" 
d="M34 253q0 63 14 127.5t44 127t72.5 111t105.5 78.5t137 30q128 0 195.5 -73.5t67.5 -194.5q0 -79 -23 -160t-67 -152.5t-118 -116.5t-166 -45q-127 0 -194.5 73.5t-67.5 194.5zM130 269q0 -111 41 -162.5t125 -51.5q68 0 123.5 38.5t88 98t49.5 124t17 124.5
q0 111 -41 162t-126 51q-68 0 -123.5 -38.5t-87.5 -97.5t-49 -123.5t-17 -124.5z" />
    <glyph glyph-name="P" unicode="P" horiz-adv-x="593" 
d="M6 0l137 712h214q107 0 166.5 -45.5t59.5 -135.5q0 -104 -67.5 -173t-196.5 -69h-165l-56 -289h-92zM221 638l-53 -275h155q81 0 124.5 45t43.5 118q0 112 -149 112h-121z" />
    <glyph glyph-name="Q" unicode="Q" horiz-adv-x="704" 
d="M414 -175l-188 167q-30 6 -59.5 20t-61.5 42.5t-51.5 79.5t-19.5 119q0 63 14 127.5t44 127t72.5 111t105.5 78.5t137 30q128 0 195.5 -73.5t67.5 -194.5q0 -176 -91 -313t-231 -157l131 -100zM130 269q0 -111 41 -162.5t125 -51.5q68 0 123.5 38.5t88 98t49.5 124
t17 124.5q0 111 -41 162t-126 51q-68 0 -123.5 -38.5t-87.5 -97.5t-49 -123.5t-17 -124.5z" />
    <glyph glyph-name="R" unicode="R" horiz-adv-x="593" 
d="M400 0l-96 320h-147l-62 -320h-92l137 712h218q212 0 212 -167q0 -91 -52 -147.5t-127 -65.5l113 -332h-104zM171 394h135q89 0 130.5 39t41.5 100q0 53 -31.5 79t-84.5 26h-144z" />
    <glyph glyph-name="S" unicode="S" 
d="M-14 139l88 29q4 -46 35.5 -77.5t99.5 -31.5t116 41.5t48 98.5q0 40 -23 64.5t-80 54.5l-90 47q-98 51 -98 153q0 99 67.5 154t185.5 55q77 0 130 -34.5t65 -96.5l-89 -27q-3 34 -32 59t-86 25q-73 0 -109 -38.5t-36 -85.5q0 -37 21 -62t65 -46l76 -37q68 -34 98.5 -72
t30.5 -110q0 -93 -75 -155t-187 -62q-51 0 -91.5 13t-63 30.5t-38 41t-21 39.5t-7.5 30z" />
    <glyph glyph-name="T" unicode="T" horiz-adv-x="519" 
d="M38 634l15 78h504l-15 -78h-206l-122 -634h-92l122 634h-206z" />
    <glyph glyph-name="U" unicode="U" horiz-adv-x="667" 
d="M233 712l-84 -438q-11 -46 -11 -87q0 -60 39.5 -94t103.5 -34q162 0 201 203l87 450h92l-90 -466q-49 -261 -309 -261q-99 0 -157.5 56t-58.5 142q0 46 15 112l80 417h92z" />
    <glyph glyph-name="V" unicode="V" horiz-adv-x="611" 
d="M163 0l-97 712h96l67 -547q6 -44 7 -79h5q10 27 40 84l285 542h100l-383 -712h-120z" />
    <glyph glyph-name="W" unicode="W" horiz-adv-x="889" 
d="M507 0l-22 504q-1 10 2 118h-7q-33 -97 -38 -108l-222 -514h-117l-37 712h92l21 -520q1 -18 -2 -106h6q18 58 25 77l14 35l220 514h121l22 -518q1 -35 -1 -108h6q10 56 38 121l221 505h92l-316 -712h-118z" />
    <glyph glyph-name="X" unicode="X" horiz-adv-x="630" 
d="M437 0l-107 250q-7 15 -21 60h-4q-10 -20 -45 -64l-199 -246h-112l310 370l-151 342h104l87 -213q20 -50 26 -74h5q29 44 53 75l170 212h110l-289 -344l167 -368h-104z" />
    <glyph glyph-name="Y" unicode="Y" horiz-adv-x="611" 
d="M202 0l56 291l-169 421h104l94 -253q18 -49 29 -91h5q26 47 57 87l196 257h112l-336 -421l-56 -291h-92z" />
    <glyph glyph-name="Z" unicode="Z" horiz-adv-x="519" 
d="M-48 0l16 84l464 554h-343l14 74h455l-17 -87l-468 -551h368l-15 -74h-474z" />
    <glyph glyph-name="bracketleft" unicode="[" horiz-adv-x="278" 
d="M-32 -130l169 888h170l-11 -54h-92l-147 -780h92l-11 -54h-170z" />
    <glyph glyph-name="backslash" unicode="\" horiz-adv-x="370" 
d="M237 -27l-170 751l63 15l170 -751z" />
    <glyph glyph-name="bracketright" unicode="]" horiz-adv-x="278" 
d="M-42 -130l11 54h92l147 780h-92l11 54h170l-169 -888h-170z" />
    <glyph glyph-name="asciicircum" unicode="^" horiz-adv-x="600" 
d="M490 259l-190 371l-190 -371h-66l227 453h58l227 -453h-66z" />
    <glyph glyph-name="underscore" unicode="_" horiz-adv-x="500" 
d="M0 -125v50h500v-50h-500z" />
    <glyph glyph-name="grave" unicode="`" horiz-adv-x="241" 
d="M80 803h104l89 -142h-70z" />
    <glyph glyph-name="a" unicode="a" horiz-adv-x="537" 
d="M323 0l17 91h-3q-17 -20 -40.5 -39.5t-70 -41.5t-92.5 -22q-63 0 -100.5 42t-37.5 101q0 93 63.5 155.5t186.5 68.5l144 6q11 46 11 87q0 89 -98 89q-33 0 -59.5 -10.5t-44 -29.5t-26.5 -33.5t-18 -34.5l-75 26q14 28 29 49t41.5 46t67.5 39t92 14q76 0 127.5 -39.5
t51.5 -115.5q0 -36 -11 -91l-55 -289q-9 -42 -12 -68h-88zM354 161l26 134l-78 -3q-47 -2 -82 -9t-67 -23t-48.5 -45.5t-16.5 -71.5q0 -81 84 -81q33 0 69 17t57.5 34t55.5 48z" />
    <glyph glyph-name="b" unicode="b" horiz-adv-x="574" 
d="M8 0l149 777h88l-50 -260h2q31 38 76.5 62t92.5 24q74 0 121 -54t47 -155q0 -71 -17.5 -141.5t-50.5 -130.5t-86.5 -97t-119.5 -37q-53 0 -84.5 21.5t-64.5 70.5l-15 -80h-88zM180 440l-56 -292q17 -28 29.5 -43.5t37 -29t56.5 -13.5q50 0 89.5 33.5t61.5 86t33 106
t11 101.5q0 63 -25.5 101.5t-79.5 38.5q-86 0 -157 -89z" />
    <glyph glyph-name="c" unicode="c" horiz-adv-x="519" 
d="M493 448l-80 -23q-5 45 -28 76.5t-72 31.5q-64 0 -112.5 -53t-70.5 -124.5t-22 -142.5q0 -155 114 -155q91 0 143 108l76 -26q-74 -152 -219 -152q-97 0 -151.5 62t-54.5 161q0 54 12 108.5t37 105.5t60 90.5t85.5 63.5t108.5 24q146 0 174 -155z" />
    <glyph glyph-name="d" unicode="d" horiz-adv-x="574" 
d="M345 0l15 78h-2q-77 -90 -174 -90q-80 0 -123.5 56t-44.5 154q-2 105 30 197t94.5 150t140.5 58q96 0 162 -90l51 264h88l-149 -777h-88zM374 153l56 291q-26 41 -55.5 63t-77.5 22q-59 0 -103.5 -51.5t-65 -124t-20.5 -149.5q0 -142 105 -142q27 0 51 8t46.5 25t33 27
t30.5 31z" />
    <glyph glyph-name="e" unicode="e" 
d="M385 161l70 -27q-8 -18 -23 -39t-42.5 -47t-71.5 -43t-96 -17q-97 0 -151.5 62t-54.5 161q0 54 12 108.5t37 105.5t60 90.5t85.5 63.5t108.5 24q98 0 146.5 -57t48.5 -155q0 -53 -18 -118h-384q-8 -24 -8 -77q0 -71 32 -106.5t91 -35.5q54 0 94.5 29.5t63.5 77.5z
M122 339h297q7 47 7 60q0 67 -32 102.5t-85 35.5q-39 0 -71.5 -17.5t-54.5 -47.5t-36.5 -62.5t-24.5 -70.5z" />
    <glyph glyph-name="f" unicode="f" horiz-adv-x="315" 
d="M36 0l91 474h-89l15 70h87l15 66q18 84 59 131.5t127 47.5q41 0 80 -12l-15 -71q-35 13 -67 13q-43 0 -64.5 -28t-33.5 -82l-13 -65h118l-15 -70h-116l-91 -474h-88z" />
    <glyph glyph-name="g" unicode="g" horiz-adv-x="537" 
d="M577 591l-15 -62h-58q-34 0 -60 8l-2 -4q43 -36 43 -98q0 -85 -66.5 -147t-176.5 -62q-39 0 -61 8q-36 -26 -36 -48q0 -30 71 -50l87 -24q74 -21 103 -47.5t29 -81.5q0 -79 -73.5 -132t-207.5 -53q-115 0 -167.5 42.5t-52.5 93.5q0 83 117 146l37 20q-31 20 -31 54
q0 48 75 94q-83 50 -83 142q0 80 64.5 146.5t171.5 66.5q33 0 59 -7q25 -5 43 -5h190zM131 397q0 -49 29.5 -77t83.5 -28q66 0 112.5 39.5t46.5 102.5q0 103 -120 103q-67 0 -109.5 -39.5t-42.5 -100.5zM140 78l-52 -28q-66 -38 -66 -100q0 -43 39 -64.5t103 -21.5
q90 0 139.5 33.5t49.5 74.5q0 29 -20 44.5t-70 28.5z" />
    <glyph glyph-name="h" unicode="h" horiz-adv-x="574" 
d="M348 0l73 379q11 49 11 82q0 31 -21 47.5t-53 16.5q-12 0 -24.5 -2.5t-25 -7.5t-23.5 -10t-24 -14t-21 -14.5t-21 -16t-18.5 -15t-17.5 -15t-14 -12.5l-80 -418h-88l149 777h88l-53 -278l4 -2q40 42 96.5 74t110.5 32q53 0 90.5 -28.5t37.5 -88.5q0 -32 -10 -80l-78 -406
h-88z" />
    <glyph glyph-name="i" unicode="i" horiz-adv-x="241" 
d="M8 0l114 591h88l-114 -591h-88zM134 691l17 86h100l-17 -86h-100z" />
    <glyph glyph-name="j" unicode="j" horiz-adv-x="241" 
d="M122 591h88l-114 -591q-21 -116 -58.5 -159t-110.5 -43q-38 0 -62 8l18 76q19 -6 43 -6q35 0 51.5 25.5t30.5 98.5zM134 691l17 86h100l-17 -86h-100z" />
    <glyph glyph-name="k" unicode="k" horiz-adv-x="519" 
d="M345 0l-190 307l-59 -307h-88l149 777h88l-86 -444l2 -2l273 260h120l-304 -276l203 -315h-108z" />
    <glyph glyph-name="l" unicode="l" horiz-adv-x="241" 
d="M8 0l149 777h88l-149 -777h-88z" />
    <glyph glyph-name="m" unicode="m" horiz-adv-x="889" 
d="M1 0l114 591h88l-18 -91l2 -2q5 4 25 21.5t29 24.5t29 21t34.5 20.5t35 12t39.5 5.5q51 0 88 -27t39 -76q116 103 201 103q53 0 90.5 -30.5t37.5 -92.5q0 -41 -9 -74l-79 -406h-88l73 379q11 49 11 82q0 30 -19 47t-54 17q-30 0 -66 -17.5t-51.5 -29.5t-50.5 -40
l-84 -438h-88l73 379q11 49 11 82q0 64 -71 64q-12 0 -25.5 -3.5t-28.5 -12t-26 -15t-28.5 -20.5t-24 -19.5t-23.5 -20.5t-18 -16l-80 -418h-88z" />
    <glyph glyph-name="n" unicode="n" horiz-adv-x="574" 
d="M348 0l73 379q11 49 11 82q0 31 -21 47.5t-53 16.5q-12 0 -24.5 -2.5t-25 -7.5t-23.5 -10t-24 -14t-21 -14.5t-21 -16t-18.5 -15t-17.5 -15t-14 -12.5l-80 -418h-88l114 591h88l-18 -92l2 -2q42 42 98.5 74t110.5 32q53 0 90.5 -28.5t37.5 -88.5q0 -32 -10 -80l-78 -406
h-88z" />
    <glyph glyph-name="o" unicode="o" horiz-adv-x="574" 
d="M16 211q0 54 12 108.5t37 105.5t60 90.5t85.5 63.5t108.5 24q104 0 159.5 -61t55.5 -165q0 -93 -35 -180.5t-108.5 -148t-168.5 -60.5q-97 0 -151.5 62t-54.5 161zM108 213q0 -70 30 -112.5t88 -42.5q53 0 96 32t68 82.5t38.5 107t13.5 110.5q0 143 -129 143
q-64 0 -112.5 -53t-70.5 -124.5t-22 -142.5z" />
    <glyph glyph-name="p" unicode="p" horiz-adv-x="574" 
d="M-28 -188l149 779h88l-14 -74h2q31 38 76.5 62t92.5 24q74 0 121 -54t47 -155q0 -71 -17.5 -141.5t-50.5 -130.5t-86.5 -97t-119.5 -37q-53 0 -84.5 21.5t-64.5 70.5l-51 -268h-88zM180 440l-56 -292q17 -28 29.5 -43.5t37 -29t56.5 -13.5q50 0 89.5 33.5t61.5 86t33 106
t11 101.5q0 63 -25.5 101.5t-79.5 38.5q-86 0 -157 -89z" />
    <glyph glyph-name="q" unicode="q" horiz-adv-x="574" 
d="M309 -188l51 266h-2q-77 -90 -174 -90q-80 0 -123.5 56t-44.5 154q-2 105 30 197t94.5 150t140.5 58q96 0 162 -90l15 78h88l-149 -779h-88zM374 153l56 291q-26 41 -55.5 63t-77.5 22q-59 0 -103.5 -51.5t-65 -124t-20.5 -149.5q0 -142 105 -142q27 0 51 8t46.5 25
t33 27t30.5 31z" />
    <glyph glyph-name="r" unicode="r" horiz-adv-x="370" 
d="M8 0l114 591h88l-19 -99l2 -2q109 109 217 109l-19 -93q-11 3 -34 3q-51 0 -93.5 -27t-89.5 -76l-78 -406h-88z" />
    <glyph glyph-name="s" unicode="s" horiz-adv-x="481" 
d="M-18 136l81 27q0 -37 30.5 -73t89.5 -36q66 0 103 30t37 82q0 19 -5 32t-19.5 23.5t-25 16t-38.5 17.5l-87 37q-91 36 -91 131q0 73 58 126.5t157 53.5q48 0 84 -14.5t55 -37.5t28.5 -42t13.5 -38l-80 -24q0 31 -27 60.5t-83 29.5q-53 0 -85.5 -27t-32.5 -74
q0 -29 16.5 -49.5t58.5 -35.5l80 -31q57 -22 84 -53t27 -81q0 -82 -59.5 -140t-172.5 -58q-45 0 -80 11t-54.5 26t-34 37.5t-19.5 38t-9 35.5z" />
    <glyph glyph-name="t" unicode="t" horiz-adv-x="352" 
d="M49 544h89l28 145l95 38l-35 -183h140l-15 -70h-139l-49 -262q-2 -15 -10.5 -54t-8.5 -49q0 -19 15.5 -32t44.5 -13q25 0 76 19l-15 -74q-47 -15 -95 -15q-58 0 -86 28t-28 76q0 18 14 92l54 284h-90z" />
    <glyph glyph-name="u" unicode="u" horiz-adv-x="574" 
d="M550 591l-114 -591h-88l18 92l-2 2q-42 -42 -98.5 -74t-110.5 -32q-53 0 -90.5 28.5t-37.5 88.5q0 32 10 80l78 406h88l-73 -379q-11 -49 -11 -82q0 -31 21 -47.5t53 -16.5q12 0 24.5 2.5t25 7.5t23.5 10t24 14t21 14.5t21 16t18.5 15t17.5 15t14 12.5l80 418h88z" />
    <glyph glyph-name="v" unicode="v" horiz-adv-x="500" 
d="M128 0l-82 591h92l48 -418q8 -72 9 -87h7q8 20 40 85l206 420h96l-307 -591h-109z" />
    <glyph glyph-name="w" unicode="w" horiz-adv-x="815" 
d="M458 0l-22 389q-2 23 -2 104h-8q-22 -60 -31 -79l-183 -414h-112l-54 591h92l30 -413q1 -11 1 -92h6q11 37 35 90l187 415h108l22 -417q2 -17 2 -49v-39h6q14 39 34 86l186 419h92l-271 -591h-118z" />
    <glyph glyph-name="x" unicode="x" horiz-adv-x="519" 
d="M340 0l-83 213q-3 8 -7.5 21t-6.5 19h-2q-3 -5 -31 -43l-166 -210h-108l264 317l-119 274h96l74 -183q12 -34 13 -40h2q15 24 28 39l147 184h104l-236 -282l131 -309h-100z" />
    <glyph glyph-name="y" unicode="y" horiz-adv-x="500" 
d="M142 9l-100 582h92l60 -417q5 -39 5 -76h6q11 38 37 88l210 405h98l-342 -628l-29 -53q-64 -112 -156 -112q-43 0 -67 10l17 74q3 -1 10.5 -4t15 -4.5t15.5 -1.5q27 0 48.5 16.5t46.5 59.5z" />
    <glyph glyph-name="z" unicode="z" horiz-adv-x="481" 
d="M75 66h328l-14 -66h-437l14 68l410 457h-311l12 66h418l-14 -72z" />
    <glyph glyph-name="braceleft" unicode="{" horiz-adv-x="278" 
d="M9 287l11 54q37 0 61 30t34 79l36 194q21 114 120 114h70l-10 -54h-42q-49 0 -59 -60l-39 -203q-10 -56 -43 -88t-59 -38v-2q16 -6 34.5 -28.5t18.5 -57.5q0 -44 -7 -77l-27 -138q-5 -32 -5 -56q0 -32 37 -32h42l-10 -54h-59q-88 0 -88 84q0 20 7 62l27 147q5 32 5 65
q0 23 -15 41t-40 18z" />
    <glyph glyph-name="bar" unicode="|" horiz-adv-x="222" 
d="M78 -250v1000h66v-1000h-66z" />
    <glyph glyph-name="braceright" unicode="}" horiz-adv-x="278" 
d="M253 341l-11 -54q-37 0 -61 -30t-34 -79l-36 -194q-21 -114 -120 -114h-70l10 54h42q49 0 59 60l39 203q10 56 43 88t59 38v2q-16 6 -34.5 28.5t-18.5 57.5q0 44 7 77l27 138q5 32 5 56q0 32 -37 32h-42l10 54h59q88 0 88 -84q0 -20 -7 -62l-27 -147q-5 -32 -5 -65
q0 -23 15 -41t40 -18z" />
    <glyph glyph-name="asciitilde" unicode="~" horiz-adv-x="600" 
d="M495 321l36 -46q-16 -23 -23.5 -33t-23.5 -26.5t-35 -23t-43 -6.5q-35 0 -113 34t-96 34q-53 0 -92 -69l-36 46q45 89 125 89q35 0 115 -34t98 -34q27 0 46.5 18t41.5 51z" />
    <glyph glyph-name="euro" horiz-adv-x="498" 
d="M522 633l-23 -156l-48 6q0 157 -94 157q-103 0 -161 -211h172l-21 -48h-164q-3 -14 -16 -73h147l-21 -47h-134q-6 -41 -6 -74q0 -55 21 -91q25 -43 78 -43q57 0 101 68q24 37 51 119l55 -10l-54 -188q-77 -53 -159 -53q-110 0 -166 84q-47 71 -47 188h-74l21 47h56
q3 24 12 73h-66l21 48h59q40 113 108 183q82 88 187 88q95 0 165 -67z" />
    <glyph glyph-name="nbspace" unicode="&#xa0;" horiz-adv-x="278" 
 />
    <glyph glyph-name="exclamdown" unicode="&#xa1;" horiz-adv-x="315" 
d="M201 393l-85 -514h-100l115 514h70zM253 591l-20 -104h-98l21 104h97z" />
    <glyph glyph-name="cent" unicode="&#xa2;" 
d="M156 109l217 419q-18 5 -33 5q-49 0 -89.5 -31.5t-65 -80.5t-37.5 -104t-13 -106q0 -64 21 -102zM73 -52l44 85q-74 60 -74 178q0 54 12 108.5t37 105.5t60 90.5t85.5 63.5t108.5 24q36 0 61 -9l35 68l38 -12l-37 -72q61 -37 79 -130l-82 -23q-6 56 -34 82l-222 -430
q25 -19 65 -19q91 0 143 108l76 -26q-74 -152 -219 -152q-55 0 -99 23l-39 -75z" />
    <glyph glyph-name="sterling" unicode="&#xa3;" 
d="M-12 0l13 70h80l50 263h-75l13 66h74l27 132q39 196 233 196q135 0 165 -119l-86 -24q-5 17 -8 25t-12.5 22t-27 20t-43.5 6q-32 0 -57.5 -13t-39 -33.5t-20.5 -36.5t-10 -30l-33 -145h164l-13 -66h-163l-50 -263h274l-13 -70h-442z" />
    <glyph glyph-name="currency" unicode="&#xa4;" 
d="M27 150l55 57q-52 64 -52 150q0 96 54 150l-57 57l44 44l56 -56q62 53 151 53q92 0 150 -52l56 56l45 -45l-54 -55q51 -58 51 -152q0 -88 -51 -151l54 -56l-43 -43l-54 58q-62 -56 -154 -56t-154 55l-54 -57zM96 357q0 -78 53.5 -132t128.5 -54q77 0 129.5 54t52.5 132
t-52.5 132t-129.5 54q-75 0 -128.5 -54.5t-53.5 -131.5z" />
    <glyph glyph-name="yen" unicode="&#xa5;" 
d="M161 0l30 152h-153l10 51h153l17 88h-152l10 51h124l-130 370h92l84 -253q12 -35 25 -91h5q26 51 53 87l183 257h100l-275 -370h132l-10 -51h-159l-17 -88h158l-10 -51h-158l-30 -152h-82z" />
    <glyph glyph-name="brokenbar" unicode="&#xa6;" horiz-adv-x="222" 
d="M78 -175v350h66v-350h-66zM78 325v350h66v-350h-66z" />
    <glyph glyph-name="section" unicode="&#xa7;" 
d="M-8 10l73 32q4 -19 9.5 -32.5t17.5 -33t35.5 -30t56.5 -10.5q63 0 100.5 28.5t37.5 73.5q0 35 -18 52t-70 42l-85 42q-86 44 -86 116q0 61 41.5 100t96.5 53q-37 21 -56 47t-19 71q0 68 58.5 117t146.5 49q82 0 125.5 -38t51.5 -80l-72 -33q-8 23 -18 39t-35 31t-61 15
q-51 0 -82.5 -25.5t-31.5 -66.5q0 -28 16 -47t49 -38l92 -49q96 -51 96 -130q0 -54 -38 -91.5t-89 -51.5v-2q32 -18 51 -42.5t19 -68.5q0 -77 -62 -128t-158 -51q-160 0 -192 140zM207 230l84 -42q92 41 92 100q0 50 -56 79l-80 43l-33 -12q-34 -12 -53.5 -36.5t-19.5 -52.5
q0 -27 16.5 -44.5t49.5 -34.5z" />
    <glyph glyph-name="dieresis" unicode="&#xa8;" horiz-adv-x="241" 
d="M55 691l18 90h96l-18 -90h-96zM235 691l18 90h96l-18 -90h-96z" />
    <glyph glyph-name="copyright" unicode="&#xa9;" horiz-adv-x="800" 
d="M531 281h62q-15 -71 -64 -113t-116 -42q-97 0 -156.5 64t-59.5 161q0 98 57.5 161t155.5 63q71 0 122 -40t60 -110h-61q-8 40 -40.5 65t-79.5 25q-70 0 -109 -45.5t-39 -116.5q0 -70 41.5 -118.5t108.5 -48.5q47 0 79 26t39 69zM29 356q0 154 108.5 262.5t262.5 108.5
t262.5 -108.5t108.5 -262.5t-108.5 -262.5t-262.5 -108.5t-262.5 108.5t-108.5 262.5zM95 356q0 -131 87.5 -221t217.5 -90t217.5 90t87.5 221t-87.5 221t-217.5 90t-217.5 -90t-87.5 -221z" />
    <glyph glyph-name="ordfeminine" unicode="&#xaa;" horiz-adv-x="349" 
d="M248 365l11 55h-2q-62 -62 -132 -62q-44 0 -67 26t-23 70q0 49 41 84.5t122 39.5l94 4q7 40 7 52q0 51 -64 51q-67 0 -96 -63l-49 16q48 89 151 89q50 0 84 -24t34 -69q0 -18 -7 -55l-33 -158l-3 -15q-8 -30 -8 -41h-60zM268 462l17 77l-57 -2q-133 -5 -133 -77
q0 -56 55 -56q22 0 45.5 10t37 20t35.5 28z" />
    <glyph glyph-name="guillemotleft" unicode="&#xab;" horiz-adv-x="481" 
d="M26 308l186 206l50 -42l-149 -176l81 -195l-60 -29zM225 308l186 206l50 -42l-149 -176l81 -195l-60 -29z" />
    <glyph glyph-name="logicalnot" unicode="&#xac;" horiz-adv-x="600" 
d="M487 108v209h-440v66h506v-275h-66z" />
    <glyph glyph-name="sfthyphen" unicode="&#xad;" horiz-adv-x="833" 
 />
    <glyph glyph-name="registered" unicode="&#xae;" horiz-adv-x="800" 
d="M322 325v-186h-60v422h161q146 0 146 -119q0 -102 -109 -115l120 -188h-68l-114 186h-76zM322 374h75q27 0 43 1.5t34 8t26.5 22t8.5 39.5q0 67 -96 67h-91v-138zM29 356q0 154 108.5 262.5t262.5 108.5t262.5 -108.5t108.5 -262.5t-108.5 -262.5t-262.5 -108.5
t-262.5 108.5t-108.5 262.5zM95 356q0 -131 87.5 -221t217.5 -90t217.5 90t87.5 221t-87.5 221t-217.5 90t-217.5 -90t-87.5 -221z" />
    <glyph glyph-name="overscore" unicode="&#xaf;" horiz-adv-x="241" 
d="M46 705l13 54h278l-13 -54h-278z" />
    <glyph glyph-name="degree" unicode="&#xb0;" horiz-adv-x="400" 
d="M86 574q0 63 45 108t108 45t108 -45t45 -108t-45 -108t-108 -45t-108 45t-45 108zM140 574q0 -42 28.5 -70.5t70.5 -28.5t70.5 28.5t28.5 70.5t-28.5 70.5t-70.5 28.5t-70.5 -28.5t-28.5 -70.5z" />
    <glyph glyph-name="plusminus" unicode="&#xb1;" horiz-adv-x="600" 
d="M267 102v169h-220v66h220v169h66v-169h220v-66h-220v-169h-66zM47 0v66h506v-66h-506z" />
    <glyph glyph-name="twosuperior" unicode="&#xb2;" horiz-adv-x="361" 
d="M14 291l10 48l213 173q38 31 57 55.5t19 51.5q0 58 -74 58q-11 0 -20.5 -1.5t-16.5 -3.5t-13.5 -6.5t-11 -7t-9 -9t-6.5 -9t-5.5 -10t-4 -9t-2.5 -9.5l-3 -7l-61 8q28 114 161 114q63 0 97.5 -26t34.5 -72q0 -42 -21 -75.5t-69 -70.5l-183 -140v-2h216l-10 -50h-298z" />
    <glyph glyph-name="threesuperior" unicode="&#xb3;" horiz-adv-x="361" 
d="M142 622l-57 16q8 15 14.5 24t25 27t50 28t73.5 10q58 0 93 -24.5t35 -68.5q0 -96 -115 -117v-2q80 -17 80 -90q0 -57 -47 -99t-125 -42q-73 0 -104.5 33.5t-34.5 74.5l58 12q5 -70 81 -70q45 0 73.5 28.5t28.5 65.5q0 34 -21.5 48t-49.5 14q-24 0 -39 -4l9 53
q136 0 136 83q0 55 -72 55q-67 0 -92 -55z" />
    <glyph glyph-name="acute" unicode="&#xb4;" horiz-adv-x="241" 
d="M108 661l115 142h112l-157 -142h-70z" />
    <glyph glyph-name="mu" unicode="&#xb5;" horiz-adv-x="574" 
d="M550 591l-114 -591h-88l18 92l-2 2q-42 -42 -97 -74t-103 -32q-44 0 -70 37l-41 -213h-88l150 779h88l-73 -379q-11 -49 -11 -82q0 -31 21 -47.5t53 -16.5q12 0 24.5 2.5t25 7.5t23.5 10t24 14t21 14.5t21 16t18.5 15t17.5 15t14 12.5l80 418h88z" />
    <glyph glyph-name="paragraph" unicode="&#xb6;" horiz-adv-x="600" 
d="M163 -124l94 458q-79 0 -127 41.5t-48 106.5q0 74 39.5 127.5t100 78t132.5 24.5h238l-173 -836h-66l161 776h-124l-161 -776h-66z" />
    <glyph glyph-name="ch270" unicode="&#xb7;" horiz-adv-x="278" 
d="M78 318q0 26 17.5 43.5t43.5 17.5t43.5 -17.5t17.5 -43.5t-17.5 -43.5t-43.5 -17.5t-43.5 17.5t-17.5 43.5z" />
    <glyph glyph-name="cedilla" unicode="&#xb8;" horiz-adv-x="241" 
d="M50 0h42l-55 -58l2 -2q12 3 34 3q26 0 46.5 -14.5t20.5 -47.5q0 -40 -33.5 -67t-94.5 -27q-59 0 -97 23l21 35q32 -15 80 -15q28 0 43 12.5t15 31.5q0 35 -42 35q-25 0 -42 -11l-17 20z" />
    <glyph glyph-name="onesuperior" unicode="&#xb9;" horiz-adv-x="361" 
d="M142 291l75 360l-119 -77l-26 44l161 102h64l-89 -429h-66z" />
    <glyph glyph-name="ordmasculine" unicode="&#xba;" horiz-adv-x="361" 
d="M177 358q-66 0 -101.5 36.5t-35.5 97.5q0 89 54.5 162t149.5 73q68 0 103.5 -35.5t35.5 -98.5q0 -90 -56 -162.5t-150 -72.5zM177 404q46 0 79.5 33t47 75.5t13.5 86.5q0 82 -81 82q-59 0 -94.5 -60.5t-35.5 -127.5q0 -89 71 -89z" />
    <glyph glyph-name="guillemotright" unicode="&#xbb;" horiz-adv-x="481" 
d="M419 278l-186 -206l-50 42l149 176l-81 195l60 29zM220 278l-186 -206l-50 42l149 176l-81 195l60 29z" />
    <glyph glyph-name="onequarter" unicode="&#xbc;" horiz-adv-x="834" 
d="M627 0l17 79h-200l12 58l239 292h87l-64 -300h60l-9 -50h-59l-17 -79h-66zM652 129l46 195q5 21 15 47h-2l-199 -242h140zM138 -24l433 763h66l-433 -763h-66zM112 291l75 360l-119 -77l-26 44l161 102h64l-89 -429h-66z" />
    <glyph glyph-name="onehalf" unicode="&#xbd;" horiz-adv-x="834" 
d="M108 -24l433 763h66l-433 -763h-66zM112 291l75 360l-119 -77l-26 44l161 102h64l-89 -429h-66zM437 0l10 48l213 173q38 31 57 55.5t19 51.5q0 58 -74 58q-11 0 -20.5 -1.5t-16.5 -3.5t-13.5 -6.5t-11 -7t-9 -9t-6.5 -9t-5.5 -10t-4 -9t-3.5 -8.5l-2 -8l-61 8
q28 114 161 114q63 0 97.5 -26t34.5 -72q0 -42 -21 -75.5t-69 -70.5l-183 -140v-2h216l-10 -50h-298z" />
    <glyph glyph-name="threequarters" unicode="&#xbe;" horiz-adv-x="834" 
d="M653 0l17 79h-200l12 58l239 292h87l-64 -300h60l-9 -50h-59l-17 -79h-66zM678 129l46 195q5 21 15 47h-2l-199 -242h140zM196 -24l433 763h66l-433 -763h-66zM142 622l-57 16q8 15 14.5 24t25 27t50 28t73.5 10q58 0 93 -24.5t35 -68.5q0 -96 -115 -117v-2
q80 -17 80 -90q0 -57 -47 -99t-125 -42q-73 0 -104.5 33.5t-34.5 74.5l58 12q5 -70 81 -70q45 0 73.5 28.5t28.5 65.5q0 34 -21.5 48t-49.5 14q-24 0 -39 -4l9 53q136 0 136 83q0 55 -72 55q-67 0 -92 -55z" />
    <glyph glyph-name="questiondown" unicode="&#xbf;" horiz-adv-x="519" 
d="M306 391l-5 -31q-5 -33 -10 -53t-20.5 -47.5t-40.5 -48.5l-82 -68q-65 -53 -65 -117q0 -47 28.5 -69.5t74.5 -22.5q53 0 84 32t36 63l84 -29q-1 -1 -8.5 -15.5t-16 -27.5t-26.5 -31t-39 -30.5t-54.5 -22t-72.5 -9.5q-82 0 -130 39t-48 119q0 90 82 157l90 73
q26 20 36.5 43t19.5 70l5 26h78zM345 591l-20 -104h-98l20 104h98z" />
    <glyph glyph-name="Agrave" unicode="&#xc0;" horiz-adv-x="667" 
d="M298 883h89l76 -120h-60zM-52 0l412 712h117l132 -712h-92l-34 189h-329l-108 -189h-98zM469 263l-52 288q-10 51 -12 79h-5q-18 -40 -55 -106l-149 -261h273z" />
    <glyph glyph-name="Aacute" unicode="&#xc1;" horiz-adv-x="667" 
d="M368 762l98 120h95l-133 -120h-60zM-52 0l412 712h117l132 -712h-92l-34 189h-329l-108 -189h-98zM469 263l-52 288q-10 51 -12 79h-5q-18 -40 -55 -106l-149 -261h273z" />
    <glyph glyph-name="Acircumflex" unicode="&#xc2;" horiz-adv-x="667" 
d="M283 748l109 114h70l67 -114h-59l-47 77l-78 -77h-62zM-52 0l412 712h117l132 -712h-92l-34 189h-329l-108 -189h-98zM469 263l-52 288q-10 51 -12 79h-5q-18 -40 -55 -106l-149 -261h273z" />
    <glyph glyph-name="Atilde" unicode="&#xc3;" horiz-adv-x="667" 
d="M333 758h-40q4 28 24 57.5t60 29.5q20 0 56 -21q38 -22 52 -22q29 0 36 41h40q-3 -19 -10.5 -36.5t-26.5 -34t-45 -16.5q-22 0 -54 21q-34 18 -51 18t-28 -10.5t-13 -26.5zM-52 0l412 712h117l132 -712h-92l-34 189h-329l-108 -189h-98zM469 263l-52 288q-10 51 -12 79
h-5q-18 -40 -55 -106l-149 -261h273z" />
    <glyph glyph-name="Adieresis" unicode="&#xc4;" horiz-adv-x="667" 
d="M-52 0l412 712h117l132 -712h-92l-34 189h-329l-108 -189h-98zM469 263l-52 288q-10 51 -12 79h-5q-18 -40 -55 -106l-149 -261h273zM276 787l18 90h96l-18 -90h-96zM456 787l18 90h96l-18 -90h-96z" />
    <glyph glyph-name="Aring" unicode="&#xc5;" horiz-adv-x="667" 
d="M-52 0l412 712h117l132 -712h-92l-34 189h-329l-108 -189h-98zM469 263l-52 288q-10 51 -12 79h-5q-18 -40 -55 -106l-149 -261h273zM328 828q0 41 28 69t69 28t69 -28t28 -69t-28 -69t-69 -28t-69 28t-28 69zM371 828q0 -23 15.5 -38.5t38.5 -15.5t38.5 15.5t15.5 38.5
t-15.5 38.5t-38.5 15.5t-38.5 -15.5t-15.5 -38.5z" />
    <glyph glyph-name="AE" unicode="&#xc6;" horiz-adv-x="889" 
d="M405 0l38 198h-260l-153 -198h-108l555 712h427l-14 -74h-274l-45 -232h258l-14 -74h-258l-50 -258h285l-14 -74h-373zM457 272l71 370h-9q-21 -33 -67 -93l-216 -277h221z" />
    <glyph glyph-name="Ccedilla" unicode="&#xc7;" horiz-adv-x="648" 
d="M492 200l88 -23q-8 -25 -20.5 -49t-36.5 -51t-55 -46.5t-77.5 -32.5t-102.5 -13l-42 -43l2 -2q12 3 34 3q26 0 46.5 -14.5t20.5 -47.5q0 -40 -33.5 -67t-94.5 -27q-59 0 -97 23l21 35q28 -16 80 -16q28 0 43 13t15 32q0 35 -42 35q-25 0 -42 -11l-17 20l67 71
q-104 12 -159.5 83.5t-55.5 180.5q0 63 14 127.5t44 127t72.5 111t105.5 78.5t137 30q66 0 114.5 -20t73 -51t35.5 -58t13 -52l-92 -20q0 14 -7.5 33.5t-22.5 41.5t-45.5 37t-69.5 15q-68 0 -123 -38.5t-87 -97.5t-49 -123.5t-17 -124.5q0 -108 41 -159t125 -51
q77 0 125 40.5t71 100.5z" />
    <glyph glyph-name="Egrave" unicode="&#xc8;" 
d="M268 883h89l76 -120h-60zM3 0l137 712h431l-15 -74h-339l-44 -232h321l-16 -74h-319l-49 -258h346l-15 -74h-438z" />
    <glyph glyph-name="Eacute" unicode="&#xc9;" 
d="M308 762l98 120h95l-133 -120h-60zM3 0l137 712h431l-15 -74h-339l-44 -232h321l-16 -74h-319l-49 -258h346l-15 -74h-438z" />
    <glyph glyph-name="Ecircumflex" unicode="&#xca;" 
d="M253 748l109 114h70l67 -114h-59l-47 77l-78 -77h-62zM3 0l137 712h431l-15 -74h-339l-44 -232h321l-16 -74h-319l-49 -258h346l-15 -74h-438z" />
    <glyph glyph-name="Edieresis" unicode="&#xcb;" 
d="M3 0l137 712h431l-15 -74h-339l-44 -232h321l-16 -74h-319l-49 -258h346l-15 -74h-438zM223 787l18 90h96l-18 -90h-96zM403 787l18 90h96l-18 -90h-96z" />
    <glyph glyph-name="Igrave" unicode="&#xcc;" horiz-adv-x="241" 
d="M72 874h89l76 -120h-60zM6 0l137 712h92l-137 -712h-92z" />
    <glyph glyph-name="Iacute" unicode="&#xcd;" horiz-adv-x="241" 
d="M150 767l98 120h95l-133 -120h-60zM6 0l137 712h92l-137 -712h-92z" />
    <glyph glyph-name="Icircumflex" unicode="&#xce;" horiz-adv-x="241" 
d="M6 0l137 712h92l-137 -712h-92zM39 757l136 142h88l84 -142h-74l-59 96l-97 -96h-78z" />
    <glyph glyph-name="Idieresis" unicode="&#xcf;" horiz-adv-x="241" 
d="M6 0l137 712h92l-137 -712h-92zM61 787l18 90h96l-18 -90h-96zM241 787l18 90h96l-18 -90h-96z" />
    <glyph glyph-name="Eth" unicode="&#xd0;" horiz-adv-x="667" 
d="M3 0l68 353h-71l12 56h70l58 303h199q80 0 139 -23.5t92 -64.5t48 -90.5t15 -109.5q0 -73 -25 -146t-72 -136t-125.5 -102.5t-174.5 -39.5h-233zM162 353l-53 -279h112q70 0 126 24t91 62t58 87t32 95.5t9 91.5q0 94 -51 149t-154 55h-114l-44 -229h198l-12 -56h-198z
" />
    <glyph glyph-name="Ntilde" unicode="&#xd1;" horiz-adv-x="704" 
d="M9 0l137 712h118l194 -520q12 -33 27 -94h5q4 52 14 102l99 512h92l-137 -712h-122l-195 518q-18 50 -27 96h-5q0 -56 -8 -93l-100 -521h-92zM318 767h-50q2 19 11.5 41.5t34.5 45t60 22.5q24 0 70 -26q48 -27 65 -27q36 0 45 51h50q-5 -38 -31 -73.5t-72 -35.5
q-22 0 -68 26q-40 23 -63 23q-21 0 -35.5 -13t-16.5 -34z" />
    <glyph glyph-name="Ograve" unicode="&#xd2;" horiz-adv-x="704" 
d="M298 883h89l76 -120h-60zM34 253q0 63 14 127.5t44 127t72.5 111t105.5 78.5t137 30q128 0 195.5 -73.5t67.5 -194.5q0 -79 -23 -160t-67 -152.5t-118 -116.5t-166 -45q-127 0 -194.5 73.5t-67.5 194.5zM130 269q0 -111 41 -162.5t125 -51.5q68 0 123.5 38.5t88 98
t49.5 124t17 124.5q0 111 -41 162t-126 51q-68 0 -123.5 -38.5t-87.5 -97.5t-49 -123.5t-17 -124.5z" />
    <glyph glyph-name="Oacute" unicode="&#xd3;" horiz-adv-x="704" 
d="M368 762l98 120h95l-133 -120h-60zM34 253q0 63 14 127.5t44 127t72.5 111t105.5 78.5t137 30q128 0 195.5 -73.5t67.5 -194.5q0 -79 -23 -160t-67 -152.5t-118 -116.5t-166 -45q-127 0 -194.5 73.5t-67.5 194.5zM130 269q0 -111 41 -162.5t125 -51.5q68 0 123.5 38.5
t88 98t49.5 124t17 124.5q0 111 -41 162t-126 51q-68 0 -123.5 -38.5t-87.5 -97.5t-49 -123.5t-17 -124.5z" />
    <glyph glyph-name="Ocircumflex" unicode="&#xd4;" horiz-adv-x="704" 
d="M283 748l109 114h70l67 -114h-59l-47 77l-78 -77h-62zM34 253q0 63 14 127.5t44 127t72.5 111t105.5 78.5t137 30q128 0 195.5 -73.5t67.5 -194.5q0 -79 -23 -160t-67 -152.5t-118 -116.5t-166 -45q-127 0 -194.5 73.5t-67.5 194.5zM130 269q0 -111 41 -162.5t125 -51.5
q68 0 123.5 38.5t88 98t49.5 124t17 124.5q0 111 -41 162t-126 51q-68 0 -123.5 -38.5t-87.5 -97.5t-49 -123.5t-17 -124.5z" />
    <glyph glyph-name="Otilde" unicode="&#xd5;" horiz-adv-x="704" 
d="M333 758h-40q4 28 24 57.5t60 29.5q20 0 56 -21q38 -22 52 -22q29 0 36 41h40q-3 -19 -10.5 -36.5t-26.5 -34t-45 -16.5q-22 0 -54 21q-34 18 -51 18t-28 -10.5t-13 -26.5zM34 253q0 63 14 127.5t44 127t72.5 111t105.5 78.5t137 30q128 0 195.5 -73.5t67.5 -194.5
q0 -79 -23 -160t-67 -152.5t-118 -116.5t-166 -45q-127 0 -194.5 73.5t-67.5 194.5zM130 269q0 -111 41 -162.5t125 -51.5q68 0 123.5 38.5t88 98t49.5 124t17 124.5q0 111 -41 162t-126 51q-68 0 -123.5 -38.5t-87.5 -97.5t-49 -123.5t-17 -124.5z" />
    <glyph glyph-name="Odieresis" unicode="&#xd6;" horiz-adv-x="704" 
d="M34 253q0 63 14 127.5t44 127t72.5 111t105.5 78.5t137 30q128 0 195.5 -73.5t67.5 -194.5q0 -79 -23 -160t-67 -152.5t-118 -116.5t-166 -45q-127 0 -194.5 73.5t-67.5 194.5zM130 269q0 -111 41 -162.5t125 -51.5q68 0 123.5 38.5t88 98t49.5 124t17 124.5
q0 111 -41 162t-126 51q-68 0 -123.5 -38.5t-87.5 -97.5t-49 -123.5t-17 -124.5zM287 787l18 90h96l-18 -90h-96zM467 787l18 90h96l-18 -90h-96z" />
    <glyph glyph-name="multiply" unicode="&#xd7;" horiz-adv-x="600" 
d="M300 207l-184 -185l-46 46l184 185l-184 184l46 45l184 -183l185 183l45 -45l-184 -184l184 -185l-44 -46z" />
    <glyph glyph-name="Oslash" unicode="&#xd8;" horiz-adv-x="704" 
d="M139 183l413 385q-37 85 -145 85q-68 0 -123.5 -38.5t-87.5 -97.5t-49 -123.5t-17 -124.5q0 -50 9 -86zM566 522l-412 -384q35 -83 142 -83q68 0 123.5 38.5t88 98t49.5 124t17 124.5q0 56 -8 82zM-24 31l88 82q-30 60 -30 140q0 63 14 127.5t44 127t72.5 111t105.5 78.5
t137 30q144 0 213 -96l80 75l31 -30l-89 -83q28 -57 28 -134q0 -79 -23 -160t-67 -152.5t-118 -116.5t-166 -45q-140 0 -209 91l-82 -76z" />
    <glyph glyph-name="Ugrave" unicode="&#xd9;" horiz-adv-x="667" 
d="M298 883h89l76 -120h-60zM233 712l-84 -438q-11 -46 -11 -87q0 -60 39.5 -94t103.5 -34q162 0 201 203l87 450h92l-90 -466q-49 -261 -309 -261q-99 0 -157.5 56t-58.5 142q0 46 15 112l80 417h92z" />
    <glyph glyph-name="Uacute" unicode="&#xda;" horiz-adv-x="667" 
d="M368 762l98 120h95l-133 -120h-60zM233 712l-84 -438q-11 -46 -11 -87q0 -60 39.5 -94t103.5 -34q162 0 201 203l87 450h92l-90 -466q-49 -261 -309 -261q-99 0 -157.5 56t-58.5 142q0 46 15 112l80 417h92z" />
    <glyph glyph-name="Ucircumflex" unicode="&#xdb;" horiz-adv-x="667" 
d="M233 712l-84 -438q-11 -46 -11 -87q0 -60 39.5 -94t103.5 -34q162 0 201 203l87 450h92l-90 -466q-49 -261 -309 -261q-99 0 -157.5 56t-58.5 142q0 46 15 112l80 417h92zM245 757l136 142h88l84 -142h-74l-59 96l-97 -96h-78z" />
    <glyph glyph-name="Udieresis" unicode="&#xdc;" horiz-adv-x="667" 
d="M233 712l-84 -438q-11 -46 -11 -87q0 -60 39.5 -94t103.5 -34q162 0 201 203l87 450h92l-90 -466q-49 -261 -309 -261q-99 0 -157.5 56t-58.5 142q0 46 15 112l80 417h92zM268 787l18 90h96l-18 -90h-96zM448 787l18 90h96l-18 -90h-96z" />
    <glyph glyph-name="Yacute" unicode="&#xdd;" horiz-adv-x="611" 
d="M368 762l98 120h95l-133 -120h-60zM202 0l56 291l-169 421h104l94 -253q18 -49 29 -91h5q26 47 57 87l196 257h112l-336 -421l-56 -291h-92z" />
    <glyph glyph-name="Thorn" unicode="&#xde;" horiz-adv-x="593" 
d="M6 0l137 712h92l-22 -112h120q107 0 166.5 -45.5t59.5 -135.5q0 -104 -67 -172.5t-197 -68.5h-163l-34 -178h-92zM147 252h152q81 0 124.5 44.5t43.5 117.5q0 112 -149 112h-119z" />
    <glyph glyph-name="germandbls" unicode="&#xdf;" horiz-adv-x="574" 
d="M8 0l108 565q9 47 24.5 83.5t42.5 70t71.5 52t103.5 18.5q89 0 136.5 -46t47.5 -118q0 -81 -48 -134t-113 -64v-6q54 -7 91.5 -47.5t37.5 -110.5q0 -103 -69.5 -186t-176.5 -83q-68 0 -103 20l35 68q28 -18 68 -18q69 0 113.5 62.5t44.5 140.5q0 84 -76 108q-26 8 -92 8
l15 70q74 0 103 15q82 42 82 152q0 46 -25.5 72.5t-72.5 26.5q-63 0 -100 -39.5t-50 -104.5l-110 -575h-88z" />
    <glyph glyph-name="agrave" unicode="&#xe0;" horiz-adv-x="537" 
d="M258 767h85l72 -114h-57zM323 0l17 91h-3q-17 -20 -40.5 -39.5t-70 -41.5t-92.5 -22q-63 0 -100.5 42t-37.5 101q0 93 63.5 155.5t186.5 68.5l144 6q11 46 11 87q0 89 -98 89q-33 0 -59.5 -10.5t-44 -29.5t-26.5 -33.5t-18 -34.5l-75 26q14 28 29 49t41.5 46t67.5 39
t92 14q76 0 127.5 -39.5t51.5 -115.5q0 -36 -11 -91l-55 -289q-9 -42 -12 -68h-88zM354 161l26 134l-78 -3q-47 -2 -82 -9t-67 -23t-48.5 -45.5t-16.5 -71.5q0 -81 84 -81q33 0 69 17t57.5 34t55.5 48z" />
    <glyph glyph-name="aacute" unicode="&#xe1;" horiz-adv-x="537" 
d="M294 651l93 114h90l-126 -114h-57zM323 0l17 91h-3q-17 -20 -40.5 -39.5t-70 -41.5t-92.5 -22q-63 0 -100.5 42t-37.5 101q0 93 63.5 155.5t186.5 68.5l144 6q11 46 11 87q0 89 -98 89q-33 0 -59.5 -10.5t-44 -29.5t-26.5 -33.5t-18 -34.5l-75 26q14 28 29 49t41.5 46
t67.5 39t92 14q76 0 127.5 -39.5t51.5 -115.5q0 -36 -11 -91l-55 -289q-9 -42 -12 -68h-88zM354 161l26 134l-78 -3q-47 -2 -82 -9t-67 -23t-48.5 -45.5t-16.5 -71.5q0 -81 84 -81q33 0 69 17t57.5 34t55.5 48z" />
    <glyph glyph-name="acircumflex" unicode="&#xe2;" horiz-adv-x="537" 
d="M214 636l100 104h65l61 -104h-54l-43 70l-72 -70h-57zM323 0l17 91h-3q-17 -20 -40.5 -39.5t-70 -41.5t-92.5 -22q-63 0 -100.5 42t-37.5 101q0 93 63.5 155.5t186.5 68.5l144 6q11 46 11 87q0 89 -98 89q-33 0 -59.5 -10.5t-44 -29.5t-26.5 -33.5t-18 -34.5l-75 26
q14 28 29 49t41.5 46t67.5 39t92 14q76 0 127.5 -39.5t51.5 -115.5q0 -36 -11 -91l-55 -289q-9 -42 -12 -68h-88zM354 161l26 134l-78 -3q-47 -2 -82 -9t-67 -23t-48.5 -45.5t-16.5 -71.5q0 -81 84 -81q33 0 69 17t57.5 34t55.5 48z" />
    <glyph glyph-name="atilde" unicode="&#xe3;" horiz-adv-x="537" 
d="M251 632h-37q2 15 8 31t24.5 32.5t44.5 16.5q16 0 52 -19q38 -20 47 -20q26 0 33 38h37q-3 -27 -22.5 -53.5t-52.5 -26.5q-22 0 -50 19q-30 16 -47 16q-16 0 -26 -9.5t-11 -24.5zM323 0l17 91h-3q-17 -20 -40.5 -39.5t-70 -41.5t-92.5 -22q-63 0 -100.5 42t-37.5 101
q0 93 63.5 155.5t186.5 68.5l144 6q11 46 11 87q0 89 -98 89q-33 0 -59.5 -10.5t-44 -29.5t-26.5 -33.5t-18 -34.5l-75 26q14 28 29 49t41.5 46t67.5 39t92 14q76 0 127.5 -39.5t51.5 -115.5q0 -36 -11 -91l-55 -289q-9 -42 -12 -68h-88zM354 161l26 134l-78 -3
q-47 -2 -82 -9t-67 -23t-48.5 -45.5t-16.5 -71.5q0 -81 84 -81q33 0 69 17t57.5 34t55.5 48z" />
    <glyph glyph-name="adieresis" unicode="&#xe4;" horiz-adv-x="537" 
d="M323 0l17 91h-3q-17 -20 -40.5 -39.5t-70 -41.5t-92.5 -22q-63 0 -100.5 42t-37.5 101q0 93 63.5 155.5t186.5 68.5l144 6q11 46 11 87q0 89 -98 89q-33 0 -59.5 -10.5t-44 -29.5t-26.5 -33.5t-18 -34.5l-75 26q14 28 29 49t41.5 46t67.5 39t92 14q76 0 127.5 -39.5
t51.5 -115.5q0 -36 -11 -91l-55 -289q-9 -42 -12 -68h-88zM354 161l26 134l-78 -3q-47 -2 -82 -9t-67 -23t-48.5 -45.5t-16.5 -71.5q0 -81 84 -81q33 0 69 17t57.5 34t55.5 48zM203 691l18 90h96l-18 -90h-96zM383 691l18 90h96l-18 -90h-96z" />
    <glyph glyph-name="aring" unicode="&#xe5;" horiz-adv-x="537" 
d="M323 0l17 91h-3q-17 -20 -40.5 -39.5t-70 -41.5t-92.5 -22q-63 0 -100.5 42t-37.5 101q0 93 63.5 155.5t186.5 68.5l144 6q11 46 11 87q0 89 -98 89q-33 0 -59.5 -10.5t-44 -29.5t-26.5 -33.5t-18 -34.5l-75 26q14 28 29 49t41.5 46t67.5 39t92 14q76 0 127.5 -39.5
t51.5 -115.5q0 -36 -11 -91l-55 -289q-9 -42 -12 -68h-88zM354 161l26 134l-78 -3q-47 -2 -82 -9t-67 -23t-48.5 -45.5t-16.5 -71.5q0 -81 84 -81q33 0 69 17t57.5 34t55.5 48zM245 732q0 41 28 69t69 28t69 -28t28 -69t-28 -69t-69 -28t-69 28t-28 69zM288 732
q0 -23 15.5 -38.5t38.5 -15.5t38.5 15.5t15.5 38.5t-15.5 38.5t-38.5 15.5t-38.5 -15.5t-15.5 -38.5z" />
    <glyph glyph-name="ae" unicode="&#xe6;" horiz-adv-x="889" 
d="M724 161l70 -27q-8 -18 -23 -39t-42.5 -47t-71.5 -43t-96 -17q-78 0 -122.5 38t-55.5 82q-40 -47 -99.5 -83.5t-127.5 -36.5q-72 0 -112 41.5t-40 101.5q0 93 63.5 155.5t186.5 68.5l144 6q11 46 11 87q0 89 -98 89q-33 0 -59.5 -10.5t-44 -29.5t-26.5 -33.5t-18 -34.5
l-75 26q14 28 29 49t41.5 46t67.5 39t92 14q66 0 106.5 -30t53.5 -74q23 41 71.5 72.5t108.5 31.5q100 0 147.5 -55t47.5 -153q0 -49 -18 -103h-364q-8 -46 -8 -96q0 -71 32 -106.5t91 -35.5q40 0 78 30t60 77zM481 358h277q7 47 7 60q0 55 -28 87t-79 32q-74 0 -125 -65
q-32 -47 -52 -114zM362 161l26 134l-78 -3q-47 -2 -82 -9t-67 -23t-48.5 -45.5t-16.5 -71.5q0 -81 84 -81q33 0 69 17t57.5 34t55.5 48z" />
    <glyph glyph-name="ccedilla" unicode="&#xe7;" horiz-adv-x="519" 
d="M493 448l-80 -23q-5 45 -28 76.5t-72 31.5q-64 0 -112.5 -53t-70.5 -124.5t-22 -142.5q0 -155 114 -155q91 0 143 108l76 -26q-71 -148 -214 -152l-44 -46l2 -2q12 3 34 3q25 0 46 -16t21 -46q0 -40 -33.5 -67t-94.5 -27q-59 0 -97 23l21 35q32 -15 80 -15q28 0 43 12.5
t15 31.5q0 35 -42 35q-26 0 -42 -11l-17 20l69 70q-82 12 -127 72.5t-45 150.5q0 54 12 108.5t37 105.5t60 90.5t85.5 63.5t108.5 24q146 0 174 -155z" />
    <glyph glyph-name="egrave" unicode="&#xe8;" 
d="M258 767h85l72 -114h-57zM385 161l70 -27q-8 -18 -23 -39t-42.5 -47t-71.5 -43t-96 -17q-97 0 -151.5 62t-54.5 161q0 54 12 108.5t37 105.5t60 90.5t85.5 63.5t108.5 24q98 0 146.5 -57t48.5 -155q0 -53 -18 -118h-384q-8 -24 -8 -77q0 -71 32 -106.5t91 -35.5
q54 0 94.5 29.5t63.5 77.5zM122 339h297q7 47 7 60q0 67 -32 102.5t-85 35.5q-39 0 -71.5 -17.5t-54.5 -47.5t-36.5 -62.5t-24.5 -70.5z" />
    <glyph glyph-name="eacute" unicode="&#xe9;" 
d="M294 651l93 114h90l-126 -114h-57zM385 161l70 -27q-8 -18 -23 -39t-42.5 -47t-71.5 -43t-96 -17q-97 0 -151.5 62t-54.5 161q0 54 12 108.5t37 105.5t60 90.5t85.5 63.5t108.5 24q98 0 146.5 -57t48.5 -155q0 -53 -18 -118h-384q-8 -24 -8 -77q0 -71 32 -106.5t91 -35.5
q54 0 94.5 29.5t63.5 77.5zM122 339h297q7 47 7 60q0 67 -32 102.5t-85 35.5q-39 0 -71.5 -17.5t-54.5 -47.5t-36.5 -62.5t-24.5 -70.5z" />
    <glyph glyph-name="ecircumflex" unicode="&#xea;" 
d="M214 636l100 104h65l61 -104h-54l-43 70l-72 -70h-57zM385 161l70 -27q-8 -18 -23 -39t-42.5 -47t-71.5 -43t-96 -17q-97 0 -151.5 62t-54.5 161q0 54 12 108.5t37 105.5t60 90.5t85.5 63.5t108.5 24q98 0 146.5 -57t48.5 -155q0 -53 -18 -118h-384q-8 -24 -8 -77
q0 -71 32 -106.5t91 -35.5q54 0 94.5 29.5t63.5 77.5zM122 339h297q7 47 7 60q0 67 -32 102.5t-85 35.5q-39 0 -71.5 -17.5t-54.5 -47.5t-36.5 -62.5t-24.5 -70.5z" />
    <glyph glyph-name="edieresis" unicode="&#xeb;" 
d="M385 161l70 -27q-8 -18 -23 -39t-42.5 -47t-71.5 -43t-96 -17q-97 0 -151.5 62t-54.5 161q0 54 12 108.5t37 105.5t60 90.5t85.5 63.5t108.5 24q98 0 146.5 -57t48.5 -155q0 -53 -18 -118h-384q-8 -24 -8 -77q0 -71 32 -106.5t91 -35.5q54 0 94.5 29.5t63.5 77.5z
M122 339h297q7 47 7 60q0 67 -32 102.5t-85 35.5q-39 0 -71.5 -17.5t-54.5 -47.5t-36.5 -62.5t-24.5 -70.5zM213 691l18 90h96l-18 -90h-96zM393 691l18 90h96l-18 -90h-96z" />
    <glyph glyph-name="igrave" unicode="&#xec;" horiz-adv-x="241" 
d="M54 760h85l72 -114h-57zM8 0l114 591h88l-114 -591h-88z" />
    <glyph glyph-name="iacute" unicode="&#xed;" horiz-adv-x="241" 
d="M124 651l93 114h90l-126 -114h-57zM8 0l114 591h88l-114 -591h-88z" />
    <glyph glyph-name="icircumflex" unicode="&#xee;" horiz-adv-x="241" 
d="M8 0l114 591h88l-114 -591h-88zM24 661l136 142h88l84 -142h-74l-59 96l-97 -96h-78z" />
    <glyph glyph-name="idieresis" unicode="&#xef;" horiz-adv-x="241" 
d="M8 0l114 591h88l-114 -591h-88zM55 691l18 90h96l-18 -90h-96zM235 691l18 90h96l-18 -90h-96z" />
    <glyph glyph-name="eth" unicode="&#xf0;" horiz-adv-x="574" 
d="M315 502q-52 0 -93 -27.5t-65 -72t-36.5 -93t-12.5 -96.5q0 -69 29.5 -112t88.5 -43q65 0 116 50.5t75.5 119.5t24.5 138q0 73 -38 104.5t-89 31.5zM202 606l-34 34l115 54q-33 29 -69 49l58 43q60 -39 83 -59l113 53l36 -35l-112 -52q142 -136 142 -316q0 -69 -20 -137
t-57.5 -125t-98.5 -92t-136 -35q-97 0 -151.5 62t-54.5 161q0 143 82.5 250t209.5 107q66 0 101 -38l2 2q-27 61 -91 127z" />
    <glyph glyph-name="ntilde" unicode="&#xf1;" horiz-adv-x="574" 
d="M348 0l73 379q11 49 11 82q0 31 -21 47.5t-53 16.5q-12 0 -24.5 -2.5t-25 -7.5t-23.5 -10t-24 -14t-21 -14.5t-21 -16t-18.5 -15t-17.5 -15t-14 -12.5l-80 -418h-88l114 591h88l-18 -92l2 -2q42 42 98.5 74t110.5 32q53 0 90.5 -28.5t37.5 -88.5q0 -32 -10 -80l-78 -406
h-88zM218 671h-50q2 19 11.5 41.5t34.5 45t60 22.5q24 0 70 -26q48 -27 65 -27q36 0 45 51h50q-5 -38 -31 -73.5t-72 -35.5q-22 0 -68 26q-40 23 -63 23q-21 0 -35.5 -13t-16.5 -34z" />
    <glyph glyph-name="ograve" unicode="&#xf2;" horiz-adv-x="574" 
d="M258 767h85l72 -114h-57zM16 211q0 54 12 108.5t37 105.5t60 90.5t85.5 63.5t108.5 24q104 0 159.5 -61t55.5 -165q0 -93 -35 -180.5t-108.5 -148t-168.5 -60.5q-97 0 -151.5 62t-54.5 161zM108 213q0 -70 30 -112.5t88 -42.5q53 0 96 32t68 82.5t38.5 107t13.5 110.5
q0 143 -129 143q-64 0 -112.5 -53t-70.5 -124.5t-22 -142.5z" />
    <glyph glyph-name="oacute" unicode="&#xf3;" horiz-adv-x="574" 
d="M294 651l93 114h90l-126 -114h-57zM16 211q0 54 12 108.5t37 105.5t60 90.5t85.5 63.5t108.5 24q104 0 159.5 -61t55.5 -165q0 -93 -35 -180.5t-108.5 -148t-168.5 -60.5q-97 0 -151.5 62t-54.5 161zM108 213q0 -70 30 -112.5t88 -42.5q53 0 96 32t68 82.5t38.5 107
t13.5 110.5q0 143 -129 143q-64 0 -112.5 -53t-70.5 -124.5t-22 -142.5z" />
    <glyph glyph-name="ocircumflex" unicode="&#xf4;" horiz-adv-x="574" 
d="M224 636l100 104h65l61 -104h-54l-43 70l-72 -70h-57zM16 211q0 54 12 108.5t37 105.5t60 90.5t85.5 63.5t108.5 24q104 0 159.5 -61t55.5 -165q0 -93 -35 -180.5t-108.5 -148t-168.5 -60.5q-97 0 -151.5 62t-54.5 161zM108 213q0 -70 30 -112.5t88 -42.5q53 0 96 32
t68 82.5t38.5 107t13.5 110.5q0 143 -129 143q-64 0 -112.5 -53t-70.5 -124.5t-22 -142.5z" />
    <glyph glyph-name="otilde" unicode="&#xf5;" horiz-adv-x="574" 
d="M251 642h-37q2 15 8 31t24.5 32.5t44.5 16.5q16 0 52 -19q38 -20 47 -20q26 0 33 38h37q-3 -27 -22.5 -53.5t-52.5 -26.5q-22 0 -50 19q-30 16 -47 16q-16 0 -26 -9.5t-11 -24.5zM16 211q0 54 12 108.5t37 105.5t60 90.5t85.5 63.5t108.5 24q104 0 159.5 -61t55.5 -165
q0 -93 -35 -180.5t-108.5 -148t-168.5 -60.5q-97 0 -151.5 62t-54.5 161zM108 213q0 -70 30 -112.5t88 -42.5q53 0 96 32t68 82.5t38.5 107t13.5 110.5q0 143 -129 143q-64 0 -112.5 -53t-70.5 -124.5t-22 -142.5z" />
    <glyph glyph-name="odieresis" unicode="&#xf6;" horiz-adv-x="574" 
d="M16 211q0 54 12 108.5t37 105.5t60 90.5t85.5 63.5t108.5 24q104 0 159.5 -61t55.5 -165q0 -93 -35 -180.5t-108.5 -148t-168.5 -60.5q-97 0 -151.5 62t-54.5 161zM108 213q0 -70 30 -112.5t88 -42.5q53 0 96 32t68 82.5t38.5 107t13.5 110.5q0 143 -129 143
q-64 0 -112.5 -53t-70.5 -124.5t-22 -142.5zM222 691l18 90h96l-18 -90h-96zM402 691l18 90h96l-18 -90h-96z" />
    <glyph glyph-name="divide" unicode="&#xf7;" horiz-adv-x="600" 
d="M47 220v66h506v-66h-506zM239 457q0 26 17.5 43.5t43.5 17.5t43.5 -17.5t17.5 -43.5t-17.5 -43.5t-43.5 -17.5t-43.5 17.5t-17.5 43.5zM239 49q0 26 17.5 43.5t43.5 17.5t43.5 -17.5t17.5 -43.5t-17.5 -43.5t-43.5 -17.5t-43.5 17.5t-17.5 43.5z" />
    <glyph glyph-name="oslash" unicode="&#xf8;" horiz-adv-x="574" 
d="M112 167l318 294q-27 72 -117 72q-64 0 -112.5 -53t-70.5 -124.5t-22 -142.5q0 -26 4 -46zM440 424l-318 -293q28 -73 104 -73q53 0 96 32t68 82.5t38.5 107t13.5 110.5q0 12 -2 34zM-38 28l77 71q-23 52 -23 112q0 54 12 108.5t37 105.5t60 90.5t85.5 63.5t108.5 24
q119 0 175 -83l79 73l21 -26l-83 -77q23 -48 23 -113q0 -93 -35 -180.5t-108.5 -148t-168.5 -60.5q-110 0 -166 82l-73 -68z" />
    <glyph glyph-name="ugrave" unicode="&#xf9;" horiz-adv-x="574" 
d="M258 767h85l72 -114h-57zM550 591l-114 -591h-88l18 92l-2 2q-42 -42 -98.5 -74t-110.5 -32q-53 0 -90.5 28.5t-37.5 88.5q0 32 10 80l78 406h88l-73 -379q-11 -49 -11 -82q0 -31 21 -47.5t53 -16.5q12 0 24.5 2.5t25 7.5t23.5 10t24 14t21 14.5t21 16t18.5 15t17.5 15
t14 12.5l80 418h88z" />
    <glyph glyph-name="uacute" unicode="&#xfa;" horiz-adv-x="574" 
d="M294 651l93 114h90l-126 -114h-57zM550 591l-114 -591h-88l18 92l-2 2q-42 -42 -98.5 -74t-110.5 -32q-53 0 -90.5 28.5t-37.5 88.5q0 32 10 80l78 406h88l-73 -379q-11 -49 -11 -82q0 -31 21 -47.5t53 -16.5q12 0 24.5 2.5t25 7.5t23.5 10t24 14t21 14.5t21 16t18.5 15
t17.5 15t14 12.5l80 418h88z" />
    <glyph glyph-name="ucircumflex" unicode="&#xfb;" horiz-adv-x="574" 
d="M550 591l-114 -591h-88l18 92l-2 2q-42 -42 -98.5 -74t-110.5 -32q-53 0 -90.5 28.5t-37.5 88.5q0 32 10 80l78 406h88l-73 -379q-11 -49 -11 -82q0 -31 21 -47.5t53 -16.5q12 0 24.5 2.5t25 7.5t23.5 10t24 14t21 14.5t21 16t18.5 15t17.5 15t14 12.5l80 418h88z
M183 661l136 142h88l84 -142h-74l-59 96l-97 -96h-78z" />
    <glyph glyph-name="udieresis" unicode="&#xfc;" horiz-adv-x="574" 
d="M550 591l-114 -591h-88l18 92l-2 2q-42 -42 -98.5 -74t-110.5 -32q-53 0 -90.5 28.5t-37.5 88.5q0 32 10 80l78 406h88l-73 -379q-11 -49 -11 -82q0 -31 21 -47.5t53 -16.5q12 0 24.5 2.5t25 7.5t23.5 10t24 14t21 14.5t21 16t18.5 15t17.5 15t14 12.5l80 418h88z
M207 691l18 90h96l-18 -90h-96zM387 691l18 90h96l-18 -90h-96z" />
    <glyph glyph-name="yacute" unicode="&#xfd;" horiz-adv-x="500" 
d="M267 651l93 114h90l-126 -114h-57zM142 9l-100 582h92l60 -417q5 -39 5 -76h6q11 38 37 88l210 405h98l-342 -628l-29 -53q-64 -112 -156 -112q-43 0 -67 10l17 74q3 -1 10.5 -4t15 -4.5t15.5 -1.5q27 0 48.5 16.5t46.5 59.5z" />
    <glyph glyph-name="thorn" unicode="&#xfe;" horiz-adv-x="574" 
d="M-28 -188l185 965h88l-50 -260h2q31 38 76.5 62t92.5 24q74 0 121 -54t47 -155q0 -71 -17.5 -141.5t-50.5 -130.5t-86.5 -97t-119.5 -37q-53 0 -84.5 21.5t-64.5 70.5l-51 -268h-88zM180 440l-56 -292q17 -28 29.5 -43.5t37 -29t56.5 -13.5q50 0 89.5 33.5t61.5 86
t33 106t11 101.5q0 63 -25.5 101.5t-79.5 38.5q-86 0 -157 -89z" />
    <glyph glyph-name="ydieresis" unicode="&#xff;" horiz-adv-x="500" 
d="M142 9l-100 582h92l60 -417q5 -39 5 -76h6q11 38 37 88l210 405h98l-342 -628l-29 -53q-64 -112 -156 -112q-43 0 -67 10l17 74q3 -1 10.5 -4t15 -4.5t15.5 -1.5q27 0 48.5 16.5t46.5 59.5zM170 691l18 90h96l-18 -90h-96zM350 691l18 90h96l-18 -90h-96z" />
    <glyph glyph-name="glyph271" unicode="&#x102;" horiz-adv-x="667" 
d="M-52 0l412 712h117l132 -712h-92l-34 189h-329l-108 -189h-98zM469 263l-52 288q-10 51 -12 79h-5q-18 -40 -55 -106l-149 -261h273zM321 854h37q0 -31 19.5 -49.5t54.5 -18.5q12 0 23.5 2.5t19.5 5.5t15.5 9.5t12 10.5t9.5 11.5t6.5 11t5.5 10.5l3 7h37q-10 -48 -46 -78
t-88 -30t-80.5 27.5t-28.5 80.5z" />
    <glyph glyph-name="glyph272" unicode="&#x103;" horiz-adv-x="537" 
d="M323 0l17 91h-3q-17 -20 -40.5 -39.5t-70 -41.5t-92.5 -22q-63 0 -100.5 42t-37.5 101q0 93 63.5 155.5t186.5 68.5l144 6q11 46 11 87q0 89 -98 89q-33 0 -59.5 -10.5t-44 -29.5t-26.5 -33.5t-18 -34.5l-75 26q14 28 29 49t41.5 46t67.5 39t92 14q76 0 127.5 -39.5
t51.5 -115.5q0 -36 -11 -91l-55 -289q-9 -42 -12 -68h-88zM354 161l26 134l-78 -3q-47 -2 -82 -9t-67 -23t-48.5 -45.5t-16.5 -71.5q0 -81 84 -81q33 0 69 17t57.5 34t55.5 48zM217 751h35q0 -30 18 -47t53 -17q22 0 39 7t28 20.5t14 19t9 17.5h35q-9 -46 -43.5 -74
t-83.5 -28q-104 0 -104 102z" />
    <glyph glyph-name="Cacute" unicode="&#x106;" horiz-adv-x="711" 
d="M492 200l88 -23q-10 -32 -29 -62t-51.5 -61.5t-85 -50t-118.5 -18.5q-127 0 -194.5 73.5t-67.5 194.5q0 63 14 127.5t44 127t72.5 111t105.5 78.5t137 30q66 0 114.5 -20t73 -51t35.5 -58t13 -52l-92 -20q0 14 -7.5 33.5t-22.5 41.5t-45.5 37t-69.5 15q-68 0 -123 -38.5
t-87 -97.5t-49 -123.5t-17 -124.5q0 -108 41 -159t125 -51q77 0 125 40.5t71 100.5zM285 916l115 142h112l-157 -142h-70z" />
    <glyph glyph-name="cacute" unicode="&#x107;" horiz-adv-x="441" 
d="M493 448l-80 -23q-5 45 -28 76.5t-72 31.5q-64 0 -112.5 -53t-70.5 -124.5t-22 -142.5q0 -155 114 -155q91 0 143 108l76 -26q-74 -152 -219 -152q-97 0 -151.5 62t-54.5 161q0 54 12 108.5t37 105.5t60 90.5t85.5 63.5t108.5 24q146 0 174 -155zM88 661l115 142h112
l-157 -142h-70z" />
    <glyph glyph-name="Ccaron" unicode="&#x10c;" horiz-adv-x="711" 
d="M492 200l88 -23q-10 -32 -29 -62t-51.5 -61.5t-85 -50t-118.5 -18.5q-127 0 -194.5 73.5t-67.5 194.5q0 63 14 127.5t44 127t72.5 111t105.5 78.5t137 30q66 0 114.5 -20t73 -51t35.5 -58t13 -52l-92 -20q0 14 -7.5 33.5t-22.5 41.5t-45.5 37t-69.5 15q-68 0 -123 -38.5
t-87 -97.5t-49 -123.5t-17 -124.5q0 -108 41 -159t125 -51q77 0 125 40.5t71 100.5zM266 968l82 -102l82 102h65l-113 -139h-67l-114 139h65z" />
    <glyph glyph-name="ccaron" unicode="&#x10d;" horiz-adv-x="441" 
d="M493 448l-80 -23q-5 45 -28 76.5t-72 31.5q-64 0 -112.5 -53t-70.5 -124.5t-22 -142.5q0 -155 114 -155q91 0 143 108l76 -26q-74 -152 -219 -152q-97 0 -151.5 62t-54.5 161q0 54 12 108.5t37 105.5t60 90.5t85.5 63.5t108.5 24q146 0 174 -155zM69 713l82 -102l82 102
h65l-113 -139h-67l-114 139h65z" />
    <glyph glyph-name="Dslash" unicode="&#x110;" horiz-adv-x="667" 
d="M3 0l68 353h-71l12 56h70l58 303h199q80 0 139 -23.5t92 -64.5t48 -90.5t15 -109.5q0 -73 -25 -146t-72 -136t-125.5 -102.5t-174.5 -39.5h-233zM162 353l-53 -279h112q70 0 126 24t91 62t58 87t32 95.5t9 91.5q0 94 -51 149t-154 55h-114l-44 -229h198l-12 -56h-198z
" />
    <glyph glyph-name="dslash" unicode="&#x111;" horiz-adv-x="574" 
d="M363 655l14 56h104l13 66h88l-13 -66h144l-12 -56h-143l-125 -655h-88l15 78h-2q-77 -90 -174 -90q-80 0 -123.5 56t-44.5 154q-2 105 30 197t94.5 150t140.5 58q96 0 162 -90l27 142h-107zM374 153l56 291q-26 41 -55.5 63t-77.5 22q-59 0 -103.5 -51.5t-65 -124
t-20.5 -149.5q0 -142 105 -142q27 0 51 8t46.5 25t33 27t30.5 31z" />
    <glyph glyph-name="Gbreve" unicode="&#x11e;" horiz-adv-x="767" 
d="M368 379h235l-64 -329q-1 -1 -18.5 -9.5t-22.5 -11t-23 -10.5t-28.5 -11t-30 -8.5t-36 -8t-39 -4.5t-45.5 -2q-127 0 -194.5 73.5t-67.5 194.5q0 63 14 127.5t44 127t72.5 111t105.5 78.5t137 30q66 0 114.5 -20t73 -50.5t35.5 -56t13 -48.5l-92 -21q0 12 -7.5 30.5
t-22.5 40t-45.5 36.5t-69.5 15q-68 0 -123 -38.5t-87 -97.5t-49 -123.5t-17 -124.5q0 -214 179 -214q91 0 147 38l40 212h-143zM224 961h39q17 -81 105 -81t107 81h37q-14 -126 -149 -126q-60 0 -97.5 33.5t-41.5 92.5z" />
    <glyph glyph-name="gbreve" unicode="&#x11f;" horiz-adv-x="492" 
d="M577 591l-15 -62h-58q-34 0 -60 8l-2 -4q43 -36 43 -98q0 -85 -66.5 -147t-176.5 -62q-39 0 -61 8q-36 -26 -36 -48q0 -30 71 -50l87 -24q74 -21 103 -47.5t29 -81.5q0 -79 -73.5 -132t-207.5 -53q-115 0 -167.5 42.5t-52.5 93.5q0 83 117 146l37 20q-31 20 -31 54
q0 48 75 94q-83 50 -83 142q0 80 64.5 146.5t171.5 66.5q33 0 59 -7q25 -5 43 -5h190zM131 397q0 -49 29.5 -77t83.5 -28q66 0 112.5 39.5t46.5 102.5q0 103 -120 103q-67 0 -109.5 -39.5t-42.5 -100.5zM140 78l-52 -28q-66 -38 -66 -100q0 -43 39 -64.5t103 -21.5
q90 0 139.5 33.5t49.5 74.5q0 29 -20 44.5t-70 28.5zM26 706h39q17 -81 105 -81t107 81h37q-14 -126 -149 -126q-60 0 -97.5 33.5t-41.5 92.5z" />
    <glyph glyph-name="glyph273" unicode="&#x128;" horiz-adv-x="241" 
d="M6 0l137 712h92l-137 -712h-92zM111 753h-40q4 28 24 57.5t60 29.5q20 0 56 -21q38 -22 52 -22q29 0 36 41h40q-3 -19 -10.5 -36.5t-26.5 -34t-45 -16.5q-22 0 -54 21q-34 18 -51 18t-28 -10.5t-13 -26.5z" />
    <glyph glyph-name="glyph274" unicode="&#x129;" horiz-adv-x="241" 
d="M8 0l114 591h88l-114 -591h-88zM102 638h-37q2 15 8 31t24.5 32.5t44.5 16.5q16 0 52 -19q38 -20 47 -20q26 0 33 38h37q-3 -27 -22.5 -53.5t-52.5 -26.5q-22 0 -50 19q-30 16 -47 16q-16 0 -26 -9.5t-11 -24.5z" />
    <glyph glyph-name="Idot" unicode="&#x130;" horiz-adv-x="429" 
d="M6 0l137 712h92l-137 -712h-92zM226 839h-65v102h65v-102z" />
    <glyph glyph-name="dotlessi" unicode="&#x131;" horiz-adv-x="222" 
d="M138 518v-518h-60v518h60z" />
    <glyph glyph-name="Lslash" unicode="&#x141;" 
d="M535 58v-58h-454v360l-81 -40v60l81 40v300h68v-250l81 40v-60l-81 -40v-352h386z" />
    <glyph glyph-name="lslash" unicode="&#x142;" horiz-adv-x="222" 
d="M141 390v-390h-60v340l-71 -40v60l71 40v320h60v-270l71 40v-60z" />
    <glyph glyph-name="OE" unicode="&#x152;" horiz-adv-x="870" 
d="M488 74h284l-14 -74h-321q-39 0 -78 -3q-3 0 -32.5 -1.5t-45.5 -1.5q-111 0 -179 73t-68 213q0 49 13 105t42.5 115.5t71.5 107.5t106 79t140 31q41 0 83 -3q9 0 26 -1t31 -1.5t26 -0.5h312l-15 -74h-274l-44 -232h256l-14 -74h-256zM398 82l106 553q-54 9 -103 9
q-82 0 -146 -58.5t-94.5 -141.5t-30.5 -168q0 -97 47 -150.5t144 -53.5q38 0 77 10z" />
    <glyph glyph-name="oe" unicode="&#x153;" horiz-adv-x="963" 
d="M28 211q0 54 12 108.5t37 105.5t60 90.5t85.5 63.5t108.5 24q69 0 119 -30t67 -88q23 46 81.5 82t133.5 36q98 0 146.5 -57t48.5 -155q0 -53 -18 -118h-384q-8 -24 -8 -77q0 -71 32 -106.5t91 -35.5q54 0 94.5 29.5t63.5 77.5l70 -27q-8 -18 -23 -39t-42.5 -47t-71.5 -43
t-96 -17q-72 0 -120 33t-69 93q-30 -58 -86.5 -92t-125.5 -34q-97 0 -151.5 62t-54.5 161zM535 339h297q7 47 7 60q0 67 -32 102.5t-85 35.5q-46 0 -81.5 -24t-53.5 -53q-6 -9 -11 -17.5t-9 -15.5t-8 -16.5t-6 -14.5t-5.5 -15.5l-4.5 -13.5t-4 -14.5t-4 -13.5zM120 213
q0 -70 28.5 -112.5t84.5 -42.5q55 0 98.5 32t68.5 82.5t38 106.5t13 111q0 143 -127 143q-64 0 -112.5 -53t-70 -124t-21.5 -143z" />
    <glyph glyph-name="Scedilla" unicode="&#x15e;" horiz-adv-x="656" 
d="M-14 139l88 29q4 -46 35.5 -77.5t99.5 -31.5t116 41.5t48 98.5q0 40 -23 64.5t-80 54.5l-90 47q-98 51 -98 153q0 99 67.5 154t185.5 55q77 0 130 -34.5t65 -96.5l-89 -27q-3 34 -32 59t-86 25q-73 0 -109 -38.5t-36 -85.5q0 -37 21 -62t65 -46l76 -37q68 -34 98.5 -72
t30.5 -110q0 -93 -75 -155t-187 -62q-51 0 -91.5 13t-63 30.5t-38 41t-21 39.5t-7.5 30zM89 0h42l-55 -58l2 -2q12 3 34 3q26 0 46.5 -14.5t20.5 -47.5q0 -40 -33.5 -67t-94.5 -27q-59 0 -97 23l21 35q32 -15 80 -15q28 0 43 12.5t15 31.5q0 35 -42 35q-25 0 -42 -11l-17 20
z" />
    <glyph glyph-name="scedilla" unicode="&#x15f;" horiz-adv-x="383" 
d="M-18 136l81 27q0 -37 30.5 -73t89.5 -36q66 0 103 30t37 82q0 19 -5 32t-19.5 23.5t-25 16t-38.5 17.5l-87 37q-91 36 -91 131q0 73 58 126.5t157 53.5q48 0 84 -14.5t55 -37.5t28.5 -42t13.5 -38l-80 -24q0 31 -27 60.5t-83 29.5q-53 0 -85.5 -27t-32.5 -74
q0 -29 16.5 -49.5t58.5 -35.5l80 -31q57 -22 84 -53t27 -81q0 -82 -59.5 -140t-172.5 -58q-45 0 -80 11t-54.5 26t-34 37.5t-19.5 38t-9 35.5zM-6 0h42l-55 -58l2 -2q12 3 34 3q26 0 46.5 -14.5t20.5 -47.5q0 -40 -33.5 -67t-94.5 -27q-59 0 -97 23l21 35q32 -15 80 -15
q28 0 43 12.5t15 31.5q0 35 -42 35q-26 0 -42 -11l-17 20z" />
    <glyph glyph-name="Scaron" unicode="&#x160;" 
d="M-14 139l88 29q4 -46 35.5 -77.5t99.5 -31.5t116 41.5t48 98.5q0 40 -23 64.5t-80 54.5l-90 47q-98 51 -98 153q0 99 67.5 154t185.5 55q77 0 130 -34.5t65 -96.5l-89 -27q-3 34 -32 59t-86 25q-73 0 -109 -38.5t-36 -85.5q0 -37 21 -62t65 -46l76 -37q68 -34 98.5 -72
t30.5 -110q0 -93 -75 -155t-187 -62q-51 0 -91.5 13t-63 30.5t-38 41t-21 39.5t-7.5 30zM283 757l-84 142h74l59 -96l97 96h78l-136 -142h-88z" />
    <glyph glyph-name="scaron" unicode="&#x161;" horiz-adv-x="481" 
d="M-18 136l81 27q0 -37 30.5 -73t89.5 -36q66 0 103 30t37 82q0 19 -5 32t-19.5 23.5t-25 16t-38.5 17.5l-87 37q-91 36 -91 131q0 73 58 126.5t157 53.5q48 0 84 -14.5t55 -37.5t28.5 -42t13.5 -38l-80 -24q0 31 -27 60.5t-83 29.5q-53 0 -85.5 -27t-32.5 -74
q0 -29 16.5 -49.5t58.5 -35.5l80 -31q57 -22 84 -53t27 -81q0 -82 -59.5 -140t-172.5 -58q-45 0 -80 11t-54.5 26t-34 37.5t-19.5 38t-9 35.5zM245 661l-84 142h74l59 -96l97 96h78l-136 -142h-88z" />
    <glyph glyph-name="ch903" unicode="&#x168;" horiz-adv-x="667" 
d="M233 712l-84 -438q-11 -46 -11 -87q0 -60 39.5 -94t103.5 -34q162 0 201 203l87 450h92l-90 -466q-49 -261 -309 -261q-99 0 -157.5 56t-58.5 142q0 46 15 112l80 417h92zM339 744h-40q4 28 24 57.5t60 29.5q20 0 56 -21q38 -22 52 -22q29 0 36 41h40q-3 -19 -10.5 -36.5
t-26.5 -34t-45 -16.5q-22 0 -54 21q-34 18 -51 18t-28 -10.5t-13 -26.5z" />
    <glyph glyph-name="ch904" unicode="&#x169;" horiz-adv-x="574" 
d="M550 591l-114 -591h-88l18 92l-2 2q-42 -42 -98.5 -74t-110.5 -32q-53 0 -90.5 28.5t-37.5 88.5q0 32 10 80l78 406h88l-73 -379q-11 -49 -11 -82q0 -31 21 -47.5t53 -16.5q12 0 24.5 2.5t25 7.5t23.5 10t24 14t21 14.5t21 16t18.5 15t17.5 15t14 12.5l80 418h88z
M258 635h-37q2 15 8 31t24.5 32.5t44.5 16.5q16 0 52 -19q38 -20 47 -20q26 0 33 38h37q-3 -27 -22.5 -53.5t-52.5 -26.5q-22 0 -50 19q-30 16 -47 16q-16 0 -26 -9.5t-11 -24.5z" />
    <glyph glyph-name="Ydieresis" unicode="&#x178;" horiz-adv-x="611" 
d="M202 0l56 291l-169 421h104l94 -253q18 -49 29 -91h5q26 47 57 87l196 257h112l-336 -421l-56 -291h-92zM255 787l18 90h96l-18 -90h-96zM435 787l18 90h96l-18 -90h-96z" />
    <glyph glyph-name="Zcaron" unicode="&#x17d;" horiz-adv-x="519" 
d="M-48 0l16 84l464 554h-343l14 74h455l-17 -87l-468 -551h368l-15 -74h-474zM264 757l-84 142h74l59 -96l97 96h78l-136 -142h-88z" />
    <glyph glyph-name="zcaron" unicode="&#x17e;" horiz-adv-x="481" 
d="M75 66h328l-14 -66h-437l14 68l410 457h-311l12 66h418l-14 -72zM245 661l-84 142h74l59 -96l97 96h78l-136 -142h-88z" />
    <glyph glyph-name="florin" unicode="&#x192;" 
d="M-22 -112l36 59q22 -14 46 -14q35 0 55 22.5t32 74.5l77 334h-107l14 62h106l35 141q21 81 58.5 120.5t107.5 39.5q63 0 98 -28l-41 -60q-30 18 -54 18q-32 0 -52.5 -20.5t-31.5 -72.5l-32 -138h109l-14 -62h-108l-81 -337q-38 -164 -166 -164q-50 0 -87 25z" />
    <glyph glyph-name="glyph277" unicode="&#x1a0;" horiz-adv-x="704" 
d="M670 459q0 -79 -23 -160t-67 -152.5t-118 -116.5t-166 -45q-127 0 -194.5 73.5t-67.5 194.5q0 63 14 127.5t44 127t72.5 111t105.5 78.5t137 30q128 0 198 -76q45 19 46 40t-6 27q-5 6 -22 11q-12 4 -5 34q8 25 33 15q37 -12 52.5 -44t0.5 -68q-15 -28 -78 -43
q44 -68 44 -164zM626 624l-1 -1h1v1zM130 269q0 -111 41 -162.5t125 -51.5q68 0 123.5 38.5t88 98t49.5 124t17 124.5q0 111 -41 162t-126 51q-68 0 -123.5 -38.5t-87.5 -97.5t-49 -123.5t-17 -124.5z" />
    <glyph glyph-name="glyph278" unicode="&#x1a1;" horiz-adv-x="574" 
d="M534 377q0 -93 -35 -180.5t-108.5 -148t-168.5 -60.5q-97 0 -151.5 62t-54.5 161q0 54 12 108.5t37 105.5t60 90.5t85.5 63.5t108.5 24q101 0 157 -59q24 16 26 30q2 20 -6 26q-7 7 -20 10q-12 3 -5 31q8 25 31 14q34 -12 49 -41.5t0 -62.5q-10 -19 -55 -33
q38 -56 38 -141zM540 592l-1 -1h1v1zM496 518v1v-1zM108 213q0 -70 30 -112.5t88 -42.5q53 0 96 32t68 82.5t38.5 107t13.5 110.5q0 143 -129 143q-64 0 -112.5 -53t-70.5 -124.5t-22 -142.5z" />
    <glyph glyph-name="glyph279" unicode="&#x1af;" horiz-adv-x="667" 
d="M655 682v1l-84 -437q-49 -261 -309 -261q-99 0 -157.5 56t-58.5 142q0 46 15 112l80 417h92l-84 -438q-11 -46 -11 -87q0 -60 39.5 -94t103.5 -34q162 0 201 203l87 450h77q32 13 37 27q3 22 -5 32q-8 9 -20 12q-13 4 -2 33q9 21 32 10q39 -12 51 -44.5t-11 -68.5
q-19 -21 -73 -31z" />
    <glyph glyph-name="glyph280" unicode="&#x1b0;" horiz-adv-x="574" 
d="M545 563l-1 -1l-108 -562h-88l18 92l-2 2q-42 -42 -98.5 -74t-110.5 -32q-53 0 -90.5 28.5t-37.5 88.5q0 32 10 80l78 406h88l-73 -379q-11 -49 -11 -82q0 -31 21 -47.5t53 -16.5q12 0 24.5 2.5t25 7.5t23.5 10t24 14t21 14.5t21 16t18.5 15t17.5 15t14 12.5l80 418h68
q28 13 33 24q2 21 -4 27q-4 6 -17 9q-11 5 1 35q11 18 30 6q35 -15 43.5 -46t-15.5 -58q-13 -18 -56 -25z" />
    <glyph glyph-name="circumflex" unicode="&#x2c6;" horiz-adv-x="241" 
d="M24 661l136 142h88l84 -142h-74l-59 96l-97 -96h-78z" />
    <glyph glyph-name="caron" unicode="&#x2c7;" horiz-adv-x="333" 
d="M89 713l82 -102l82 102h65l-113 -139h-67l-114 139h65z" />
    <glyph glyph-name="breve" unicode="&#x2d8;" horiz-adv-x="333" 
d="M28 706h39q17 -81 105 -81t107 81h37q-14 -126 -149 -126q-60 0 -97.5 33.5t-41.5 92.5z" />
    <glyph glyph-name="dotaccent" unicode="&#x2d9;" horiz-adv-x="333" 
d="M199 584h-65v102h65v-102z" />
    <glyph glyph-name="ring" unicode="&#x2da;" horiz-adv-x="333" 
d="M167 578q-40 0 -71 29q-29 31 -29 70q0 40 30 70t70 30t69.5 -30t29.5 -70q0 -39 -29 -70q-29 -29 -70 -29zM167 611q26 0 46 20t20 46q0 27 -19.5 47t-46.5 20t-47 -20t-20 -47t20 -46.5t47 -19.5z" />
    <glyph glyph-name="ogonek" unicode="&#x2db;" horiz-adv-x="333" 
d="M149 0h50v-2q-80 -41 -80 -87q0 -28 21 -43q19 -14 46 -14q21 0 42 9v-44q-25 -9 -52 -9q-42 0 -70 22q-32 24 -32 65q0 65 75 103z" />
    <glyph glyph-name="tilde" unicode="&#x2dc;" horiz-adv-x="241" 
d="M66 671h-50q2 19 11.5 41.5t34.5 45t60 22.5q24 0 70 -26q48 -27 65 -27q36 0 45 51h50q-5 -38 -31 -73.5t-72 -35.5q-22 0 -68 26q-40 23 -63 23q-21 0 -35.5 -13t-16.5 -34z" />
    <glyph glyph-name="hungarumlaut" unicode="&#x2dd;" horiz-adv-x="333" 
d="M297 713l-137 -139h-51l111 139h77zM459 713l-137 -139h-51l111 139h77z" />
    <glyph glyph-name="increment" unicode="&#x394;" horiz-adv-x="1000" 
 />
    <glyph glyph-name="increment" unicode="&#x2206;" horiz-adv-x="1000" 
 />
    <glyph glyph-name="Omega" unicode="&#x3a9;" horiz-adv-x="1000" 
 />
    <glyph glyph-name="Omega" unicode="&#x2126;" horiz-adv-x="1000" 
 />
    <glyph glyph-name="pi" unicode="&#x3c0;" horiz-adv-x="1000" 
 />
    <glyph glyph-name="glyph281" unicode="&#x1ea0;" horiz-adv-x="667" 
d="M-52 0l412 712h117l132 -712h-92l-34 189h-329l-108 -189h-98zM469 263l-52 288q-10 51 -12 79h-5q-18 -40 -55 -106l-149 -261h273zM224 -130l16 84h80l-16 -84h-80z" />
    <glyph glyph-name="glyph282" unicode="&#x1ea1;" horiz-adv-x="537" 
d="M323 0l17 91h-3q-17 -20 -40.5 -39.5t-70 -41.5t-92.5 -22q-63 0 -100.5 42t-37.5 101q0 93 63.5 155.5t186.5 68.5l144 6q11 46 11 87q0 89 -98 89q-33 0 -59.5 -10.5t-44 -29.5t-26.5 -33.5t-18 -34.5l-75 26q14 28 29 49t41.5 46t67.5 39t92 14q76 0 127.5 -39.5
t51.5 -115.5q0 -36 -11 -91l-55 -289q-9 -42 -12 -68h-88zM354 161l26 134l-78 -3q-47 -2 -82 -9t-67 -23t-48.5 -45.5t-16.5 -71.5q0 -81 84 -81q33 0 69 17t57.5 34t55.5 48zM163 -132l13 73h69l-14 -73h-68z" />
    <glyph glyph-name="glyph283" unicode="&#x1ea2;" horiz-adv-x="667" 
d="M-52 0l412 712h117l132 -712h-92l-34 189h-329l-108 -189h-98zM469 263l-52 288q-10 51 -12 79h-5q-18 -40 -55 -106l-149 -261h273zM433 764h-28q1 33 33 53q33 20 29 50q-5 26 -40 26q-17 -3 -18 15q0 21 25 25q41 1 67 -18.5t24 -54.5q-7 -40 -67 -66q-15 -12 -25 -30
z" />
    <glyph glyph-name="glyph284" unicode="&#x1ea3;" horiz-adv-x="537" 
d="M323 0l17 91h-3q-17 -20 -40.5 -39.5t-70 -41.5t-92.5 -22q-63 0 -100.5 42t-37.5 101q0 93 63.5 155.5t186.5 68.5l144 6q11 46 11 87q0 89 -98 89q-33 0 -59.5 -10.5t-44 -29.5t-26.5 -33.5t-18 -34.5l-75 26q14 28 29 49t41.5 46t67.5 39t92 14q76 0 127.5 -39.5
t51.5 -115.5q0 -36 -11 -91l-55 -289q-9 -42 -12 -68h-88zM354 161l26 134l-78 -3q-47 -2 -82 -9t-67 -23t-48.5 -45.5t-16.5 -71.5q0 -81 84 -81q33 0 69 17t57.5 34t55.5 48zM327 652h-26q2 33 31 49q32 18 27 47q-5 24 -37 24q-15 -3 -17 14q0 18 23 23q38 1 62.5 -17
t22.5 -51q-7 -37 -62 -61q-14 -9 -24 -28z" />
    <glyph glyph-name="glyph285" unicode="&#x1ea4;" horiz-adv-x="667" 
d="M302 742l101 106h65l62 -106h-54l-44 72l-73 -72h-57zM527 814l93 114h90l-126 -114h-57zM-52 0l412 712h117l132 -712h-92l-34 189h-329l-108 -189h-98zM469 263l-52 288q-10 51 -12 79h-5q-18 -40 -55 -106l-149 -261h273z" />
    <glyph glyph-name="glyph286" unicode="&#x1ea5;" horiz-adv-x="537" 
d="M323 0l17 91h-3q-17 -20 -40.5 -39.5t-70 -41.5t-92.5 -22q-63 0 -100.5 42t-37.5 101q0 93 63.5 155.5t186.5 68.5l144 6q11 46 11 87q0 89 -98 89q-33 0 -59.5 -10.5t-44 -29.5t-26.5 -33.5t-18 -34.5l-75 26q14 28 29 49t41.5 46t67.5 39t92 14q76 0 127.5 -39.5
t51.5 -115.5q0 -36 -11 -91l-55 -289q-9 -42 -12 -68h-88zM354 161l26 134l-78 -3q-47 -2 -82 -9t-67 -23t-48.5 -45.5t-16.5 -71.5q0 -81 84 -81q33 0 69 17t57.5 34t55.5 48zM214 628l96 100h62l59 -100h-52l-41 68l-70 -68h-54zM428 696l88 108h86l-120 -108h-54z" />
    <glyph glyph-name="glyph287" unicode="&#x1ea6;" horiz-adv-x="667" 
d="M302 742l101 106h65l62 -106h-54l-44 72l-73 -72h-57zM183 930h85l72 -114h-57zM-52 0l412 712h117l132 -712h-92l-34 189h-329l-108 -189h-98zM469 263l-52 288q-10 51 -12 79h-5q-18 -40 -55 -106l-149 -261h273z" />
    <glyph glyph-name="glyph288" unicode="&#x1ea7;" horiz-adv-x="537" 
d="M323 0l17 91h-3q-17 -20 -40.5 -39.5t-70 -41.5t-92.5 -22q-63 0 -100.5 42t-37.5 101q0 93 63.5 155.5t186.5 68.5l144 6q11 46 11 87q0 89 -98 89q-33 0 -59.5 -10.5t-44 -29.5t-26.5 -33.5t-18 -34.5l-75 26q14 28 29 49t41.5 46t67.5 39t92 14q76 0 127.5 -39.5
t51.5 -115.5q0 -36 -11 -91l-55 -289q-9 -42 -12 -68h-88zM354 161l26 134l-78 -3q-47 -2 -82 -9t-67 -23t-48.5 -45.5t-16.5 -71.5q0 -81 84 -81q33 0 69 17t57.5 34t55.5 48zM207 628l96 100h61l59 -100h-51l-42 68l-69 -68h-54zM94 806h80l69 -108h-54z" />
    <glyph glyph-name="glyph289" unicode="&#x1ea8;" horiz-adv-x="667" 
d="M302 742l101 106h65l62 -106h-54l-44 72l-73 -72h-57zM546 810h-27q2 33 31 49q32 18 27 47q-5 23 -37 23q-16 -1 -17 15q0 20 24 23q37 1 61.5 -17.5t22.5 -50.5q-7 -36 -62 -62q-12 -8 -23 -27zM-52 0l412 712h117l132 -712h-92l-34 189h-329l-108 -189h-98zM469 263
l-52 288q-10 51 -12 79h-5q-18 -40 -55 -106l-149 -261h273z" />
    <glyph glyph-name="glyph290" unicode="&#x1ea9;" horiz-adv-x="537" 
d="M323 0l17 91h-3q-17 -20 -40.5 -39.5t-70 -41.5t-92.5 -22q-63 0 -100.5 42t-37.5 101q0 93 63.5 155.5t186.5 68.5l144 6q11 46 11 87q0 89 -98 89q-33 0 -59.5 -10.5t-44 -29.5t-26.5 -33.5t-18 -34.5l-75 26q14 28 29 49t41.5 46t67.5 39t92 14q76 0 127.5 -39.5
t51.5 -115.5q0 -36 -11 -91l-55 -289q-9 -42 -12 -68h-88zM354 161l26 134l-78 -3q-47 -2 -82 -9t-67 -23t-48.5 -45.5t-16.5 -71.5q0 -81 84 -81q33 0 69 17t57.5 34t55.5 48zM211 632l96 100h62l59 -100h-51l-42 68l-70 -68h-54zM443 696h-26q1 30 30 47t26 44
q-5 22 -36 22q-15 -1 -16 15q0 19 23 21q35 1 58.5 -16.5t21.5 -47.5q-8 -35 -59 -59q-10 -8 -22 -26z" />
    <glyph glyph-name="glyph291" unicode="&#x1eaa;" horiz-adv-x="667" 
d="M302 742l101 106h65l62 -106h-54l-44 72l-73 -72h-57zM374 876h-38q2 14 8.5 30.5t25.5 33.5t44 17q22 0 53 -20q38 -20 48 -20q26 0 33 38h38q-5 -29 -24 -55t-53 -26q-21 0 -50 20q-32 16 -47 16q-36 0 -38 -34zM-52 0l412 712h117l132 -712h-92l-34 189h-329
l-108 -189h-98zM469 263l-52 288q-10 51 -12 79h-5q-18 -40 -55 -106l-149 -261h273z" />
    <glyph glyph-name="glyph292" unicode="&#x1eab;" horiz-adv-x="537" 
d="M323 0l17 91h-3q-17 -20 -40.5 -39.5t-70 -41.5t-92.5 -22q-63 0 -100.5 42t-37.5 101q0 93 63.5 155.5t186.5 68.5l144 6q11 46 11 87q0 89 -98 89q-33 0 -59.5 -10.5t-44 -29.5t-26.5 -33.5t-18 -34.5l-75 26q14 28 29 49t41.5 46t67.5 39t92 14q76 0 127.5 -39.5
t51.5 -115.5q0 -36 -11 -91l-55 -289q-9 -42 -12 -68h-88zM354 161l26 134l-78 -3q-47 -2 -82 -9t-67 -23t-48.5 -45.5t-16.5 -71.5q0 -81 84 -81q33 0 69 17t57.5 34t55.5 48zM211 635l96 101h62l59 -101h-52l-41 69l-70 -69h-54zM279 763h-36q2 14 8.5 29t24 31.5
t41.5 16.5q17 0 51 -19t45 -19q25 0 32 36h36q-5 -28 -22.5 -52.5t-50.5 -24.5q-22 0 -48 19q-32 15 -44 15q-16 0 -26 -9t-11 -23z" />
    <glyph glyph-name="glyph293" unicode="&#x1eac;" horiz-adv-x="667" 
d="M302 742l101 106h65l62 -106h-54l-44 72l-73 -72h-57zM224 -130l16 84h80l-16 -84h-80zM-52 0l412 712h117l132 -712h-92l-34 189h-329l-108 -189h-98zM469 263l-52 288q-10 51 -12 79h-5q-18 -40 -55 -106l-149 -261h273z" />
    <glyph glyph-name="glyph294" unicode="&#x1ead;" horiz-adv-x="537" 
d="M323 0l17 91h-3q-17 -20 -40.5 -39.5t-70 -41.5t-92.5 -22q-63 0 -100.5 42t-37.5 101q0 93 63.5 155.5t186.5 68.5l144 6q11 46 11 87q0 89 -98 89q-33 0 -59.5 -10.5t-44 -29.5t-26.5 -33.5t-18 -34.5l-75 26q14 28 29 49t41.5 46t67.5 39t92 14q76 0 127.5 -39.5
t51.5 -115.5q0 -36 -11 -91l-55 -289q-9 -42 -12 -68h-88zM354 161l26 134l-78 -3q-47 -2 -82 -9t-67 -23t-48.5 -45.5t-16.5 -71.5q0 -81 84 -81q33 0 69 17t57.5 34t55.5 48zM228 635l96 100h61l59 -100h-51l-42 68l-69 -68h-54zM157 -132l16 80h76l-16 -80h-76z" />
    <glyph glyph-name="glyph295" unicode="&#x1eae;" horiz-adv-x="667" 
d="M-52 0l412 712h117l132 -712h-92l-34 189h-329l-108 -189h-98zM469 263l-52 288q-10 51 -12 79h-5q-18 -40 -55 -106l-149 -261h273zM330 844h34q0 -29 18 -46t51 -17q28 0 49 13.5t28 25.5t11 24h34q-9 -44 -42.5 -72t-81.5 -28q-101 0 -101 100zM417 844l93 114h90
l-126 -114h-57z" />
    <glyph glyph-name="glyph296" unicode="&#x1eaf;" horiz-adv-x="537" 
d="M323 0l17 91h-3q-17 -20 -40.5 -39.5t-70 -41.5t-92.5 -22q-63 0 -100.5 42t-37.5 101q0 93 63.5 155.5t186.5 68.5l144 6q11 46 11 87q0 89 -98 89q-33 0 -59.5 -10.5t-44 -29.5t-26.5 -33.5t-18 -34.5l-75 26q14 28 29 49t41.5 46t67.5 39t92 14q76 0 127.5 -39.5
t51.5 -115.5q0 -36 -11 -91l-55 -289q-9 -42 -12 -68h-88zM354 161l26 134l-78 -3q-47 -2 -82 -9t-67 -23t-48.5 -45.5t-16.5 -71.5q0 -81 84 -81q33 0 69 17t57.5 34t55.5 48zM224 738h32q0 -27 17.5 -43.5t48.5 -16.5q60 0 83 60h32q-8 -42 -40 -68.5t-77 -26.5
q-96 0 -96 95zM306 738l89 109h85l-119 -109h-55z" />
    <glyph glyph-name="glyph297" unicode="&#x1eb0;" horiz-adv-x="667" 
d="M-52 0l412 712h117l132 -712h-92l-34 189h-329l-108 -189h-98zM469 263l-52 288q-10 51 -12 79h-5q-18 -40 -55 -106l-149 -261h273zM330 844h34q0 -29 18 -46t51 -17q28 0 49 13.5t28 25.5t11 24h34q-9 -44 -42.5 -72t-81.5 -28q-101 0 -101 100zM310 960h85l72 -114
h-57z" />
    <glyph glyph-name="glyph298" unicode="&#x1eb1;" horiz-adv-x="537" 
d="M323 0l17 91h-3q-17 -20 -40.5 -39.5t-70 -41.5t-92.5 -22q-63 0 -100.5 42t-37.5 101q0 93 63.5 155.5t186.5 68.5l144 6q11 46 11 87q0 89 -98 89q-33 0 -59.5 -10.5t-44 -29.5t-26.5 -33.5t-18 -34.5l-75 26q14 28 29 49t41.5 46t67.5 39t92 14q76 0 127.5 -39.5
t51.5 -115.5q0 -36 -11 -91l-55 -289q-9 -42 -12 -68h-88zM354 161l26 134l-78 -3q-47 -2 -82 -9t-67 -23t-48.5 -45.5t-16.5 -71.5q0 -81 84 -81q33 0 69 17t57.5 34t55.5 48zM222 740h32q0 -27 17 -43t49 -16q59 0 84 59h32q-9 -42 -40.5 -68.5t-77.5 -26.5q-96 0 -96 95z
M203 851h81l68 -109h-54z" />
    <glyph glyph-name="glyph299" unicode="&#x1eb2;" horiz-adv-x="667" 
d="M-52 0l412 712h117l132 -712h-92l-34 189h-329l-108 -189h-98zM469 263l-52 288q-10 51 -12 79h-5q-18 -40 -55 -106l-149 -261h273zM330 844h34q0 -29 18 -46t51 -17q28 0 49 13.5t28 25.5t11 24h34q-9 -44 -42.5 -72t-81.5 -28q-101 0 -101 100zM454 844h-27
q2 33 31 49q32 18 27 47q-5 23 -37 23q-16 -1 -17 15q0 20 24 23q37 1 61.5 -17.5t22.5 -50.5q-7 -36 -62 -62q-12 -8 -23 -27z" />
    <glyph glyph-name="glyph300" unicode="&#x1eb3;" horiz-adv-x="537" 
d="M323 0l17 91h-3q-17 -20 -40.5 -39.5t-70 -41.5t-92.5 -22q-63 0 -100.5 42t-37.5 101q0 93 63.5 155.5t186.5 68.5l144 6q11 46 11 87q0 89 -98 89q-33 0 -59.5 -10.5t-44 -29.5t-26.5 -33.5t-18 -34.5l-75 26q14 28 29 49t41.5 46t67.5 39t92 14q76 0 127.5 -39.5
t51.5 -115.5q0 -36 -11 -91l-55 -289q-9 -42 -12 -68h-88zM354 161l26 134l-78 -3q-47 -2 -82 -9t-67 -23t-48.5 -45.5t-16.5 -71.5q0 -81 84 -81q33 0 69 17t57.5 34t55.5 48zM233 736h32q0 -27 17 -43t48 -16q59 0 84 59h32q-8 -42 -40 -68.5t-77 -26.5q-96 0 -96 95z
M350 736h-25q1 30 30 47t25 45q-5 21 -35 21q-15 -1 -16 15q0 19 22 22q35 1 58.5 -17t21.5 -48q-8 -36 -59 -59q-11 -7 -22 -26z" />
    <glyph glyph-name="glyph301" unicode="&#x1eb4;" horiz-adv-x="667" 
d="M-52 0l412 712h117l132 -712h-92l-34 189h-329l-108 -189h-98zM469 263l-52 288q-10 51 -12 79h-5q-18 -40 -55 -106l-149 -261h273zM330 844h34q0 -29 18 -46t51 -17q28 0 49 13.5t28 25.5t11 24h34q-9 -44 -42.5 -72t-81.5 -28q-101 0 -101 100zM374 878h-38
q2 14 8.5 30.5t25.5 33.5t44 17q22 0 53 -20q38 -20 48 -20q26 0 33 38h38q-5 -29 -24 -55t-53 -26q-21 0 -50 20q-32 16 -47 16q-36 0 -38 -34z" />
    <glyph glyph-name="glyph302" unicode="&#x1eb5;" horiz-adv-x="537" 
d="M323 0l17 91h-3q-17 -20 -40.5 -39.5t-70 -41.5t-92.5 -22q-63 0 -100.5 42t-37.5 101q0 93 63.5 155.5t186.5 68.5l144 6q11 46 11 87q0 89 -98 89q-33 0 -59.5 -10.5t-44 -29.5t-26.5 -33.5t-18 -34.5l-75 26q14 28 29 49t41.5 46t67.5 39t92 14q76 0 127.5 -39.5
t51.5 -115.5q0 -36 -11 -91l-55 -289q-9 -42 -12 -68h-88zM354 161l26 134l-78 -3q-47 -2 -82 -9t-67 -23t-48.5 -45.5t-16.5 -71.5q0 -81 84 -81q33 0 69 17t57.5 34t55.5 48zM231 737h33q0 -27 17 -43t48 -16q59 0 84 59h32q-8 -42 -40 -68.5t-78 -26.5q-96 0 -96 95z
M273 770h-36q2 14 8.5 29t24 31.5t41.5 16.5q15 0 51 -19q34 -19 45 -19q14 0 22 11t9 25h37q-5 -28 -23 -52.5t-51 -24.5q-21 0 -47 19q-32 15 -45 15q-34 0 -36 -32z" />
    <glyph glyph-name="glyph303" unicode="&#x1eb6;" horiz-adv-x="667" 
d="M-52 0l412 712h117l132 -712h-92l-34 189h-329l-108 -189h-98zM469 263l-52 288q-10 51 -12 79h-5q-18 -40 -55 -106l-149 -261h273zM330 844h34q0 -29 18 -46t51 -17q28 0 49 13.5t28 25.5t11 24h34q-9 -44 -42.5 -72t-81.5 -28q-101 0 -101 100zM224 -130l16 84h80
l-16 -84h-80z" />
    <glyph glyph-name="glyph304" unicode="&#x1eb7;" horiz-adv-x="537" 
d="M323 0l17 91h-3q-17 -20 -40.5 -39.5t-70 -41.5t-92.5 -22q-63 0 -100.5 42t-37.5 101q0 93 63.5 155.5t186.5 68.5l144 6q11 46 11 87q0 89 -98 89q-33 0 -59.5 -10.5t-44 -29.5t-26.5 -33.5t-18 -34.5l-75 26q14 28 29 49t41.5 46t67.5 39t92 14q76 0 127.5 -39.5
t51.5 -115.5q0 -36 -11 -91l-55 -289q-9 -42 -12 -68h-88zM354 161l26 134l-78 -3q-47 -2 -82 -9t-67 -23t-48.5 -45.5t-16.5 -71.5q0 -81 84 -81q33 0 69 17t57.5 34t55.5 48zM231 741h32q0 -27 17 -43t48 -16q59 0 84 59h32q-8 -42 -40 -68.5t-77 -26.5q-96 0 -96 95z
M152 -140l16 80h76l-16 -80h-76z" />
    <glyph glyph-name="glyph305" unicode="&#x1eb8;" 
d="M3 0l137 712h431l-15 -74h-339l-44 -232h321l-16 -74h-319l-49 -258h346l-15 -74h-438zM184 -130l16 84h80l-16 -84h-80z" />
    <glyph glyph-name="glyph306" unicode="&#x1eb9;" 
d="M385 161l70 -27q-8 -18 -23 -39t-42.5 -47t-71.5 -43t-96 -17q-97 0 -151.5 62t-54.5 161q0 54 12 108.5t37 105.5t60 90.5t85.5 63.5t108.5 24q98 0 146.5 -57t48.5 -155q0 -53 -18 -118h-384q-8 -24 -8 -77q0 -71 32 -106.5t91 -35.5q54 0 94.5 29.5t63.5 77.5z
M122 339h297q7 47 7 60q0 67 -32 102.5t-85 35.5q-39 0 -71.5 -17.5t-54.5 -47.5t-36.5 -62.5t-24.5 -70.5zM147 -133l13 73h69l-14 -73h-68z" />
    <glyph glyph-name="glyph307" unicode="&#x1eba;" 
d="M3 0l137 712h431l-15 -74h-339l-44 -232h321l-16 -74h-319l-49 -258h346l-15 -74h-438zM383 764h-28q1 33 33 53q33 20 29 50q-5 26 -40 26q-17 -3 -18 15q0 21 25 25q41 1 67 -18.5t24 -54.5q-7 -40 -67 -66q-15 -12 -25 -30z" />
    <glyph glyph-name="glyph308" unicode="&#x1ebb;" 
d="M385 161l70 -27q-8 -18 -23 -39t-42.5 -47t-71.5 -43t-96 -17q-97 0 -151.5 62t-54.5 161q0 54 12 108.5t37 105.5t60 90.5t85.5 63.5t108.5 24q98 0 146.5 -57t48.5 -155q0 -53 -18 -118h-384q-8 -24 -8 -77q0 -71 32 -106.5t91 -35.5q54 0 94.5 29.5t63.5 77.5z
M122 339h297q7 47 7 60q0 67 -32 102.5t-85 35.5q-39 0 -71.5 -17.5t-54.5 -47.5t-36.5 -62.5t-24.5 -70.5zM327 652h-26q2 33 31 49q32 18 27 47q-5 24 -37 24q-15 -3 -17 14q0 18 23 23q38 1 62.5 -17t22.5 -51q-7 -37 -62 -61q-14 -9 -24 -28z" />
    <glyph glyph-name="glyph309" unicode="&#x1ebc;" 
d="M3 0l137 712h431l-15 -74h-339l-44 -232h321l-16 -74h-319l-49 -258h346l-15 -74h-438zM293 758h-40q4 28 24 57.5t60 29.5q20 0 56 -21q38 -22 52 -22q29 0 36 41h40q-3 -19 -10.5 -36.5t-26.5 -34t-45 -16.5q-22 0 -54 21q-34 18 -51 18t-28 -10.5t-13 -26.5z" />
    <glyph glyph-name="glyph310" unicode="&#x1ebd;" 
d="M385 161l70 -27q-8 -18 -23 -39t-42.5 -47t-71.5 -43t-96 -17q-97 0 -151.5 62t-54.5 161q0 54 12 108.5t37 105.5t60 90.5t85.5 63.5t108.5 24q98 0 146.5 -57t48.5 -155q0 -53 -18 -118h-384q-8 -24 -8 -77q0 -71 32 -106.5t91 -35.5q54 0 94.5 29.5t63.5 77.5z
M122 339h297q7 47 7 60q0 67 -32 102.5t-85 35.5q-39 0 -71.5 -17.5t-54.5 -47.5t-36.5 -62.5t-24.5 -70.5zM251 640h-37q2 15 8 31t24.5 32.5t44.5 16.5q16 0 52 -19q38 -20 47 -20q26 0 33 38h37q-3 -27 -22.5 -53.5t-52.5 -26.5q-22 0 -50 19q-30 16 -47 16
q-16 0 -26 -9.5t-11 -24.5z" />
    <glyph glyph-name="glyph311" unicode="&#x1ebe;" 
d="M259 745l104 108h66l64 -108h-56l-45 73l-74 -73h-59zM488 814l93 114h90l-126 -114h-57zM3 0l137 712h431l-15 -74h-339l-44 -232h321l-16 -74h-319l-49 -258h346l-15 -74h-438z" />
    <glyph glyph-name="glyph312" unicode="&#x1ebf;" 
d="M385 161l70 -27q-8 -18 -23 -39t-42.5 -47t-71.5 -43t-96 -17q-97 0 -151.5 62t-54.5 161q0 54 12 108.5t37 105.5t60 90.5t85.5 63.5t108.5 24q98 0 146.5 -57t48.5 -155q0 -53 -18 -118h-384q-8 -24 -8 -77q0 -71 32 -106.5t91 -35.5q54 0 94.5 29.5t63.5 77.5z
M122 339h297q7 47 7 60q0 67 -32 102.5t-85 35.5q-39 0 -71.5 -17.5t-54.5 -47.5t-36.5 -62.5t-24.5 -70.5zM220 637l94 97h60l58 -97h-52l-40 66l-67 -66h-53zM427 699l83 103h82l-114 -103h-51z" />
    <glyph glyph-name="glyph313" unicode="&#x1ec0;" 
d="M259 745l104 108h66l64 -108h-56l-45 73l-74 -73h-59zM131 930h85l72 -114h-57zM3 0l137 712h431l-15 -74h-339l-44 -232h321l-16 -74h-319l-49 -258h346l-15 -74h-438z" />
    <glyph glyph-name="glyph314" unicode="&#x1ec1;" 
d="M385 161l70 -27q-8 -18 -23 -39t-42.5 -47t-71.5 -43t-96 -17q-97 0 -151.5 62t-54.5 161q0 54 12 108.5t37 105.5t60 90.5t85.5 63.5t108.5 24q98 0 146.5 -57t48.5 -155q0 -53 -18 -118h-384q-8 -24 -8 -77q0 -71 32 -106.5t91 -35.5q54 0 94.5 29.5t63.5 77.5z
M122 339h297q7 47 7 60q0 67 -32 102.5t-85 35.5q-39 0 -71.5 -17.5t-54.5 -47.5t-36.5 -62.5t-24.5 -70.5zM219 630l98 102h63l61 -102h-53l-43 69l-70 -69h-56zM97 805h81l68 -108h-54z" />
    <glyph glyph-name="glyph315" unicode="&#x1ec2;" 
d="M259 745l104 108h66l64 -108h-56l-45 73l-74 -73h-59zM516 810h-27q2 33 31 49q32 18 27 47q-5 23 -37 23q-16 -1 -17 15q0 20 24 23q37 1 61.5 -17.5t22.5 -50.5q-7 -36 -62 -62q-12 -8 -23 -27zM3 0l137 712h431l-15 -74h-339l-44 -232h321l-16 -74h-319l-49 -258h346
l-15 -74h-438z" />
    <glyph glyph-name="glyph316" unicode="&#x1ec3;" 
d="M385 161l70 -27q-8 -18 -23 -39t-42.5 -47t-71.5 -43t-96 -17q-97 0 -151.5 62t-54.5 161q0 54 12 108.5t37 105.5t60 90.5t85.5 63.5t108.5 24q98 0 146.5 -57t48.5 -155q0 -53 -18 -118h-384q-8 -24 -8 -77q0 -71 32 -106.5t91 -35.5q54 0 94.5 29.5t63.5 77.5z
M122 339h297q7 47 7 60q0 67 -32 102.5t-85 35.5q-39 0 -71.5 -17.5t-54.5 -47.5t-36.5 -62.5t-24.5 -70.5zM218 636l98 102h63l61 -102h-53l-43 69l-70 -69h-56zM462 697h-26q1 30 30 47t25 45q-5 21 -35 21q-15 -1 -16 15q0 19 23 21q34 1 57.5 -16.5t21.5 -47.5
q-8 -35 -58 -59q-12 -8 -22 -26z" />
    <glyph glyph-name="glyph317" unicode="&#x1ec4;" 
d="M259 745l104 108h66l64 -108h-56l-45 73l-74 -73h-59zM324 878h-38q2 14 8.5 30.5t25.5 33.5t44 17q22 0 53 -20q38 -20 48 -20q26 0 33 38h38q-5 -29 -24 -55t-53 -26q-21 0 -50 20q-32 16 -47 16q-36 0 -38 -34zM3 0l137 712h431l-15 -74h-339l-44 -232h321l-16 -74
h-319l-49 -258h346l-15 -74h-438z" />
    <glyph glyph-name="glyph318" unicode="&#x1ec5;" 
d="M385 161l70 -27q-8 -18 -23 -39t-42.5 -47t-71.5 -43t-96 -17q-97 0 -151.5 62t-54.5 161q0 54 12 108.5t37 105.5t60 90.5t85.5 63.5t108.5 24q98 0 146.5 -57t48.5 -155q0 -53 -18 -118h-384q-8 -24 -8 -77q0 -71 32 -106.5t91 -35.5q54 0 94.5 29.5t63.5 77.5z
M122 339h297q7 47 7 60q0 67 -32 102.5t-85 35.5q-39 0 -71.5 -17.5t-54.5 -47.5t-36.5 -62.5t-24.5 -70.5zM224 633l99 103h62l61 -103h-53l-43 70l-70 -70h-56zM286 760h-36q0 22 19.5 49.5t54.5 27.5q16 0 50 -19t46 -19q24 0 31 36h36q-5 -28 -22.5 -52.5t-50.5 -24.5
q-20 0 -48 19q-32 15 -44 15q-34 0 -36 -32z" />
    <glyph glyph-name="glyph319" unicode="&#x1ec6;" 
d="M259 745l104 108h66l64 -108h-56l-45 73l-74 -73h-59zM174 -130l16 84h80l-16 -84h-80zM3 0l137 712h431l-15 -74h-339l-44 -232h321l-16 -74h-319l-49 -258h346l-15 -74h-438z" />
    <glyph glyph-name="glyph320" unicode="&#x1ec7;" 
d="M385 161l70 -27q-8 -18 -23 -39t-42.5 -47t-71.5 -43t-96 -17q-97 0 -151.5 62t-54.5 161q0 54 12 108.5t37 105.5t60 90.5t85.5 63.5t108.5 24q98 0 146.5 -57t48.5 -155q0 -53 -18 -118h-384q-8 -24 -8 -77q0 -71 32 -106.5t91 -35.5q54 0 94.5 29.5t63.5 77.5z
M122 339h297q7 47 7 60q0 67 -32 102.5t-85 35.5q-39 0 -71.5 -17.5t-54.5 -47.5t-36.5 -62.5t-24.5 -70.5zM221 629l99 102h62l61 -102h-53l-43 69l-70 -69h-56zM164 -134l16 80h76l-16 -80h-76z" />
    <glyph glyph-name="glyph321" unicode="&#x1ec8;" horiz-adv-x="241" 
d="M6 0l137 712h92l-137 -712h-92zM213 764h-28q1 33 33 53q33 20 29 50q-5 26 -40 26q-17 -3 -18 15q0 21 25 25q41 1 67 -18.5t24 -54.5q-7 -40 -67 -66q-15 -12 -25 -30z" />
    <glyph glyph-name="glyph322" unicode="&#x1ec9;" horiz-adv-x="241" 
d="M8 0l114 591h88l-114 -591h-88zM187 640h-26q2 33 31 49q32 18 27 47q-5 24 -37 24q-15 -3 -17 14q0 18 23 23q38 1 62.5 -17t22.5 -51q-7 -37 -62 -61q-14 -9 -24 -28z" />
    <glyph glyph-name="glyph323" unicode="&#x1eca;" horiz-adv-x="241" 
d="M6 0l137 712h92l-137 -712h-92zM-20 -130l16 84h80l-16 -84h-80z" />
    <glyph glyph-name="glyph324" unicode="&#x1ecb;" horiz-adv-x="241" 
d="M8 0l114 591h88l-114 -591h-88zM134 661l15 78h90l-15 -78h-90zM-13 -133l13 73h69l-14 -73h-68z" />
    <glyph glyph-name="glyph325" unicode="&#x1ecc;" horiz-adv-x="704" 
d="M34 253q0 63 14 127.5t44 127t72.5 111t105.5 78.5t137 30q128 0 195.5 -73.5t67.5 -194.5q0 -79 -23 -160t-67 -152.5t-118 -116.5t-166 -45q-127 0 -194.5 73.5t-67.5 194.5zM130 269q0 -111 41 -162.5t125 -51.5q68 0 123.5 38.5t88 98t49.5 124t17 124.5
q0 111 -41 162t-126 51q-68 0 -123.5 -38.5t-87.5 -97.5t-49 -123.5t-17 -124.5zM224 -130l16 84h80l-16 -84h-80z" />
    <glyph glyph-name="glyph326" unicode="&#x1ecd;" horiz-adv-x="574" 
d="M16 211q0 54 12 108.5t37 105.5t60 90.5t85.5 63.5t108.5 24q104 0 159.5 -61t55.5 -165q0 -93 -35 -180.5t-108.5 -148t-168.5 -60.5q-97 0 -151.5 62t-54.5 161zM108 213q0 -70 30 -112.5t88 -42.5q53 0 96 32t68 82.5t38.5 107t13.5 110.5q0 143 -129 143
q-64 0 -112.5 -53t-70.5 -124.5t-22 -142.5zM147 -133l13 73h69l-14 -73h-68z" />
    <glyph glyph-name="glyph327" unicode="&#x1ece;" horiz-adv-x="704" 
d="M34 253q0 63 14 127.5t44 127t72.5 111t105.5 78.5t137 30q128 0 195.5 -73.5t67.5 -194.5q0 -79 -23 -160t-67 -152.5t-118 -116.5t-166 -45q-127 0 -194.5 73.5t-67.5 194.5zM130 269q0 -111 41 -162.5t125 -51.5q68 0 123.5 38.5t88 98t49.5 124t17 124.5
q0 111 -41 162t-126 51q-68 0 -123.5 -38.5t-87.5 -97.5t-49 -123.5t-17 -124.5zM433 764h-28q1 33 33 53q33 20 29 50q-5 26 -40 26q-17 -3 -18 15q0 21 25 25q41 1 67 -18.5t24 -54.5q-7 -40 -67 -66q-15 -12 -25 -30z" />
    <glyph glyph-name="glyph328" unicode="&#x1ecf;" horiz-adv-x="574" 
d="M16 211q0 54 12 108.5t37 105.5t60 90.5t85.5 63.5t108.5 24q104 0 159.5 -61t55.5 -165q0 -93 -35 -180.5t-108.5 -148t-168.5 -60.5q-97 0 -151.5 62t-54.5 161zM108 213q0 -70 30 -112.5t88 -42.5q53 0 96 32t68 82.5t38.5 107t13.5 110.5q0 143 -129 143
q-64 0 -112.5 -53t-70.5 -124.5t-22 -142.5zM347 652h-26q2 33 31 49q32 18 27 47q-5 24 -37 24q-15 -3 -17 14q0 18 23 23q38 1 62.5 -17t22.5 -51q-7 -37 -62 -61q-14 -9 -24 -28z" />
    <glyph glyph-name="glyph329" unicode="&#x1ed0;" horiz-adv-x="704" 
d="M299 751l104 108h66l64 -108h-56l-45 73l-74 -73h-59zM527 814l93 114h90l-126 -114h-57zM34 253q0 63 14 127.5t44 127t72.5 111t105.5 78.5t137 30q128 0 195.5 -73.5t67.5 -194.5q0 -79 -23 -160t-67 -152.5t-118 -116.5t-166 -45q-127 0 -194.5 73.5t-67.5 194.5z
M130 269q0 -111 41 -162.5t125 -51.5q68 0 123.5 38.5t88 98t49.5 124t17 124.5q0 111 -41 162t-126 51q-68 0 -123.5 -38.5t-87.5 -97.5t-49 -123.5t-17 -124.5z" />
    <glyph glyph-name="glyph330" unicode="&#x1ed1;" horiz-adv-x="574" 
d="M16 211q0 54 12 108.5t37 105.5t60 90.5t85.5 63.5t108.5 24q104 0 159.5 -61t55.5 -165q0 -93 -35 -180.5t-108.5 -148t-168.5 -60.5q-97 0 -151.5 62t-54.5 161zM108 213q0 -70 30 -112.5t88 -42.5q53 0 96 32t68 82.5t38.5 107t13.5 110.5q0 143 -129 143
q-64 0 -112.5 -53t-70.5 -124.5t-22 -142.5zM233 630l99 103h63l61 -103h-54l-42 70l-71 -70h-56zM450 690l88 109h86l-120 -109h-54z" />
    <glyph glyph-name="glyph331" unicode="&#x1ed2;" horiz-adv-x="704" 
d="M299 751l104 108h66l64 -108h-56l-45 73l-74 -73h-59zM170 930h85l72 -114h-57zM34 253q0 63 14 127.5t44 127t72.5 111t105.5 78.5t137 30q128 0 195.5 -73.5t67.5 -194.5q0 -79 -23 -160t-67 -152.5t-118 -116.5t-166 -45q-127 0 -194.5 73.5t-67.5 194.5zM130 269
q0 -111 41 -162.5t125 -51.5q68 0 123.5 38.5t88 98t49.5 124t17 124.5q0 111 -41 162t-126 51q-68 0 -123.5 -38.5t-87.5 -97.5t-49 -123.5t-17 -124.5z" />
    <glyph glyph-name="glyph332" unicode="&#x1ed3;" horiz-adv-x="574" 
d="M16 211q0 54 12 108.5t37 105.5t60 90.5t85.5 63.5t108.5 24q104 0 159.5 -61t55.5 -165q0 -93 -35 -180.5t-108.5 -148t-168.5 -60.5q-97 0 -151.5 62t-54.5 161zM108 213q0 -70 30 -112.5t88 -42.5q53 0 96 32t68 82.5t38.5 107t13.5 110.5q0 143 -129 143
q-64 0 -112.5 -53t-70.5 -124.5t-22 -142.5zM242 640l98 103h63l61 -103h-53l-43 70l-70 -70h-56zM119 811h81l68 -109h-54z" />
    <glyph glyph-name="glyph333" unicode="&#x1ed4;" horiz-adv-x="704" 
d="M299 751l104 108h66l64 -108h-56l-45 73l-74 -73h-59zM566 810h-27q2 33 31 49q32 18 27 47q-5 23 -37 23q-16 -1 -17 15q0 20 24 23q37 1 61.5 -17.5t22.5 -50.5q-7 -36 -62 -62q-12 -8 -23 -27zM34 253q0 63 14 127.5t44 127t72.5 111t105.5 78.5t137 30
q128 0 195.5 -73.5t67.5 -194.5q0 -79 -23 -160t-67 -152.5t-118 -116.5t-166 -45q-127 0 -194.5 73.5t-67.5 194.5zM130 269q0 -111 41 -162.5t125 -51.5q68 0 123.5 38.5t88 98t49.5 124t17 124.5q0 111 -41 162t-126 51q-68 0 -123.5 -38.5t-87.5 -97.5t-49 -123.5
t-17 -124.5z" />
    <glyph glyph-name="glyph334" unicode="&#x1ed5;" horiz-adv-x="574" 
d="M16 211q0 54 12 108.5t37 105.5t60 90.5t85.5 63.5t108.5 24q104 0 159.5 -61t55.5 -165q0 -93 -35 -180.5t-108.5 -148t-168.5 -60.5q-97 0 -151.5 62t-54.5 161zM108 213q0 -70 30 -112.5t88 -42.5q53 0 96 32t68 82.5t38.5 107t13.5 110.5q0 143 -129 143
q-64 0 -112.5 -53t-70.5 -124.5t-22 -142.5zM232 625l99 103h62l61 -103h-53l-43 70l-70 -70h-56zM485 681h-25q1 30 30 47t25 45q-5 22 -35 22q-15 -1 -16 14q0 19 22 22q35 1 58.5 -17t21.5 -48q-8 -36 -59 -59q-11 -7 -22 -26z" />
    <glyph glyph-name="glyph335" unicode="&#x1ed6;" horiz-adv-x="704" 
d="M299 751l104 108h66l64 -108h-56l-45 73l-74 -73h-59zM374 878h-38q2 14 8.5 30.5t25.5 33.5t44 17q22 0 53 -20q38 -20 48 -20q26 0 33 38h38q-5 -29 -24 -55t-53 -26q-21 0 -50 20q-32 16 -47 16q-36 0 -38 -34zM34 253q0 63 14 127.5t44 127t72.5 111t105.5 78.5
t137 30q128 0 195.5 -73.5t67.5 -194.5q0 -79 -23 -160t-67 -152.5t-118 -116.5t-166 -45q-127 0 -194.5 73.5t-67.5 194.5zM130 269q0 -111 41 -162.5t125 -51.5q68 0 123.5 38.5t88 98t49.5 124t17 124.5q0 111 -41 162t-126 51q-68 0 -123.5 -38.5t-87.5 -97.5
t-49 -123.5t-17 -124.5z" />
    <glyph glyph-name="glyph336" unicode="&#x1ed7;" horiz-adv-x="574" 
d="M16 211q0 54 12 108.5t37 105.5t60 90.5t85.5 63.5t108.5 24q104 0 159.5 -61t55.5 -165q0 -93 -35 -180.5t-108.5 -148t-168.5 -60.5q-97 0 -151.5 62t-54.5 161zM108 213q0 -70 30 -112.5t88 -42.5q53 0 96 32t68 82.5t38.5 107t13.5 110.5q0 143 -129 143
q-64 0 -112.5 -53t-70.5 -124.5t-22 -142.5zM249 632l99 103h63l60 -103h-53l-42 70l-71 -70h-56zM320 753h-36q2 14 8.5 29t24 31.5t41.5 16.5q17 0 51 -19t45 -19q25 0 32 36h36q-5 -28 -22.5 -52.5t-50.5 -24.5q-22 0 -48 19q-28 15 -44 15t-26 -9t-11 -23z" />
    <glyph glyph-name="glyph337" unicode="&#x1ed8;" horiz-adv-x="704" 
d="M299 751l104 108h66l64 -108h-56l-45 73l-74 -73h-59zM224 -130l16 84h80l-16 -84h-80zM34 253q0 63 14 127.5t44 127t72.5 111t105.5 78.5t137 30q128 0 195.5 -73.5t67.5 -194.5q0 -79 -23 -160t-67 -152.5t-118 -116.5t-166 -45q-127 0 -194.5 73.5t-67.5 194.5z
M130 269q0 -111 41 -162.5t125 -51.5q68 0 123.5 38.5t88 98t49.5 124t17 124.5q0 111 -41 162t-126 51q-68 0 -123.5 -38.5t-87.5 -97.5t-49 -123.5t-17 -124.5z" />
    <glyph glyph-name="glyph338" unicode="&#x1ed9;" horiz-adv-x="574" 
d="M16 211q0 54 12 108.5t37 105.5t60 90.5t85.5 63.5t108.5 24q104 0 159.5 -61t55.5 -165q0 -93 -35 -180.5t-108.5 -148t-168.5 -60.5q-97 0 -151.5 62t-54.5 161zM108 213q0 -70 30 -112.5t88 -42.5q53 0 96 32t68 82.5t38.5 107t13.5 110.5q0 143 -129 143
q-64 0 -112.5 -53t-70.5 -124.5t-22 -142.5zM217 636l99 102h62l61 -102h-53l-43 69l-70 -69h-56zM156 -135l16 80h76l-16 -80h-76z" />
    <glyph glyph-name="glyph339" unicode="&#x1eda;" horiz-adv-x="704" 
d="M670 459q0 -79 -23 -160t-67 -152.5t-118 -116.5t-166 -45q-127 0 -194.5 73.5t-67.5 194.5q0 63 14 127.5t44 127t72.5 111t105.5 78.5t137 30q128 0 198 -76q45 19 46 40t-6 27q-5 6 -22 11q-12 4 -5 34q8 25 33 15q37 -12 52.5 -44t0.5 -68q-15 -28 -78 -43
q44 -68 44 -164zM626 624l-1 -1h1v1zM130 269q0 -111 41 -162.5t125 -51.5q68 0 123.5 38.5t88 98t49.5 124t17 124.5q0 111 -41 162t-126 51q-68 0 -123.5 -38.5t-87.5 -97.5t-49 -123.5t-17 -124.5zM368 772l98 120h95l-133 -120h-60z" />
    <glyph glyph-name="glyph340" unicode="&#x1edb;" horiz-adv-x="574" 
d="M534 377q0 -93 -35 -180.5t-108.5 -148t-168.5 -60.5q-97 0 -151.5 62t-54.5 161q0 54 12 108.5t37 105.5t60 90.5t85.5 63.5t108.5 24q101 0 157 -59q24 16 26 30q2 20 -6 26q-7 7 -20 10q-12 3 -5 31q8 25 31 14q34 -12 49 -41.5t0 -62.5q-10 -19 -55 -33
q38 -56 38 -141zM540 592l-1 -1h1v1zM496 519v-1v1zM108 213q0 -70 30 -112.5t88 -42.5q53 0 96 32t68 82.5t38.5 107t13.5 110.5q0 143 -129 143q-64 0 -112.5 -53t-70.5 -124.5t-22 -142.5zM294 651l93 114h90l-126 -114h-57z" />
    <glyph glyph-name="glyph341" unicode="&#x1edc;" horiz-adv-x="704" 
d="M670 459q0 -79 -23 -160t-67 -152.5t-118 -116.5t-166 -45q-127 0 -194.5 73.5t-67.5 194.5q0 63 14 127.5t44 127t72.5 111t105.5 78.5t137 30q128 0 198 -76q45 19 46 40t-6 27q-5 6 -22 11q-12 4 -5 34q8 25 33 15q37 -12 52.5 -44t0.5 -68q-15 -28 -78 -43
q44 -68 44 -164zM626 624l-1 -1h1v1zM130 269q0 -111 41 -162.5t125 -51.5q68 0 123.5 38.5t88 98t49.5 124t17 124.5q0 111 -41 162t-126 51q-68 0 -123.5 -38.5t-87.5 -97.5t-49 -123.5t-17 -124.5zM298 893h89l76 -120h-60z" />
    <glyph glyph-name="glyph342" unicode="&#x1edd;" horiz-adv-x="574" 
d="M534 377q0 -93 -35 -180.5t-108.5 -148t-168.5 -60.5q-97 0 -151.5 62t-54.5 161q0 54 12 108.5t37 105.5t60 90.5t85.5 63.5t108.5 24q101 0 157 -59q24 16 26 30q2 20 -6 26q-7 7 -20 10q-12 3 -5 31q8 25 31 14q34 -12 49 -41.5t0 -62.5q-10 -19 -55 -33
q38 -56 38 -141zM540 592l-1 -1h1v1zM496 519v-1v1zM108 213q0 -70 30 -112.5t88 -42.5q53 0 96 32t68 82.5t38.5 107t13.5 110.5q0 143 -129 143q-64 0 -112.5 -53t-70.5 -124.5t-22 -142.5zM258 767h85l72 -114h-57z" />
    <glyph glyph-name="glyph343" unicode="&#x1ede;" horiz-adv-x="704" 
d="M670 459q0 -79 -23 -160t-67 -152.5t-118 -116.5t-166 -45q-127 0 -194.5 73.5t-67.5 194.5q0 63 14 127.5t44 127t72.5 111t105.5 78.5t137 30q128 0 198 -76q45 19 46 40t-6 27q-5 6 -22 11q-12 4 -5 34q8 25 33 15q37 -12 52.5 -44t0.5 -68q-15 -28 -78 -43
q44 -68 44 -164zM626 624l-1 -1h1v1zM130 269q0 -111 41 -162.5t125 -51.5q68 0 123.5 38.5t88 98t49.5 124t17 124.5q0 111 -41 162t-126 51q-68 0 -123.5 -38.5t-87.5 -97.5t-49 -123.5t-17 -124.5zM433 764h-28q1 33 33 53q33 20 29 50q-5 26 -40 26q-17 -3 -18 15
q0 21 25 25q41 1 67 -18.5t24 -54.5q-7 -40 -67 -66q-15 -12 -25 -30z" />
    <glyph glyph-name="glyph344" unicode="&#x1edf;" horiz-adv-x="574" 
d="M534 377q0 -93 -35 -180.5t-108.5 -148t-168.5 -60.5q-97 0 -151.5 62t-54.5 161q0 54 12 108.5t37 105.5t60 90.5t85.5 63.5t108.5 24q101 0 157 -59q24 16 26 30q2 20 -6 26q-7 7 -20 10q-12 3 -5 31q8 25 31 14q34 -12 49 -41.5t0 -62.5q-10 -19 -55 -33
q38 -56 38 -141zM540 592l-1 -1h1v1zM496 518v1v-1zM108 213q0 -70 30 -112.5t88 -42.5q53 0 96 32t68 82.5t38.5 107t13.5 110.5q0 143 -129 143q-64 0 -112.5 -53t-70.5 -124.5t-22 -142.5zM347 652h-26q2 33 31 49q32 18 27 47q-5 24 -37 24q-15 -3 -17 14q0 18 23 23
q38 1 62.5 -17t22.5 -51q-7 -37 -62 -61q-14 -9 -24 -28z" />
    <glyph glyph-name="glyph345" unicode="&#x1ee0;" horiz-adv-x="704" 
d="M670 459q0 -79 -23 -160t-67 -152.5t-118 -116.5t-166 -45q-127 0 -194.5 73.5t-67.5 194.5q0 63 14 127.5t44 127t72.5 111t105.5 78.5t137 30q128 0 198 -76q45 19 46 40t-6 27q-5 6 -22 11q-12 4 -5 34q8 25 33 15q37 -12 52.5 -44t0.5 -68q-15 -28 -78 -43
q44 -68 44 -164zM626 624l-1 -1h1v1zM130 269q0 -111 41 -162.5t125 -51.5q68 0 123.5 38.5t88 98t49.5 124t17 124.5q0 111 -41 162t-126 51q-68 0 -123.5 -38.5t-87.5 -97.5t-49 -123.5t-17 -124.5zM333 765h-40q4 28 24 57.5t60 29.5q20 0 56 -21q38 -22 52 -22
q29 0 36 41h40q-3 -19 -10.5 -36.5t-26.5 -34t-45 -16.5q-22 0 -54 21q-34 18 -51 18t-28 -10.5t-13 -26.5z" />
    <glyph glyph-name="glyph346" unicode="&#x1ee1;" horiz-adv-x="574" 
d="M534 377q0 -93 -35 -180.5t-108.5 -148t-168.5 -60.5q-97 0 -151.5 62t-54.5 161q0 54 12 108.5t37 105.5t60 90.5t85.5 63.5t108.5 24q101 0 157 -59q24 16 26 30q2 20 -6 26q-7 7 -20 10q-12 3 -5 31q8 25 31 14q34 -12 49 -41.5t0 -62.5q-10 -19 -55 -33
q38 -56 38 -141zM540 592l-1 -1h1v1zM496 519v-1v1zM108 213q0 -70 30 -112.5t88 -42.5q53 0 96 32t68 82.5t38.5 107t13.5 110.5q0 143 -129 143q-64 0 -112.5 -53t-70.5 -124.5t-22 -142.5zM251 642h-37q2 15 8 31t24.5 32.5t44.5 16.5q16 0 52 -19q38 -20 47 -20
q26 0 33 38h37q-3 -27 -22.5 -53.5t-52.5 -26.5q-22 0 -50 19q-30 16 -47 16q-16 0 -26 -9.5t-11 -24.5z" />
    <glyph glyph-name="glyph347" unicode="&#x1ee2;" horiz-adv-x="704" 
d="M670 459q0 -79 -23 -160t-67 -152.5t-118 -116.5t-166 -45q-127 0 -194.5 73.5t-67.5 194.5q0 63 14 127.5t44 127t72.5 111t105.5 78.5t137 30q128 0 198 -76q45 19 46 40t-6 27q-5 6 -22 11q-12 4 -5 34q8 25 33 15q37 -12 52.5 -44t0.5 -68q-15 -28 -78 -43
q44 -68 44 -164zM626 624l-1 -1h1v1zM130 269q0 -111 41 -162.5t125 -51.5q68 0 123.5 38.5t88 98t49.5 124t17 124.5q0 111 -41 162t-126 51q-68 0 -123.5 -38.5t-87.5 -97.5t-49 -123.5t-17 -124.5zM214 -140l16 84h80l-16 -84h-80z" />
    <glyph glyph-name="glyph348" unicode="&#x1ee3;" horiz-adv-x="574" 
d="M534 377q0 -93 -35 -180.5t-108.5 -148t-168.5 -60.5q-97 0 -151.5 62t-54.5 161q0 54 12 108.5t37 105.5t60 90.5t85.5 63.5t108.5 24q101 0 157 -59q24 16 26 30q2 20 -6 26q-7 7 -20 10q-12 3 -5 31q8 25 31 14q34 -12 49 -41.5t0 -62.5q-10 -19 -55 -33
q38 -56 38 -141zM540 592l-1 -1h1v1zM496 518v1v-1zM108 213q0 -70 30 -112.5t88 -42.5q53 0 96 32t68 82.5t38.5 107t13.5 110.5q0 143 -129 143q-64 0 -112.5 -53t-70.5 -124.5t-22 -142.5zM157 -133l13 73h69l-14 -73h-68z" />
    <glyph glyph-name="glyph349" unicode="&#x1ee4;" horiz-adv-x="667" 
d="M233 712l-84 -438q-11 -46 -11 -87q0 -60 39.5 -94t103.5 -34q162 0 201 203l87 450h92l-90 -466q-49 -261 -309 -261q-99 0 -157.5 56t-58.5 142q0 46 15 112l80 417h92zM204 -130l16 84h80l-16 -84h-80z" />
    <glyph glyph-name="glyph350" unicode="&#x1ee5;" horiz-adv-x="574" 
d="M550 591l-114 -591h-88l18 92l-2 2q-42 -42 -98.5 -74t-110.5 -32q-53 0 -90.5 28.5t-37.5 88.5q0 32 10 80l78 406h88l-73 -379q-11 -49 -11 -82q0 -31 21 -47.5t53 -16.5q12 0 24.5 2.5t25 7.5t23.5 10t24 14t21 14.5t21 16t18.5 15t17.5 15t14 12.5l80 418h88z
M157 -133l13 73h69l-14 -73h-68z" />
    <glyph glyph-name="glyph351" unicode="&#x1ee6;" horiz-adv-x="667" 
d="M233 712l-84 -438q-11 -46 -11 -87q0 -60 39.5 -94t103.5 -34q162 0 201 203l87 450h92l-90 -466q-49 -261 -309 -261q-99 0 -157.5 56t-58.5 142q0 46 15 112l80 417h92zM433 764h-28q1 33 33 53q33 20 29 50q-5 26 -40 26q-17 -3 -18 15q0 21 25 25q41 1 67 -18.5
t24 -54.5q-7 -40 -67 -66q-15 -12 -25 -30z" />
    <glyph glyph-name="glyph352" unicode="&#x1ee7;" horiz-adv-x="574" 
d="M550 591l-114 -591h-88l18 92l-2 2q-42 -42 -98.5 -74t-110.5 -32q-53 0 -90.5 28.5t-37.5 88.5q0 32 10 80l78 406h88l-73 -379q-11 -49 -11 -82q0 -31 21 -47.5t53 -16.5q12 0 24.5 2.5t25 7.5t23.5 10t24 14t21 14.5t21 16t18.5 15t17.5 15t14 12.5l80 418h88z
M327 652h-26q2 33 31 49q32 18 27 47q-5 24 -37 24q-15 -3 -17 14q0 18 23 23q38 1 62.5 -17t22.5 -51q-7 -37 -62 -61q-14 -9 -24 -28z" />
    <glyph glyph-name="glyph353" unicode="&#x1ee8;" horiz-adv-x="667" 
d="M655 682v1l-84 -437q-49 -261 -309 -261q-99 0 -157.5 56t-58.5 142q0 46 15 112l80 417h92l-84 -438q-11 -46 -11 -87q0 -60 39.5 -94t103.5 -34q162 0 201 203l87 450h77q32 13 37 27q3 22 -5 32q-8 9 -20 12q-13 4 -2 33q9 21 32 10q39 -12 51 -44.5t-11 -68.5
q-19 -21 -73 -31zM368 762l98 120h95l-133 -120h-60z" />
    <glyph glyph-name="glyph354" unicode="&#x1ee9;" horiz-adv-x="574" 
d="M545 563l-1 -1l-108 -562h-88l18 92l-2 2q-42 -42 -98.5 -74t-110.5 -32q-53 0 -90.5 28.5t-37.5 88.5q0 32 10 80l78 406h88l-73 -379q-11 -49 -11 -82q0 -31 21 -47.5t53 -16.5q12 0 24.5 2.5t25 7.5t23.5 10t24 14t21 14.5t21 16t18.5 15t17.5 15t14 12.5l80 418h68
q28 13 33 24q2 21 -4 27q-4 6 -17 9q-11 5 1 35q11 18 30 6q35 -15 43.5 -46t-15.5 -58q-13 -18 -56 -25zM304 651l93 114h90l-126 -114h-57z" />
    <glyph glyph-name="glyph355" unicode="&#x1eea;" horiz-adv-x="667" 
d="M655 682v1l-84 -437q-49 -261 -309 -261q-99 0 -157.5 56t-58.5 142q0 46 15 112l80 417h92l-84 -438q-11 -46 -11 -87q0 -60 39.5 -94t103.5 -34q162 0 201 203l87 450h77q32 13 37 27q3 22 -5 32q-8 9 -20 12q-13 4 -2 33q9 21 32 10q39 -12 51 -44.5t-11 -68.5
q-19 -21 -73 -31zM298 883h89l76 -120h-60z" />
    <glyph glyph-name="glyph356" unicode="&#x1eeb;" horiz-adv-x="574" 
d="M545 563l-1 -1l-108 -562h-88l18 92l-2 2q-42 -42 -98.5 -74t-110.5 -32q-53 0 -90.5 28.5t-37.5 88.5q0 32 10 80l78 406h88l-73 -379q-11 -49 -11 -82q0 -31 21 -47.5t53 -16.5q12 0 24.5 2.5t25 7.5t23.5 10t24 14t21 14.5t21 16t18.5 15t17.5 15t14 12.5l80 418h68
q28 13 33 24q2 21 -4 27q-4 6 -17 9q-11 5 1 35q11 18 30 6q35 -15 43.5 -46t-15.5 -58q-13 -18 -56 -25zM238 767h85l72 -114h-57z" />
    <glyph glyph-name="glyph357" unicode="&#x1eec;" horiz-adv-x="667" 
d="M655 682v1l-84 -437q-49 -261 -309 -261q-99 0 -157.5 56t-58.5 142q0 46 15 112l80 417h92l-84 -438q-11 -46 -11 -87q0 -60 39.5 -94t103.5 -34q162 0 201 203l87 450h77q32 13 37 27q3 22 -5 32q-8 9 -20 12q-13 4 -2 33q9 21 32 10q39 -12 51 -44.5t-11 -68.5
q-19 -21 -73 -31zM433 764h-28q1 33 33 53q33 20 29 50q-5 26 -40 26q-17 -3 -18 15q0 21 25 25q41 1 67 -18.5t24 -54.5q-7 -40 -67 -66q-15 -12 -25 -30z" />
    <glyph glyph-name="glyph358" unicode="&#x1eed;" horiz-adv-x="574" 
d="M545 563l-1 -1l-108 -562h-88l18 92l-2 2q-42 -42 -98.5 -74t-110.5 -32q-53 0 -90.5 28.5t-37.5 88.5q0 32 10 80l78 406h88l-73 -379q-11 -49 -11 -82q0 -31 21 -47.5t53 -16.5q12 0 24.5 2.5t25 7.5t23.5 10t24 14t21 14.5t21 16t18.5 15t17.5 15t14 12.5l80 418h68
q28 13 33 24q2 21 -4 27q-4 6 -17 9q-11 5 1 35q11 18 30 6q35 -15 43.5 -46t-15.5 -58q-13 -18 -56 -25zM337 652h-26q2 33 31 49q32 18 27 47q-5 24 -37 24q-15 -3 -17 14q0 18 23 23q38 1 62.5 -17t22.5 -51q-7 -37 -62 -61q-14 -9 -24 -28z" />
    <glyph glyph-name="glyph359" unicode="&#x1eee;" horiz-adv-x="667" 
d="M655 682v1l-84 -437q-49 -261 -309 -261q-99 0 -157.5 56t-58.5 142q0 46 15 112l80 417h92l-84 -438q-11 -46 -11 -87q0 -60 39.5 -94t103.5 -34q162 0 201 203l87 450h77q32 13 37 27q3 22 -5 32q-8 9 -20 12q-13 4 -2 33q9 21 32 10q39 -12 51 -44.5t-11 -68.5
q-19 -21 -73 -31zM333 758h-40q4 28 24 57.5t60 29.5q20 0 56 -21q38 -22 52 -22q29 0 36 41h40q-3 -19 -10.5 -36.5t-26.5 -34t-45 -16.5q-22 0 -54 21q-34 18 -51 18t-28 -10.5t-13 -26.5z" />
    <glyph glyph-name="glyph360" unicode="&#x1eef;" horiz-adv-x="574" 
d="M545 563l-1 -1l-108 -562h-88l18 92l-2 2q-42 -42 -98.5 -74t-110.5 -32q-53 0 -90.5 28.5t-37.5 88.5q0 32 10 80l78 406h88l-73 -379q-11 -49 -11 -82q0 -31 21 -47.5t53 -16.5q12 0 24.5 2.5t25 7.5t23.5 10t24 14t21 14.5t21 16t18.5 15t17.5 15t14 12.5l80 418h68
q28 13 33 24q2 21 -4 27q-4 6 -17 9q-11 5 1 35q11 18 30 6q35 -15 43.5 -46t-15.5 -58q-13 -18 -56 -25zM251 642h-37q2 15 8 31t24.5 32.5t44.5 16.5q16 0 52 -19q38 -20 47 -20q26 0 33 38h37q-3 -27 -22.5 -53.5t-52.5 -26.5q-22 0 -50 19q-30 16 -47 16q-16 0 -26 -9.5
t-11 -24.5z" />
    <glyph glyph-name="glyph361" unicode="&#x1ef0;" horiz-adv-x="667" 
d="M655 682v1l-84 -437q-49 -261 -309 -261q-99 0 -157.5 56t-58.5 142q0 46 15 112l80 417h92l-84 -438q-11 -46 -11 -87q0 -60 39.5 -94t103.5 -34q162 0 201 203l87 450h77q32 13 37 27q3 22 -5 32q-8 9 -20 12q-13 4 -2 33q9 21 32 10q39 -12 51 -44.5t-11 -68.5
q-19 -21 -73 -31zM224 -130l16 84h80l-16 -84h-80z" />
    <glyph glyph-name="glyph362" unicode="&#x1ef1;" horiz-adv-x="574" 
d="M545 563l-1 -1l-108 -562h-88l18 92l-2 2q-42 -42 -98.5 -74t-110.5 -32q-53 0 -90.5 28.5t-37.5 88.5q0 32 10 80l78 406h88l-73 -379q-11 -49 -11 -82q0 -31 21 -47.5t53 -16.5q12 0 24.5 2.5t25 7.5t23.5 10t24 14t21 14.5t21 16t18.5 15t17.5 15t14 12.5l80 418h68
q28 13 33 24q2 21 -4 27q-4 6 -17 9q-11 5 1 35q11 18 30 6q35 -15 43.5 -46t-15.5 -58q-13 -18 -56 -25zM147 -133l13 73h69l-14 -73h-68z" />
    <glyph glyph-name="glyph363" unicode="&#x1ef2;" horiz-adv-x="611" 
d="M202 0l56 291l-169 421h104l94 -253q18 -49 29 -91h5q26 47 57 87l196 257h112l-336 -421l-56 -291h-92zM268 883h89l76 -120h-60z" />
    <glyph glyph-name="glyph364" unicode="&#x1ef3;" horiz-adv-x="500" 
d="M142 9l-100 582h92l60 -417q5 -39 5 -76h6q11 38 37 88l210 405h98l-342 -628l-29 -53q-64 -112 -156 -112q-43 0 -67 10l17 74q3 -1 10.5 -4t15 -4.5t15.5 -1.5q27 0 48.5 16.5t46.5 59.5zM168 767h85l72 -114h-57z" />
    <glyph glyph-name="glyph365" unicode="&#x1ef4;" horiz-adv-x="611" 
d="M202 0l56 291l-169 421h104l94 -253q18 -49 29 -91h5q26 47 57 87l196 257h112l-336 -421l-56 -291h-92zM184 -130l16 84h80l-16 -84h-80z" />
    <glyph glyph-name="glyph366" unicode="&#x1ef5;" horiz-adv-x="500" 
d="M142 9l-100 582h92l60 -417q5 -39 5 -76h6q11 38 37 88l210 405h98l-342 -628l-29 -53q-64 -112 -156 -112q-43 0 -67 10l17 74q3 -1 10.5 -4t15 -4.5t15.5 -1.5q27 0 48.5 16.5t46.5 59.5zM267 -153l13 73h69l-14 -73h-68z" />
    <glyph glyph-name="glyph367" unicode="&#x1ef6;" horiz-adv-x="611" 
d="M202 0l56 291l-169 421h104l94 -253q18 -49 29 -91h5q26 47 57 87l196 257h112l-336 -421l-56 -291h-92zM403 764h-28q1 33 33 53q33 20 29 50q-5 26 -40 26q-17 -3 -18 15q0 21 25 25q41 1 67 -18.5t24 -54.5q-7 -40 -67 -66q-15 -12 -25 -30z" />
    <glyph glyph-name="glyph368" unicode="&#x1ef7;" horiz-adv-x="500" 
d="M142 9l-100 582h92l60 -417q5 -39 5 -76h6q11 38 37 88l210 405h98l-342 -628l-29 -53q-64 -112 -156 -112q-43 0 -67 10l17 74q3 -1 10.5 -4t15 -4.5t15.5 -1.5q27 0 48.5 16.5t46.5 59.5zM327 652h-26q2 33 31 49q32 18 27 47q-5 24 -37 24q-15 -3 -17 14q0 18 23 23
q38 1 62.5 -17t22.5 -51q-7 -37 -62 -61q-14 -9 -24 -28z" />
    <glyph glyph-name="glyph369" unicode="&#x1ef8;" horiz-adv-x="611" 
d="M202 0l56 291l-169 421h104l94 -253q18 -49 29 -91h5q26 47 57 87l196 257h112l-336 -421l-56 -291h-92zM330 761h-40q4 28 24 57.5t60 29.5q20 0 56 -21q38 -22 52 -22q29 0 36 41h40q-3 -19 -10.5 -36.5t-26.5 -34t-45 -16.5q-22 0 -54 21q-34 18 -51 18t-28 -10.5
t-13 -26.5z" />
    <glyph glyph-name="glyph370" unicode="&#x1ef9;" horiz-adv-x="500" 
d="M142 9l-100 582h92l60 -417q5 -39 5 -76h6q11 38 37 88l210 405h98l-342 -628l-29 -53q-64 -112 -156 -112q-43 0 -67 10l17 74q3 -1 10.5 -4t15 -4.5t15.5 -1.5q27 0 48.5 16.5t46.5 59.5zM241 632h-37q2 15 8 31t24.5 32.5t44.5 16.5q16 0 52 -19q38 -20 47 -20
q26 0 33 38h37q-3 -27 -22.5 -53.5t-52.5 -26.5q-22 0 -50 19q-30 16 -47 16q-16 0 -26 -9.5t-11 -24.5z" />
    <glyph glyph-name="endash" unicode="&#x2013;" horiz-adv-x="500" 
d="M-18 263l12 66h500l-12 -66h-500z" />
    <glyph glyph-name="emdash" unicode="&#x2014;" horiz-adv-x="1000" 
d="M-18 263l12 66h1000l-12 -66h-1000z" />
    <glyph glyph-name="quoteleft" unicode="&#x2018;" horiz-adv-x="278" 
d="M94 541l132 236h74l-106 -236h-100z" />
    <glyph glyph-name="quoteright" unicode="&#x2019;" horiz-adv-x="278" 
d="M84 541l106 236h100l-132 -236h-74z" />
    <glyph glyph-name="quotesinglbase" unicode="&#x201a;" horiz-adv-x="278" 
d="M-50 -132l106 236h100l-132 -236h-74z" />
    <glyph glyph-name="quotedblleft" unicode="&#x201c;" horiz-adv-x="444" 
d="M276 541l132 236h74l-106 -236h-100zM96 541l132 236h74l-106 -236h-100z" />
    <glyph glyph-name="quotedblright" unicode="&#x201d;" horiz-adv-x="444" 
d="M92 541l106 236h100l-132 -236h-74zM272 541l106 236h100l-132 -236h-74z" />
    <glyph glyph-name="quotedblbase" unicode="&#x201e;" horiz-adv-x="444" 
d="M-56 -132l106 236h100l-132 -236h-74zM124 -132l106 236h100l-132 -236h-74z" />
    <glyph glyph-name="dagger" unicode="&#x2020;" 
d="M139 -124l109 559h-196l15 74h195l40 203h88l-40 -203h196l-15 -74h-195l-109 -559h-88z" />
    <glyph glyph-name="daggerdbl" unicode="&#x2021;" 
d="M-8 64l14 74h186l60 309h-186l14 74h187l37 191h88l-37 -191h186l-14 -74h-187l-60 -309h187l-14 -74h-187l-37 -188h-88l37 188h-186z" />
    <glyph glyph-name="bullet" unicode="&#x2022;" horiz-adv-x="500" 
d="M72 356q0 74 52 126t126 52t126 -52t52 -126t-52 -126t-126 -52t-126 52t-52 126z" />
    <glyph glyph-name="ellipsis" unicode="&#x2026;" horiz-adv-x="1000" 
d="M49 0l20 104h98l-20 -104h-98zM382 0l20 104h98l-20 -104h-98zM715 0l20 104h98l-20 -104h-98z" />
    <glyph glyph-name="perthousand" unicode="&#x2030;" horiz-adv-x="1074" 
d="M494 42q33 0 57 19.5t36 50t17 60.5t5 59q0 80 -66 80q-31 0 -55 -19.5t-36 -49.5t-18 -60.5t-6 -58.5q0 -34 17.5 -57.5t48.5 -23.5zM486 -12q-19 0 -38 5t-41 18.5t-35.5 44t-13.5 75.5q0 54 18.5 105.5t64.5 90t110 38.5q19 0 38 -5t41 -18.5t35.5 -44t13.5 -75.5
q0 -54 -18.5 -105.5t-64.5 -90t-110 -38.5zM847 -12q-19 0 -38 5t-41 18.5t-35.5 44t-13.5 75.5q0 54 18.5 105.5t64.5 90t110 38.5q19 0 38 -5t41 -18.5t35.5 -44t13.5 -75.5q0 -54 -18.5 -105.5t-64.5 -90t-110 -38.5zM855 42q33 0 57 19.5t36 50t17 60.5t5 59
q0 80 -66 80q-31 0 -55 -19.5t-36 -49.5t-18 -60.5t-6 -58.5q0 -34 17.5 -57.5t48.5 -23.5zM168 350q-19 0 -38 5t-41 18.5t-35.5 44t-13.5 75.5q0 54 18.5 105.5t64.5 90t110 38.5q19 0 38 -5t41 -18.5t35.5 -44t13.5 -75.5q0 -54 -18.5 -105.5t-64.5 -90t-110 -38.5z
M176 404q33 0 57 19.5t36 50t17 60.5t5 59q0 80 -66 80q-31 0 -55 -19.5t-36 -49.5t-18 -60.5t-6 -58.5q0 -34 17.5 -57.5t48.5 -23.5zM54 -24l537 763h70l-537 -763h-70z" />
    <glyph glyph-name="guilsinglleft" unicode="&#x2039;" horiz-adv-x="278" 
d="M20 308l186 206l50 -42l-149 -176l81 -195l-60 -29z" />
    <glyph glyph-name="guilsinglright" unicode="&#x203a;" horiz-adv-x="278" 
d="M226 278l-186 -206l-50 42l149 176l-81 195l60 29z" />
    <glyph glyph-name="fraction" unicode="&#x2044;" horiz-adv-x="167" 
d="M331 705l-444 -719h-51l444 719h51z" />
    <glyph glyph-name="franc" unicode="&#x20a3;" horiz-adv-x="1035" 
d="M3 0l137 712h424l-14 -74h-332l-48 -244h315l-14 -74h-315l-61 -320h-92zM660 0l114 591h88l-19 -99l2 -2q109 109 217 109l-19 -93q-11 3 -34 3q-51 0 -93.5 -27t-89.5 -76l-78 -406h-88z" />
    <glyph glyph-name="u20AB" unicode="&#x20ab;" horiz-adv-x="393" 
d="M197 501q-48 0 -84 -88q-20 -51 -20 -90q0 -51 39 -51q41 0 74 71q28 59 28 107q0 51 -37 51zM200 267q-53 -62 -106 -62q-44 0 -67.5 28t-23.5 74q0 79 55 152q60 79 136 79q34 0 61 -24l20 75h-100l10 36h100l2 16q0 31 -48 32l7 33q60 1 128 14q12 3 15 3q6 0 6 -9
q-1 -3 -3 -12l-19 -77h65l-10 -36h-65l-69 -280q-5 -25 -5 -27q0 -15 12 -15q6 0 49 42l20 -18q-71 -86 -117 -86q-42 0 -53 62zM9 104v56h221v-56h-221z" />
    <glyph glyph-name="Euro" unicode="&#x20ac;" 
d="M18 225q0 61 10 125.5t34.5 133t60.5 122t92.5 87.5t125.5 34q87 0 142 -59t55 -178q0 -61 -10 -125.5t-34.5 -133t-60.5 -122t-92.5 -87.5t-125.5 -34q-87 0 -142 59t-55 178zM110 220q0 -162 112 -162q55 0 100 44.5t71 113.5t39.5 141.5t13.5 137.5q0 162 -112 162
q-55 0 -100 -45t-71 -113.5t-39.5 -141t-13.5 -137.5zM25 317v66h506v-66h-506zM25 123v66h506v-66h-506z" />
    <glyph glyph-name="trademark" unicode="&#x2122;" horiz-adv-x="1000" 
d="M193 302v358h-130v54h326v-54h-130v-358h-66zM859 302v346h-2l-136 -346h-43l-136 346h-2v-346h-66v412h104l123 -313l121 313h103v-412h-66z" />
    <glyph glyph-name="partialdiff" unicode="&#x2202;" horiz-adv-x="1000" 
 />
    <glyph glyph-name="product" unicode="&#x220f;" horiz-adv-x="1000" 
 />
    <glyph glyph-name="summation" unicode="&#x2211;" horiz-adv-x="1000" 
 />
    <glyph glyph-name="minus" unicode="&#x2212;" horiz-adv-x="660" 
d="M580 220h-500v60h500v-60z" />
    <glyph glyph-name="radical" unicode="&#x221a;" horiz-adv-x="1000" 
 />
    <glyph glyph-name="infinity" unicode="&#x221e;" horiz-adv-x="1000" 
 />
    <glyph glyph-name="integral" unicode="&#x222b;" horiz-adv-x="1000" 
 />
    <glyph glyph-name="approxequal" unicode="&#x2248;" horiz-adv-x="1000" 
 />
    <glyph glyph-name="approxequal" unicode="&#x22f2;" horiz-adv-x="1000" 
 />
    <glyph glyph-name="notequal" unicode="&#x2260;" horiz-adv-x="1000" 
 />
    <glyph glyph-name="lessequal" unicode="&#x2264;" horiz-adv-x="1000" 
 />
    <glyph glyph-name="greaterequal" unicode="&#x2265;" horiz-adv-x="1000" 
 />
    <glyph glyph-name="SF370000" unicode="&#x255f;" horiz-adv-x="718" 
d="M-52 0l412 712h117l132 -712h-92l-34 189h-329l-108 -189h-98zM469 263l-52 288q-10 51 -12 79h-5q-18 -40 -55 -106l-149 -261h273z" />
    <glyph glyph-name="SF420000" unicode="&#x2560;" horiz-adv-x="681" 
d="M3 0l137 712h431l-15 -74h-339l-44 -232h321l-16 -74h-319l-49 -258h346l-15 -74h-438z" />
    <glyph glyph-name="SF190000" unicode="&#x2561;" horiz-adv-x="429" 
d="M6 0l137 712h92l-137 -712h-92z" />
    <glyph glyph-name="SF200000" unicode="&#x2562;" horiz-adv-x="773" 
d="M34 253q0 63 14 127.5t44 127t72.5 111t105.5 78.5t137 30q128 0 195.5 -73.5t67.5 -194.5q0 -79 -23 -160t-67 -152.5t-118 -116.5t-166 -45q-127 0 -194.5 73.5t-67.5 194.5zM130 269q0 -111 41 -162.5t125 -51.5q68 0 123.5 38.5t88 98t49.5 124t17 124.5
q0 111 -41 162t-126 51q-68 0 -123.5 -38.5t-87.5 -97.5t-49 -123.5t-17 -124.5z" />
    <glyph glyph-name="SF230000" unicode="&#x2563;" horiz-adv-x="811" 
d="M233 712l-84 -438q-11 -46 -11 -87q0 -60 39.5 -94t103.5 -34q162 0 201 203l87 450h92l-90 -466q-49 -261 -309 -261q-99 0 -157.5 56t-58.5 142q0 46 15 112l80 417h92z" />
    <glyph glyph-name="SF470000" unicode="&#x2564;" horiz-adv-x="699" 
d="M202 0l56 291l-169 421h104l94 -253q18 -49 29 -91h5q26 47 57 87l196 257h112l-336 -421l-56 -291h-92z" />
    <glyph glyph-name="SF480000" unicode="&#x2565;" horiz-adv-x="541" 
d="M323 0l17 91h-3q-17 -20 -40.5 -39.5t-70 -41.5t-92.5 -22q-63 0 -100.5 42t-37.5 101q0 93 63.5 155.5t186.5 68.5l144 6q11 46 11 87q0 89 -98 89q-33 0 -59.5 -10.5t-44 -29.5t-26.5 -33.5t-18 -34.5l-75 26q14 28 29 49t41.5 46t67.5 39t92 14q76 0 127.5 -39.5
t51.5 -115.5q0 -36 -11 -91l-55 -289q-9 -42 -12 -68h-88zM354 161l26 134l-78 -3q-47 -2 -82 -9t-67 -23t-48.5 -45.5t-16.5 -71.5q0 -81 84 -81q33 0 69 17t57.5 34t55.5 48z" />
    <glyph glyph-name="SF410000" unicode="&#x2566;" horiz-adv-x="431" 
d="M385 161l70 -27q-8 -18 -23 -39t-42.5 -47t-71.5 -43t-96 -17q-97 0 -151.5 62t-54.5 161q0 54 12 108.5t37 105.5t60 90.5t85.5 63.5t108.5 24q98 0 146.5 -57t48.5 -155q0 -53 -18 -118h-384q-8 -24 -8 -77q0 -71 32 -106.5t91 -35.5q54 0 94.5 29.5t63.5 77.5z
M122 339h297q7 47 7 60q0 67 -32 102.5t-85 35.5q-39 0 -71.5 -17.5t-54.5 -47.5t-36.5 -62.5t-24.5 -70.5z" />
    <glyph glyph-name="SF450000" unicode="&#x2567;" horiz-adv-x="314" 
d="M8 0l114 591h88l-114 -591h-88zM134 691l17 86h100l-17 -86h-100z" />
    <glyph glyph-name="SF460000" unicode="&#x2568;" horiz-adv-x="314" 
d="M138 518v-518h-60v518h60z" />
    <glyph glyph-name="SF400000" unicode="&#x2569;" horiz-adv-x="498" 
d="M16 211q0 54 12 108.5t37 105.5t60 90.5t85.5 63.5t108.5 24q104 0 159.5 -61t55.5 -165q0 -93 -35 -180.5t-108.5 -148t-168.5 -60.5q-97 0 -151.5 62t-54.5 161zM108 213q0 -70 30 -112.5t88 -42.5q53 0 96 32t68 82.5t38.5 107t13.5 110.5q0 143 -129 143
q-64 0 -112.5 -53t-70.5 -124.5t-22 -142.5z" />
    <glyph glyph-name="SF540000" unicode="&#x256a;" horiz-adv-x="557" 
d="M550 591l-114 -591h-88l18 92l-2 2q-42 -42 -98.5 -74t-110.5 -32q-53 0 -90.5 28.5t-37.5 88.5q0 32 10 80l78 406h88l-73 -379q-11 -49 -11 -82q0 -31 21 -47.5t53 -16.5q12 0 24.5 2.5t25 7.5t23.5 10t24 14t21 14.5t21 16t18.5 15t17.5 15t14 12.5l80 418h88z" />
    <glyph glyph-name="SF530000" unicode="&#x256b;" horiz-adv-x="497" 
d="M142 9l-100 582h92l60 -417q5 -39 5 -76h6q11 38 37 88l210 405h98l-342 -628l-29 -53q-64 -112 -156 -112q-43 0 -67 10l17 74q3 -1 10.5 -4t15 -4.5t15.5 -1.5q27 0 48.5 16.5t46.5 59.5z" />
    <glyph glyph-name="lozenge" unicode="&#x25ca;" horiz-adv-x="1000" 
 />
    <glyph glyph-name="circle" unicode="&#x25cb;" horiz-adv-x="718" 
d="M252 893l136 142h88l84 -142h-74l-59 96l-97 -96h-78zM310 1081l115 142h112l-157 -142h-70z" />
    <glyph glyph-name="H18533" unicode="&#x25cf;" horiz-adv-x="718" 
d="M252 893l136 142h88l84 -142h-74l-59 96l-97 -96h-78zM391 1224h104l89 -142h-70z" />
    <glyph glyph-name="invbullet" unicode="&#x25d8;" horiz-adv-x="718" 
d="M252 893l136 142h88l84 -142h-74l-59 96l-97 -96h-78zM647 903h-33q10 32 11 64q2 12 8 13q4 0 8 1q67 10 67 54q0 35 -28 35q-4 0 -15 -1t-13 -1q-21 0 -21 18q0 28 32 28q47 0 76.5 -26.5t25.5 -69.5q-6 -58 -87 -81q-25 -7 -31 -34z" />
    <glyph glyph-name="invcircle" unicode="&#x25d9;" horiz-adv-x="718" 
d="M252 893l136 142h88l84 -142h-74l-59 96l-97 -96h-78zM341 1091h-50q2 19 11.5 41.5t34.5 45t60 22.5q24 0 70 -26q48 -27 65 -27q36 0 45 51h50q-5 -38 -31 -73.5t-72 -35.5q-22 0 -68 26q-40 23 -63 23q-21 0 -35.5 -13t-16.5 -34z" />
    <glyph glyph-name="apple" unicode="&#xf000;" horiz-adv-x="1000" 
 />
    <glyph glyph-name="fi" unicode="&#xf001;" horiz-adv-x="500" 
d="M92 0v468h-79v50h79v82q0 134 110 134q31 0 50 -4v-55q-22 5 -36 5q-42 0 -55 -31q-9 -19 -9 -67v-64h98v-50h-98v-468h-60zM432 518v-518h-60v518h60zM369 720h66v-89h-66v89z" />
    <glyph glyph-name="fl" unicode="&#xf002;" horiz-adv-x="500" 
d="M92 0v468h-79v50h79v82q0 134 110 134q31 0 50 -4v-55q-22 5 -36 5q-42 0 -55 -31q-9 -19 -9 -67v-64h98v-50h-98v-468h-60zM432 720v-720h-60v720h60z" />
    <glyph glyph-name="NULL" horiz-adv-x="278" 
 />
    <glyph glyph-name="CR.001" horiz-adv-x="241" 
d="M8 0l114 591h88l-114 -591h-88z" />
    <glyph glyph-name="percent.001" horiz-adv-x="833" 
 />
    <glyph glyph-name="middot" horiz-adv-x="481" 
d="M6 0l53 273l-78 -46l14 70l77 45l71 370h92l-60 -310l230 134l-14 -70l-229 -133l-49 -255h305l-14 -78h-398z" />
    <glyph glyph-name="HT" horiz-adv-x="241" 
d="M8 0l58 306l-79 -50l13 62l78 49l79 410h88l-66 -347l93 59l-13 -62l-92 -58l-71 -369h-88z" />
    <glyph glyph-name="LF" horiz-adv-x="241" 
d="M125 661l-84 142h74l59 -96l97 96h78l-136 -142h-88z" />
    <glyph glyph-name="CR" horiz-adv-x="241" 
d="M38 800h46q0 -39 24.5 -62.5t68.5 -23.5q85 0 118 86h46q-12 -59 -57.5 -97.5t-109.5 -38.5q-136 0 -136 136z" />
    <glyph glyph-name="DLE" horiz-adv-x="241" 
d="M145 691l18 90h96l-18 -90h-96z" />
    <glyph glyph-name="DC1" horiz-adv-x="241" 
d="M97 732q0 41 28 69t69 28t69 -28t28 -69t-28 -69t-69 -28t-69 28t-28 69zM140 732q0 -23 15.5 -38.5t38.5 -15.5t38.5 15.5t15.5 38.5t-15.5 38.5t-38.5 15.5t-38.5 -15.5t-15.5 -38.5z" />
    <glyph glyph-name="DC2" horiz-adv-x="241" 
d="M132 23h54q-39 -28 -59 -44t-40 -40.5t-20 -44.5q0 -22 14.5 -34t36.5 -12q33 0 68 21l-9 -47q-46 -24 -102 -24q-39 0 -60.5 19.5t-21.5 47.5q0 9 1.5 17.5t6 17t7.5 15t11 15t12 13t13.5 13t13 11t14.5 11t13 10.5z" />
    <glyph glyph-name="DC3" horiz-adv-x="241" 
d="M8 661l115 142h112l-157 -142h-70zM188 661l115 142h112l-157 -142h-70z" />
    <glyph glyph-name="DC4" horiz-adv-x="167" 
d="M-166 -24l433 763h66l-433 -763h-66z" />
    <glyph glyph-name="RS" horiz-adv-x="600" 
d="M47 220v66h506v-66h-506z" />
    <glyph glyph-name="US" 
d="M315 0l114 591h88l-114 -591h-88zM441 691l17 86h100l-17 -86h-100zM28 0l91 474h-89l15 70h87l15 66q18 84 59 131.5t127 47.5q36 0 75 -12l-15 -71q-35 13 -62 13q-43 0 -64.5 -28t-33.5 -82l-13 -65h112l-15 -70h-110l-91 -474h-88z" />
    <glyph glyph-name="DEL" 
d="M315 0l149 777h88l-149 -777h-88zM28 0l91 474h-89l15 70h87l15 66q18 84 59 131.5t127 47.5q30 0 71 -12l-16 -71q-35 13 -57 13q-43 0 -64.5 -28t-33.5 -82l-13 -65h112l-15 -70h-110l-91 -474h-88z" />
    <glyph glyph-name="glyph275" horiz-adv-x="249" 
 />
    <glyph glyph-name="glyph276" horiz-adv-x="249" 
 />
    <glyph glyph-name="glyph261" horiz-adv-x="500" 
d="M286 522h-33q10 32 11 64q2 12 8 13q4 0 8 1q67 10 67 54q0 35 -28 35q-4 0 -15 -1t-13 -1q-21 0 -21 18q0 28 32 28q47 0 76.5 -26.5t25.5 -69.5q-6 -59 -87 -81q-25 -7 -31 -34z" />
    <glyph glyph-name="glyph262" horiz-adv-x="541" 
d="M49 661l136 142h88l84 -142h-74l-59 96l-97 -96h-78zM108 850l115 142h112l-157 -142h-70z" />
    <glyph glyph-name="glyph263" horiz-adv-x="541" 
d="M49 661l136 142h88l84 -142h-74l-59 96l-97 -96h-78zM188 992h104l89 -142h-70z" />
    <glyph glyph-name="glyph264" horiz-adv-x="541" 
d="M49 661l136 142h88l84 -142h-74l-59 96l-97 -96h-78zM444 671h-33q10 32 11 64q2 12 8 13q4 0 8 1q67 10 67 54q0 35 -28 35q-4 0 -15 -1t-13 -1q-21 0 -21 18q0 28 32 28q47 0 76.5 -26.5t25.5 -69.5q-6 -58 -87 -81q-25 -7 -31 -34z" />
    <glyph glyph-name="glyph265" horiz-adv-x="541" 
d="M49 661l136 142h88l84 -142h-74l-59 96l-97 -96h-78zM138 859h-50q2 19 11.5 41.5t34.5 45t60 22.5q24 0 70 -26q48 -27 65 -27q36 0 45 51h50q-5 -38 -31 -73.5t-72 -35.5q-22 0 -68 26q-40 23 -63 23q-21 0 -35.5 -13t-16.5 -34z" />
    <glyph glyph-name="glyph266" horiz-adv-x="541" 
d="M58 706h39q17 -81 105 -81t107 81h37q-14 -126 -149 -126q-60 0 -97.5 33.5t-41.5 92.5zM185 850l115 142h112l-157 -142h-70z" />
    <glyph glyph-name="glyph267" horiz-adv-x="541" 
d="M58 706h39q17 -81 105 -81t107 81h37q-14 -126 -149 -126q-60 0 -97.5 33.5t-41.5 92.5zM135 992h104l89 -142h-70z" />
    <glyph glyph-name="glyph268" horiz-adv-x="541" 
d="M58 706h39q17 -81 105 -81t107 81h37q-14 -126 -149 -126q-60 0 -97.5 33.5t-41.5 92.5zM339 671h-33q10 32 11 64q2 12 8 13q4 0 8 1q67 10 67 54q0 35 -28 35q-4 0 -15 -1t-13 -1q-21 0 -21 18q0 28 32 28q47 0 76.5 -26.5t25.5 -69.5q-6 -58 -87 -81q-25 -7 -31 -34z
" />
    <glyph glyph-name="glyph269" horiz-adv-x="541" 
d="M58 706h39q17 -81 105 -81t107 81h37q-14 -126 -149 -126q-60 0 -97.5 33.5t-41.5 92.5zM138 859h-50q2 19 11.5 41.5t34.5 45t60 22.5q24 0 70 -26q48 -27 65 -27q36 0 45 51h50q-5 -38 -31 -73.5t-72 -35.5q-22 0 -68 26q-40 23 -63 23q-21 0 -35.5 -13t-16.5 -34z" />
    <glyph glyph-name="glyph270" horiz-adv-x="249" 
 />
    <glyph glyph-name="_403" horiz-adv-x="500" 
 />
    <glyph glyph-name="_405" horiz-adv-x="500" 
 />
    <glyph glyph-name="_406" horiz-adv-x="500" 
 />
    <glyph glyph-name="_407" horiz-adv-x="500" 
 />
    <glyph glyph-name="_408" horiz-adv-x="500" 
 />
    <glyph glyph-name="_409" horiz-adv-x="500" 
 />
  </font>
</defs>
</svg>
