<?xml version="1.0" standalone="no"?>
<!DOCTYPE svg PUBLIC "-//W3C//DTD SVG 1.1//EN" "http://www.w3.org/Graphics/SVG/1.1/DTD/svg11.dtd" >
<svg xmlns="http://www.w3.org/2000/svg" xmlns:xlink="http://www.w3.org/1999/xlink" version="1.1">
<metadata>
Created by FontForge 20170731 at Tue Feb 15 19:12:52 2011
 By Aleksey,,,
(c) Copyright 2005 by Tong Duc Thinh. All Rights Reserved
</metadata>
<defs>
<font id="SFUVectoraLH-Light" horiz-adv-x="556" >
  <font-face 
    font-family="SFU Vectora LH"
    font-weight="300"
    font-stretch="normal"
    units-per-em="1000"
    panose-1="0 0 3 0 0 0 0 0 0 0"
    ascent="800"
    descent="-200"
    x-height="587"
    cap-height="712"
    bbox="-164 -250 1044 1222"
    underline-thickness="50"
    underline-position="-200"
    unicode-range="U+0020-F002"
  />
<missing-glyph horiz-adv-x="778" 
d="M198 395q43 0 71 35t28 109q0 59 -23 99.5t-76 40.5q-54 0 -76.5 -40t-22.5 -100q0 -74 28 -109t71 -35zM198 347q-46 0 -79.5 19t-50 49.5t-24 60.5t-7.5 61q0 84 41 137t120 53t120 -53t41 -137q0 -31 -7.5 -61t-24 -60.5t-50 -49.5t-79.5 -19zM580 36q43 0 71 35
t28 109q0 59 -23 99.5t-76 40.5q-54 0 -76.5 -40t-22.5 -100q0 -74 28 -109t71 -35zM580 -12q-46 0 -79.5 19t-50 49.5t-24 60.5t-7.5 61q0 84 41 137t120 53t120 -53t41 -137q0 -31 -7.5 -61t-24 -60.5t-50 -49.5t-79.5 -19zM556 737h54l-389 -759h-54z" />
    <glyph glyph-name=".notdef" horiz-adv-x="778" 
d="M198 395q43 0 71 35t28 109q0 59 -23 99.5t-76 40.5q-54 0 -76.5 -40t-22.5 -100q0 -74 28 -109t71 -35zM198 347q-46 0 -79.5 19t-50 49.5t-24 60.5t-7.5 61q0 84 41 137t120 53t120 -53t41 -137q0 -31 -7.5 -61t-24 -60.5t-50 -49.5t-79.5 -19zM580 36q43 0 71 35
t28 109q0 59 -23 99.5t-76 40.5q-54 0 -76.5 -40t-22.5 -100q0 -74 28 -109t71 -35zM580 -12q-46 0 -79.5 19t-50 49.5t-24 60.5t-7.5 61q0 84 41 137t120 53t120 -53t41 -137q0 -31 -7.5 -61t-24 -60.5t-50 -49.5t-79.5 -19zM556 737h54l-389 -759h-54z" />
    <glyph glyph-name=".null" horiz-adv-x="0" 
 />
    <glyph glyph-name="nonmarkingreturn" horiz-adv-x="333" 
 />
    <glyph glyph-name="space" unicode=" " horiz-adv-x="260" 
 />
    <glyph glyph-name="exclam" unicode="!" horiz-adv-x="296" 
d="M106 0v88h84v-88h-84zM184 712l-10 -529h-52l-10 529h72z" />
    <glyph glyph-name="quotedbl" unicode="&#x22;" horiz-adv-x="408" 
d="M101 551v226h62v-226h-62zM245 551v226h62v-226h-62z" />
    <glyph glyph-name="numbersign" unicode="#" horiz-adv-x="520" 
d="M88 0l31 224h-111v52h118l22 160h-111v52h118l31 224h52l-31 -224h142l31 224h52l-31 -224h111v-52h-118l-22 -160h111v-52h-118l-31 -224h-52l31 224h-142l-31 -224h-52zM320 276l22 160h-142l-22 -160h142z" />
    <glyph glyph-name="dollar" unicode="$" horiz-adv-x="520" 
d="M280 323v-279q58 8 92 47.5t34 89.5q0 48 -30 79t-96 63zM241 409v260q-64 -5 -91.5 -42.5t-27.5 -79.5q0 -48 26.5 -77t92.5 -61zM241 -72v58q-49 1 -88.5 15.5t-63 38t-37.5 44.5t-22 45l65 26q38 -113 146 -113v299l-12 6q-36 16 -62 31t-54.5 38.5t-43.5 54.5t-15 68
q0 83 57 131.5t130 55.5v51h39v-51q70 -4 112.5 -34t72.5 -88l-67 -22q-22 81 -118 88v-280l19 -9q42 -19 66 -32.5t53 -37t42.5 -55t13.5 -72.5q0 -70 -51 -128.5t-143 -67.5v-60h-39z" />
    <glyph glyph-name="percent" unicode="%" horiz-adv-x="1074" 
d="M331 347q-72 0 -113 56.5t-41 138.5q0 81 41.5 133t112.5 52t112.5 -52t41.5 -133q0 -82 -41 -138.5t-113 -56.5zM331 395q47 0 69.5 40.5t22.5 97.5q0 65 -24 105.5t-68 40.5t-68 -40.5t-24 -105.5q0 -57 22.5 -97.5t69.5 -40.5zM684 -12q-72 0 -113 56.5t-41 138.5
q0 81 41.5 133t112.5 52t112.5 -52t41.5 -133q0 -82 -41 -138.5t-113 -56.5zM684 36q47 0 69.5 40.5t22.5 97.5q0 65 -24 105.5t-68 40.5t-68 -40.5t-24 -105.5q0 -57 22.5 -97.5t69.5 -40.5zM672 737h54l-389 -759h-54z" />
    <glyph glyph-name="ampersand" unicode="&#x26;" horiz-adv-x="648" 
d="M286 671q-51 0 -84 -31.5t-33 -81.5q0 -24 19 -56.5t32 -47t41 -45.5q73 32 104.5 66t31.5 87q0 45 -26.5 77t-84.5 32zM301 365l176 -193q15 22 23 36.5t21 60.5t19 108h62q-7 -140 -84 -250l120 -127h-87l-71 76q-39 -33 -57.5 -47t-61 -29t-93.5 -15q-58 0 -103.5 19
t-70 50t-37 64.5t-12.5 67.5q0 70 40.5 116t115.5 82q-57 61 -77 94.5t-20 82.5q0 62 51.5 114t133.5 52q81 0 127 -49t46 -112q0 -41 -12 -72.5t-40.5 -56.5t-48 -37.5t-60.5 -34.5zM444 121l-202 218q-73 -33 -102.5 -69.5t-29.5 -85.5q0 -12 3 -27t13 -36.5t26.5 -38.5
t47.5 -29t72 -12q92 0 172 80z" />
    <glyph glyph-name="quotesingle" unicode="'" horiz-adv-x="260" 
d="M99 551v226h62v-226h-62z" />
    <glyph glyph-name="parenleft" unicode="(" horiz-adv-x="260" 
d="M206 758l44 -29q-57 -75 -95 -182t-38 -233t38 -233t95 -182l-44 -29q-58 72 -106 198.5t-48 245.5q0 118 48 245t106 199z" />
    <glyph glyph-name="parenright" unicode=")" horiz-adv-x="260" 
d="M10 729l44 29q58 -74 106 -199.5t48 -244.5t-47.5 -244t-106.5 -200l-44 29q56 74 94.5 182t38.5 233t-38.5 233t-94.5 182z" />
    <glyph glyph-name="asterisk" unicode="*" horiz-adv-x="520" 
d="M281 552l145 54l20 -57l-146 -42l94 -120l-49 -35l-85 126l-85 -126l-49 35l94 120l-146 42l20 57l145 -54l-9 160h60z" />
    <glyph glyph-name="plus" unicode="+" horiz-adv-x="600" 
d="M274 0v227h-227v52h227v227h52v-227h227v-52h-227v-227h-52z" />
    <glyph glyph-name="comma" unicode="," horiz-adv-x="260" 
d="M47 -138l60 226h83l-83 -226h-60z" />
    <glyph glyph-name="hyphen" unicode="-" horiz-adv-x="333" 
d="M289 268h-245v56h245v-56z" />
    <glyph glyph-name="period" unicode="." horiz-adv-x="260" 
d="M88 0v88h84v-88h-84z" />
    <glyph glyph-name="slash" unicode="/" horiz-adv-x="370" 
d="M9 -5l301 741l51 -18l-301 -743z" />
    <glyph glyph-name="zero" unicode="0" horiz-adv-x="520" 
d="M260 -12q-236 0 -236 368q0 371 236 371t236 -371q0 -368 -236 -368zM260 40q171 0 171 316q0 319 -171 319t-171 -319q0 -316 171 -316z" />
    <glyph glyph-name="one" unicode="1" horiz-adv-x="520" 
d="M288 712h64v-712h-65v636l-164 -128l-41 49z" />
    <glyph glyph-name="two" unicode="2" horiz-adv-x="520" 
d="M478 56v-56h-449v53l254 265q62 65 93.5 116.5t31.5 100.5q0 38 -15.5 67t-40 44t-48 22t-45.5 7q-55 0 -98.5 -34.5t-51.5 -105.5l-70 8q5 25 10.5 42.5t22 47t38.5 47.5t62 32.5t91 14.5q96 0 153 -54.5t57 -137.5q0 -54 -33 -112.5t-122 -150.5l-211 -218q54 2 85 2
h286z" />
    <glyph glyph-name="three" unicode="3" horiz-adv-x="520" 
d="M23 167l70 16q6 -62 48 -102.5t106 -40.5q91 0 130 42t39 106q0 72 -42 115.5t-129 43.5q-9 0 -48 -3v59h37q76 0 124 36.5t48 103.5q0 65 -36.5 98.5t-103.5 33.5q-130 0 -169 -118l-62 24q53 146 230 146q58 0 100.5 -17.5t64.5 -46.5t31.5 -58.5t9.5 -59.5
q0 -38 -11.5 -67t-34 -48.5t-39 -29.5t-43.5 -22v-2q138 -24 138 -179q0 -58 -20 -100.5t-54.5 -65t-73 -33t-83.5 -10.5q-178 0 -227 179z" />
    <glyph glyph-name="four" unicode="4" horiz-adv-x="520" 
d="M390 712v-516h103v-52h-103v-144h-62v144h-301v68l266 500h97zM79 196h249v415q0 15 2 53h-2q-2 -4 -6.5 -14.5t-6.5 -14.5z" />
    <glyph glyph-name="five" unicode="5" horiz-adv-x="520" 
d="M456 712v-52h-304l-6 -233q59 26 112 26q91 0 154.5 -66t63.5 -166q0 -106 -64.5 -169.5t-162.5 -63.5q-157 0 -205 167l63 20q4 -18 13 -38t25.5 -43.5t46 -38.5t65.5 -15q59 0 106.5 44.5t47.5 138.5q0 90 -52 134t-117 44q-86 0 -156 -58l10 369h360z" />
    <glyph glyph-name="six" unicode="6" horiz-adv-x="520" 
d="M305 712h80l-61 -74q-135 -165 -171 -237l2 -2q60 31 120 31q94 0 153.5 -62t59.5 -154q0 -97 -61 -161.5t-168 -64.5q-111 0 -169 65.5t-58 165.5q0 85 42 165.5t132 198.5zM423 209q0 80 -47 124.5t-110 44.5q-78 0 -143 -43q-26 -42 -26 -102q0 -86 39 -139.5
t123 -53.5q76 0 120 47.5t44 121.5z" />
    <glyph glyph-name="seven" unicode="7" horiz-adv-x="520" 
d="M30 712h441v-52l-310 -660h-73l318 660h-376v52z" />
    <glyph glyph-name="eight" unicode="8" horiz-adv-x="520" 
d="M260 -12q-111 0 -165.5 57.5t-54.5 131.5q0 41 14 74.5t42 58.5t49.5 39.5t55.5 32.5q-22 11 -42.5 25t-44.5 36t-38.5 52t-14.5 63q0 31 10 59t31.5 53.5t62 41t95.5 15.5t95.5 -15.5t62 -41t31.5 -53.5t10 -59q0 -33 -14.5 -63t-38.5 -52t-44.5 -36t-42.5 -25
q34 -18 55.5 -32.5t49.5 -39.5t42 -58.5t14 -74.5q0 -74 -54.5 -131.5t-165.5 -57.5zM260 40q74 0 114.5 40t40.5 95q0 25 -7 45.5t-13.5 32.5t-33.5 32t-40.5 29t-60.5 38q-47 -29 -60.5 -38t-40.5 -29t-33.5 -32t-13.5 -32.5t-7 -45.5q0 -55 40.5 -95t114.5 -40zM260 675
q-63 0 -98.5 -33.5t-35.5 -79.5q0 -49 35.5 -83t98.5 -67q63 33 98.5 67t35.5 83q0 46 -35.5 79.5t-98.5 33.5z" />
    <glyph glyph-name="nine" unicode="9" horiz-adv-x="520" 
d="M213 0h-80l63 77q135 165 171 237l-2 2q-60 -31 -120 -31q-94 0 -153.5 62t-59.5 154q0 97 61 161.5t168 64.5q111 0 169 -65.5t58 -165.5q0 -85 -42 -165.5t-132 -198.5zM97 506q0 -80 47 -124.5t110 -44.5q78 0 143 43q26 42 26 102q0 86 -39 139.5t-123 53.5
q-76 0 -120 -47.5t-44 -121.5z" />
    <glyph glyph-name="colon" unicode=":" horiz-adv-x="260" 
d="M88 499v88h84v-88h-84zM88 0v88h84v-88h-84z" />
    <glyph glyph-name="semicolon" unicode=";" horiz-adv-x="260" 
d="M47 -138l60 226h83l-83 -226h-60zM88 587h84v-88h-84v88z" />
    <glyph glyph-name="less" unicode="&#x3c;" horiz-adv-x="600" 
d="M47 225v56l506 233v-58l-441 -203l441 -203v-58z" />
    <glyph glyph-name="equal" unicode="=" horiz-adv-x="600" 
d="M47 324v52h506v-52h-506zM47 130v52h506v-52h-506z" />
    <glyph glyph-name="greater" unicode="&#x3e;" horiz-adv-x="600" 
d="M553 281v-56l-506 -233v58l441 203l-441 203v58z" />
    <glyph glyph-name="question" unicode="?" horiz-adv-x="519" 
d="M271 255v-72h-62v86q0 39 14 61t66 77q33 36 44 49.5t20.5 38.5t9.5 57q0 12 -2 24.5t-9 30.5t-19 31.5t-35 23.5t-53 10q-55 0 -79.5 -22t-45.5 -74l-67 20q48 128 194 128q45 0 84 -15.5t68 -57t29 -103.5q0 -47 -17.5 -81.5t-72.5 -91.5q-47 -47 -57 -64.5t-10 -55.5z
M198 0v88h84v-88h-84z" />
    <glyph glyph-name="at" unicode="@" horiz-adv-x="800" 
d="M514 428q0 100 -84 100q-79 0 -135 -80t-56 -161q0 -105 89 -105q74 0 130 84t56 162zM549 492l23 66h55l-102 -295q-13 -37 -13 -56q0 -29 30 -29q64 0 120.5 81t56.5 162q0 116 -89 189t-211 73q-144 0 -241 -97t-97 -230q0 -136 99 -231.5t242 -95.5q83 0 160 38
t118 101h55q-50 -84 -141 -133.5t-194 -49.5q-166 0 -278.5 108.5t-112.5 262.5t114.5 262.5t276.5 108.5q148 0 249.5 -88t101.5 -221q0 -112 -77 -198t-162 -86q-31 0 -49.5 17t-18.5 52h-2q-69 -69 -142 -69q-64 0 -100 42t-36 106q0 111 71.5 202.5t177.5 91.5
q84 0 113 -84h3z" />
    <glyph glyph-name="A" unicode="A" horiz-adv-x="648" 
d="M1 0l285 712h80l281 -712h-71l-77 203h-352l-79 -203h-67zM169 255h309l-126 325q-15 35 -27 74h-2q-10 -31 -28 -76z" />
    <glyph glyph-name="B" unicode="B" horiz-adv-x="593" 
d="M80 0v712h186q130 0 189.5 -43.5t59.5 -139.5q0 -34 -9.5 -60t-29.5 -44t-37 -28t-45 -23q22 -9 31 -13.5t30 -16t31.5 -23t24 -28.5t19 -40.5t5.5 -51.5q0 -201 -263 -201h-192zM142 660v-262h146q162 0 162 133q0 74 -48 101.5t-132 27.5h-128zM142 346v-294h120
q35 0 61 2.5t55.5 11t48 23t31 41.5t12.5 64q0 78 -42 115t-140 37h-146z" />
    <glyph glyph-name="C" unicode="C" horiz-adv-x="630" 
d="M535 186l58 -17q-15 -40 -32 -68t-46.5 -57t-75.5 -44t-107 -15q-62 0 -112 21t-82 55.5t-53.5 82t-30.5 97.5t-9 105q0 173 76.5 277t227.5 104q176 0 235 -172l-63 -14q-47 134 -170 134q-60 0 -105.5 -24t-70.5 -58t-40.5 -80t-20 -82t-4.5 -72q0 -66 11.5 -120.5
t36.5 -101.5t72 -73.5t112 -26.5q78 0 121 35.5t72 113.5z" />
    <glyph glyph-name="D" unicode="D" horiz-adv-x="648" 
d="M76 712h190q82 0 145 -26.5t98 -65t57.5 -89.5t29.5 -92.5t7 -82.5q0 -49 -9 -94t-34.5 -94.5t-66 -85t-109 -59t-157.5 -23.5h-151v712zM138 660v-608h96q60 0 113.5 18t96.5 54t68.5 95.5t25.5 136.5q0 41 -7 80t-27.5 81t-52 72.5t-85 50.5t-122.5 20h-106z" />
    <glyph glyph-name="E" unicode="E" horiz-adv-x="537" 
d="M76 0v712h408v-52h-346v-262h329v-52h-329v-294h355v-52h-417z" />
    <glyph glyph-name="F" unicode="F" horiz-adv-x="519" 
d="M76 0v712h402v-52h-340v-273h321v-52h-321v-335h-62z" />
    <glyph glyph-name="G" unicode="G" horiz-adv-x="648" 
d="M584 555l-63 -14q-47 134 -170 134q-60 0 -105.5 -24t-70.5 -58t-40.5 -80t-20 -82t-4.5 -72q0 -66 11.5 -120.5t37.5 -101.5t75 -73.5t117 -26.5q78 0 161 40v242h-157v52h219v-321q-47 -22 -67 -31.5t-68.5 -21.5t-97.5 -12q-81 0 -140.5 31t-92.5 84.5t-48 114.5
t-15 131q0 173 76.5 277t227.5 104q176 0 235 -172z" />
    <glyph glyph-name="H" unicode="H" horiz-adv-x="648" 
d="M80 0v712h62v-305h364v305h62v-712h-62v355h-364v-355h-62z" />
    <glyph glyph-name="I" unicode="I" horiz-adv-x="222" 
d="M80 0v712h62v-712h-62z" />
    <glyph glyph-name="J" unicode="J" horiz-adv-x="315" 
d="M241 712v-555q0 -76 -33.5 -120.5t-102.5 -44.5q-55 0 -99 27l30 60q39 -31 69 -31q74 0 74 128v536h62z" />
    <glyph glyph-name="K" unicode="K" 
d="M76 0v712h62v-323l311 323h86l-329 -338l349 -374h-91l-326 356v-356h-62z" />
    <glyph glyph-name="L" unicode="L" horiz-adv-x="463" 
d="M80 0v712h62v-660h316v-52h-378z" />
    <glyph glyph-name="M" unicode="M" horiz-adv-x="833" 
d="M76 712h113l229 -604l231 604h108v-712h-62v654l-2 -1l-253 -653h-52l-248 655l-2 1v-656h-62v712z" />
    <glyph glyph-name="N" unicode="N" horiz-adv-x="667" 
d="M76 0v712h84l367 -617h2v617h62v-712h-81l-370 619h-2v-619h-62z" />
    <glyph glyph-name="O" unicode="O" horiz-adv-x="686" 
d="M110 355q0 -55 11 -106.5t36 -101.5t73 -80t113 -30t113 30t73 80t36 101.5t11 106.5q0 61 -12.5 115t-38 101.5t-72.5 75.5t-110 28t-110 -28t-72.5 -75.5t-38 -101.5t-12.5 -115zM45 347q0 75 16.5 140.5t50 120.5t93 87t138.5 32t138.5 -32t93 -87t50 -120.5
t16.5 -140.5q0 -45 -7.5 -89.5t-28 -95t-52.5 -89t-86 -63.5t-124 -25t-124 25t-86 63.5t-52.5 89t-28 95t-7.5 89.5z" />
    <glyph glyph-name="P" unicode="P" horiz-adv-x="574" 
d="M142 358h155q77 0 122 37t45 114t-45 114t-122 37h-155v-302zM80 0v712h224q111 0 168 -54t57 -149t-57 -149t-168 -54h-162v-306h-62z" />
    <glyph glyph-name="Q" unicode="Q" horiz-adv-x="686" 
d="M110 355q0 -55 11 -106.5t36 -101.5t73 -80t113 -30t113 30t73 80t36 101.5t11 106.5q0 61 -12.5 115t-38 101.5t-72.5 75.5t-110 28t-110 -28t-72.5 -75.5t-38 -101.5t-12.5 -115zM588 -170l-206 158q-14 -2 -19 -2q-7 -1 -20 -1q-70 0 -124 25t-86 63.5t-52.5 89
t-28 95t-7.5 89.5q0 75 16.5 140.5t50 120.5t93 87t138.5 32t138.5 -32t93 -87t50 -120.5t16.5 -140.5q0 -46 -8.5 -92t-27.5 -95.5t-56.5 -90t-89.5 -61.5l174 -123z" />
    <glyph glyph-name="R" unicode="R" horiz-adv-x="574" 
d="M76 0v712h220q98 0 156 -47t58 -142q0 -134 -135 -177l174 -346h-78l-156 336h-177v-336h-62zM138 660v-272h170q43 0 72.5 14.5t42.5 38t17.5 42.5t4.5 40q0 68 -42.5 102.5t-121.5 34.5h-143z" />
    <glyph glyph-name="S" unicode="S" horiz-adv-x="519" 
d="M30 129l65 26q22 -63 60.5 -88.5t92.5 -25.5q72 0 115 41t43 99q0 56 -40.5 89.5t-136.5 76.5q-36 16 -62 31t-54.5 38.5t-43.5 54.5t-15 68q0 90 65 139t142 49q79 0 125.5 -30.5t78.5 -92.5l-67 -22q-26 89 -135 89q-75 0 -108 -39.5t-33 -84.5q0 -58 38 -89.5
t139 -76.5q42 -19 66 -32.5t53 -37t42.5 -55t13.5 -72.5q0 -76 -60 -137.5t-165 -61.5q-51 0 -92 14t-66 37.5t-39 46t-22 46.5z" />
    <glyph glyph-name="T" unicode="T" horiz-adv-x="500" 
d="M6 712h488v-52h-213v-660h-62v660h-213v52z" />
    <glyph glyph-name="U" unicode="U" horiz-adv-x="648" 
d="M76 712h62v-434q0 -107 45 -174t141 -67t141 67t45 174v434h62v-446q0 -81 -23 -139t-61.5 -87.5t-78.5 -42t-85 -12.5t-85 12.5t-78.5 42t-61.5 87.5t-23 139v446z" />
    <glyph glyph-name="V" unicode="V" horiz-adv-x="574" 
d="M1 712h70l216 -656h2l219 656h65l-247 -712h-81z" />
    <glyph glyph-name="W" unicode="W" horiz-adv-x="852" 
d="M6 712h69l153 -632h2l152 632h83l159 -632h2l158 632h62l-183 -712h-80l-158 632h-2l-153 -632h-82z" />
    <glyph glyph-name="X" unicode="X" horiz-adv-x="593" 
d="M255 372l-219 340h75l166 -261q16 -24 22 -37q4 9 12.5 22t9.5 15l165 261h73l-220 -340l241 -372h-79l-186 293q-14 22 -21 37q-9 -18 -23 -39l-184 -291h-74z" />
    <glyph glyph-name="Y" unicode="Y" horiz-adv-x="574" 
d="M255 0v299l-249 413h76l178 -306q14 -24 28 -53q15 29 28 53l182 306h70l-251 -413v-299h-62z" />
    <glyph glyph-name="Z" unicode="Z" horiz-adv-x="500" 
d="M34 712h431v-53l-367 -607h378v-52h-452v53l367 607h-357v52z" />
    <glyph glyph-name="bracketleft" unicode="[" horiz-adv-x="260" 
d="M137 -82h95v-48h-157v888h157v-48h-95v-792z" />
    <glyph glyph-name="backslash" unicode="\" horiz-adv-x="370" 
d="M60 736l301 -741l-51 -20l-301 743z" />
    <glyph glyph-name="bracketright" unicode="]" horiz-adv-x="260" 
d="M185 758v-888h-157v48h95v792h-95v48h157z" />
    <glyph glyph-name="asciicircum" unicode="^" horiz-adv-x="600" 
d="M498 259l-198 388l-198 -388h-58l231 453h50l231 -453h-58z" />
    <glyph glyph-name="underscore" unicode="_" horiz-adv-x="500" 
d="M0 -125v50h500v-50h-500z" />
    <glyph glyph-name="grave" unicode="`" horiz-adv-x="222" 
d="M5 801h76l109 -141h-51z" />
    <glyph glyph-name="a" unicode="a" horiz-adv-x="519" 
d="M116 436l-52 17q51 146 200 146q54 0 92 -17t58 -47.5t28.5 -64t8.5 -73.5v-253q0 -31 2 -87t2 -57h-58l-4 94q-30 -33 -52 -52.5t-60 -36.5t-81 -17q-76 0 -120 46t-44 118q0 44 12.5 77.5t36.5 55t51.5 35.5t66.5 21t72.5 9.5t76.5 2.5h41q-1 30 -1.5 44.5t-3.5 39.5
t-8.5 37t-15 29t-23.5 24.5t-35.5 13.5t-48.5 6q-32 0 -56.5 -9.5t-41 -29t-24.5 -34t-19 -38.5zM393 153v152h-39q-61 0 -103 -5t-79 -20t-55.5 -45t-18.5 -76q0 -61 33 -88t79 -27q34 0 66 15.5t51 32t66 61.5z" />
    <glyph glyph-name="b" unicode="b" 
d="M75 0v777h58v-273h2q33 45 72.5 70t100.5 25q62 0 105.5 -29.5t64.5 -78.5t29.5 -97t8.5 -102q0 -131 -56 -217.5t-160 -86.5q-95 0 -165 95h-2v-83h-58zM133 441v-296q0 -2 6.5 -12.5t20.5 -25.5t32 -29t45.5 -24t56.5 -10q40 0 70.5 19t47 46t26.5 64.5t13 67.5t3 61
q0 44 -8 83.5t-25 76.5t-49.5 59t-76.5 22q-52 0 -90 -26t-72 -76z" />
    <glyph glyph-name="c" unicode="c" horiz-adv-x="500" 
d="M470 453l-53 -17q-27 61 -60.5 86t-81.5 25q-24 0 -48.5 -9.5t-52 -33.5t-45 -78t-17.5 -131q0 -120 43 -187.5t118 -67.5q53 0 90 33t57 78l53 -21q-15 -28 -28 -47.5t-36 -44t-55 -37.5t-71 -13q-70 0 -119 30t-72.5 81t-32.5 100t-9 106q0 130 66 212t170 82
q116 0 184 -146z" />
    <glyph glyph-name="d" unicode="d" 
d="M481 777v-777h-58v83h-2q-70 -95 -165 -95q-104 0 -160 86.5t-56 217.5q0 54 8.5 102t29.5 97t64.5 78.5t105.5 29.5q61 0 100.5 -25t72.5 -70h2v273h58zM423 145v296q-34 50 -72 76t-90 26q-44 0 -76.5 -22t-49.5 -59t-25 -76.5t-8 -83.5q0 -31 3 -61t13 -67.5
t26.5 -64.5t47 -46t70.5 -19q29 0 56.5 10t45.5 24t32 29t20.5 25.5t6.5 12.5z" />
    <glyph glyph-name="e" unicode="e" horiz-adv-x="537" 
d="M490 282h-388q0 -31 3.5 -60.5t15 -63.5t29.5 -59t49.5 -42t72.5 -17q37 0 65.5 10.5t46.5 30t27.5 35t18.5 36.5l51 -20q-35 -82 -88 -113t-120 -31q-70 0 -119 30t-72.5 81t-32.5 100t-9 106q0 130 66 212t170 82q45 0 82 -16t61 -43.5t40.5 -64.5t23.5 -77.5t7 -85.5
v-30zM102 330h326q-3 106 -44.5 161.5t-112.5 55.5q-68 0 -117.5 -57.5t-51.5 -159.5z" />
    <glyph glyph-name="f" unicode="f" horiz-adv-x="296" 
d="M109 0v490h-88v52h88v93q0 76 37.5 111t94.5 35q44 0 70 -9v-57q-38 14 -58 14q-30 0 -49 -12.5t-26 -35.5t-9 -38.5t-2 -39.5v-61h113v-52h-113v-490h-58z" />
    <glyph glyph-name="g" unicode="g" horiz-adv-x="519" 
d="M512 587v-48h-104q17 -17 26.5 -29.5t17 -38t7.5 -60.5q0 -34 -11 -64.5t-34.5 -58.5t-67 -44.5t-102.5 -16.5q-33 0 -49 6q-38 -25 -38 -55q0 -22 18 -30.5t105 -28.5l36 -8q30 -7 42.5 -10.5t40 -12.5t40.5 -19t30 -25.5t24 -37.5t7 -49q0 -76 -65.5 -117.5
t-183.5 -41.5q-105 0 -167.5 36.5t-62.5 109.5q0 26 8.5 47.5t29.5 43t34 32t45 33.5q-43 13 -43 55q0 28 14 47.5t44 42.5q-108 44 -108 164q0 83 52.5 136.5t151.5 53.5q47 0 83 -12h180zM250 275q62 0 104.5 36t42.5 104q0 62 -39.5 99t-103.5 37q-67 0 -107 -36
t-40 -100q0 -68 42 -104t101 -36zM291 59l-98 23q-7 0 -32.5 -16.5t-51.5 -48.5t-26 -64q0 -103 175 -103q77 0 128.5 27t51.5 82q0 40 -28.5 58t-118.5 42z" />
    <glyph glyph-name="h" unicode="h" 
d="M75 0v777h58v-291q37 37 58.5 56t61.5 38t81 19q14 0 29 -2.5t37.5 -12t39.5 -24.5t29 -44.5t12 -68.5v-447h-58v435q2 108 -101 108q-29 0 -56 -9.5t-52 -29t-40.5 -35t-40.5 -42.5v-427h-58z" />
    <glyph glyph-name="i" unicode="i" horiz-adv-x="222" 
d="M82 587h58v-587h-58v587zM145 777v-77h-68v77h68z" />
    <glyph glyph-name="j" unicode="j" horiz-adv-x="222" 
d="M140 587v-655q0 -62 -28.5 -98t-89.5 -36q-18 0 -45 5v59q19 -8 41 -8q39 0 51.5 22.5t12.5 72.5v638h58zM77 700v77h68v-77h-68z" />
    <glyph glyph-name="k" unicode="k" horiz-adv-x="481" 
d="M75 0v777h58v-455l250 265h82l-262 -269l279 -318h-83l-266 310v-310h-58z" />
    <glyph glyph-name="l" unicode="l" horiz-adv-x="222" 
d="M82 0v777h58v-777h-58z" />
    <glyph glyph-name="m" unicode="m" horiz-adv-x="852" 
d="M71 0v587h58v-101q28 33 49 53.5t59.5 40t78.5 19.5q15 0 29 -2t25 -7.5t19.5 -10t16.5 -13t13 -13.5t10.5 -15.5t7.5 -14t7 -14.5l5 -11q86 101 189 101q41 0 70 -15t42.5 -33t21 -45t8.5 -39.5t1 -27.5v-439h-58v410q0 133 -96 133q-46 0 -84.5 -22.5t-87.5 -71.5v-449
h-58v404q0 139 -97 139q-42 0 -90 -36.5t-81 -81.5v-425h-58z" />
    <glyph glyph-name="n" unicode="n" 
d="M75 0v587h58v-101q37 37 58.5 56t61.5 38t81 19q14 0 29 -2.5t37.5 -12t39.5 -24.5t29 -44.5t12 -68.5v-447h-58v435q2 108 -101 108q-29 0 -56 -9.5t-52 -29t-40.5 -35t-40.5 -42.5v-427h-58z" />
    <glyph glyph-name="o" unicode="o" 
d="M102 304q0 -129 46.5 -196.5t129.5 -67.5t129.5 67.5t46.5 196.5q0 101 -43.5 172t-132.5 71t-132.5 -71t-43.5 -172zM40 291q0 39 6 78t22 81.5t41.5 74.5t69 53t99.5 21t99.5 -21t69 -53t41.5 -74.5t22 -81.5t6 -78q0 -79 -23 -145t-78.5 -112t-136.5 -46t-136.5 46
t-78.5 112t-23 145z" />
    <glyph glyph-name="p" unicode="p" 
d="M75 -188v775h58v-83h2q70 95 165 95q104 0 160 -86.5t56 -217.5q0 -54 -8.5 -102t-29.5 -97t-64.5 -78.5t-105.5 -29.5q-61 0 -100.5 25t-72.5 70h-2v-271h-58zM133 442v-296q34 -50 72 -76t90 -26q44 0 76.5 22t49.5 59t25 76.5t8 83.5q0 31 -3 61t-13 67.5t-26.5 64.5
t-47 46t-70.5 19q-29 0 -56.5 -10t-45.5 -24t-32 -29t-20.5 -25.5t-6.5 -12.5z" />
    <glyph glyph-name="q" unicode="q" 
d="M481 587v-775h-58v271h-2q-33 -45 -72.5 -70t-100.5 -25q-62 0 -105.5 29.5t-64.5 78.5t-29.5 97t-8.5 102q0 131 56 217.5t160 86.5q95 0 165 -95h2v83h58zM423 146v296q0 2 -6.5 12.5t-20.5 25.5t-32 29t-45.5 24t-56.5 10q-40 0 -70.5 -19t-47 -46t-26.5 -64.5
t-13 -67.5t-3 -61q0 -44 8 -83.5t25 -76.5t49.5 -59t76.5 -22q52 0 90 26t72 76z" />
    <glyph glyph-name="r" unicode="r" horiz-adv-x="352" 
d="M82 0v587h58v-107q58 65 93.5 88t101.5 23v-62q-71 -4 -107 -25.5t-88 -89.5v-414h-58z" />
    <glyph glyph-name="s" unicode="s" horiz-adv-x="463" 
d="M413 471l-53 -17q-32 93 -125 93q-58 0 -89 -29t-31 -68q0 -42 20.5 -64t67.5 -39l68 -25q84 -30 122 -64.5t38 -103.5q0 -71 -47.5 -118.5t-147.5 -47.5q-86 0 -137 41.5t-67 105.5l55 18q36 -113 146 -113q69 0 102.5 30.5t33.5 82.5q0 44 -25.5 67.5t-76.5 41.5
l-75 27q-70 24 -104.5 59t-34.5 96q0 63 50.5 109t133.5 46q68 0 110 -31.5t66 -96.5z" />
    <glyph glyph-name="t" unicode="t" horiz-adv-x="315" 
d="M100 542v154l58 24v-178h139v-52h-139v-340q0 -59 14.5 -84.5t51.5 -25.5q39 0 79 22v-57q-40 -17 -81 -17q-35 0 -59.5 10t-36.5 22.5t-18 37t-7 40t-1 44.5v348h-88v52h88z" />
    <glyph glyph-name="u" unicode="u" 
d="M481 587v-587h-58v101q-37 -37 -58.5 -56t-61.5 -38t-81 -19q-14 0 -29 2.5t-37.5 12t-39.5 24.5t-29 44.5t-12 68.5v447h58v-435q-2 -108 101 -108q39 0 76.5 19.5t57.5 38.5t55 58v427h58z" />
    <glyph glyph-name="v" unicode="v" horiz-adv-x="481" 
d="M202 0l-201 587h68l172 -531h2l173 531h64l-202 -587h-76z" />
    <glyph glyph-name="w" unicode="w" horiz-adv-x="759" 
d="M3 587h68l138 -531h2l134 531h72l139 -529h2l135 529h63l-160 -587h-81l-133 506h-2l-131 -506h-79z" />
    <glyph glyph-name="x" unicode="x" horiz-adv-x="481" 
d="M204 308l-178 279h71l146 -234l156 234h66l-184 -276l199 -311h-72l-165 264l-171 -264h-71z" />
    <glyph glyph-name="y" unicode="y" horiz-adv-x="481" 
d="M-1 587h67l177 -511h2l174 511h63l-240 -680q-22 -62 -51 -85.5t-68 -23.5q-23 0 -51 7l3 55q30 -6 36 -6q50 0 69 54l32 89z" />
    <glyph glyph-name="z" unicode="z" horiz-adv-x="463" 
d="M23 0v48l337 487h-325v52h399v-48l-338 -487h344v-52h-417z" />
    <glyph glyph-name="braceleft" unicode="{" horiz-adv-x="260" 
d="M48 289v50q34 0 47 27t13 104v172q0 61 24.5 88.5t77.5 27.5h47v-48h-24q-34 0 -48.5 -13t-14.5 -50v-209q0 -103 -54 -123v-2q54 -20 54 -123v-209q0 -37 14.5 -50t48.5 -13h24v-48h-47q-53 0 -77.5 27.5t-24.5 88.5v172q0 77 -13 104t-47 27z" />
    <glyph glyph-name="bar" unicode="|" horiz-adv-x="222" 
d="M85 -250v1000h52v-1000h-52z" />
    <glyph glyph-name="braceright" unicode="}" horiz-adv-x="260" 
d="M212 339v-50q-34 0 -47 -27t-13 -104v-172q0 -61 -24.5 -88.5t-77.5 -27.5h-47v48h24q34 0 48.5 13t14.5 50v209q0 103 54 123v2q-54 20 -54 123v209q0 37 -14.5 50t-48.5 13h-24v48h47q53 0 77.5 -27.5t24.5 -88.5v-172q0 -77 13 -104t47 -27z" />
    <glyph glyph-name="asciitilde" unicode="~" horiz-adv-x="600" 
d="M495 317l36 -38q-27 -41 -55 -63.5t-70 -22.5q-45 0 -102 33q-59 35 -107 35q-53 0 -92 -72l-36 38q42 86 125 86q45 0 111 -32q68 -36 102 -36q19 0 37 13t25.5 23t25.5 36z" />
    <glyph glyph-name="euro" horiz-adv-x="498" 
d="M522 633l-23 -156l-48 6q0 157 -94 157q-103 0 -161 -211h172l-21 -48h-164q-3 -14 -16 -73h147l-21 -47h-134q-6 -41 -6 -74q0 -55 21 -91q25 -43 78 -43q57 0 101 68q24 37 51 119l55 -10l-54 -188q-77 -53 -159 -53q-110 0 -166 84q-47 71 -47 188h-74l21 47h56
q3 24 12 73h-66l21 48h59q40 113 108 183q82 88 187 88q95 0 165 -67z" />
    <glyph glyph-name="nbspace" unicode="&#xa0;" horiz-adv-x="260" 
 />
    <glyph glyph-name="exclamdown" unicode="&#xa1;" horiz-adv-x="296" 
d="M106 499v88h84v-88h-84zM174 404l10 -529h-72l10 529h52z" />
    <glyph glyph-name="cent" unicode="&#xa2;" horiz-adv-x="519" 
d="M182 85l146 456q-20 6 -45 6q-24 0 -48.5 -9.5t-52 -33.5t-45 -78t-17.5 -131q0 -143 62 -210zM139 -49l24 74q-105 72 -105 280q0 130 66 212t170 82q30 0 50 -7l20 63l36 -10l-22 -68q60 -34 100 -124l-53 -17q-31 66 -64 88l-148 -464q29 -20 68 -20q53 0 90 33t57 78
l53 -21q-15 -28 -28 -47.5t-36 -44t-55 -37.5t-71 -13q-52 0 -95 19l-21 -66z" />
    <glyph glyph-name="sterling" unicode="&#xa3;" horiz-adv-x="520" 
d="M118 342h-76v52h76v135q0 88 45.5 143t146.5 55q66 0 108 -30.5t53 -72.5l-61 -23q-27 74 -110 74q-65 0 -92.5 -46.5t-27.5 -133.5v-101h166v-52h-166v-290h276v-52h-424v52h86v290z" />
    <glyph glyph-name="currency" unicode="&#xa4;" horiz-adv-x="520" 
d="M12 147l54 56q-54 64 -54 154t54 154l-54 56l38 38l55 -55q67 55 155 55t155 -55l55 55l38 -38l-54 -56q54 -64 54 -154t-54 -154l54 -56l-38 -38l-55 55q-67 -55 -155 -55t-155 55l-55 -55zM64 357q0 -81 57.5 -138.5t138.5 -57.5t138.5 57.5t57.5 138.5t-57.5 138.5
t-138.5 57.5t-138.5 -57.5t-57.5 -138.5z" />
    <glyph glyph-name="yen" unicode="&#xa5;" horiz-adv-x="520" 
d="M10 712h73l134 -266q27 -52 43 -93q16 41 43 93l140 266h67l-197 -372h129v-48h-151v-89h151v-48h-151v-155h-62v155h-151v48h151v89h-151v48h127z" />
    <glyph glyph-name="brokenbar" unicode="&#xa6;" horiz-adv-x="222" 
d="M85 -175v350h52v-350h-52zM85 325v350h52v-350h-52z" />
    <glyph glyph-name="section" unicode="&#xa7;" horiz-adv-x="520" 
d="M451 608l-57 -29q-18 53 -47.5 74.5t-73.5 21.5q-46 0 -81.5 -25.5t-35.5 -69.5q0 -41 21 -62.5t96 -57.5l62 -30q71 -34 96.5 -64.5t25.5 -82.5q0 -84 -100 -119q47 -24 73.5 -54.5t26.5 -79.5q0 -78 -56.5 -120.5t-131.5 -42.5q-146 0 -206 148l59 29q22 -64 55 -94.5
t92 -30.5t91 30.5t32 72.5t-25 66t-86 50l-80 34q-67 28 -93 57.5t-26 77.5q0 99 111 130v2q-102 41 -102 131q0 71 51.5 114t130.5 43q71 0 111.5 -32t66.5 -87zM395 282q0 35 -20.5 55t-67.5 42l-67 32q-96 -26 -96 -102q0 -28 20 -46t64 -38l89 -39q42 20 60 42t18 54z
" />
    <glyph glyph-name="dieresis" unicode="&#xa8;" horiz-adv-x="222" 
d="M-7 701v76h72v-76h-72zM157 701v76h72v-76h-72z" />
    <glyph glyph-name="copyright" unicode="&#xa9;" horiz-adv-x="800" 
d="M81 356q0 -137 93 -232t226 -95q135 0 227 95t92 233q0 136 -92.5 231t-226.5 95q-133 0 -226 -95.5t-93 -231.5zM545 283h55q-18 -74 -68 -118t-120 -44q-101 0 -163 66.5t-62 168.5q0 105 59.5 170t162.5 65q75 0 128.5 -41.5t62.5 -115.5h-55q-9 47 -45.5 76t-91.5 29
q-79 0 -122.5 -51.5t-43.5 -131.5q0 -74 46 -128.5t123 -54.5q54 0 90 30.5t44 79.5zM29 356q0 154 108.5 262.5t262.5 108.5t262.5 -108.5t108.5 -262.5t-108.5 -262.5t-262.5 -108.5t-262.5 108.5t-108.5 262.5z" />
    <glyph glyph-name="ordfeminine" unicode="&#xaa;" horiz-adv-x="337" 
d="M82 624l-40 16q31 87 130 87q66 0 93.5 -34.5t27.5 -86.5v-152q0 -18 1 -52l2 -34h-48l-2 56h-2q-39 -63 -114 -63q-50 0 -78.5 27.5t-28.5 73.5q0 31 12.5 54t31 35.5t47.5 20t55 9.5t60 2h16q0 18 -1 30t-5.5 27t-12 24.5t-23 16t-36.5 6.5q-17 0 -30 -4t-21.5 -12
t-13.5 -14t-11.5 -18t-8.5 -15zM245 463v80h-15q-77 0 -116 -17t-39 -67q0 -29 18 -43.5t44 -14.5q33 0 55 14t53 48z" />
    <glyph glyph-name="guillemotleft" unicode="&#xab;" horiz-adv-x="444" 
d="M36 296l146 216l41 -27l-118 -189l118 -189l-41 -27zM221 296l146 216l41 -27l-118 -189l118 -189l-41 -27z" />
    <glyph glyph-name="logicalnot" unicode="&#xac;" horiz-adv-x="600" 
d="M501 109v215h-454v52h506v-267h-52z" />
    <glyph glyph-name="sfthyphen" unicode="&#xad;" horiz-adv-x="833" 
 />
    <glyph glyph-name="registered" unicode="&#xae;" horiz-adv-x="800" 
d="M536 134l-131 198h-93v-198h-52v446h171q145 0 145 -124q0 -103 -112 -124l134 -198h-62zM312 536v-160h107q105 0 105 81q0 79 -105 79h-107zM81 356q0 -137 93 -232t226 -95q135 0 227 95t92 233q0 136 -92.5 231t-226.5 95q-133 0 -226 -95.5t-93 -231.5zM29 356
q0 154 108.5 262.5t262.5 108.5t262.5 -108.5t108.5 -262.5t-108.5 -262.5t-262.5 -108.5t-262.5 108.5t-108.5 262.5z" />
    <glyph glyph-name="overscore" unicode="&#xaf;" horiz-adv-x="222" 
d="M-20 695v48h262v-48h-262z" />
    <glyph glyph-name="degree" unicode="&#xb0;" horiz-adv-x="400" 
d="M57 584q0 60 41.5 101.5t101.5 41.5t101.5 -41.5t41.5 -101.5t-41.5 -101.5t-101.5 -41.5t-101.5 41.5t-41.5 101.5zM105 584q0 -39 28 -67t67 -28t67 28t28 67t-28 67t-67 28t-67 -28t-28 -67z" />
    <glyph glyph-name="plusminus" unicode="&#xb1;" horiz-adv-x="600" 
d="M274 325v181h52v-181h227v-52h-227v-181h-52v181h-227v52h227zM47 0v52h506v-52h-506z" />
    <glyph glyph-name="twosuperior" unicode="&#xb2;" horiz-adv-x="350" 
d="M321 339v-48h-291v41l158 152q81 78 81 126q0 38 -26 55.5t-59 17.5q-17 0 -28.5 -2t-25.5 -9t-24.5 -22.5t-17.5 -39.5l-53 7q4 19 10.5 33t21.5 34t45.5 31.5t73.5 11.5q62 0 99 -33t37 -82q0 -32 -21.5 -67.5t-78.5 -90.5l-119 -114l2 -2q7 1 45 1h171z" />
    <glyph glyph-name="threesuperior" unicode="&#xb3;" horiz-adv-x="350" 
d="M26 391l58 11q14 -74 84 -74q60 0 84 23.5t24 55.5q0 39 -27 63t-83 24q-9 0 -27 -2v46h20q48 0 79 20.5t31 52.5q0 72 -90 72q-68 0 -92 -62l-53 19q35 87 149 87q72 0 103 -33.5t31 -75.5q0 -30 -14.5 -51.5t-30 -31t-38.5 -17.5v-2q90 -13 90 -107q0 -67 -43.5 -96
t-106.5 -29q-114 0 -148 107z" />
    <glyph glyph-name="acute" unicode="&#xb4;" horiz-adv-x="222" 
d="M141 801h76l-134 -141h-51z" />
    <glyph glyph-name="mu" unicode="&#xb5;" 
d="M75 -188v775h58v-414q0 -64 41.5 -96.5t96.5 -32.5q56 0 94 39t58 90v414h58v-587h-58v90h-2q-30 -55 -65.5 -78.5t-88.5 -23.5q-38 0 -66 12t-40.5 25t-25.5 33h-2v-246h-58z" />
    <glyph glyph-name="paragraph" unicode="&#xb6;" horiz-adv-x="600" 
d="M249 -118v444q-89 2 -148 55.5t-59 134.5q0 95 58.5 145.5t164.5 50.5h211v-830h-52v786h-123v-786h-52z" />
    <glyph glyph-name="ch270" unicode="&#xb7;" horiz-adv-x="260" 
d="M67 318q0 26 18.5 44.5t44.5 18.5t44.5 -18.5t18.5 -44.5t-18.5 -44.5t-44.5 -18.5t-44.5 18.5t-18.5 44.5z" />
    <glyph glyph-name="cedilla" unicode="&#xb8;" horiz-adv-x="222" 
d="M9 -189l14 33q37 -18 81 -18q22 0 37 13t15 32q0 17 -13.5 29t-40.5 12q-21 0 -39 -9l-17 15l63 82h37l-45 -58l2 -2q8 4 25 4q86 0 86 -71q0 -30 -27 -56.5t-84 -26.5q-48 0 -94 21z" />
    <glyph glyph-name="onesuperior" unicode="&#xb9;" horiz-adv-x="350" 
d="M186 718h52v-427h-55v368l-97 -74l-34 40z" />
    <glyph glyph-name="ordmasculine" unicode="&#xba;" horiz-adv-x="339" 
d="M170 401q45 0 73.5 39.5t28.5 109.5q0 53 -26.5 95t-75.5 42t-76 -42t-27 -95q0 -70 28.5 -109.5t74.5 -39.5zM170 361q-77 0 -116 53.5t-39 128.5q0 30 7 59t22.5 59t48 48t77.5 18q44 0 76 -18t48 -48t23 -59t7 -59q0 -75 -38.5 -128.5t-115.5 -53.5z" />
    <glyph glyph-name="guillemotright" unicode="&#xbb;" horiz-adv-x="444" 
d="M262 512l146 -216l-146 -216l-41 27l118 189l-118 189zM77 512l146 -216l-146 -216l-41 27l118 189l-118 189z" />
    <glyph glyph-name="onequarter" unicode="&#xbc;" horiz-adv-x="778" 
d="M669 427v-297h59v-48h-59v-82h-48v82h-195v45l172 300h71zM477 130h144v249h-2zM224 -22h-54l388 759h54zM184 718h52v-427h-55v368l-97 -74l-34 40z" />
    <glyph glyph-name="onehalf" unicode="&#xbd;" horiz-adv-x="778" 
d="M194 -22h-54l388 759h54zM184 718h52v-427h-55v368l-97 -74l-34 40zM728 48v-48h-292v41l159 152q81 78 81 126q0 38 -26 55.5t-59 17.5q-17 0 -28.5 -2t-25.5 -9t-24.5 -22.5t-17.5 -39.5l-53 7q4 19 10.5 33t21.5 34t45.5 31.5t73.5 11.5q62 0 99 -33t37 -82
q0 -32 -21.5 -67.5t-78.5 -90.5l-119 -114l2 -2q7 1 45 1h171z" />
    <glyph glyph-name="threequarters" unicode="&#xbe;" horiz-adv-x="778" 
d="M669 427v-297h59v-48h-59v-82h-48v82h-195v45l172 300h71zM477 130h144v249h-2zM244 -22h-54l388 759h54zM19 391l58 11q14 -74 84 -74q60 0 84 23.5t24 55.5q0 39 -27 63t-83 24q-9 0 -27 -2v46h20q48 0 79 20.5t31 52.5q0 72 -90 72q-68 0 -92 -62l-53 19q35 87 149 87
q72 0 103 -33.5t31 -75.5q0 -30 -14.5 -51.5t-30 -31t-38.5 -17.5v-2q90 -13 90 -107q0 -67 -43.5 -96t-106.5 -29q-114 0 -148 107z" />
    <glyph glyph-name="questiondown" unicode="&#xbf;" horiz-adv-x="519" 
d="M248 332v72h62v-86q0 -39 -14 -61t-66 -77q-45 -47 -59.5 -73t-14.5 -72q0 -12 1.5 -24.5t8.5 -31t19 -31.5t35 -23t54 -10q55 0 79.5 22t45.5 74l67 -20q-48 -128 -194 -128q-33 0 -63.5 9.5t-57.5 29t-43.5 55t-16.5 82.5t17.5 82.5t72.5 90.5q47 47 57 64t10 56z
M321 587v-88h-84v88h84z" />
    <glyph glyph-name="Agrave" unicode="&#xc0;" horiz-adv-x="648" 
d="M232 880h64l93 -119h-43zM1 0l285 712h80l281 -712h-71l-77 203h-352l-79 -203h-67zM169 255h309l-126 325q-15 35 -27 74h-2q-10 -31 -28 -76z" />
    <glyph glyph-name="Aacute" unicode="&#xc1;" horiz-adv-x="648" 
d="M366 879h64l-114 -119h-43zM1 0l285 712h80l281 -712h-71l-77 203h-352l-79 -203h-67zM169 255h309l-126 325q-15 35 -27 74h-2q-10 -31 -28 -76z" />
    <glyph glyph-name="Acircumflex" unicode="&#xc2;" horiz-adv-x="650" 
d="M324 831l-63 -84h-50l85 113h56l85 -113h-50zM1 0l285 712h80l281 -712h-71l-77 203h-352l-79 -203h-67zM169 255h309l-126 325q-15 35 -27 74h-2q-10 -31 -28 -76z" />
    <glyph glyph-name="Atilde" unicode="&#xc3;" horiz-adv-x="648" 
d="M447 837h32q-17 -78 -68 -78q-23 0 -63 19q-34 16 -55 16q-30 0 -34 -39h-32q6 39 25.5 59t48.5 20q24 0 59 -19q38 -17 51 -17q15 0 24 11.5t12 27.5zM1 0l285 712h80l281 -712h-71l-77 203h-352l-79 -203h-67zM169 255h309l-126 325q-15 35 -27 74h-2q-10 -31 -28 -76z
" />
    <glyph glyph-name="Adieresis" unicode="&#xc4;" horiz-adv-x="648" 
d="M1 0l285 712h80l281 -712h-71l-77 203h-352l-79 -203h-67zM169 255h309l-126 325q-15 35 -27 74h-2q-10 -31 -28 -76zM206 798v76h72v-76h-72zM370 798v76h72v-76h-72z" />
    <glyph glyph-name="Aring" unicode="&#xc5;" horiz-adv-x="648" 
d="M1 0l285 712h80l281 -712h-71l-77 203h-352l-79 -203h-67zM169 255h309l-126 325q-15 35 -27 74h-2q-10 -31 -28 -76zM231 840q0 38 27.5 65.5t65.5 27.5t65.5 -27.5t27.5 -65.5t-27.5 -65.5t-65.5 -27.5t-65.5 27.5t-27.5 65.5zM271 840q0 -22 15.5 -37.5t37.5 -15.5
t37.5 15.5t15.5 37.5t-15.5 37.5t-37.5 15.5t-37.5 -15.5t-15.5 -37.5z" />
    <glyph glyph-name="AE" unicode="&#xc6;" horiz-adv-x="870" 
d="M1 0l429 712h388v-52h-278v-262h261v-52h-261v-294h286v-52h-348v213h-280l-127 -213h-70zM467 659l-236 -394h247v394h-11z" />
    <glyph glyph-name="Ccedilla" unicode="&#xc7;" horiz-adv-x="630" 
d="M224 -189l14 33q38 -18 81 -18q22 0 37 13t15 32q0 17 -13.5 29t-40.5 12q-21 0 -39 -9l-17 15l53 68q-73 5 -127 37.5t-84 85t-44 112t-14 125.5q0 173 76.5 277t227.5 104q176 0 235 -172l-63 -14q-47 134 -170 134q-60 0 -105.5 -24t-70.5 -58t-40.5 -80t-20 -82
t-4.5 -72q0 -66 11.5 -120.5t36.5 -101.5t72 -73.5t112 -26.5q78 0 121 35.5t72 113.5l58 -17q-15 -39 -31.5 -67t-44 -55.5t-69.5 -43t-98 -18.5l-34 -43l2 -2q8 4 25 4q86 0 86 -71q0 -30 -27 -56.5t-84 -26.5q-48 0 -94 21z" />
    <glyph glyph-name="Egrave" unicode="&#xc8;" horiz-adv-x="537" 
d="M192 880h64l93 -119h-43zM76 0v712h408v-52h-346v-262h329v-52h-329v-294h355v-52h-417z" />
    <glyph glyph-name="Eacute" unicode="&#xc9;" horiz-adv-x="537" 
d="M296 879h64l-114 -119h-43zM76 0v712h408v-52h-346v-262h329v-52h-329v-294h355v-52h-417z" />
    <glyph glyph-name="Ecircumflex" unicode="&#xca;" horiz-adv-x="537" 
d="M274 831l-63 -84h-50l85 113h56l85 -113h-50zM76 0v712h408v-52h-346v-262h329v-52h-329v-294h355v-52h-417z" />
    <glyph glyph-name="Edieresis" unicode="&#xcb;" horiz-adv-x="537" 
d="M76 0v712h408v-52h-346v-262h329v-52h-329v-294h355v-52h-417zM151 798v76h72v-76h-72zM315 798v76h72v-76h-72z" />
    <glyph glyph-name="Igrave" unicode="&#xcc;" horiz-adv-x="222" 
d="M-8 880h64l93 -119h-43zM80 0v712h62v-712h-62z" />
    <glyph glyph-name="Iacute" unicode="&#xcd;" horiz-adv-x="222" 
d="M166 879h64l-114 -119h-43zM80 0v712h62v-712h-62z" />
    <glyph glyph-name="Icircumflex" unicode="&#xce;" horiz-adv-x="222" 
d="M80 0v712h62v-712h-62zM111 862l-79 -105h-62l106 141h70l106 -141h-62z" />
    <glyph glyph-name="Idieresis" unicode="&#xcf;" horiz-adv-x="222" 
d="M80 0v712h62v-712h-62zM-7 798v76h72v-76h-72zM157 798v76h72v-76h-72z" />
    <glyph glyph-name="Eth" unicode="&#xd0;" horiz-adv-x="648" 
d="M2 359v44h74v309h190q82 0 145 -26.5t98 -65t57.5 -89.5t29.5 -92.5t7 -82.5q0 -49 -9 -94t-34.5 -94.5t-66 -85t-109 -59t-157.5 -23.5h-151v359h-74zM353 403v-44h-215v-307h96q60 0 113.5 18t96.5 54t68.5 95.5t25.5 136.5q0 41 -7 80t-27.5 81t-52 72.5t-85 50.5
t-122.5 20h-106v-257h215z" />
    <glyph glyph-name="Ntilde" unicode="&#xd1;" horiz-adv-x="667" 
d="M76 0v712h84l367 -617h2v617h62v-712h-81l-370 619h-2v-619h-62zM452 870h39q0 -1 -2.5 -9.5t-3.5 -11.5l-4 -12t-5.5 -13.5t-6.5 -12.5t-8 -12l-10 -10t-12.5 -9t-15 -5t-17.5 -2q-30 0 -78 23q-40 21 -69 21q-37 0 -43 -49h-39q7 49 31.5 74t60.5 25q24 0 74 -24
q46 -22 63 -22q19 0 31 14.5t15 34.5z" />
    <glyph glyph-name="Ograve" unicode="&#xd2;" horiz-adv-x="686" 
d="M232 880h64l93 -119h-43zM110 355q0 -55 11 -106.5t36 -101.5t73 -80t113 -30t113 30t73 80t36 101.5t11 106.5q0 61 -12.5 115t-38 101.5t-72.5 75.5t-110 28t-110 -28t-72.5 -75.5t-38 -101.5t-12.5 -115zM45 347q0 75 16.5 140.5t50 120.5t93 87t138.5 32t138.5 -32
t93 -87t50 -120.5t16.5 -140.5q0 -45 -7.5 -89.5t-28 -95t-52.5 -89t-86 -63.5t-124 -25t-124 25t-86 63.5t-52.5 89t-28 95t-7.5 89.5z" />
    <glyph glyph-name="Oacute" unicode="&#xd3;" horiz-adv-x="686" 
d="M376 879h64l-114 -119h-43zM110 355q0 -55 11 -106.5t36 -101.5t73 -80t113 -30t113 30t73 80t36 101.5t11 106.5q0 61 -12.5 115t-38 101.5t-72.5 75.5t-110 28t-110 -28t-72.5 -75.5t-38 -101.5t-12.5 -115zM45 347q0 75 16.5 140.5t50 120.5t93 87t138.5 32t138.5 -32
t93 -87t50 -120.5t16.5 -140.5q0 -45 -7.5 -89.5t-28 -95t-52.5 -89t-86 -63.5t-124 -25t-124 25t-86 63.5t-52.5 89t-28 95t-7.5 89.5z" />
    <glyph glyph-name="Ocircumflex" unicode="&#xd4;" horiz-adv-x="686" 
d="M346 831l-63 -84h-50l85 113h56l85 -113h-50zM110 355q0 -55 11 -106.5t36 -101.5t73 -80t113 -30t113 30t73 80t36 101.5t11 106.5q0 61 -12.5 115t-38 101.5t-72.5 75.5t-110 28t-110 -28t-72.5 -75.5t-38 -101.5t-12.5 -115zM45 347q0 75 16.5 140.5t50 120.5t93 87
t138.5 32t138.5 -32t93 -87t50 -120.5t16.5 -140.5q0 -45 -7.5 -89.5t-28 -95t-52.5 -89t-86 -63.5t-124 -25t-124 25t-86 63.5t-52.5 89t-28 95t-7.5 89.5z" />
    <glyph glyph-name="Otilde" unicode="&#xd5;" horiz-adv-x="686" 
d="M447 838h32q-17 -78 -68 -78q-23 0 -63 19q-34 16 -55 16q-30 0 -34 -39h-32q6 39 25.5 59t48.5 20q24 0 59 -19q38 -17 51 -17q15 0 24 11.5t12 27.5zM110 355q0 -55 11 -106.5t36 -101.5t73 -80t113 -30t113 30t73 80t36 101.5t11 106.5q0 61 -12.5 115t-38 101.5
t-72.5 75.5t-110 28t-110 -28t-72.5 -75.5t-38 -101.5t-12.5 -115zM45 347q0 75 16.5 140.5t50 120.5t93 87t138.5 32t138.5 -32t93 -87t50 -120.5t16.5 -140.5q0 -45 -7.5 -89.5t-28 -95t-52.5 -89t-86 -63.5t-124 -25t-124 25t-86 63.5t-52.5 89t-28 95t-7.5 89.5z" />
    <glyph glyph-name="Odieresis" unicode="&#xd6;" horiz-adv-x="686" 
d="M110 355q0 -55 11 -106.5t36 -101.5t73 -80t113 -30t113 30t73 80t36 101.5t11 106.5q0 61 -12.5 115t-38 101.5t-72.5 75.5t-110 28t-110 -28t-72.5 -75.5t-38 -101.5t-12.5 -115zM45 347q0 75 16.5 140.5t50 120.5t93 87t138.5 32t138.5 -32t93 -87t50 -120.5
t16.5 -140.5q0 -45 -7.5 -89.5t-28 -95t-52.5 -89t-86 -63.5t-124 -25t-124 25t-86 63.5t-52.5 89t-28 95t-7.5 89.5zM225 798v76h72v-76h-72zM389 798v76h72v-76h-72z" />
    <glyph glyph-name="multiply" unicode="&#xd7;" horiz-adv-x="600" 
d="M300 290l190 190l37 -37l-190 -190l190 -190l-37 -37l-190 190l-190 -190l-37 37l190 190l-190 190l37 37z" />
    <glyph glyph-name="Oslash" unicode="&#xd8;" horiz-adv-x="686" 
d="M150 163l368 418q-59 94 -175 94q-63 0 -110 -28t-72.5 -75.5t-38 -101.5t-12.5 -115q0 -115 40 -192zM31 28l74 84q-60 100 -60 235q0 75 16.5 140.5t50 120.5t93 87t138.5 32q138 0 216 -99l67 76l29 -27l-73 -82q59 -95 59 -248q0 -45 -7.5 -89.5t-28 -95t-52.5 -89
t-86 -63.5t-124 -25q-135 0 -215 95l-68 -77zM538 545l-368 -417q60 -91 173 -91q65 0 113 30t73 80t36 101.5t11 106.5q0 111 -38 190z" />
    <glyph glyph-name="Ugrave" unicode="&#xd9;" horiz-adv-x="648" 
d="M232 880h64l93 -119h-43zM76 712h62v-434q0 -107 45 -174t141 -67t141 67t45 174v434h62v-446q0 -81 -23 -139t-61.5 -87.5t-78.5 -42t-85 -12.5t-85 12.5t-78.5 42t-61.5 87.5t-23 139v446z" />
    <glyph glyph-name="Uacute" unicode="&#xda;" horiz-adv-x="648" 
d="M366 879h64l-114 -119h-43zM76 712h62v-434q0 -107 45 -174t141 -67t141 67t45 174v434h62v-446q0 -81 -23 -139t-61.5 -87.5t-78.5 -42t-85 -12.5t-85 12.5t-78.5 42t-61.5 87.5t-23 139v446z" />
    <glyph glyph-name="Ucircumflex" unicode="&#xdb;" horiz-adv-x="648" 
d="M76 712h62v-434q0 -107 45 -174t141 -67t141 67t45 174v434h62v-446q0 -81 -23 -139t-61.5 -87.5t-78.5 -42t-85 -12.5t-85 12.5t-78.5 42t-61.5 87.5t-23 139v446zM324 862l-79 -105h-62l106 141h70l106 -141h-62z" />
    <glyph glyph-name="Udieresis" unicode="&#xdc;" horiz-adv-x="648" 
d="M76 712h62v-434q0 -107 45 -174t141 -67t141 67t45 174v434h62v-446q0 -81 -23 -139t-61.5 -87.5t-78.5 -42t-85 -12.5t-85 12.5t-78.5 42t-61.5 87.5t-23 139v446zM206 798v76h72v-76h-72zM370 798v76h72v-76h-72z" />
    <glyph glyph-name="Yacute" unicode="&#xdd;" horiz-adv-x="574" 
d="M366 879h64l-114 -119h-43zM255 0v299l-249 413h76l178 -306q14 -24 28 -53q15 29 28 53l182 306h70l-251 -413v-299h-62z" />
    <glyph glyph-name="Thorn" unicode="&#xde;" horiz-adv-x="574" 
d="M80 0v712h62v-118h162q111 0 168 -54t57 -149t-57 -149t-168 -54h-162v-188h-62zM142 240h155q77 0 122 37t45 114t-45 114t-122 37h-155v-302z" />
    <glyph glyph-name="germandbls" unicode="&#xdf;" 
d="M82 0v572q0 95 52.5 155t146.5 60q89 0 139 -51.5t50 -134.5q0 -137 -130 -175v-2q58 -4 97.5 -38.5t55 -77.5t15.5 -89q0 -106 -60.5 -165.5t-146.5 -59.5q-39 0 -93 20l26 51q39 -19 78 -19q19 0 40 8.5t43.5 26.5t36.5 55t14 86q0 50 -15.5 86t-41.5 54t-53.5 26
t-58.5 8q-28 0 -45 -4v55q27 -3 28 -3q19 0 41.5 6.5t48 22t42 47.5t16.5 76q0 139 -129 139q-70 0 -103 -50t-36 -123v-562h-58z" />
    <glyph glyph-name="agrave" unicode="&#xe0;" horiz-adv-x="519" 
d="M146 762h61l88 -113h-41zM116 436l-52 17q51 146 200 146q54 0 92 -17t58 -47.5t28.5 -64t8.5 -73.5v-253q0 -31 2 -87t2 -57h-58l-4 94q-30 -33 -52 -52.5t-60 -36.5t-81 -17q-76 0 -120 46t-44 118q0 44 12.5 77.5t36.5 55t51.5 35.5t66.5 21t72.5 9.5t76.5 2.5h41
q-1 30 -1.5 44.5t-3.5 39.5t-8.5 37t-15 29t-23.5 24.5t-35.5 13.5t-48.5 6q-32 0 -56.5 -9.5t-41 -29t-24.5 -34t-19 -38.5zM393 153v152h-39q-61 0 -103 -5t-79 -20t-55.5 -45t-18.5 -76q0 -61 33 -88t79 -27q34 0 66 15.5t51 32t66 61.5z" />
    <glyph glyph-name="aacute" unicode="&#xe1;" horiz-adv-x="519" 
d="M337 766h61l-108 -113h-41zM116 436l-52 17q51 146 200 146q54 0 92 -17t58 -47.5t28.5 -64t8.5 -73.5v-253q0 -31 2 -87t2 -57h-58l-4 94q-30 -33 -52 -52.5t-60 -36.5t-81 -17q-76 0 -120 46t-44 118q0 44 12.5 77.5t36.5 55t51.5 35.5t66.5 21t72.5 9.5t76.5 2.5h41
q-1 30 -1.5 44.5t-3.5 39.5t-8.5 37t-15 29t-23.5 24.5t-35.5 13.5t-48.5 6q-32 0 -56.5 -9.5t-41 -29t-24.5 -34t-19 -38.5zM393 153v152h-39q-61 0 -103 -5t-79 -20t-55.5 -45t-18.5 -76q0 -61 33 -88t79 -27q34 0 66 15.5t51 32t66 61.5z" />
    <glyph glyph-name="acircumflex" unicode="&#xe2;" horiz-adv-x="519" 
d="M268 713l-60 -80h-47l80 107h54l80 -107h-47zM116 436l-52 17q51 146 200 146q54 0 92 -17t58 -47.5t28.5 -64t8.5 -73.5v-253q0 -31 2 -87t2 -57h-58l-4 94q-30 -33 -52 -52.5t-60 -36.5t-81 -17q-76 0 -120 46t-44 118q0 44 12.5 77.5t36.5 55t51.5 35.5t66.5 21
t72.5 9.5t76.5 2.5h41q-1 30 -1.5 44.5t-3.5 39.5t-8.5 37t-15 29t-23.5 24.5t-35.5 13.5t-48.5 6q-32 0 -56.5 -9.5t-41 -29t-24.5 -34t-19 -38.5zM393 153v152h-39q-61 0 -103 -5t-79 -20t-55.5 -45t-18.5 -76q0 -61 33 -88t79 -27q34 0 66 15.5t51 32t66 61.5z" />
    <glyph glyph-name="atilde" unicode="&#xe3;" horiz-adv-x="519" 
d="M350 718h31q-18 -74 -65 -74q-22 0 -60 18q-32 15 -52 15q-29 0 -32 -37h-31q12 75 71 75q25 0 56 -18q34 -16 48 -16q27 0 34 37zM116 436l-52 17q51 146 200 146q54 0 92 -17t58 -47.5t28.5 -64t8.5 -73.5v-253q0 -31 2 -87t2 -57h-58l-4 94q-30 -33 -52 -52.5
t-60 -36.5t-81 -17q-76 0 -120 46t-44 118q0 44 12.5 77.5t36.5 55t51.5 35.5t66.5 21t72.5 9.5t76.5 2.5h41q-1 30 -1.5 44.5t-3.5 39.5t-8.5 37t-15 29t-23.5 24.5t-35.5 13.5t-48.5 6q-32 0 -56.5 -9.5t-41 -29t-24.5 -34t-19 -38.5zM393 153v152h-39q-61 0 -103 -5
t-79 -20t-55.5 -45t-18.5 -76q0 -61 33 -88t79 -27q34 0 66 15.5t51 32t66 61.5z" />
    <glyph glyph-name="adieresis" unicode="&#xe4;" horiz-adv-x="519" 
d="M116 436l-52 17q51 146 200 146q54 0 92 -17t58 -47.5t28.5 -64t8.5 -73.5v-253q0 -31 2 -87t2 -57h-58l-4 94q-30 -33 -52 -52.5t-60 -36.5t-81 -17q-76 0 -120 46t-44 118q0 44 12.5 77.5t36.5 55t51.5 35.5t66.5 21t72.5 9.5t76.5 2.5h41q-1 30 -1.5 44.5t-3.5 39.5
t-8.5 37t-15 29t-23.5 24.5t-35.5 13.5t-48.5 6q-32 0 -56.5 -9.5t-41 -29t-24.5 -34t-19 -38.5zM393 153v152h-39q-61 0 -103 -5t-79 -20t-55.5 -45t-18.5 -76q0 -61 33 -88t79 -27q34 0 66 15.5t51 32t66 61.5zM142 701v76h72v-76h-72zM306 701v76h72v-76h-72z" />
    <glyph glyph-name="aring" unicode="&#xe5;" horiz-adv-x="519" 
d="M116 436l-52 17q51 146 200 146q54 0 92 -17t58 -47.5t28.5 -64t8.5 -73.5v-253q0 -31 2 -87t2 -57h-58l-4 94q-30 -33 -52 -52.5t-60 -36.5t-81 -17q-76 0 -120 46t-44 118q0 44 12.5 77.5t36.5 55t51.5 35.5t66.5 21t72.5 9.5t76.5 2.5h41q-1 30 -1.5 44.5t-3.5 39.5
t-8.5 37t-15 29t-23.5 24.5t-35.5 13.5t-48.5 6q-32 0 -56.5 -9.5t-41 -29t-24.5 -34t-19 -38.5zM393 153v152h-39q-61 0 -103 -5t-79 -20t-55.5 -45t-18.5 -76q0 -61 33 -88t79 -27q34 0 66 15.5t51 32t66 61.5zM167 733q0 38 27.5 65.5t65.5 27.5t65.5 -27.5t27.5 -65.5
t-27.5 -65.5t-65.5 -27.5t-65.5 27.5t-27.5 65.5zM207 733q0 -22 15.5 -37.5t37.5 -15.5t37.5 15.5t15.5 37.5t-15.5 37.5t-37.5 15.5t-37.5 -15.5t-15.5 -37.5z" />
    <glyph glyph-name="ae" unicode="&#xe6;" horiz-adv-x="870" 
d="M403 346v60q0 55 -34 98t-106 43q-32 0 -57 -11t-41.5 -31t-25 -34.5t-17.5 -36.5l-56 19q12 25 19 37.5t25 37t37 37t51 23.5t71 11q41 0 72 -10t50.5 -30t28.5 -33t20 -36q13 19 17 25t22.5 26.5t33.5 29.5t42 18.5t57 9.5q45 0 82 -16t60.5 -42t39.5 -61.5t23 -73
t7 -77.5v-31h-363v-46q0 -97 42.5 -154.5t111.5 -57.5q98 0 147 113l52 -17q-24 -66 -78.5 -107t-122.5 -41q-41 0 -73.5 12t-55 36t-34 41.5t-26.5 45.5q-109 -135 -220 -135q-43 0 -75 15.5t-49.5 40.5t-25.5 50.5t-8 50.5q0 44 12.5 77.5t36.5 55t51.5 35.5t66.5 21
t72.5 9.5t76.5 2.5h41zM461 346h301q-2 59 -17 101.5t-38.5 62.5t-46 28.5t-45.5 8.5q-43 0 -74.5 -19.5t-47.5 -51.5t-23.5 -63.5t-8.5 -66.5zM403 298h-39q-61 0 -103 -5.5t-79 -20t-55.5 -44.5t-18.5 -75q0 -52 31 -78.5t72 -26.5q29 0 60 12t53.5 29.5t41 36t28 31
t9.5 15.5v126z" />
    <glyph glyph-name="ccedilla" unicode="&#xe7;" horiz-adv-x="500" 
d="M470 453l-53 -17q-27 61 -60.5 86t-81.5 25q-24 0 -48.5 -9.5t-52 -33.5t-45 -78t-17.5 -131q0 -120 43 -187.5t118 -67.5q53 0 90 33t57 78l53 -21q-14 -28 -27 -47t-36 -44t-55 -38t-71 -13l-36 -46l2 -2q8 4 25 4q86 0 86 -71q0 -30 -27 -56.5t-84 -26.5q-48 0 -94 21
l14 33q38 -18 81 -18q22 0 37 13t15 32q0 17 -13.5 29t-40.5 12q-21 0 -39 -9l-17 15l56 72q-60 7 -101.5 39t-61.5 81t-28 96t-8 99q0 130 66 212t170 82q116 0 184 -146z" />
    <glyph glyph-name="egrave" unicode="&#xe8;" horiz-adv-x="537" 
d="M151 762h61l88 -113h-41zM490 282h-388q0 -31 3.5 -60.5t15 -63.5t29.5 -59t49.5 -42t72.5 -17q37 0 65.5 10.5t46.5 30t27.5 35t18.5 36.5l51 -20q-35 -82 -88 -113t-120 -31q-70 0 -119 30t-72.5 81t-32.5 100t-9 106q0 130 66 212t170 82q45 0 82 -16t61 -43.5
t40.5 -64.5t23.5 -77.5t7 -85.5v-30zM102 330h326q-3 106 -44.5 161.5t-112.5 55.5q-68 0 -117.5 -57.5t-51.5 -159.5z" />
    <glyph glyph-name="eacute" unicode="&#xe9;" horiz-adv-x="537" 
d="M337 766h61l-108 -113h-41zM490 282h-388q0 -31 3.5 -60.5t15 -63.5t29.5 -59t49.5 -42t72.5 -17q37 0 65.5 10.5t46.5 30t27.5 35t18.5 36.5l51 -20q-35 -82 -88 -113t-120 -31q-70 0 -119 30t-72.5 81t-32.5 100t-9 106q0 130 66 212t170 82q45 0 82 -16t61 -43.5
t40.5 -64.5t23.5 -77.5t7 -85.5v-30zM102 330h326q-3 106 -44.5 161.5t-112.5 55.5q-68 0 -117.5 -57.5t-51.5 -159.5z" />
    <glyph glyph-name="ecircumflex" unicode="&#xea;" horiz-adv-x="537" 
d="M288 703l-60 -80h-47l80 107h54l80 -107h-47zM490 282h-388q0 -31 3.5 -60.5t15 -63.5t29.5 -59t49.5 -42t72.5 -17q37 0 65.5 10.5t46.5 30t27.5 35t18.5 36.5l51 -20q-35 -82 -88 -113t-120 -31q-70 0 -119 30t-72.5 81t-32.5 100t-9 106q0 130 66 212t170 82
q45 0 82 -16t61 -43.5t40.5 -64.5t23.5 -77.5t7 -85.5v-30zM102 330h326q-3 106 -44.5 161.5t-112.5 55.5q-68 0 -117.5 -57.5t-51.5 -159.5z" />
    <glyph glyph-name="edieresis" unicode="&#xeb;" horiz-adv-x="537" 
d="M490 282h-388q0 -31 3.5 -60.5t15 -63.5t29.5 -59t49.5 -42t72.5 -17q37 0 65.5 10.5t46.5 30t27.5 35t18.5 36.5l51 -20q-35 -82 -88 -113t-120 -31q-70 0 -119 30t-72.5 81t-32.5 100t-9 106q0 130 66 212t170 82q45 0 82 -16t61 -43.5t40.5 -64.5t23.5 -77.5t7 -85.5
v-30zM102 330h326q-3 106 -44.5 161.5t-112.5 55.5q-68 0 -117.5 -57.5t-51.5 -159.5zM151 701v76h72v-76h-72zM315 701v76h72v-76h-72z" />
    <glyph glyph-name="igrave" unicode="&#xec;" horiz-adv-x="222" 
d="M6 762h61l88 -113h-41zM82 0v587h58v-587h-58z" />
    <glyph glyph-name="iacute" unicode="&#xed;" horiz-adv-x="222" 
d="M167 766h61l-108 -113h-41zM82 0v587h58v-587h-58z" />
    <glyph glyph-name="icircumflex" unicode="&#xee;" horiz-adv-x="222" 
d="M82 0v587h58v-587h-58zM111 765l-79 -105h-62l106 141h70l106 -141h-62z" />
    <glyph glyph-name="idieresis" unicode="&#xef;" horiz-adv-x="222" 
d="M82 0v587h58v-587h-58zM-7 701v76h72v-76h-72zM157 701v76h72v-76h-72z" />
    <glyph glyph-name="eth" unicode="&#xf0;" 
d="M454 284q0 113 -48 175t-125 62q-49 0 -85.5 -22.5t-56 -60t-28.5 -78.5t-9 -85q0 -43 10 -83.5t30 -75t55 -55.5t81 -21q79 0 127.5 66.5t48.5 177.5zM155 607l-28 30l107 55q-46 37 -83 58l40 34q51 -30 94 -65l106 55l27 -32l-99 -51q197 -169 197 -410
q0 -53 -13 -102.5t-40 -93.5t-75.5 -70.5t-112.5 -26.5q-77 0 -132.5 46t-79 110.5t-23.5 136.5q0 129 64.5 210.5t166.5 81.5q63 0 114 -41l2 2q-27 53 -119 131z" />
    <glyph glyph-name="ntilde" unicode="&#xf1;" 
d="M75 0v587h58v-101q37 37 58.5 56t61.5 38t81 19q14 0 29 -2.5t37.5 -12t39.5 -24.5t29 -44.5t12 -68.5v-447h-58v435q2 108 -101 108q-29 0 -56 -9.5t-52 -29t-40.5 -35t-40.5 -42.5v-427h-58zM396 773h39q0 -1 -2.5 -9.5t-3.5 -11.5l-4 -12t-5.5 -13.5t-6.5 -12.5
t-8 -12l-10 -10t-12.5 -9t-15 -5t-17.5 -2q-30 0 -78 23q-40 21 -69 21q-37 0 -43 -49h-39q7 49 31.5 74t60.5 25q24 0 74 -24q46 -22 63 -22q19 0 31 14.5t15 34.5z" />
    <glyph glyph-name="ograve" unicode="&#xf2;" 
d="M146 762h61l88 -113h-41zM102 304q0 -129 46.5 -196.5t129.5 -67.5t129.5 67.5t46.5 196.5q0 101 -43.5 172t-132.5 71t-132.5 -71t-43.5 -172zM40 291q0 39 6 78t22 81.5t41.5 74.5t69 53t99.5 21t99.5 -21t69 -53t41.5 -74.5t22 -81.5t6 -78q0 -79 -23 -145t-78.5 -112
t-136.5 -46t-136.5 46t-78.5 112t-23 145z" />
    <glyph glyph-name="oacute" unicode="&#xf3;" 
d="M337 766h61l-108 -113h-41zM102 304q0 -129 46.5 -196.5t129.5 -67.5t129.5 67.5t46.5 196.5q0 101 -43.5 172t-132.5 71t-132.5 -71t-43.5 -172zM40 291q0 39 6 78t22 81.5t41.5 74.5t69 53t99.5 21t99.5 -21t69 -53t41.5 -74.5t22 -81.5t6 -78q0 -79 -23 -145
t-78.5 -112t-136.5 -46t-136.5 46t-78.5 112t-23 145z" />
    <glyph glyph-name="ocircumflex" unicode="&#xf4;" 
d="M288 707l-60 -80h-47l80 107h54l80 -107h-47zM102 304q0 -129 46.5 -196.5t129.5 -67.5t129.5 67.5t46.5 196.5q0 101 -43.5 172t-132.5 71t-132.5 -71t-43.5 -172zM40 291q0 39 6 78t22 81.5t41.5 74.5t69 53t99.5 21t99.5 -21t69 -53t41.5 -74.5t22 -81.5t6 -78
q0 -79 -23 -145t-78.5 -112t-136.5 -46t-136.5 46t-78.5 112t-23 145z" />
    <glyph glyph-name="otilde" unicode="&#xf5;" 
d="M370 718h31q-18 -74 -65 -74q-22 0 -60 18q-32 15 -52 15q-29 0 -32 -37h-31q12 75 71 75q25 0 56 -18q34 -16 48 -16q27 0 34 37zM102 304q0 -129 46.5 -196.5t129.5 -67.5t129.5 67.5t46.5 196.5q0 101 -43.5 172t-132.5 71t-132.5 -71t-43.5 -172zM40 291q0 39 6 78
t22 81.5t41.5 74.5t69 53t99.5 21t99.5 -21t69 -53t41.5 -74.5t22 -81.5t6 -78q0 -79 -23 -145t-78.5 -112t-136.5 -46t-136.5 46t-78.5 112t-23 145z" />
    <glyph glyph-name="odieresis" unicode="&#xf6;" 
d="M102 304q0 -129 46.5 -196.5t129.5 -67.5t129.5 67.5t46.5 196.5q0 101 -43.5 172t-132.5 71t-132.5 -71t-43.5 -172zM40 291q0 39 6 78t22 81.5t41.5 74.5t69 53t99.5 21t99.5 -21t69 -53t41.5 -74.5t22 -81.5t6 -78q0 -79 -23 -145t-78.5 -112t-136.5 -46t-136.5 46
t-78.5 112t-23 145zM160 701v76h72v-76h-72zM324 701v76h72v-76h-72z" />
    <glyph glyph-name="divide" unicode="&#xf7;" horiz-adv-x="600" 
d="M47 227v52h506v-52h-506zM245 459q0 23 16 39t39 16t39 -16t16 -39t-16 -39t-39 -16t-39 16t-16 39zM245 47q0 23 16 39t39 16t39 -16t16 -39t-16 -39t-39 -16t-39 16t-16 39z" />
    <glyph glyph-name="oslash" unicode="&#xf8;" 
d="M431 439l-287 -326q44 -73 134 -73q83 0 129.5 67.5t46.5 196.5q0 79 -23 135zM126 151l286 325q-45 71 -134 71t-132.5 -71t-43.5 -172q0 -92 24 -153zM18 29l66 75q-44 78 -44 187q0 39 6 78t22 81.5t41.5 74.5t69 53t99.5 21q110 0 172 -80l59 67l29 -26l-66 -75
q44 -77 44 -194q0 -79 -23 -145t-78.5 -112t-136.5 -46q-109 0 -172 82l-59 -67z" />
    <glyph glyph-name="ugrave" unicode="&#xf9;" 
d="M146 752h61l88 -113h-41zM481 587v-587h-58v101q-37 -37 -58.5 -56t-61.5 -38t-81 -19q-14 0 -29 2.5t-37.5 12t-39.5 24.5t-29 44.5t-12 68.5v447h58v-435q-2 -108 101 -108q39 0 76.5 19.5t57.5 38.5t55 58v427h58z" />
    <glyph glyph-name="uacute" unicode="&#xfa;" 
d="M337 756h61l-108 -113h-41zM481 587v-587h-58v101q-37 -37 -58.5 -56t-61.5 -38t-81 -19q-14 0 -29 2.5t-37.5 12t-39.5 24.5t-29 44.5t-12 68.5v447h58v-435q-2 -108 101 -108q39 0 76.5 19.5t57.5 38.5t55 58v427h58z" />
    <glyph glyph-name="ucircumflex" unicode="&#xfb;" 
d="M481 587v-587h-58v101q-37 -37 -58.5 -56t-61.5 -38t-81 -19q-14 0 -29 2.5t-37.5 12t-39.5 24.5t-29 44.5t-12 68.5v447h58v-435q-2 -108 101 -108q39 0 76.5 19.5t57.5 38.5t55 58v427h58zM278 765l-79 -105h-62l106 141h70l106 -141h-62z" />
    <glyph glyph-name="udieresis" unicode="&#xfc;" 
d="M481 587v-587h-58v101q-37 -37 -58.5 -56t-61.5 -38t-81 -19q-14 0 -29 2.5t-37.5 12t-39.5 24.5t-29 44.5t-12 68.5v447h58v-435q-2 -108 101 -108q39 0 76.5 19.5t57.5 38.5t55 58v427h58zM160 701v76h72v-76h-72zM324 701v76h72v-76h-72z" />
    <glyph glyph-name="yacute" unicode="&#xfd;" horiz-adv-x="481" 
d="M307 756h61l-108 -113h-41zM-1 587h67l177 -511h2l174 511h63l-240 -680q-22 -62 -51 -85.5t-68 -23.5q-23 0 -51 7l3 55q30 -6 36 -6q50 0 69 54l32 89z" />
    <glyph glyph-name="thorn" unicode="&#xfe;" 
d="M75 -188v965h58v-273h2q70 95 165 95q104 0 160 -86.5t56 -217.5q0 -54 -8.5 -102t-29.5 -97t-64.5 -78.5t-105.5 -29.5q-61 0 -100.5 25t-72.5 70h-2v-271h-58zM133 442v-296q34 -50 72 -76t90 -26q44 0 76.5 22t49.5 59t25 76.5t8 83.5q0 31 -3 61t-13 67.5t-26.5 64.5
t-47 46t-70.5 19q-29 0 -56.5 -10t-45.5 -24t-32 -29t-20.5 -25.5t-6.5 -12.5z" />
    <glyph glyph-name="ydieresis" unicode="&#xff;" horiz-adv-x="481" 
d="M-1 587h67l177 -511h2l174 511h63l-240 -680q-22 -62 -51 -85.5t-68 -23.5q-23 0 -51 7l3 55q30 -6 36 -6q50 0 69 54l32 89zM123 701v76h72v-76h-72zM287 701v76h72v-76h-72z" />
    <glyph glyph-name="glyph271" unicode="&#x102;" horiz-adv-x="643" 
d="M1 0l285 712h80l281 -712h-71l-77 203h-352l-79 -203h-67zM169 255h309l-126 325q-15 35 -27 74h-2q-10 -31 -28 -76zM408 848h31q-9 -54 -36 -76t-74 -22t-74 22t-36 76h31q5 -32 28.5 -47t50.5 -15t50.5 15t28.5 47z" />
    <glyph glyph-name="glyph272" unicode="&#x103;" horiz-adv-x="519" 
d="M116 436l-52 17q51 146 200 146q54 0 92 -17t58 -47.5t28.5 -64t8.5 -73.5v-253q0 -31 2 -87t2 -57h-58l-4 94q-30 -33 -52 -52.5t-60 -36.5t-81 -17q-76 0 -120 46t-44 118q0 44 12.5 77.5t36.5 55t51.5 35.5t66.5 21t72.5 9.5t76.5 2.5h41q-1 30 -1.5 44.5t-3.5 39.5
t-8.5 37t-15 29t-23.5 24.5t-35.5 13.5t-48.5 6q-32 0 -56.5 -9.5t-41 -29t-24.5 -34t-19 -38.5zM393 153v152h-39q-61 0 -103 -5t-79 -20t-55.5 -45t-18.5 -76q0 -61 33 -88t79 -27q34 0 66 15.5t51 32t66 61.5zM344 734h29q-8 -52 -33.5 -73t-70.5 -21t-70.5 21t-34.5 73
h30q5 -31 27 -45t48 -14t47.5 14t27.5 45z" />
    <glyph glyph-name="Cacute" unicode="&#x106;" horiz-adv-x="711" 
d="M535 186l58 -17q-15 -40 -32 -68t-46.5 -57t-75.5 -44t-107 -15q-62 0 -112 21t-82 55.5t-53.5 82t-30.5 97.5t-9 105q0 173 76.5 277t227.5 104q176 0 235 -172l-63 -14q-47 134 -170 134q-60 0 -105.5 -24t-70.5 -58t-40.5 -80t-20 -82t-4.5 -72q0 -66 11.5 -120.5
t36.5 -101.5t72 -73.5t112 -26.5q78 0 121 35.5t72 113.5zM318 1056h76l-134 -141h-51z" />
    <glyph glyph-name="cacute" unicode="&#x107;" horiz-adv-x="441" 
d="M470 453l-53 -17q-27 61 -60.5 86t-81.5 25q-24 0 -48.5 -9.5t-52 -33.5t-45 -78t-17.5 -131q0 -120 43 -187.5t118 -67.5q53 0 90 33t57 78l53 -21q-15 -28 -28 -47.5t-36 -44t-55 -37.5t-71 -13q-70 0 -119 30t-72.5 81t-32.5 100t-9 106q0 130 66 212t170 82
q116 0 184 -146zM121 801h76l-134 -141h-51z" />
    <glyph glyph-name="Ccaron" unicode="&#x10c;" horiz-adv-x="711" 
d="M535 186l58 -17q-15 -40 -32 -68t-46.5 -57t-75.5 -44t-107 -15q-62 0 -112 21t-82 55.5t-53.5 82t-30.5 97.5t-9 105q0 173 76.5 277t227.5 104q176 0 235 -172l-63 -14q-47 134 -170 134q-60 0 -105.5 -24t-70.5 -58t-40.5 -80t-20 -82t-4.5 -72q0 -66 11.5 -120.5
t36.5 -101.5t72 -73.5t112 -26.5q78 0 121 35.5t72 113.5zM266 968l82 -102l82 102h65l-113 -139h-67l-114 139h65z" />
    <glyph glyph-name="ccaron" unicode="&#x10d;" horiz-adv-x="441" 
d="M470 453l-53 -17q-27 61 -60.5 86t-81.5 25q-24 0 -48.5 -9.5t-52 -33.5t-45 -78t-17.5 -131q0 -120 43 -187.5t118 -67.5q53 0 90 33t57 78l53 -21q-15 -28 -28 -47.5t-36 -44t-55 -37.5t-71 -13q-70 0 -119 30t-72.5 81t-32.5 100t-9 106q0 130 66 212t170 82
q116 0 184 -146zM69 713l82 -102l82 102h65l-113 -139h-67l-114 139h65z" />
    <glyph glyph-name="Dslash" unicode="&#x110;" horiz-adv-x="648" 
d="M2 359v44h74v309h190q82 0 145 -26.5t98 -65t57.5 -89.5t29.5 -92.5t7 -82.5q0 -49 -9 -94t-34.5 -94.5t-66 -85t-109 -59t-157.5 -23.5h-151v359h-74zM353 403v-44h-215v-307h96q60 0 113.5 18t96.5 54t68.5 95.5t25.5 136.5q0 41 -7 80t-27.5 81t-52 72.5t-85 50.5
t-122.5 20h-106v-257h215z" />
    <glyph glyph-name="dslash" unicode="&#x111;" 
d="M320 670v39h103v68h58v-68h162v-39h-162v-670h-58v83h-2q-70 -95 -165 -95q-104 0 -160 86.5t-56 217.5q0 54 8.5 102t29.5 97t64.5 78.5t105.5 29.5q61 0 100.5 -25t72.5 -70h2v166h-103zM423 145v296q-34 50 -72 76t-90 26q-44 0 -76.5 -22t-49.5 -59t-25 -76.5
t-8 -83.5q0 -31 3 -61t13 -67.5t26.5 -64.5t47 -46t70.5 -19q29 0 56.5 10t45.5 24t32 29t20.5 25.5t6.5 12.5z" />
    <glyph glyph-name="Gbreve" unicode="&#x11e;" horiz-adv-x="767" 
d="M584 555l-63 -14q-47 134 -170 134q-60 0 -105.5 -24t-70.5 -58t-40.5 -80t-20 -82t-4.5 -72q0 -66 11.5 -120.5t37.5 -101.5t75 -73.5t117 -26.5q78 0 161 40v242h-157v52h219v-321q-47 -22 -67 -31.5t-68.5 -21.5t-97.5 -12q-81 0 -140.5 31t-92.5 84.5t-48 114.5
t-15 131q0 173 76.5 277t227.5 104q176 0 235 -172zM224 961h39q17 -81 105 -81t107 81h37q-14 -126 -149 -126q-60 0 -97.5 33.5t-41.5 92.5z" />
    <glyph glyph-name="gbreve" unicode="&#x11f;" horiz-adv-x="492" 
d="M512 587v-48h-104q17 -17 26.5 -29.5t17 -38t7.5 -60.5q0 -34 -11 -64.5t-34.5 -58.5t-67 -44.5t-102.5 -16.5q-33 0 -49 6q-38 -25 -38 -55q0 -22 18 -30.5t105 -28.5l36 -8q30 -7 42.5 -10.5t40 -12.5t40.5 -19t30 -25.5t24 -37.5t7 -49q0 -76 -65.5 -117.5
t-183.5 -41.5q-105 0 -167.5 36.5t-62.5 109.5q0 26 8.5 47.5t29.5 43t34 32t45 33.5q-43 13 -43 55q0 28 14 47.5t44 42.5q-108 44 -108 164q0 83 52.5 136.5t151.5 53.5q47 0 83 -12h180zM250 275q62 0 104.5 36t42.5 104q0 62 -39.5 99t-103.5 37q-67 0 -107 -36
t-40 -100q0 -68 42 -104t101 -36zM291 59l-98 23q-7 0 -32.5 -16.5t-51.5 -48.5t-26 -64q0 -103 175 -103q77 0 128.5 27t51.5 82q0 40 -28.5 58t-118.5 42zM26 706h39q17 -81 105 -81t107 81h37q-14 -126 -149 -126q-60 0 -97.5 33.5t-41.5 92.5z" />
    <glyph glyph-name="glyph273" unicode="&#x128;" horiz-adv-x="222" 
d="M80 0v712h62v-712h-62zM217 838h32q-17 -78 -68 -78q-23 0 -63 19q-34 16 -55 16q-30 0 -34 -39h-32q6 39 25.5 59t48.5 20q24 0 59 -19q38 -17 51 -17q15 0 24 11.5t12 27.5z" />
    <glyph glyph-name="glyph274" unicode="&#x129;" horiz-adv-x="222" 
d="M82 587h58v-587h-58v587zM210 718h31q-18 -74 -65 -74q-22 0 -60 18q-32 15 -52 15q-29 0 -32 -37h-31q12 75 71 75q25 0 56 -18q34 -16 48 -16q27 0 34 37z" />
    <glyph glyph-name="Idot" unicode="&#x130;" horiz-adv-x="429" 
d="M80 0v712h62v-712h-62zM226 839h-65v102h65v-102z" />
    <glyph glyph-name="dotlessi" unicode="&#x131;" horiz-adv-x="222" 
d="M138 518v-518h-60v518h60z" />
    <glyph glyph-name="Lslash" unicode="&#x141;" 
d="M535 58v-58h-454v360l-81 -40v60l81 40v300h68v-250l81 40v-60l-81 -40v-352h386z" />
    <glyph glyph-name="lslash" unicode="&#x142;" horiz-adv-x="222" 
d="M141 390v-390h-60v340l-71 -40v60l71 40v320h60v-270l71 40v-60z" />
    <glyph glyph-name="OE" unicode="&#x152;" horiz-adv-x="833" 
d="M441 52v608q-39 4 -99 4q-62 0 -109 -24.5t-73.5 -67.5t-39.5 -94t-13 -111t11 -113t36 -101.5t72.5 -76.5t112.5 -28q66 0 102 4zM474 712h307v-52h-278v-262h261v-52h-261v-294h286v-52h-333q-8 0 -46 -2t-63 -2q-80 0 -139.5 28.5t-94 80t-51.5 115.5t-17 141
q0 99 32 177.5t102.5 128t170.5 49.5q22 0 70.5 -2t53.5 -2z" />
    <glyph glyph-name="oe" unicode="&#x153;" horiz-adv-x="944" 
d="M102 304q0 -129 46.5 -196.5t129.5 -67.5t129.5 67.5t46.5 196.5q0 101 -43.5 172t-132.5 71t-132.5 -71t-43.5 -172zM904 282h-388q0 -31 3.5 -60.5t15 -63.5t29.5 -59t49.5 -42t72.5 -17q37 0 65.5 10.5t46.5 30t27.5 35t18.5 36.5l51 -20q-35 -82 -88 -113t-120 -31
q-152 0 -204 139q-61 -139 -205 -139q-81 0 -136.5 46t-78.5 112t-23 145q0 39 6 78t22 81.5t41.5 74.5t69 53t99.5 21q148 0 207 -141q29 67 83 104t122 37q45 0 82 -16t61 -43.5t40.5 -64.5t23.5 -77.5t7 -85.5v-30zM516 330h326q-3 106 -44.5 161.5t-112.5 55.5
q-68 0 -117.5 -57.5t-51.5 -159.5z" />
    <glyph glyph-name="Scedilla" unicode="&#x15e;" horiz-adv-x="656" 
d="M30 129l65 26q22 -63 60.5 -88.5t92.5 -25.5q72 0 115 41t43 99q0 56 -40.5 89.5t-136.5 76.5q-36 16 -62 31t-54.5 38.5t-43.5 54.5t-15 68q0 90 65 139t142 49q79 0 125.5 -30.5t78.5 -92.5l-67 -22q-26 89 -135 89q-75 0 -108 -39.5t-33 -84.5q0 -58 38 -89.5
t139 -76.5q42 -19 66 -32.5t53 -37t42.5 -55t13.5 -72.5q0 -76 -60 -137.5t-165 -61.5q-51 0 -92 14t-66 37.5t-39 46t-22 46.5zM48 -189l14 33q38 -18 81 -18q22 0 37 13t15 32q0 17 -13.5 29t-40.5 12q-21 0 -39 -9l-17 15l63 82h37l-45 -58l2 -2q8 4 25 4q86 0 86 -71
q0 -30 -27 -56.5t-84 -26.5q-48 0 -94 21z" />
    <glyph glyph-name="scedilla" unicode="&#x15f;" horiz-adv-x="383" 
d="M413 471l-53 -17q-32 93 -125 93q-58 0 -89 -29t-31 -68q0 -42 20.5 -64t67.5 -39l68 -25q84 -30 122 -64.5t38 -103.5q0 -71 -47.5 -118.5t-147.5 -47.5q-86 0 -137 41.5t-67 105.5l55 18q36 -113 146 -113q69 0 102.5 30.5t33.5 82.5q0 44 -25.5 67.5t-76.5 41.5
l-75 27q-70 24 -104.5 59t-34.5 96q0 63 50.5 109t133.5 46q68 0 110 -31.5t66 -96.5zM-47 -189l14 33q37 -18 81 -18q22 0 37 13t15 32q0 17 -13.5 29t-40.5 12q-21 0 -39 -9l-17 15l63 82h37l-45 -58l2 -2q8 4 25 4q86 0 86 -71q0 -30 -27 -56.5t-84 -26.5q-48 0 -94 21z
" />
    <glyph glyph-name="Scaron" unicode="&#x160;" horiz-adv-x="519" 
d="M30 129l65 26q22 -63 60.5 -88.5t92.5 -25.5q72 0 115 41t43 99q0 56 -40.5 89.5t-136.5 76.5q-36 16 -62 31t-54.5 38.5t-43.5 54.5t-15 68q0 90 65 139t142 49q79 0 125.5 -30.5t78.5 -92.5l-67 -22q-26 89 -135 89q-75 0 -108 -39.5t-33 -84.5q0 -58 38 -89.5
t139 -76.5q42 -19 66 -32.5t53 -37t42.5 -55t13.5 -72.5q0 -76 -60 -137.5t-165 -61.5q-51 0 -92 14t-66 37.5t-39 46t-22 46.5zM181 898l79 -105l79 105h62l-106 -141h-70l-106 141h62z" />
    <glyph glyph-name="scaron" unicode="&#x161;" horiz-adv-x="463" 
d="M413 471l-53 -17q-32 93 -125 93q-58 0 -89 -29t-31 -68q0 -42 20.5 -64t67.5 -39l68 -25q84 -30 122 -64.5t38 -103.5q0 -71 -47.5 -118.5t-147.5 -47.5q-86 0 -137 41.5t-67 105.5l55 18q36 -113 146 -113q69 0 102.5 30.5t33.5 82.5q0 44 -25.5 67.5t-76.5 41.5
l-75 27q-70 24 -104.5 59t-34.5 96q0 63 50.5 109t133.5 46q68 0 110 -31.5t66 -96.5zM153 801l79 -105l79 105h62l-106 -141h-70l-106 141h62z" />
    <glyph glyph-name="ch903" unicode="&#x168;" horiz-adv-x="648" 
d="M76 712h62v-434q0 -107 45 -174t141 -67t141 67t45 174v434h62v-446q0 -81 -23 -139t-61.5 -87.5t-78.5 -42t-85 -12.5t-85 12.5t-78.5 42t-61.5 87.5t-23 139v446zM447 838h32q-17 -78 -68 -78q-23 0 -63 19q-34 16 -55 16q-30 0 -34 -39h-32q6 39 25.5 59t48.5 20
q24 0 59 -19q38 -17 51 -17q15 0 24 11.5t12 27.5z" />
    <glyph glyph-name="ch904" unicode="&#x169;" 
d="M481 587v-587h-58v101q-37 -37 -58.5 -56t-61.5 -38t-81 -19q-14 0 -29 2.5t-37.5 12t-39.5 24.5t-29 44.5t-12 68.5v447h58v-435q-2 -108 101 -108q39 0 76.5 19.5t57.5 38.5t55 58v427h58zM380 718h31q-18 -74 -65 -74q-22 0 -60 18q-32 15 -52 15q-29 0 -32 -37h-31
q12 75 71 75q25 0 56 -18q34 -16 48 -16q27 0 34 37z" />
    <glyph glyph-name="Ydieresis" unicode="&#x178;" horiz-adv-x="574" 
d="M255 0v299l-249 413h76l178 -306q14 -24 28 -53q15 29 28 53l182 306h70l-251 -413v-299h-62zM169 798v76h72v-76h-72zM333 798v76h72v-76h-72z" />
    <glyph glyph-name="Zcaron" unicode="&#x17d;" horiz-adv-x="500" 
d="M34 712h431v-53l-367 -607h378v-52h-452v53l367 607h-357v52zM171 898l79 -105l79 105h62l-106 -141h-70l-106 141h62z" />
    <glyph glyph-name="zcaron" unicode="&#x17e;" horiz-adv-x="463" 
d="M23 0v48l337 487h-325v52h399v-48l-338 -487h344v-52h-417zM153 801l79 -105l79 105h62l-106 -141h-70l-106 141h62z" />
    <glyph glyph-name="florin" unicode="&#x192;" horiz-adv-x="520" 
d="M115 374v52h116l39 162q32 139 152 139q47 0 87 -27l-32 -48q-37 23 -58 23q-39 0 -57.5 -23t-31.5 -77l-36 -149h105v-52h-117l-84 -357q-19 -80 -54 -114.5t-99 -34.5q-47 0 -74 22l29 46q25 -16 54 -16q63 0 84 96l82 358h-105z" />
    <glyph glyph-name="glyph277" unicode="&#x1a0;" horiz-adv-x="686" 
d="M537 653q104 -100 104 -306q0 -45 -7.5 -89.5t-28 -95t-52.5 -89t-86 -63.5t-124 -25t-124 25t-86 63.5t-52.5 89t-28 95t-7.5 89.5q0 75 16.5 140.5t50 120.5t93 87t138.5 32q104 0 174 -56q27 12 40.5 23.5t12.5 21.5q0 24 -8 30q-6 6 -20 8q-11 2 -7 28q6 21 28 14
q32 -9 48 -35.5t5 -63.5q-11 -30 -79 -44zM110 355q0 -55 11 -106.5t36 -101.5t73 -80t113 -30t113 30t73 80t36 101.5t11 106.5q0 61 -12.5 115t-38 101.5t-72.5 75.5t-110 28t-110 -28t-72.5 -75.5t-38 -101.5t-12.5 -115z" />
    <glyph glyph-name="glyph278" unicode="&#x1a1;" horiz-adv-x="557" 
d="M439 534v-2q77 -87 77 -241q0 -79 -23 -145t-78.5 -112t-136.5 -46t-136.5 46t-78.5 112t-23 145q0 39 6 78t22 81.5t41.5 74.5t69 53t99.5 21q88 0 143 -49q36 20 36 34q0 22 -7 26q-7 5 -18 7q-10 1 -6 25q5 20 25 12q30 -7 45.5 -30.5t2.5 -55.5q-17 -24 -60 -34z
M102 304q0 -129 46.5 -196.5t129.5 -67.5t129.5 67.5t46.5 196.5q0 101 -43.5 172t-132.5 71t-132.5 -71t-43.5 -172z" />
    <glyph glyph-name="glyph279" unicode="&#x1af;" horiz-adv-x="648" 
d="M572 683v-417q0 -81 -23 -139t-61.5 -87.5t-78.5 -42t-85 -12.5t-85 12.5t-78.5 42t-61.5 87.5t-23 139v446h62v-434q0 -107 45 -174t141 -67t141 67t45 174v434l54 -6q23 16 28 30q2 22 -5 27t-19 10q-11 5 -2 31q9 17 30 8q33 -15 42.5 -41.5t-10.5 -53.5
q-13 -17 -56 -34z" />
    <glyph glyph-name="glyph280" unicode="&#x1b0;" 
d="M481 559v-559h-58v101q-37 -37 -58.5 -56t-61.5 -38t-81 -19q-14 0 -29 2.5t-37.5 12t-39.5 24.5t-29 44.5t-12 68.5v447h58v-435q-2 -108 101 -108q39 0 76.5 19.5t57.5 38.5t55 58v427l49 -7q27 20 29 29q2 21 -5 25q-5 5 -17 10q-11 5 -2 29q8 11 28 8q29 -12 38 -40
t-7 -49q-12 -15 -55 -33z" />
    <glyph glyph-name="circumflex" unicode="&#x2c6;" horiz-adv-x="222" 
d="M111 765l-79 -105h-62l106 141h70l106 -141h-62z" />
    <glyph glyph-name="caron" unicode="&#x2c7;" horiz-adv-x="333" 
d="M89 713l82 -102l82 102h65l-113 -139h-67l-114 139h65z" />
    <glyph glyph-name="breve" unicode="&#x2d8;" horiz-adv-x="333" 
d="M28 706h39q17 -81 105 -81t107 81h37q-14 -126 -149 -126q-60 0 -97.5 33.5t-41.5 92.5z" />
    <glyph glyph-name="dotaccent" unicode="&#x2d9;" horiz-adv-x="333" 
d="M199 584h-65v102h65v-102z" />
    <glyph glyph-name="ring" unicode="&#x2da;" horiz-adv-x="333" 
d="M167 578q-40 0 -71 29q-29 31 -29 70q0 40 30 70t70 30t69.5 -30t29.5 -70q0 -39 -29 -70q-29 -29 -70 -29zM167 611q26 0 46 20t20 46q0 27 -19.5 47t-46.5 20t-47 -20t-20 -47t20 -46.5t47 -19.5z" />
    <glyph glyph-name="ogonek" unicode="&#x2db;" horiz-adv-x="333" 
d="M149 0h50v-2q-80 -41 -80 -87q0 -28 21 -43q19 -14 46 -14q21 0 42 9v-44q-25 -9 -52 -9q-42 0 -70 22q-32 24 -32 65q0 65 75 103z" />
    <glyph glyph-name="tilde" unicode="&#x2dc;" horiz-adv-x="222" 
d="M229 773h39q0 -1 -2.5 -9.5t-3.5 -11.5l-4 -12t-5.5 -13.5t-6.5 -12.5t-8 -12l-10 -10t-12.5 -9t-15 -5t-17.5 -2q-30 0 -78 23q-40 21 -69 21q-37 0 -43 -49h-39q7 49 31.5 74t60.5 25q24 0 74 -24q46 -22 63 -22q19 0 31 14.5t15 34.5z" />
    <glyph glyph-name="hungarumlaut" unicode="&#x2dd;" horiz-adv-x="333" 
d="M297 713l-137 -139h-51l111 139h77zM459 713l-137 -139h-51l111 139h77z" />
    <glyph glyph-name="increment" unicode="&#x394;" horiz-adv-x="1000" 
 />
    <glyph glyph-name="increment" unicode="&#x2206;" horiz-adv-x="1000" 
 />
    <glyph glyph-name="Omega" unicode="&#x3a9;" horiz-adv-x="1000" 
 />
    <glyph glyph-name="Omega" unicode="&#x2126;" horiz-adv-x="1000" 
 />
    <glyph glyph-name="pi" unicode="&#x3c0;" horiz-adv-x="1000" 
 />
    <glyph glyph-name="glyph281" unicode="&#x1ea0;" horiz-adv-x="648" 
d="M1 0l285 712h80l281 -712h-71l-77 203h-352l-79 -203h-67zM169 255h309l-126 325q-15 35 -27 74h-2q-10 -31 -28 -76zM287 -45h84v-88h-84v88z" />
    <glyph glyph-name="glyph282" unicode="&#x1ea1;" horiz-adv-x="519" 
d="M116 436l-52 17q51 146 200 146q54 0 92 -17t58 -47.5t28.5 -64t8.5 -73.5v-253q0 -31 2 -87t2 -57h-58l-4 94q-30 -33 -52 -52.5t-60 -36.5t-81 -17q-76 0 -120 46t-44 118q0 44 12.5 77.5t36.5 55t51.5 35.5t66.5 21t72.5 9.5t76.5 2.5h41q-1 30 -1.5 44.5t-3.5 39.5
t-8.5 37t-15 29t-23.5 24.5t-35.5 13.5t-48.5 6q-32 0 -56.5 -9.5t-41 -29t-24.5 -34t-19 -38.5zM393 153v152h-39q-61 0 -103 -5t-79 -20t-55.5 -45t-18.5 -76q0 -61 33 -88t79 -27q34 0 66 15.5t51 32t66 61.5zM209 -47h80v-84h-80v84z" />
    <glyph glyph-name="glyph283" unicode="&#x1ea2;" horiz-adv-x="648" 
d="M1 0l285 712h80l281 -712h-71l-77 203h-352l-79 -203h-67zM169 255h309l-126 325q-15 35 -27 74h-2q-10 -31 -28 -76zM337 762h-28q1 31 29 53q29 23 23 52q-1 5 -3.5 8.5t-5 5.5t-7.5 4t-7 2.5t-9 1.5t-8 1q-17 2 -18 13q-2 21 22 27q36 5 61.5 -13t27.5 -52
q-1 -39 -55 -71q-11 -9 -22 -32z" />
    <glyph glyph-name="glyph284" unicode="&#x1ea3;" horiz-adv-x="519" 
d="M116 436l-52 17q51 146 200 146q54 0 92 -17t58 -47.5t28.5 -64t8.5 -73.5v-253q0 -31 2 -87t2 -57h-58l-4 94q-30 -33 -52 -52.5t-60 -36.5t-81 -17q-76 0 -120 46t-44 118q0 44 12.5 77.5t36.5 55t51.5 35.5t66.5 21t72.5 9.5t76.5 2.5h41q-1 30 -1.5 44.5t-3.5 39.5
t-8.5 37t-15 29t-23.5 24.5t-35.5 13.5t-48.5 6q-32 0 -56.5 -9.5t-41 -29t-24.5 -34t-19 -38.5zM393 153v152h-39q-61 0 -103 -5t-79 -20t-55.5 -45t-18.5 -76q0 -61 33 -88t79 -27q34 0 66 15.5t51 32t66 61.5zM288 648h-26q2 30 27 49q26 21 22 49q-1 5 -3.5 9t-7.5 6
l-7.5 3t-9.5 2t-9 1q-16 2 -17 12q-2 21 20 25q34 5 57.5 -12t25.5 -48q-2 -38 -51 -66q-11 -10 -21 -30z" />
    <glyph glyph-name="glyph285" unicode="&#x1ea4;" horiz-adv-x="650" 
d="M324 817l-58 -77h-46l78 103h52l78 -103h-46zM500 920h61l-108 -113h-41zM1 0l285 712h80l281 -712h-71l-77 203h-352l-79 -203h-67zM169 255h309l-126 325q-15 35 -27 74h-2q-10 -31 -28 -76z" />
    <glyph glyph-name="glyph286" unicode="&#x1ea5;" horiz-adv-x="519" 
d="M116 436l-52 17q51 146 200 146q54 0 92 -17t58 -47.5t28.5 -64t8.5 -73.5v-253q0 -31 2 -87t2 -57h-58l-4 94q-30 -33 -52 -52.5t-60 -36.5t-81 -17q-76 0 -120 46t-44 118q0 44 12.5 77.5t36.5 55t51.5 35.5t66.5 21t72.5 9.5t76.5 2.5h41q-1 30 -1.5 44.5t-3.5 39.5
t-8.5 37t-15 29t-23.5 24.5t-35.5 13.5t-48.5 6q-32 0 -56.5 -9.5t-41 -29t-24.5 -34t-19 -38.5zM393 153v152h-39q-61 0 -103 -5t-79 -20t-55.5 -45t-18.5 -76q0 -61 33 -88t79 -27q34 0 66 15.5t51 32t66 61.5zM266 701l-55 -74h-43l74 98h49l74 -98h-44zM434 798h57
l-102 -107h-39z" />
    <glyph glyph-name="glyph287" unicode="&#x1ea6;" horiz-adv-x="650" 
d="M324 817l-58 -77h-46l78 103h52l78 -103h-46zM89 923h61l88 -113h-41zM1 0l285 712h80l281 -712h-71l-77 203h-352l-79 -203h-67zM169 255h309l-126 325q-15 35 -27 74h-2q-10 -31 -28 -76z" />
    <glyph glyph-name="glyph288" unicode="&#x1ea7;" horiz-adv-x="519" 
d="M116 436l-52 17q51 146 200 146q54 0 92 -17t58 -47.5t28.5 -64t8.5 -73.5v-253q0 -31 2 -87t2 -57h-58l-4 94q-30 -33 -52 -52.5t-60 -36.5t-81 -17q-76 0 -120 46t-44 118q0 44 12.5 77.5t36.5 55t51.5 35.5t66.5 21t72.5 9.5t76.5 2.5h41q-1 30 -1.5 44.5t-3.5 39.5
t-8.5 37t-15 29t-23.5 24.5t-35.5 13.5t-48.5 6q-32 0 -56.5 -9.5t-41 -29t-24.5 -34t-19 -38.5zM393 153v152h-39q-61 0 -103 -5t-79 -20t-55.5 -45t-18.5 -76q0 -61 33 -88t79 -27q34 0 66 15.5t51 32t66 61.5zM262 707l-55 -73h-44l74 97h49l75 -97h-44zM38 807h58
l84 -107h-39z" />
    <glyph glyph-name="glyph289" unicode="&#x1ea8;" horiz-adv-x="650" 
d="M324 817l-58 -77h-46l78 103h52l78 -103h-46zM439 809h-26q1 29 27 48q25 21 21 49q-4 13 -15 16q-20 6 -22 5q-16 2 -17 12q-1 19 21 24q33 5 56.5 -11.5t24.5 -47.5q-2 -38 -50 -66q-12 -12 -20 -29zM1 0l285 712h80l281 -712h-71l-77 203h-352l-79 -203h-67zM169 255
h309l-126 325q-15 35 -27 74h-2q-10 -31 -28 -76z" />
    <glyph glyph-name="glyph290" unicode="&#x1ea9;" horiz-adv-x="519" 
d="M116 436l-52 17q51 146 200 146q54 0 92 -17t58 -47.5t28.5 -64t8.5 -73.5v-253q0 -31 2 -87t2 -57h-58l-4 94q-30 -33 -52 -52.5t-60 -36.5t-81 -17q-76 0 -120 46t-44 118q0 44 12.5 77.5t36.5 55t51.5 35.5t66.5 21t72.5 9.5t76.5 2.5h41q-1 30 -1.5 44.5t-3.5 39.5
t-8.5 37t-15 29t-23.5 24.5t-35.5 13.5t-48.5 6q-32 0 -56.5 -9.5t-41 -29t-24.5 -34t-19 -38.5zM393 153v152h-39q-61 0 -103 -5t-79 -20t-55.5 -45t-18.5 -76q0 -61 33 -88t79 -27q34 0 66 15.5t51 32t66 61.5zM256 703l-55 -73h-44l74 98h50l74 -98h-44zM365 695h-24
q1 27 25 46q25 19 20 46q-5 14 -14 15q-20 6 -21 5q-15 2 -16 12q-2 18 20 23q32 4 54 -12t23 -45q-2 -35 -48 -62q-10 -10 -19 -28z" />
    <glyph glyph-name="glyph291" unicode="&#x1eaa;" horiz-adv-x="650" 
d="M324 817l-58 -77h-46l78 103h52l78 -103h-46zM434 941h30q-18 -72 -63 -72q-18 0 -58 17q-27 15 -50 15q-28 0 -31 -36h-30q5 36 23 54.5t45 18.5q23 0 54 -18q36 -15 47 -15q27 0 33 36zM1 0l285 712h80l281 -712h-71l-77 203h-352l-79 -203h-67zM169 255h309l-126 325
q-15 35 -27 74h-2q-10 -31 -28 -76z" />
    <glyph glyph-name="glyph292" unicode="&#x1eab;" horiz-adv-x="519" 
d="M116 436l-52 17q51 146 200 146q54 0 92 -17t58 -47.5t28.5 -64t8.5 -73.5v-253q0 -31 2 -87t2 -57h-58l-4 94q-30 -33 -52 -52.5t-60 -36.5t-81 -17q-76 0 -120 46t-44 118q0 44 12.5 77.5t36.5 55t51.5 35.5t66.5 21t72.5 9.5t76.5 2.5h41q-1 30 -1.5 44.5t-3.5 39.5
t-8.5 37t-15 29t-23.5 24.5t-35.5 13.5t-48.5 6q-32 0 -56.5 -9.5t-41 -29t-24.5 -34t-19 -38.5zM393 153v152h-39q-61 0 -103 -5t-79 -20t-55.5 -45t-18.5 -76q0 -61 33 -88t79 -27q34 0 66 15.5t51 32t66 61.5zM263 699l-58 -77h-46l78 103h52l78 -103h-46zM373 823h30
q-18 -72 -63 -72q-18 0 -58 17q-27 15 -50 15q-28 0 -31 -36h-30q5 36 23 54.5t45 18.5q23 0 54 -18q36 -15 47 -15q27 0 33 36z" />
    <glyph glyph-name="glyph293" unicode="&#x1eac;" horiz-adv-x="650" 
d="M324 817l-58 -77h-46l78 103h52l78 -103h-46zM287 -45h84v-88h-84v88zM1 0l285 712h80l281 -712h-71l-77 203h-352l-79 -203h-67zM169 255h309l-126 325q-15 35 -27 74h-2q-10 -31 -28 -76z" />
    <glyph glyph-name="glyph294" unicode="&#x1ead;" horiz-adv-x="519" 
d="M116 436l-52 17q51 146 200 146q54 0 92 -17t58 -47.5t28.5 -64t8.5 -73.5v-253q0 -31 2 -87t2 -57h-58l-4 94q-30 -33 -52 -52.5t-60 -36.5t-81 -17q-76 0 -120 46t-44 118q0 44 12.5 77.5t36.5 55t51.5 35.5t66.5 21t72.5 9.5t76.5 2.5h41q-1 30 -1.5 44.5t-3.5 39.5
t-8.5 37t-15 29t-23.5 24.5t-35.5 13.5t-48.5 6q-32 0 -56.5 -9.5t-41 -29t-24.5 -34t-19 -38.5zM393 153v152h-39q-61 0 -103 -5t-79 -20t-55.5 -45t-18.5 -76q0 -61 33 -88t79 -27q34 0 66 15.5t51 32t66 61.5zM266 701l-55 -73h-44l74 97h50l74 -97h-44zM205 -58h80v-84
h-80v84z" />
    <glyph glyph-name="glyph295" unicode="&#x1eae;" horiz-adv-x="643" 
d="M1 0l285 712h80l281 -712h-71l-77 203h-352l-79 -203h-67zM169 255h309l-126 325q-15 35 -27 74h-2q-10 -31 -28 -76zM402 835h29q-8 -50 -33 -71t-69 -21t-69 21t-33 71h29q5 -30 26.5 -44t46.5 -14t46.5 14t26.5 44zM403 953h61l-108 -113h-41z" />
    <glyph glyph-name="glyph296" unicode="&#x1eaf;" horiz-adv-x="519" 
d="M116 436l-52 17q51 146 200 146q54 0 92 -17t58 -47.5t28.5 -64t8.5 -73.5v-253q0 -31 2 -87t2 -57h-58l-4 94q-30 -33 -52 -52.5t-60 -36.5t-81 -17q-76 0 -120 46t-44 118q0 44 12.5 77.5t36.5 55t51.5 35.5t66.5 21t72.5 9.5t76.5 2.5h41q-1 30 -1.5 44.5t-3.5 39.5
t-8.5 37t-15 29t-23.5 24.5t-35.5 13.5t-48.5 6q-32 0 -56.5 -9.5t-41 -29t-24.5 -34t-19 -38.5zM393 153v152h-39q-61 0 -103 -5t-79 -20t-55.5 -45t-18.5 -76q0 -61 33 -88t79 -27q34 0 66 15.5t51 32t66 61.5zM331 724h28q-8 -48 -31.5 -68t-65.5 -20t-65.5 20t-31.5 68
h27q10 -55 70 -55q59 0 69 55zM332 836h58l-103 -108h-38z" />
    <glyph glyph-name="glyph297" unicode="&#x1eb0;" horiz-adv-x="643" 
d="M1 0l285 712h80l281 -712h-71l-77 203h-352l-79 -203h-67zM169 255h309l-126 325q-15 35 -27 74h-2q-10 -31 -28 -76zM402 835h29q-8 -50 -33 -71t-69 -21t-69 21t-33 71h29q5 -30 26.5 -44t46.5 -14t46.5 14t26.5 44zM193 953h64l93 -119h-43z" />
    <glyph glyph-name="glyph298" unicode="&#x1eb1;" horiz-adv-x="519" 
d="M116 436l-52 17q51 146 200 146q54 0 92 -17t58 -47.5t28.5 -64t8.5 -73.5v-253q0 -31 2 -87t2 -57h-58l-4 94q-30 -33 -52 -52.5t-60 -36.5t-81 -17q-76 0 -120 46t-44 118q0 44 12.5 77.5t36.5 55t51.5 35.5t66.5 21t72.5 9.5t76.5 2.5h41q-1 30 -1.5 44.5t-3.5 39.5
t-8.5 37t-15 29t-23.5 24.5t-35.5 13.5t-48.5 6q-32 0 -56.5 -9.5t-41 -29t-24.5 -34t-19 -38.5zM393 153v152h-39q-61 0 -103 -5t-79 -20t-55.5 -45t-18.5 -76q0 -61 33 -88t79 -27q34 0 66 15.5t51 32t66 61.5zM333 732h28q-8 -48 -31.5 -68t-65.5 -20t-65.5 20t-31.5 68
h28q10 -55 69 -55t69 55zM135 844h61l88 -113h-41z" />
    <glyph glyph-name="glyph299" unicode="&#x1eb2;" horiz-adv-x="643" 
d="M1 0l285 712h80l281 -712h-71l-77 203h-352l-79 -203h-67zM169 255h309l-126 325q-15 35 -27 74h-2q-10 -31 -28 -76zM402 835h29q-8 -50 -33 -71t-69 -21t-69 21t-33 71h29q5 -30 26.5 -44t46.5 -14t46.5 14t26.5 44zM344 842h-26q2 28 27 48q25 21 21 49q-1 3 -2.5 5.5
t-3 4.5t-4.5 3.5t-4.5 2.5t-5 2t-5.5 1t-6.5 1t-5.5 1q-16 2 -17 12q-2 20 21 24q33 5 56.5 -11.5t24.5 -47.5q-2 -38 -50 -66q-12 -12 -20 -29z" />
    <glyph glyph-name="glyph300" unicode="&#x1eb3;" horiz-adv-x="519" 
d="M116 436l-52 17q51 146 200 146q54 0 92 -17t58 -47.5t28.5 -64t8.5 -73.5v-253q0 -31 2 -87t2 -57h-58l-4 94q-30 -33 -52 -52.5t-60 -36.5t-81 -17q-76 0 -120 46t-44 118q0 44 12.5 77.5t36.5 55t51.5 35.5t66.5 21t72.5 9.5t76.5 2.5h41q-1 30 -1.5 44.5t-3.5 39.5
t-8.5 37t-15 29t-23.5 24.5t-35.5 13.5t-48.5 6q-32 0 -56.5 -9.5t-41 -29t-24.5 -34t-19 -38.5zM393 153v152h-39q-61 0 -103 -5t-79 -20t-55.5 -45t-18.5 -76q0 -61 33 -88t79 -27q34 0 66 15.5t51 32t66 61.5zM332 723h28q-8 -48 -31.5 -68t-65.5 -20t-65.5 20t-31.5 68
h28q10 -55 69 -55t69 55zM277 729h-24q0 27 25 46t20 47q-4 14 -35 20q-15 2 -16 11q-2 18 20 23q31 5 53.5 -11t23.5 -45q-2 -34 -48 -63q-10 -9 -19 -28z" />
    <glyph glyph-name="glyph301" unicode="&#x1eb4;" horiz-adv-x="643" 
d="M1 0l285 712h80l281 -712h-71l-77 203h-352l-79 -203h-67zM169 255h309l-126 325q-15 35 -27 74h-2q-10 -31 -28 -76zM402 835h29q-8 -50 -33 -71t-69 -21t-69 21t-33 71h29q5 -30 26.5 -44t46.5 -14t46.5 14t26.5 44zM434 944h30q-18 -72 -63 -72q-18 0 -58 17
q-27 15 -50 15q-28 0 -31 -36h-30q5 36 23 54.5t45 18.5q23 0 54 -18q36 -15 47 -15q27 0 33 36z" />
    <glyph glyph-name="glyph302" unicode="&#x1eb5;" horiz-adv-x="519" 
d="M116 436l-52 17q51 146 200 146q54 0 92 -17t58 -47.5t28.5 -64t8.5 -73.5v-253q0 -31 2 -87t2 -57h-58l-4 94q-30 -33 -52 -52.5t-60 -36.5t-81 -17q-76 0 -120 46t-44 118q0 44 12.5 77.5t36.5 55t51.5 35.5t66.5 21t72.5 9.5t76.5 2.5h41q-1 30 -1.5 44.5t-3.5 39.5
t-8.5 37t-15 29t-23.5 24.5t-35.5 13.5t-48.5 6q-32 0 -56.5 -9.5t-41 -29t-24.5 -34t-19 -38.5zM393 153v152h-39q-61 0 -103 -5t-79 -20t-55.5 -45t-18.5 -76q0 -61 33 -88t79 -27q34 0 66 15.5t51 32t66 61.5zM328 735h28q-8 -47 -32 -67t-65 -20t-65 20t-32 67h27
q6 -28 26 -41.5t44 -13.5t44 13.5t25 41.5zM359 839h28q-17 -68 -60 -68q-21 0 -55 16q-26 14 -47 14q-26 0 -30 -34h-28q10 69 64 69q23 0 52 -17q33 -14 44 -14q26 0 32 34z" />
    <glyph glyph-name="glyph303" unicode="&#x1eb6;" horiz-adv-x="643" 
d="M1 0l285 712h80l281 -712h-71l-77 203h-352l-79 -203h-67zM169 255h309l-126 325q-15 35 -27 74h-2q-10 -31 -28 -76zM402 835h29q-8 -50 -33 -71t-69 -21t-69 21t-33 71h29q5 -30 26.5 -44t46.5 -14t46.5 14t26.5 44zM287 -45h84v-88h-84v88z" />
    <glyph glyph-name="glyph304" unicode="&#x1eb7;" horiz-adv-x="519" 
d="M116 436l-52 17q51 146 200 146q54 0 92 -17t58 -47.5t28.5 -64t8.5 -73.5v-253q0 -31 2 -87t2 -57h-58l-4 94q-30 -33 -52 -52.5t-60 -36.5t-81 -17q-76 0 -120 46t-44 118q0 44 12.5 77.5t36.5 55t51.5 35.5t66.5 21t72.5 9.5t76.5 2.5h41q-1 30 -1.5 44.5t-3.5 39.5
t-8.5 37t-15 29t-23.5 24.5t-35.5 13.5t-48.5 6q-32 0 -56.5 -9.5t-41 -29t-24.5 -34t-19 -38.5zM393 153v152h-39q-61 0 -103 -5t-79 -20t-55.5 -45t-18.5 -76q0 -61 33 -88t79 -27q34 0 66 15.5t51 32t66 61.5zM329 737h28q-8 -48 -31.5 -68t-65.5 -20t-65.5 20t-31.5 68
h28q10 -55 69 -55t69 55zM212 -55h80v-84h-80v84z" />
    <glyph glyph-name="glyph305" unicode="&#x1eb8;" horiz-adv-x="537" 
d="M76 0v712h408v-52h-346v-262h329v-52h-329v-294h355v-52h-417zM247 -45h84v-88h-84v88z" />
    <glyph glyph-name="glyph306" unicode="&#x1eb9;" horiz-adv-x="537" 
d="M490 282h-388q0 -31 3.5 -60.5t15 -63.5t29.5 -59t49.5 -42t72.5 -17q37 0 65.5 10.5t46.5 30t27.5 35t18.5 36.5l51 -20q-35 -82 -88 -113t-120 -31q-70 0 -119 30t-72.5 81t-32.5 100t-9 106q0 130 66 212t170 82q45 0 82 -16t61 -43.5t40.5 -64.5t23.5 -77.5t7 -85.5
v-30zM102 330h326q-3 106 -44.5 161.5t-112.5 55.5q-68 0 -117.5 -57.5t-51.5 -159.5zM229 -47h80v-84h-80v84z" />
    <glyph glyph-name="glyph307" unicode="&#x1eba;" horiz-adv-x="537" 
d="M76 0v712h408v-52h-346v-262h329v-52h-329v-294h355v-52h-417zM287 762h-28q1 31 29 53q29 23 23 52q-5 15 -16 18q-23 6 -24 5q-17 2 -18 13q-2 21 22 27q36 5 61.5 -13t27.5 -52q-1 -39 -55 -71q-11 -9 -22 -32z" />
    <glyph glyph-name="glyph308" unicode="&#x1ebb;" horiz-adv-x="537" 
d="M490 282h-388q0 -31 3.5 -60.5t15 -63.5t29.5 -59t49.5 -42t72.5 -17q37 0 65.5 10.5t46.5 30t27.5 35t18.5 36.5l51 -20q-35 -82 -88 -113t-120 -31q-70 0 -119 30t-72.5 81t-32.5 100t-9 106q0 130 66 212t170 82q45 0 82 -16t61 -43.5t40.5 -64.5t23.5 -77.5t7 -85.5
v-30zM102 330h326q-3 106 -44.5 161.5t-112.5 55.5q-68 0 -117.5 -57.5t-51.5 -159.5zM290 640h-26q2 28 27 48q25 21 21 49q-10 21 -37 21q-16 2 -17 12q-2 20 21 24q33 5 56.5 -11.5t24.5 -47.5q-2 -38 -50 -66q-12 -12 -20 -29z" />
    <glyph glyph-name="glyph309" unicode="&#x1ebc;" horiz-adv-x="537" 
d="M76 0v712h408v-52h-346v-262h329v-52h-329v-294h355v-52h-417zM387 838h32q-17 -78 -68 -78q-23 0 -63 19q-34 16 -55 16q-30 0 -34 -39h-32q6 39 25.5 59t48.5 20q24 0 59 -19q38 -17 51 -17q15 0 24 11.5t12 27.5z" />
    <glyph glyph-name="glyph310" unicode="&#x1ebd;" horiz-adv-x="537" 
d="M490 282h-388q0 -31 3.5 -60.5t15 -63.5t29.5 -59t49.5 -42t72.5 -17q37 0 65.5 10.5t46.5 30t27.5 35t18.5 36.5l51 -20q-35 -82 -88 -113t-120 -31q-70 0 -119 30t-72.5 81t-32.5 100t-9 106q0 130 66 212t170 82q45 0 82 -16t61 -43.5t40.5 -64.5t23.5 -77.5t7 -85.5
v-30zM102 330h326q-3 106 -44.5 161.5t-112.5 55.5q-68 0 -117.5 -57.5t-51.5 -159.5zM370 721h30q-18 -72 -63 -72q-18 0 -58 17q-27 15 -50 15q-28 0 -31 -36h-30q5 36 23 54.5t45 18.5q23 0 54 -18q36 -15 47 -15q27 0 33 36z" />
    <glyph glyph-name="glyph311" unicode="&#x1ebe;" horiz-adv-x="537" 
d="M274 828l-63 -84h-50l85 113h56l85 -113h-50zM470 920h61l-108 -113h-41zM76 0v712h408v-52h-346v-262h329v-52h-329v-294h355v-52h-417z" />
    <glyph glyph-name="glyph312" unicode="&#x1ebf;" horiz-adv-x="537" 
d="M490 282h-388q0 -31 3.5 -60.5t15 -63.5t29.5 -59t49.5 -42t72.5 -17q37 0 65.5 10.5t46.5 30t27.5 35t18.5 36.5l51 -20q-35 -82 -88 -113t-120 -31q-70 0 -119 30t-72.5 81t-32.5 100t-9 106q0 130 66 212t170 82q45 0 82 -16t61 -43.5t40.5 -64.5t23.5 -77.5t7 -85.5
v-30zM102 330h326q-3 106 -44.5 161.5t-112.5 55.5q-68 0 -117.5 -57.5t-51.5 -159.5zM278 703l-60 -80h-48l81 108h53l81 -108h-48zM464 791h58l-103 -108h-39z" />
    <glyph glyph-name="glyph313" unicode="&#x1ec0;" horiz-adv-x="537" 
d="M274 829l-63 -84h-50l85 113h56l85 -113h-50zM19 923h61l88 -113h-41zM76 0v712h408v-52h-346v-262h329v-52h-329v-294h355v-52h-417z" />
    <glyph glyph-name="glyph314" unicode="&#x1ec1;" horiz-adv-x="537" 
d="M490 282h-388q0 -31 3.5 -60.5t15 -63.5t29.5 -59t49.5 -42t72.5 -17q37 0 65.5 10.5t46.5 30t27.5 35t18.5 36.5l51 -20q-35 -82 -88 -113t-120 -31q-70 0 -119 30t-72.5 81t-32.5 100t-9 106q0 130 66 212t170 82q45 0 82 -16t61 -43.5t40.5 -64.5t23.5 -77.5t7 -85.5
v-30zM102 330h326q-3 106 -44.5 161.5t-112.5 55.5q-68 0 -117.5 -57.5t-51.5 -159.5zM266 715l-59 -80h-48l81 108h53l81 -108h-48zM24 805h58l84 -108h-39z" />
    <glyph glyph-name="glyph315" unicode="&#x1ec2;" horiz-adv-x="537" 
d="M274 831l-63 -84h-50l85 113h56l85 -113h-50zM399 809h-26q1 29 27 48q25 21 21 49q-4 13 -15 16q-20 6 -22 5q-16 2 -17 12q-1 19 21 24q33 5 56.5 -11.5t24.5 -47.5q-2 -38 -50 -66q-12 -12 -20 -29zM76 0v712h408v-52h-346v-262h329v-52h-329v-294h355v-52h-417z" />
    <glyph glyph-name="glyph316" unicode="&#x1ec3;" horiz-adv-x="537" 
d="M490 282h-388q0 -31 3.5 -60.5t15 -63.5t29.5 -59t49.5 -42t72.5 -17q37 0 65.5 10.5t46.5 30t27.5 35t18.5 36.5l51 -20q-35 -82 -88 -113t-120 -31q-70 0 -119 30t-72.5 81t-32.5 100t-9 106q0 130 66 212t170 82q45 0 82 -16t61 -43.5t40.5 -64.5t23.5 -77.5t7 -85.5
v-30zM102 330h326q-3 106 -44.5 161.5t-112.5 55.5q-68 0 -117.5 -57.5t-51.5 -159.5zM273 703l-60 -79h-47l80 107h54l80 -107h-47zM392 682h-25q1 27 25 46q26 20 21 47q-3 6 -8 10.5t-9.5 6t-8.5 2.5t-7 1h-2q-15 0 -17 11q-2 18 20 23q33 4 54.5 -11.5t22.5 -44.5
q-2 -35 -47 -63q-13 -13 -19 -28z" />
    <glyph glyph-name="glyph317" unicode="&#x1ec4;" horiz-adv-x="537" 
d="M274 831l-63 -84h-50l85 113h56l85 -113h-50zM374 951h30q-18 -72 -63 -72q-18 0 -58 17q-27 15 -50 15q-28 0 -31 -36h-30q5 36 23 54.5t45 18.5q23 0 54 -18q36 -15 47 -15q27 0 33 36zM76 0v712h408v-52h-346v-262h329v-52h-329v-294h355v-52h-417z" />
    <glyph glyph-name="glyph318" unicode="&#x1ec5;" horiz-adv-x="537" 
d="M490 282h-388q0 -31 3.5 -60.5t15 -63.5t29.5 -59t49.5 -42t72.5 -17q37 0 65.5 10.5t46.5 30t27.5 35t18.5 36.5l51 -20q-35 -82 -88 -113t-120 -31q-70 0 -119 30t-72.5 81t-32.5 100t-9 106q0 130 66 212t170 82q45 0 82 -16t61 -43.5t40.5 -64.5t23.5 -77.5t7 -85.5
v-30zM102 330h326q-3 106 -44.5 161.5t-112.5 55.5q-68 0 -117.5 -57.5t-51.5 -159.5zM270 711l-59 -80h-48l81 107h53l81 -107h-48zM365 831h29q-17 -69 -60 -69q-19 0 -55 17q-26 14 -48 14q-25 0 -29 -34h-28q10 69 64 69q19 0 51 -17q33 -14 45 -14q13 0 21.5 10.5
t9.5 23.5z" />
    <glyph glyph-name="glyph319" unicode="&#x1ec6;" horiz-adv-x="537" 
d="M274 831l-63 -84h-50l85 113h56l85 -113h-50zM227 -45h84v-88h-84v88zM76 0v712h408v-52h-346v-262h329v-52h-329v-294h355v-52h-417z" />
    <glyph glyph-name="glyph320" unicode="&#x1ec7;" horiz-adv-x="537" 
d="M490 282h-388q0 -31 3.5 -60.5t15 -63.5t29.5 -59t49.5 -42t72.5 -17q37 0 65.5 10.5t46.5 30t27.5 35t18.5 36.5l51 -20q-35 -82 -88 -113t-120 -31q-70 0 -119 30t-72.5 81t-32.5 100t-9 106q0 130 66 212t170 82q45 0 82 -16t61 -43.5t40.5 -64.5t23.5 -77.5t7 -85.5
v-30zM102 330h326q-3 106 -44.5 161.5t-112.5 55.5q-68 0 -117.5 -57.5t-51.5 -159.5zM275 703l-60 -80h-47l80 107h54l80 -107h-47zM229 -47h80v-84h-80v84z" />
    <glyph glyph-name="glyph321" unicode="&#x1ec8;" horiz-adv-x="222" 
d="M80 0v712h62v-712h-62zM117 762h-28q1 31 29 53q29 23 23 52q-5 15 -16 18q-23 6 -24 5q-17 2 -18 13q-2 21 22 27q36 5 61.5 -13t27.5 -52q-1 -39 -55 -71q-11 -9 -22 -32z" />
    <glyph glyph-name="glyph322" unicode="&#x1ec9;" horiz-adv-x="222" 
d="M82 587h58v-587h-58v587zM122 641h-26q2 29 27 48q25 21 21 49q-1 3 -2.5 5.5t-3 4.5t-4.5 3.5t-4.5 2.5t-5 2t-5.5 1t-6.5 1t-5.5 1q-16 2 -17 12q-2 19 21 24q33 5 56.5 -11.5t24.5 -47.5q-2 -38 -50 -66q-12 -12 -20 -29z" />
    <glyph glyph-name="glyph323" unicode="&#x1eca;" horiz-adv-x="222" 
d="M80 0v712h62v-712h-62zM73 -49h78v-80h-78v80z" />
    <glyph glyph-name="glyph324" unicode="&#x1ecb;" horiz-adv-x="222" 
d="M82 587h58v-587h-58v587zM145 777v-77h-68v77h68zM76 -52h72v-74h-72v74z" />
    <glyph glyph-name="glyph325" unicode="&#x1ecc;" horiz-adv-x="686" 
d="M110 355q0 -55 11 -106.5t36 -101.5t73 -80t113 -30t113 30t73 80t36 101.5t11 106.5q0 61 -12.5 115t-38 101.5t-72.5 75.5t-110 28t-110 -28t-72.5 -75.5t-38 -101.5t-12.5 -115zM45 347q0 75 16.5 140.5t50 120.5t93 87t138.5 32t138.5 -32t93 -87t50 -120.5
t16.5 -140.5q0 -45 -7.5 -89.5t-28 -95t-52.5 -89t-86 -63.5t-124 -25t-124 25t-86 63.5t-52.5 89t-28 95t-7.5 89.5zM297 -48h84v-88h-84v88z" />
    <glyph glyph-name="glyph326" unicode="&#x1ecd;" 
d="M116 298q0 -119 43 -180.5t119 -61.5t119 61.5t43 180.5q0 94 -40 159t-122 65t-122 -65t-40 -159zM59 287q0 36 5.5 71.5t20.5 75t38.5 68.5t63.5 48.5t91 19.5t91 -19.5t63.5 -48.5t38.5 -68.5t20.5 -75t5.5 -71.5q0 -53 -12.5 -101.5t-38 -89t-69 -64.5t-99.5 -24
t-99.5 24t-69 64.5t-38 89t-12.5 101.5zM240 -27h72v-74h-72v74z" />
    <glyph glyph-name="glyph327" unicode="&#x1ece;" horiz-adv-x="686" 
d="M110 355q0 -55 11 -106.5t36 -101.5t73 -80t113 -30t113 30t73 80t36 101.5t11 106.5q0 61 -12.5 115t-38 101.5t-72.5 75.5t-110 28t-110 -28t-72.5 -75.5t-38 -101.5t-12.5 -115zM45 347q0 75 16.5 140.5t50 120.5t93 87t138.5 32t138.5 -32t93 -87t50 -120.5
t16.5 -140.5q0 -45 -7.5 -89.5t-28 -95t-52.5 -89t-86 -63.5t-124 -25t-124 25t-86 63.5t-52.5 89t-28 95t-7.5 89.5zM357 762h-28q1 31 29 53q29 23 23 52q-5 15 -16 18q-23 6 -24 5q-17 2 -18 13q-2 21 22 27q36 5 61.5 -13t27.5 -52q-1 -39 -55 -71q-11 -9 -22 -32z" />
    <glyph glyph-name="glyph328" unicode="&#x1ecf;" 
d="M102 304q0 -129 46.5 -196.5t129.5 -67.5t129.5 67.5t46.5 196.5q0 101 -43.5 172t-132.5 71t-132.5 -71t-43.5 -172zM40 291q0 39 6 78t22 81.5t41.5 74.5t69 53t99.5 21t99.5 -21t69 -53t41.5 -74.5t22 -81.5t6 -78q0 -79 -23 -145t-78.5 -112t-136.5 -46t-136.5 46
t-78.5 112t-23 145zM293 645h-26q1 29 27 48q25 21 21 49q-11 21 -37 21q-16 2 -17 12q-1 19 21 24q33 5 56.5 -11.5t24.5 -47.5q-2 -38 -50 -66q-12 -12 -20 -29z" />
    <glyph glyph-name="glyph329" unicode="&#x1ed0;" horiz-adv-x="686" 
d="M346 830l-60 -80h-47l80 107h54l80 -107h-47zM530 929h61l-108 -113h-41zM110 355q0 -55 11 -106.5t36 -101.5t73 -80t113 -30t113 30t73 80t36 101.5t11 106.5q0 61 -12.5 115t-38 101.5t-72.5 75.5t-110 28t-110 -28t-72.5 -75.5t-38 -101.5t-12.5 -115zM45 347
q0 75 16.5 140.5t50 120.5t93 87t138.5 32t138.5 -32t93 -87t50 -120.5t16.5 -140.5q0 -45 -7.5 -89.5t-28 -95t-52.5 -89t-86 -63.5t-124 -25t-124 25t-86 63.5t-52.5 89t-28 95t-7.5 89.5z" />
    <glyph glyph-name="glyph330" unicode="&#x1ed1;" 
d="M102 304q0 -129 46.5 -196.5t129.5 -67.5t129.5 67.5t46.5 196.5q0 101 -43.5 172t-132.5 71t-132.5 -71t-43.5 -172zM40 291q0 39 6 78t22 81.5t41.5 74.5t69 53t99.5 21t99.5 -21t69 -53t41.5 -74.5t22 -81.5t6 -78q0 -79 -23 -145t-78.5 -112t-136.5 -46t-136.5 46
t-78.5 112t-23 145zM282 709l-57 -76h-44l76 102h51l76 -102h-45zM457 804h58l-102 -108h-39z" />
    <glyph glyph-name="glyph331" unicode="&#x1ed2;" horiz-adv-x="686" 
d="M346 830l-60 -80h-47l80 107h54l80 -107h-47zM92 927h61l88 -113h-41zM110 355q0 -55 11 -106.5t36 -101.5t73 -80t113 -30t113 30t73 80t36 101.5t11 106.5q0 61 -12.5 115t-38 101.5t-72.5 75.5t-110 28t-110 -28t-72.5 -75.5t-38 -101.5t-12.5 -115zM45 347
q0 75 16.5 140.5t50 120.5t93 87t138.5 32t138.5 -32t93 -87t50 -120.5t16.5 -140.5q0 -45 -7.5 -89.5t-28 -95t-52.5 -89t-86 -63.5t-124 -25t-124 25t-86 63.5t-52.5 89t-28 95t-7.5 89.5z" />
    <glyph glyph-name="glyph332" unicode="&#x1ed3;" 
d="M102 304q0 -129 46.5 -196.5t129.5 -67.5t129.5 67.5t46.5 196.5q0 101 -43.5 172t-132.5 71t-132.5 -71t-43.5 -172zM40 291q0 39 6 78t22 81.5t41.5 74.5t69 53t99.5 21t99.5 -21t69 -53t41.5 -74.5t22 -81.5t6 -78q0 -79 -23 -145t-78.5 -112t-136.5 -46t-136.5 46
t-78.5 112t-23 145zM268 690l-57 -76h-44l76 102h51l76 -102h-45zM27 783h58l84 -108h-39z" />
    <glyph glyph-name="glyph333" unicode="&#x1ed4;" horiz-adv-x="686" 
d="M346 830l-60 -80h-47l80 107h54l80 -107h-47zM467 812h-26q1 28 27 48q25 21 21 49q-4 13 -15 16q-20 6 -22 5q-16 2 -17 12q-1 20 21 24q33 5 56.5 -11.5t24.5 -47.5q-2 -38 -50 -66q-12 -12 -20 -29zM110 355q0 -55 11 -106.5t36 -101.5t73 -80t113 -30t113 30t73 80
t36 101.5t11 106.5q0 61 -12.5 115t-38 101.5t-72.5 75.5t-110 28t-110 -28t-72.5 -75.5t-38 -101.5t-12.5 -115zM45 347q0 75 16.5 140.5t50 120.5t93 87t138.5 32t138.5 -32t93 -87t50 -120.5t16.5 -140.5q0 -45 -7.5 -89.5t-28 -95t-52.5 -89t-86 -63.5t-124 -25t-124 25
t-86 63.5t-52.5 89t-28 95t-7.5 89.5z" />
    <glyph glyph-name="glyph334" unicode="&#x1ed5;" 
d="M102 304q0 -129 46.5 -196.5t129.5 -67.5t129.5 67.5t46.5 196.5q0 101 -43.5 172t-132.5 71t-132.5 -71t-43.5 -172zM40 291q0 39 6 78t22 81.5t41.5 74.5t69 53t99.5 21t99.5 -21t69 -53t41.5 -74.5t22 -81.5t6 -78q0 -79 -23 -145t-78.5 -112t-136.5 -46t-136.5 46
t-78.5 112t-23 145zM276 697l-57 -76h-45l76 101h52l76 -101h-45zM391 679h-25q2 27 26 46q25 19 20 47q-3 6 -8 10.5t-9.5 6t-8.5 2.5t-6 1h-3q-14 0 -16 11q-2 18 20 23q31 4 53.5 -11.5t23.5 -44.5q-2 -34 -48 -63q-10 -10 -19 -28z" />
    <glyph glyph-name="glyph335" unicode="&#x1ed6;" horiz-adv-x="686" 
d="M346 830l-60 -80h-47l80 107h54l80 -107h-47zM444 952h30q-18 -72 -63 -72q-18 0 -58 17q-27 15 -50 15q-28 0 -31 -36h-30q5 36 23 54.5t45 18.5q23 0 54 -18q36 -15 47 -15q27 0 33 36zM110 355q0 -55 11 -106.5t36 -101.5t73 -80t113 -30t113 30t73 80t36 101.5
t11 106.5q0 61 -12.5 115t-38 101.5t-72.5 75.5t-110 28t-110 -28t-72.5 -75.5t-38 -101.5t-12.5 -115zM45 347q0 75 16.5 140.5t50 120.5t93 87t138.5 32t138.5 -32t93 -87t50 -120.5t16.5 -140.5q0 -45 -7.5 -89.5t-28 -95t-52.5 -89t-86 -63.5t-124 -25t-124 25t-86 63.5
t-52.5 89t-28 95t-7.5 89.5z" />
    <glyph glyph-name="glyph336" unicode="&#x1ed7;" 
d="M102 304q0 -129 46.5 -196.5t129.5 -67.5t129.5 67.5t46.5 196.5q0 101 -43.5 172t-132.5 71t-132.5 -71t-43.5 -172zM40 291q0 39 6 78t22 81.5t41.5 74.5t69 53t99.5 21t99.5 -21t69 -53t41.5 -74.5t22 -81.5t6 -78q0 -79 -23 -145t-78.5 -112t-136.5 -46t-136.5 46
t-78.5 112t-23 145zM275 701l-57 -76h-45l76 102h51l76 -102h-44zM368 817h28q-17 -68 -60 -68q-21 0 -55 16q-26 14 -47 14q-26 0 -30 -34h-28q10 69 64 69q20 0 52 -17q33 -14 44 -14q26 0 32 34z" />
    <glyph glyph-name="glyph337" unicode="&#x1ed8;" horiz-adv-x="686" 
d="M346 830l-60 -80h-47l80 107h54l80 -107h-47zM287 -45h84v-88h-84v88zM110 355q0 -55 11 -106.5t36 -101.5t73 -80t113 -30t113 30t73 80t36 101.5t11 106.5q0 61 -12.5 115t-38 101.5t-72.5 75.5t-110 28t-110 -28t-72.5 -75.5t-38 -101.5t-12.5 -115zM45 347
q0 75 16.5 140.5t50 120.5t93 87t138.5 32t138.5 -32t93 -87t50 -120.5t16.5 -140.5q0 -45 -7.5 -89.5t-28 -95t-52.5 -89t-86 -63.5t-124 -25t-124 25t-86 63.5t-52.5 89t-28 95t-7.5 89.5z" />
    <glyph glyph-name="glyph338" unicode="&#x1ed9;" 
d="M102 304q0 -129 46.5 -196.5t129.5 -67.5t129.5 67.5t46.5 196.5q0 101 -43.5 172t-132.5 71t-132.5 -71t-43.5 -172zM40 291q0 39 6 78t22 81.5t41.5 74.5t69 53t99.5 21t99.5 -21t69 -53t41.5 -74.5t22 -81.5t6 -78q0 -79 -23 -145t-78.5 -112t-136.5 -46t-136.5 46
t-78.5 112t-23 145zM274 711l-57 -76h-45l76 101h52l76 -101h-45zM239 -57h80v-84h-80v84z" />
    <glyph glyph-name="glyph339" unicode="&#x1eda;" horiz-adv-x="686" 
d="M537 653q104 -100 104 -306q0 -45 -7.5 -89.5t-28 -95t-52.5 -89t-86 -63.5t-124 -25t-124 25t-86 63.5t-52.5 89t-28 95t-7.5 89.5q0 75 16.5 140.5t50 120.5t93 87t138.5 32q104 0 174 -56q27 12 40.5 23.5t12.5 21.5q0 24 -8 30q-6 6 -20 8q-11 2 -7 28q6 21 28 14
q32 -9 48 -35.5t5 -63.5q-11 -30 -79 -44zM110 355q0 -55 11 -106.5t36 -101.5t73 -80t113 -30t113 30t73 80t36 101.5t11 106.5q0 61 -12.5 115t-38 101.5t-72.5 75.5t-110 28t-110 -28t-72.5 -75.5t-38 -101.5t-12.5 -115zM406 879h64l-114 -119h-43z" />
    <glyph glyph-name="glyph340" unicode="&#x1edb;" horiz-adv-x="557" 
d="M439 534v-2q77 -87 77 -241q0 -79 -23 -145t-78.5 -112t-136.5 -46t-136.5 46t-78.5 112t-23 145q0 39 6 78t22 81.5t41.5 74.5t69 53t99.5 21q88 0 143 -49q36 20 36 34q0 22 -7 26q-7 5 -18 7q-10 1 -6 25q5 20 25 12q30 -7 45.5 -30.5t2.5 -55.5q-17 -24 -60 -34z
M102 304q0 -129 46.5 -196.5t129.5 -67.5t129.5 67.5t46.5 196.5q0 101 -43.5 172t-132.5 71t-132.5 -71t-43.5 -172zM366 749h61l-108 -113h-41z" />
    <glyph glyph-name="glyph341" unicode="&#x1edc;" horiz-adv-x="686" 
d="M537 653q104 -100 104 -306q0 -45 -7.5 -89.5t-28 -95t-52.5 -89t-86 -63.5t-124 -25t-124 25t-86 63.5t-52.5 89t-28 95t-7.5 89.5q0 75 16.5 140.5t50 120.5t93 87t138.5 32q104 0 174 -56q27 12 40.5 23.5t12.5 21.5q0 24 -8 30q-6 6 -20 8q-11 2 -7 28q6 21 28 14
q32 -9 48 -35.5t5 -63.5q-11 -30 -79 -44zM110 355q0 -55 11 -106.5t36 -101.5t73 -80t113 -30t113 30t73 80t36 101.5t11 106.5q0 61 -12.5 115t-38 101.5t-72.5 75.5t-110 28t-110 -28t-72.5 -75.5t-38 -101.5t-12.5 -115zM222 880h64l93 -119h-43z" />
    <glyph glyph-name="glyph342" unicode="&#x1edd;" horiz-adv-x="557" 
d="M439 534v-2q77 -87 77 -241q0 -79 -23 -145t-78.5 -112t-136.5 -46t-136.5 46t-78.5 112t-23 145q0 39 6 78t22 81.5t41.5 74.5t69 53t99.5 21q88 0 143 -49q36 20 36 34q0 22 -7 26q-7 5 -18 7q-10 1 -6 25q5 20 25 12q30 -7 45.5 -30.5t2.5 -55.5q-17 -24 -60 -34z
M102 304q0 -129 46.5 -196.5t129.5 -67.5t129.5 67.5t46.5 196.5q0 101 -43.5 172t-132.5 71t-132.5 -71t-43.5 -172zM151 751h61l88 -113h-41z" />
    <glyph glyph-name="glyph343" unicode="&#x1ede;" horiz-adv-x="686" 
d="M537 653q104 -100 104 -306q0 -45 -7.5 -89.5t-28 -95t-52.5 -89t-86 -63.5t-124 -25t-124 25t-86 63.5t-52.5 89t-28 95t-7.5 89.5q0 75 16.5 140.5t50 120.5t93 87t138.5 32q104 0 174 -56q27 12 40.5 23.5t12.5 21.5q0 24 -8 30q-6 6 -20 8q-11 2 -7 28q6 21 28 14
q32 -9 48 -35.5t5 -63.5q-11 -30 -79 -44zM110 355q0 -55 11 -106.5t36 -101.5t73 -80t113 -30t113 30t73 80t36 101.5t11 106.5q0 61 -12.5 115t-38 101.5t-72.5 75.5t-110 28t-110 -28t-72.5 -75.5t-38 -101.5t-12.5 -115zM357 762h-28q1 31 29 53q29 23 23 52
q-5 15 -16 18q-23 6 -24 5q-17 2 -18 13q-2 21 22 27q36 5 61.5 -13t27.5 -52q-1 -39 -55 -71q-11 -9 -22 -32z" />
    <glyph glyph-name="glyph344" unicode="&#x1edf;" horiz-adv-x="557" 
d="M439 534v-2q77 -87 77 -241q0 -79 -23 -145t-78.5 -112t-136.5 -46t-136.5 46t-78.5 112t-23 145q0 39 6 78t22 81.5t41.5 74.5t69 53t99.5 21q88 0 143 -49q36 20 36 34q0 22 -7 26q-7 5 -18 7q-10 1 -6 25q5 20 25 12q30 -7 45.5 -30.5t2.5 -55.5q-17 -24 -60 -34z
M102 304q0 -129 46.5 -196.5t129.5 -67.5t129.5 67.5t46.5 196.5q0 101 -43.5 172t-132.5 71t-132.5 -71t-43.5 -172zM297 652h-26q1 28 27 48q25 21 21 49q-11 21 -37 21q-16 2 -17 12q-1 20 21 24q33 5 56.5 -11.5t24.5 -47.5q-2 -38 -50 -66q-12 -12 -20 -29z" />
    <glyph glyph-name="glyph345" unicode="&#x1ee0;" horiz-adv-x="686" 
d="M537 653q104 -100 104 -306q0 -45 -7.5 -89.5t-28 -95t-52.5 -89t-86 -63.5t-124 -25t-124 25t-86 63.5t-52.5 89t-28 95t-7.5 89.5q0 75 16.5 140.5t50 120.5t93 87t138.5 32q104 0 174 -56q27 12 40.5 23.5t12.5 21.5q0 24 -8 30q-6 6 -20 8q-11 2 -7 28q6 21 28 14
q32 -9 48 -35.5t5 -63.5q-11 -30 -79 -44zM110 355q0 -55 11 -106.5t36 -101.5t73 -80t113 -30t113 30t73 80t36 101.5t11 106.5q0 61 -12.5 115t-38 101.5t-72.5 75.5t-110 28t-110 -28t-72.5 -75.5t-38 -101.5t-12.5 -115zM447 838h32q-17 -78 -68 -78q-23 0 -63 19
q-34 16 -55 16q-30 0 -34 -39h-32q6 39 25.5 59t48.5 20q24 0 59 -19q38 -17 51 -17q15 0 24 11.5t12 27.5z" />
    <glyph glyph-name="glyph346" unicode="&#x1ee1;" horiz-adv-x="557" 
d="M439 534v-2q77 -87 77 -241q0 -79 -23 -145t-78.5 -112t-136.5 -46t-136.5 46t-78.5 112t-23 145q0 39 6 78t22 81.5t41.5 74.5t69 53t99.5 21q88 0 143 -49q36 20 36 34q0 22 -7 26q-7 5 -18 7q-10 1 -6 25q5 20 25 12q30 -7 45.5 -30.5t2.5 -55.5q-17 -24 -60 -34z
M102 304q0 -129 46.5 -196.5t129.5 -67.5t129.5 67.5t46.5 196.5q0 101 -43.5 172t-132.5 71t-132.5 -71t-43.5 -172zM373 705h30q-18 -72 -63 -72q-18 0 -58 17q-27 15 -50 15q-28 0 -31 -36h-30q5 36 23 54.5t45 18.5q23 0 54 -18q36 -15 47 -15q27 0 33 36z" />
    <glyph glyph-name="glyph347" unicode="&#x1ee2;" horiz-adv-x="686" 
d="M537 653q104 -100 104 -306q0 -45 -7.5 -89.5t-28 -95t-52.5 -89t-86 -63.5t-124 -25t-124 25t-86 63.5t-52.5 89t-28 95t-7.5 89.5q0 75 16.5 140.5t50 120.5t93 87t138.5 32q104 0 174 -56q27 12 40.5 23.5t12.5 21.5q0 24 -8 30q-6 6 -20 8q-11 2 -7 28q6 21 28 14
q32 -9 48 -35.5t5 -63.5q-11 -30 -79 -44zM110 355q0 -55 11 -106.5t36 -101.5t73 -80t113 -30t113 30t73 80t36 101.5t11 106.5q0 61 -12.5 115t-38 101.5t-72.5 75.5t-110 28t-110 -28t-72.5 -75.5t-38 -101.5t-12.5 -115zM287 -45h84v-88h-84v88z" />
    <glyph glyph-name="glyph348" unicode="&#x1ee3;" horiz-adv-x="557" 
d="M439 534v-2q77 -87 77 -241q0 -79 -23 -145t-78.5 -112t-136.5 -46t-136.5 46t-78.5 112t-23 145q0 39 6 78t22 81.5t41.5 74.5t69 53t99.5 21q88 0 143 -49q36 20 36 34q0 22 -7 26q-7 5 -18 7q-10 1 -6 25q5 20 25 12q30 -7 45.5 -30.5t2.5 -55.5q-17 -24 -60 -34z
M102 304q0 -129 46.5 -196.5t129.5 -67.5t129.5 67.5t46.5 196.5q0 101 -43.5 172t-132.5 71t-132.5 -71t-43.5 -172zM236 -47h80v-84h-80v84z" />
    <glyph glyph-name="glyph349" unicode="&#x1ee4;" horiz-adv-x="648" 
d="M76 712h62v-434q0 -107 45 -174t141 -67t141 67t45 174v434h62v-446q0 -81 -23 -139t-61.5 -87.5t-78.5 -42t-85 -12.5t-85 12.5t-78.5 42t-61.5 87.5t-23 139v446zM277 -45h84v-88h-84v88z" />
    <glyph glyph-name="glyph350" unicode="&#x1ee5;" 
d="M481 587v-587h-58v101q-37 -37 -58.5 -56t-61.5 -38t-81 -19q-14 0 -29 2.5t-37.5 12t-39.5 24.5t-29 44.5t-12 68.5v447h58v-435q-2 -108 101 -108q39 0 76.5 19.5t57.5 38.5t55 58v427h58zM233 -47h80v-84h-80v84z" />
    <glyph glyph-name="glyph351" unicode="&#x1ee6;" horiz-adv-x="648" 
d="M76 712h62v-434q0 -107 45 -174t141 -67t141 67t45 174v434h62v-446q0 -81 -23 -139t-61.5 -87.5t-78.5 -42t-85 -12.5t-85 12.5t-78.5 42t-61.5 87.5t-23 139v446zM337 762h-28q1 31 29 53q29 23 23 52q-5 15 -16 18q-23 6 -24 5q-17 2 -18 13q-2 21 22 27
q36 5 61.5 -13t27.5 -52q-1 -39 -55 -71q-11 -9 -22 -32z" />
    <glyph glyph-name="glyph352" unicode="&#x1ee7;" 
d="M481 587v-587h-58v101q-37 -37 -58.5 -56t-61.5 -38t-81 -19q-14 0 -29 2.5t-37.5 12t-39.5 24.5t-29 44.5t-12 68.5v447h58v-435q-2 -108 101 -108q39 0 76.5 19.5t57.5 38.5t55 58v427h58zM297 652h-26q1 28 27 48q25 21 21 49q-11 21 -37 21q-16 2 -17 12q-1 20 21 24
q33 5 56.5 -11.5t24.5 -47.5q-2 -38 -50 -66q-12 -12 -20 -29z" />
    <glyph glyph-name="glyph353" unicode="&#x1ee8;" horiz-adv-x="648" 
d="M572 683v-417q0 -81 -23 -139t-61.5 -87.5t-78.5 -42t-85 -12.5t-85 12.5t-78.5 42t-61.5 87.5t-23 139v446h62v-434q0 -107 45 -174t141 -67t141 67t45 174v434l54 -6q23 16 28 30q2 22 -5 27t-19 10q-11 5 -2 31q9 17 30 8q33 -15 42.5 -41.5t-10.5 -53.5
q-13 -17 -56 -34zM366 879h64l-114 -119h-43z" />
    <glyph glyph-name="glyph354" unicode="&#x1ee9;" 
d="M481 559v-559h-58v101q-37 -37 -58.5 -56t-61.5 -38t-81 -19q-14 0 -29 2.5t-37.5 12t-39.5 24.5t-29 44.5t-12 68.5v447h58v-435q-2 -108 101 -108q39 0 76.5 19.5t57.5 38.5t55 58v427l49 -7q27 20 29 29q2 21 -5 25q-5 5 -17 10q-11 5 -2 29q8 11 28 8q29 -12 38 -40
t-7 -49q-12 -15 -55 -33zM366 749h61l-108 -113h-41z" />
    <glyph glyph-name="glyph355" unicode="&#x1eea;" horiz-adv-x="648" 
d="M572 683v-417q0 -81 -23 -139t-61.5 -87.5t-78.5 -42t-85 -12.5t-85 12.5t-78.5 42t-61.5 87.5t-23 139v446h62v-434q0 -107 45 -174t141 -67t141 67t45 174v434l54 -6q23 16 28 30q2 22 -5 27t-19 10q-11 5 -2 31q9 17 30 8q33 -15 42.5 -41.5t-10.5 -53.5
q-13 -17 -56 -34zM212 880h64l93 -119h-43z" />
    <glyph glyph-name="glyph356" unicode="&#x1eeb;" 
d="M481 559v-559h-58v101q-37 -37 -58.5 -56t-61.5 -38t-81 -19q-14 0 -29 2.5t-37.5 12t-39.5 24.5t-29 44.5t-12 68.5v447h58v-435q-2 -108 101 -108q39 0 76.5 19.5t57.5 38.5t55 58v427l49 -7q27 20 29 29q2 21 -5 25q-5 5 -17 10q-11 5 -2 29q8 11 28 8q29 -12 38 -40
t-7 -49q-12 -15 -55 -33zM151 751h61l88 -113h-41z" />
    <glyph glyph-name="glyph357" unicode="&#x1eec;" horiz-adv-x="648" 
d="M572 683v-417q0 -81 -23 -139t-61.5 -87.5t-78.5 -42t-85 -12.5t-85 12.5t-78.5 42t-61.5 87.5t-23 139v446h62v-434q0 -107 45 -174t141 -67t141 67t45 174v434l54 -6q23 16 28 30q2 22 -5 27t-19 10q-11 5 -2 31q9 17 30 8q33 -15 42.5 -41.5t-10.5 -53.5
q-13 -17 -56 -34zM337 762h-28q1 31 29 53q29 23 23 52q-5 15 -16 18q-23 6 -24 5q-17 2 -18 13q-2 21 22 27q36 5 61.5 -13t27.5 -52q-1 -39 -55 -71q-11 -9 -22 -32z" />
    <glyph glyph-name="glyph358" unicode="&#x1eed;" 
d="M481 559v-559h-58v101q-37 -37 -58.5 -56t-61.5 -38t-81 -19q-14 0 -29 2.5t-37.5 12t-39.5 24.5t-29 44.5t-12 68.5v447h58v-435q-2 -108 101 -108q39 0 76.5 19.5t57.5 38.5t55 58v427l49 -7q27 20 29 29q2 21 -5 25q-5 5 -17 10q-11 5 -2 29q8 11 28 8q29 -12 38 -40
t-7 -49q-12 -15 -55 -33zM297 652h-26q1 28 27 48q25 21 21 49q-5 12 -13.5 16.5t-15.5 4.5h-8q-16 2 -17 12q-1 20 21 24q33 5 56.5 -11.5t24.5 -47.5q-2 -38 -50 -66q-12 -12 -20 -29z" />
    <glyph glyph-name="glyph359" unicode="&#x1eee;" horiz-adv-x="648" 
d="M572 683v-417q0 -81 -23 -139t-61.5 -87.5t-78.5 -42t-85 -12.5t-85 12.5t-78.5 42t-61.5 87.5t-23 139v446h62v-434q0 -107 45 -174t141 -67t141 67t45 174v434l54 -6q23 16 28 30q2 22 -5 27t-19 10q-11 5 -2 31q9 17 30 8q33 -15 42.5 -41.5t-10.5 -53.5
q-13 -17 -56 -34zM447 838h32q-17 -78 -68 -78q-23 0 -63 19q-34 16 -55 16q-30 0 -34 -39h-32q6 39 25.5 59t48.5 20q24 0 59 -19q38 -17 51 -17q15 0 24 11.5t12 27.5z" />
    <glyph glyph-name="glyph360" unicode="&#x1eef;" 
d="M481 559v-559h-58v101q-37 -37 -58.5 -56t-61.5 -38t-81 -19q-14 0 -29 2.5t-37.5 12t-39.5 24.5t-29 44.5t-12 68.5v447h58v-435q-2 -108 101 -108q39 0 76.5 19.5t57.5 38.5t55 58v427l49 -7q27 20 29 29q2 21 -5 25q-5 5 -17 10q-11 5 -2 29q8 11 28 8q29 -12 38 -40
t-7 -49q-12 -15 -55 -33zM373 705h30q-18 -72 -63 -72q-18 0 -58 17q-27 15 -50 15q-28 0 -31 -36h-30q5 36 23 54.5t45 18.5q23 0 54 -18q36 -15 47 -15q27 0 33 36z" />
    <glyph glyph-name="glyph361" unicode="&#x1ef0;" horiz-adv-x="648" 
d="M572 683v-417q0 -81 -23 -139t-61.5 -87.5t-78.5 -42t-85 -12.5t-85 12.5t-78.5 42t-61.5 87.5t-23 139v446h62v-434q0 -107 45 -174t141 -67t141 67t45 174v434l54 -6q23 16 28 30q2 22 -5 27t-19 10q-11 5 -2 31q9 17 30 8q33 -15 42.5 -41.5t-10.5 -53.5
q-13 -17 -56 -34zM287 -45h84v-88h-84v88z" />
    <glyph glyph-name="glyph362" unicode="&#x1ef1;" 
d="M481 559v-559h-58v101q-37 -37 -58.5 -56t-61.5 -38t-81 -19q-14 0 -29 2.5t-37.5 12t-39.5 24.5t-29 44.5t-12 68.5v447h58v-435q-2 -108 101 -108q39 0 76.5 19.5t57.5 38.5t55 58v427l49 -7q27 20 29 29q2 21 -5 25q-5 5 -17 10q-11 5 -2 29q8 11 28 8q29 -12 38 -40
t-7 -49q-12 -15 -55 -33zM233 -47h80v-84h-80v84z" />
    <glyph glyph-name="glyph363" unicode="&#x1ef2;" horiz-adv-x="574" 
d="M255 0v299l-249 413h76l178 -306q14 -24 28 -53q15 29 28 53l182 306h70l-251 -413v-299h-62zM162 880h64l93 -119h-43z" />
    <glyph glyph-name="glyph364" unicode="&#x1ef3;" horiz-adv-x="481" 
d="M-1 587h67l177 -511h2l174 511h63l-240 -680q-22 -62 -51 -85.5t-68 -23.5q-23 0 -51 7l3 55q30 -6 36 -6q50 0 69 54l32 89zM151 751h61l88 -113h-41z" />
    <glyph glyph-name="glyph365" unicode="&#x1ef4;" horiz-adv-x="574" 
d="M255 0v299l-249 413h76l178 -306q14 -24 28 -53q15 29 28 53l182 306h70l-251 -413v-299h-62zM241 -45h84v-88h-84v88z" />
    <glyph glyph-name="glyph366" unicode="&#x1ef5;" horiz-adv-x="481" 
d="M-1 587h67l177 -511h2l174 511h63l-240 -680q-22 -62 -51 -85.5t-68 -23.5q-23 0 -51 7l3 55q30 -6 36 -6q50 0 69 54l32 89zM289 -97h80v-84h-80v84z" />
    <glyph glyph-name="glyph367" unicode="&#x1ef6;" horiz-adv-x="574" 
d="M255 0v299l-249 413h76l178 -306q14 -24 28 -53q15 29 28 53l182 306h70l-251 -413v-299h-62zM307 762h-28q1 31 29 53q29 23 23 52q-5 15 -16 18q-23 6 -24 5q-17 2 -18 13q-2 21 22 27q36 5 61.5 -13t27.5 -52q-1 -39 -55 -71q-11 -9 -22 -32z" />
    <glyph glyph-name="glyph368" unicode="&#x1ef7;" horiz-adv-x="481" 
d="M-1 587h67l177 -511h2l174 511h63l-240 -680q-22 -62 -51 -85.5t-68 -23.5q-23 0 -51 7l3 55q30 -6 36 -6q50 0 69 54l32 89zM277 642h-26q1 28 27 48q25 21 21 49q-11 21 -37 21q-16 2 -17 12q-1 20 21 24q33 5 56.5 -11.5t24.5 -47.5q-2 -38 -50 -66q-12 -12 -20 -29z
" />
    <glyph glyph-name="glyph369" unicode="&#x1ef8;" horiz-adv-x="574" 
d="M255 0v299l-249 413h76l178 -306q14 -24 28 -53q15 29 28 53l182 306h70l-251 -413v-299h-62zM417 838h32q-17 -78 -68 -78q-23 0 -63 19q-34 16 -55 16q-30 0 -34 -39h-32q6 39 25.5 59t48.5 20q24 0 59 -19q38 -17 51 -17q15 0 24 11.5t12 27.5z" />
    <glyph glyph-name="glyph370" unicode="&#x1ef9;" horiz-adv-x="481" 
d="M-1 587h67l177 -511h2l174 511h63l-240 -680q-22 -62 -51 -85.5t-68 -23.5q-23 0 -51 7l3 55q30 -6 36 -6q50 0 69 54l32 89zM353 705h30q-18 -72 -63 -72q-18 0 -58 17q-27 15 -50 15q-28 0 -31 -36h-30q5 36 23 54.5t45 18.5q23 0 54 -18q36 -15 47 -15q27 0 33 36z
" />
    <glyph glyph-name="endash" unicode="&#x2013;" horiz-adv-x="500" 
d="M0 270v52h500v-52h-500z" />
    <glyph glyph-name="emdash" unicode="&#x2014;" horiz-adv-x="1000" 
d="M0 270v52h1000v-52h-1000z" />
    <glyph glyph-name="quoteleft" unicode="&#x2018;" horiz-adv-x="260" 
d="M60 551l79 226h61l-61 -226h-79z" />
    <glyph glyph-name="quoteright" unicode="&#x2019;" horiz-adv-x="260" 
d="M200 777l-79 -226h-61l61 226h79z" />
    <glyph glyph-name="quotesinglbase" unicode="&#x201a;" horiz-adv-x="260" 
d="M200 88l-79 -226h-61l61 226h79z" />
    <glyph glyph-name="quotedblleft" unicode="&#x201c;" horiz-adv-x="408" 
d="M219 551l81 226h52l-58 -226h-75zM56 551l81 226h52l-58 -226h-75z" />
    <glyph glyph-name="quotedblright" unicode="&#x201d;" horiz-adv-x="408" 
d="M189 777l-81 -226h-52l58 226h75zM352 777l-81 -226h-52l58 226h75z" />
    <glyph glyph-name="quotedblbase" unicode="&#x201e;" horiz-adv-x="408" 
d="M189 88l-81 -226h-52l58 226h75zM352 88l-81 -226h-52l58 226h75z" />
    <glyph glyph-name="dagger" unicode="&#x2020;" horiz-adv-x="520" 
d="M229 -124v576h-203v52h203v208h62v-208h203v-52h-203v-576h-62z" />
    <glyph glyph-name="daggerdbl" unicode="&#x2021;" horiz-adv-x="520" 
d="M291 125h195v-52h-195v-197h-62v197h-195v52h195v335h-195v52h195v200h62v-200h195v-52h-195v-335z" />
    <glyph glyph-name="bullet" unicode="&#x2022;" horiz-adv-x="500" 
d="M72 356q0 74 52 126t126 52t126 -52t52 -126t-52 -126t-126 -52t-126 52t-52 126z" />
    <glyph glyph-name="ellipsis" unicode="&#x2026;" horiz-adv-x="1000" 
d="M125 0v88h84v-88h-84zM458 0v88h84v-88h-84zM791 0v88h84v-88h-84z" />
    <glyph glyph-name="perthousand" unicode="&#x2030;" horiz-adv-x="1074" 
d="M184 347q-72 0 -113 56.5t-41 138.5q0 81 41.5 133t112.5 52t112.5 -52t41.5 -133q0 -82 -41 -138.5t-113 -56.5zM184 395q47 0 69.5 40.5t22.5 97.5q0 65 -24 105.5t-68 40.5t-68 -40.5t-24 -105.5q0 -57 22.5 -97.5t69.5 -40.5zM537 -12q-72 0 -113 56.5t-41 138.5
q0 81 41.5 133t112.5 52t112.5 -52t41.5 -133q0 -82 -41 -138.5t-113 -56.5zM537 36q47 0 69.5 40.5t22.5 97.5q0 65 -24 105.5t-68 40.5t-68 -40.5t-24 -105.5q0 -57 22.5 -97.5t69.5 -40.5zM890 -12q-72 0 -113 56.5t-41 138.5q0 81 41.5 133t112.5 52t112.5 -52
t41.5 -133q0 -82 -41 -138.5t-113 -56.5zM890 36q47 0 69.5 40.5t22.5 97.5q0 65 -24 105.5t-68 40.5t-68 -40.5t-24 -105.5q0 -57 22.5 -97.5t69.5 -40.5zM525 737h54l-389 -759h-54z" />
    <glyph glyph-name="guilsinglleft" unicode="&#x2039;" horiz-adv-x="259" 
d="M36 296l146 216l41 -27l-118 -189l118 -189l-41 -27z" />
    <glyph glyph-name="guilsinglright" unicode="&#x203a;" horiz-adv-x="259" 
d="M77 512l146 -216l-146 -216l-41 27l118 189l-118 189z" />
    <glyph glyph-name="fraction" unicode="&#x2044;" horiz-adv-x="167" 
d="M331 705l-444 -719h-51l444 719h51z" />
    <glyph glyph-name="franc" unicode="&#x20a3;" horiz-adv-x="1035" 
d="M76 0v712h402v-52h-340v-273h321v-52h-321v-335h-62zM734 0v587h58v-107q58 65 93.5 88t101.5 23v-62q-71 -4 -107 -25.5t-88 -89.5v-414h-58z" />
    <glyph glyph-name="u20AB" unicode="&#x20ab;" horiz-adv-x="393" 
d="M197 501q-48 0 -84 -88q-20 -51 -20 -90q0 -51 39 -51q41 0 74 71q28 59 28 107q0 51 -37 51zM200 267q-53 -62 -106 -62q-44 0 -67.5 28t-23.5 74q0 79 55 152q60 79 136 79q34 0 61 -24l20 75h-100l10 36h100l2 16q0 31 -48 32l7 33q60 1 128 14q12 3 15 3q6 0 6 -9
q-1 -3 -3 -12l-19 -77h65l-10 -36h-65l-69 -280q-5 -25 -5 -27q0 -15 12 -15q6 0 49 42l20 -18q-71 -86 -117 -86q-42 0 -53 62zM9 104v56h221v-56h-221z" />
    <glyph glyph-name="Euro" unicode="&#x20ac;" horiz-adv-x="520" 
d="M260 -12q-236 0 -236 368q0 371 236 371t236 -371q0 -368 -236 -368zM260 40q171 0 171 316q0 319 -171 319t-171 -319q0 -316 171 -316zM7 324v52h506v-52h-506zM7 130v52h506v-52h-506z" />
    <glyph glyph-name="trademark" unicode="&#x2122;" horiz-adv-x="1000" 
d="M181 300v368h-134v44h320v-44h-134v-368h-52zM439 300v412h88l130 -325l130 325h88v-412h-52v368h-2l-149 -368h-30l-149 368h-2v-368h-52z" />
    <glyph glyph-name="partialdiff" unicode="&#x2202;" horiz-adv-x="1000" 
 />
    <glyph glyph-name="product" unicode="&#x220f;" horiz-adv-x="1000" 
 />
    <glyph glyph-name="summation" unicode="&#x2211;" horiz-adv-x="1000" 
 />
    <glyph glyph-name="minus" unicode="&#x2212;" horiz-adv-x="660" 
d="M580 220h-500v60h500v-60z" />
    <glyph glyph-name="radical" unicode="&#x221a;" horiz-adv-x="1000" 
 />
    <glyph glyph-name="infinity" unicode="&#x221e;" horiz-adv-x="1000" 
 />
    <glyph glyph-name="integral" unicode="&#x222b;" horiz-adv-x="1000" 
 />
    <glyph glyph-name="approxequal" unicode="&#x2248;" horiz-adv-x="1000" 
 />
    <glyph glyph-name="approxequal" unicode="&#x22f2;" horiz-adv-x="1000" 
 />
    <glyph glyph-name="notequal" unicode="&#x2260;" horiz-adv-x="1000" 
 />
    <glyph glyph-name="lessequal" unicode="&#x2264;" horiz-adv-x="1000" 
 />
    <glyph glyph-name="greaterequal" unicode="&#x2265;" horiz-adv-x="1000" 
 />
    <glyph glyph-name="SF370000" unicode="&#x255f;" horiz-adv-x="718" 
d="M1 0l285 712h80l281 -712h-71l-77 203h-352l-79 -203h-67zM169 255h309l-126 325q-15 35 -27 74h-2q-10 -31 -28 -76z" />
    <glyph glyph-name="SF420000" unicode="&#x2560;" horiz-adv-x="681" 
d="M76 0v712h408v-52h-346v-262h329v-52h-329v-294h355v-52h-417z" />
    <glyph glyph-name="SF190000" unicode="&#x2561;" horiz-adv-x="429" 
d="M80 0v712h62v-712h-62z" />
    <glyph glyph-name="SF200000" unicode="&#x2562;" horiz-adv-x="773" 
d="M110 355q0 -55 11 -106.5t36 -101.5t73 -80t113 -30t113 30t73 80t36 101.5t11 106.5q0 61 -12.5 115t-38 101.5t-72.5 75.5t-110 28t-110 -28t-72.5 -75.5t-38 -101.5t-12.5 -115zM45 347q0 75 16.5 140.5t50 120.5t93 87t138.5 32t138.5 -32t93 -87t50 -120.5
t16.5 -140.5q0 -45 -7.5 -89.5t-28 -95t-52.5 -89t-86 -63.5t-124 -25t-124 25t-86 63.5t-52.5 89t-28 95t-7.5 89.5z" />
    <glyph glyph-name="SF230000" unicode="&#x2563;" horiz-adv-x="811" 
d="M76 712h62v-434q0 -107 45 -174t141 -67t141 67t45 174v434h62v-446q0 -81 -23 -139t-61.5 -87.5t-78.5 -42t-85 -12.5t-85 12.5t-78.5 42t-61.5 87.5t-23 139v446z" />
    <glyph glyph-name="SF470000" unicode="&#x2564;" horiz-adv-x="699" 
d="M255 0v299l-249 413h76l178 -306q14 -24 28 -53q15 29 28 53l182 306h70l-251 -413v-299h-62z" />
    <glyph glyph-name="SF480000" unicode="&#x2565;" horiz-adv-x="541" 
d="M116 436l-52 17q51 146 200 146q54 0 92 -17t58 -47.5t28.5 -64t8.5 -73.5v-253q0 -31 2 -87t2 -57h-58l-4 94q-30 -33 -52 -52.5t-60 -36.5t-81 -17q-76 0 -120 46t-44 118q0 44 12.5 77.5t36.5 55t51.5 35.5t66.5 21t72.5 9.5t76.5 2.5h41q-1 30 -1.5 44.5t-3.5 39.5
t-8.5 37t-15 29t-23.5 24.5t-35.5 13.5t-48.5 6q-32 0 -56.5 -9.5t-41 -29t-24.5 -34t-19 -38.5zM393 153v152h-39q-61 0 -103 -5t-79 -20t-55.5 -45t-18.5 -76q0 -61 33 -88t79 -27q34 0 66 15.5t51 32t66 61.5z" />
    <glyph glyph-name="SF410000" unicode="&#x2566;" horiz-adv-x="431" 
d="M490 282h-388q0 -31 3.5 -60.5t15 -63.5t29.5 -59t49.5 -42t72.5 -17q37 0 65.5 10.5t46.5 30t27.5 35t18.5 36.5l51 -20q-35 -82 -88 -113t-120 -31q-70 0 -119 30t-72.5 81t-32.5 100t-9 106q0 130 66 212t170 82q45 0 82 -16t61 -43.5t40.5 -64.5t23.5 -77.5t7 -85.5
v-30zM102 330h326q-3 106 -44.5 161.5t-112.5 55.5q-68 0 -117.5 -57.5t-51.5 -159.5z" />
    <glyph glyph-name="SF450000" unicode="&#x2567;" horiz-adv-x="314" 
d="M82 587h58v-587h-58v587zM145 777v-77h-68v77h68z" />
    <glyph glyph-name="SF460000" unicode="&#x2568;" horiz-adv-x="314" 
d="M138 518v-518h-60v518h60z" />
    <glyph glyph-name="SF400000" unicode="&#x2569;" horiz-adv-x="498" 
d="M102 304q0 -129 46.5 -196.5t129.5 -67.5t129.5 67.5t46.5 196.5q0 101 -43.5 172t-132.5 71t-132.5 -71t-43.5 -172zM40 291q0 39 6 78t22 81.5t41.5 74.5t69 53t99.5 21t99.5 -21t69 -53t41.5 -74.5t22 -81.5t6 -78q0 -79 -23 -145t-78.5 -112t-136.5 -46t-136.5 46
t-78.5 112t-23 145z" />
    <glyph glyph-name="SF540000" unicode="&#x256a;" horiz-adv-x="557" 
d="M481 587v-587h-58v101q-37 -37 -58.5 -56t-61.5 -38t-81 -19q-14 0 -29 2.5t-37.5 12t-39.5 24.5t-29 44.5t-12 68.5v447h58v-435q-2 -108 101 -108q39 0 76.5 19.5t57.5 38.5t55 58v427h58z" />
    <glyph glyph-name="SF530000" unicode="&#x256b;" horiz-adv-x="497" 
d="M-1 587h67l177 -511h2l174 511h63l-240 -680q-22 -62 -51 -85.5t-68 -23.5q-23 0 -51 7l3 55q30 -6 36 -6q50 0 69 54l32 89z" />
    <glyph glyph-name="lozenge" unicode="&#x25ca;" horiz-adv-x="1000" 
 />
    <glyph glyph-name="circle" unicode="&#x25cb;" horiz-adv-x="718" 
d="M339 997l-79 -105h-62l106 141h70l106 -141h-62zM343 1221h76l-134 -141h-51z" />
    <glyph glyph-name="H18533" unicode="&#x25cf;" horiz-adv-x="718" 
d="M339 997l-79 -105h-62l106 141h70l106 -141h-62zM316 1222h76l109 -141h-51z" />
    <glyph glyph-name="invbullet" unicode="&#x25d8;" horiz-adv-x="718" 
d="M339 997l-79 -105h-62l106 141h70l106 -141h-62zM647 903h-33q10 32 11 64q2 12 8 13q4 0 8 1q67 10 67 54q0 35 -28 35q-4 0 -15 -1t-13 -1q-21 0 -21 18q0 28 32 28q47 0 76.5 -26.5t25.5 -69.5q-6 -58 -87 -81q-25 -7 -31 -34z" />
    <glyph glyph-name="invcircle" unicode="&#x25d9;" horiz-adv-x="718" 
d="M339 997l-79 -105h-62l106 141h70l106 -141h-62zM504 1193h39q0 -1 -2.5 -9.5t-3.5 -11.5l-4 -12t-5.5 -13.5t-6.5 -12.5t-8 -12l-10 -10t-12.5 -9t-15 -5t-17.5 -2q-30 0 -78 23q-40 21 -69 21q-37 0 -43 -49h-39q7 49 31.5 74t60.5 25q24 0 74 -24q46 -22 63 -22
q19 0 31 14.5t15 34.5z" />
    <glyph glyph-name="apple" unicode="&#xf000;" horiz-adv-x="1000" 
 />
    <glyph glyph-name="fi" unicode="&#xf001;" horiz-adv-x="500" 
d="M92 0v468h-79v50h79v82q0 134 110 134q31 0 50 -4v-55q-22 5 -36 5q-42 0 -55 -31q-9 -19 -9 -67v-64h98v-50h-98v-468h-60zM432 518v-518h-60v518h60zM369 720h66v-89h-66v89z" />
    <glyph glyph-name="fl" unicode="&#xf002;" horiz-adv-x="500" 
d="M92 0v468h-79v50h79v82q0 134 110 134q31 0 50 -4v-55q-22 5 -36 5q-42 0 -55 -31q-9 -19 -9 -67v-64h98v-50h-98v-468h-60zM432 720v-720h-60v720h60z" />
    <glyph glyph-name="NULL" horiz-adv-x="260" 
 />
    <glyph glyph-name="CR.001" horiz-adv-x="222" 
d="M82 0v587h58v-587h-58z" />
    <glyph glyph-name="percent.001" horiz-adv-x="833" 
 />
    <glyph glyph-name="middot" horiz-adv-x="463" 
d="M10 242v52l70 46v372h62v-330l212 139v-55l-212 -138v-276h316v-52h-378v287z" />
    <glyph glyph-name="HT" horiz-adv-x="222" 
d="M82 0v333l-80 -57v50l80 57v394h58v-353l80 57v-50l-80 -57v-374h-58z" />
    <glyph glyph-name="LF" horiz-adv-x="222" 
d="M32 801l79 -105l79 105h62l-106 -141h-70l-106 141h62z" />
    <glyph glyph-name="CR" horiz-adv-x="222" 
d="M215 794h39q-11 -69 -46.5 -98.5t-96.5 -29.5t-96.5 29.5t-46.5 98.5h39q9 -42 38.5 -61t65.5 -19t65.5 19t38.5 61z" />
    <glyph glyph-name="DLE" horiz-adv-x="222" 
d="M75 701v76h72v-76h-72z" />
    <glyph glyph-name="DC1" horiz-adv-x="222" 
d="M18 733q0 38 27.5 65.5t65.5 27.5t65.5 -27.5t27.5 -65.5t-27.5 -65.5t-65.5 -27.5t-65.5 27.5t-27.5 65.5zM58 733q0 -22 15.5 -37.5t37.5 -15.5t37.5 15.5t15.5 37.5t-15.5 37.5t-37.5 15.5t-37.5 -15.5t-15.5 -37.5z" />
    <glyph glyph-name="DC2" horiz-adv-x="222" 
d="M126 -16l48 41h44q-96 -79 -96 -123q0 -23 16 -39t41 -16q10 0 33.5 5t37.5 15v-36q-16 -10 -45.5 -16.5t-42.5 -6.5q-5 0 -11.5 0.5t-21.5 5.5t-26.5 13t-20.5 25t-9 41q0 46 53 91z" />
    <glyph glyph-name="DC3" horiz-adv-x="222" 
d="M-40 660l108 141h67l-125 -141h-50zM107 660l114 141h71l-133 -141h-52z" />
    <glyph glyph-name="DC4" horiz-adv-x="168" 
d="M-83 -22h-54l388 759h54z" />
    <glyph glyph-name="RS" horiz-adv-x="600" 
d="M47 227v52h506v-52h-506z" />
    <glyph glyph-name="US" horiz-adv-x="500" 
d="M289 775v-56q-30 10 -47 10q-29 0 -47 -10.5t-26 -30.5t-10.5 -38.5t-2.5 -46.5v-61h106v-52h-106v-490h-58v490h-88v52h88v93q0 76 37.5 111t94.5 35q36 0 59 -6zM360 587h58v-587h-58v587zM423 777v-77h-68v77h68z" />
    <glyph glyph-name="DEL" horiz-adv-x="500" 
d="M98 0v490h-88v52h88v93q0 76 37.5 111t94.5 35q36 0 59 -6v-56q-30 10 -47 10q-29 0 -47 -10.5t-26 -30.5t-10.5 -38.5t-2.5 -46.5v-61h106v-52h-106v-490h-58zM360 0v777h58v-777h-58z" />
    <glyph glyph-name="glyph275" horiz-adv-x="249" 
 />
    <glyph glyph-name="glyph276" horiz-adv-x="249" 
 />
    <glyph glyph-name="glyph261" horiz-adv-x="500" 
d="M286 522h-33q10 32 11 64q2 12 8 13q4 0 8 1q67 10 67 54q0 35 -28 35q-4 0 -15 -1t-13 -1q-21 0 -21 18q0 28 32 28q47 0 76.5 -26.5t25.5 -69.5q-6 -59 -87 -81q-25 -7 -31 -34z" />
    <glyph glyph-name="glyph262" horiz-adv-x="541" 
d="M136 765l-79 -105h-62l106 141h70l106 -141h-62zM141 990h76l-134 -141h-51z" />
    <glyph glyph-name="glyph263" horiz-adv-x="541" 
d="M136 765l-79 -105h-62l106 141h70l106 -141h-62zM113 990h76l109 -141h-51z" />
    <glyph glyph-name="glyph264" horiz-adv-x="541" 
d="M136 765l-79 -105h-62l106 141h70l106 -141h-62zM444 671h-33q10 32 11 64q2 12 8 13q4 0 8 1q67 10 67 54q0 35 -28 35q-4 0 -15 -1t-13 -1q-21 0 -21 18q0 28 32 28q47 0 76.5 -26.5t25.5 -69.5q-6 -58 -87 -81q-25 -7 -31 -34z" />
    <glyph glyph-name="glyph265" horiz-adv-x="541" 
d="M136 765l-79 -105h-62l106 141h70l106 -141h-62zM301 961h39q0 -1 -2.5 -9.5t-3.5 -11.5l-4 -12t-5.5 -13.5t-6.5 -12.5t-8 -12l-10 -10t-12.5 -9t-15 -5t-17.5 -2q-30 0 -78 23q-40 21 -69 21q-37 0 -43 -49h-39q7 49 31.5 74t60.5 25q24 0 74 -24q46 -22 63 -22
q19 0 31 14.5t15 34.5z" />
    <glyph glyph-name="glyph266" horiz-adv-x="541" 
d="M58 706h39q17 -81 105 -81t107 81h37q-14 -126 -149 -126q-60 0 -97.5 33.5t-41.5 92.5zM218 990h76l-134 -141h-51z" />
    <glyph glyph-name="glyph267" horiz-adv-x="541" 
d="M58 706h39q17 -81 105 -81t107 81h37q-14 -126 -149 -126q-60 0 -97.5 33.5t-41.5 92.5zM60 990h76l109 -141h-51z" />
    <glyph glyph-name="glyph268" horiz-adv-x="541" 
d="M58 706h39q17 -81 105 -81t107 81h37q-14 -126 -149 -126q-60 0 -97.5 33.5t-41.5 92.5zM339 671h-33q10 32 11 64q2 12 8 13q4 0 8 1q67 10 67 54q0 35 -28 35q-4 0 -15 -1t-13 -1q-21 0 -21 18q0 28 32 28q47 0 76.5 -26.5t25.5 -69.5q-6 -58 -87 -81q-25 -7 -31 -34z
" />
    <glyph glyph-name="glyph269" horiz-adv-x="541" 
d="M58 706h39q17 -81 105 -81t107 81h37q-14 -126 -149 -126q-60 0 -97.5 33.5t-41.5 92.5zM301 961h39q0 -1 -2.5 -9.5t-3.5 -11.5l-4 -12t-5.5 -13.5t-6.5 -12.5t-8 -12l-10 -10t-12.5 -9t-15 -5t-17.5 -2q-30 0 -78 23q-40 21 -69 21q-37 0 -43 -49h-39q7 49 31.5 74
t60.5 25q24 0 74 -24q46 -22 63 -22q19 0 31 14.5t15 34.5z" />
    <glyph glyph-name="glyph270" horiz-adv-x="249" 
 />
    <glyph glyph-name="_403" horiz-adv-x="500" 
 />
    <glyph glyph-name="_405" horiz-adv-x="500" 
 />
    <glyph glyph-name="_406" horiz-adv-x="500" 
 />
    <glyph glyph-name="_407" horiz-adv-x="500" 
 />
    <glyph glyph-name="_408" horiz-adv-x="500" 
 />
    <glyph glyph-name="_409" horiz-adv-x="500" 
 />
  </font>
</defs>
</svg>
