<?xml version="1.0" standalone="no"?>
<!DOCTYPE svg PUBLIC "-//W3C//DTD SVG 1.1//EN" "http://www.w3.org/Graphics/SVG/1.1/DTD/svg11.dtd" >
<svg xmlns="http://www.w3.org/2000/svg" xmlns:xlink="http://www.w3.org/1999/xlink" version="1.1">
<metadata>
Created by FontForge 20170731 at Tue Feb 15 19:12:52 2011
 By Aleksey,,,
(c) Copyright 2005 by Tong Duc Thinh. All Rights Reserved
</metadata>
<defs>
<font id="SFUVectoraLH-BoldItalic" horiz-adv-x="611" >
  <font-face 
    font-family="SFU Vectora LH"
    font-weight="700"
    font-style="italic"
    font-stretch="normal"
    units-per-em="1000"
    panose-1="0 0 3 0 0 0 0 0 0 0"
    ascent="800"
    descent="-200"
    x-height="598"
    cap-height="712"
    bbox="-166 -250 1113 1221"
    underline-thickness="50"
    underline-position="-200"
    slope="-12"
    unicode-range="U+0020-F002"
  />
<missing-glyph horiz-adv-x="833" 
d="M318 596q0 63 -57 63q-27 0 -48 -20.5t-32 -50.5t-16.5 -58t-5.5 -50q0 -63 58 -63q27 0 48 20.5t31.5 51t16 58t5.5 49.5zM109 -12l527 741h85l-527 -741h-85zM674 237q0 63 -57 63q-27 0 -48 -20.5t-32 -50.5t-16.5 -58t-5.5 -50q0 -63 58 -63q27 0 48 20.5t31.5 51
t16 58t5.5 49.5zM63 487q0 97 55.5 169.5t148.5 72.5q67 0 107 -36.5t40 -103.5q0 -97 -55.5 -169.5t-149.5 -72.5q-66 0 -106 36.5t-40 103.5zM419 128q0 97 55.5 169.5t148.5 72.5q67 0 107 -36.5t40 -103.5q0 -97 -55.5 -169.5t-149.5 -72.5q-66 0 -106 36.5t-40 103.5z
" />
    <glyph glyph-name=".notdef" horiz-adv-x="833" 
d="M318 596q0 63 -57 63q-27 0 -48 -20.5t-32 -50.5t-16.5 -58t-5.5 -50q0 -63 58 -63q27 0 48 20.5t31.5 51t16 58t5.5 49.5zM109 -12l527 741h85l-527 -741h-85zM674 237q0 63 -57 63q-27 0 -48 -20.5t-32 -50.5t-16.5 -58t-5.5 -50q0 -63 58 -63q27 0 48 20.5t31.5 51
t16 58t5.5 49.5zM63 487q0 97 55.5 169.5t148.5 72.5q67 0 107 -36.5t40 -103.5q0 -97 -55.5 -169.5t-149.5 -72.5q-66 0 -106 36.5t-40 103.5zM419 128q0 97 55.5 169.5t148.5 72.5q67 0 107 -36.5t40 -103.5q0 -97 -55.5 -169.5t-149.5 -72.5q-66 0 -106 36.5t-40 103.5z
" />
    <glyph glyph-name=".null" horiz-adv-x="0" 
 />
    <glyph glyph-name="nonmarkingreturn" horiz-adv-x="333" 
 />
    <glyph glyph-name="space" unicode=" " horiz-adv-x="296" 
 />
    <glyph glyph-name="exclam" unicode="!" horiz-adv-x="333" 
d="M88 225l75 487h146l-116 -487h-105zM33 0l26 132h128l-26 -132h-128z" />
    <glyph glyph-name="quotedbl" unicode="&#x22;" horiz-adv-x="500" 
d="M140 523v254h104v-254h-104zM344 523v254h104v-254h-104z" />
    <glyph glyph-name="numbersign" unicode="#" horiz-adv-x="592" 
d="M341 291l18 130h-108l-18 -130h108zM370 498l29 214h85l-29 -214h96l-11 -77h-96l-18 -130h96l-11 -77h-96l-30 -214h-85l30 214h-108l-30 -214h-85l30 214h-96l11 77h96l18 130h-96l11 77h96l29 214h85l-29 -214h108z" />
    <glyph glyph-name="dollar" unicode="$" horiz-adv-x="592" 
d="M300 284l-37 -191q47 5 78.5 34.5t31.5 69.5q0 28 -14.5 45.5t-58.5 41.5zM289 443l34 179q-47 -6 -73.5 -33.5t-26.5 -60.5q0 -51 66 -85zM221 95l41 208q-98 43 -143.5 88.5t-45.5 116.5q0 37 14.5 74t45 71t85 55t126.5 21l14 71h42l-14 -73q90 -9 138.5 -51.5
t52.5 -98.5l-136 -38q0 32 -21 53.5t-55 27.5l-38 -196q104 -44 150 -87t46 -117q0 -98 -73 -167.5t-209 -69.5l-12 -63h-42l13 65q-80 4 -138 44.5t-75 123.5l135 43q8 -46 31.5 -70.5t67.5 -30.5z" />
    <glyph glyph-name="percent" unicode="%" horiz-adv-x="1093" 
d="M428 608q0 25 -13 41t-38 16q-35 0 -58.5 -38.5t-31 -78.5t-7.5 -73q0 -25 13 -41t38 -16q35 0 58.5 38.5t31 78.5t7.5 73zM201 -12l527 741h85l-527 -741h-85zM739 242q0 25 -13 41t-38 16q-35 0 -58.5 -38.5t-31 -78.5t-7.5 -73q0 -25 13 -41t38 -16q35 0 58.5 38.5
t31 78.5t7.5 73zM190 487q0 40 11.5 80.5t34 78t62 60.5t89.5 23q59 0 95 -34.5t36 -98.5q0 -32 -6.5 -64t-22 -64.5t-37.5 -57.5t-56 -40.5t-74 -15.5q-60 0 -96 34.5t-36 98.5zM501 121q0 40 11.5 80.5t34 78t62 60.5t89.5 23q59 0 95 -34.5t36 -98.5q0 -32 -6.5 -64
t-22 -64.5t-37.5 -57.5t-56 -40.5t-74 -15.5q-60 0 -96 34.5t-36 98.5z" />
    <glyph glyph-name="ampersand" unicode="&#x26;" horiz-adv-x="741" 
d="M510 0l-47 59q-103 -71 -222 -71q-112 0 -171.5 52.5t-59.5 136.5q0 148 186 219q-34 40 -51 71.5t-17 68.5q0 82 68 137.5t171 55.5q87 0 144 -42.5t57 -113.5q0 -69 -49.5 -117.5t-144.5 -92.5l119 -147q66 62 85 163h128q-7 -62 -42 -129t-103 -118l105 -132h-156z
M436 555q0 36 -21.5 55t-55.5 19q-39 0 -67 -26.5t-28 -65.5q0 -49 49 -96q65 26 94 51.5t29 62.5zM402 137l-142 179q-110 -47 -110 -131q0 -47 32 -72t85 -25q62 0 135 49z" />
    <glyph glyph-name="quotesingle" unicode="'" horiz-adv-x="296" 
d="M140 523v254h104v-254h-104z" />
    <glyph glyph-name="parenleft" unicode="(" horiz-adv-x="315" 
d="M296 782l69 -61q-220 -252 -220 -535q0 -68 16.5 -147.5t45.5 -132.5l-84 -44q-46 80 -72 180t-26 185q0 279 271 555z" />
    <glyph glyph-name="parenright" unicode=")" horiz-adv-x="315" 
d="M96 738l84 44q46 -80 72 -180t26 -185q0 -280 -271 -555l-69 61q220 252 220 535q0 68 -16.5 147.5t-45.5 132.5z" />
    <glyph glyph-name="asterisk" unicode="*" horiz-adv-x="500" 
d="M254 558l19 154h90l-39 -154l153 59l13 -85l-156 -39l77 -119l-80 -51l-61 131l-107 -130l-62 53l118 117l-139 41l42 82z" />
    <glyph glyph-name="plus" unicode="+" horiz-adv-x="600" 
d="M237 301v205h96v-205h205v-96h-205v-205h-96v205h-205v96h205z" />
    <glyph glyph-name="comma" unicode="," horiz-adv-x="296" 
d="M-62 -122l117 254h128l-139 -254h-106z" />
    <glyph glyph-name="hyphen" unicode="-" horiz-adv-x="315" 
d="M14 250l19 100h247l-19 -100h-247z" />
    <glyph glyph-name="period" unicode="." horiz-adv-x="296" 
d="M15 0l26 132h128l-26 -132h-128z" />
    <glyph glyph-name="slash" unicode="/" horiz-adv-x="389" 
d="M-76 -17l451 779l90 -33l-448 -775z" />
    <glyph glyph-name="zero" unicode="0" horiz-adv-x="592" 
d="M19 218q0 17 1 39t8 75.5t19 101t37.5 104t60.5 96.5t91 67.5t125 27.5q102 0 157 -61.5t55 -166.5q0 -24 -2.5 -56.5t-11.5 -83.5t-23 -99.5t-39.5 -99t-59 -88.5t-84.5 -62t-112 -24q-222 0 -222 230zM433 506q0 123 -87 123q-53 0 -92.5 -51t-58.5 -126t-27.5 -138
t-8.5 -110q0 -116 87 -116q41 0 75 36t54 88t34 113t19 107t5 74z" />
    <glyph glyph-name="one" unicode="1" horiz-adv-x="592" 
d="M88 529l272 183h135l-138 -712h-146l109 559l-176 -124z" />
    <glyph glyph-name="two" unicode="2" horiz-adv-x="592" 
d="M-18 0l20 105q127 105 195 163t121.5 105.5t73 73.5t27.5 45t8 43q0 37 -23.5 63.5t-73.5 26.5q-57 0 -86.5 -41.5t-29.5 -80.5l-128 24q21 97 87.5 149.5t173.5 52.5q95 0 157.5 -50t62.5 -134q0 -36 -10.5 -66t-31.5 -61.5t-71.5 -78.5t-110.5 -98t-168 -139v-2h309
l-19 -100h-483z" />
    <glyph glyph-name="three" unicode="3" horiz-adv-x="592" 
d="M-6 175l132 27q0 -114 102 -114q55 0 90 41t35 95q0 94 -109 94q-16 0 -46 -2l21 106q37 0 65.5 4t58.5 16t46.5 37.5t16.5 63.5q0 40 -25.5 63t-65.5 23q-43 0 -72 -25.5t-41 -66.5l-119 36q21 56 62.5 92t86.5 50t96 14q91 0 154.5 -43t63.5 -129q0 -77 -53 -124
t-124 -56v-4q64 -16 94 -49.5t30 -96.5q0 -97 -71.5 -168t-186.5 -71q-222 0 -241 187z" />
    <glyph glyph-name="four" unicode="4" horiz-adv-x="592" 
d="M9 248l369 464h154l-96 -493h93l-20 -100h-91l-23 -119h-132l23 119h-302zM110 219h201l54 274q9 44 25 87h-4q-20 -32 -21 -33z" />
    <glyph glyph-name="five" unicode="5" horiz-adv-x="592" 
d="M22 174l117 23q-1 -7 -1 -18q0 -38 23.5 -66.5t69.5 -28.5q55 0 95 46t40 115q0 63 -39 92t-91 29q-73 0 -147 -45l82 391h402l-21 -104h-281l-31 -152q42 10 69 10q86 0 141.5 -53t55.5 -153q0 -70 -29.5 -130t-95 -101t-155.5 -41q-194 0 -204 186z" />
    <glyph glyph-name="six" unicode="6" horiz-adv-x="592" 
d="M358 712h174l-275 -285l2 -2q39 18 89 18q73 0 124 -48.5t51 -130.5q0 -130 -77.5 -203t-200.5 -73q-99 0 -159.5 57.5t-60.5 162.5q0 72 34 136t96 136zM383 250q0 47 -26.5 72t-63.5 25q-42 0 -88 -22q-44 -57 -44 -135q0 -50 25.5 -76t69.5 -26q55 0 91 49t36 113z
" />
    <glyph glyph-name="seven" unicode="7" horiz-adv-x="592" 
d="M417 602h-315l21 110h473l-20 -102l-419 -610h-163z" />
    <glyph glyph-name="eight" unicode="8" horiz-adv-x="592" 
d="M16 159q0 70 50 125.5t135 89.5q-101 59 -101 156q0 78 67 138.5t184 60.5q92 0 150 -41t58 -115q0 -64 -45.5 -118.5t-124.5 -77.5q116 -55 116 -170q0 -93 -74 -156t-185 -63q-112 0 -171 45.5t-59 125.5zM369 202q0 64 -82 115q-131 -52 -131 -144q0 -40 24.5 -64.5
t68.5 -24.5q52 0 86 35.5t34 82.5zM427 554q0 37 -26 58t-65 21q-43 0 -73.5 -28.5t-30.5 -68.5q0 -57 81 -107q114 53 114 125z" />
    <glyph glyph-name="nine" unicode="9" horiz-adv-x="592" 
d="M47 0l281 291h-5q-43 -17 -87 -17q-73 0 -124 48.5t-51 130.5q0 124 78.5 200t199.5 76q100 0 160 -57t60 -155q0 -132 -130 -280l-208 -237h-174zM423 527q0 50 -25.5 76t-69.5 26q-55 0 -91 -49t-36 -113q0 -47 26.5 -72t63.5 -25q42 0 88 22q44 57 44 135z" />
    <glyph glyph-name="colon" unicode=":" horiz-adv-x="296" 
d="M105 466l26 132h128l-26 -132h-128zM15 0l26 132h128l-26 -132h-128z" />
    <glyph glyph-name="semicolon" unicode=";" horiz-adv-x="296" 
d="M-62 -122l117 254h128l-139 -254h-106zM105 466l26 132h128l-26 -132h-128z" />
    <glyph glyph-name="less" unicode="&#x3c;" horiz-adv-x="600" 
d="M32 213v80l506 221v-96l-382 -165l382 -165v-96z" />
    <glyph glyph-name="equal" unicode="=" horiz-adv-x="600" 
d="M32 312v96h506v-96h-506zM32 98v96h506v-96h-506z" />
    <glyph glyph-name="greater" unicode="&#x3e;" horiz-adv-x="600" 
d="M414 253l-382 165v96l506 -221v-80l-506 -221v96z" />
    <glyph glyph-name="question" unicode="?" horiz-adv-x="537" 
d="M187 533l-120 26q16 69 78.5 119.5t157.5 50.5q88 0 145 -43.5t57 -124.5q0 -49 -25 -94t-72 -75q-45 -29 -69.5 -47.5t-38 -39.5t-17 -35t-8.5 -47h-110q14 85 30.5 115t63.5 64q71 52 94.5 83t23.5 65q0 33 -23 54t-62 21q-42 0 -70 -27.5t-35 -64.5zM112 0l26 132h128
l-26 -132h-128z" />
    <glyph glyph-name="at" unicode="@" horiz-adv-x="800" 
d="M495 380q0 36 -22.5 60.5t-56.5 24.5q-53 0 -89 -46.5t-36 -100.5q0 -39 23 -64.5t56 -25.5q51 0 88 49t37 103zM525 489l15 54h82q-70 -278 -70 -300q0 -23 16 -23q40 0 78.5 50t38.5 133q0 116 -76.5 182.5t-192.5 66.5q-128 0 -208 -84t-80 -214q0 -131 83.5 -212.5
t216.5 -81.5q124 0 214 85h84q-51 -78 -130.5 -120t-173.5 -42q-161 0 -272.5 107.5t-111.5 265.5q0 157 111 265t268 108q140 0 242.5 -86t102.5 -219q0 -72 -28 -130t-69 -90t-80.5 -49t-70.5 -17q-30 0 -43.5 12.5t-13.5 41.5h-2q-47 -54 -109 -54q-61 0 -108 51t-47 119
q0 98 60.5 172.5t155.5 74.5q80 0 118 -66z" />
    <glyph glyph-name="A" unicode="A" horiz-adv-x="722" 
d="M500 0l-25 164h-293l-91 -164h-160l409 712h189l121 -712h-150zM242 274h216l-34 218q-9 50 -11 106h-4q-26 -73 -65 -140z" />
    <glyph glyph-name="B" unicode="B" horiz-adv-x="648" 
d="M4 0l138 712h290q86 0 139 -41t53 -117q0 -73 -47 -124.5t-116 -59.5v-4q57 -12 88 -52.5t31 -93.5q0 -97 -73 -158.5t-190 -61.5h-313zM231 421h130q53 0 85 29.5t32 75.5q0 32 -22.5 54t-64.5 22h-125zM171 110h124q69 0 104 31.5t35 87.5q0 35 -23 58.5t-69 23.5h-132
z" />
    <glyph glyph-name="C" unicode="C" horiz-adv-x="685" 
d="M484 223l132 -31q-70 -209 -308 -209q-74 0 -129.5 24t-86.5 65t-46 88.5t-15 100.5q0 45 10.5 100t38.5 121.5t69.5 120t111.5 90t157 36.5q116 0 181 -54t77 -148l-141 -27q-17 115 -120 115q-52 0 -94 -30t-66.5 -73.5t-40.5 -96t-21.5 -92t-5.5 -68.5
q0 -74 33.5 -116t98.5 -42q57 0 96.5 30t68.5 96z" />
    <glyph glyph-name="D" unicode="D" horiz-adv-x="722" 
d="M4 0l138 712h240q146 0 224.5 -77t78.5 -214q0 -186 -113 -303.5t-295 -117.5h-273zM177 114h115q95 0 166 86t71 224q0 82 -44 126t-131 44h-84z" />
    <glyph glyph-name="E" unicode="E" horiz-adv-x="593" 
d="M4 0l138 712h466l-22 -114h-319l-34 -175h301l-22 -114h-301l-38 -195h328l-22 -114h-475z" />
    <glyph glyph-name="F" unicode="F" horiz-adv-x="574" 
d="M4 0l138 712h464l-22 -114h-315l-37 -193h302l-22 -114h-302l-56 -291h-150z" />
    <glyph glyph-name="G" unicode="G" horiz-adv-x="704" 
d="M369 284l21 110h264l-65 -336q-45 -31 -119.5 -53t-149.5 -22q-135 0 -209 78t-74 186q0 65 14 130.5t45 129t75.5 112.5t111 79.5t145.5 30.5q62 0 112.5 -15.5t92.5 -58t57 -108.5l-144 -35q-21 103 -127 103q-52 0 -94 -29.5t-66 -72t-39.5 -94.5t-21 -91t-5.5 -68
q0 -167 142 -167q73 0 125 30l31 161h-122z" />
    <glyph glyph-name="H" unicode="H" horiz-adv-x="722" 
d="M514 432l54 280h150l-138 -712h-150l62 318h-276l-62 -318h-150l138 712h150l-54 -280h276z" />
    <glyph glyph-name="I" unicode="I" horiz-adv-x="296" 
d="M4 0l138 712h150l-138 -712h-150z" />
    <glyph glyph-name="J" unicode="J" horiz-adv-x="407" 
d="M-85 26l80 104q28 -33 64 -33t60.5 28.5t39.5 101.5l94 485h150l-100 -515q-21 -111 -86.5 -162.5t-163.5 -51.5q-45 0 -74 10t-64 33z" />
    <glyph glyph-name="K" unicode="K" horiz-adv-x="667" 
d="M243 415l291 297h190l-356 -338l236 -374h-175l-204 334l-65 -334h-150l138 712h150l-57 -295z" />
    <glyph glyph-name="L" unicode="L" horiz-adv-x="519" 
d="M10 0l138 712h150l-115 -594h283l-23 -118h-433z" />
    <glyph glyph-name="M" unicode="M" horiz-adv-x="944" 
d="M345 0l-73 506q-1 8 -5.5 40.5t-6.5 51.5h-4q-15 -96 -22 -133l-90 -465h-140l138 712h228l59 -408q3 -20 4.5 -62t2.5 -55h4q20 57 44 101l227 424h229l-138 -712h-144l94 490q12 63 26 108h-4q-8 -15 -26.5 -53t-29.5 -58l-260 -487h-113z" />
    <glyph glyph-name="N" unicode="N" horiz-adv-x="759" 
d="M424 0l-131 381q-4 11 -46 172h-4q-10 -92 -19 -140l-80 -413h-140l138 712h188l150 -459q14 -41 26 -99h4q2 12 8.5 52.5t11.5 66.5l85 439h140l-138 -712h-193z" />
    <glyph glyph-name="O" unicode="O" horiz-adv-x="740" 
d="M31 255q0 198 114 336t272 138q145 0 218.5 -78t73.5 -202q0 -88 -26 -170t-75.5 -148.5t-130 -107t-180.5 -40.5q-112 0 -189 71t-77 201zM553 451q0 78 -36 119t-102 41q-103 0 -168.5 -104t-65.5 -256q0 -71 36 -114.5t98 -43.5q78 0 134 58t80 136.5t24 163.5z" />
    <glyph glyph-name="P" unicode="P" horiz-adv-x="630" 
d="M1 0l138 712h259q105 0 165 -50.5t60 -138.5q0 -122 -79.5 -190t-192.5 -68h-149l-51 -265h-150zM220 375h134q50 0 86.5 37t36.5 95q0 95 -119 95h-94z" />
    <glyph glyph-name="Q" unicode="Q" horiz-adv-x="740" 
d="M553 451q0 78 -36 119t-102 41q-103 0 -168.5 -104t-65.5 -256q0 -71 36 -114.5t98 -43.5q78 0 134 58t80 136.5t24 163.5zM406 -3l129 -94l-94 -87l-229 179q-83 25 -132 91t-49 169q0 198 114 336t272 138q145 0 218.5 -78t73.5 -202q0 -102 -33 -193.5t-103 -162.5
t-167 -96z" />
    <glyph glyph-name="R" unicode="R" horiz-adv-x="648" 
d="M397 0l-80 296h-105l-58 -296h-150l138 712h284q94 0 146 -47.5t52 -132.5q0 -92 -51 -148.5t-124 -62.5l104 -321h-156zM229 406h124q57 0 91 30t34 83q0 83 -91 83h-120z" />
    <glyph glyph-name="S" unicode="S" 
d="M-4 153l135 43q10 -52 39.5 -77.5t85.5 -25.5q52 0 89 30.5t37 73.5q0 35 -26.5 57t-117.5 65q-86 40 -121 83.5t-35 105.5q0 37 15 73.5t45 71t85.5 55.5t128.5 21q109 0 167.5 -44.5t62.5 -107.5l-136 -38q0 38 -28.5 60.5t-72.5 22.5q-54 0 -85.5 -29t-31.5 -65
t31 -62t75 -44t88 -40t75 -63t31 -99q0 -43 -16.5 -83.5t-49.5 -76t-90.5 -56.5t-132.5 -21q-60 0 -108 14t-87.5 53.5t-51.5 102.5z" />
    <glyph glyph-name="T" unicode="T" horiz-adv-x="556" 
d="M54 594l23 118h540l-23 -118h-195l-115 -594h-150l115 594h-195z" />
    <glyph glyph-name="U" unicode="U" horiz-adv-x="704" 
d="M561 712h146l-86 -446q-27 -142 -103.5 -212.5t-225.5 -70.5q-115 0 -181 55.5t-66 167.5q0 59 91 506h150q-62 -316 -76.5 -401.5t-14.5 -120.5q0 -47 30.5 -72t84.5 -25q68 0 109 44.5t59 140.5z" />
    <glyph glyph-name="V" unicode="V" horiz-adv-x="667" 
d="M574 712h156l-379 -712h-192l-86 712h156q2 -27 26 -280.5t24 -299.5h4q17 44 44 96z" />
    <glyph glyph-name="W" unicode="W" horiz-adv-x="963" 
d="M529 0v481q0 17 0.5 36.5t1.5 43.5t1 37h-4q-22 -81 -35 -113l-197 -485h-185l-28 712h144q0 -84 1 -253t1 -213v-128h4q17 64 41 126l183 468h190q1 -56 3.5 -157.5t4.5 -177.5t2 -109q0 -58 -5 -150h4q24 98 49 160l175 434h144l-302 -712h-193z" />
    <glyph glyph-name="X" unicode="X" horiz-adv-x="685" 
d="M248 372l-150 340h161l55 -142q23 -59 39 -122h4q25 42 81 117l110 147h170l-278 -349l161 -363h-162l-64 156q-33 82 -43 128h-4q-17 -35 -78 -112l-135 -172h-174z" />
    <glyph glyph-name="Y" unicode="Y" horiz-adv-x="667" 
d="M231 273l-168 439h160l81 -229q6 -15 23 -86h4q41 67 57 89l163 226h175l-344 -439l-51 -273h-150z" />
    <glyph glyph-name="Z" unicode="Z" horiz-adv-x="574" 
d="M-16 131l427 463h-325l23 118h501l-25 -129l-435 -465h349l-23 -118h-517z" />
    <glyph glyph-name="bracketleft" unicode="[" horiz-adv-x="315" 
d="M-20 -121l172 886h199l-14 -70h-84l-144 -746h83l-14 -70h-198z" />
    <glyph glyph-name="backslash" unicode="\" horiz-adv-x="389" 
d="M-4 729l94 33l303 -779l-97 -29z" />
    <glyph glyph-name="bracketright" unicode="]" horiz-adv-x="315" 
d="M49 -51l144 746h-83l14 70h198l-172 -886h-199l14 70h84z" />
    <glyph glyph-name="asciicircum" unicode="^" horiz-adv-x="600" 
d="M453 318l-141 298l-141 -298h-96l192 394h90l192 -394h-96z" />
    <glyph glyph-name="underscore" unicode="_" horiz-adv-x="500" 
d="M0 -125v50h500v-50h-500z" />
    <glyph glyph-name="grave" unicode="`" horiz-adv-x="278" 
d="M191 656l-154 144h159l98 -144h-103z" />
    <glyph glyph-name="a" unicode="a" horiz-adv-x="574" 
d="M309 0l14 81l-2 2q-63 -53 -103.5 -74t-84.5 -21q-66 0 -104 43.5t-38 109.5q0 69 36.5 118.5t97.5 77.5q83 37 253 37q10 40 10 66q0 38 -23 56t-54 18q-41 0 -74.5 -28t-46.5 -67l-120 38q36 77 97 115t157 38q94 0 147 -43.5t53 -120.5q0 -44 -23 -165l-33 -168
q-10 -48 -19 -113h-140zM339 172l24 119q-98 0 -165 -29.5t-67 -93.5q0 -28 19 -47t51 -19q31 0 62 16.5t76 53.5z" />
    <glyph glyph-name="b" unicode="b" horiz-adv-x="630" 
d="M231 433l-52 -265q33 -70 105 -70q45 0 82 47.5t55 113t18 129.5q0 55 -22.5 83.5t-62.5 28.5q-33 0 -67.5 -19t-55.5 -48zM1 0l151 777h146l-48 -245l2 -2q73 80 163 80q29 0 57 -11t54.5 -33.5t42.5 -65.5t16 -100q0 -98 -28.5 -189t-93.5 -157t-155 -66q-96 0 -147 83
l-14 -71h-146z" />
    <glyph glyph-name="c" unicode="c" horiz-adv-x="537" 
d="M359 197l124 -34q-76 -175 -246 -175q-61 0 -106 20.5t-70 55t-36.5 73.5t-11.5 82q0 65 19.5 131.5t55.5 125.5t97 96.5t136 37.5q99 0 150 -47t60 -119l-128 -34q0 49 -21.5 76.5t-62.5 27.5q-44 0 -77.5 -35t-50 -87t-24.5 -100t-8 -86q0 -62 25.5 -88t61.5 -26
q44 0 77 38t36 67z" />
    <glyph glyph-name="d" unicode="d" horiz-adv-x="630" 
d="M381 164l54 276q-45 66 -103 66q-49 0 -86.5 -48t-55 -114t-17.5 -132q0 -112 89 -112q51 0 119 64zM452 528l48 249h146l-151 -777h-146l13 66l-2 2q-74 -80 -165 -80q-70 0 -119 54.5t-49 166.5q0 155 75.5 278t183.5 123q56 0 94.5 -19.5t71.5 -62.5z" />
    <glyph glyph-name="e" unicode="e" horiz-adv-x="593" 
d="M534 260h-380q-5 -19 -5 -54q0 -55 27.5 -86.5t71.5 -31.5q36 0 74.5 28t53.5 63l115 -41q-87 -150 -249 -150q-108 0 -168.5 61.5t-60.5 173.5q0 159 91 273t222 114q106 0 165.5 -62.5t59.5 -166.5q0 -66 -17 -121zM172 356h238q5 17 5 46q0 50 -25.5 79t-68.5 29
q-59 0 -98.5 -51t-50.5 -103z" />
    <glyph glyph-name="f" unicode="f" horiz-adv-x="370" 
d="M27 447l20 104h87l13 65q10 52 34.5 90t57 57.5t65.5 28t70 8.5q54 0 95 -13l-20 -102q-38 11 -59 11q-33 0 -60.5 -19.5t-35.5 -55.5l-14 -70h116l-20 -104h-116l-87 -447h-146l87 447h-87z" />
    <glyph glyph-name="g" unicode="g" horiz-adv-x="593" 
d="M635 598l-16 -80h-128q14 -15 25.5 -42t11.5 -48q0 -78 -68 -139.5t-186 -61.5q-41 0 -56 4q-20 -12 -20 -33q0 -15 30 -27t72.5 -23.5t85.5 -27t73 -46.5t30 -73q0 -83 -77 -143t-226 -60q-115 0 -176.5 39.5t-61.5 99.5q0 51 41.5 97t103.5 68q-23 19 -23 48
q0 57 80 101q-95 45 -95 148q0 84 72 147.5t181 63.5q62 0 96 -12h231zM400 430q0 40 -24.5 62t-67.5 22q-49 0 -85 -31t-36 -80q0 -80 96 -80q52 0 84.5 33t32.5 74zM357 -31q0 17 -7 27.5t-25.5 19t-37 13.5t-55.5 14.5t-67 19.5q-39 -19 -64 -46.5t-25 -55.5
q0 -34 30 -53.5t89 -19.5q86 0 124 24t38 57z" />
    <glyph glyph-name="h" unicode="h" horiz-adv-x="630" 
d="M1 0l151 777h146l-51 -263h2q113 96 202 96q52 0 89 -31t37 -90q0 -30 -10 -86.5t-49 -259.5q-18 -89 -28 -143h-146q83 402 83 425q0 63 -58 63q-34 0 -74.5 -23t-66.5 -51l-81 -414h-146z" />
    <glyph glyph-name="i" unicode="i" horiz-adv-x="278" 
d="M-3 0l116 598h146l-116 -598h-146zM127 670l21 107h146l-21 -107h-146z" />
    <glyph glyph-name="j" unicode="j" horiz-adv-x="278" 
d="M-144 -192l27 111q30 -7 40 -7q31 0 48 22.5t26 65.5l116 598h146l-117 -608q-23 -113 -71.5 -152.5t-136.5 -39.5q-24 0 -78 10zM127 670l21 107h146l-21 -107h-146z" />
    <glyph glyph-name="k" unicode="k" horiz-adv-x="593" 
d="M216 337l233 261h178l-279 -282l176 -316h-164l-154 298h-2l-57 -298h-146l151 777h146l-85 -439l1 1z" />
    <glyph glyph-name="l" unicode="l" horiz-adv-x="278" 
d="M-3 0l151 777h146l-151 -777h-146z" />
    <glyph glyph-name="m" unicode="m" horiz-adv-x="944" 
d="M1 0l116 598h146l-16 -84h2q111 96 184 96q51 0 84.5 -27t41.5 -77q110 104 206 104q52 0 89 -31t37 -90q0 -30 -10 -86.5t-49 -259.5q-18 -89 -28 -143h-146q83 402 83 425q0 63 -58 63q-28 0 -55.5 -15.5t-70.5 -52.5l-81 -420h-146q83 402 83 425q0 63 -58 63
q-25 0 -63 -23t-64 -51l-81 -414h-146z" />
    <glyph glyph-name="n" unicode="n" horiz-adv-x="630" 
d="M1 0l116 598h146l-16 -84h2q113 96 202 96q52 0 89 -31t37 -90q0 -30 -10 -86.5t-49 -259.5q-18 -89 -28 -143h-146q83 402 83 425q0 63 -58 63q-34 0 -74.5 -23t-66.5 -51l-81 -414h-146z" />
    <glyph glyph-name="o" unicode="o" 
d="M13 214q0 72 21 141.5t60.5 127t103 92.5t140.5 35q99 0 168.5 -58.5t69.5 -159.5q0 -75 -21 -146t-61 -129t-105 -93.5t-145 -35.5q-114 0 -172.5 65t-58.5 161zM159 203q0 -53 27.5 -82t65.5 -29q45 0 81 30.5t56 77t30.5 94t10.5 89.5q0 123 -101 123
q-57 0 -97.5 -51.5t-56.5 -117.5t-16 -134z" />
    <glyph glyph-name="p" unicode="p" horiz-adv-x="630" 
d="M231 434l-54 -276q45 -66 103 -66q49 0 86.5 48t55 114t17.5 132q0 56 -23.5 85t-65.5 29q-49 0 -119 -66zM-36 -195l154 793h146l-14 -70h2q27 37 72.5 59.5t92.5 22.5q70 0 119 -54.5t49 -166.5q0 -155 -75.5 -278t-183.5 -123q-56 0 -94 19.5t-71 62.5l-51 -265h-146z
" />
    <glyph glyph-name="q" unicode="q" horiz-adv-x="630" 
d="M381 165l52 265q-33 70 -105 70q-45 0 -82 -47.5t-55 -113t-18 -129.5q0 -55 22.5 -83.5t62.5 -28.5q33 0 67.5 19t55.5 48zM451 527l14 71h146l-154 -793h-146l51 261l-2 2q-73 -80 -163 -80q-29 0 -57 11t-54.5 33.5t-42.5 65.5t-16 100q0 98 28.5 189t93.5 157t155 66
q96 0 147 -83z" />
    <glyph glyph-name="r" unicode="r" horiz-adv-x="407" 
d="M1 0l116 598h146l-16 -85l2 -2q83 99 189 99q14 0 23 -3l-25 -130q-16 4 -50 4q-88 0 -161 -82l-78 -399h-146z" />
    <glyph glyph-name="s" unicode="s" horiz-adv-x="519" 
d="M-19 140l127 37q0 -38 27 -63.5t67 -25.5q52 0 78.5 27t26.5 59q0 28 -26.5 45t-64 28t-75 26t-64 50t-26.5 90q0 81 65 139t175 58q87 0 138.5 -39t69.5 -100l-123 -36q-13 75 -90 75q-47 0 -71 -24.5t-24 -54.5q0 -26 27.5 -43t66.5 -28t78 -26t66.5 -49t27.5 -86
q0 -89 -68 -150t-190 -61q-94 0 -145.5 38.5t-72.5 113.5z" />
    <glyph glyph-name="t" unicode="t" horiz-adv-x="407" 
d="M150 551l25 132l153 60l-38 -192h141l-20 -104h-141q-54 -283 -54 -298q0 -51 64 -51q29 0 68 12l-20 -105q-41 -17 -117 -17q-61 0 -101 34.5t-40 100.5q0 22 32 183q17 84 28 141h-93l20 104h93z" />
    <glyph glyph-name="u" unicode="u" 
d="M368 184l81 414h146l-116 -598h-146l16 84h-2q-50 -46 -103.5 -71t-93.5 -25q-53 0 -89.5 33t-36.5 100q0 30 57 320q18 97 30 157h146q-83 -402 -83 -425q0 -63 58 -63q35 0 73.5 22.5t62.5 51.5z" />
    <glyph glyph-name="v" unicode="v" horiz-adv-x="556" 
d="M120 0l-76 598h150l30 -333q6 -65 6 -133h4q37 109 60 156l150 310h154l-307 -598h-171z" />
    <glyph glyph-name="w" unicode="w" horiz-adv-x="907" 
d="M410 598h178q2 -50 9.5 -229.5t7.5 -236.5h4q27 84 50 139l136 327h146l-272 -598h-183q-17 351 -17 466h-4q-24 -83 -52 -150l-134 -316h-180l-55 598h146q25 -319 25 -466h4q22 77 55 155z" />
    <glyph glyph-name="x" unicode="x" horiz-adv-x="574" 
d="M188 319l-115 279h153l54 -155q5 -11 12 -49h4q14 26 25 42l119 162h163l-226 -281l121 -317h-157l-56 174q-9 30 -15 59h-4q-11 -23 -26 -43l-142 -190h-166z" />
    <glyph glyph-name="y" unicode="y" horiz-adv-x="556" 
d="M141 10l-96 588h151l29 -261q8 -73 8 -192h4q46 114 78 181l136 272h151l-355 -661q-75 -139 -203 -139q-61 0 -101 15l28 109q28 -14 52 -14q42 0 67.5 22t50.5 80z" />
    <glyph glyph-name="z" unicode="z" horiz-adv-x="519" 
d="M-27 106l362 396q-36 -4 -76 -4h-200l19 100h453l-20 -105l-366 -397q36 4 76 4h222l-19 -100h-472z" />
    <glyph glyph-name="braceleft" unicode="{" horiz-adv-x="315" 
d="M-6 280l15 79q32 0 65.5 26.5t42.5 73.5l33 172q11 62 57 98t87 36h94l-14 -74h-53q-53 0 -67 -77l-34 -179q-9 -48 -47 -81t-71 -33v-3q22 0 49 -25t27 -62q0 -21 -20 -116t-20 -117q0 -45 41 -45h53l-14 -74h-90q-42 0 -71 28.5t-29 76.5q0 22 20 116.5t20 107.5
q0 33 -23.5 52.5t-50.5 19.5z" />
    <glyph glyph-name="bar" unicode="|" horiz-adv-x="222" 
d="M63 -250v1000h96v-1000h-96z" />
    <glyph glyph-name="braceright" unicode="}" horiz-adv-x="315" 
d="M71 691l14 74h90q43 0 71.5 -28.5t28.5 -76.5q0 -21 -20 -115.5t-20 -108.5q0 -33 23.5 -52.5t50.5 -19.5l-15 -79q-32 0 -65.5 -26.5t-42.5 -73.5l-33 -172q-11 -62 -57 -98t-87 -36h-94l14 74h53q53 0 67 77l34 179q9 48 47 81t71 33v3q-22 0 -49 25t-27 62
q0 21 20 116t20 117q0 45 -41 45h-53z" />
    <glyph glyph-name="asciitilde" unicode="~" horiz-adv-x="600" 
d="M90 170l-36 76q45 86 125 86q38 0 116 -34q74 -34 97 -34q25 0 44 16.5t44 55.5l36 -76q-45 -86 -125 -86q-38 0 -116 34q-74 34 -97 34q-25 0 -44 -16.5t-44 -55.5z" />
    <glyph glyph-name="euro" horiz-adv-x="498" 
d="M522 633l-23 -156l-48 6q0 157 -94 157q-103 0 -161 -211h172l-21 -48h-164q-3 -14 -16 -73h147l-21 -47h-134q-6 -41 -6 -74q0 -55 21 -91q25 -43 78 -43q57 0 101 68q24 37 51 119l55 -10l-54 -188q-77 -53 -159 -53q-110 0 -166 84q-47 71 -47 188h-74l21 47h56
q3 24 12 73h-66l21 48h59q40 113 108 183q82 88 187 88q95 0 165 -67z" />
    <glyph glyph-name="nbspace" unicode="&#xa0;" horiz-adv-x="296" 
 />
    <glyph glyph-name="exclamdown" unicode="&#xa1;" horiz-adv-x="333" 
d="M2 -114l116 487h105l-75 -487h-146zM124 466l26 132h128l-26 -132h-128z" />
    <glyph glyph-name="cent" unicode="&#xa2;" horiz-adv-x="592" 
d="M198 144l186 363q-14 7 -36 7q-44 0 -77.5 -35t-50 -87t-24.5 -100t-8 -86t10 -62zM431 599l39 75l39 -12l-40 -78q79 -43 91 -140l-128 -34q0 43 -17 69l-189 -371q20 -16 49 -16q45 0 77.5 38t35.5 67l124 -34q-76 -175 -246 -175q-54 0 -93 16l-40 -77l-39 13l42 83
q-94 61 -94 196q0 65 19.5 131.5t55.5 125.5t97 96.5t136 37.5q43 0 81 -11z" />
    <glyph glyph-name="sterling" unicode="&#xa3;" horiz-adv-x="592" 
d="M89 100l42 221h-75l17 90h76q16 149 79 233.5t196 84.5q82 0 133.5 -39t59.5 -107l-128 -31q-11 77 -78 77q-56 0 -83 -51t-47 -167h153l-17 -90h-154l-42 -221h271l-20 -100h-474l20 100h71z" />
    <glyph glyph-name="currency" unicode="&#xa4;" horiz-adv-x="592" 
d="M445 556l59 59l55 -55l-60 -59q45 -63 45 -142t-45 -142l60 -59l-55 -55l-59 59q-65 -51 -149 -51t-149 51l-59 -59l-55 55l60 59q-45 63 -45 142t45 142l-60 59l55 55l59 -59q65 51 149 51t149 -51zM448 359q0 69 -42 113.5t-110 44.5t-110 -44.5t-42 -113.5t42 -113.5
t110 -44.5t110 44.5t42 113.5z" />
    <glyph glyph-name="yen" unicode="&#xa5;" horiz-adv-x="592" 
d="M184 202l13 68h-147l12 64h112l-124 378h160l57 -229q11 -41 22 -98h4q28 53 58 101l139 226h175l-275 -378h121l-12 -64h-156l-13 -68h156l-12 -64h-156l-26 -138h-146l26 138h-147l12 64h147z" />
    <glyph glyph-name="brokenbar" unicode="&#xa6;" horiz-adv-x="222" 
d="M63 -175v350h96v-350h-96zM63 325v350h96v-350h-96z" />
    <glyph glyph-name="section" unicode="&#xa7;" horiz-adv-x="592" 
d="M-4 -2l105 46q16 -85 110 -85q37 0 69.5 22.5t32.5 56.5q0 27 -26 48t-63 36.5t-74 33.5t-63 49t-26 73q0 62 38 101.5t100 56.5q-68 44 -68 119q0 68 59 121t173 53q75 0 123 -31t65 -81l-103 -50q-26 72 -101 72q-34 0 -63 -20.5t-29 -55.5q0 -26 26.5 -47t63.5 -38.5
t74.5 -37.5t64 -53.5t26.5 -76.5q0 -60 -38.5 -97t-91.5 -49q61 -36 61 -106q0 -73 -64 -131t-178 -58q-160 0 -203 129zM398 282q0 32 -27 56t-113 65q-85 -32 -85 -90q0 -28 25 -47.5t128 -70.5q72 35 72 87z" />
    <glyph glyph-name="dieresis" unicode="&#xa8;" horiz-adv-x="278" 
d="M27 670l21 107h146l-21 -107h-146zM237 670l21 107h146l-21 -107h-146z" />
    <glyph glyph-name="copyright" unicode="&#xa9;" horiz-adv-x="800" 
d="M514 296h82q-13 -74 -63 -115.5t-121 -41.5q-97 0 -153 62t-56 158t56 158t153 62q71 0 120 -40.5t61 -114.5h-79q-7 37 -34.5 57.5t-67.5 20.5q-56 0 -87.5 -39.5t-31.5 -103.5q0 -62 34.5 -102.5t84.5 -40.5q43 0 70 21t32 59zM27 356q0 154 109.5 263.5t263.5 109.5
t263.5 -109.5t109.5 -263.5t-109.5 -263.5t-263.5 -109.5t-263.5 109.5t-109.5 263.5zM683 356q0 117 -83 200t-200 83t-200 -83t-83 -200t83 -200t200 -83t200 83t83 200z" />
    <glyph glyph-name="ordfeminine" unicode="&#xaa;" horiz-adv-x="373" 
d="M236 363l9 49l-1 1q-41 -32 -66.5 -44.5t-54.5 -12.5q-44 0 -69.5 26t-25.5 66q0 41 25 71.5t65 47.5q54 22 162 22q6 22 6 38q0 38 -47 38q-28 0 -48.5 -14t-28.5 -37l-80 23q48 92 170 92q60 0 95 -26t35 -72q0 -48 -25 -150.5t-25 -117.5h-96zM254 466l16 70
q-61 0 -103.5 -17.5t-42.5 -54.5t44 -37q35 0 86 39z" />
    <glyph glyph-name="guillemotleft" unicode="&#xab;" horiz-adv-x="537" 
d="M15 319l203 219l73 -60l-152 -176l89 -195l-88 -45zM253 319l203 219l73 -60l-152 -176l89 -195l-88 -45z" />
    <glyph glyph-name="logicalnot" unicode="&#xac;" horiz-adv-x="600" 
d="M32 312v96h506v-300h-96v204h-410z" />
    <glyph glyph-name="sfthyphen" unicode="&#xad;" horiz-adv-x="833" 
 />
    <glyph glyph-name="registered" unicode="&#xae;" horiz-adv-x="800" 
d="M488 147l-103 178h-51v-178h-82v418h158q81 0 121.5 -28.5t40.5 -95.5q0 -53 -28 -80.5t-73 -31.5l105 -182h-88zM334 389h70q46 0 66 13t20 43t-20.5 43t-65.5 13h-70v-112zM27 356q0 154 109.5 263.5t263.5 109.5t263.5 -109.5t109.5 -263.5t-109.5 -263.5
t-263.5 -109.5t-263.5 109.5t-109.5 263.5zM683 356q0 117 -83 200t-200 83t-200 -83t-83 -200t83 -200t200 -83t200 83t83 200z" />
    <glyph glyph-name="overscore" unicode="&#xaf;" horiz-adv-x="278" 
d="M48 693l14 74h314l-14 -74h-314z" />
    <glyph glyph-name="degree" unicode="&#xb0;" horiz-adv-x="400" 
d="M83 586q0 60 41.5 101.5t101.5 41.5t101.5 -41.5t41.5 -101.5t-41.5 -101.5t-101.5 -41.5t-101.5 41.5t-41.5 101.5zM305 586q0 33 -23 56t-56 23t-56 -23t-23 -56t23 -56t56 -23t56 23t23 56z" />
    <glyph glyph-name="plusminus" unicode="&#xb1;" horiz-adv-x="600" 
d="M237 366v140h96v-140h205v-96h-205v-140h-96v140h-205v96h205zM32 0v96h506v-96h-506z" />
    <glyph glyph-name="twosuperior" unicode="&#xb2;" horiz-adv-x="388" 
d="M10 291l13 65q105 82 149.5 117t77.5 66t38.5 43.5t5.5 30.5q0 46 -58 46q-33 0 -54 -21t-21 -44l-83 16q14 57 57.5 88t111.5 31q62 0 102.5 -29.5t40.5 -80.5t-41.5 -95.5t-194.5 -160.5v-2h184l-14 -70h-314z" />
    <glyph glyph-name="threesuperior" unicode="&#xb3;" horiz-adv-x="388" 
d="M15 397l90 16q0 -65 64 -65q36 0 57.5 23t21.5 54q0 57 -68 57q-6 0 -16 -0.5t-14 -0.5l13 65q120 0 120 72q0 23 -15.5 35t-41.5 12q-28 0 -47.5 -14t-25.5 -37l-79 22q43 93 160 93q61 0 103 -25.5t42 -77.5q0 -47 -35 -74t-83 -34v-2q41 -10 62 -30.5t21 -57.5
q0 -59 -47.5 -101.5t-122.5 -42.5q-146 0 -159 113z" />
    <glyph glyph-name="acute" unicode="&#xb4;" horiz-adv-x="278" 
d="M96 656l112 144h165l-173 -144h-104z" />
    <glyph glyph-name="mu" unicode="&#xb5;" 
d="M333 0l16 71l-2 2q-52 -85 -121 -85q-25 0 -46 14t-31 33h-2l-43 -230h-146l153 793h146q-83 -402 -83 -425q0 -25 21 -48t54 -23q34 0 67.5 23t51.5 59l81 414h146l-116 -598h-146z" />
    <glyph glyph-name="paragraph" unicode="&#xb6;" horiz-adv-x="592" 
d="M332 -114l146 752h-109l-145 -752h-96l78 405q-83 0 -128 45t-45 124q0 101 72.5 176.5t198.5 75.5h285l-161 -826h-96z" />
    <glyph glyph-name="ch270" unicode="&#xb7;" horiz-adv-x="296" 
d="M68 305q0 29 20.5 49.5t49.5 20.5t49.5 -20.5t20.5 -49.5t-20.5 -49.5t-49.5 -20.5t-49.5 20.5t-20.5 49.5z" />
    <glyph glyph-name="cedilla" unicode="&#xb8;" horiz-adv-x="278" 
d="M-16 -109l-21 24l69 85h55l-52 -60l2 -2q8 4 22 4q39 0 61 -19t22 -51q0 -36 -34.5 -63.5t-92.5 -27.5q-56 0 -112 27l24 41q49 -19 80 -19q21 0 36 10.5t15 27.5q0 32 -35 32q-25 0 -39 -9z" />
    <glyph glyph-name="onesuperior" unicode="&#xb9;" horiz-adv-x="388" 
d="M62 610l177 108h87l-83 -427h-96l66 335l-115 -74z" />
    <glyph glyph-name="ordmasculine" unicode="&#xba;" horiz-adv-x="385" 
d="M46 491q0 92 56.5 165t154.5 73q65 0 110 -35t45 -96q0 -95 -57.5 -168.5t-158.5 -73.5q-74 0 -112 39t-38 96zM316 605q0 27 -18 43.5t-46 16.5q-46 0 -78 -49.5t-32 -130.5q0 -31 17 -48t42 -17q54 0 84.5 56t30.5 129z" />
    <glyph glyph-name="guillemotright" unicode="&#xbb;" horiz-adv-x="537" 
d="M139 298l-89 195l88 45l125 -257l-203 -219l-73 60zM377 298l-89 195l88 45l125 -257l-203 -219l-73 60z" />
    <glyph glyph-name="onequarter" unicode="&#xbc;" horiz-adv-x="889" 
d="M497 149l240 278h102l-57 -295h56l-13 -64h-56l-13 -68h-90l13 68h-199zM692 132l29 154q1 6 11 42l-4 1q-12 -22 -24 -37l-134 -160h122zM176 -24l421 765h78l-421 -765h-78zM48 610l177 108h87l-83 -427h-96l66 335l-115 -74z" />
    <glyph glyph-name="onehalf" unicode="&#xbd;" horiz-adv-x="889" 
d="M176 -24l421 765h78l-421 -765h-78zM48 610l177 108h87l-83 -427h-96l66 335l-115 -74zM479 0l13 65q105 82 149.5 117t77.5 66t38.5 43.5t5.5 30.5q0 46 -58 46q-33 0 -54 -21t-21 -44l-83 16q14 57 57.5 88t111.5 31q62 0 102.5 -29.5t40.5 -80.5t-41.5 -95.5
t-194.5 -160.5v-2h184l-14 -70h-314z" />
    <glyph glyph-name="threequarters" unicode="&#xbe;" horiz-adv-x="889" 
d="M509 149l240 278h102l-57 -295h56l-13 -64h-56l-13 -68h-90l13 68h-199zM704 132l29 154q1 6 11 42l-4 1q-12 -22 -24 -37l-134 -160h122zM224 -24l421 765h78l-421 -765h-78zM31 397l90 16q0 -65 64 -65q36 0 57.5 23t21.5 54q0 57 -68 57q-6 0 -16 -0.5t-14 -0.5l13 65
q120 0 120 72q0 23 -15.5 35t-41.5 12q-28 0 -47.5 -14t-25.5 -37l-79 22q43 93 160 93q61 0 103 -25.5t42 -77.5q0 -47 -35 -74t-83 -34v-2q41 -10 62 -30.5t21 -57.5q0 -59 -47.5 -101.5t-122.5 -42.5q-146 0 -159 113z" />
    <glyph glyph-name="questiondown" unicode="&#xbf;" horiz-adv-x="537" 
d="M238 375h110q-14 -85 -30.5 -115t-63.5 -64q-71 -52 -94.5 -83t-23.5 -65q0 -33 23 -54t62 -21q42 0 70 27.5t35 64.5l120 -26q-16 -69 -78.5 -119.5t-157.5 -50.5q-88 0 -145 43.5t-57 124.5q0 49 25 94t72 75q45 29 69.5 47.5t38 39.5t17 35t8.5 47zM247 466l26 132
h128l-26 -132h-128z" />
    <glyph glyph-name="Agrave" unicode="&#xc0;" horiz-adv-x="722" 
d="M407 768l-126 118h119l84 -118h-77zM500 0l-25 164h-293l-91 -164h-160l409 712h189l121 -712h-150zM242 274h216l-34 218q-9 50 -11 106h-4q-26 -73 -65 -140z" />
    <glyph glyph-name="Aacute" unicode="&#xc1;" horiz-adv-x="722" 
d="M423 768l94 118h123l-139 -118h-78zM500 0l-25 164h-293l-91 -164h-160l409 712h189l121 -712h-150zM242 274h216l-34 218q-9 50 -11 106h-4q-26 -73 -65 -140z" />
    <glyph glyph-name="Acircumflex" unicode="&#xc2;" horiz-adv-x="722" 
d="M503 755l-42 64l-67 -64h-88l108 108h99l66 -108h-76zM500 0l-25 164h-293l-91 -164h-160l409 712h189l121 -712h-150zM242 274h216l-34 218q-9 50 -11 106h-4q-26 -73 -65 -140z" />
    <glyph glyph-name="Atilde" unicode="&#xc3;" horiz-adv-x="722" 
d="M367 764h-49q9 50 31.5 72t58.5 22q24 0 57.5 -16.5t41.5 -16.5q26 0 36 34h49q-9 -51 -31 -72.5t-60 -21.5q-23 0 -57 16.5t-42 16.5q-23 0 -35 -34zM500 0l-25 164h-293l-91 -164h-160l409 712h189l121 -712h-150zM242 274h216l-34 218q-9 50 -11 106h-4
q-26 -73 -65 -140z" />
    <glyph glyph-name="Adieresis" unicode="&#xc4;" horiz-adv-x="722" 
d="M500 0l-25 164h-293l-91 -164h-160l409 712h189l121 -712h-150zM242 274h216l-34 218q-9 50 -11 106h-4q-26 -73 -65 -140zM255 784l21 107h146l-21 -107h-146zM465 784l21 107h146l-21 -107h-146z" />
    <glyph glyph-name="Aring" unicode="&#xc5;" horiz-adv-x="722" 
d="M500 0l-25 164h-293l-91 -164h-160l409 712h189l121 -712h-150zM242 274h216l-34 218q-9 50 -11 106h-4q-26 -73 -65 -140zM340 846q0 44 30.5 74.5t74.5 30.5q43 0 74 -30.5t31 -74.5t-30.5 -74.5t-74.5 -30.5t-74.5 30.5t-30.5 74.5zM499 846q0 23 -15.5 38.5
t-38.5 15.5t-38.5 -15.5t-15.5 -38.5t15.5 -38.5t38.5 -15.5t38.5 15.5t15.5 38.5z" />
    <glyph glyph-name="AE" unicode="&#xc6;" horiz-adv-x="963" 
d="M438 0l34 174h-234l-124 -174h-171l531 712h504l-22 -114h-262l-34 -175h247l-22 -114h-247l-38 -195h274l-22 -114h-414zM493 284l66 338h-4l-238 -338h176z" />
    <glyph glyph-name="Ccedilla" unicode="&#xc7;" horiz-adv-x="685" 
d="M224 -109l-21 24l58 71q-81 9 -135 53t-74.5 100t-20.5 122q0 45 10.5 100t38.5 121.5t69.5 120t111.5 90t157 36.5q116 0 181 -54t77 -148l-141 -27q-17 115 -120 115q-52 0 -94 -30t-66.5 -73.5t-40.5 -96t-21.5 -92t-5.5 -68.5q0 -74 33.5 -116t98.5 -42q57 0 96.5 30
t68.5 96l132 -31q-35 -103 -113 -156t-190 -53l-38 -43l2 -2q8 4 22 4q39 0 61 -19t22 -51q0 -36 -34.5 -63.5t-92.5 -27.5q-56 0 -112 27l24 41q49 -19 80 -19q21 0 36 10.5t15 27.5q0 32 -35 32q-25 0 -39 -9z" />
    <glyph glyph-name="Egrave" unicode="&#xc8;" horiz-adv-x="593" 
d="M377 768l-126 118h119l84 -118h-77zM4 0l138 712h466l-22 -114h-319l-34 -175h301l-22 -114h-301l-38 -195h328l-22 -114h-475z" />
    <glyph glyph-name="Eacute" unicode="&#xc9;" horiz-adv-x="593" 
d="M363 768l94 118h123l-139 -118h-78zM4 0l138 712h466l-22 -114h-319l-34 -175h301l-22 -114h-301l-38 -195h328l-22 -114h-475z" />
    <glyph glyph-name="Ecircumflex" unicode="&#xca;" horiz-adv-x="593" 
d="M463 755l-42 64l-67 -64h-88l108 108h99l66 -108h-76zM4 0l138 712h466l-22 -114h-319l-34 -175h301l-22 -114h-301l-38 -195h328l-22 -114h-475z" />
    <glyph glyph-name="Edieresis" unicode="&#xcb;" horiz-adv-x="593" 
d="M4 0l138 712h466l-22 -114h-319l-34 -175h301l-22 -114h-301l-38 -195h328l-22 -114h-475zM197 784l21 107h146l-21 -107h-146zM407 784l21 107h146l-21 -107h-146z" />
    <glyph glyph-name="Igrave" unicode="&#xcc;" horiz-adv-x="296" 
d="M197 768l-126 118h119l84 -118h-77zM4 0l138 712h150l-138 -712h-150z" />
    <glyph glyph-name="Iacute" unicode="&#xcd;" horiz-adv-x="296" 
d="M173 768l94 118h123l-139 -118h-78zM4 0l138 712h150l-138 -712h-150z" />
    <glyph glyph-name="Icircumflex" unicode="&#xce;" horiz-adv-x="296" 
d="M4 0l138 712h150l-138 -712h-150zM290 770l-56 85l-89 -85h-117l143 144h132l88 -144h-101z" />
    <glyph glyph-name="Idieresis" unicode="&#xcf;" horiz-adv-x="296" 
d="M4 0l138 712h150l-138 -712h-150zM42 784l21 107h146l-21 -107h-146zM252 784l21 107h146l-21 -107h-146z" />
    <glyph glyph-name="Eth" unicode="&#xd0;" horiz-adv-x="722" 
d="M85 412l57 300h240q146 0 224.5 -77t78.5 -214q0 -186 -113 -303.5t-295 -117.5h-273l68 348h-76l12 64h77zM222 348l-45 -234h115q95 0 166 86t71 224q0 82 -44 126t-131 44h-84l-35 -182h152l-12 -64h-153z" />
    <glyph glyph-name="Ntilde" unicode="&#xd1;" horiz-adv-x="759" 
d="M424 0l-131 381q-4 11 -46 172h-4q-10 -92 -19 -140l-80 -413h-140l138 712h188l150 -459q14 -41 26 -99h4q2 12 8.5 52.5t11.5 66.5l85 439h140l-138 -712h-193zM337 778h-66q14 67 43 96t78 29q31 0 77 -21.5t55 -21.5q34 0 47 45h66q-12 -68 -41.5 -96.5t-79.5 -28.5
q-31 0 -76 21.5t-56 21.5q-32 0 -47 -45z" />
    <glyph glyph-name="Ograve" unicode="&#xd2;" horiz-adv-x="740" 
d="M417 768l-126 118h119l84 -118h-77zM31 255q0 198 114 336t272 138q145 0 218.5 -78t73.5 -202q0 -88 -26 -170t-75.5 -148.5t-130 -107t-180.5 -40.5q-112 0 -189 71t-77 201zM553 451q0 78 -36 119t-102 41q-103 0 -168.5 -104t-65.5 -256q0 -71 36 -114.5t98 -43.5
q78 0 134 58t80 136.5t24 163.5z" />
    <glyph glyph-name="Oacute" unicode="&#xd3;" horiz-adv-x="740" 
d="M373 768l94 118h123l-139 -118h-78zM31 255q0 198 114 336t272 138q145 0 218.5 -78t73.5 -202q0 -88 -26 -170t-75.5 -148.5t-130 -107t-180.5 -40.5q-112 0 -189 71t-77 201zM553 451q0 78 -36 119t-102 41q-103 0 -168.5 -104t-65.5 -256q0 -71 36 -114.5t98 -43.5
q78 0 134 58t80 136.5t24 163.5z" />
    <glyph glyph-name="Ocircumflex" unicode="&#xd4;" horiz-adv-x="740" 
d="M503 755l-42 64l-67 -64h-88l108 108h99l66 -108h-76zM31 255q0 198 114 336t272 138q145 0 218.5 -78t73.5 -202q0 -88 -26 -170t-75.5 -148.5t-130 -107t-180.5 -40.5q-112 0 -189 71t-77 201zM553 451q0 78 -36 119t-102 41q-103 0 -168.5 -104t-65.5 -256
q0 -71 36 -114.5t98 -43.5q78 0 134 58t80 136.5t24 163.5z" />
    <glyph glyph-name="Otilde" unicode="&#xd5;" horiz-adv-x="740" 
d="M367 764h-49q9 50 31.5 72t58.5 22q24 0 57.5 -16.5t41.5 -16.5q26 0 36 34h49q-9 -51 -31 -72.5t-60 -21.5q-23 0 -57 16.5t-42 16.5q-23 0 -35 -34zM31 255q0 198 114 336t272 138q145 0 218.5 -78t73.5 -202q0 -88 -26 -170t-75.5 -148.5t-130 -107t-180.5 -40.5
q-112 0 -189 71t-77 201zM553 451q0 78 -36 119t-102 41q-103 0 -168.5 -104t-65.5 -256q0 -71 36 -114.5t98 -43.5q78 0 134 58t80 136.5t24 163.5z" />
    <glyph glyph-name="Odieresis" unicode="&#xd6;" horiz-adv-x="740" 
d="M31 255q0 198 114 336t272 138q145 0 218.5 -78t73.5 -202q0 -88 -26 -170t-75.5 -148.5t-130 -107t-180.5 -40.5q-112 0 -189 71t-77 201zM553 451q0 78 -36 119t-102 41q-103 0 -168.5 -104t-65.5 -256q0 -71 36 -114.5t98 -43.5q78 0 134 58t80 136.5t24 163.5z
M258 784l21 107h146l-21 -107h-146zM468 784l21 107h146l-21 -107h-146z" />
    <glyph glyph-name="multiply" unicode="&#xd7;" horiz-adv-x="600" 
d="M284 319l166 167l67 -67l-166 -166l167 -166l-67 -67l-166 167l-166 -167l-67 67l167 166l-166 166l67 67z" />
    <glyph glyph-name="Oslash" unicode="&#xd8;" horiz-adv-x="740" 
d="M185 208l352 328q-31 75 -122 75q-103 0 -168.5 -104t-65.5 -256q0 -26 4 -43zM550 492l-351 -326q34 -73 116 -73q78 0 134 58t80 136.5t24 163.5q0 21 -3 41zM647 638l80 74l27 -30l-83 -77q38 -63 38 -156q0 -88 -26 -170t-75.5 -148.5t-130 -107t-180.5 -40.5
q-127 0 -203 85l-73 -68l-27 30l76 71q-39 64 -39 154q0 198 114 336t272 138q154 0 230 -91z" />
    <glyph glyph-name="Ugrave" unicode="&#xd9;" horiz-adv-x="704" 
d="M407 768l-126 118h119l84 -118h-77zM561 712h146l-86 -446q-27 -142 -103.5 -212.5t-225.5 -70.5q-115 0 -181 55.5t-66 167.5q0 59 91 506h150q-62 -316 -76.5 -401.5t-14.5 -120.5q0 -47 30.5 -72t84.5 -25q68 0 109 44.5t59 140.5z" />
    <glyph glyph-name="Uacute" unicode="&#xda;" horiz-adv-x="704" 
d="M353 768l94 118h123l-139 -118h-78zM561 712h146l-86 -446q-27 -142 -103.5 -212.5t-225.5 -70.5q-115 0 -181 55.5t-66 167.5q0 59 91 506h150q-62 -316 -76.5 -401.5t-14.5 -120.5q0 -47 30.5 -72t84.5 -25q68 0 109 44.5t59 140.5z" />
    <glyph glyph-name="Ucircumflex" unicode="&#xdb;" horiz-adv-x="704" 
d="M561 712h146l-86 -446q-27 -142 -103.5 -212.5t-225.5 -70.5q-115 0 -181 55.5t-66 167.5q0 59 91 506h150q-62 -316 -76.5 -401.5t-14.5 -120.5q0 -47 30.5 -72t84.5 -25q68 0 109 44.5t59 140.5zM494 770l-56 85l-89 -85h-117l143 144h132l88 -144h-101z" />
    <glyph glyph-name="Udieresis" unicode="&#xdc;" horiz-adv-x="704" 
d="M561 712h146l-86 -446q-27 -142 -103.5 -212.5t-225.5 -70.5q-115 0 -181 55.5t-66 167.5q0 59 91 506h150q-62 -316 -76.5 -401.5t-14.5 -120.5q0 -47 30.5 -72t84.5 -25q68 0 109 44.5t59 140.5zM246 784l21 107h146l-21 -107h-146zM456 784l21 107h146l-21 -107h-146z
" />
    <glyph glyph-name="Yacute" unicode="&#xdd;" horiz-adv-x="667" 
d="M373 768l94 118h123l-139 -118h-78zM231 273l-168 439h160l81 -229q6 -15 23 -86h4q41 67 57 89l163 226h175l-344 -439l-51 -273h-150z" />
    <glyph glyph-name="Thorn" unicode="&#xde;" horiz-adv-x="630" 
d="M1 0l138 712h150l-20 -102h109q105 0 165 -50.5t60 -138.5q0 -122 -79.5 -190t-192.5 -68h-148l-32 -163h-150zM200 273h134q50 0 86.5 37t36.5 95q0 95 -119 95h-94z" />
    <glyph glyph-name="germandbls" unicode="&#xdf;" horiz-adv-x="630" 
d="M205 10l42 102q32 -13 55 -13q62 0 96.5 51t34.5 120q0 40 -27.5 66.5t-74.5 26.5h-35l20 104h23q58 0 89.5 39t31.5 101q0 36 -22.5 56.5t-59.5 20.5q-51 0 -78 -33.5t-40 -98.5l-107 -552h-146l107 550q21 111 89 174.5t184 63.5q101 0 155 -46.5t54 -121.5
q0 -82 -51 -134.5t-120 -61.5v-4q76 -18 110 -57t34 -103q0 -44 -15.5 -89.5t-45.5 -86t-81.5 -66.5t-115.5 -26q-59 0 -106 18z" />
    <glyph glyph-name="agrave" unicode="&#xe0;" horiz-adv-x="574" 
d="M320 653l-120 112h113l80 -112h-73zM309 0l14 81l-2 2q-63 -53 -103.5 -74t-84.5 -21q-66 0 -104 43.5t-38 109.5q0 69 36.5 118.5t97.5 77.5q83 37 253 37q10 40 10 66q0 38 -23 56t-54 18q-41 0 -74.5 -28t-46.5 -67l-120 38q36 77 97 115t157 38q94 0 147 -43.5
t53 -120.5q0 -44 -23 -165l-33 -168q-10 -48 -19 -113h-140zM339 172l24 119q-98 0 -165 -29.5t-67 -93.5q0 -28 19 -47t51 -19q31 0 62 16.5t76 53.5z" />
    <glyph glyph-name="aacute" unicode="&#xe1;" horiz-adv-x="574" 
d="M277 656l90 112h117l-132 -112h-75zM309 0l14 81l-2 2q-63 -53 -103.5 -74t-84.5 -21q-66 0 -104 43.5t-38 109.5q0 69 36.5 118.5t97.5 77.5q83 37 253 37q10 40 10 66q0 38 -23 56t-54 18q-41 0 -74.5 -28t-46.5 -67l-120 38q36 77 97 115t157 38q94 0 147 -43.5
t53 -120.5q0 -44 -23 -165l-33 -168q-10 -48 -19 -113h-140zM339 172l24 119q-98 0 -165 -29.5t-67 -93.5q0 -28 19 -47t51 -19q31 0 62 16.5t76 53.5z" />
    <glyph glyph-name="acircumflex" unicode="&#xe2;" horiz-adv-x="574" 
d="M399 645l-40 60l-64 -60h-83l102 102h94l63 -102h-72zM309 0l14 81l-2 2q-63 -53 -103.5 -74t-84.5 -21q-66 0 -104 43.5t-38 109.5q0 69 36.5 118.5t97.5 77.5q83 37 253 37q10 40 10 66q0 38 -23 56t-54 18q-41 0 -74.5 -28t-46.5 -67l-120 38q36 77 97 115t157 38
q94 0 147 -43.5t53 -120.5q0 -44 -23 -165l-33 -168q-10 -48 -19 -113h-140zM339 172l24 119q-98 0 -165 -29.5t-67 -93.5q0 -28 19 -47t51 -19q31 0 62 16.5t76 53.5z" />
    <glyph glyph-name="atilde" unicode="&#xe3;" horiz-adv-x="574" 
d="M280 652h-49q9 50 31.5 72t58.5 22q24 0 57.5 -16.5t41.5 -16.5q26 0 36 34h49q-9 -51 -31 -72.5t-60 -21.5q-22 0 -57 16.5t-42 16.5q-23 0 -35 -34zM309 0l14 81l-2 2q-63 -53 -103.5 -74t-84.5 -21q-66 0 -104 43.5t-38 109.5q0 69 36.5 118.5t97.5 77.5q83 37 253 37
q10 40 10 66q0 38 -23 56t-54 18q-41 0 -74.5 -28t-46.5 -67l-120 38q36 77 97 115t157 38q94 0 147 -43.5t53 -120.5q0 -44 -23 -165l-33 -168q-10 -48 -19 -113h-140zM339 172l24 119q-98 0 -165 -29.5t-67 -93.5q0 -28 19 -47t51 -19q31 0 62 16.5t76 53.5z" />
    <glyph glyph-name="adieresis" unicode="&#xe4;" horiz-adv-x="574" 
d="M309 0l14 81l-2 2q-63 -53 -103.5 -74t-84.5 -21q-66 0 -104 43.5t-38 109.5q0 69 36.5 118.5t97.5 77.5q83 37 253 37q10 40 10 66q0 38 -23 56t-54 18q-41 0 -74.5 -28t-46.5 -67l-120 38q36 77 97 115t157 38q94 0 147 -43.5t53 -120.5q0 -44 -23 -165l-33 -168
q-10 -48 -19 -113h-140zM339 172l24 119q-98 0 -165 -29.5t-67 -93.5q0 -28 19 -47t51 -19q31 0 62 16.5t76 53.5zM175 670l21 107h146l-21 -107h-146zM385 670l21 107h146l-21 -107h-146z" />
    <glyph glyph-name="aring" unicode="&#xe5;" horiz-adv-x="574" 
d="M309 0l14 81l-2 2q-63 -53 -103.5 -74t-84.5 -21q-66 0 -104 43.5t-38 109.5q0 69 36.5 118.5t97.5 77.5q83 37 253 37q10 40 10 66q0 38 -23 56t-54 18q-41 0 -74.5 -28t-46.5 -67l-120 38q36 77 97 115t157 38q94 0 147 -43.5t53 -120.5q0 -44 -23 -165l-33 -168
q-10 -48 -19 -113h-140zM339 172l24 119q-98 0 -165 -29.5t-67 -93.5q0 -28 19 -47t51 -19q31 0 62 16.5t76 53.5zM260 757q0 44 30.5 74.5t74.5 30.5q43 0 74 -31t31 -74q0 -44 -30.5 -74.5t-74.5 -30.5t-74.5 30.5t-30.5 74.5zM419 757q0 23 -15.5 38.5t-38.5 15.5
t-38.5 -15.5t-15.5 -38.5t15.5 -38.5t38.5 -15.5t38.5 15.5t15.5 38.5z" />
    <glyph glyph-name="ae" unicode="&#xe6;" horiz-adv-x="926" 
d="M197 419l-120 38q36 77 97 115t157 38q124 0 166 -87q27 43 78 65t111 22q100 0 152 -58.5t52 -170.5q0 -71 -17 -114h-371q-6 -28 -6 -61q0 -56 24 -87t67 -31q36 0 74.5 28t53.5 63l115 -41q-87 -150 -249 -150q-163 0 -201 109q-47 -47 -107.5 -78t-109.5 -31
q-78 0 -121.5 40.5t-43.5 112.5q0 133 134 194q88 39 257 39q10 40 10 66q0 38 -24.5 56t-56.5 18q-41 0 -74.5 -28t-46.5 -67zM519 363h230q5 11 5 39q0 50 -25.5 79t-68.5 29q-31 0 -57.5 -16t-43 -41.5t-26 -47.5t-14.5 -42zM350 172l24 112q-236 0 -236 -116
q0 -28 19 -47t51 -19q31 0 62 16t80 54z" />
    <glyph glyph-name="ccedilla" unicode="&#xe7;" horiz-adv-x="537" 
d="M135 -85l62 75q-95 13 -139.5 79t-44.5 150q0 65 19.5 131.5t55.5 125.5t97 96.5t136 37.5q99 0 150 -47t60 -119l-128 -34q0 49 -21.5 76.5t-62.5 27.5q-44 0 -77.5 -35t-50 -87t-24.5 -100t-8 -86q0 -62 25.5 -88t61.5 -26q44 0 77 38t36 67l124 -34
q-76 -175 -234 -175l-42 -48l2 -2q8 4 22 4q39 0 61 -19t22 -51q0 -36 -34.5 -63.5t-92.5 -27.5q-56 0 -112 27l24 41q49 -19 80 -19q21 0 36 10.5t15 27.5q0 32 -35 32q-25 0 -39 -9z" />
    <glyph glyph-name="egrave" unicode="&#xe8;" horiz-adv-x="593" 
d="M320 653l-120 112h113l80 -112h-73zM534 260h-380q-5 -19 -5 -54q0 -55 27.5 -86.5t71.5 -31.5q36 0 74.5 28t53.5 63l115 -41q-87 -150 -249 -150q-108 0 -168.5 61.5t-60.5 173.5q0 159 91 273t222 114q106 0 165.5 -62.5t59.5 -166.5q0 -66 -17 -121zM172 356h238
q5 17 5 46q0 50 -25.5 79t-68.5 29q-59 0 -98.5 -51t-50.5 -103z" />
    <glyph glyph-name="eacute" unicode="&#xe9;" horiz-adv-x="593" 
d="M277 656l90 112h117l-132 -112h-75zM534 260h-380q-5 -19 -5 -54q0 -55 27.5 -86.5t71.5 -31.5q36 0 74.5 28t53.5 63l115 -41q-87 -150 -249 -150q-108 0 -168.5 61.5t-60.5 173.5q0 159 91 273t222 114q106 0 165.5 -62.5t59.5 -166.5q0 -66 -17 -121zM172 356h238
q5 17 5 46q0 50 -25.5 79t-68.5 29q-59 0 -98.5 -51t-50.5 -103z" />
    <glyph glyph-name="ecircumflex" unicode="&#xea;" horiz-adv-x="593" 
d="M399 645l-40 60l-64 -60h-83l102 102h94l63 -102h-72zM534 260h-380q-5 -19 -5 -54q0 -55 27.5 -86.5t71.5 -31.5q36 0 74.5 28t53.5 63l115 -41q-87 -150 -249 -150q-108 0 -168.5 61.5t-60.5 173.5q0 159 91 273t222 114q106 0 165.5 -62.5t59.5 -166.5q0 -66 -17 -121
zM172 356h238q5 17 5 46q0 50 -25.5 79t-68.5 29q-59 0 -98.5 -51t-50.5 -103z" />
    <glyph glyph-name="edieresis" unicode="&#xeb;" horiz-adv-x="593" 
d="M534 260h-380q-5 -19 -5 -54q0 -55 27.5 -86.5t71.5 -31.5q36 0 74.5 28t53.5 63l115 -41q-87 -150 -249 -150q-108 0 -168.5 61.5t-60.5 173.5q0 159 91 273t222 114q106 0 165.5 -62.5t59.5 -166.5q0 -66 -17 -121zM172 356h238q5 17 5 46q0 50 -25.5 79t-68.5 29
q-59 0 -98.5 -51t-50.5 -103zM185 670l21 107h146l-21 -107h-146zM395 670l21 107h146l-21 -107h-146z" />
    <glyph glyph-name="igrave" unicode="&#xec;" horiz-adv-x="278" 
d="M160 653l-120 112h113l80 -112h-73zM-3 0l116 598h146l-116 -598h-146z" />
    <glyph glyph-name="iacute" unicode="&#xed;" horiz-adv-x="278" 
d="M137 656l90 112h117l-132 -112h-75zM-3 0l116 598h146l-116 -598h-146z" />
    <glyph glyph-name="icircumflex" unicode="&#xee;" horiz-adv-x="278" 
d="M-3 0l116 598h146l-116 -598h-146zM275 656l-56 85l-89 -85h-117l143 144h132l88 -144h-101z" />
    <glyph glyph-name="idieresis" unicode="&#xef;" horiz-adv-x="278" 
d="M-3 0l116 598h146l-116 -598h-146zM27 670l21 107h146l-21 -107h-146zM237 670l21 107h146l-21 -107h-146z" />
    <glyph glyph-name="eth" unicode="&#xf0;" 
d="M422 348q0 122 -104 122q-52 0 -91.5 -48.5t-56.5 -108.5t-17 -113q0 -116 103 -116q44 0 78 30t52 74t27 86t9 74zM378 739l118 55l38 -50l-112 -51q140 -155 140 -327q0 -157 -86 -267.5t-233 -110.5q-116 0 -173 64.5t-57 165.5q0 85 33.5 162.5t99 128.5t148.5 51
q50 0 93 -28l2 2q-27 54 -77 108l-120 -56l-38 48l111 52q-40 34 -62 49l101 65q31 -22 74 -61z" />
    <glyph glyph-name="ntilde" unicode="&#xf1;" horiz-adv-x="630" 
d="M1 0l116 598h146l-16 -84h2q113 96 202 96q52 0 89 -31t37 -90q0 -30 -10 -86.5t-49 -259.5q-18 -89 -28 -143h-146q83 402 83 425q0 63 -58 63q-34 0 -74.5 -23t-66.5 -51l-81 -414h-146zM260 664h-66q14 67 43 96t78 29q31 0 77 -21.5t55 -21.5q34 0 47 45h66
q-12 -68 -41.5 -96.5t-79.5 -28.5q-31 0 -76 21.5t-56 21.5q-32 0 -47 -45z" />
    <glyph glyph-name="ograve" unicode="&#xf2;" 
d="M340 653l-120 112h113l80 -112h-73zM13 214q0 72 21 141.5t60.5 127t103 92.5t140.5 35q99 0 168.5 -58.5t69.5 -159.5q0 -75 -21 -146t-61 -129t-105 -93.5t-145 -35.5q-114 0 -172.5 65t-58.5 161zM159 203q0 -53 27.5 -82t65.5 -29q45 0 81 30.5t56 77t30.5 94
t10.5 89.5q0 123 -101 123q-57 0 -97.5 -51.5t-56.5 -117.5t-16 -134z" />
    <glyph glyph-name="oacute" unicode="&#xf3;" 
d="M297 656l90 112h117l-132 -112h-75zM13 214q0 72 21 141.5t60.5 127t103 92.5t140.5 35q99 0 168.5 -58.5t69.5 -159.5q0 -75 -21 -146t-61 -129t-105 -93.5t-145 -35.5q-114 0 -172.5 65t-58.5 161zM159 203q0 -53 27.5 -82t65.5 -29q45 0 81 30.5t56 77t30.5 94
t10.5 89.5q0 123 -101 123q-57 0 -97.5 -51.5t-56.5 -117.5t-16 -134z" />
    <glyph glyph-name="ocircumflex" unicode="&#xf4;" 
d="M409 645l-40 60l-64 -60h-83l102 102h94l63 -102h-72zM13 214q0 72 21 141.5t60.5 127t103 92.5t140.5 35q99 0 168.5 -58.5t69.5 -159.5q0 -75 -21 -146t-61 -129t-105 -93.5t-145 -35.5q-114 0 -172.5 65t-58.5 161zM159 203q0 -53 27.5 -82t65.5 -29q45 0 81 30.5
t56 77t30.5 94t10.5 89.5q0 123 -101 123q-57 0 -97.5 -51.5t-56.5 -117.5t-16 -134z" />
    <glyph glyph-name="otilde" unicode="&#xf5;" 
d="M317 645h-45q16 88 83 88q23 0 54.5 -15.5t37.5 -15.5q23 0 34 32h45q-9 -47 -29.5 -67.5t-54.5 -20.5q-21 0 -53 15.5t-39 15.5q-21 0 -33 -32zM13 214q0 72 21 141.5t60.5 127t103 92.5t140.5 35q99 0 168.5 -58.5t69.5 -159.5q0 -75 -21 -146t-61 -129t-105 -93.5
t-145 -35.5q-114 0 -172.5 65t-58.5 161zM159 203q0 -53 27.5 -82t65.5 -29q45 0 81 30.5t56 77t30.5 94t10.5 89.5q0 123 -101 123q-57 0 -97.5 -51.5t-56.5 -117.5t-16 -134z" />
    <glyph glyph-name="odieresis" unicode="&#xf6;" 
d="M13 214q0 72 21 141.5t60.5 127t103 92.5t140.5 35q99 0 168.5 -58.5t69.5 -159.5q0 -75 -21 -146t-61 -129t-105 -93.5t-145 -35.5q-114 0 -172.5 65t-58.5 161zM159 203q0 -53 27.5 -82t65.5 -29q45 0 81 30.5t56 77t30.5 94t10.5 89.5q0 123 -101 123
q-57 0 -97.5 -51.5t-56.5 -117.5t-16 -134zM194 670l21 107h146l-21 -107h-146zM404 670l21 107h146l-21 -107h-146z" />
    <glyph glyph-name="divide" unicode="&#xf7;" horiz-adv-x="600" 
d="M32 205v96h506v-96h-506zM204 460q0 34 23.5 57.5t57.5 23.5t57.5 -23.5t23.5 -57.5t-23.5 -57.5t-57.5 -23.5t-57.5 23.5t-23.5 57.5zM204 46q0 34 23.5 57.5t57.5 23.5t57.5 -23.5t23.5 -57.5t-23.5 -57.5t-57.5 -23.5t-57.5 23.5t-23.5 57.5z" />
    <glyph glyph-name="oslash" unicode="&#xf8;" 
d="M430 403l-264 -246q11 -31 34.5 -48t51.5 -17q82 0 130 94t48 217zM519 540l75 70l27 -29l-77 -73q32 -50 32 -116q0 -75 -21 -146t-61 -129t-105 -93.5t-145 -35.5q-119 0 -180 74l-75 -70l-27 29l79 74q-28 52 -28 119q0 72 21 141.5t60.5 127t103 92.5t140.5 35
q111 0 181 -70zM159 205l261 243q-21 58 -91 58q-43 0 -77 -29.5t-53.5 -76t-29.5 -97t-10 -98.5z" />
    <glyph glyph-name="ugrave" unicode="&#xf9;" 
d="M336 653l-120 112h113l80 -112h-73zM368 184l81 414h146l-116 -598h-146l16 84h-2q-50 -46 -103.5 -71t-93.5 -25q-53 0 -89.5 33t-36.5 100q0 30 57 320q18 97 30 157h146q-83 -402 -83 -425q0 -63 58 -63q35 0 73.5 22.5t62.5 51.5z" />
    <glyph glyph-name="uacute" unicode="&#xfa;" 
d="M302 656l90 112h117l-132 -112h-75zM368 184l81 414h146l-116 -598h-146l16 84h-2q-50 -46 -103.5 -71t-93.5 -25q-53 0 -89.5 33t-36.5 100q0 30 57 320q18 97 30 157h146q-83 -402 -83 -425q0 -63 58 -63q35 0 73.5 22.5t62.5 51.5z" />
    <glyph glyph-name="ucircumflex" unicode="&#xfb;" 
d="M368 184l81 414h146l-116 -598h-146l16 84h-2q-50 -46 -103.5 -71t-93.5 -25q-53 0 -89.5 33t-36.5 100q0 30 57 320q18 97 30 157h146q-83 -402 -83 -425q0 -63 58 -63q35 0 73.5 22.5t62.5 51.5zM442 656l-56 85l-89 -85h-117l143 144h132l88 -144h-101z" />
    <glyph glyph-name="udieresis" unicode="&#xfc;" 
d="M368 184l81 414h146l-116 -598h-146l16 84h-2q-50 -46 -103.5 -71t-93.5 -25q-53 0 -89.5 33t-36.5 100q0 30 57 320q18 97 30 157h146q-83 -402 -83 -425q0 -63 58 -63q35 0 73.5 22.5t62.5 51.5zM188 670l21 107h146l-21 -107h-146zM398 670l21 107h146l-21 -107h-146z
" />
    <glyph glyph-name="yacute" unicode="&#xfd;" horiz-adv-x="556" 
d="M263 656l90 112h117l-132 -112h-75zM141 10l-96 588h151l29 -261q8 -73 8 -192h4q46 114 78 181l136 272h151l-355 -661q-75 -139 -203 -139q-61 0 -101 15l28 109q28 -14 52 -14q42 0 67.5 22t50.5 80z" />
    <glyph glyph-name="thorn" unicode="&#xfe;" horiz-adv-x="630" 
d="M231 434l-54 -276q45 -66 103 -66q49 0 86.5 48t55 114t17.5 132q0 56 -23.5 85t-65.5 29q-49 0 -119 -66zM-36 -195l188 972h146l-48 -249h2q27 37 72.5 59.5t92.5 22.5q70 0 119 -54.5t49 -166.5q0 -155 -75.5 -278t-183.5 -123q-56 0 -94 19.5t-71 62.5l-51 -265h-146
z" />
    <glyph glyph-name="ydieresis" unicode="&#xff;" horiz-adv-x="556" 
d="M141 10l-96 588h151l29 -261q8 -73 8 -192h4q46 114 78 181l136 272h151l-355 -661q-75 -139 -203 -139q-61 0 -101 15l28 109q28 -14 52 -14q42 0 67.5 22t50.5 80zM166 670l21 107h146l-21 -107h-146zM376 670l21 107h146l-21 -107h-146z" />
    <glyph glyph-name="glyph271" unicode="&#x102;" horiz-adv-x="722" 
d="M500 0l-25 164h-293l-91 -164h-160l409 712h189l121 -712h-150zM242 274h216l-34 218q-9 50 -11 106h-4q-26 -73 -65 -140zM333 862h49q5 -58 72 -58q64 0 84 58h52q-13 -47 -49 -79t-93 -32q-49 0 -81.5 28.5t-33.5 82.5z" />
    <glyph glyph-name="glyph272" unicode="&#x103;" horiz-adv-x="574" 
d="M309 0l14 81l-2 2q-63 -53 -103.5 -74t-84.5 -21q-66 0 -104 43.5t-38 109.5q0 69 36.5 118.5t97.5 77.5q83 37 253 37q10 40 10 66q0 38 -23 56t-54 18q-41 0 -74.5 -28t-46.5 -67l-120 38q36 77 97 115t157 38q94 0 147 -43.5t53 -120.5q0 -44 -23 -165l-33 -168
q-10 -48 -19 -113h-140zM339 172l24 119q-98 0 -165 -29.5t-67 -93.5q0 -28 19 -47t51 -19q31 0 62 16.5t76 53.5zM219 753h47q5 -55 68 -55q61 0 80 55h50q-14 -45 -47.5 -75t-87.5 -30q-47 0 -78 27t-32 78z" />
    <glyph glyph-name="Cacute" unicode="&#x106;" horiz-adv-x="711" 
d="M484 223l132 -31q-70 -209 -308 -209q-74 0 -129.5 24t-86.5 65t-46 88.5t-15 100.5q0 45 10.5 100t38.5 121.5t69.5 120t111.5 90t157 36.5q116 0 181 -54t77 -148l-141 -27q-17 115 -120 115q-52 0 -94 -30t-66.5 -73.5t-40.5 -96t-21.5 -92t-5.5 -68.5
q0 -74 33.5 -116t98.5 -42q57 0 96.5 30t68.5 96zM273 911l112 144h165l-173 -144h-104z" />
    <glyph glyph-name="cacute" unicode="&#x107;" horiz-adv-x="441" 
d="M359 197l124 -34q-76 -175 -246 -175q-61 0 -106 20.5t-70 55t-36.5 73.5t-11.5 82q0 65 19.5 131.5t55.5 125.5t97 96.5t136 37.5q99 0 150 -47t60 -119l-128 -34q0 49 -21.5 76.5t-62.5 27.5q-44 0 -77.5 -35t-50 -87t-24.5 -100t-8 -86q0 -62 25.5 -88t61.5 -26
q44 0 77 38t36 67zM76 656l112 144h165l-173 -144h-104z" />
    <glyph glyph-name="Ccaron" unicode="&#x10c;" horiz-adv-x="711" 
d="M484 223l132 -31q-70 -209 -308 -209q-74 0 -129.5 24t-86.5 65t-46 88.5t-15 100.5q0 45 10.5 100t38.5 121.5t69.5 120t111.5 90t157 36.5q116 0 181 -54t77 -148l-141 -27q-17 115 -120 115q-52 0 -94 -30t-66.5 -73.5t-40.5 -96t-21.5 -92t-5.5 -68.5
q0 -74 33.5 -116t98.5 -42q57 0 96.5 30t68.5 96zM266 968l82 -102l82 102h65l-113 -139h-67l-114 139h65z" />
    <glyph glyph-name="ccaron" unicode="&#x10d;" horiz-adv-x="441" 
d="M359 197l124 -34q-76 -175 -246 -175q-61 0 -106 20.5t-70 55t-36.5 73.5t-11.5 82q0 65 19.5 131.5t55.5 125.5t97 96.5t136 37.5q99 0 150 -47t60 -119l-128 -34q0 49 -21.5 76.5t-62.5 27.5q-44 0 -77.5 -35t-50 -87t-24.5 -100t-8 -86q0 -62 25.5 -88t61.5 -26
q44 0 77 38t36 67zM69 713l82 -102l82 102h65l-113 -139h-67l-114 139h65z" />
    <glyph glyph-name="Dslash" unicode="&#x110;" horiz-adv-x="722" 
d="M85 412l57 300h240q146 0 224.5 -77t78.5 -214q0 -186 -113 -303.5t-295 -117.5h-273l68 348h-76l12 64h77zM222 348l-45 -234h115q95 0 166 86t71 224q0 82 -44 126t-131 44h-84l-35 -182h152l-12 -64h-153z" />
    <glyph glyph-name="dslash" unicode="&#x111;" horiz-adv-x="630" 
d="M379 646l15 62h92l14 69h146l-14 -69h137l-15 -62h-134l-125 -646h-146l13 66l-2 2q-74 -80 -165 -80q-70 0 -119 54.5t-49 166.5q0 155 75.5 278t183.5 123q56 0 94.5 -19.5t71.5 -62.5l22 118h-95zM381 164l54 276q-45 66 -103 66q-49 0 -86.5 -48t-55 -114t-17.5 -132
q0 -112 89 -112q51 0 119 64z" />
    <glyph glyph-name="Gbreve" unicode="&#x11e;" horiz-adv-x="767" 
d="M369 284l21 110h264l-65 -336q-45 -31 -119.5 -53t-149.5 -22q-135 0 -209 78t-74 186q0 65 14 130.5t45 129t75.5 112.5t111 79.5t145.5 30.5q62 0 112.5 -15.5t92.5 -58t57 -108.5l-144 -35q-21 103 -127 103q-52 0 -94 -29.5t-66 -72t-39.5 -94.5t-21 -91t-5.5 -68
q0 -167 142 -167q73 0 125 30l31 161h-122zM224 961h39q17 -81 105 -81t107 81h37q-14 -126 -149 -126q-60 0 -97.5 33.5t-41.5 92.5z" />
    <glyph glyph-name="gbreve" unicode="&#x11f;" horiz-adv-x="492" 
d="M635 598l-16 -80h-128q14 -15 25.5 -42t11.5 -48q0 -78 -68 -139.5t-186 -61.5q-41 0 -56 4q-20 -12 -20 -33q0 -15 30 -27t72.5 -23.5t85.5 -27t73 -46.5t30 -73q0 -83 -77 -143t-226 -60q-115 0 -176.5 39.5t-61.5 99.5q0 51 41.5 97t103.5 68q-23 19 -23 48
q0 57 80 101q-95 45 -95 148q0 84 72 147.5t181 63.5q62 0 96 -12h231zM400 430q0 40 -24.5 62t-67.5 22q-49 0 -85 -31t-36 -80q0 -80 96 -80q52 0 84.5 33t32.5 74zM357 -31q0 17 -7 27.5t-25.5 19t-37 13.5t-55.5 14.5t-67 19.5q-39 -19 -64 -46.5t-25 -55.5
q0 -34 30 -53.5t89 -19.5q86 0 124 24t38 57zM26 706h39q17 -81 105 -81t107 81h37q-14 -126 -149 -126q-60 0 -97.5 33.5t-41.5 92.5z" />
    <glyph glyph-name="glyph273" unicode="&#x128;" horiz-adv-x="296" 
d="M4 0l138 712h150l-138 -712h-150zM154 765h-49q9 50 31.5 72t58.5 22q24 0 57.5 -16.5t41.5 -16.5q26 0 36 34h49q-9 -51 -31 -72.5t-60 -21.5q-22 0 -57 16.5t-42 16.5q-23 0 -35 -34z" />
    <glyph glyph-name="glyph274" unicode="&#x129;" horiz-adv-x="278" 
d="M-3 0l116 598h146l-116 -598h-146zM126 655h-45q9 47 29.5 67.5t53.5 20.5q23 0 54.5 -15.5t37.5 -15.5q23 0 34 32h45q-9 -47 -29.5 -67.5t-54.5 -20.5q-21 0 -53 15.5t-39 15.5q-21 0 -33 -32z" />
    <glyph glyph-name="Idot" unicode="&#x130;" horiz-adv-x="429" 
d="M4 0l138 712h150l-138 -712h-150zM226 839h-65v102h65v-102z" />
    <glyph glyph-name="dotlessi" unicode="&#x131;" horiz-adv-x="222" 
d="M138 518v-518h-60v518h60z" />
    <glyph glyph-name="Lslash" unicode="&#x141;" horiz-adv-x="556" 
d="M535 58v-58h-454v360l-81 -40v60l81 40v300h68v-250l81 40v-60l-81 -40v-352h386z" />
    <glyph glyph-name="lslash" unicode="&#x142;" horiz-adv-x="222" 
d="M141 390v-390h-60v340l-71 -40v60l71 40v320h60v-270l71 40v-60z" />
    <glyph glyph-name="OE" unicode="&#x152;" horiz-adv-x="944" 
d="M581 114h275l-22 -114h-479q-147 0 -231 74t-84 219q0 82 28.5 158t81.5 136.5t136 97t184 36.5q46 0 104 -5q47 -4 103 -4h282l-22 -114h-262l-34 -175h246l-22 -114h-246zM438 118l93 480q-31 5 -69 5q-66 0 -118.5 -27t-84 -70.5t-47.5 -94t-16 -102.5q0 -50 11.5 -85
t30.5 -55.5t51.5 -32t66 -15t82.5 -3.5z" />
    <glyph glyph-name="oe" unicode="&#x153;" horiz-adv-x="981" 
d="M430 403q0 47 -28 75t-73 28q-57 0 -97.5 -51.5t-56.5 -117.5t-16 -134q0 -53 27.5 -82t65.5 -29q55 0 97 48t61.5 117.5t19.5 145.5zM13 214q0 72 21 141.5t60.5 127t103 92.5t140.5 35q144 0 190 -96q68 96 192 96q106 0 165.5 -62.5t59.5 -166.5q0 -66 -17 -121h-380
q-5 -19 -5 -54q0 -55 27.5 -86.5t71.5 -31.5q36 0 74.5 28t53.5 63l115 -41q-87 -150 -249 -150q-150 0 -190 96q-35 -44 -89.5 -70t-112.5 -26q-114 0 -172.5 65t-58.5 161zM566 356h238q5 17 5 46q0 50 -25.5 79t-68.5 29q-59 0 -98.5 -51t-50.5 -103z" />
    <glyph glyph-name="Scedilla" unicode="&#x15e;" horiz-adv-x="656" 
d="M-4 153l135 43q10 -52 39.5 -77.5t85.5 -25.5q52 0 89 30.5t37 73.5q0 35 -26.5 57t-117.5 65q-86 40 -121 83.5t-35 105.5q0 37 15 73.5t45 71t85.5 55.5t128.5 21q109 0 167.5 -44.5t62.5 -107.5l-136 -38q0 38 -28.5 60.5t-72.5 22.5q-54 0 -85.5 -29t-31.5 -65
t31 -62t75 -44t88 -40t75 -63t31 -99q0 -43 -16.5 -83.5t-49.5 -76t-90.5 -56.5t-132.5 -21q-60 0 -108 14t-87.5 53.5t-51.5 102.5zM23 -109l-21 24l69 85h55l-52 -60l2 -2q8 4 22 4q39 0 61 -19t22 -51q0 -36 -34.5 -63.5t-92.5 -27.5q-56 0 -112 27l24 41q49 -19 80 -19
q21 0 36 10.5t15 27.5q0 32 -35 32q-26 0 -39 -9z" />
    <glyph glyph-name="scedilla" unicode="&#x15f;" horiz-adv-x="383" 
d="M-19 140l127 37q0 -38 27 -63.5t67 -25.5q52 0 78.5 27t26.5 59q0 28 -26.5 45t-64 28t-75 26t-64 50t-26.5 90q0 81 65 139t175 58q87 0 138.5 -39t69.5 -100l-123 -36q-13 75 -90 75q-47 0 -71 -24.5t-24 -54.5q0 -26 27.5 -43t66.5 -28t78 -26t66.5 -49t27.5 -86
q0 -89 -68 -150t-190 -61q-94 0 -145.5 38.5t-72.5 113.5zM-72 -109l-21 24l69 85h55l-52 -60l2 -2q8 4 22 4q39 0 61 -19t22 -51q0 -36 -34.5 -63.5t-92.5 -27.5q-56 0 -112 27l24 41q49 -19 80 -19q21 0 36 10.5t15 27.5q0 32 -35 32q-25 0 -39 -9z" />
    <glyph glyph-name="Scaron" unicode="&#x160;" 
d="M-4 153l135 43q10 -52 39.5 -77.5t85.5 -25.5q52 0 89 30.5t37 73.5q0 35 -26.5 57t-117.5 65q-86 40 -121 83.5t-35 105.5q0 37 15 73.5t45 71t85.5 55.5t128.5 21q109 0 167.5 -44.5t62.5 -107.5l-136 -38q0 38 -28.5 60.5t-72.5 22.5q-54 0 -85.5 -29t-31.5 -65
t31 -62t75 -44t88 -40t75 -63t31 -99q0 -43 -16.5 -83.5t-49.5 -76t-90.5 -56.5t-132.5 -21q-60 0 -108 14t-87.5 53.5t-51.5 102.5zM370 829l92 85h111l-141 -144h-132l-86 144h96z" />
    <glyph glyph-name="scaron" unicode="&#x161;" horiz-adv-x="519" 
d="M-19 140l127 37q0 -38 27 -63.5t67 -25.5q52 0 78.5 27t26.5 59q0 28 -26.5 45t-64 28t-75 26t-64 50t-26.5 90q0 81 65 139t175 58q87 0 138.5 -39t69.5 -100l-123 -36q-13 75 -90 75q-47 0 -71 -24.5t-24 -54.5q0 -26 27.5 -43t66.5 -28t78 -26t66.5 -49t27.5 -86
q0 -89 -68 -150t-190 -61q-94 0 -145.5 38.5t-72.5 113.5zM324 715l92 85h111l-141 -144h-132l-86 144h96z" />
    <glyph glyph-name="ch903" unicode="&#x168;" horiz-adv-x="704" 
d="M561 712h146l-86 -446q-27 -142 -103.5 -212.5t-225.5 -70.5q-115 0 -181 55.5t-66 167.5q0 59 91 506h150q-62 -316 -76.5 -401.5t-14.5 -120.5q0 -47 30.5 -72t84.5 -25q68 0 109 44.5t59 140.5zM367 764h-49q9 50 31.5 72t58.5 22q24 0 57.5 -16.5t41.5 -16.5
q26 0 36 34h49q-9 -51 -31 -72.5t-60 -21.5q-23 0 -57 16.5t-42 16.5q-23 0 -35 -34z" />
    <glyph glyph-name="ch904" unicode="&#x169;" 
d="M368 184l81 414h146l-116 -598h-146l16 84h-2q-50 -46 -103.5 -71t-93.5 -25q-53 0 -89.5 33t-36.5 100q0 30 57 320q18 97 30 157h146q-83 -402 -83 -425q0 -63 58 -63q35 0 73.5 22.5t62.5 51.5zM306 655h-45q9 47 29.5 67.5t53.5 20.5q23 0 54.5 -15.5t37.5 -15.5
q23 0 34 32h45q-9 -47 -29.5 -67.5t-54.5 -20.5q-21 0 -53 15.5t-39 15.5q-21 0 -33 -32z" />
    <glyph glyph-name="Ydieresis" unicode="&#x178;" horiz-adv-x="667" 
d="M231 273l-168 439h160l81 -229q6 -15 23 -86h4q41 67 57 89l163 226h175l-344 -439l-51 -273h-150zM222 784l21 107h146l-21 -107h-146zM432 784l21 107h146l-21 -107h-146z" />
    <glyph glyph-name="Zcaron" unicode="&#x17d;" horiz-adv-x="574" 
d="M-16 131l427 463h-325l23 118h501l-25 -129l-435 -465h349l-23 -118h-517zM351 829l92 85h111l-141 -144h-132l-86 144h96z" />
    <glyph glyph-name="zcaron" unicode="&#x17e;" horiz-adv-x="519" 
d="M-27 106l362 396q-36 -4 -76 -4h-200l19 100h453l-20 -105l-366 -397q36 4 76 4h222l-19 -100h-472zM324 715l92 85h111l-141 -144h-132l-86 144h96z" />
    <glyph glyph-name="florin" unicode="&#x192;" horiz-adv-x="592" 
d="M-28 -112l52 86q28 -13 46 -13q54 0 75 90l72 305h-113l15 80h117l31 135q17 75 67 116.5t125 41.5q69 0 109 -28l-56 -84q-25 16 -49 16t-41.5 -17.5t-24.5 -47.5l-33 -132h116l-15 -80h-120l-76 -322q-18 -72 -67 -122.5t-114 -50.5q-54 0 -116 27z" />
    <glyph glyph-name="glyph277" unicode="&#x1a0;" horiz-adv-x="740" 
d="M672 603q37 -65 37 -154q0 -88 -26 -170t-75.5 -148.5t-130 -107t-180.5 -40.5q-112 0 -189 71t-77 201q0 198 114 336t272 138q154 0 232 -93q29 15 30 34q1 22 -8 32t-24 12t-6 36q9 28 48 21q44 -13 59.5 -45.5t-6.5 -83.5q-18 -26 -70 -39zM553 451q0 78 -36 119
t-102 41q-103 0 -168.5 -104t-65.5 -256q0 -71 36 -114.5t98 -43.5q78 0 134 58t80 136.5t24 163.5z" />
    <glyph glyph-name="glyph278" unicode="&#x1a1;" 
d="M547 505l-1 -1q30 -49 30 -112q0 -75 -21 -146t-61 -129t-105 -93.5t-145 -35.5q-114 0 -172.5 65t-58.5 161q0 72 21 141.5t60.5 127t103 92.5t140.5 35q117 0 184 -75q40 40 14 59q-10 10 -26 13q-14 3 -5 36q9 26 46 20q44 -11 59 -49q16 -37 -8 -75q-14 -20 -55 -34z
M159 203q0 -53 27.5 -82t65.5 -29q45 0 81 30.5t56 77t30.5 94t10.5 89.5q0 123 -101 123q-57 0 -97.5 -51.5t-56.5 -117.5t-16 -134z" />
    <glyph glyph-name="glyph279" unicode="&#x1af;" horiz-adv-x="704" 
d="M694 646l-73 -380q-27 -142 -103.5 -212.5t-225.5 -70.5q-115 0 -181 55.5t-66 167.5q0 59 91 506h150q-43 -210 -64 -325.5t-24 -142t-3 -54.5q0 -47 30.5 -72t84.5 -25q68 0 109 44.5t59 140.5l83 434l122 -16q29 2 29 15q11 25 -16 35q-26 10 -9 45q10 25 48 14
q45 -15 55 -52t-20 -71q-21 -21 -76 -36z" />
    <glyph glyph-name="glyph280" unicode="&#x1b0;" horiz-adv-x="610" 
d="M588 542v1l-109 -543h-146l16 84h-2q-50 -46 -103.5 -71t-93.5 -25q-53 0 -89.5 33t-36.5 100q0 30 57 320q18 97 30 157h146q-83 -402 -83 -425q0 -63 58 -63q35 0 73.5 22.5t62.5 51.5l81 414l120 -21l24 18q15 28 -13 35q-28 9 -12 43q9 25 46 13q42 -15 51 -51
q9 -35 -19 -63q-14 -17 -58 -30z" />
    <glyph glyph-name="circumflex" unicode="&#x2c6;" horiz-adv-x="278" 
d="M275 656l-56 85l-89 -85h-117l143 144h132l88 -144h-101z" />
    <glyph glyph-name="caron" unicode="&#x2c7;" horiz-adv-x="333" 
d="M89 713l82 -102l82 102h65l-113 -139h-67l-114 139h65z" />
    <glyph glyph-name="breve" unicode="&#x2d8;" horiz-adv-x="333" 
d="M28 706h39q17 -81 105 -81t107 81h37q-14 -126 -149 -126q-60 0 -97.5 33.5t-41.5 92.5z" />
    <glyph glyph-name="dotaccent" unicode="&#x2d9;" horiz-adv-x="333" 
d="M199 584h-65v102h65v-102z" />
    <glyph glyph-name="ring" unicode="&#x2da;" horiz-adv-x="333" 
d="M167 578q-40 0 -71 29q-29 31 -29 70q0 40 30 70t70 30t69.5 -30t29.5 -70q0 -39 -29 -70q-29 -29 -70 -29zM167 611q26 0 46 20t20 46q0 27 -19.5 47t-46.5 20t-47 -20t-20 -47t20 -46.5t47 -19.5z" />
    <glyph glyph-name="ogonek" unicode="&#x2db;" horiz-adv-x="333" 
d="M149 0h50v-2q-80 -41 -80 -87q0 -28 21 -43q19 -14 46 -14q21 0 42 9v-44q-25 -9 -52 -9q-42 0 -70 22q-32 24 -32 65q0 65 75 103z" />
    <glyph glyph-name="tilde" unicode="&#x2dc;" horiz-adv-x="278" 
d="M96 664h-66q14 67 43 96t78 29q31 0 77 -21.5t55 -21.5q34 0 47 45h66q-12 -68 -41.5 -96.5t-79.5 -28.5q-31 0 -76 21.5t-56 21.5q-32 0 -47 -45z" />
    <glyph glyph-name="hungarumlaut" unicode="&#x2dd;" horiz-adv-x="333" 
d="M297 713l-137 -139h-51l111 139h77zM459 713l-137 -139h-51l111 139h77z" />
    <glyph glyph-name="increment" unicode="&#x394;" horiz-adv-x="1000" 
 />
    <glyph glyph-name="increment" unicode="&#x2206;" horiz-adv-x="1000" 
 />
    <glyph glyph-name="Omega" unicode="&#x3a9;" horiz-adv-x="1000" 
 />
    <glyph glyph-name="Omega" unicode="&#x2126;" horiz-adv-x="1000" 
 />
    <glyph glyph-name="pi" unicode="&#x3c0;" horiz-adv-x="1000" 
 />
    <glyph glyph-name="glyph281" unicode="&#x1ea0;" horiz-adv-x="722" 
d="M500 0l-25 164h-293l-91 -164h-160l409 712h189l121 -712h-150zM242 274h216l-34 218q-9 50 -11 106h-4q-26 -73 -65 -140zM200 -157l21 106h103l-21 -106h-103z" />
    <glyph glyph-name="glyph282" unicode="&#x1ea1;" horiz-adv-x="574" 
d="M309 0l14 81l-2 2q-63 -53 -103.5 -74t-84.5 -21q-66 0 -104 43.5t-38 109.5q0 69 36.5 118.5t97.5 77.5q83 37 253 37q10 40 10 66q0 38 -23 56t-54 18q-41 0 -74.5 -28t-46.5 -67l-120 38q36 77 97 115t157 38q94 0 147 -43.5t53 -120.5q0 -44 -23 -165l-33 -168
q-10 -48 -19 -113h-140zM339 172l24 119q-98 0 -165 -29.5t-67 -93.5q0 -28 19 -47t51 -19q31 0 62 16.5t76 53.5zM183 -154l20 100h98l-20 -100h-98z" />
    <glyph glyph-name="glyph283" unicode="&#x1ea2;" horiz-adv-x="722" 
d="M500 0l-25 164h-293l-91 -164h-160l409 712h189l121 -712h-150zM242 274h216l-34 218q-9 50 -11 106h-4q-26 -73 -65 -140zM462 755h-48q-7 39 21 58t26 45q-1 25 -29 24q-27 0 -29 32q0 28 28 35q49 2 76.5 -21t29.5 -62q-10 -48 -44 -64t-31 -47z" />
    <glyph glyph-name="glyph284" unicode="&#x1ea3;" horiz-adv-x="574" 
d="M309 0l14 81l-2 2q-63 -53 -103.5 -74t-84.5 -21q-66 0 -104 43.5t-38 109.5q0 69 36.5 118.5t97.5 77.5q83 37 253 37q10 40 10 66q0 38 -23 56t-54 18q-41 0 -74.5 -28t-46.5 -67l-120 38q36 77 97 115t157 38q94 0 147 -43.5t53 -120.5q0 -44 -23 -165l-33 -168
q-10 -48 -19 -113h-140zM339 172l24 119q-98 0 -165 -29.5t-67 -93.5q0 -28 19 -47t51 -19q31 0 62 16.5t76 53.5zM353 643h-45q-6 36 20 54t24 41t-27 22q-25 0 -27 29q0 24 26 32q45 2 70.5 -19t27.5 -57q-11 -45 -41 -59q-31 -15 -28 -43z" />
    <glyph glyph-name="glyph285" unicode="&#x1ea4;" horiz-adv-x="722" 
d="M500 738l-40 60l-64 -60h-83l102 102h94l63 -102h-72zM560 802l88 110h115l-130 -110h-73zM500 0l-25 164h-293l-91 -164h-160l409 712h189l121 -712h-150zM242 274h216l-34 218q-9 50 -11 106h-4q-26 -73 -65 -140z" />
    <glyph glyph-name="glyph286" unicode="&#x1ea5;" horiz-adv-x="574" 
d="M309 0l14 81l-2 2q-63 -53 -103.5 -74t-84.5 -21q-66 0 -104 43.5t-38 109.5q0 69 36.5 118.5t97.5 77.5q83 37 253 37q10 40 10 66q0 38 -23 56t-54 18q-41 0 -74.5 -28t-46.5 -67l-120 38q36 77 97 115t157 38q94 0 147 -43.5t53 -120.5q0 -44 -23 -165l-33 -168
q-10 -48 -19 -113h-140zM339 172l24 119q-98 0 -165 -29.5t-67 -93.5q0 -28 19 -47t51 -19q31 0 62 16.5t76 53.5zM385 640l-35 51l-55 -51h-72l89 88h81l54 -88h-62zM437 695l76 95h100l-113 -95h-63z" />
    <glyph glyph-name="glyph287" unicode="&#x1ea6;" horiz-adv-x="722" 
d="M500 738l-40 60l-64 -60h-83l102 102h94l63 -102h-72zM276 802l-119 110h112l79 -110h-72zM500 0l-25 164h-293l-91 -164h-160l409 712h189l121 -712h-150zM242 274h216l-34 218q-9 50 -11 106h-4q-26 -73 -65 -140z" />
    <glyph glyph-name="glyph288" unicode="&#x1ea7;" horiz-adv-x="574" 
d="M309 0l14 81l-2 2q-63 -53 -103.5 -74t-84.5 -21q-66 0 -104 43.5t-38 109.5q0 69 36.5 118.5t97.5 77.5q83 37 253 37q10 40 10 66q0 38 -23 56t-54 18q-41 0 -74.5 -28t-46.5 -67l-120 38q36 77 97 115t157 38q94 0 147 -43.5t53 -120.5q0 -44 -23 -165l-33 -168
q-10 -48 -19 -113h-140zM339 172l24 119q-98 0 -165 -29.5t-67 -93.5q0 -28 19 -47t51 -19q31 0 62 16.5t76 53.5zM412 633l-38 57l-60 -57h-78l96 96h88l60 -96h-68zM201 693l-112 104h106l74 -104h-68z" />
    <glyph glyph-name="glyph289" unicode="&#x1ea8;" horiz-adv-x="722" 
d="M500 738l-40 60l-64 -60h-83l102 102h94l63 -102h-72zM603 800h-45q-6 33 20 51t24 41t-27 22q-25 0 -27 29q0 24 26 32q45 2 70.5 -19t27.5 -57q-11 -45 -41 -59q-31 -15 -28 -40zM500 0l-25 164h-293l-91 -164h-160l409 712h189l121 -712h-150zM242 274h216l-34 218
q-9 50 -11 106h-4q-26 -73 -65 -140z" />
    <glyph glyph-name="glyph290" unicode="&#x1ea9;" horiz-adv-x="574" 
d="M309 0l14 81l-2 2q-63 -53 -103.5 -74t-84.5 -21q-66 0 -104 43.5t-38 109.5q0 69 36.5 118.5t97.5 77.5q83 37 253 37q10 40 10 66q0 38 -23 56t-54 18q-41 0 -74.5 -28t-46.5 -67l-120 38q36 77 97 115t157 38q94 0 147 -43.5t53 -120.5q0 -44 -23 -165l-33 -168
q-10 -48 -19 -113h-140zM339 172l24 119q-98 0 -165 -29.5t-67 -93.5q0 -28 19 -47t51 -19q31 0 62 16.5t76 53.5zM410 635l-38 57l-60 -57h-78l96 96h88l59 -96h-67zM506 693h-42q-6 31 18 48q25 16 23 39q-1 22 -25 21q-24 0 -25 27q0 22 24 30q42 2 66 -18t26 -53
q-9 -42 -38 -56t-27 -38z" />
    <glyph glyph-name="glyph291" unicode="&#x1eaa;" horiz-adv-x="722" 
d="M500 738l-40 60l-64 -60h-83l102 102h94l63 -102h-72zM404 868h-45q9 46 29 66t54 20q21 0 52.5 -15t38.5 -15q26 0 33 31h45q-9 -46 -29.5 -66t-54.5 -20q-20 0 -52 15t-39 15q-22 0 -32 -31zM500 0l-25 164h-293l-91 -164h-160l409 712h189l121 -712h-150zM242 274h216
l-34 218q-9 50 -11 106h-4q-26 -73 -65 -140z" />
    <glyph glyph-name="glyph292" unicode="&#x1eab;" horiz-adv-x="574" 
d="M309 0l14 81l-2 2q-63 -53 -103.5 -74t-84.5 -21q-66 0 -104 43.5t-38 109.5q0 69 36.5 118.5t97.5 77.5q83 37 253 37q10 40 10 66q0 38 -23 56t-54 18q-41 0 -74.5 -28t-46.5 -67l-120 38q36 77 97 115t157 38q94 0 147 -43.5t53 -120.5q0 -44 -23 -165l-33 -168
q-10 -48 -19 -113h-140zM339 172l24 119q-98 0 -165 -29.5t-67 -93.5q0 -28 19 -47t51 -19q31 0 62 16.5t76 53.5zM398 635l-38 56l-60 -56h-78l96 95h88l59 -95h-67zM307 757h-42q15 81 78 81q20 0 49.5 -14.5t36.5 -14.5q22 0 31 29h42q-8 -43 -27.5 -61.5t-51.5 -18.5
q-20 0 -49 14t-36 14q-20 0 -31 -29z" />
    <glyph glyph-name="glyph293" unicode="&#x1eac;" horiz-adv-x="722" 
d="M500 738l-40 60l-64 -60h-83l102 102h94l63 -102h-72zM200 -157l21 106h103l-21 -106h-103zM500 0l-25 164h-293l-91 -164h-160l409 712h189l121 -712h-150zM242 274h216l-34 218q-9 50 -11 106h-4q-26 -73 -65 -140z" />
    <glyph glyph-name="glyph294" unicode="&#x1ead;" horiz-adv-x="574" 
d="M309 0l14 81l-2 2q-63 -53 -103.5 -74t-84.5 -21q-66 0 -104 43.5t-38 109.5q0 69 36.5 118.5t97.5 77.5q83 37 253 37q10 40 10 66q0 38 -23 56t-54 18q-41 0 -74.5 -28t-46.5 -67l-120 38q36 77 97 115t157 38q94 0 147 -43.5t53 -120.5q0 -44 -23 -165l-33 -168
q-10 -48 -19 -113h-140zM339 172l24 119q-98 0 -165 -29.5t-67 -93.5q0 -28 19 -47t51 -19q31 0 62 16.5t76 53.5zM392 636l-38 56l-60 -56h-78l96 96h88l59 -96h-67zM184 -144l19 100h97l-19 -100h-97z" />
    <glyph glyph-name="glyph295" unicode="&#x1eae;" horiz-adv-x="722" 
d="M500 0l-25 164h-293l-91 -164h-160l409 712h189l121 -712h-150zM242 274h216l-34 218q-9 50 -11 106h-4q-26 -73 -65 -140zM339 849h47q5 -55 68 -55q61 0 80 55h50q-14 -45 -47.5 -75t-87.5 -30q-47 0 -78 27t-32 78zM424 856l88 110h115l-130 -110h-73z" />
    <glyph glyph-name="glyph296" unicode="&#x1eaf;" horiz-adv-x="574" 
d="M309 0l14 81l-2 2q-63 -53 -103.5 -74t-84.5 -21q-66 0 -104 43.5t-38 109.5q0 69 36.5 118.5t97.5 77.5q83 37 253 37q10 40 10 66q0 38 -23 56t-54 18q-41 0 -74.5 -28t-46.5 -67l-120 38q36 77 97 115t157 38q94 0 147 -43.5t53 -120.5q0 -44 -23 -165l-33 -168
q-10 -48 -19 -113h-140zM339 172l24 119q-98 0 -165 -29.5t-67 -93.5q0 -28 19 -47t51 -19q31 0 62 16.5t76 53.5zM248 737h44q5 -51 64 -51q57 0 75 51h47q-14 -43 -45 -70.5t-82 -27.5q-44 0 -73 25t-30 73zM328 744l82 103h108l-122 -103h-68z" />
    <glyph glyph-name="glyph297" unicode="&#x1eb0;" horiz-adv-x="722" 
d="M500 0l-25 164h-293l-91 -164h-160l409 712h189l121 -712h-150zM242 274h216l-34 218q-9 50 -11 106h-4q-26 -73 -65 -140zM339 849h47q5 -55 68 -55q61 0 80 55h50q-14 -45 -47.5 -75t-87.5 -30q-47 0 -78 27t-32 78zM426 862l-119 110h112l79 -110h-72z" />
    <glyph glyph-name="glyph298" unicode="&#x1eb1;" horiz-adv-x="574" 
d="M309 0l14 81l-2 2q-63 -53 -103.5 -74t-84.5 -21q-66 0 -104 43.5t-38 109.5q0 69 36.5 118.5t97.5 77.5q83 37 253 37q10 40 10 66q0 38 -23 56t-54 18q-41 0 -74.5 -28t-46.5 -67l-120 38q36 77 97 115t157 38q94 0 147 -43.5t53 -120.5q0 -44 -23 -165l-33 -168
q-10 -48 -19 -113h-140zM339 172l24 119q-98 0 -165 -29.5t-67 -93.5q0 -28 19 -47t51 -19q31 0 62 16.5t76 53.5zM245 745h45q5 -52 63 -52t76 52h47q-31 -99 -127 -99q-45 0 -74 25t-30 74zM327 757l-112 103h106l74 -103h-68z" />
    <glyph glyph-name="glyph299" unicode="&#x1eb2;" horiz-adv-x="722" 
d="M500 0l-25 164h-293l-91 -164h-160l409 712h189l121 -712h-150zM242 274h216l-34 218q-9 50 -11 106h-4q-26 -73 -65 -140zM339 849h47q5 -55 68 -55q61 0 80 55h50q-14 -45 -47.5 -75t-87.5 -30q-47 0 -78 27t-32 78zM480 847h-45q-6 29 20 47t24 41t-27 22
q-25 0 -27 29q0 24 26 32q45 2 70.5 -19t27.5 -57q-11 -45 -41 -59q-31 -15 -28 -36z" />
    <glyph glyph-name="glyph300" unicode="&#x1eb3;" horiz-adv-x="574" 
d="M309 0l14 81l-2 2q-63 -53 -103.5 -74t-84.5 -21q-66 0 -104 43.5t-38 109.5q0 69 36.5 118.5t97.5 77.5q83 37 253 37q10 40 10 66q0 38 -23 56t-54 18q-41 0 -74.5 -28t-46.5 -67l-120 38q36 77 97 115t157 38q94 0 147 -43.5t53 -120.5q0 -44 -23 -165l-33 -168
q-10 -48 -19 -113h-140zM339 172l24 119q-98 0 -165 -29.5t-67 -93.5q0 -28 19 -47t51 -19q31 0 62 16.5t76 53.5zM251 747h45q5 -52 63 -52t76 52h47q-31 -99 -127 -99q-45 0 -74 25t-30 74zM384 745h-42q-6 27 18 44q25 16 23 38q-1 22 -26 21q-24 0 -25 28q0 23 25 30
q42 2 66 -18t26 -54q-11 -42 -39 -55q-29 -14 -26 -34z" />
    <glyph glyph-name="glyph301" unicode="&#x1eb4;" horiz-adv-x="722" 
d="M500 0l-25 164h-293l-91 -164h-160l409 712h189l121 -712h-150zM242 274h216l-34 218q-9 50 -11 106h-4q-26 -73 -65 -140zM339 849h47q5 -55 68 -55q61 0 80 55h50q-14 -45 -47.5 -75t-87.5 -30q-47 0 -78 27t-32 78zM394 872h-45q9 46 29 66t54 20q21 0 52.5 -15
t38.5 -15q26 0 33 31h45q-9 -46 -29.5 -66t-54.5 -20q-20 0 -52 15t-39 15q-22 0 -32 -31z" />
    <glyph glyph-name="glyph302" unicode="&#x1eb5;" horiz-adv-x="574" 
d="M309 0l14 81l-2 2q-63 -53 -103.5 -74t-84.5 -21q-66 0 -104 43.5t-38 109.5q0 69 36.5 118.5t97.5 77.5q83 37 253 37q10 40 10 66q0 38 -23 56t-54 18q-41 0 -74.5 -28t-46.5 -67l-120 38q36 77 97 115t157 38q94 0 147 -43.5t53 -120.5q0 -44 -23 -165l-33 -168
q-10 -48 -19 -113h-140zM339 172l24 119q-98 0 -165 -29.5t-67 -93.5q0 -28 19 -47t51 -19q31 0 62 16.5t76 53.5zM240 743h44q5 -52 64 -52q57 0 75 52h47q-31 -99 -127 -99q-44 0 -73 25t-30 74zM292 765h-43q9 44 28 62.5t50 18.5q20 0 49.5 -14.5t36.5 -14.5q22 0 31 30
h42q-8 -44 -27 -62.5t-52 -18.5q-20 0 -49 14t-36 14q-21 0 -30 -29z" />
    <glyph glyph-name="glyph303" unicode="&#x1eb6;" horiz-adv-x="722" 
d="M500 0l-25 164h-293l-91 -164h-160l409 712h189l121 -712h-150zM242 274h216l-34 218q-9 50 -11 106h-4q-26 -73 -65 -140zM339 849h47q5 -55 68 -55q61 0 80 55h50q-14 -45 -47.5 -75t-87.5 -30q-47 0 -78 27t-32 78zM200 -157l21 106h103l-21 -106h-103z" />
    <glyph glyph-name="glyph304" unicode="&#x1eb7;" horiz-adv-x="574" 
d="M309 0l14 81l-2 2q-63 -53 -103.5 -74t-84.5 -21q-66 0 -104 43.5t-38 109.5q0 69 36.5 118.5t97.5 77.5q83 37 253 37q10 40 10 66q0 38 -23 56t-54 18q-41 0 -74.5 -28t-46.5 -67l-120 38q36 77 97 115t157 38q94 0 147 -43.5t53 -120.5q0 -44 -23 -165l-33 -168
q-10 -48 -19 -113h-140zM339 172l24 119q-98 0 -165 -29.5t-67 -93.5q0 -28 19 -47t51 -19q31 0 62 16.5t76 53.5zM247 754h45q5 -52 63 -52t76 52h47q-31 -99 -127 -99q-45 0 -74 25t-30 74zM184 -164l19 100h97l-19 -100h-97z" />
    <glyph glyph-name="glyph305" unicode="&#x1eb8;" horiz-adv-x="593" 
d="M4 0l138 712h466l-22 -114h-319l-34 -175h301l-22 -114h-301l-38 -195h328l-22 -114h-475zM170 -157l21 106h103l-21 -106h-103z" />
    <glyph glyph-name="glyph306" unicode="&#x1eb9;" horiz-adv-x="593" 
d="M534 260h-380q-5 -19 -5 -54q0 -55 27.5 -86.5t71.5 -31.5q36 0 74.5 28t53.5 63l115 -41q-87 -150 -249 -150q-108 0 -168.5 61.5t-60.5 173.5q0 159 91 273t222 114q106 0 165.5 -62.5t59.5 -166.5q0 -66 -17 -121zM172 356h238q5 17 5 46q0 50 -25.5 79t-68.5 29
q-59 0 -98.5 -51t-50.5 -103zM163 -154l20 100h98l-20 -100h-98z" />
    <glyph glyph-name="glyph307" unicode="&#x1eba;" horiz-adv-x="593" 
d="M4 0l138 712h466l-22 -114h-319l-34 -175h301l-22 -114h-301l-38 -195h328l-22 -114h-475zM422 755h-48q-7 39 21 58t26 45q-1 25 -29 24q-27 0 -29 32q0 28 28 35q49 2 76.5 -21t29.5 -62q-10 -48 -44 -64t-31 -47z" />
    <glyph glyph-name="glyph308" unicode="&#x1ebb;" horiz-adv-x="593" 
d="M534 260h-380q-5 -19 -5 -54q0 -55 27.5 -86.5t71.5 -31.5q36 0 74.5 28t53.5 63l115 -41q-87 -150 -249 -150q-108 0 -168.5 61.5t-60.5 173.5q0 159 91 273t222 114q106 0 165.5 -62.5t59.5 -166.5q0 -66 -17 -121zM172 356h238q5 17 5 46q0 50 -25.5 79t-68.5 29
q-59 0 -98.5 -51t-50.5 -103zM357 653h-45q-6 36 20 54t24 41t-27 22q-25 0 -27 29q0 24 26 32q45 2 70.5 -19t27.5 -57q-11 -45 -41 -59q-31 -15 -28 -43z" />
    <glyph glyph-name="glyph309" unicode="&#x1ebc;" horiz-adv-x="593" 
d="M4 0l138 712h466l-22 -114h-319l-34 -175h301l-22 -114h-301l-38 -195h328l-22 -114h-475zM327 754h-49q9 50 31.5 72t58.5 22q24 0 57.5 -16.5t41.5 -16.5q26 0 36 34h49q-9 -51 -31 -72.5t-60 -21.5q-23 0 -57 16.5t-42 16.5q-23 0 -35 -34z" />
    <glyph glyph-name="glyph310" unicode="&#x1ebd;" horiz-adv-x="593" 
d="M534 260h-380q-5 -19 -5 -54q0 -55 27.5 -86.5t71.5 -31.5q36 0 74.5 28t53.5 63l115 -41q-87 -150 -249 -150q-108 0 -168.5 61.5t-60.5 173.5q0 159 91 273t222 114q106 0 165.5 -62.5t59.5 -166.5q0 -66 -17 -121zM172 356h238q5 17 5 46q0 50 -25.5 79t-68.5 29
q-59 0 -98.5 -51t-50.5 -103zM276 655h-45q9 47 29.5 67.5t53.5 20.5q23 0 54.5 -15.5t37.5 -15.5q23 0 34 32h45q-9 -47 -29.5 -67.5t-54.5 -20.5q-21 0 -53 15.5t-39 15.5q-21 0 -33 -32z" />
    <glyph glyph-name="glyph311" unicode="&#x1ebe;" horiz-adv-x="593" 
d="M460 742l-40 60l-64 -60h-83l102 102h94l63 -102h-72zM520 802l88 110h115l-130 -110h-73zM4 0l138 712h466l-22 -114h-319l-34 -175h301l-22 -114h-301l-38 -195h328l-22 -114h-475z" />
    <glyph glyph-name="glyph312" unicode="&#x1ebf;" horiz-adv-x="593" 
d="M534 260h-380q-5 -19 -5 -54q0 -55 27.5 -86.5t71.5 -31.5q36 0 74.5 28t53.5 63l115 -41q-87 -150 -249 -150q-108 0 -168.5 61.5t-60.5 173.5q0 159 91 273t222 114q106 0 165.5 -62.5t59.5 -166.5q0 -66 -17 -121zM172 356h238q5 17 5 46q0 50 -25.5 79t-68.5 29
q-59 0 -98.5 -51t-50.5 -103zM387 638l-37 56l-60 -56h-79l96 96h89l59 -96h-68zM444 694l82 104h108l-122 -104h-68z" />
    <glyph glyph-name="glyph313" unicode="&#x1ec0;" horiz-adv-x="593" 
d="M460 742l-40 60l-64 -60h-83l102 102h94l63 -102h-72zM236 802l-119 110h112l79 -110h-72zM4 0l138 712h466l-22 -114h-319l-34 -175h301l-22 -114h-301l-38 -195h328l-22 -114h-475z" />
    <glyph glyph-name="glyph314" unicode="&#x1ec1;" horiz-adv-x="593" 
d="M534 260h-380q-5 -19 -5 -54q0 -55 27.5 -86.5t71.5 -31.5q36 0 74.5 28t53.5 63l115 -41q-87 -150 -249 -150q-108 0 -168.5 61.5t-60.5 173.5q0 159 91 273t222 114q106 0 165.5 -62.5t59.5 -166.5q0 -66 -17 -121zM172 356h238q5 17 5 46q0 50 -25.5 79t-68.5 29
q-59 0 -98.5 -51t-50.5 -103zM396 644l-38 56l-60 -56h-78l96 96h88l60 -96h-68zM185 700l-112 104h106l74 -104h-68z" />
    <glyph glyph-name="glyph315" unicode="&#x1ec2;" horiz-adv-x="593" 
d="M460 742l-40 60l-64 -60h-83l102 102h94l63 -102h-72zM563 800h-45q-6 33 20 51t24 41t-27 22q-25 0 -27 29q0 24 26 32q45 2 70.5 -19t27.5 -57q-11 -45 -41 -59q-31 -15 -28 -40zM4 0l138 712h466l-22 -114h-319l-34 -175h301l-22 -114h-301l-38 -195h328l-22 -114
h-475z" />
    <glyph glyph-name="glyph316" unicode="&#x1ec3;" horiz-adv-x="593" 
d="M534 260h-380q-5 -19 -5 -54q0 -55 27.5 -86.5t71.5 -31.5q36 0 74.5 28t53.5 63l115 -41q-87 -150 -249 -150q-108 0 -168.5 61.5t-60.5 173.5q0 159 91 273t222 114q106 0 165.5 -62.5t59.5 -166.5q0 -66 -17 -121zM172 356h238q5 17 5 46q0 50 -25.5 79t-68.5 29
q-59 0 -98.5 -51t-50.5 -103zM399 641l-38 56l-60 -56h-78l96 96h88l59 -96h-67zM495 696h-42q-6 31 18 47q25 16 23 39q-1 22 -25 21q-23 0 -25 27q0 22 24 30q43 2 66.5 -17.5t25.5 -53.5q-9 -42 -38 -56t-27 -37z" />
    <glyph glyph-name="glyph317" unicode="&#x1ec4;" horiz-adv-x="593" 
d="M460 742l-40 60l-64 -60h-83l102 102h94l63 -102h-72zM364 868h-45q9 46 29 66t54 20q21 0 52.5 -15t38.5 -15q26 0 33 31h45q-9 -46 -29.5 -66t-54.5 -20q-20 0 -52 15t-39 15q-22 0 -32 -31zM4 0l138 712h466l-22 -114h-319l-34 -175h301l-22 -114h-301l-38 -195h328
l-22 -114h-475z" />
    <glyph glyph-name="glyph318" unicode="&#x1ec5;" horiz-adv-x="593" 
d="M534 260h-380q-5 -19 -5 -54q0 -55 27.5 -86.5t71.5 -31.5q36 0 74.5 28t53.5 63l115 -41q-87 -150 -249 -150q-108 0 -168.5 61.5t-60.5 173.5q0 159 91 273t222 114q106 0 165.5 -62.5t59.5 -166.5q0 -66 -17 -121zM172 356h238q5 17 5 46q0 50 -25.5 79t-68.5 29
q-59 0 -98.5 -51t-50.5 -103zM409 643l-38 57l-60 -57h-78l96 96h88l59 -96h-67zM318 762h-42q15 81 78 81q20 0 49.5 -14.5t36.5 -14.5q22 0 31 30h42q-8 -44 -27.5 -62.5t-51.5 -18.5q-20 0 -49 14t-36 14q-20 0 -31 -29z" />
    <glyph glyph-name="glyph319" unicode="&#x1ec6;" horiz-adv-x="593" 
d="M460 742l-40 60l-64 -60h-83l102 102h94l63 -102h-72zM160 -157l21 106h103l-21 -106h-103zM4 0l138 712h466l-22 -114h-319l-34 -175h301l-22 -114h-301l-38 -195h328l-22 -114h-475z" />
    <glyph glyph-name="glyph320" unicode="&#x1ec7;" horiz-adv-x="593" 
d="M534 260h-380q-5 -19 -5 -54q0 -55 27.5 -86.5t71.5 -31.5q36 0 74.5 28t53.5 63l115 -41q-87 -150 -249 -150q-108 0 -168.5 61.5t-60.5 173.5q0 159 91 273t222 114q106 0 165.5 -62.5t59.5 -166.5q0 -66 -17 -121zM172 356h238q5 17 5 46q0 50 -25.5 79t-68.5 29
q-59 0 -98.5 -51t-50.5 -103zM408 650l-38 56l-60 -56h-78l96 96h88l59 -96h-67zM164 -154l19 100h97l-19 -100h-97z" />
    <glyph glyph-name="glyph321" unicode="&#x1ec8;" horiz-adv-x="296" 
d="M4 0l138 712h150l-138 -712h-150zM262 755h-48q-7 39 21 58t26 45q-1 25 -29 24q-27 0 -29 32q0 28 28 35q49 2 76.5 -21t29.5 -62q-10 -48 -44 -64t-31 -47z" />
    <glyph glyph-name="glyph322" unicode="&#x1ec9;" horiz-adv-x="279" 
d="M-3 0l116 598h146l-116 -598h-146zM233 663h-45q-6 36 20 54t24 41t-27 22q-25 0 -27 29q0 24 26 32q45 2 70.5 -19t27.5 -57q-11 -45 -41 -59q-31 -15 -28 -43z" />
    <glyph glyph-name="glyph323" unicode="&#x1eca;" horiz-adv-x="296" 
d="M4 0l138 712h150l-138 -712h-150zM-20 -157l21 106h103l-21 -106h-103z" />
    <glyph glyph-name="glyph324" unicode="&#x1ecb;" horiz-adv-x="278" 
d="M-3 0l116 598h146l-116 -598h-146zM127 670l21 107h146l-21 -107h-146zM-7 -154l20 100h98l-20 -100h-98z" />
    <glyph glyph-name="glyph325" unicode="&#x1ecc;" horiz-adv-x="740" 
d="M31 255q0 198 114 336t272 138q145 0 218.5 -78t73.5 -202q0 -88 -26 -170t-75.5 -148.5t-130 -107t-180.5 -40.5q-112 0 -189 71t-77 201zM553 451q0 78 -36 119t-102 41q-103 0 -168.5 -104t-65.5 -256q0 -71 36 -114.5t98 -43.5q78 0 134 58t80 136.5t24 163.5z
M220 -157l21 106h103l-21 -106h-103z" />
    <glyph glyph-name="glyph326" unicode="&#x1ecd;" 
d="M13 214q0 72 21 141.5t60.5 127t103 92.5t140.5 35q99 0 168.5 -58.5t69.5 -159.5q0 -75 -21 -146t-61 -129t-105 -93.5t-145 -35.5q-114 0 -172.5 65t-58.5 161zM159 203q0 -53 27.5 -82t65.5 -29q45 0 81 30.5t56 77t30.5 94t10.5 89.5q0 123 -101 123
q-57 0 -97.5 -51.5t-56.5 -117.5t-16 -134zM173 -154l20 100h98l-20 -100h-98z" />
    <glyph glyph-name="glyph327" unicode="&#x1ece;" horiz-adv-x="740" 
d="M31 255q0 198 114 336t272 138q145 0 218.5 -78t73.5 -202q0 -88 -26 -170t-75.5 -148.5t-130 -107t-180.5 -40.5q-112 0 -189 71t-77 201zM553 451q0 78 -36 119t-102 41q-103 0 -168.5 -104t-65.5 -256q0 -71 36 -114.5t98 -43.5q78 0 134 58t80 136.5t24 163.5z
M482 755h-48q-7 39 21 58t26 45q-1 25 -29 24q-27 0 -29 32q0 28 28 35q49 2 76.5 -21t29.5 -62q-10 -48 -44 -64t-31 -47z" />
    <glyph glyph-name="glyph328" unicode="&#x1ecf;" 
d="M13 214q0 72 21 141.5t60.5 127t103 92.5t140.5 35q99 0 168.5 -58.5t69.5 -159.5q0 -75 -21 -146t-61 -129t-105 -93.5t-145 -35.5q-114 0 -172.5 65t-58.5 161zM159 203q0 -53 27.5 -82t65.5 -29q45 0 81 30.5t56 77t30.5 94t10.5 89.5q0 123 -101 123
q-57 0 -97.5 -51.5t-56.5 -117.5t-16 -134zM383 653h-45q-6 36 20 54t24 41t-27 22q-25 0 -27 29q0 24 26 32q45 2 70.5 -19t27.5 -57q-11 -45 -41 -59q-31 -15 -28 -43z" />
    <glyph glyph-name="glyph329" unicode="&#x1ed0;" horiz-adv-x="740" 
d="M500 753l-40 60l-64 -60h-83l102 102h94l63 -102h-72zM560 812l88 110h115l-130 -110h-73zM31 255q0 198 114 336t272 138q145 0 218.5 -78t73.5 -202q0 -88 -26 -170t-75.5 -148.5t-130 -107t-180.5 -40.5q-112 0 -189 71t-77 201zM553 451q0 78 -36 119t-102 41
q-103 0 -168.5 -104t-65.5 -256q0 -71 36 -114.5t98 -43.5q78 0 134 58t80 136.5t24 163.5z" />
    <glyph glyph-name="glyph330" unicode="&#x1ed1;" 
d="M13 214q0 72 21 141.5t60.5 127t103 92.5t140.5 35q99 0 168.5 -58.5t69.5 -159.5q0 -75 -21 -146t-61 -129t-105 -93.5t-145 -35.5q-114 0 -172.5 65t-58.5 161zM159 203q0 -53 27.5 -82t65.5 -29q45 0 81 30.5t56 77t30.5 94t10.5 89.5q0 123 -101 123
q-57 0 -97.5 -51.5t-56.5 -117.5t-16 -134zM432 648l-37 56l-60 -56h-79l96 96h89l59 -96h-68zM489 704l82 103h108l-122 -103h-68z" />
    <glyph glyph-name="glyph331" unicode="&#x1ed2;" horiz-adv-x="740" 
d="M500 753l-40 60l-64 -60h-83l102 102h94l63 -102h-72zM276 812l-119 110h112l79 -110h-72zM31 255q0 198 114 336t272 138q145 0 218.5 -78t73.5 -202q0 -88 -26 -170t-75.5 -148.5t-130 -107t-180.5 -40.5q-112 0 -189 71t-77 201zM553 451q0 78 -36 119t-102 41
q-103 0 -168.5 -104t-65.5 -256q0 -71 36 -114.5t98 -43.5q78 0 134 58t80 136.5t24 163.5z" />
    <glyph glyph-name="glyph332" unicode="&#x1ed3;" 
d="M13 214q0 72 21 141.5t60.5 127t103 92.5t140.5 35q99 0 168.5 -58.5t69.5 -159.5q0 -75 -21 -146t-61 -129t-105 -93.5t-145 -35.5q-114 0 -172.5 65t-58.5 161zM159 203q0 -53 27.5 -82t65.5 -29q45 0 81 30.5t56 77t30.5 94t10.5 89.5q0 123 -101 123
q-57 0 -97.5 -51.5t-56.5 -117.5t-16 -134zM412 638l-38 56l-60 -56h-78l96 96h88l60 -96h-68zM201 694l-112 103h106l74 -103h-68z" />
    <glyph glyph-name="glyph333" unicode="&#x1ed4;" horiz-adv-x="740" 
d="M500 753l-40 60l-64 -60h-83l102 102h94l63 -102h-72zM603 810h-45q-6 33 20 51t24 41t-27 22q-25 0 -27 29q0 24 26 32q45 2 70.5 -19t27.5 -57q-11 -45 -41 -59q-31 -15 -28 -40zM31 255q0 198 114 336t272 138q145 0 218.5 -78t73.5 -202q0 -88 -26 -170t-75.5 -148.5
t-130 -107t-180.5 -40.5q-112 0 -189 71t-77 201zM553 451q0 78 -36 119t-102 41q-103 0 -168.5 -104t-65.5 -256q0 -71 36 -114.5t98 -43.5q78 0 134 58t80 136.5t24 163.5z" />
    <glyph glyph-name="glyph334" unicode="&#x1ed5;" 
d="M13 214q0 72 21 141.5t60.5 127t103 92.5t140.5 35q99 0 168.5 -58.5t69.5 -159.5q0 -75 -21 -146t-61 -129t-105 -93.5t-145 -35.5q-114 0 -172.5 65t-58.5 161zM159 203q0 -53 27.5 -82t65.5 -29q45 0 81 30.5t56 77t30.5 94t10.5 89.5q0 123 -101 123
q-57 0 -97.5 -51.5t-56.5 -117.5t-16 -134zM430 650l-38 56l-60 -56h-78l96 96h88l59 -96h-67zM526 704h-42q-6 31 18 47q25 16 23 39q-1 22 -25 21q-24 0 -25 27q0 24 24 30q43 2 66.5 -17.5t25.5 -53.5q-9 -42 -38 -56t-27 -37z" />
    <glyph glyph-name="glyph335" unicode="&#x1ed6;" horiz-adv-x="740" 
d="M500 753l-40 60l-64 -60h-83l102 102h94l63 -102h-72zM384 878h-38q2 14 8.5 30.5t25.5 33.5t44 17q22 0 53 -20q38 -20 48 -20q26 0 33 38h38q-5 -29 -24 -55t-53 -26q-21 0 -50 20q-32 16 -47 16q-36 0 -38 -34zM31 255q0 198 114 336t272 138q145 0 218.5 -78
t73.5 -202q0 -88 -26 -170t-75.5 -148.5t-130 -107t-180.5 -40.5q-112 0 -189 71t-77 201zM553 451q0 78 -36 119t-102 41q-103 0 -168.5 -104t-65.5 -256q0 -71 36 -114.5t98 -43.5q78 0 134 58t80 136.5t24 163.5z" />
    <glyph glyph-name="glyph336" unicode="&#x1ed7;" 
d="M13 214q0 72 21 141.5t60.5 127t103 92.5t140.5 35q99 0 168.5 -58.5t69.5 -159.5q0 -75 -21 -146t-61 -129t-105 -93.5t-145 -35.5q-114 0 -172.5 65t-58.5 161zM159 203q0 -53 27.5 -82t65.5 -29q45 0 81 30.5t56 77t30.5 94t10.5 89.5q0 123 -101 123
q-57 0 -97.5 -51.5t-56.5 -117.5t-16 -134zM429 650l-37 57l-60 -57h-79l96 96h89l59 -96h-68zM320 768h-35q0 22 19.5 49t53.5 27q16 0 50 -19q3 -2 14 -8t17.5 -8.5t13.5 -2.5q24 0 31 36h36q-3 -16 -9.5 -31t-23.5 -30t-40 -15q-21 0 -47 19q-32 15 -44 15q-34 0 -36 -32
z" />
    <glyph glyph-name="glyph337" unicode="&#x1ed8;" horiz-adv-x="740" 
d="M500 753l-40 60l-64 -60h-83l102 102h94l63 -102h-72zM200 -157l21 106h103l-21 -106h-103zM31 255q0 198 114 336t272 138q145 0 218.5 -78t73.5 -202q0 -88 -26 -170t-75.5 -148.5t-130 -107t-180.5 -40.5q-112 0 -189 71t-77 201zM553 451q0 78 -36 119t-102 41
q-103 0 -168.5 -104t-65.5 -256q0 -71 36 -114.5t98 -43.5q78 0 134 58t80 136.5t24 163.5z" />
    <glyph glyph-name="glyph338" unicode="&#x1ed9;" 
d="M13 214q0 72 21 141.5t60.5 127t103 92.5t140.5 35q99 0 168.5 -58.5t69.5 -159.5q0 -75 -21 -146t-61 -129t-105 -93.5t-145 -35.5q-114 0 -172.5 65t-58.5 161zM159 203q0 -53 27.5 -82t65.5 -29q45 0 81 30.5t56 77t30.5 94t10.5 89.5q0 123 -101 123
q-57 0 -97.5 -51.5t-56.5 -117.5t-16 -134zM436 645l-38 56l-60 -56h-78l96 96h88l59 -96h-67zM174 -154l19 100h97l-19 -100h-97z" />
    <glyph glyph-name="glyph339" unicode="&#x1eda;" horiz-adv-x="740" 
d="M672 603q37 -65 37 -154q0 -88 -26 -170t-75.5 -148.5t-130 -107t-180.5 -40.5q-112 0 -189 71t-77 201q0 198 114 336t272 138q154 0 232 -93q29 15 30 34q1 22 -8 32t-24 12t-6 36q9 28 48 21q44 -13 59.5 -45.5t-6.5 -83.5q-18 -26 -70 -39zM553 451q0 78 -36 119
t-102 41q-103 0 -168.5 -104t-65.5 -256q0 -71 36 -114.5t98 -43.5q78 0 134 58t80 136.5t24 163.5zM423 768l94 118h123l-139 -118h-78z" />
    <glyph glyph-name="glyph340" unicode="&#x1edb;" 
d="M547 505l-1 -1q30 -49 30 -112q0 -75 -21 -146t-61 -129t-105 -93.5t-145 -35.5q-114 0 -172.5 65t-58.5 161q0 72 21 141.5t60.5 127t103 92.5t140.5 35q117 0 184 -75q40 40 14 59q-10 10 -26 13q-14 3 -5 36q9 26 46 20q44 -11 59 -49q16 -37 -8 -75q-14 -20 -55 -34z
M159 203q0 -53 27.5 -82t65.5 -29q45 0 81 30.5t56 77t30.5 94t10.5 89.5q0 123 -101 123q-57 0 -97.5 -51.5t-56.5 -117.5t-16 -134zM277 656l90 112h117l-132 -112h-75z" />
    <glyph glyph-name="glyph341" unicode="&#x1edc;" horiz-adv-x="740" 
d="M672 603q37 -65 37 -154q0 -88 -26 -170t-75.5 -148.5t-130 -107t-180.5 -40.5q-112 0 -189 71t-77 201q0 198 114 336t272 138q154 0 232 -93q29 15 30 34q1 22 -8 32t-24 12t-6 36q9 28 48 21q44 -13 59.5 -45.5t-6.5 -83.5q-18 -26 -70 -39zM553 451q0 78 -36 119
t-102 41q-103 0 -168.5 -104t-65.5 -256q0 -71 36 -114.5t98 -43.5q78 0 134 58t80 136.5t24 163.5zM407 768l-126 118h119l84 -118h-77z" />
    <glyph glyph-name="glyph342" unicode="&#x1edd;" 
d="M547 505l-1 -1q30 -49 30 -112q0 -75 -21 -146t-61 -129t-105 -93.5t-145 -35.5q-114 0 -172.5 65t-58.5 161q0 72 21 141.5t60.5 127t103 92.5t140.5 35q117 0 184 -75q40 40 14 59q-10 10 -26 13q-14 3 -5 36q9 26 46 20q44 -11 59 -49q16 -37 -8 -75q-14 -20 -55 -34z
M159 203q0 -53 27.5 -82t65.5 -29q45 0 81 30.5t56 77t30.5 94t10.5 89.5q0 123 -101 123q-57 0 -97.5 -51.5t-56.5 -117.5t-16 -134zM320 653l-120 112h113l80 -112h-73z" />
    <glyph glyph-name="glyph343" unicode="&#x1ede;" horiz-adv-x="740" 
d="M672 603q37 -65 37 -154q0 -88 -26 -170t-75.5 -148.5t-130 -107t-180.5 -40.5q-112 0 -189 71t-77 201q0 198 114 336t272 138q154 0 232 -93q29 15 30 34q1 22 -8 32t-24 12t-6 36q9 28 48 21q44 -13 59.5 -45.5t-6.5 -83.5q-18 -26 -70 -39zM553 451q0 78 -36 119
t-102 41q-103 0 -168.5 -104t-65.5 -256q0 -71 36 -114.5t98 -43.5q78 0 134 58t80 136.5t24 163.5zM462 765h-48q-7 39 21 58t26 45q-1 25 -29 24q-27 0 -29 32q0 28 28 35q49 2 76.5 -21t29.5 -62q-10 -48 -44 -64t-31 -47z" />
    <glyph glyph-name="glyph344" unicode="&#x1edf;" 
d="M547 505l-1 -1q30 -49 30 -112q0 -75 -21 -146t-61 -129t-105 -93.5t-145 -35.5q-114 0 -172.5 65t-58.5 161q0 72 21 141.5t60.5 127t103 92.5t140.5 35q117 0 184 -75q40 40 14 59q-10 10 -26 13q-14 3 -5 36q9 26 46 20q44 -11 59 -49q16 -37 -8 -75q-14 -20 -55 -34z
M159 203q0 -53 27.5 -82t65.5 -29q45 0 81 30.5t56 77t30.5 94t10.5 89.5q0 123 -101 123q-57 0 -97.5 -51.5t-56.5 -117.5t-16 -134zM363 653h-45q-6 36 20 54t24 41t-27 22q-25 0 -27 29q0 24 26 32q45 2 70.5 -19t27.5 -57q-11 -45 -41 -59q-31 -15 -28 -43z" />
    <glyph glyph-name="glyph345" unicode="&#x1ee0;" horiz-adv-x="740" 
d="M672 603q37 -65 37 -154q0 -88 -26 -170t-75.5 -148.5t-130 -107t-180.5 -40.5q-112 0 -189 71t-77 201q0 198 114 336t272 138q154 0 232 -93q29 15 30 34q1 22 -8 32t-24 12t-6 36q9 28 48 21q44 -13 59.5 -45.5t-6.5 -83.5q-18 -26 -70 -39zM553 451q0 78 -36 119
t-102 41q-103 0 -168.5 -104t-65.5 -256q0 -71 36 -114.5t98 -43.5q78 0 134 58t80 136.5t24 163.5zM367 764h-49q9 50 31.5 72t58.5 22q24 0 57.5 -16.5t41.5 -16.5q26 0 36 34h49q-9 -51 -31 -72.5t-60 -21.5q-23 0 -57 16.5t-42 16.5q-23 0 -35 -34z" />
    <glyph glyph-name="glyph346" unicode="&#x1ee1;" 
d="M547 505l-1 -1q30 -49 30 -112q0 -75 -21 -146t-61 -129t-105 -93.5t-145 -35.5q-114 0 -172.5 65t-58.5 161q0 72 21 141.5t60.5 127t103 92.5t140.5 35q117 0 184 -75q40 40 14 59q-10 10 -26 13q-14 3 -5 36q9 26 46 20q44 -11 59 -49q16 -37 -8 -75q-14 -20 -55 -34z
M159 203q0 -53 27.5 -82t65.5 -29q45 0 81 30.5t56 77t30.5 94t10.5 89.5q0 123 -101 123q-57 0 -97.5 -51.5t-56.5 -117.5t-16 -134zM286 655h-45q9 47 29.5 67.5t53.5 20.5q23 0 54.5 -15.5t37.5 -15.5q23 0 34 32h45q-9 -47 -29.5 -67.5t-54.5 -20.5q-21 0 -53 15.5
t-39 15.5q-21 0 -33 -32z" />
    <glyph glyph-name="glyph347" unicode="&#x1ee2;" horiz-adv-x="740" 
d="M672 603q37 -65 37 -154q0 -88 -26 -170t-75.5 -148.5t-130 -107t-180.5 -40.5q-112 0 -189 71t-77 201q0 198 114 336t272 138q154 0 232 -93q29 15 30 34q1 22 -8 32t-24 12t-6 36q9 28 48 21q44 -13 59.5 -45.5t-6.5 -83.5q-18 -26 -70 -39zM553 451q0 78 -36 119
t-102 41q-103 0 -168.5 -104t-65.5 -256q0 -71 36 -114.5t98 -43.5q78 0 134 58t80 136.5t24 163.5zM210 -157l21 106h103l-21 -106h-103z" />
    <glyph glyph-name="glyph348" unicode="&#x1ee3;" 
d="M547 505l-1 -1q30 -49 30 -112q0 -75 -21 -146t-61 -129t-105 -93.5t-145 -35.5q-114 0 -172.5 65t-58.5 161q0 72 21 141.5t60.5 127t103 92.5t140.5 35q117 0 184 -75q40 40 14 59q-10 10 -26 13q-14 3 -5 36q9 26 46 20q44 -11 59 -49q16 -37 -8 -75q-14 -20 -55 -34z
M159 203q0 -53 27.5 -82t65.5 -29q45 0 81 30.5t56 77t30.5 94t10.5 89.5q0 123 -101 123q-57 0 -97.5 -51.5t-56.5 -117.5t-16 -134zM183 -154l20 100h98l-20 -100h-98z" />
    <glyph glyph-name="glyph349" unicode="&#x1ee4;" horiz-adv-x="704" 
d="M561 712h146l-86 -446q-27 -142 -103.5 -212.5t-225.5 -70.5q-115 0 -181 55.5t-66 167.5q0 59 91 506h150q-62 -316 -76.5 -401.5t-14.5 -120.5q0 -47 30.5 -72t84.5 -25q68 0 109 44.5t59 140.5zM210 -157l21 106h103l-21 -106h-103z" />
    <glyph glyph-name="glyph350" unicode="&#x1ee5;" 
d="M368 184l81 414h146l-116 -598h-146l16 84h-2q-50 -46 -103.5 -71t-93.5 -25q-53 0 -89.5 33t-36.5 100q0 30 57 320q18 97 30 157h146q-83 -402 -83 -425q0 -63 58 -63q35 0 73.5 22.5t62.5 51.5zM183 -154l20 100h98l-20 -100h-98z" />
    <glyph glyph-name="glyph351" unicode="&#x1ee6;" horiz-adv-x="704" 
d="M561 712h146l-86 -446q-27 -142 -103.5 -212.5t-225.5 -70.5q-115 0 -181 55.5t-66 167.5q0 59 91 506h150q-62 -316 -76.5 -401.5t-14.5 -120.5q0 -47 30.5 -72t84.5 -25q68 0 109 44.5t59 140.5zM462 755h-48q-7 39 21 58t26 45q-1 25 -29 24q-27 0 -29 32q0 28 28 35
q49 2 76.5 -21t29.5 -62q-10 -48 -44 -64t-31 -47z" />
    <glyph glyph-name="glyph352" unicode="&#x1ee7;" 
d="M368 184l81 414h146l-116 -598h-146l16 84h-2q-50 -46 -103.5 -71t-93.5 -25q-53 0 -89.5 33t-36.5 100q0 30 57 320q18 97 30 157h146q-83 -402 -83 -425q0 -63 58 -63q35 0 73.5 22.5t62.5 51.5zM373 643h-45q-6 36 20 54t24 41t-27 22q-25 0 -27 29q0 24 26 32
q45 2 70.5 -19t27.5 -57q-11 -45 -41 -59q-31 -15 -28 -43z" />
    <glyph glyph-name="glyph353" unicode="&#x1ee8;" horiz-adv-x="704" 
d="M694 646l-73 -380q-27 -142 -103.5 -212.5t-225.5 -70.5q-115 0 -181 55.5t-66 167.5q0 59 91 506h150q-43 -210 -64 -325.5t-24 -142t-3 -54.5q0 -47 30.5 -72t84.5 -25q68 0 109 44.5t59 140.5l83 434l122 -16q29 2 29 15q11 25 -16 35q-26 10 -9 45q10 25 48 14
q45 -15 55 -52t-20 -71q-21 -21 -76 -36zM393 768l94 118h123l-139 -118h-78z" />
    <glyph glyph-name="glyph354" unicode="&#x1ee9;" horiz-adv-x="610" 
d="M588 542v1l-109 -543h-146l16 84h-2q-50 -46 -103.5 -71t-93.5 -25q-53 0 -89.5 33t-36.5 100q0 30 57 320q18 97 30 157h146q-83 -402 -83 -425q0 -63 58 -63q35 0 73.5 22.5t62.5 51.5l81 414l120 -21l24 18q15 28 -13 35q-28 9 -12 43q9 25 46 13q42 -15 51 -51
q9 -35 -19 -63q-14 -17 -58 -30zM317 656l90 112h117l-132 -112h-75z" />
    <glyph glyph-name="glyph355" unicode="&#x1eea;" horiz-adv-x="704" 
d="M694 646l-73 -380q-27 -142 -103.5 -212.5t-225.5 -70.5q-115 0 -181 55.5t-66 167.5q0 59 91 506h150q-43 -210 -64 -325.5t-24 -142t-3 -54.5q0 -47 30.5 -72t84.5 -25q68 0 109 44.5t59 140.5l83 434l122 -16q29 2 29 15q11 25 -16 35q-26 10 -9 45q10 25 48 14
q45 -15 55 -52t-20 -71q-21 -21 -76 -36zM407 768l-126 118h119l84 -118h-77z" />
    <glyph glyph-name="glyph356" unicode="&#x1eeb;" horiz-adv-x="610" 
d="M588 542v1l-109 -543h-146l16 84h-2q-50 -46 -103.5 -71t-93.5 -25q-53 0 -89.5 33t-36.5 100q0 30 57 320q18 97 30 157h146q-83 -402 -83 -425q0 -63 58 -63q35 0 73.5 22.5t62.5 51.5l81 414l120 -21l24 18q15 28 -13 35q-28 9 -12 43q9 25 46 13q42 -15 51 -51
q9 -35 -19 -63q-14 -17 -58 -30zM320 653l-120 112h113l80 -112h-73z" />
    <glyph glyph-name="glyph357" unicode="&#x1eec;" horiz-adv-x="704" 
d="M694 646l-73 -380q-27 -142 -103.5 -212.5t-225.5 -70.5q-115 0 -181 55.5t-66 167.5q0 59 91 506h150q-43 -210 -64 -325.5t-24 -142t-3 -54.5q0 -47 30.5 -72t84.5 -25q68 0 109 44.5t59 140.5l83 434l122 -16q29 2 29 15q11 25 -16 35q-26 10 -9 45q10 25 48 14
q45 -15 55 -52t-20 -71q-21 -21 -76 -36zM472 765h-48q-7 39 21 58t26 45q-1 25 -29 24q-27 0 -29 32q0 28 28 35q49 2 76.5 -21t29.5 -62q-10 -48 -44 -64t-31 -47z" />
    <glyph glyph-name="glyph358" unicode="&#x1eed;" horiz-adv-x="610" 
d="M588 542v1l-109 -543h-146l16 84h-2q-50 -46 -103.5 -71t-93.5 -25q-53 0 -89.5 33t-36.5 100q0 30 57 320q18 97 30 157h146q-83 -402 -83 -425q0 -63 58 -63q35 0 73.5 22.5t62.5 51.5l81 414l120 -21l24 18q15 28 -13 35q-28 9 -12 43q9 25 46 13q42 -15 51 -51
q9 -35 -19 -63q-14 -17 -58 -30zM353 643h-45q-6 36 20 54t24 41t-27 22q-25 0 -27 29q0 24 26 32q45 2 70.5 -19t27.5 -57q-11 -45 -41 -59q-31 -15 -28 -43z" />
    <glyph glyph-name="glyph359" unicode="&#x1eee;" horiz-adv-x="704" 
d="M694 646l-73 -380q-27 -142 -103.5 -212.5t-225.5 -70.5q-115 0 -181 55.5t-66 167.5q0 59 91 506h150q-43 -210 -64 -325.5t-24 -142t-3 -54.5q0 -47 30.5 -72t84.5 -25q68 0 109 44.5t59 140.5l83 434l122 -16q29 2 29 15q11 25 -16 35q-26 10 -9 45q10 25 48 14
q45 -15 55 -52t-20 -71q-21 -21 -76 -36zM377 764h-49q9 50 31.5 72t58.5 22q24 0 57.5 -16.5t41.5 -16.5q26 0 36 34h49q-9 -51 -31 -72.5t-60 -21.5q-23 0 -57 16.5t-42 16.5q-23 0 -35 -34z" />
    <glyph glyph-name="glyph360" unicode="&#x1eef;" horiz-adv-x="610" 
d="M588 542v1l-109 -543h-146l16 84h-2q-50 -46 -103.5 -71t-93.5 -25q-53 0 -89.5 33t-36.5 100q0 30 57 320q18 97 30 157h146q-83 -402 -83 -425q0 -63 58 -63q35 0 73.5 22.5t62.5 51.5l81 414l120 -21l24 18q15 28 -13 35q-28 9 -12 43q9 25 46 13q42 -15 51 -51
q9 -35 -19 -63q-14 -17 -58 -30zM296 655h-45q9 47 29.5 67.5t53.5 20.5q23 0 54.5 -15.5t37.5 -15.5q23 0 34 32h45q-9 -47 -29.5 -67.5t-54.5 -20.5q-21 0 -53 15.5t-39 15.5q-21 0 -33 -32z" />
    <glyph glyph-name="glyph361" unicode="&#x1ef0;" horiz-adv-x="704" 
d="M694 646l-73 -380q-27 -142 -103.5 -212.5t-225.5 -70.5q-115 0 -181 55.5t-66 167.5q0 59 91 506h150q-43 -210 -64 -325.5t-24 -142t-3 -54.5q0 -47 30.5 -72t84.5 -25q68 0 109 44.5t59 140.5l83 434l122 -16q29 2 29 15q11 25 -16 35q-26 10 -9 45q10 25 48 14
q45 -15 55 -52t-20 -71q-21 -21 -76 -36zM200 -157l21 106h103l-21 -106h-103z" />
    <glyph glyph-name="glyph362" unicode="&#x1ef1;" horiz-adv-x="610" 
d="M588 542v1l-109 -543h-146l16 84h-2q-50 -46 -103.5 -71t-93.5 -25q-53 0 -89.5 33t-36.5 100q0 30 57 320q18 97 30 157h146q-83 -402 -83 -425q0 -63 58 -63q35 0 73.5 22.5t62.5 51.5l81 414l120 -21l24 18q15 28 -13 35q-28 9 -12 43q9 25 46 13q42 -15 51 -51
q9 -35 -19 -63q-14 -17 -58 -30zM163 -154l20 100h98l-20 -100h-98z" />
    <glyph glyph-name="glyph363" unicode="&#x1ef2;" horiz-adv-x="667" 
d="M231 273l-168 439h160l81 -229q6 -15 23 -86h4q41 67 57 89l163 226h175l-344 -439l-51 -273h-150zM367 768l-126 118h119l84 -118h-77z" />
    <glyph glyph-name="glyph364" unicode="&#x1ef3;" horiz-adv-x="556" 
d="M141 10l-96 588h151l29 -261q8 -73 8 -192h4q46 114 78 181l136 272h151l-355 -661q-75 -139 -203 -139q-61 0 -101 15l28 109q28 -14 52 -14q42 0 67.5 22t50.5 80zM300 653l-120 112h113l80 -112h-73z" />
    <glyph glyph-name="glyph365" unicode="&#x1ef4;" horiz-adv-x="667" 
d="M231 273l-168 439h160l81 -229q6 -15 23 -86h4q41 67 57 89l163 226h175l-344 -439l-51 -273h-150zM170 -157l21 106h103l-21 -106h-103z" />
    <glyph glyph-name="glyph366" unicode="&#x1ef5;" horiz-adv-x="556" 
d="M141 10l-96 588h151l29 -261q8 -73 8 -192h4q46 114 78 181l136 272h151l-355 -661q-75 -139 -203 -139q-61 0 -101 15l28 109q28 -14 52 -14q42 0 67.5 22t50.5 80zM343 -154l20 100h98l-20 -100h-98z" />
    <glyph glyph-name="glyph367" unicode="&#x1ef6;" horiz-adv-x="667" 
d="M231 273l-168 439h160l81 -229q6 -15 23 -86h4q41 67 57 89l163 226h175l-344 -439l-51 -273h-150zM412 755h-48q-7 39 21 58t26 45q-1 25 -29 24q-27 0 -29 32q0 28 28 35q49 2 76.5 -21t29.5 -62q-10 -48 -44 -64t-31 -47z" />
    <glyph glyph-name="glyph368" unicode="&#x1ef7;" horiz-adv-x="556" 
d="M141 10l-96 588h151l29 -261q8 -73 8 -192h4q46 114 78 181l136 272h151l-355 -661q-75 -139 -203 -139q-61 0 -101 15l28 109q28 -14 52 -14q42 0 67.5 22t50.5 80zM353 643h-45q-6 36 20 54t24 41t-27 22q-25 0 -27 29q0 24 26 32q45 2 70.5 -19t27.5 -57
q-11 -45 -41 -59q-31 -15 -28 -43z" />
    <glyph glyph-name="glyph369" unicode="&#x1ef8;" horiz-adv-x="667" 
d="M231 273l-168 439h160l81 -229q6 -15 23 -86h4q41 67 57 89l163 226h175l-344 -439l-51 -273h-150zM327 764h-49q9 50 31.5 72t58.5 22q24 0 57.5 -16.5t41.5 -16.5q26 0 36 34h49q-9 -51 -31 -72.5t-60 -21.5q-23 0 -57 16.5t-42 16.5q-23 0 -35 -34z" />
    <glyph glyph-name="glyph370" unicode="&#x1ef9;" horiz-adv-x="556" 
d="M141 10l-96 588h151l29 -261q8 -73 8 -192h4q46 114 78 181l136 272h151l-355 -661q-75 -139 -203 -139q-61 0 -101 15l28 109q28 -14 52 -14q42 0 67.5 22t50.5 80zM246 655h-45q9 47 29.5 67.5t53.5 20.5q23 0 54.5 -15.5t37.5 -15.5q23 0 34 32h45q-9 -47 -29.5 -67.5
t-54.5 -20.5q-21 0 -53 15.5t-39 15.5q-21 0 -33 -32z" />
    <glyph glyph-name="endash" unicode="&#x2013;" horiz-adv-x="500" 
d="M-21 252l20 96h500l-20 -96h-500z" />
    <glyph glyph-name="emdash" unicode="&#x2014;" horiz-adv-x="1000" 
d="M-21 252l20 96h1000l-20 -96h-1000z" />
    <glyph glyph-name="quoteleft" unicode="&#x2018;" horiz-adv-x="296" 
d="M78 523l139 254h106l-117 -254h-128z" />
    <glyph glyph-name="quoteright" unicode="&#x2019;" horiz-adv-x="296" 
d="M73 523l117 254h128l-139 -254h-106z" />
    <glyph glyph-name="quotesinglbase" unicode="&#x201a;" horiz-adv-x="296" 
d="M-42 -122l117 254h128l-139 -254h-106z" />
    <glyph glyph-name="quotedblleft" unicode="&#x201c;" horiz-adv-x="500" 
d="M72 523l139 254h106l-117 -254h-128zM288 523l139 254h106l-117 -254h-128z" />
    <glyph glyph-name="quotedblright" unicode="&#x201d;" horiz-adv-x="500" 
d="M81 523l117 254h128l-139 -254h-106zM297 523l117 254h128l-139 -254h-106z" />
    <glyph glyph-name="quotedblbase" unicode="&#x201e;" horiz-adv-x="500" 
d="M-66 -122l117 254h128l-139 -254h-106zM150 -122l117 254h128l-139 -254h-106z" />
    <glyph glyph-name="dagger" unicode="&#x2020;" horiz-adv-x="592" 
d="M258 520l38 192h140l-38 -192h183l-22 -114h-183l-102 -531h-140l102 531h-182l22 114h182z" />
    <glyph glyph-name="daggerdbl" unicode="&#x2021;" horiz-adv-x="592" 
d="M195 160l52 267h-176l21 110h176l34 175h128l-34 -175h176l-21 -110h-176l-52 -267h176l-21 -110h-176l-34 -175h-128l34 175h-176l21 110h176z" />
    <glyph glyph-name="bullet" unicode="&#x2022;" horiz-adv-x="500" 
d="M72 356q0 74 52 126t126 52t126 -52t52 -126t-52 -126t-126 -52t-126 52t-52 126z" />
    <glyph glyph-name="ellipsis" unicode="&#x2026;" horiz-adv-x="1000" 
d="M90 0l26 132h128l-26 -132h-128zM423 0l26 132h128l-26 -132h-128zM756 0l26 132h128l-26 -132h-128z" />
    <glyph glyph-name="perthousand" unicode="&#x2030;" horiz-adv-x="1093" 
d="M288 608q0 25 -13 41t-38 16q-35 0 -58.5 -38.5t-31 -78.5t-7.5 -73q0 -25 13 -41t38 -16q35 0 58.5 38.5t31 78.5t7.5 73zM61 -12l527 741h85l-527 -741h-85zM599 242q0 25 -13 41t-38 16q-35 0 -58.5 -38.5t-31 -78.5t-7.5 -73q0 -25 13 -41t38 -16q35 0 58.5 38.5
t31 78.5t7.5 73zM50 487q0 40 11.5 80.5t34 78t62 60.5t89.5 23q59 0 95 -34.5t36 -98.5q0 -32 -6.5 -64t-22 -64.5t-37.5 -57.5t-56 -40.5t-74 -15.5q-60 0 -96 34.5t-36 98.5zM361 121q0 40 11.5 80.5t34 78t62 60.5t89.5 23q59 0 95 -34.5t36 -98.5q0 -32 -6.5 -64
t-22 -64.5t-37.5 -57.5t-56 -40.5t-74 -15.5q-60 0 -96 34.5t-36 98.5zM725 121q0 40 11.5 80.5t34 78t62 60.5t89.5 23q59 0 95 -34.5t36 -98.5q0 -32 -6.5 -64t-22 -64.5t-37.5 -57.5t-56 -40.5t-74 -15.5q-60 0 -96 34.5t-36 98.5zM963 242q0 25 -13 41t-38 16
q-35 0 -58.5 -38.5t-31 -78.5t-7.5 -73q0 -25 13 -41t38 -16q35 0 58.5 38.5t31 78.5t7.5 73z" />
    <glyph glyph-name="guilsinglleft" unicode="&#x2039;" horiz-adv-x="315" 
d="M15 319l203 219l73 -60l-152 -176l89 -195l-88 -45z" />
    <glyph glyph-name="guilsinglright" unicode="&#x203a;" horiz-adv-x="315" 
d="M153 298l-89 195l88 45l125 -257l-203 -219l-73 60z" />
    <glyph glyph-name="fraction" unicode="&#x2044;" horiz-adv-x="167" 
d="M331 705l-444 -719h-51l444 719h51z" />
    <glyph glyph-name="franc" unicode="&#x20a3;" horiz-adv-x="1035" 
d="M4 0l138 712h464l-22 -114h-315l-37 -193h302l-22 -114h-302l-56 -291h-150zM653 0l116 598h146l-16 -85l2 -2q83 99 189 99q14 0 23 -3l-25 -130q-16 4 -50 4q-88 0 -161 -82l-78 -399h-146z" />
    <glyph glyph-name="u20AB" unicode="&#x20ab;" horiz-adv-x="393" 
d="M197 501q-48 0 -84 -88q-20 -51 -20 -90q0 -51 39 -51q41 0 74 71q28 59 28 107q0 51 -37 51zM200 267q-53 -62 -106 -62q-44 0 -67.5 28t-23.5 74q0 79 55 152q60 79 136 79q34 0 61 -24l20 75h-100l10 36h100l2 16q0 31 -48 32l7 33q60 1 128 14q12 3 15 3q6 0 6 -9
q-1 -3 -3 -12l-19 -77h65l-10 -36h-65l-69 -280q-5 -25 -5 -27q0 -15 12 -15q6 0 49 42l20 -18q-71 -86 -117 -86q-42 0 -53 62zM9 104v56h221v-56h-221z" />
    <glyph glyph-name="Euro" unicode="&#x20ac;" horiz-adv-x="592" 
d="M19 218q0 17 1 39t8 75.5t19 101t37.5 104t60.5 96.5t91 67.5t125 27.5q102 0 157 -61.5t55 -166.5q0 -24 -2.5 -56.5t-11.5 -83.5t-23 -99.5t-39.5 -99t-59 -88.5t-84.5 -62t-112 -24q-222 0 -222 230zM433 506q0 123 -87 123q-53 0 -92.5 -51t-58.5 -126t-27.5 -138
t-8.5 -110q0 -116 87 -116q41 0 75 36t54 88t34 113t19 107t5 74zM43 408v-96h506v96h-506zM43 98v96h506v-96h-506z" />
    <glyph glyph-name="trademark" unicode="&#x2122;" horiz-adv-x="1000" 
d="M689 441l103 271h136v-421h-90v307h-2l-113 -307h-67l-113 307h-2v-307h-90v421h136zM182 291v347h-120v74h336v-74h-120v-347h-96z" />
    <glyph glyph-name="partialdiff" unicode="&#x2202;" horiz-adv-x="1000" 
 />
    <glyph glyph-name="product" unicode="&#x220f;" horiz-adv-x="1000" 
 />
    <glyph glyph-name="summation" unicode="&#x2211;" horiz-adv-x="1000" 
 />
    <glyph glyph-name="minus" unicode="&#x2212;" horiz-adv-x="660" 
d="M580 220h-500v60h500v-60z" />
    <glyph glyph-name="radical" unicode="&#x221a;" horiz-adv-x="1000" 
 />
    <glyph glyph-name="infinity" unicode="&#x221e;" horiz-adv-x="1000" 
 />
    <glyph glyph-name="integral" unicode="&#x222b;" horiz-adv-x="1000" 
 />
    <glyph glyph-name="approxequal" unicode="&#x2248;" horiz-adv-x="1000" 
 />
    <glyph glyph-name="approxequal" unicode="&#x22f2;" horiz-adv-x="1000" 
 />
    <glyph glyph-name="notequal" unicode="&#x2260;" horiz-adv-x="1000" 
 />
    <glyph glyph-name="lessequal" unicode="&#x2264;" horiz-adv-x="1000" 
 />
    <glyph glyph-name="greaterequal" unicode="&#x2265;" horiz-adv-x="1000" 
 />
    <glyph glyph-name="SF370000" unicode="&#x255f;" horiz-adv-x="718" 
d="M500 0l-25 164h-293l-91 -164h-160l409 712h189l121 -712h-150zM242 274h216l-34 218q-9 50 -11 106h-4q-26 -73 -65 -140z" />
    <glyph glyph-name="SF420000" unicode="&#x2560;" horiz-adv-x="681" 
d="M4 0l138 712h466l-22 -114h-319l-34 -175h301l-22 -114h-301l-38 -195h328l-22 -114h-475z" />
    <glyph glyph-name="SF190000" unicode="&#x2561;" horiz-adv-x="429" 
d="M4 0l138 712h150l-138 -712h-150z" />
    <glyph glyph-name="SF200000" unicode="&#x2562;" horiz-adv-x="773" 
d="M31 255q0 198 114 336t272 138q145 0 218.5 -78t73.5 -202q0 -88 -26 -170t-75.5 -148.5t-130 -107t-180.5 -40.5q-112 0 -189 71t-77 201zM553 451q0 78 -36 119t-102 41q-103 0 -168.5 -104t-65.5 -256q0 -71 36 -114.5t98 -43.5q78 0 134 58t80 136.5t24 163.5z" />
    <glyph glyph-name="SF230000" unicode="&#x2563;" horiz-adv-x="811" 
d="M561 712h146l-86 -446q-27 -142 -103.5 -212.5t-225.5 -70.5q-115 0 -181 55.5t-66 167.5q0 59 91 506h150q-62 -316 -76.5 -401.5t-14.5 -120.5q0 -47 30.5 -72t84.5 -25q68 0 109 44.5t59 140.5z" />
    <glyph glyph-name="SF470000" unicode="&#x2564;" horiz-adv-x="699" 
d="M231 273l-168 439h160l81 -229q6 -15 23 -86h4q41 67 57 89l163 226h175l-344 -439l-51 -273h-150z" />
    <glyph glyph-name="SF480000" unicode="&#x2565;" horiz-adv-x="541" 
d="M309 0l14 81l-2 2q-63 -53 -103.5 -74t-84.5 -21q-66 0 -104 43.5t-38 109.5q0 69 36.5 118.5t97.5 77.5q83 37 253 37q10 40 10 66q0 38 -23 56t-54 18q-41 0 -74.5 -28t-46.5 -67l-120 38q36 77 97 115t157 38q94 0 147 -43.5t53 -120.5q0 -44 -23 -165l-33 -168
q-10 -48 -19 -113h-140zM339 172l24 119q-98 0 -165 -29.5t-67 -93.5q0 -28 19 -47t51 -19q31 0 62 16.5t76 53.5z" />
    <glyph glyph-name="SF410000" unicode="&#x2566;" horiz-adv-x="431" 
d="M534 260h-380q-5 -19 -5 -54q0 -55 27.5 -86.5t71.5 -31.5q36 0 74.5 28t53.5 63l115 -41q-87 -150 -249 -150q-108 0 -168.5 61.5t-60.5 173.5q0 159 91 273t222 114q106 0 165.5 -62.5t59.5 -166.5q0 -66 -17 -121zM172 356h238q5 17 5 46q0 50 -25.5 79t-68.5 29
q-59 0 -98.5 -51t-50.5 -103z" />
    <glyph glyph-name="SF450000" unicode="&#x2567;" horiz-adv-x="314" 
d="M-3 0l116 598h146l-116 -598h-146zM127 670l21 107h146l-21 -107h-146z" />
    <glyph glyph-name="SF460000" unicode="&#x2568;" horiz-adv-x="314" 
d="M138 518v-518h-60v518h60z" />
    <glyph glyph-name="SF400000" unicode="&#x2569;" horiz-adv-x="498" 
d="M13 214q0 72 21 141.5t60.5 127t103 92.5t140.5 35q99 0 168.5 -58.5t69.5 -159.5q0 -75 -21 -146t-61 -129t-105 -93.5t-145 -35.5q-114 0 -172.5 65t-58.5 161zM159 203q0 -53 27.5 -82t65.5 -29q45 0 81 30.5t56 77t30.5 94t10.5 89.5q0 123 -101 123
q-57 0 -97.5 -51.5t-56.5 -117.5t-16 -134z" />
    <glyph glyph-name="SF540000" unicode="&#x256a;" horiz-adv-x="557" 
d="M368 184l81 414h146l-116 -598h-146l16 84h-2q-50 -46 -103.5 -71t-93.5 -25q-53 0 -89.5 33t-36.5 100q0 30 57 320q18 97 30 157h146q-83 -402 -83 -425q0 -63 58 -63q35 0 73.5 22.5t62.5 51.5z" />
    <glyph glyph-name="SF530000" unicode="&#x256b;" horiz-adv-x="497" 
d="M141 10l-96 588h151l29 -261q8 -73 8 -192h4q46 114 78 181l136 272h151l-355 -661q-75 -139 -203 -139q-61 0 -101 15l28 109q28 -14 52 -14q42 0 67.5 22t50.5 80z" />
    <glyph glyph-name="lozenge" unicode="&#x25ca;" horiz-adv-x="1000" 
 />
    <glyph glyph-name="circle" unicode="&#x25cb;" horiz-adv-x="718" 
d="M503 888l-56 85l-89 -85h-117l143 144h132l88 -144h-101zM298 1076l112 144h165l-173 -144h-104z" />
    <glyph glyph-name="H18533" unicode="&#x25cf;" horiz-adv-x="718" 
d="M503 888l-56 85l-89 -85h-117l143 144h132l88 -144h-101zM502 1077l-154 144h159l98 -144h-103z" />
    <glyph glyph-name="invbullet" unicode="&#x25d8;" horiz-adv-x="718" 
d="M503 888l-56 85l-89 -85h-117l143 144h132l88 -144h-101zM647 903h-33q10 32 11 64q2 12 8 13q4 0 8 1q67 10 67 54q0 35 -28 35q-4 0 -15 -1t-13 -1q-21 0 -21 18q0 28 32 28q47 0 76.5 -26.5t25.5 -69.5q-6 -58 -87 -81q-25 -7 -31 -34z" />
    <glyph glyph-name="invcircle" unicode="&#x25d9;" horiz-adv-x="718" 
d="M503 888l-56 85l-89 -85h-117l143 144h132l88 -144h-101zM371 1084h-66q14 67 43 96t78 29q31 0 77 -21.5t55 -21.5q34 0 47 45h66q-12 -68 -41.5 -96.5t-79.5 -28.5q-31 0 -76 21.5t-56 21.5q-32 0 -47 -45z" />
    <glyph glyph-name="apple" unicode="&#xf000;" horiz-adv-x="1000" 
 />
    <glyph glyph-name="fi" unicode="&#xf001;" horiz-adv-x="500" 
d="M92 0v468h-79v50h79v82q0 134 110 134q31 0 50 -4v-55q-22 5 -36 5q-42 0 -55 -31q-9 -19 -9 -67v-64h98v-50h-98v-468h-60zM432 518v-518h-60v518h60zM369 720h66v-89h-66v89z" />
    <glyph glyph-name="fl" unicode="&#xf002;" horiz-adv-x="500" 
d="M92 0v468h-79v50h79v82q0 134 110 134q31 0 50 -4v-55q-22 5 -36 5q-42 0 -55 -31q-9 -19 -9 -67v-64h98v-50h-98v-468h-60zM432 720v-720h-60v720h60z" />
    <glyph glyph-name="NULL" horiz-adv-x="296" 
 />
    <glyph glyph-name="CR.001" horiz-adv-x="278" 
d="M-3 0l116 598h146l-116 -598h-146z" />
    <glyph glyph-name="percent.001" horiz-adv-x="833" 
 />
    <glyph glyph-name="middot" horiz-adv-x="519" 
d="M237 424l202 118l-16 -80l-202 -117l-44 -227h283l-23 -118h-433l47 246l-74 -43l16 80l74 43l75 386h150z" />
    <glyph glyph-name="HT" horiz-adv-x="278" 
d="M245 525l79 51l-16 -81l-79 -50l-86 -445h-146l66 341l-79 -50l16 81l79 49l69 356h146z" />
    <glyph glyph-name="LF" horiz-adv-x="278" 
d="M203 715l92 85h111l-141 -144h-132l-86 144h96z" />
    <glyph glyph-name="CR" horiz-adv-x="278" 
d="M50 800h65q9 -77 96 -77q84 0 113 77h69q-17 -64 -65 -105.5t-124 -41.5q-66 0 -109 38t-45 109z" />
    <glyph glyph-name="DLE" horiz-adv-x="278" 
d="M127 670l21 107h146l-21 -107h-146z" />
    <glyph glyph-name="DC1" horiz-adv-x="278" 
d="M112 757q0 44 30.5 74.5t74.5 30.5q43 0 74 -31t31 -74q0 -44 -30.5 -74.5t-74.5 -30.5t-74.5 30.5t-30.5 74.5zM271 757q0 23 -15.5 38.5t-38.5 15.5t-38.5 -15.5t-15.5 -38.5t15.5 -38.5t38.5 -15.5t38.5 15.5t15.5 38.5z" />
    <glyph glyph-name="DC2" horiz-adv-x="278" 
d="M109 31h74q-116 -79 -116 -125q0 -15 11.5 -27t33.5 -12q30 0 68 18l-12 -66q-66 -29 -121 -29q-42 0 -68.5 21.5t-26.5 54.5q0 43 37 80.5t120 84.5z" />
    <glyph glyph-name="DC3" horiz-adv-x="278" 
d="M-9 656l112 144h165l-173 -144h-104zM201 656l112 144h165l-173 -144h-104z" />
    <glyph glyph-name="DC4" horiz-adv-x="167" 
d="M-166 -24l421 765h78l-421 -765h-78z" />
    <glyph glyph-name="RS" horiz-adv-x="600" 
d="M32 205v96h506v-96h-506z" />
    <glyph glyph-name="US" horiz-adv-x="648" 
d="M357 0l116 598h146l-116 -598h-146zM487 670l21 107h146l-21 -107h-146zM21 447l20 104h87l13 65q10 52 34.5 90t57 57.5t65.5 28t70 8.5q54 0 95 -13l-20 -102q-38 11 -59 11q-33 0 -60.5 -19.5t-35.5 -55.5l-14 -70h116l-20 -104h-116l-87 -447h-146l87 447h-87z" />
    <glyph glyph-name="DEL" horiz-adv-x="648" 
d="M357 0l151 777h146l-151 -777h-146zM21 447l20 104h87l13 65q10 52 34.5 90t57 57.5t65.5 28t70 8.5q54 0 95 -13l-20 -102q-38 11 -59 11q-33 0 -60.5 -19.5t-35.5 -55.5l-14 -70h116l-20 -104h-116l-87 -447h-146l87 447h-87z" />
    <glyph glyph-name="glyph275" horiz-adv-x="249" 
 />
    <glyph glyph-name="glyph276" horiz-adv-x="249" 
 />
    <glyph glyph-name="glyph261" horiz-adv-x="500" 
d="M286 522h-33q10 32 11 64q2 12 8 13q4 0 8 1q67 10 67 54q0 35 -28 35q-4 0 -15 -1t-13 -1q-21 0 -21 18q0 28 32 28q47 0 76.5 -26.5t25.5 -69.5q-6 -59 -87 -81q-25 -7 -31 -34z" />
    <glyph glyph-name="glyph262" horiz-adv-x="541" 
d="M300 656l-56 85l-89 -85h-117l143 144h132l88 -144h-101zM96 845l112 144h165l-173 -144h-104z" />
    <glyph glyph-name="glyph263" horiz-adv-x="541" 
d="M300 656l-56 85l-89 -85h-117l143 144h132l88 -144h-101zM299 845l-154 144h159l98 -144h-103z" />
    <glyph glyph-name="glyph264" horiz-adv-x="541" 
d="M300 656l-56 85l-89 -85h-117l143 144h132l88 -144h-101zM444 671h-33q10 32 11 64q2 12 8 13q4 0 8 1q67 10 67 54q0 35 -28 35q-4 0 -15 -1t-13 -1q-21 0 -21 18q0 28 32 28q47 0 76.5 -26.5t25.5 -69.5q-6 -58 -87 -81q-25 -7 -31 -34z" />
    <glyph glyph-name="glyph265" horiz-adv-x="541" 
d="M300 656l-56 85l-89 -85h-117l143 144h132l88 -144h-101zM168 852h-66q14 67 43 96t78 29q31 0 77 -21.5t55 -21.5q34 0 47 45h66q-12 -68 -41.5 -96.5t-79.5 -28.5q-31 0 -76 21.5t-56 21.5q-32 0 -47 -45z" />
    <glyph glyph-name="glyph266" horiz-adv-x="541" 
d="M58 706h39q17 -81 105 -81t107 81h37q-14 -126 -149 -126q-60 0 -97.5 33.5t-41.5 92.5zM173 845l112 144h165l-173 -144h-104z" />
    <glyph glyph-name="glyph267" horiz-adv-x="541" 
d="M58 706h39q17 -81 105 -81t107 81h37q-14 -126 -149 -126q-60 0 -97.5 33.5t-41.5 92.5zM246 845l-154 144h159l98 -144h-103z" />
    <glyph glyph-name="glyph268" horiz-adv-x="541" 
d="M58 706h39q17 -81 105 -81t107 81h37q-14 -126 -149 -126q-60 0 -97.5 33.5t-41.5 92.5zM339 671h-33q10 32 11 64q2 12 8 13q4 0 8 1q67 10 67 54q0 35 -28 35q-4 0 -15 -1t-13 -1q-21 0 -21 18q0 28 32 28q47 0 76.5 -26.5t25.5 -69.5q-6 -58 -87 -81q-25 -7 -31 -34z
" />
    <glyph glyph-name="glyph269" horiz-adv-x="541" 
d="M58 706h39q17 -81 105 -81t107 81h37q-14 -126 -149 -126q-60 0 -97.5 33.5t-41.5 92.5zM168 852h-66q14 67 43 96t78 29q31 0 77 -21.5t55 -21.5q34 0 47 45h66q-12 -68 -41.5 -96.5t-79.5 -28.5q-31 0 -76 21.5t-56 21.5q-32 0 -47 -45z" />
    <glyph glyph-name="glyph270" horiz-adv-x="249" 
 />
    <glyph glyph-name="_403" horiz-adv-x="500" 
 />
    <glyph glyph-name="_405" horiz-adv-x="500" 
 />
    <glyph glyph-name="_406" horiz-adv-x="500" 
 />
    <glyph glyph-name="_407" horiz-adv-x="500" 
 />
    <glyph glyph-name="_408" horiz-adv-x="500" 
 />
    <glyph glyph-name="_409" horiz-adv-x="500" 
 />
  </font>
</defs>
</svg>
