<?xml version="1.0" standalone="no"?>
<!DOCTYPE svg PUBLIC "-//W3C//DTD SVG 1.1//EN" "http://www.w3.org/Graphics/SVG/1.1/DTD/svg11.dtd" >
<svg xmlns="http://www.w3.org/2000/svg" xmlns:xlink="http://www.w3.org/1999/xlink" version="1.1">
<metadata>
Created by FontForge 20170731 at Tue Feb 15 19:12:52 2011
 By Aleksey,,,
(c) Copyright 2005 by Tong Duc Thinh. All Rights Reserved
</metadata>
<defs>
<font id="SFUVectoraLH-Black" horiz-adv-x="648" >
  <font-face 
    font-family="SFU Vectora LH"
    font-weight="900"
    font-stretch="normal"
    units-per-em="1000"
    panose-1="0 0 3 0 0 0 0 0 0 0"
    ascent="800"
    descent="-200"
    x-height="603"
    cap-height="712"
    bbox="-164 -250 1104 1233"
    underline-thickness="50"
    underline-position="-200"
    unicode-range="U+0020-F002"
  />
<missing-glyph horiz-adv-x="852" 
d="M211 426q61 0 61 111t-61 111t-61 -111t61 -111zM211 345q-90 0 -134 55t-44 137t44 137t134 55t134 -55t44 -137t-44 -137t-134 -55zM641 -14q-90 0 -134 55t-44 137t44 137t134 55t134 -55t44 -137t-44 -137t-134 -55zM641 67q61 0 61 111t-61 111t-61 -111t61 -111z
M186 -24l389 763h90l-389 -763h-90z" />
    <glyph glyph-name=".notdef" horiz-adv-x="852" 
d="M211 426q61 0 61 111t-61 111t-61 -111t61 -111zM211 345q-90 0 -134 55t-44 137t44 137t134 55t134 -55t44 -137t-44 -137t-134 -55zM641 -14q-90 0 -134 55t-44 137t44 137t134 55t134 -55t44 -137t-44 -137t-134 -55zM641 67q61 0 61 111t-61 111t-61 -111t61 -111z
M186 -24l389 763h90l-389 -763h-90z" />
    <glyph glyph-name=".null" horiz-adv-x="0" 
 />
    <glyph glyph-name="nonmarkingreturn" horiz-adv-x="333" 
 />
    <glyph glyph-name="space" unicode=" " horiz-adv-x="296" 
 />
    <glyph glyph-name="exclam" unicode="!" horiz-adv-x="370" 
d="M94 712h182l-25 -467h-132zM110 0v154h150v-154h-150z" />
    <glyph glyph-name="quotedbl" unicode="&#x22;" horiz-adv-x="537" 
d="M324 507v270h130v-270h-130zM83 507v270h130v-270h-130z" />
    <glyph glyph-name="numbersign" unicode="#" horiz-adv-x="592" 
d="M264 417l-17 -122h92l17 122h-92zM145 295l17 122h-86v96h99l28 199h102l-28 -199h92l28 199h102l-28 -199h76v-96h-89l-17 -122h75v-96h-88l-28 -199h-102l28 199h-92l-28 -199h-102l28 199h-87v96h100z" />
    <glyph glyph-name="dollar" unicode="$" horiz-adv-x="592" 
d="M15 158l156 45q18 -43 38 -62t61 -21v168q-100 23 -146 50q-94 56 -94 163q0 58 22 102.5t58 70.5t76.5 39.5t83.5 15.5v62h48v-62q100 -2 158.5 -42.5t82.5 -123.5l-155 -34q-16 39 -35 53q-20 15 -51 17v-161q34 -7 53 -11t50.5 -13.5t50 -19t41 -26.5t35 -36.5t21 -48
t8.5 -63.5q0 -214 -259 -234v-62h-48v62q-192 6 -255 172zM270 447v152q-36 -3 -61 -21t-25 -52q0 -20 8 -35t24 -23.5t26.5 -12.5t27.5 -8zM318 281v-161q50 2 73 23t23 51q0 72 -96 87z" />
    <glyph glyph-name="percent" unicode="%" horiz-adv-x="852" 
d="M211 426q61 0 61 111t-61 111t-61 -111t61 -111zM211 345q-90 0 -134 55t-44 137t44 137t134 55t134 -55t44 -137t-44 -137t-134 -55zM641 -14q-90 0 -134 55t-44 137t44 137t134 55t134 -55t44 -137t-44 -137t-134 -55zM641 67q61 0 61 111t-61 111t-61 -111t61 -111z
M186 -24l389 763h90l-389 -763h-90z" />
    <glyph glyph-name="ampersand" unicode="&#x26;" horiz-adv-x="796" 
d="M783 0h-198l-55 50q-84 -64 -203 -64q-146 0 -218.5 63t-72.5 160q0 123 144 184q-95 71 -95 163q0 173 255 173q109 0 175.5 -40.5t66.5 -120.5q0 -33 -9.5 -60t-21 -45t-37 -37t-43.5 -29t-53 -29l134 -134q48 48 48 146h154q-3 -55 -33 -127.5t-79 -112.5zM446 138
l-166 163l-22 -16q-21 -16 -30.5 -31t-9.5 -41q0 -46 30.5 -75t84.5 -29q78 0 113 29zM261 543q0 -43 64 -93q25 13 40.5 22.5t30.5 29t15 42.5q-1 63 -75 65q-75 0 -75 -66z" />
    <glyph glyph-name="quotesingle" unicode="'" horiz-adv-x="296" 
d="M83 507v270h130v-270h-130z" />
    <glyph glyph-name="parenleft" unicode="(" horiz-adv-x="352" 
d="M226 785l94 -62q-129 -195 -129 -405q0 -214 129 -409l-94 -66q-28 32 -56 74t-59 103t-50.5 138t-19.5 156t19.5 156t50.5 138t59 103t56 74z" />
    <glyph glyph-name="parenright" unicode=")" horiz-adv-x="352" 
d="M32 723l94 62q28 -32 56 -74t59 -103t50.5 -138t19.5 -156t-19.5 -156t-50.5 -138t-59 -103t-56 -74l-94 66q129 195 129 409q0 210 -129 405z" />
    <glyph glyph-name="asterisk" unicode="*" horiz-adv-x="480" 
d="M27 522l31 98l145 -60l-16 152h106l-16 -152l145 60l31 -98l-149 -36l101 -116l-82 -60l-83 131l-83 -131l-82 60l101 116z" />
    <glyph glyph-name="plus" unicode="+" horiz-adv-x="600" 
d="M240 313v193h120v-193h193v-120h-193v-193h-120v193h-193v120h193z" />
    <glyph glyph-name="comma" unicode="," horiz-adv-x="296" 
d="M83 154h153l-94 -270h-133z" />
    <glyph glyph-name="hyphen" unicode="-" horiz-adv-x="296" 
d="M24 247v120h248v-120h-248z" />
    <glyph glyph-name="period" unicode="." horiz-adv-x="296" 
d="M73 0v154h150v-154h-150z" />
    <glyph glyph-name="slash" unicode="/" horiz-adv-x="407" 
d="M410 712l-302 -745l-111 33l302 745z" />
    <glyph glyph-name="zero" unicode="0" horiz-adv-x="592" 
d="M203 358q0 -139 21 -192.5t72 -53.5t72 53.5t21 192.5q0 97 -10.5 151t-29.5 74t-53 20t-53 -20t-29.5 -74t-10.5 -151zM21 358q0 78 12 140t41 116.5t85 84.5t137 30t137 -30t85 -84.5t41 -116.5t12 -140q0 -372 -275 -372t-275 372z" />
    <glyph glyph-name="one" unicode="1" horiz-adv-x="592" 
d="M50 515l250 197h170v-712h-185v531l-148 -126z" />
    <glyph glyph-name="two" unicode="2" horiz-adv-x="592" 
d="M36 0v126l154 148q108 104 139 150.5t31 90.5q0 9 -2 19.5t-8.5 28t-25 29t-45.5 11.5q-43 0 -63.5 -35.5t-23.5 -80.5l-164 31q2 22 8.5 45t25 54t46 54.5t76.5 40.5t112 17t110 -16.5t72 -39.5t40.5 -54t19.5 -53t4 -44q0 -75 -44.5 -140.5t-147.5 -161.5l-101 -94h288
v-126h-501z" />
    <glyph glyph-name="three" unicode="3" horiz-adv-x="592" 
d="M211 304v130q32 0 52 2t44 10t36 27.5t12 49.5q0 38 -19.5 59t-54.5 21q-67 0 -77 -77l-158 41q35 87 98 124.5t157 37.5q64 0 111.5 -17t73 -44.5t37 -57.5t11.5 -63q0 -37 -13 -67t-30 -47.5t-41 -31t-38 -18t-29 -8.5v-2q162 -25 162 -182q0 -87 -65 -146t-192 -59
q-110 0 -169.5 47t-77.5 109l-10 37l160 34q4 -43 26 -72t62 -29q44 0 64 30.5t20 64.5q0 97 -106 97h-46z" />
    <glyph glyph-name="four" unicode="4" horiz-adv-x="592" 
d="M17 257l288 455h182v-472h88v-130h-88v-110h-166v110h-304v147zM327 233v176q0 17 6 124h-2q-6 -18 -22 -49t-31 -56t-32 -52.5t-18 -29.5l-75 -113h174z" />
    <glyph glyph-name="five" unicode="5" horiz-adv-x="592" 
d="M91 712h426v-130h-275v-112q30 6 61 6q104 0 173 -60.5t69 -176.5q0 -51 -13.5 -94t-42 -80t-81.5 -58t-125 -21q-63 0 -110 20t-70 45.5t-37 58t-16.5 49t-2.5 25.5l143 29q11 -104 86 -104q50 0 70 36.5t20 80.5q0 124 -138 124q-45 0 -84 -11.5t-59 -25.5z" />
    <glyph glyph-name="six" unicode="6" horiz-adv-x="592" 
d="M375 224q0 52 -19 78.5t-65 26.5q-12 0 -24.5 -2.5t-19.5 -5.5t-8 -5q-22 -37 -22 -103q0 -101 78 -101q80 0 80 112zM284 712h214l-216 -268v-2q25 13 75 13q73 0 135 -56t62 -166q0 -122 -75.5 -184.5t-186.5 -62.5q-62 0 -112 22t-80 59.5t-46 83.5t-16 97
q0 40 11.5 82.5t24 72.5t41.5 75.5t43.5 65t49.5 66.5z" />
    <glyph glyph-name="seven" unicode="7" horiz-adv-x="592" 
d="M36 0l304 575h-294v137h490v-124l-294 -588h-206z" />
    <glyph glyph-name="eight" unicode="8" horiz-adv-x="592" 
d="M219 539q0 -23 14 -43t28 -30t41 -26q70 46 70 99q0 25 -19.5 47.5t-60.5 22.5q-31 0 -52 -19t-21 -51zM218 186q0 -31 20 -55.5t60 -24.5q25 0 41.5 10.5t23.5 26.5t9 26.5t2 18.5q0 17 -4.5 30.5t-18 29.5t-21.5 23t-31 28q-81 -40 -81 -113zM53 538q0 97 67.5 144
t174.5 47q110 0 176.5 -46t66.5 -130q0 -103 -123 -171q31 -19 50.5 -33t41.5 -37.5t32.5 -54t10.5 -69.5q0 -86 -64 -144t-191 -58q-114 0 -183.5 52.5t-69.5 145.5q0 35 9 61t31 48t40.5 35t54.5 34q-67 36 -95.5 78t-28.5 98z" />
    <glyph glyph-name="nine" unicode="9" horiz-adv-x="592" 
d="M217 491q0 -54 20 -79.5t64 -25.5q13 0 25 2.5t19 5.5t8 5q22 59 22 103q0 101 -78 101q-80 0 -80 -112zM92 0l218 271v2q-25 -13 -83 -13q-20 0 -43 6.5t-49.5 22.5t-47.5 40t-35 64t-14 89q0 123 72.5 185t189.5 62q112 0 183 -69.5t71 -192.5q0 -40 -11.5 -82.5
t-24 -72.5t-41.5 -75.5t-43.5 -65t-49.5 -66.5l-78 -105h-214z" />
    <glyph glyph-name="colon" unicode=":" horiz-adv-x="296" 
d="M73 603h150v-154h-150v154zM73 154h150v-154h-150v154z" />
    <glyph glyph-name="semicolon" unicode=";" horiz-adv-x="296" 
d="M83 154h153l-94 -270h-133zM73 603h150v-154h-150v154z" />
    <glyph glyph-name="less" unicode="&#x3c;" horiz-adv-x="600" 
d="M553 106v-114l-506 214v94l506 214v-114l-352 -147z" />
    <glyph glyph-name="equal" unicode="=" horiz-adv-x="600" 
d="M553 425v-120h-506v120h506zM553 201v-120h-506v120h506z" />
    <glyph glyph-name="greater" unicode="&#x3e;" horiz-adv-x="600" 
d="M47 -8v114l352 147l-352 147v114l506 -214v-94z" />
    <glyph glyph-name="question" unicode="?" horiz-adv-x="556" 
d="M209 514l-156 29q18 89 79.5 137.5t164.5 48.5q61 0 106.5 -16t68.5 -38t37 -51t17 -47.5t3 -35.5q0 -56 -23 -91.5t-62 -64.5q-3 -2 -15.5 -11.5t-16.5 -12t-14 -11t-13.5 -13t-10.5 -13t-9 -15t-4.5 -15.5t-2.5 -18v-31h-137v53q0 34 15 60.5t37 44t44 34t37 41
t15 55.5q0 33 -23.5 51.5t-51.5 18.5q-25 0 -42 -9t-25.5 -26t-11.5 -27t-6 -27zM213 0v154h150v-154h-150z" />
    <glyph glyph-name="at" unicode="@" horiz-adv-x="800" 
d="M297 334q0 -36 21.5 -61t57.5 -25q46 0 73.5 32t27.5 76t-20.5 67.5t-57.5 23.5q-45 0 -73.5 -33t-28.5 -80zM621 135h98q-111 -152 -319 -152q-154 0 -260 105.5t-106 274.5q0 157 102 261.5t264 104.5q166 0 266 -80t100 -223q0 -66 -19.5 -117.5t-47.5 -79.5
t-63.5 -46.5t-62 -24t-47.5 -5.5q-65 0 -80 45h-2q-45 -45 -106 -45q-56 0 -98.5 47t-42.5 116q0 103 56.5 164.5t140.5 61.5q39 0 64.5 -12.5t48.5 -42.5l9 49h95l-43 -232q-6 -30 -6 -38q0 -24 23 -24q35 0 63 38.5t28 113.5q0 245 -276 245q-121 0 -198.5 -78.5
t-77.5 -197.5q0 -135 77 -212.5t200 -77.5q139 0 220 62z" />
    <glyph glyph-name="A" unicode="A" horiz-adv-x="759" 
d="M291 286h174l-54 167q-21 61 -29 113h-4q-9 -52 -31 -113zM509 712l249 -712h-206l-43 146h-265l-47 -146h-196l261 712h247z" />
    <glyph glyph-name="B" unicode="B" horiz-adv-x="685" 
d="M66 0v712h301q252 0 252 -178q0 -135 -131 -164v-5q26 -4 49 -13t48 -27t39.5 -52.5t14.5 -81.5q0 -39 -12 -70.5t-29.5 -51t-46 -33.5t-50.5 -21t-54 -10.5t-47.5 -4t-39.5 -0.5h-294zM254 434h102q78 0 78 69q0 41 -17.5 55t-60.5 14h-102v-138zM254 140h114
q38 0 60.5 21t22.5 56q0 44 -22 60.5t-69 16.5h-106v-154z" />
    <glyph glyph-name="C" unicode="C" horiz-adv-x="704" 
d="M496 245l179 -40q-30 -112 -98.5 -167t-187.5 -55q-71 0 -132 20t-112 62.5t-80 117t-29 173.5t31 173.5t83 116.5t112 62.5t127 20.5q66 0 118 -19.5t84.5 -52.5t51 -69t26.5 -76l-179 -35q-15 106 -112 106q-23 0 -44 -9t-43 -31t-35.5 -68.5t-13.5 -112.5
q0 -233 136 -233q29 0 49.5 10t34.5 32t19.5 34.5t14.5 39.5z" />
    <glyph glyph-name="D" unicode="D" horiz-adv-x="759" 
d="M66 0v712h292q166 0 260.5 -90.5t94.5 -260.5q0 -178 -100 -269.5t-269 -91.5h-278zM262 566v-420h61q101 0 142.5 53t41.5 157q0 95 -45 152.5t-137 57.5h-63z" />
    <glyph glyph-name="E" unicode="E" horiz-adv-x="630" 
d="M66 0v712h495v-146h-303v-132h285v-146h-285v-142h314v-146h-506z" />
    <glyph glyph-name="F" unicode="F" horiz-adv-x="611" 
d="M66 0v712h497v-146h-301v-150h292v-146h-292v-270h-196z" />
    <glyph glyph-name="G" unicode="G" horiz-adv-x="741" 
d="M384 271v140h287v-345q-33 -29 -114.5 -56t-158.5 -27q-73 0 -135.5 19.5t-114.5 61.5t-82 116.5t-30 175.5q0 99 31 173.5t83 116.5t112 62.5t127 20.5q109 0 187 -47.5t101 -139.5l-179 -47q-27 88 -109 88q-147 0 -147 -227t147 -227q73 0 100 24v118h-105z" />
    <glyph glyph-name="H" unicode="H" horiz-adv-x="759" 
d="M66 0v712h196v-266h235v266h196v-712h-196v300h-235v-300h-196z" />
    <glyph glyph-name="I" unicode="I" horiz-adv-x="334" 
d="M69 0v712h196v-712h-196z" />
    <glyph glyph-name="J" unicode="J" horiz-adv-x="463" 
d="M401 712v-442q0 -40 -3 -70.5t-17 -74.5t-39.5 -72t-75 -49t-118.5 -21q-109 0 -161 52l77 130q33 -36 70 -36q9 0 19.5 3t23 11t20.5 26t8 43v500h196z" />
    <glyph glyph-name="K" unicode="K" horiz-adv-x="722" 
d="M478 0l-214 310h-2v-310h-196v712h196v-293h2l212 293h227l-260 -337l277 -375h-242z" />
    <glyph glyph-name="L" unicode="L" horiz-adv-x="537" 
d="M66 0v712h196v-562h265v-150h-461z" />
    <glyph glyph-name="M" unicode="M" horiz-adv-x="1000" 
d="M72 0v712h295l106 -358q7 -19 23 -112h7q5 37 28 122l110 348h287v-712h-188v410q0 118 7 159h-12q-11 -60 -43 -165l-123 -404h-144l-137 442q-21 69 -32 127h-10q8 -72 8 -178v-391h-182z" />
    <glyph glyph-name="N" unicode="N" horiz-adv-x="796" 
d="M66 0v712h245l175 -347q36 -67 62 -153h9q-9 42 -9 151v349h182v-712h-246l-183 362q-42 83 -51 138h-7q5 -62 5 -110v-390h-182z" />
    <glyph glyph-name="O" unicode="O" horiz-adv-x="778" 
d="M242 356q0 -106 32 -166.5t115 -60.5q147 0 147 227t-147 227q-83 0 -115 -60.5t-32 -166.5zM36 356q0 99 31 173.5t83 116.5t112 62.5t127 20.5q353 0 353 -373q0 -99 -29 -173.5t-79.5 -117t-111.5 -62.5t-133 -20q-67 0 -127 20.5t-112 62.5t-83 116.5t-31 173.5z" />
    <glyph glyph-name="P" unicode="P" 
d="M66 0v712h316q114 0 181 -55.5t67 -170.5q0 -66 -23.5 -118.5t-80.5 -88t-141 -35.5h-123v-244h-196zM258 572v-185h93q41 0 66 26t25 68q0 38 -24.5 64.5t-68.5 26.5h-91z" />
    <glyph glyph-name="Q" unicode="Q" horiz-adv-x="778" 
d="M242 356q0 -106 32 -166.5t115 -60.5q147 0 147 227t-147 227q-83 0 -115 -60.5t-32 -166.5zM725 -80l-105 -115l-271 178q-34 3 -70.5 13t-81.5 37t-79.5 66t-58 106t-23.5 151q0 99 31 173.5t83 116.5t112 62.5t127 20.5q353 0 353 -373q0 -260 -186 -340z" />
    <glyph glyph-name="R" unicode="R" horiz-adv-x="685" 
d="M258 572v-156h100q86 0 86 81q0 75 -85 75h-101zM66 0v712h326q237 0 237 -202q0 -145 -117 -195l158 -315h-216l-118 273h-74v-273h-196z" />
    <glyph glyph-name="S" unicode="S" 
d="M36 161l171 66q2 -19 10.5 -39t36 -41t68.5 -21q45 0 71.5 18t26.5 50q0 29 -20 45.5t-76 34.5l-118 41q-73 26 -118 74t-45 117q0 107 84.5 165t216.5 58q42 0 78 -7t59.5 -17t43.5 -26.5t30.5 -28.5t20.5 -31.5t12.5 -26.5t7.5 -22l-172 -57q-6 27 -28 51.5t-67 24.5
q-47 0 -70.5 -17t-23.5 -45q0 -29 18.5 -43.5t77.5 -35.5l130 -48q75 -27 113 -71t38 -113q0 -43 -15 -82t-48 -74t-94.5 -56t-144.5 -21q-45 0 -83 8t-63.5 18.5t-47.5 30t-33.5 32t-23 35t-14.5 29.5t-9 25z" />
    <glyph glyph-name="T" unicode="T" horiz-adv-x="574" 
d="M5 562v150h564v-150h-184v-562h-196v562h-184z" />
    <glyph glyph-name="U" unicode="U" horiz-adv-x="741" 
d="M66 264v448h196v-448q0 -135 110 -135q115 0 115 135v448h188v-448q0 -135 -78.5 -208t-224.5 -73q-65 0 -118 14.5t-96.5 46t-67.5 87.5t-24 133z" />
    <glyph glyph-name="V" unicode="V" horiz-adv-x="704" 
d="M216 0l-216 712h206l109 -406q17 -68 30 -134h6q9 52 37 142l120 398h196l-236 -712h-252z" />
    <glyph glyph-name="W" unicode="W" horiz-adv-x="1019" 
d="M173 0l-162 712h192l61 -320q23 -131 31 -246h10q3 80 20 197l64 369h246l62 -323q25 -132 31 -243h10q12 162 27 235l60 331h183l-152 -712h-247l-76 404q-13 72 -19 162h-11q-7 -88 -23 -183l-63 -383h-244z" />
    <glyph glyph-name="X" unicode="X" horiz-adv-x="722" 
d="M2 0l226 372l-211 340h226l82 -156q7 -13 38 -86h5q24 64 37 86l82 156h207l-202 -340l228 -372h-228l-85 151q-27 50 -51 116h-5q-13 -40 -47 -104l-88 -163h-214z" />
    <glyph glyph-name="Y" unicode="Y" horiz-adv-x="722" 
d="M263 0v264l-259 448h224l97 -186q26 -50 39 -101h5q7 25 43 108l90 179h216l-259 -448v-264h-196z" />
    <glyph glyph-name="Z" unicode="Z" horiz-adv-x="611" 
d="M30 0v166l321 400h-309v146h536v-154l-328 -412h331v-146h-551z" />
    <glyph glyph-name="bracketleft" unicode="[" horiz-adv-x="333" 
d="M43 -130v888h224v-90h-78v-708h78v-90h-224z" />
    <glyph glyph-name="backslash" unicode="\" horiz-adv-x="407" 
d="M299 -33l-302 745l111 33l302 -745z" />
    <glyph glyph-name="bracketright" unicode="]" horiz-adv-x="333" 
d="M290 758v-888h-224v90h78v708h-78v90h224z" />
    <glyph glyph-name="asciicircum" unicode="^" horiz-adv-x="600" 
d="M73 347l173 365h108l173 -365h-120l-107 245l-107 -245h-120z" />
    <glyph glyph-name="underscore" unicode="_" horiz-adv-x="500" 
d="M500 -125h-500v50h500v-50z" />
    <glyph glyph-name="grave" unicode="`" horiz-adv-x="278" 
d="M148 812l97 -150h-130l-179 150h212z" />
    <glyph glyph-name="a" unicode="a" horiz-adv-x="611" 
d="M552 358v-252q0 -69 4 -106h-182q0 10 -2 37.5t-2 40.5h-3q-92 -92 -170 -92q-48 0 -83 18t-53.5 46.5t-27 58t-8.5 59.5q0 106 78 161t193 55q44 0 71 -4v19q0 46 -16 69t-58 23q-66 0 -82 -81l-167 48q4 14 10 28t25 39.5t45 44t73 33t105 14.5q138 0 194 -67.5
t56 -191.5zM267 130q42 0 100 49v87q-31 4 -65 4q-44 0 -69.5 -21.5t-25.5 -59.5q0 -26 17 -42.5t43 -16.5z" />
    <glyph glyph-name="b" unicode="b" horiz-adv-x="667" 
d="M66 0v777h188v-235q34 29 49 40t46 23t66 12q63 0 107 -28t65 -76t29.5 -97t8.5 -106q0 -324 -205 -324q-88 0 -166 78v-64h-188zM254 428v-256q18 -17 26 -23.5t26 -14.5t37 -8q90 0 90 168q0 37 -2.5 62t-10.5 56.5t-28 48t-51 16.5q-26 0 -44 -11.5t-43 -37.5z" />
    <glyph glyph-name="c" unicode="c" horiz-adv-x="574" 
d="M546 433l-158 -41q-4 42 -23 70.5t-55 28.5q-21 0 -36 -6.5t-24 -21t-14.5 -28.5t-8 -39t-3 -42t-0.5 -48q0 -46 2.5 -73.5t10.5 -56.5t26.5 -42.5t48.5 -13.5q70 0 80 99l165 -38q-8 -29 -14.5 -47t-25.5 -49.5t-43.5 -50t-68 -33.5t-99.5 -15q-137 0 -205.5 90.5
t-68.5 223.5q0 65 16 120.5t47.5 100.5t85.5 70.5t125 25.5q61 0 108.5 -18.5t74 -48.5t40.5 -59t17 -58z" />
    <glyph glyph-name="d" unicode="d" horiz-adv-x="667" 
d="M601 777v-777h-188v64q-78 -78 -166 -78q-205 0 -205 324q0 57 8.5 106t29.5 97t65 76t107 28q35 0 65.5 -12t46.5 -23.5t49 -39.5v235h188zM413 172v256q-17 17 -26.5 25.5t-26 16t-34.5 7.5q-31 0 -51 -16.5t-28 -48t-10.5 -56.5t-2.5 -62q0 -168 90 -168q19 0 37 8
t26 14.5t26 23.5z" />
    <glyph glyph-name="e" unicode="e" horiz-adv-x="630" 
d="M315 617q126 0 204.5 -79.5t78.5 -239.5v-48h-374q0 -17 0.5 -29.5t5.5 -33t14.5 -33.5t28.5 -23.5t45 -10.5q28 0 49 13.5t29 26.5t17 33l159 -52q-39 -84 -100.5 -119.5t-156.5 -35.5q-68 0 -120.5 22.5t-82.5 56t-49 78t-25 82t-6 74.5q0 138 74 228t209 90zM224 373
h189q-9 118 -91 118q-31 0 -52 -12.5t-30 -33t-12.5 -37.5t-3.5 -35z" />
    <glyph glyph-name="f" unicode="f" horiz-adv-x="407" 
d="M97 0v425h-87v130h87v35q0 222 233 222q40 0 98 -12v-123q-43 9 -68 9q-35 0 -55 -22.5t-20 -60.5v-48h121v-130h-121v-425h-188z" />
    <glyph glyph-name="g" unicode="g" horiz-adv-x="630" 
d="M625 603v-102h-117q37 -31 37 -103q0 -75 -70 -123t-159 -48q-31 0 -51 4q-12 -10 -12 -18q0 -10 5 -15.5t24 -10.5l194 -48q59 -16 97 -53.5t38 -97.5q0 -69 -44.5 -113t-111.5 -60.5t-158 -16.5q-122 0 -197 41t-75 112q0 18 4 34.5t10 28.5t16 24t17.5 19.5t20 15.5
t19 11.5t18 9.5t13.5 7q-33 23 -33 63q0 58 61 88q-24 10 -40.5 19t-40 28.5t-36 51.5t-12.5 73q0 46 17.5 82t43.5 55.5t61 32t63.5 16.5t57.5 4q42 0 74 -5q34 -6 35 -6h231zM208 419q0 -31 23.5 -51.5t61.5 -20.5q37 0 61.5 19.5t24.5 54.5q0 34 -21 53.5t-62 19.5
q-88 0 -88 -75zM356 18l-125 32l-6 -5q-6 -5 -8.5 -7t-8 -7.5t-8 -10.5t-6 -11.5t-5 -14t-1.5 -15.5q0 -38 32 -52.5t109 -14.5q103 0 103 50q0 24 -14.5 34t-61.5 22z" />
    <glyph glyph-name="h" unicode="h" horiz-adv-x="667" 
d="M66 0v777h188v-255q41 34 64.5 51t59 30.5t74.5 13.5q42 0 72 -14t44.5 -32t22.5 -48.5t9 -48.5t1 -48v-426h-188v352q0 24 -1 37.5t-6 33.5t-18 30t-33 10q-24 0 -43.5 -13t-57.5 -48v-402h-188z" />
    <glyph glyph-name="i" unicode="i" horiz-adv-x="316" 
d="M64 0v603h188v-603h-188zM64 654v123h188v-123h-188z" />
    <glyph glyph-name="j" unicode="j" horiz-adv-x="316" 
d="M252 603v-568q0 -23 -0.5 -36t-2.5 -38t-7.5 -40.5t-14.5 -37t-24 -34.5t-35.5 -26t-50 -19t-66.5 -6q-35 0 -88 12l8 138q11 -7 35 -7q58 0 58 82v580h188zM252 777v-123h-188v123h188z" />
    <glyph glyph-name="k" unicode="k" 
d="M66 0v777h188v-438h2l161 264h212l-191 -285l208 -318h-223l-167 295h-2v-295h-188z" />
    <glyph glyph-name="l" unicode="l" horiz-adv-x="316" 
d="M64 0v777h188v-777h-188z" />
    <glyph glyph-name="m" unicode="m" horiz-adv-x="982" 
d="M64 0v603h188v-81q88 95 176 95q110 0 145 -95q3 3 15 13t16.5 13.5t16 12.5t17.5 13t17.5 11.5t19.5 10.5t20.5 8t23 7.5t23.5 4t27 1.5q42 0 72 -14t44.5 -32t22.5 -48.5t9 -48.5t1 -48v-426h-188v369q0 28 -2.5 45t-16 33t-39.5 16q-18 0 -35.5 -10t-51.5 -46v-407
h-188v369q0 28 -2.5 45t-16 33t-39.5 16q-18 0 -35.5 -10t-51.5 -46v-407h-188z" />
    <glyph glyph-name="n" unicode="n" horiz-adv-x="667" 
d="M413 0v371q0 92 -58 92q-6 0 -12 -1t-12.5 -4t-12 -5.5t-12 -7t-11 -7.5t-11.5 -9t-10 -9t-10.5 -9.5t-9.5 -8.5v-402h-188v603h188v-81q41 34 64.5 51t59 30.5t74.5 13.5q42 0 72 -14t44.5 -32t22.5 -48.5t9 -48.5t1 -48v-426h-188z" />
    <glyph glyph-name="o" unicode="o" 
d="M32 301q0 139 74.5 227.5t217.5 88.5t217.5 -88.5t74.5 -227.5q0 -138 -74.5 -226.5t-217.5 -88.5t-217.5 88.5t-74.5 226.5zM224 301q0 -181 100 -181q32 0 53 14.5t31 43t13 56t3 67.5t-3 68t-13 56.5t-31 43t-53 14.5q-100 0 -100 -182z" />
    <glyph glyph-name="p" unicode="p" horiz-adv-x="667" 
d="M66 -195v798h188v-61q34 29 49 40t46 23t66 12q63 0 107 -28t65 -76t29.5 -97t8.5 -106q0 -324 -205 -324q-88 0 -166 78v-259h-188zM254 428v-256q18 -17 26 -23.5t26 -14.5t37 -8q90 0 90 168q0 37 -2.5 62t-10.5 56.5t-28 48t-51 16.5q-26 0 -44 -11.5t-43 -37.5z" />
    <glyph glyph-name="q" unicode="q" horiz-adv-x="667" 
d="M601 603v-798h-188v259q-78 -78 -166 -78q-205 0 -205 324q0 57 8.5 106t29.5 97t65 76t107 28q35 0 65.5 -12t46.5 -23.5t49 -39.5v61h188zM413 172v256q-17 17 -26.5 25.5t-26 16t-34.5 7.5q-31 0 -51 -16.5t-28 -48t-10.5 -56.5t-2.5 -62q0 -168 90 -168q19 0 37 8
t26 14.5t26 23.5z" />
    <glyph glyph-name="r" unicode="r" horiz-adv-x="444" 
d="M66 0v603h188v-97h2q26 51 75 77.5t87 26.5q18 0 34 -3v-169q-20 9 -61 9q-89 0 -137 -67v-380h-188z" />
    <glyph glyph-name="s" unicode="s" horiz-adv-x="556" 
d="M523 473l-154 -49q-10 25 -17 36.5t-23.5 21t-43.5 9.5q-64 0 -64 -49q0 -8 2 -14t8 -10.5t11 -8t15.5 -7t18 -5.5t22 -6t22.5 -6l64 -18q146 -41 146 -179q0 -50 -17 -87.5t-43 -59t-62 -34.5t-67 -17t-66 -4q-53 0 -95.5 12t-66 26.5t-43.5 39t-26 37t-15 33.5
q-1 1 -1 2t-1 2.5t-1 2.5l160 46q6 -32 30.5 -51.5t57.5 -19.5q31 0 49.5 15.5t18.5 37.5q0 26 -12 36t-51 21l-108 30q-132 40 -132 167q0 40 12 71.5t29 51.5t43 34.5t47.5 21t48 10.5t39 4.5t26.5 0.5q52 0 93.5 -11t65 -25t41.5 -36.5t25 -36.5t14 -35z" />
    <glyph glyph-name="t" unicode="t" horiz-adv-x="444" 
d="M106 682l185 78v-205h143v-130h-143v-223q0 -76 80 -76q23 0 63 8v-134q-70 -14 -122 -14q-97 0 -151.5 47t-54.5 141v251h-96v130h96v127z" />
    <glyph glyph-name="u" unicode="u" 
d="M587 603v-603h-188v70q-63 -51 -99.5 -67.5t-87.5 -16.5q-151 0 -151 184v433h188v-397q0 -33 12 -49.5t44 -16.5q23 0 42 11t52 39v413h188z" />
    <glyph glyph-name="v" unicode="v" horiz-adv-x="593" 
d="M189 0l-189 603h200l67 -246q20 -79 30 -175h9q7 100 29 175l70 246h188l-188 -603h-216z" />
    <glyph glyph-name="w" unicode="w" horiz-adv-x="981" 
d="M176 0l-174 603h198l68 -288q9 -33 23 -133h11q19 137 25 161l57 260h232l63 -288q19 -79 23 -133h10q6 62 25 147l60 274h182l-157 -603h-236l-51 217q-28 122 -36 208h-10q0 -59 -31 -197l-46 -228h-236z" />
    <glyph glyph-name="x" unicode="x" horiz-adv-x="630" 
d="M1 0l182 325l-163 278h215l58 -119q20 -38 26 -67h10q4 25 31 73l57 113h194l-161 -278l179 -325h-218l-75 158q-18 37 -21 54h-9q-4 -13 -23 -53l-80 -159h-202z" />
    <glyph glyph-name="y" unicode="y" horiz-adv-x="593" 
d="M209 17l-207 586h200l65 -248q25 -98 29 -170h10q5 111 31 184l69 234h185l-208 -623q-10 -30 -17.5 -48.5t-25.5 -47t-41 -45t-61.5 -29t-87.5 -12.5q-39 0 -113 17l9 141q36 -15 69 -15q75 0 94 76z" />
    <glyph glyph-name="z" unicode="z" horiz-adv-x="556" 
d="M38 477v126h479v-124l-269 -353h280v-126h-500v127l269 350h-259z" />
    <glyph glyph-name="braceleft" unicode="{" horiz-adv-x="333" 
d="M79 8v188q0 70 -69 70v96q69 0 69 70v188q0 68 47 103t116 35h65v-90h-20q-36 0 -47 -17t-11 -48v-183q0 -27 -8.5 -47.5t-18.5 -30.5t-27.5 -16.5t-26.5 -8t-24 -2.5v-2q18 -2 31 -5t32.5 -13t30.5 -32t11 -55v-183q0 -31 11 -48t47 -17h20v-90h-65q-69 0 -116 35
t-47 103z" />
    <glyph glyph-name="bar" unicode="|" horiz-adv-x="222" 
d="M51 -250v1000h120v-1000h-120z" />
    <glyph glyph-name="braceright" unicode="}" horiz-adv-x="333" 
d="M254 620v-188q0 -70 69 -70v-96q-69 0 -69 -70v-188q0 -68 -47 -103t-116 -35h-65v90h20q36 0 47 17t11 48v183q0 33 11 55t30.5 32t32.5 13t31 5v2q-15 1 -24 2.5t-26.5 8t-27.5 16.5t-18.5 30.5t-8.5 47.5v183q0 31 -11 48t-47 17h-20v90h65q69 0 116 -35t47 -103z" />
    <glyph glyph-name="asciitilde" unicode="~" horiz-adv-x="600" 
d="M105 160l-36 95q42 86 125 86q38 0 111 -32q7 -3 21.5 -9.5t23 -10t20 -8t20.5 -6.5t17 -2q19 0 37 13t25.5 23t25.5 36l36 -94q-27 -41 -55 -63.5t-70 -22.5q-45 0 -102 33q-59 35 -115 35q-52 0 -84 -73z" />
    <glyph glyph-name="euro" horiz-adv-x="498" 
d="M522 633l-23 -156l-48 6q0 157 -94 157q-103 0 -161 -211h172l-21 -48h-164q-3 -14 -16 -73h147l-21 -47h-134q-6 -41 -6 -74q0 -55 21 -91q25 -43 78 -43q57 0 101 68q24 37 51 119l55 -10l-54 -188q-77 -53 -159 -53q-110 0 -166 84q-47 71 -47 188h-74l21 47h56
q3 24 12 73h-66l21 48h59q40 113 108 183q82 88 187 88q95 0 165 -67z" />
    <glyph glyph-name="nbspace" unicode="&#xa0;" horiz-adv-x="296" 
 />
    <glyph glyph-name="exclamdown" unicode="&#xa1;" horiz-adv-x="370" 
d="M276 -109h-182l25 467h132zM260 603v-154h-150v154h150z" />
    <glyph glyph-name="cent" unicode="&#xa2;" horiz-adv-x="592" 
d="M236 173l99 313q-15 5 -28 5q-21 0 -36 -6.5t-24 -21t-14.5 -28.5t-8 -39t-3 -42t-0.5 -48q0 -90 13 -133h2zM377 456l-103 -328q15 -8 41 -8q41 0 63 29t26 54l159 -44q-56 -173 -260 -173q-35 0 -72 8l-24 -76l-48 16l24 76q-77 34 -115.5 112.5t-38.5 177.5
q0 65 16 120.5t47.5 100.5t85.5 70.5t125 25.5q37 0 72 -7l24 74l48 -16l-23 -71q23 -9 37.5 -17t33.5 -23.5t34.5 -41t26.5 -60.5l-155 -51q-16 44 -24 52z" />
    <glyph glyph-name="sterling" unicode="&#xa3;" horiz-adv-x="592" 
d="M48 0v126h74v182h-74v108h74v60q0 124 63.5 188.5t188.5 64.5q107 0 158.5 -42.5t71.5 -123.5l-162 -40q-8 47 -27 63.5t-50 16.5q-71 0 -71 -88v-99h141v-108h-141v-182h255v-126h-501z" />
    <glyph glyph-name="currency" unicode="&#xa4;" horiz-adv-x="592" 
d="M158 359q0 -57 40.5 -97.5t97.5 -40.5t97.5 40.5t40.5 97.5t-40.5 97.5t-97.5 40.5t-97.5 -40.5t-40.5 -97.5zM35 165l56 56q-43 62 -43 138q0 77 42 138l-55 55l68 68l55 -55q62 42 138 42q77 0 138 -42l55 55l68 -68l-55 -55q42 -61 42 -138t-42 -138l55 -56l-68 -68
l-56 56q-61 -42 -137 -42t-137 42l-56 -56z" />
    <glyph glyph-name="yen" unicode="&#xa5;" horiz-adv-x="592" 
d="M215 0v108h-135v75h135v80h-135v75h100l-176 374h182l111 -309h4l110 309h177l-178 -374h96v-75h-131v-80h131v-75h-131v-108h-160z" />
    <glyph glyph-name="brokenbar" unicode="&#xa6;" horiz-adv-x="222" 
d="M51 -175v350h120v-350h-120zM51 325v350h120v-350h-120z" />
    <glyph glyph-name="section" unicode="&#xa7;" horiz-adv-x="592" 
d="M50 -17l127 61q16 -24 25.5 -35.5t29.5 -21.5t47 -10q31 0 49 13.5t20.5 23t2.5 16.5q0 30 -44 49l-98 42q-51 22 -83.5 46t-45.5 49t-17 43t-4 43q0 40 24.5 76t77.5 56q-78 50 -78 129q0 13 2.5 28t15.5 41.5t34.5 46.5t65.5 35t103 15q78 0 127.5 -22.5t89.5 -83.5
l-125 -68q-24 38 -41.5 50.5t-49.5 12.5q-34 0 -51 -14.5t-17 -36.5q0 -24 19.5 -38t82.5 -41q42 -18 60.5 -27t48 -24.5t42 -27.5t27.5 -30.5t20 -40t5 -48.5q0 -87 -92 -126q41 -45 50 -65q11 -24 11 -54q0 -72 -57.5 -128.5t-175.5 -56.5q-71 0 -128 24t-100 99zM286 243
l89 -40q19 14 26 25t7 31q0 23 -19.5 44.5t-72.5 45.5l-88 38q-8 -6 -10.5 -7.5t-9 -7.5t-8.5 -11t-4.5 -14t-2.5 -19q0 -28 19.5 -44t73.5 -41z" />
    <glyph glyph-name="dieresis" unicode="&#xa8;" horiz-adv-x="278" 
d="M345 777v-123h-176v123h176zM-67 654v123h176v-123h-176z" />
    <glyph glyph-name="copyright" unicode="&#xa9;" horiz-adv-x="800" 
d="M27 356q0 154 109.5 263.5t263.5 109.5t263.5 -109.5t109.5 -263.5t-109.5 -263.5t-263.5 -109.5t-263.5 109.5t-109.5 263.5zM117 356q0 -117 83 -200t200 -83t200 83t83 200t-83 200t-200 83t-200 -83t-83 -200zM593 421h-100q-11 64 -86 64q-47 0 -71 -33t-24 -91
q0 -56 24.5 -91t72.5 -35q80 0 84 67h100q-9 -74 -62.5 -115.5t-123.5 -41.5q-90 0 -147.5 61.5t-57.5 152.5q0 94 56.5 155t148.5 61q72 0 124.5 -39.5t61.5 -114.5z" />
    <glyph glyph-name="ordfeminine" unicode="&#xaa;" horiz-adv-x="397" 
d="M359 568v-145q0 -53 4 -64h-120l-4 47q-43 -37 -60.5 -46t-51.5 -9q-59 0 -85.5 34t-26.5 75q0 129 224 129q0 15 -1 24t-5.5 20t-15 16t-27.5 5q-42 0 -53 -49l-108 29q12 25 20 37t26 28t48 23t73 7q46 0 79 -12.5t49 -28t24.5 -41.5t9.5 -41t1 -38zM239 466v54h-12
q-92 0 -92 -48q0 -16 11 -25.5t28 -9.5q24 0 65 29z" />
    <glyph glyph-name="guillemotleft" unicode="&#xab;" horiz-adv-x="592" 
d="M288 307l191 252l96 -64l-127 -188l127 -188l-96 -64zM17 307l191 252l96 -64l-127 -188l127 -188l-96 -64z" />
    <glyph glyph-name="logicalnot" unicode="&#xac;" horiz-adv-x="600" 
d="M433 108v197h-386v120h506v-317h-120z" />
    <glyph glyph-name="sfthyphen" unicode="&#xad;" horiz-adv-x="833" 
 />
    <glyph glyph-name="registered" unicode="&#xae;" horiz-adv-x="800" 
d="M464 154l-90 163h-34v-163h-95v405h184q143 0 143 -117q0 -52 -29 -84.5t-75 -37.5l97 -166h-101zM340 392h70q62 0 62 48q0 27 -17.5 35.5t-54.5 8.5h-60v-92zM27 356q0 154 109.5 263.5t263.5 109.5t263.5 -109.5t109.5 -263.5t-109.5 -263.5t-263.5 -109.5
t-263.5 109.5t-109.5 263.5zM117 356q0 -117 83 -200t200 -83t200 83t83 200t-83 200t-200 83t-200 -83t-83 -200z" />
    <glyph glyph-name="overscore" unicode="&#xaf;" horiz-adv-x="278" 
d="M-31 692v90h340v-90h-340z" />
    <glyph glyph-name="degree" unicode="&#xb0;" horiz-adv-x="400" 
d="M136 586q0 -26 19 -45t45 -19t45 19t19 45t-19 45t-45 19t-45 -19t-19 -45zM56 586q0 60 42 102t102 42q59 0 101.5 -42.5t42.5 -101.5q0 -60 -42 -102t-102 -42q-61 0 -102.5 41.5t-41.5 102.5z" />
    <glyph glyph-name="plusminus" unicode="&#xb1;" horiz-adv-x="600" 
d="M240 388v118h120v-118h193v-120h-193v-118h-120v118h-193v120h193zM47 0v120h506v-120h-506z" />
    <glyph glyph-name="twosuperior" unicode="&#xb2;" horiz-adv-x="385" 
d="M23 291v77l101 88q69 62 89.5 90.5t20.5 54.5q0 5 -1 11t-5.5 16t-16.5 16.5t-30 6.5q-49 0 -56 -69l-107 21q1 17 9 35t25.5 40.5t54.5 36.5t87 14t84.5 -14t49.5 -36t20.5 -39.5t5.5 -34.5q0 -45 -29 -85t-95 -96l-66 -53v-2h187v-78h-328z" />
    <glyph glyph-name="threesuperior" unicode="&#xb3;" horiz-adv-x="385" 
d="M18 399l104 21q8 -61 57 -61q29 0 42 18.5t13 38.5q0 58 -69 58h-30v78q20 0 33.5 1.5t29 6.5t23.5 16.5t8 29.5q0 48 -48 48q-42 0 -50 -46l-103 24q23 53 64 75t104 22q82 0 117.5 -32.5t35.5 -76.5q0 -27 -11.5 -47.5t-30.5 -31.5t-32 -16t-26 -8v-2q105 -13 105 -101
q0 -37 -16 -63.5t-35.5 -39t-48.5 -19.5t-42.5 -7.5t-29.5 -0.5q-39 0 -67.5 7.5t-56 34t-40.5 73.5z" />
    <glyph glyph-name="acute" unicode="&#xb4;" horiz-adv-x="278" 
d="M33 662l97 150h212v-2l-179 -148h-130z" />
    <glyph glyph-name="mu" unicode="&#xb5;" 
d="M61 -195v798h188v-365q0 -58 12 -79.5t53 -21.5q27 0 47.5 13t29 26t8.5 20v407h188v-603h-188v71h-2q-30 -77 -89 -77q-26 0 -59 29v-218h-188z" />
    <glyph glyph-name="paragraph" unicode="&#xb6;" horiz-adv-x="592" 
d="M205 -126v469q-71 0 -119 49t-48 136q0 184 190 184h314v-838h-120v748h-97v-748h-120z" />
    <glyph glyph-name="ch270" unicode="&#xb7;" horiz-adv-x="296" 
d="M54 279q0 39 27.5 66.5t66.5 27.5t66.5 -27.5t27.5 -66.5t-27.5 -66.5t-66.5 -27.5t-66.5 27.5t-27.5 66.5z" />
    <glyph glyph-name="cedilla" unicode="&#xb8;" horiz-adv-x="278" 
d="M106 0h60l-39 -64q18 5 39 5q47 0 68 -25.5t21 -52.5q0 -49 -37 -71t-92 -22q-68 0 -126 28l21 47q59 -21 92 -21q46 0 46 35q0 33 -49 33q-17 0 -34 -7l-25 22z" />
    <glyph glyph-name="onesuperior" unicode="&#xb9;" horiz-adv-x="385" 
d="M18 594l162 128h110v-431h-114v323l-102 -86z" />
    <glyph glyph-name="ordmasculine" unicode="&#xba;" horiz-adv-x="385" 
d="M3 540q0 83 48.5 136t141.5 53q92 0 140.5 -53t48.5 -136t-48.5 -136t-140.5 -53q-93 0 -141.5 53t-48.5 136zM193 645q-21 0 -35 -9t-19.5 -26.5t-7.5 -32.5t-2 -37q0 -31 3 -50.5t18 -37t43 -17.5q21 0 34.5 9t19.5 26t7.5 32t1.5 38q0 22 -1.5 37t-7.5 32.5
t-19.5 26.5t-34.5 9z" />
    <glyph glyph-name="guillemotright" unicode="&#xbb;" horiz-adv-x="592" 
d="M304 307l-191 -252l-96 64l127 188l-127 188l96 64zM575 307l-191 -252l-96 64l127 188l-127 188l96 64z" />
    <glyph glyph-name="onequarter" unicode="&#xbc;" horiz-adv-x="889" 
d="M495 154l187 277h123v-288h53v-78h-53v-65h-112v65h-198v89zM697 140v105q0 33 3 81h-2q-14 -46 -66 -118l-49 -68h114zM197 -24l389 763h90l-389 -763h-90zM18 594l162 128h110v-431h-114v323l-102 -86z" />
    <glyph glyph-name="onehalf" unicode="&#xbd;" horiz-adv-x="889" 
d="M181 -24l389 763h90l-389 -763h-90zM18 594l162 128h110v-431h-114v323l-102 -86zM527 0v77l101 88q69 62 89.5 90.5t20.5 54.5q0 5 -1 11t-5.5 16t-16.5 16.5t-30 6.5q-49 0 -56 -69l-107 21q1 17 9 35t25.5 40.5t54.5 36.5t87 14t84.5 -14t49.5 -36t20.5 -39.5
t5.5 -34.5q0 -45 -29 -85t-95 -96l-66 -53v-2h187v-78h-328z" />
    <glyph glyph-name="threequarters" unicode="&#xbe;" horiz-adv-x="889" 
d="M495 154l187 277h123v-288h53v-78h-53v-65h-112v65h-198v89zM697 140v105q0 33 3 81h-2q-14 -46 -66 -118l-49 -68h114zM18 399l104 21q8 -61 57 -61q29 0 42 18.5t13 38.5q0 58 -69 58h-30v78q20 0 33.5 1.5t29 6.5t23.5 16.5t8 29.5q0 48 -48 48q-42 0 -50 -46l-103 24
q23 53 64 75t104 22q82 0 117.5 -32.5t35.5 -76.5q0 -27 -11.5 -47.5t-30.5 -31.5t-32 -16t-26 -8v-2q105 -13 105 -101q0 -37 -16 -63.5t-35.5 -39t-48.5 -19.5t-42.5 -7.5t-29.5 -0.5q-39 0 -67.5 7.5t-56 34t-40.5 73.5zM215 -24l389 763h90l-389 -763h-90z" />
    <glyph glyph-name="questiondown" unicode="&#xbf;" horiz-adv-x="556" 
d="M347 89l156 -29q-18 -89 -79.5 -137.5t-164.5 -48.5q-61 0 -106.5 16t-68.5 38t-37 51t-17 47.5t-3 35.5q0 56 23 91.5t62 64.5q4 3 15.5 11.5t16 12t14 11t14 12.5t10.5 13t9 15t5 15.5t2 18.5v31h137v-53q0 -34 -15 -60.5t-37 -44t-44 -34t-37 -41t-15 -55.5
q0 -33 23.5 -51.5t51.5 -18.5q25 0 42 9t25.5 26t11.5 27t6 27zM343 603v-154h-150v154h150z" />
    <glyph glyph-name="Agrave" unicode="&#xc0;" horiz-adv-x="759" 
d="M365 892l72 -122h-97l-134 122h159zM291 286h174l-54 167q-21 61 -29 113h-4q-9 -52 -31 -113zM509 712l249 -712h-206l-43 146h-265l-47 -146h-196l261 712h247z" />
    <glyph glyph-name="Aacute" unicode="&#xc1;" horiz-adv-x="759" 
d="M333 769l72 123h159v-1l-134 -122h-97zM291 286h174l-54 167q-21 61 -29 113h-4q-9 -52 -31 -113zM509 712l249 -712h-206l-43 146h-265l-47 -146h-196l261 712h247z" />
    <glyph glyph-name="Acircumflex" unicode="&#xc2;" horiz-adv-x="759" 
d="M232 761l88 110h120l88 -110h-106l-42 55l-42 -55h-106zM291 286h174l-54 167q-21 61 -29 113h-4q-9 -52 -31 -113zM509 712l249 -712h-206l-43 146h-265l-47 -146h-196l261 712h247z" />
    <glyph glyph-name="Atilde" unicode="&#xc3;" horiz-adv-x="759" 
d="M480 875h60q-4 -22 -9 -37t-15.5 -33t-29.5 -27.5t-46 -9.5q-25 0 -61.5 16.5t-45.5 16.5q-22 0 -33 -34h-60q0 11 7 33.5t32 48.5t62 26q24 0 56.5 -17t48.5 -17q3 0 6 0.5t5.5 1.5t4 1.5t3.5 3t3 3.5t3 5t2.5 5.5t3 6.5zM291 286h174l-54 167q-21 61 -29 113h-4
q-9 -52 -31 -113zM509 712l249 -712h-206l-43 146h-265l-47 -146h-196l261 712h247z" />
    <glyph glyph-name="Adieresis" unicode="&#xc4;" horiz-adv-x="759" 
d="M291 286h174l-54 167q-21 61 -29 113h-4q-9 -52 -31 -113zM509 712l249 -712h-206l-43 146h-265l-47 -146h-196l261 712h247zM586 886v-123h-176v123h176zM174 763v123h176v-123h-176z" />
    <glyph glyph-name="Aring" unicode="&#xc5;" horiz-adv-x="759" 
d="M291 286h174l-54 167q-21 61 -29 113h-4q-9 -52 -31 -113zM509 712l249 -712h-206l-43 146h-265l-47 -146h-196l261 712h247zM325 861q0 -23 16 -39t39 -16t39 16t16 39t-16 39t-39 16t-39 -16t-16 -39zM259 861q0 50 35.5 85.5t85.5 35.5t85.5 -35.5t35.5 -85.5
t-35.5 -85.5t-85.5 -35.5t-85.5 35.5t-35.5 85.5z" />
    <glyph glyph-name="AE" unicode="&#xc6;" horiz-adv-x="1000" 
d="M1 0l372 712h564v-146h-255v-132h236v-146h-236v-142h266v-146h-448v154h-221l-73 -154h-205zM488 586l-144 -298h156v298h-12z" />
    <glyph glyph-name="Ccedilla" unicode="&#xc7;" horiz-adv-x="704" 
d="M669 512l-179 -35q-15 106 -112 106q-23 0 -44 -9t-43 -31t-35.5 -68.5t-13.5 -112.5q0 -233 136 -233q29 0 49.5 10t34.5 32t19.5 34.5t14.5 39.5l179 -40q-30 -112 -98.5 -167t-187.5 -55q-10 0 -17 1l-29 -48q18 5 39 5q47 0 68 -25.5t21 -52.5q0 -49 -37 -71t-92 -22
q-68 0 -126 28l21 47q59 -21 92 -21q46 0 46 35q0 33 -49 33q-17 0 -34 -7l-25 22l49 82q-125 20 -202.5 110t-77.5 257q0 99 31 173.5t83 116.5t112 62.5t127 20.5q66 0 118 -19.5t84.5 -52.5t51 -69t26.5 -76z" />
    <glyph glyph-name="Egrave" unicode="&#xc8;" horiz-adv-x="630" 
d="M345 892l72 -122h-97l-134 122h159zM66 0v712h495v-146h-303v-132h285v-146h-285v-142h314v-146h-506z" />
    <glyph glyph-name="Eacute" unicode="&#xc9;" horiz-adv-x="630" 
d="M263 769l72 123h159v-1l-134 -122h-97zM66 0v712h495v-146h-303v-132h285v-146h-285v-142h314v-146h-506z" />
    <glyph glyph-name="Ecircumflex" unicode="&#xca;" horiz-adv-x="630" 
d="M172 761l88 110h120l88 -110h-106l-42 55l-42 -55h-106zM66 0v712h495v-146h-303v-132h285v-146h-285v-142h314v-146h-506z" />
    <glyph glyph-name="Edieresis" unicode="&#xcb;" horiz-adv-x="630" 
d="M66 0v712h495v-146h-303v-132h285v-146h-285v-142h314v-146h-506zM521 886v-123h-176v123h176zM109 763v123h176v-123h-176z" />
    <glyph glyph-name="Igrave" unicode="&#xcc;" horiz-adv-x="334" 
d="M175 892l72 -122h-97l-134 122h159zM69 0v712h196v-712h-196z" />
    <glyph glyph-name="Iacute" unicode="&#xcd;" horiz-adv-x="334" 
d="M93 769l72 123h159v-1l-134 -122h-97zM69 0v712h196v-712h-196z" />
    <glyph glyph-name="Icircumflex" unicode="&#xce;" horiz-adv-x="334" 
d="M69 0v712h196v-712h-196zM-36 771l121 150h164l121 -150h-146l-57 75l-57 -75h-146z" />
    <glyph glyph-name="Idieresis" unicode="&#xcf;" horiz-adv-x="334" 
d="M69 0v712h196v-712h-196zM373 886v-123h-176v123h176zM-39 763v123h176v-123h-176z" />
    <glyph glyph-name="Eth" unicode="&#xd0;" horiz-adv-x="759" 
d="M-6 343v73h72v296h292q166 0 260.5 -90.5t94.5 -260.5q0 -178 -100 -269.5t-269 -91.5h-278v343h-72zM390 416v-73h-128v-197h61q101 0 142.5 53t41.5 157q0 95 -45 152.5t-137 57.5h-63v-150h128z" />
    <glyph glyph-name="Ntilde" unicode="&#xd1;" horiz-adv-x="796" 
d="M66 0v712h245l175 -347q36 -67 62 -153h9q-9 42 -9 151v349h182v-712h-246l-183 362q-42 83 -51 138h-7q5 -62 5 -110v-390h-182zM516 911h78q-7 -32 -12 -47.5t-19 -40t-38.5 -36t-60.5 -11.5q-34 0 -81 19.5t-59 19.5q-29 0 -44 -44h-78q32 140 131 140q32 0 75 -19.5
t63 -19.5q12 0 20 4.5t12 11t13 23.5z" />
    <glyph glyph-name="Ograve" unicode="&#xd2;" horiz-adv-x="778" 
d="M385 892l72 -122h-97l-134 122h159zM242 356q0 -106 32 -166.5t115 -60.5q147 0 147 227t-147 227q-83 0 -115 -60.5t-32 -166.5zM36 356q0 99 31 173.5t83 116.5t112 62.5t127 20.5q353 0 353 -373q0 -99 -29 -173.5t-79.5 -117t-111.5 -62.5t-133 -20q-67 0 -127 20.5
t-112 62.5t-83 116.5t-31 173.5z" />
    <glyph glyph-name="Oacute" unicode="&#xd3;" horiz-adv-x="778" 
d="M333 769l72 123h159v-1l-134 -122h-97zM242 356q0 -106 32 -166.5t115 -60.5q147 0 147 227t-147 227q-83 0 -115 -60.5t-32 -166.5zM36 356q0 99 31 173.5t83 116.5t112 62.5t127 20.5q353 0 353 -373q0 -99 -29 -173.5t-79.5 -117t-111.5 -62.5t-133 -20
q-67 0 -127 20.5t-112 62.5t-83 116.5t-31 173.5z" />
    <glyph glyph-name="Ocircumflex" unicode="&#xd4;" horiz-adv-x="778" 
d="M252 761l88 110h120l88 -110h-106l-42 55l-42 -55h-106zM242 356q0 -106 32 -166.5t115 -60.5q147 0 147 227t-147 227q-83 0 -115 -60.5t-32 -166.5zM36 356q0 99 31 173.5t83 116.5t112 62.5t127 20.5q353 0 353 -373q0 -99 -29 -173.5t-79.5 -117t-111.5 -62.5
t-133 -20q-67 0 -127 20.5t-112 62.5t-83 116.5t-31 173.5z" />
    <glyph glyph-name="Otilde" unicode="&#xd5;" horiz-adv-x="778" 
d="M490 875h60q-4 -22 -9 -37t-15.5 -33t-29.5 -27.5t-46 -9.5q-25 0 -61.5 16.5t-45.5 16.5q-22 0 -33 -34h-60q0 11 7 33.5t32 48.5t62 26q24 0 56.5 -17t48.5 -17q3 0 6 0.5t5.5 1.5t4 1.5t3.5 3t3 3.5t3 5t2.5 5.5t3 6.5zM242 356q0 -106 32 -166.5t115 -60.5
q147 0 147 227t-147 227q-83 0 -115 -60.5t-32 -166.5zM36 356q0 99 31 173.5t83 116.5t112 62.5t127 20.5q353 0 353 -373q0 -99 -29 -173.5t-79.5 -117t-111.5 -62.5t-133 -20q-67 0 -127 20.5t-112 62.5t-83 116.5t-31 173.5z" />
    <glyph glyph-name="Odieresis" unicode="&#xd6;" horiz-adv-x="778" 
d="M242 356q0 -106 32 -166.5t115 -60.5q147 0 147 227t-147 227q-83 0 -115 -60.5t-32 -166.5zM36 356q0 99 31 173.5t83 116.5t112 62.5t127 20.5q353 0 353 -373q0 -99 -29 -173.5t-79.5 -117t-111.5 -62.5t-133 -20q-67 0 -127 20.5t-112 62.5t-83 116.5t-31 173.5z
M595 886v-123h-176v123h176zM183 763v123h176v-123h-176z" />
    <glyph glyph-name="multiply" unicode="&#xd7;" horiz-adv-x="600" 
d="M218 253l-154 154l82 82l154 -154l154 154l82 -82l-155 -154l155 -154l-82 -82l-154 155l-154 -155l-82 82z" />
    <glyph glyph-name="Oslash" unicode="&#xd8;" horiz-adv-x="778" 
d="M254 240l249 281q-37 62 -114 62q-83 0 -115 -60.5t-32 -166.5q0 -69 12 -116zM67 29l56 63q-87 100 -87 264q0 99 31 173.5t83 116.5t112 62.5t127 20.5q151 0 237 -69l47 52l38 -29l-50 -56q81 -94 81 -271q0 -99 -29 -173.5t-79.5 -117t-111.5 -62.5t-133 -20
q-136 0 -231 77l-53 -60zM523 471l-249 -281q36 -61 115 -61q147 0 147 227q0 76 -13 115z" />
    <glyph glyph-name="Ugrave" unicode="&#xd9;" horiz-adv-x="741" 
d="M365 892l72 -122h-97l-134 122h159zM66 264v448h196v-448q0 -135 110 -135q115 0 115 135v448h188v-448q0 -135 -78.5 -208t-224.5 -73q-65 0 -118 14.5t-96.5 46t-67.5 87.5t-24 133z" />
    <glyph glyph-name="Uacute" unicode="&#xda;" horiz-adv-x="741" 
d="M313 769l72 123h159v-1l-134 -122h-97zM66 264v448h196v-448q0 -135 110 -135q115 0 115 135v448h188v-448q0 -135 -78.5 -208t-224.5 -73q-65 0 -118 14.5t-96.5 46t-67.5 87.5t-24 133z" />
    <glyph glyph-name="Ucircumflex" unicode="&#xdb;" horiz-adv-x="741" 
d="M66 264v448h196v-448q0 -135 110 -135q115 0 115 135v448h188v-448q0 -135 -78.5 -208t-224.5 -73q-65 0 -118 14.5t-96.5 46t-67.5 87.5t-24 133zM168 771l121 150h164l121 -150h-146l-57 75l-57 -75h-146z" />
    <glyph glyph-name="Udieresis" unicode="&#xdc;" horiz-adv-x="741" 
d="M66 264v448h196v-448q0 -135 110 -135q115 0 115 135v448h188v-448q0 -135 -78.5 -208t-224.5 -73q-65 0 -118 14.5t-96.5 46t-67.5 87.5t-24 133zM577 886v-123h-176v123h176zM165 763v123h176v-123h-176z" />
    <glyph glyph-name="Yacute" unicode="&#xdd;" horiz-adv-x="722" 
d="M303 769l72 123h159v-1l-134 -122h-97zM263 0v264l-259 448h224l97 -186q26 -50 39 -101h5q7 25 43 108l90 179h216l-259 -448v-264h-196z" />
    <glyph glyph-name="Thorn" unicode="&#xde;" 
d="M66 0v712h196v-87h120q114 0 181 -55.5t67 -170.5q0 -66 -23.5 -118.5t-80.5 -88t-141 -35.5h-123v-157h-196zM258 485v-185h93q41 0 66 26t25 68q0 38 -24.5 64.5t-68.5 26.5h-91z" />
    <glyph glyph-name="germandbls" unicode="&#xdf;" horiz-adv-x="667" 
d="M66 0v514q0 277 274 277q112 0 175 -55.5t63 -144.5q0 -42 -15.5 -75t-38.5 -51.5t-42.5 -28.5t-36.5 -14v-8q180 -13 180 -208q0 -100 -59.5 -160t-156.5 -60q-50 0 -115 14l20 135q26 -12 47 -12q82 0 82 114q0 108 -97 108h-31v126h13q78 0 78 94q0 89 -75 89
q-41 0 -59 -24.5t-18 -76.5v-553h-188z" />
    <glyph glyph-name="agrave" unicode="&#xe0;" horiz-adv-x="611" 
d="M322 778l68 -114h-91l-126 114h149zM552 358v-252q0 -69 4 -106h-182q0 10 -2 37.5t-2 40.5h-3q-92 -92 -170 -92q-48 0 -83 18t-53.5 46.5t-27 58t-8.5 59.5q0 106 78 161t193 55q44 0 71 -4v19q0 46 -16 69t-58 23q-66 0 -82 -81l-167 48q4 14 10 28t25 39.5t45 44
t73 33t105 14.5q138 0 194 -67.5t56 -191.5zM267 130q42 0 100 49v87q-31 4 -65 4q-44 0 -69.5 -21.5t-25.5 -59.5q0 -26 17 -42.5t43 -16.5z" />
    <glyph glyph-name="aacute" unicode="&#xe1;" horiz-adv-x="611" 
d="M240 663l68 115h149v-1l-126 -114h-91zM552 358v-252q0 -69 4 -106h-182q0 10 -2 37.5t-2 40.5h-3q-92 -92 -170 -92q-48 0 -83 18t-53.5 46.5t-27 58t-8.5 59.5q0 106 78 161t193 55q44 0 71 -4v19q0 46 -16 69t-58 23q-66 0 -82 -81l-167 48q4 14 10 28t25 39.5t45 44
t73 33t105 14.5q138 0 194 -67.5t56 -191.5zM267 130q42 0 100 49v87q-31 4 -65 4q-44 0 -69.5 -21.5t-25.5 -59.5q0 -26 17 -42.5t43 -16.5z" />
    <glyph glyph-name="acircumflex" unicode="&#xe2;" horiz-adv-x="611" 
d="M161 664l83 104h112l83 -104h-100l-39 52l-39 -52h-100zM552 358v-252q0 -69 4 -106h-182q0 10 -2 37.5t-2 40.5h-3q-92 -92 -170 -92q-48 0 -83 18t-53.5 46.5t-27 58t-8.5 59.5q0 106 78 161t193 55q44 0 71 -4v19q0 46 -16 69t-58 23q-66 0 -82 -81l-167 48
q4 14 10 28t25 39.5t45 44t73 33t105 14.5q138 0 194 -67.5t56 -191.5zM267 130q42 0 100 49v87q-31 4 -65 4q-44 0 -69.5 -21.5t-25.5 -59.5q0 -26 17 -42.5t43 -16.5z" />
    <glyph glyph-name="atilde" unicode="&#xe3;" horiz-adv-x="611" 
d="M398 764h56q-4 -21 -8.5 -35t-14 -31t-27.5 -26t-44 -9q-24 0 -58 15.5t-43 15.5q-20 0 -31 -32h-56q0 11 6.5 32t30 45.5t58.5 24.5q23 0 53.5 -16t45.5 -16h5.5t5 1t4 2t3 3t2.5 3t3 4.5t2.5 5t3 6.5zM552 358v-252q0 -69 4 -106h-182q0 10 -2 37.5t-2 40.5h-3
q-92 -92 -170 -92q-48 0 -83 18t-53.5 46.5t-27 58t-8.5 59.5q0 106 78 161t193 55q44 0 71 -4v19q0 46 -16 69t-58 23q-66 0 -82 -81l-167 48q4 14 10 28t25 39.5t45 44t73 33t105 14.5q138 0 194 -67.5t56 -191.5zM267 130q42 0 100 49v87q-31 4 -65 4q-44 0 -69.5 -21.5
t-25.5 -59.5q0 -26 17 -42.5t43 -16.5z" />
    <glyph glyph-name="adieresis" unicode="&#xe4;" horiz-adv-x="611" 
d="M552 358v-252q0 -69 4 -106h-182q0 10 -2 37.5t-2 40.5h-3q-92 -92 -170 -92q-48 0 -83 18t-53.5 46.5t-27 58t-8.5 59.5q0 106 78 161t193 55q44 0 71 -4v19q0 46 -16 69t-58 23q-66 0 -82 -81l-167 48q4 14 10 28t25 39.5t45 44t73 33t105 14.5q138 0 194 -67.5
t56 -191.5zM267 130q42 0 100 49v87q-31 4 -65 4q-44 0 -69.5 -21.5t-25.5 -59.5q0 -26 17 -42.5t43 -16.5zM512 777v-123h-176v123h176zM100 654v123h176v-123h-176z" />
    <glyph glyph-name="aring" unicode="&#xe5;" horiz-adv-x="611" 
d="M552 358v-252q0 -69 4 -106h-182q0 10 -2 37.5t-2 40.5h-3q-92 -92 -170 -92q-48 0 -83 18t-53.5 46.5t-27 58t-8.5 59.5q0 106 78 161t193 55q44 0 71 -4v19q0 46 -16 69t-58 23q-66 0 -82 -81l-167 48q4 14 10 28t25 39.5t45 44t73 33t105 14.5q138 0 194 -67.5
t56 -191.5zM267 130q42 0 100 49v87q-31 4 -65 4q-44 0 -69.5 -21.5t-25.5 -59.5q0 -26 17 -42.5t43 -16.5zM251 767q0 -23 16 -39t39 -16t39 16t16 39t-16 39t-39 16t-39 -16t-16 -39zM185 767q0 50 35.5 85.5t85.5 35.5t85.5 -35.5t35.5 -85.5t-35.5 -85.5t-85.5 -35.5
t-85.5 35.5t-35.5 85.5z" />
    <glyph glyph-name="ae" unicode="&#xe6;" horiz-adv-x="944" 
d="M545 373h189q-9 118 -91 118q-31 0 -52 -12.5t-30 -33t-12.5 -37.5t-3.5 -35zM919 250h-374q0 -17 0.5 -29.5t5.5 -33t14.5 -33.5t28.5 -23.5t45 -10.5q28 0 49 13.5t29 26.5t17 33l159 -52q-39 -84 -100.5 -119.5t-156.5 -35.5q-65 0 -123 24t-93 70q-105 -94 -223 -94
q-48 0 -83 18t-53.5 46.5t-27 58t-8.5 59.5q0 106 78 161t193 55q44 0 71 -4v19q0 46 -16 69t-58 23q-66 0 -82 -81l-167 48q4 14 10 28t25 39.5t45 44t73 33t105 14.5q44 0 78.5 -11t52 -23.5t41.5 -34.5q58 69 169 69q121 0 198.5 -80t77.5 -239v-48zM367 179v87
q-31 4 -65 4q-44 0 -69.5 -21.5t-25.5 -59.5q0 -26 17 -42.5t43 -16.5q42 0 100 49z" />
    <glyph glyph-name="ccedilla" unicode="&#xe7;" horiz-adv-x="574" 
d="M546 433l-158 -41q-4 42 -23 70.5t-55 28.5q-21 0 -36 -6.5t-24 -21t-14.5 -28.5t-8 -39t-3 -42t-0.5 -48q0 -46 2.5 -73.5t10.5 -56.5t26.5 -42.5t48.5 -13.5q70 0 80 99l165 -38q-7 -24 -12 -37t-17 -39.5t-28 -43t-40.5 -35t-60 -28.5t-79.5 -12l-31 -50q18 5 39 5
q47 0 68 -25.5t21 -52.5q0 -49 -37 -71t-92 -22q-68 0 -126 28l21 47q59 -21 92 -21q46 0 46 35q0 33 -49 33q-17 0 -34 -7l-25 22l49 79q-115 17 -172.5 105t-57.5 209q0 65 16 120.5t47.5 100.5t85.5 70.5t125 25.5q61 0 108.5 -18.5t74 -48.5t40.5 -59t17 -58z" />
    <glyph glyph-name="egrave" unicode="&#xe8;" horiz-adv-x="630" 
d="M322 778l68 -114h-91l-126 114h149zM315 617q126 0 204.5 -79.5t78.5 -239.5v-48h-374q0 -17 0.5 -29.5t5.5 -33t14.5 -33.5t28.5 -23.5t45 -10.5q28 0 49 13.5t29 26.5t17 33l159 -52q-39 -84 -100.5 -119.5t-156.5 -35.5q-68 0 -120.5 22.5t-82.5 56t-49 78t-25 82
t-6 74.5q0 138 74 228t209 90zM224 373h189q-9 118 -91 118q-31 0 -52 -12.5t-30 -33t-12.5 -37.5t-3.5 -35z" />
    <glyph glyph-name="eacute" unicode="&#xe9;" horiz-adv-x="630" 
d="M240 663l68 115h149v-1l-126 -114h-91zM315 617q126 0 204.5 -79.5t78.5 -239.5v-48h-374q0 -17 0.5 -29.5t5.5 -33t14.5 -33.5t28.5 -23.5t45 -10.5q28 0 49 13.5t29 26.5t17 33l159 -52q-39 -84 -100.5 -119.5t-156.5 -35.5q-68 0 -120.5 22.5t-82.5 56t-49 78t-25 82
t-6 74.5q0 138 74 228t209 90zM224 373h189q-9 118 -91 118q-31 0 -52 -12.5t-30 -33t-12.5 -37.5t-3.5 -35z" />
    <glyph glyph-name="ecircumflex" unicode="&#xea;" horiz-adv-x="630" 
d="M176 664l83 104h112l83 -104h-100l-39 52l-39 -52h-100zM315 617q126 0 204.5 -79.5t78.5 -239.5v-48h-374q0 -17 0.5 -29.5t5.5 -33t14.5 -33.5t28.5 -23.5t45 -10.5q28 0 49 13.5t29 26.5t17 33l159 -52q-39 -84 -100.5 -119.5t-156.5 -35.5q-68 0 -120.5 22.5
t-82.5 56t-49 78t-25 82t-6 74.5q0 138 74 228t209 90zM224 373h189q-9 118 -91 118q-31 0 -52 -12.5t-30 -33t-12.5 -37.5t-3.5 -35z" />
    <glyph glyph-name="edieresis" unicode="&#xeb;" horiz-adv-x="630" 
d="M315 617q126 0 204.5 -79.5t78.5 -239.5v-48h-374q0 -17 0.5 -29.5t5.5 -33t14.5 -33.5t28.5 -23.5t45 -10.5q28 0 49 13.5t29 26.5t17 33l159 -52q-39 -84 -100.5 -119.5t-156.5 -35.5q-68 0 -120.5 22.5t-82.5 56t-49 78t-25 82t-6 74.5q0 138 74 228t209 90zM224 373
h189q-9 118 -91 118q-31 0 -52 -12.5t-30 -33t-12.5 -37.5t-3.5 -35zM521 777v-123h-176v123h176zM109 654v123h176v-123h-176z" />
    <glyph glyph-name="igrave" unicode="&#xec;" horiz-adv-x="316" 
d="M182 778l68 -114h-91l-126 114h149zM64 0v603h188v-603h-188z" />
    <glyph glyph-name="iacute" unicode="&#xed;" horiz-adv-x="316" 
d="M100 663l68 115h149v-1l-126 -114h-91zM64 0v603h188v-603h-188z" />
    <glyph glyph-name="icircumflex" unicode="&#xee;" horiz-adv-x="316" 
d="M64 0v603h188v-603h-188zM-45 662l121 150h164l121 -150h-146l-57 75l-57 -75h-146z" />
    <glyph glyph-name="idieresis" unicode="&#xef;" horiz-adv-x="316" 
d="M64 0v603h188v-603h-188zM364 777v-123h-176v123h176zM-48 654v123h176v-123h-176z" />
    <glyph glyph-name="eth" unicode="&#xf0;" 
d="M153 572l-53 56l94 45l-72 54l129 85l92 -65l98 48l45 -55l-87 -44q2 -2 26 -25.5t29 -29.5t27.5 -30t30 -34.5t26.5 -35.5t26.5 -41.5t20 -43t17.5 -48.5t9.5 -50.5t4.5 -56.5q0 -138 -74.5 -226.5t-217.5 -88.5t-217.5 88.5t-74.5 226.5q0 103 65 176t168 73
q33 0 76 -19l2 2q-15 21 -88 91zM324 442q-33 0 -54.5 -15t-30.5 -42t-12 -50.5t-3 -54.5t3 -54t12 -50t30.5 -41.5t54.5 -14.5t54.5 14.5t30.5 41.5t12 50t3 54t-3 54.5t-12 50.5t-30.5 42t-54.5 15z" />
    <glyph glyph-name="ntilde" unicode="&#xf1;" horiz-adv-x="667" 
d="M413 0v371q0 92 -58 92q-6 0 -12 -1t-12.5 -4t-12 -5.5t-12 -7t-11 -7.5t-11.5 -9t-10 -9t-10.5 -9.5t-9.5 -8.5v-402h-188v603h188v-81q41 34 64.5 51t59 30.5t74.5 13.5q42 0 72 -14t44.5 -32t22.5 -48.5t9 -48.5t1 -48v-426h-188zM452 802h78q-7 -32 -12 -47.5
t-19 -40t-38.5 -36t-60.5 -11.5q-34 0 -81 19.5t-59 19.5q-29 0 -44 -44h-78q32 140 131 140q32 0 75 -19.5t63 -19.5q12 0 20 4.5t12 11t13 23.5z" />
    <glyph glyph-name="ograve" unicode="&#xf2;" 
d="M322 778l68 -114h-91l-126 114h149zM32 301q0 139 74.5 227.5t217.5 88.5t217.5 -88.5t74.5 -227.5q0 -138 -74.5 -226.5t-217.5 -88.5t-217.5 88.5t-74.5 226.5zM224 301q0 -181 100 -181q32 0 53 14.5t31 43t13 56t3 67.5t-3 68t-13 56.5t-31 43t-53 14.5
q-100 0 -100 -182z" />
    <glyph glyph-name="oacute" unicode="&#xf3;" 
d="M240 663l68 115h149v-1l-126 -114h-91zM32 301q0 139 74.5 227.5t217.5 88.5t217.5 -88.5t74.5 -227.5q0 -138 -74.5 -226.5t-217.5 -88.5t-217.5 88.5t-74.5 226.5zM224 301q0 -181 100 -181q32 0 53 14.5t31 43t13 56t3 67.5t-3 68t-13 56.5t-31 43t-53 14.5
q-100 0 -100 -182z" />
    <glyph glyph-name="ocircumflex" unicode="&#xf4;" 
d="M191 664l83 104h112l83 -104h-100l-39 52l-39 -52h-100zM32 301q0 139 74.5 227.5t217.5 88.5t217.5 -88.5t74.5 -227.5q0 -138 -74.5 -226.5t-217.5 -88.5t-217.5 88.5t-74.5 226.5zM224 301q0 -181 100 -181q32 0 53 14.5t31 43t13 56t3 67.5t-3 68t-13 56.5t-31 43
t-53 14.5q-100 0 -100 -182z" />
    <glyph glyph-name="otilde" unicode="&#xf5;" 
d="M418 764h56q-4 -21 -8.5 -35t-14 -31t-27.5 -26t-44 -9q-24 0 -58 15.5t-43 15.5q-20 0 -31 -32h-56q0 11 6.5 32t30 45.5t58.5 24.5q23 0 53.5 -16t45.5 -16h5.5t5 1t4 2t3 3t2.5 3t3 4.5t2.5 5t3 6.5zM32 301q0 139 74.5 227.5t217.5 88.5t217.5 -88.5t74.5 -227.5
q0 -138 -74.5 -226.5t-217.5 -88.5t-217.5 88.5t-74.5 226.5zM224 301q0 -181 100 -181q32 0 53 14.5t31 43t13 56t3 67.5t-3 68t-13 56.5t-31 43t-53 14.5q-100 0 -100 -182z" />
    <glyph glyph-name="odieresis" unicode="&#xf6;" 
d="M32 301q0 139 74.5 227.5t217.5 88.5t217.5 -88.5t74.5 -227.5q0 -138 -74.5 -226.5t-217.5 -88.5t-217.5 88.5t-74.5 226.5zM224 301q0 -181 100 -181q32 0 53 14.5t31 43t13 56t3 67.5t-3 68t-13 56.5t-31 43t-53 14.5q-100 0 -100 -182zM530 777v-123h-176v123h176z
M118 654v123h176v-123h-176z" />
    <glyph glyph-name="divide" unicode="&#xf7;" horiz-adv-x="600" 
d="M553 193h-506v120h506v-120zM208 460q0 38 27.5 65.5t65.5 27.5q37 0 64.5 -28t27.5 -65q0 -34 -28 -63t-63 -29q-38 0 -66 27.5t-28 64.5zM208 46q0 39 27 65.5t66 26.5q37 0 64.5 -27.5t27.5 -64.5q0 -35 -27.5 -64t-63.5 -29q-38 0 -66 27.5t-28 65.5z" />
    <glyph glyph-name="oslash" unicode="&#xf8;" 
d="M227 231l178 203q-25 49 -81 49q-33 0 -54.5 -15t-30.5 -44.5t-12 -56t-3 -66.5q0 -47 3 -70zM420 379l-180 -205q25 -54 84 -54q33 0 54.5 15t30.5 44t12 55.5t3 66.5q0 45 -4 78zM38 15l61 70q-67 80 -67 216q0 139 74.5 227.5t217.5 88.5q119 0 188 -61l53 61l37 -30
l-56 -64q70 -85 70 -222q0 -138 -74.5 -226.5t-217.5 -88.5q-117 0 -192 64l-57 -64z" />
    <glyph glyph-name="ugrave" unicode="&#xf9;" 
d="M322 778l68 -114h-91l-126 114h149zM587 603v-603h-188v70q-63 -51 -99.5 -67.5t-87.5 -16.5q-151 0 -151 184v433h188v-397q0 -33 12 -49.5t44 -16.5q23 0 42 11t52 39v413h188z" />
    <glyph glyph-name="uacute" unicode="&#xfa;" 
d="M260 663l68 115h149v-1l-126 -114h-91zM587 603v-603h-188v70q-63 -51 -99.5 -67.5t-87.5 -16.5q-151 0 -151 184v433h188v-397q0 -33 12 -49.5t44 -16.5q23 0 42 11t52 39v413h188z" />
    <glyph glyph-name="ucircumflex" unicode="&#xfb;" 
d="M587 603v-603h-188v70q-63 -51 -99.5 -67.5t-87.5 -16.5q-151 0 -151 184v433h188v-397q0 -33 12 -49.5t44 -16.5q23 0 42 11t52 39v413h188zM121 662l121 150h164l121 -150h-146l-57 75l-57 -75h-146z" />
    <glyph glyph-name="udieresis" unicode="&#xfc;" 
d="M587 603v-603h-188v70q-63 -51 -99.5 -67.5t-87.5 -16.5q-151 0 -151 184v433h188v-397q0 -33 12 -49.5t44 -16.5q23 0 42 11t52 39v413h188zM530 777v-123h-176v123h176zM118 654v123h176v-123h-176z" />
    <glyph glyph-name="yacute" unicode="&#xfd;" horiz-adv-x="593" 
d="M240 663l68 115h149v-1l-126 -114h-91zM209 17l-207 586h200l65 -248q25 -98 29 -170h10q5 111 31 184l69 234h185l-208 -623q-10 -30 -17.5 -48.5t-25.5 -47t-41 -45t-61.5 -29t-87.5 -12.5q-39 0 -113 17l9 141q36 -15 69 -15q75 0 94 76z" />
    <glyph glyph-name="thorn" unicode="&#xfe;" horiz-adv-x="667" 
d="M66 -195v972h188v-235q34 29 49 40t46 23t66 12q63 0 107 -28t65 -76t29.5 -97t8.5 -106q0 -324 -205 -324q-88 0 -166 78v-259h-188zM254 428v-256q18 -17 26 -23.5t26 -14.5t37 -8q90 0 90 168q0 37 -2.5 62t-10.5 56.5t-28 48t-51 16.5q-26 0 -44 -11.5t-43 -37.5z
" />
    <glyph glyph-name="ydieresis" unicode="&#xff;" horiz-adv-x="593" 
d="M209 17l-207 586h200l65 -248q25 -98 29 -170h10q5 111 31 184l69 234h185l-208 -623q-10 -30 -17.5 -48.5t-25.5 -47t-41 -45t-61.5 -29t-87.5 -12.5q-39 0 -113 17l9 141q36 -15 69 -15q75 0 94 76zM503 777v-123h-176v123h176zM91 654v123h176v-123h-176z" />
    <glyph glyph-name="glyph271" unicode="&#x102;" horiz-adv-x="759" 
d="M291 286h174l-54 167q-21 61 -29 113h-4q-9 -52 -31 -113zM509 712l249 -712h-206l-43 146h-265l-47 -146h-196l261 712h247zM254 876h60q4 -26 20 -38t55 -12t55 12t20 38h60q-6 -61 -37.5 -89t-97.5 -28t-97.5 28t-37.5 89z" />
    <glyph glyph-name="glyph272" unicode="&#x103;" horiz-adv-x="611" 
d="M552 358v-252q0 -69 4 -106h-182q0 10 -2 37.5t-2 40.5h-3q-92 -92 -170 -92q-48 0 -83 18t-53.5 46.5t-27 58t-8.5 59.5q0 106 78 161t193 55q44 0 71 -4v19q0 46 -16 69t-58 23q-66 0 -82 -81l-167 48q4 14 10 28t25 39.5t45 44t73 33t105 14.5q138 0 194 -67.5
t56 -191.5zM267 130q42 0 100 49v87q-31 4 -65 4q-44 0 -69.5 -21.5t-25.5 -59.5q0 -26 17 -42.5t43 -16.5zM182 775h57q3 -25 18.5 -36t52.5 -11t52 11t19 36h57q-5 -58 -35 -84.5t-93 -26.5t-93 26.5t-35 84.5z" />
    <glyph glyph-name="Cacute" unicode="&#x106;" horiz-adv-x="711" 
d="M496 245l179 -40q-30 -112 -98.5 -167t-187.5 -55q-71 0 -132 20t-112 62.5t-80 117t-29 173.5t31 173.5t83 116.5t112 62.5t127 20.5q66 0 118 -19.5t84.5 -52.5t51 -69t26.5 -76l-179 -35q-15 106 -112 106q-23 0 -44 -9t-43 -31t-35.5 -68.5t-13.5 -112.5
q0 -233 136 -233q29 0 49.5 10t34.5 32t19.5 34.5t14.5 39.5zM210 917l97 150h212v-2l-179 -148h-130z" />
    <glyph glyph-name="cacute" unicode="&#x107;" horiz-adv-x="441" 
d="M546 433l-158 -41q-4 42 -23 70.5t-55 28.5q-21 0 -36 -6.5t-24 -21t-14.5 -28.5t-8 -39t-3 -42t-0.5 -48q0 -46 2.5 -73.5t10.5 -56.5t26.5 -42.5t48.5 -13.5q70 0 80 99l165 -38q-8 -29 -14.5 -47t-25.5 -49.5t-43.5 -50t-68 -33.5t-99.5 -15q-137 0 -205.5 90.5
t-68.5 223.5q0 65 16 120.5t47.5 100.5t85.5 70.5t125 25.5q61 0 108.5 -18.5t74 -48.5t40.5 -59t17 -58zM13 662l97 150h212v-2l-179 -148h-130z" />
    <glyph glyph-name="Ccaron" unicode="&#x10c;" horiz-adv-x="711" 
d="M496 245l179 -40q-30 -112 -98.5 -167t-187.5 -55q-71 0 -132 20t-112 62.5t-80 117t-29 173.5t31 173.5t83 116.5t112 62.5t127 20.5q66 0 118 -19.5t84.5 -52.5t51 -69t26.5 -76l-179 -35q-15 106 -112 106q-23 0 -44 -9t-43 -31t-35.5 -68.5t-13.5 -112.5
q0 -233 136 -233q29 0 49.5 10t34.5 32t19.5 34.5t14.5 39.5zM266 968l82 -102l82 102h65l-113 -139h-67l-114 139h65z" />
    <glyph glyph-name="ccaron" unicode="&#x10d;" horiz-adv-x="441" 
d="M546 433l-158 -41q-4 42 -23 70.5t-55 28.5q-21 0 -36 -6.5t-24 -21t-14.5 -28.5t-8 -39t-3 -42t-0.5 -48q0 -46 2.5 -73.5t10.5 -56.5t26.5 -42.5t48.5 -13.5q70 0 80 99l165 -38q-8 -29 -14.5 -47t-25.5 -49.5t-43.5 -50t-68 -33.5t-99.5 -15q-137 0 -205.5 90.5
t-68.5 223.5q0 65 16 120.5t47.5 100.5t85.5 70.5t125 25.5q61 0 108.5 -18.5t74 -48.5t40.5 -59t17 -58zM69 713l82 -102l82 102h65l-113 -139h-67l-114 139h65z" />
    <glyph glyph-name="Dslash" unicode="&#x110;" horiz-adv-x="759" 
d="M-6 343v73h72v296h292q166 0 260.5 -90.5t94.5 -260.5q0 -178 -100 -269.5t-269 -91.5h-278v343h-72zM390 416v-73h-128v-197h61q101 0 142.5 53t41.5 157q0 95 -45 152.5t-137 57.5h-63v-150h128z" />
    <glyph glyph-name="dslash" unicode="&#x111;" horiz-adv-x="667" 
d="M325 651v74h88v62h188v-62h129v-74h-129v-651h-188v64q-78 -78 -166 -78q-205 0 -205 324q0 57 8.5 106t29.5 97t65 76t107 28q35 0 65.5 -12t46.5 -23.5t49 -39.5v109h-88zM413 172v256q-17 17 -26.5 25.5t-26 16t-34.5 7.5q-31 0 -51 -16.5t-28 -48t-10.5 -56.5
t-2.5 -62q0 -168 90 -168q19 0 37 8t26 14.5t26 23.5z" />
    <glyph glyph-name="Gbreve" unicode="&#x11e;" horiz-adv-x="767" 
d="M384 271v140h287v-345q-33 -29 -114.5 -56t-158.5 -27q-73 0 -135.5 19.5t-114.5 61.5t-82 116.5t-30 175.5q0 99 31 173.5t83 116.5t112 62.5t127 20.5q109 0 187 -47.5t101 -139.5l-179 -47q-27 88 -109 88q-147 0 -147 -227t147 -227q73 0 100 24v118h-105zM224 961
h39q17 -81 105 -81t107 81h37q-14 -126 -149 -126q-60 0 -97.5 33.5t-41.5 92.5z" />
    <glyph glyph-name="gbreve" unicode="&#x11f;" horiz-adv-x="492" 
d="M625 603v-102h-117q37 -31 37 -103q0 -75 -70 -123t-159 -48q-31 0 -51 4q-12 -10 -12 -18q0 -10 5 -15.5t24 -10.5l194 -48q59 -16 97 -53.5t38 -97.5q0 -69 -44.5 -113t-111.5 -60.5t-158 -16.5q-122 0 -197 41t-75 112q0 18 4 34.5t10 28.5t16 24t17.5 19.5t20 15.5
t19 11.5t18 9.5t13.5 7q-33 23 -33 63q0 58 61 88q-24 10 -40.5 19t-40 28.5t-36 51.5t-12.5 73q0 46 17.5 82t43.5 55.5t61 32t63.5 16.5t57.5 4q42 0 74 -5q34 -6 35 -6h231zM208 419q0 -31 23.5 -51.5t61.5 -20.5q37 0 61.5 19.5t24.5 54.5q0 34 -21 53.5t-62 19.5
q-88 0 -88 -75zM356 18l-125 32l-6 -5q-6 -5 -8.5 -7t-8 -7.5t-8 -10.5t-6 -11.5t-5 -14t-1.5 -15.5q0 -38 32 -52.5t109 -14.5q103 0 103 50q0 24 -14.5 34t-61.5 22zM26 706h39q17 -81 105 -81t107 81h37q-14 -126 -149 -126q-60 0 -97.5 33.5t-41.5 92.5z" />
    <glyph glyph-name="glyph273" unicode="&#x128;" horiz-adv-x="334" 
d="M69 0v712h196v-712h-196zM276 874h60q-4 -22 -9 -37t-15.5 -33t-29.5 -27.5t-46 -9.5q-25 0 -61.5 16.5t-45.5 16.5q-22 0 -33 -34h-60q0 11 7 33.5t32 48.5t62 26q24 0 56.5 -17t48.5 -17q3 0 6 0.5t5.5 1.5t4 1.5t3.5 3t3 3.5t3 5t2.5 5.5t3 6.5z" />
    <glyph glyph-name="glyph274" unicode="&#x129;" horiz-adv-x="316" 
d="M64 0v603h188v-603h-188zM238 764h56q-4 -21 -8.5 -35t-14 -31t-27.5 -26t-44 -9q-24 0 -58 15.5t-43 15.5q-20 0 -31 -32h-56q0 11 6.5 32t30 45.5t58.5 24.5q23 0 53.5 -16t45.5 -16h5.5t5 1t4 2t3 3t2.5 3t3 4.5t2.5 5t3 6.5z" />
    <glyph glyph-name="Idot" unicode="&#x130;" horiz-adv-x="429" 
d="M69 0v712h196v-712h-196zM226 839h-65v102h65v-102z" />
    <glyph glyph-name="dotlessi" unicode="&#x131;" horiz-adv-x="222" 
d="M138 518v-518h-60v518h60z" />
    <glyph glyph-name="Lslash" unicode="&#x141;" horiz-adv-x="556" 
d="M535 58v-58h-454v360l-81 -40v60l81 40v300h68v-250l81 40v-60l-81 -40v-352h386z" />
    <glyph glyph-name="lslash" unicode="&#x142;" horiz-adv-x="222" 
d="M141 390v-390h-60v340l-71 -40v60l71 40v320h60v-270l71 40v-60z" />
    <glyph glyph-name="OE" unicode="&#x152;" horiz-adv-x="1000" 
d="M500 572h-37q-221 0 -221 -211q0 -97 60.5 -155t156.5 -58h41v424zM925 434v-146h-240v-142h269v-146h-356q-40 0 -77 -3q-3 0 -32.5 -1.5t-45.5 -1.5q-184 0 -295.5 93t-111.5 274q0 97 32.5 167.5t92 111t133.5 59.5t167 19q43 0 86 -3q84 -3 85 -3h311v-146h-258v-132
h240z" />
    <glyph glyph-name="oe" unicode="&#x153;" horiz-adv-x="1000" 
d="M598 373h189q-9 118 -91 118q-31 0 -52 -12.5t-30 -33t-12.5 -37.5t-3.5 -35zM787 193l159 -52q-39 -84 -100.5 -119.5t-156.5 -35.5q-123 0 -182 70q-67 -70 -187 -70q-143 0 -217.5 88.5t-74.5 226.5q0 139 74.5 227.5t217.5 88.5q116 0 187 -65q70 65 182 65
q126 0 204.5 -79.5t78.5 -239.5v-48h-374q0 -17 0.5 -29.5t5.5 -33t14.5 -33.5t28.5 -23.5t45 -10.5q28 0 49 13.5t29 26.5t17 33zM220 301q0 -181 100 -181q32 0 53 14.5t31 43t13 56t3 67.5t-3 68t-13 56.5t-31 43t-53 14.5q-100 0 -100 -182z" />
    <glyph glyph-name="Scedilla" unicode="&#x15e;" horiz-adv-x="656" 
d="M36 161l171 66q2 -19 10.5 -39t36 -41t68.5 -21q45 0 71.5 18t26.5 50q0 29 -20 45.5t-76 34.5l-118 41q-73 26 -118 74t-45 117q0 107 84.5 165t216.5 58q42 0 78 -7t59.5 -17t43.5 -26.5t30.5 -28.5t20.5 -31.5t12.5 -26.5t7.5 -22l-172 -57q-6 27 -28 51.5t-67 24.5
q-47 0 -70.5 -17t-23.5 -45q0 -29 18.5 -43.5t77.5 -35.5l130 -48q75 -27 113 -71t38 -113q0 -43 -15 -82t-48 -74t-94.5 -56t-144.5 -21q-45 0 -83 8t-63.5 18.5t-47.5 30t-33.5 32t-23 35t-14.5 29.5t-9 25zM145 0h60l-39 -64q18 5 39 5q47 0 68 -25.5t21 -52.5
q0 -49 -37 -71t-92 -22q-68 0 -126 28l21 47q59 -21 92 -21q46 0 46 35q0 33 -49 33q-17 0 -34 -7l-25 22z" />
    <glyph glyph-name="scedilla" unicode="&#x15f;" horiz-adv-x="383" 
d="M523 473l-154 -49q-10 25 -17 36.5t-23.5 21t-43.5 9.5q-64 0 -64 -49q0 -8 2 -14t8 -10.5t11 -8t15.5 -7t18 -5.5t22 -6t22.5 -6l64 -18q146 -41 146 -179q0 -50 -17 -87.5t-43 -59t-62 -34.5t-67 -17t-66 -4q-53 0 -95.5 12t-66 26.5t-43.5 39t-26 37t-15 33.5
q-1 1 -1 2t-1 2.5t-1 2.5l160 46q6 -32 30.5 -51.5t57.5 -19.5q31 0 49.5 15.5t18.5 37.5q0 26 -12 36t-51 21l-108 30q-132 40 -132 167q0 40 12 71.5t29 51.5t43 34.5t47.5 21t48 10.5t39 4.5t26.5 0.5q52 0 93.5 -11t65 -25t41.5 -36.5t25 -36.5t14 -35zM50 0h60l-39 -64
q18 5 39 5q47 0 68 -25.5t21 -52.5q0 -49 -37 -71t-92 -22q-68 0 -126 28l21 47q59 -21 92 -21q46 0 46 35q0 33 -49 33q-17 0 -34 -7l-25 22z" />
    <glyph glyph-name="Scaron" unicode="&#x160;" 
d="M36 161l171 66q2 -19 10.5 -39t36 -41t68.5 -21q45 0 71.5 18t26.5 50q0 29 -20 45.5t-76 34.5l-118 41q-73 26 -118 74t-45 117q0 107 84.5 165t216.5 58q42 0 78 -7t59.5 -17t43.5 -26.5t30.5 -28.5t20.5 -31.5t12.5 -26.5t7.5 -22l-172 -57q-6 27 -28 51.5t-67 24.5
q-47 0 -70.5 -17t-23.5 -45q0 -29 18.5 -43.5t77.5 -35.5l130 -48q75 -27 113 -71t38 -113q0 -43 -15 -82t-48 -74t-94.5 -56t-144.5 -21q-45 0 -83 8t-63.5 18.5t-47.5 30t-33.5 32t-23 35t-14.5 29.5t-9 25zM527 921l-121 -150h-164l-121 150h146l57 -75l57 75h146z" />
    <glyph glyph-name="scaron" unicode="&#x161;" horiz-adv-x="556" 
d="M523 473l-154 -49q-10 25 -17 36.5t-23.5 21t-43.5 9.5q-64 0 -64 -49q0 -8 2 -14t8 -10.5t11 -8t15.5 -7t18 -5.5t22 -6t22.5 -6l64 -18q146 -41 146 -179q0 -50 -17 -87.5t-43 -59t-62 -34.5t-67 -17t-66 -4q-53 0 -95.5 12t-66 26.5t-43.5 39t-26 37t-15 33.5
q-1 1 -1 2t-1 2.5t-1 2.5l160 46q6 -32 30.5 -51.5t57.5 -19.5q31 0 49.5 15.5t18.5 37.5q0 26 -12 36t-51 21l-108 30q-132 40 -132 167q0 40 12 71.5t29 51.5t43 34.5t47.5 21t48 10.5t39 4.5t26.5 0.5q52 0 93.5 -11t65 -25t41.5 -36.5t25 -36.5t14 -35zM481 812
l-121 -150h-164l-121 150h146l57 -75l57 75h146z" />
    <glyph glyph-name="ch903" unicode="&#x168;" horiz-adv-x="741" 
d="M66 264v448h196v-448q0 -135 110 -135q115 0 115 135v448h188v-448q0 -135 -78.5 -208t-224.5 -73q-65 0 -118 14.5t-96.5 46t-67.5 87.5t-24 133zM480 875h60q-4 -22 -9 -37t-15.5 -33t-29.5 -27.5t-46 -9.5q-25 0 -61.5 16.5t-45.5 16.5q-22 0 -33 -34h-60q0 11 7 33.5
t32 48.5t62 26q24 0 56.5 -17t48.5 -17q3 0 6 0.5t5.5 1.5t4 1.5t3.5 3t3 3.5t3 5t2.5 5.5t3 6.5z" />
    <glyph glyph-name="ch904" unicode="&#x169;" 
d="M587 603v-603h-188v70q-63 -51 -99.5 -67.5t-87.5 -16.5q-151 0 -151 184v433h188v-397q0 -33 12 -49.5t44 -16.5q23 0 42 11t52 39v413h188zM418 764h56q-4 -21 -8.5 -35t-14 -31t-27.5 -26t-44 -9q-24 0 -58 15.5t-43 15.5q-20 0 -31 -32h-56q0 11 6.5 32t30 45.5
t58.5 24.5q23 0 53.5 -16t45.5 -16h5.5t5 1t4 2t3 3t2.5 3t3 4.5t2.5 5t3 6.5z" />
    <glyph glyph-name="Ydieresis" unicode="&#x178;" horiz-adv-x="722" 
d="M263 0v264l-259 448h224l97 -186q26 -50 39 -101h5q7 25 43 108l90 179h216l-259 -448v-264h-196zM567 886v-123h-176v123h176zM155 763v123h176v-123h-176z" />
    <glyph glyph-name="Zcaron" unicode="&#x17d;" horiz-adv-x="611" 
d="M30 0v166l321 400h-309v146h536v-154l-328 -412h331v-146h-551zM509 921l-121 -150h-164l-121 150h146l57 -75l57 75h146z" />
    <glyph glyph-name="zcaron" unicode="&#x17e;" horiz-adv-x="556" 
d="M38 477v126h479v-124l-269 -353h280v-126h-500v127l269 350h-259zM481 812l-121 -150h-164l-121 150h146l57 -75l57 75h146z" />
    <glyph glyph-name="florin" unicode="&#x192;" horiz-adv-x="592" 
d="M85 326l12 108h130q31 136 53 181q44 96 143 111q21 3 46 3q63 0 121 -29l-69 -106q-19 15 -45 15q-12 0 -21 -4.5t-14.5 -9.5t-11 -18t-7 -19t-6.5 -24l-26 -100h118l-12 -108h-131l-69 -283q-8 -32 -22 -61t-37.5 -59.5t-61.5 -48.5t-85 -18q-58 0 -126 30l64 108
q29 -12 42 -12q28 0 44.5 23.5t29.5 77.5l58 243h-117z" />
    <glyph glyph-name="glyph277" unicode="&#x1a0;" horiz-adv-x="778" 
d="M679 602h-1q64 -88 64 -246q0 -99 -29 -173.5t-79.5 -117t-111.5 -62.5t-133 -20q-67 0 -127 20.5t-112 62.5t-83 116.5t-31 173.5t31 173.5t83 116.5t112 62.5t127 20.5q152 0 243 -77q38 22 45 39q9 19 3 31t-31 16q-24 5 -11 50l27 28q91 -1 118 -56q28 -52 -20 -107
q-31 -29 -84 -51zM242 356q0 -106 32 -166.5t115 -60.5q147 0 147 227t-147 227q-83 0 -115 -60.5t-32 -166.5z" />
    <glyph glyph-name="glyph278" unicode="&#x1a1;" 
d="M616 301q0 -138 -74.5 -226.5t-217.5 -88.5t-217.5 88.5t-74.5 226.5q0 139 74.5 227.5t217.5 88.5q105 0 177 -53q24 15 28 25q9 18 3 29q-6 12 -29 15q-23 5 -11 48l26 27q86 -2 112 -53t-19 -102q-20 -19 -59 -39q64 -83 64 -213zM552 514v1v-1zM224 301
q0 -181 100 -181q32 0 53 14.5t31 43t13 56t3 67.5t-3 68t-13 56.5t-31 43t-53 14.5q-100 0 -100 -182z" />
    <glyph glyph-name="glyph279" unicode="&#x1af;" horiz-adv-x="741" 
d="M675 652v-388q0 -135 -78.5 -208t-224.5 -73q-65 0 -118 14.5t-96.5 46t-67.5 87.5t-24 133v448h196v-448q0 -135 110 -135q115 0 115 135v448q11 -2 36 -6.5t36.5 -6t36 -3t36.5 2.5q45 14 49 37q1 20 -27 24t-18 50q16 25 42 28q66 -10 85 -55q19 -44 -7 -90
q-31 -31 -81 -41z" />
    <glyph glyph-name="glyph280" unicode="&#x1b0;" 
d="M588 529h-1v-529h-188v70q-63 -51 -99.5 -67.5t-87.5 -16.5q-151 0 -151 184v433h188v-397q0 -33 12 -49.5t44 -16.5q23 0 42 11t52 39v413q104 -13 162 -9q39 4 44 21q1 10 -5.5 15.5t-20.5 7.5q-27 5 -17 48q17 23 40 26q64 -9 83 -52t-9 -85q-26 -27 -88 -46z" />
    <glyph glyph-name="circumflex" unicode="&#x2c6;" horiz-adv-x="278" 
d="M-64 662l121 150h164l121 -150h-146l-57 75l-57 -75h-146z" />
    <glyph glyph-name="caron" unicode="&#x2c7;" horiz-adv-x="333" 
d="M89 713l82 -102l82 102h65l-113 -139h-67l-114 139h65z" />
    <glyph glyph-name="breve" unicode="&#x2d8;" horiz-adv-x="333" 
d="M28 706h39q17 -81 105 -81t107 81h37q-14 -126 -149 -126q-60 0 -97.5 33.5t-41.5 92.5z" />
    <glyph glyph-name="dotaccent" unicode="&#x2d9;" horiz-adv-x="333" 
d="M199 584h-65v102h65v-102z" />
    <glyph glyph-name="ring" unicode="&#x2da;" horiz-adv-x="333" 
d="M167 578q-40 0 -71 29q-29 31 -29 70q0 40 30 70t70 30t69.5 -30t29.5 -70q0 -39 -29 -70q-29 -29 -70 -29zM167 611q26 0 46 20t20 46q0 27 -19.5 47t-46.5 20t-47 -20t-20 -47t20 -46.5t47 -19.5z" />
    <glyph glyph-name="ogonek" unicode="&#x2db;" horiz-adv-x="333" 
d="M149 0h50v-2q-80 -41 -80 -87q0 -28 21 -43q19 -14 46 -14q21 0 42 9v-44q-25 -9 -52 -9q-42 0 -70 22q-32 24 -32 65q0 65 75 103z" />
    <glyph glyph-name="tilde" unicode="&#x2dc;" horiz-adv-x="278" 
d="M257 802h78q-7 -32 -12 -47.5t-19 -40t-38.5 -36t-60.5 -11.5q-34 0 -81 19.5t-59 19.5q-29 0 -44 -44h-78q32 140 131 140q32 0 75 -19.5t63 -19.5q12 0 20 4.5t12 11t13 23.5z" />
    <glyph glyph-name="hungarumlaut" unicode="&#x2dd;" horiz-adv-x="333" 
d="M297 713l-137 -139h-51l111 139h77zM459 713l-137 -139h-51l111 139h77z" />
    <glyph glyph-name="increment" unicode="&#x394;" horiz-adv-x="1000" 
 />
    <glyph glyph-name="increment" unicode="&#x2206;" horiz-adv-x="1000" 
 />
    <glyph glyph-name="Omega" unicode="&#x3a9;" horiz-adv-x="1000" 
 />
    <glyph glyph-name="Omega" unicode="&#x2126;" horiz-adv-x="1000" 
 />
    <glyph glyph-name="pi" unicode="&#x3c0;" horiz-adv-x="1000" 
 />
    <glyph glyph-name="glyph281" unicode="&#x1ea0;" horiz-adv-x="759" 
d="M291 286h174l-54 167q-21 61 -29 113h-4q-9 -52 -31 -113zM509 712l249 -712h-206l-43 146h-265l-47 -146h-196l261 712h247zM315 -169v124h120v-124h-120z" />
    <glyph glyph-name="glyph282" unicode="&#x1ea1;" horiz-adv-x="611" 
d="M552 358v-252q0 -69 4 -106h-182q0 10 -2 37.5t-2 40.5h-3q-92 -92 -170 -92q-48 0 -83 18t-53.5 46.5t-27 58t-8.5 59.5q0 106 78 161t193 55q44 0 71 -4v19q0 46 -16 69t-58 23q-66 0 -82 -81l-167 48q4 14 10 28t25 39.5t45 44t73 33t105 14.5q138 0 194 -67.5
t56 -191.5zM267 130q42 0 100 49v87q-31 4 -65 4q-44 0 -69.5 -21.5t-25.5 -59.5q0 -26 17 -42.5t43 -16.5zM279 -165v116h112v-116h-112z" />
    <glyph glyph-name="glyph283" unicode="&#x1ea2;" horiz-adv-x="759" 
d="M291 286h174l-54 167q-21 61 -29 113h-4q-9 -52 -31 -113zM509 712l249 -712h-206l-43 146h-265l-47 -146h-196l261 712h247zM424 751h-57q-2 26 19 57q29 44 29 57q0 22 -29 22q-15 0 -40 -22l-25 28q33 57 89 57q32 0 56 -12q30 -15 30 -67q0 -20 -56 -82
q-12 -16 -16 -38z" />
    <glyph glyph-name="glyph284" unicode="&#x1ea3;" horiz-adv-x="611" 
d="M552 358v-252q0 -69 4 -106h-182q0 10 -2 37.5t-2 40.5h-3q-92 -92 -170 -92q-48 0 -83 18t-53.5 46.5t-27 58t-8.5 59.5q0 106 78 161t193 55q44 0 71 -4v19q0 46 -16 69t-58 23q-66 0 -82 -81l-167 48q4 14 10 28t25 39.5t45 44t73 33t105 14.5q138 0 194 -67.5
t56 -191.5zM267 130q42 0 100 49v87q-31 4 -65 4q-44 0 -69.5 -21.5t-25.5 -59.5q0 -26 17 -42.5t43 -16.5zM346 673h-54q-2 23 18 54q28 40 28 53q0 21 -28 21q-14 0 -37 -21l-24 26q31 54 84 54q29 0 53 -11q28 -13 28 -63q0 -19 -53 -77q-11 -15 -15 -36z" />
    <glyph glyph-name="glyph285" unicode="&#x1ea4;" horiz-adv-x="759" 
d="M239 754l84 104h114l84 -104h-101l-40 52l-40 -52h-101zM512 811l68 117h151v-1l-127 -116h-92zM291 286h174l-54 167q-21 61 -29 113h-4q-9 -52 -31 -113zM509 712l249 -712h-206l-43 146h-265l-47 -146h-196l261 712h247z" />
    <glyph glyph-name="glyph286" unicode="&#x1ea5;" horiz-adv-x="611" 
d="M552 358v-252q0 -69 4 -106h-182q0 10 -2 37.5t-2 40.5h-3q-92 -92 -170 -92q-48 0 -83 18t-53.5 46.5t-27 58t-8.5 59.5q0 106 78 161t193 55q44 0 71 -4v19q0 46 -16 69t-58 23q-66 0 -82 -81l-167 48q4 14 10 28t25 39.5t45 44t73 33t105 14.5q138 0 194 -67.5
t56 -191.5zM267 130q42 0 100 49v87q-31 4 -65 4q-44 0 -69.5 -21.5t-25.5 -59.5q0 -26 17 -42.5t43 -16.5zM183 657l79 98h107l79 -98h-95l-38 49l-37 -49h-95zM439 711l64 110h142v-1l-119 -109h-87z" />
    <glyph glyph-name="glyph287" unicode="&#x1ea6;" horiz-adv-x="759" 
d="M239 754l84 104h114l84 -104h-101l-40 52l-40 -52h-101zM178 926l68 -116h-92l-127 116h151zM291 286h174l-54 167q-21 61 -29 113h-4q-9 -52 -31 -113zM509 712l249 -712h-206l-43 146h-265l-47 -146h-196l261 712h247z" />
    <glyph glyph-name="glyph288" unicode="&#x1ea7;" horiz-adv-x="611" 
d="M552 358v-252q0 -69 4 -106h-182q0 10 -2 37.5t-2 40.5h-3q-92 -92 -170 -92q-48 0 -83 18t-53.5 46.5t-27 58t-8.5 59.5q0 106 78 161t193 55q44 0 71 -4v19q0 46 -16 69t-58 23q-66 0 -82 -81l-167 48q4 14 10 28t25 39.5t45 44t73 33t105 14.5q138 0 194 -67.5
t56 -191.5zM267 130q42 0 100 49v87q-31 4 -65 4q-44 0 -69.5 -21.5t-25.5 -59.5q0 -26 17 -42.5t43 -16.5zM181 653l79 98h107l79 -98h-95l-37 49l-38 -49h-95zM124 815l64 -109h-87l-119 109h142z" />
    <glyph glyph-name="glyph289" unicode="&#x1ea8;" horiz-adv-x="759" 
d="M239 754l84 104h114l84 -104h-101l-40 52l-40 -52h-101zM562 812h-54q-2 22 18 54q28 40 28 53q0 21 -28 21q-14 0 -37 -21l-24 26q31 54 84 54q29 0 53 -11q28 -13 28 -63q0 -19 -53 -77q-11 -15 -15 -36zM291 286h174l-54 167q-21 61 -29 113h-4q-9 -52 -31 -113z
M509 712l249 -712h-206l-43 146h-265l-47 -146h-196l261 712h247z" />
    <glyph glyph-name="glyph290" unicode="&#x1ea9;" horiz-adv-x="611" 
d="M552 358v-252q0 -69 4 -106h-182q0 10 -2 37.5t-2 40.5h-3q-92 -92 -170 -92q-48 0 -83 18t-53.5 46.5t-27 58t-8.5 59.5q0 106 78 161t193 55q44 0 71 -4v19q0 46 -16 69t-58 23q-66 0 -82 -81l-167 48q4 14 10 28t25 39.5t45 44t73 33t105 14.5q138 0 194 -67.5
t56 -191.5zM267 130q42 0 100 49v87q-31 4 -65 4q-44 0 -69.5 -21.5t-25.5 -59.5q0 -26 17 -42.5t43 -16.5zM182 667l79 98h107l79 -98h-95l-38 49l-37 -49h-95zM485 722h-50q-1 20 17 51q26 38 26 49q0 20 -26 20q-13 0 -35 -20l-23 25q28 51 79 51q26 0 50 -11
q26 -14 26 -59q0 -19 -50 -72q-9 -11 -14 -34z" />
    <glyph glyph-name="glyph291" unicode="&#x1eaa;" horiz-adv-x="759" 
d="M239 754l84 104h114l84 -104h-101l-40 52l-40 -52h-101zM486 989h56q-4 -21 -8.5 -35t-14 -31t-27.5 -26t-44 -9q-24 0 -58 15.5t-43 15.5q-20 0 -31 -32h-56q0 11 6.5 32t30 45.5t58.5 24.5q23 0 53.5 -16t45.5 -16h5.5t5 1t4 2t3 3t2.5 3t3 4.5t2.5 5t3 6.5zM291 286
h174l-54 167q-21 61 -29 113h-4q-9 -52 -31 -113zM509 712l249 -712h-206l-43 146h-265l-47 -146h-196l261 712h247z" />
    <glyph glyph-name="glyph292" unicode="&#x1eab;" horiz-adv-x="611" 
d="M552 358v-252q0 -69 4 -106h-182q0 10 -2 37.5t-2 40.5h-3q-92 -92 -170 -92q-48 0 -83 18t-53.5 46.5t-27 58t-8.5 59.5q0 106 78 161t193 55q44 0 71 -4v19q0 46 -16 69t-58 23q-66 0 -82 -81l-167 48q4 14 10 28t25 39.5t45 44t73 33t105 14.5q138 0 194 -67.5
t56 -191.5zM267 130q42 0 100 49v87q-31 4 -65 4q-44 0 -69.5 -21.5t-25.5 -59.5q0 -26 17 -42.5t43 -16.5zM179 652l79 98h107l79 -98h-95l-37 49l-38 -49h-95zM411 873h53q-4 -20 -8 -32.5t-13 -29t-26 -25t-41 -8.5q-23 0 -55 14.5t-40 14.5q-18 0 -30 -30h-52q0 6 4 20
t13 32t28 31t44 13q21 0 50 -15t43 -15q4 0 6.5 0.5t5 2t4 2.5t3.5 4.5t3 5t4 7t4 8.5z" />
    <glyph glyph-name="glyph293" unicode="&#x1eac;" horiz-adv-x="759" 
d="M239 754l84 104h114l84 -104h-101l-40 52l-40 -52h-101zM315 -169v124h120v-124h-120zM291 286h174l-54 167q-21 61 -29 113h-4q-9 -52 -31 -113zM509 712l249 -712h-206l-43 146h-265l-47 -146h-196l261 712h247z" />
    <glyph glyph-name="glyph294" unicode="&#x1ead;" horiz-adv-x="611" 
d="M552 358v-252q0 -69 4 -106h-182q0 10 -2 37.5t-2 40.5h-3q-92 -92 -170 -92q-48 0 -83 18t-53.5 46.5t-27 58t-8.5 59.5q0 106 78 161t193 55q44 0 71 -4v19q0 46 -16 69t-58 23q-66 0 -82 -81l-167 48q4 14 10 28t25 39.5t45 44t73 33t105 14.5q138 0 194 -67.5
t56 -191.5zM267 130q42 0 100 49v87q-31 4 -65 4q-44 0 -69.5 -21.5t-25.5 -59.5q0 -26 17 -42.5t43 -16.5zM169 661l79 98h108l79 -98h-95l-38 49l-38 -49h-95zM264 -177v116h112v-116h-112z" />
    <glyph glyph-name="glyph295" unicode="&#x1eae;" horiz-adv-x="759" 
d="M291 286h174l-54 167q-21 61 -29 113h-4q-9 -52 -31 -113zM509 712l249 -712h-206l-43 146h-265l-47 -146h-196l261 712h247zM261 863h57q3 -25 18.5 -36t52.5 -11t52 11t19 36h57q-5 -58 -35 -84.5t-93 -26.5t-93 26.5t-35 84.5zM342 881l68 117h151v-1l-127 -116h-92z
" />
    <glyph glyph-name="glyph296" unicode="&#x1eaf;" horiz-adv-x="611" 
d="M552 358v-252q0 -69 4 -106h-182q0 10 -2 37.5t-2 40.5h-3q-92 -92 -170 -92q-48 0 -83 18t-53.5 46.5t-27 58t-8.5 59.5q0 106 78 161t193 55q44 0 71 -4v19q0 46 -16 69t-58 23q-66 0 -82 -81l-167 48q4 14 10 28t25 39.5t45 44t73 33t105 14.5q138 0 194 -67.5
t56 -191.5zM267 130q42 0 100 49v87q-31 4 -65 4q-44 0 -69.5 -21.5t-25.5 -59.5q0 -26 17 -42.5t43 -16.5zM202 773h54q2 -22 16.5 -33t49.5 -11t49 10.5t18 33.5h54q-5 -55 -33.5 -80t-87.5 -25t-87 25t-33 80zM278 790l64 110h142v-1l-119 -109h-87z" />
    <glyph glyph-name="glyph297" unicode="&#x1eb0;" horiz-adv-x="759" 
d="M291 286h174l-54 167q-21 61 -29 113h-4q-9 -52 -31 -113zM509 712l249 -712h-206l-43 146h-265l-47 -146h-196l261 712h247zM261 863h57q3 -25 18.5 -36t52.5 -11t52 11t19 36h57q-5 -58 -35 -84.5t-93 -26.5t-93 26.5t-35 84.5zM365 990l68 -116h-92l-127 116h151z" />
    <glyph glyph-name="glyph298" unicode="&#x1eb1;" horiz-adv-x="611" 
d="M552 358v-252q0 -69 4 -106h-182q0 10 -2 37.5t-2 40.5h-3q-92 -92 -170 -92q-48 0 -83 18t-53.5 46.5t-27 58t-8.5 59.5q0 106 78 161t193 55q44 0 71 -4v19q0 46 -16 69t-58 23q-66 0 -82 -81l-167 48q4 14 10 28t25 39.5t45 44t73 33t105 14.5q138 0 194 -67.5
t56 -191.5zM267 130q42 0 100 49v87q-31 4 -65 4q-44 0 -69.5 -21.5t-25.5 -59.5q0 -26 17 -42.5t43 -16.5zM185 762h54q3 -23 17.5 -33.5t49.5 -10.5q34 0 48.5 10.5t17.5 33.5h54q-5 -55 -33 -79.5t-87 -24.5t-87.5 24.5t-33.5 79.5zM283 882l64 -109h-87l-119 109h142z
" />
    <glyph glyph-name="glyph299" unicode="&#x1eb2;" horiz-adv-x="759" 
d="M291 286h174l-54 167q-21 61 -29 113h-4q-9 -52 -31 -113zM509 712l249 -712h-206l-43 146h-265l-47 -146h-196l261 712h247zM261 863h57q3 -25 18.5 -36t52.5 -11t52 11t19 36h57q-5 -58 -35 -84.5t-93 -26.5t-93 26.5t-35 84.5zM417 874h-54q-1 22 18 54q28 40 28 53
q0 21 -28 21q-15 0 -37 -21l-24 26q32 54 84 54q29 0 53 -11q28 -13 28 -63q0 -19 -53 -77q-10 -15 -15 -36z" />
    <glyph glyph-name="glyph300" unicode="&#x1eb3;" horiz-adv-x="611" 
d="M552 358v-252q0 -69 4 -106h-182q0 10 -2 37.5t-2 40.5h-3q-92 -92 -170 -92q-48 0 -83 18t-53.5 46.5t-27 58t-8.5 59.5q0 106 78 161t193 55q44 0 71 -4v19q0 46 -16 69t-58 23q-66 0 -82 -81l-167 48q4 14 10 28t25 39.5t45 44t73 33t105 14.5q138 0 194 -67.5
t56 -191.5zM267 130q42 0 100 49v87q-31 4 -65 4q-44 0 -69.5 -21.5t-25.5 -59.5q0 -26 17 -42.5t43 -16.5zM197 767h53q3 -23 17.5 -34t49.5 -11t49 10.5t18 34.5h53q-5 -55 -33 -80t-87 -25t-87 25t-33 80zM343 777h-50q-1 21 16 51q27 38 27 50q0 19 -27 19
q-14 0 -34 -19l-23 24q28 51 79 51q26 0 50 -11q26 -14 26 -59q0 -19 -50 -72q-9 -11 -14 -34z" />
    <glyph glyph-name="glyph301" unicode="&#x1eb4;" horiz-adv-x="759" 
d="M291 286h174l-54 167q-21 61 -29 113h-4q-9 -52 -31 -113zM509 712l249 -712h-206l-43 146h-265l-47 -146h-196l261 712h247zM261 860h57q3 -25 18.5 -36t52.5 -11t52 11t19 36h57q-5 -58 -35 -84.5t-93 -26.5t-93 26.5t-35 84.5zM486 993h56q-4 -21 -8.5 -35t-14 -31
t-27.5 -26t-44 -9q-24 0 -58 15.5t-43 15.5q-20 0 -31 -32h-56q0 11 6.5 32t30 45.5t58.5 24.5q23 0 53.5 -16t45.5 -16h5.5t5 1t4 2t3 3t2.5 3t3 4.5t2.5 5t3 6.5z" />
    <glyph glyph-name="glyph302" unicode="&#x1eb5;" horiz-adv-x="613" 
d="M552 358v-252q0 -69 4 -106h-182q0 10 -2 37.5t-2 40.5h-3q-92 -92 -170 -92q-48 0 -83 18t-53.5 46.5t-27 58t-8.5 59.5q0 106 78 161t193 55q44 0 71 -4v19q0 46 -16 69t-58 23q-66 0 -82 -81l-167 48q4 14 10 28t25 39.5t45 44t73 33t105 14.5q138 0 194 -67.5
t56 -191.5zM267 130q42 0 100 49v87q-31 4 -65 4q-44 0 -69.5 -21.5t-25.5 -59.5q0 -26 17 -42.5t43 -16.5zM190 757h54q3 -23 17.5 -34t49.5 -11t49 11t17 34h54q-5 -55 -33 -80t-87 -25t-87.5 25t-33.5 80zM402 887h53q-4 -20 -8 -32.5t-13 -29.5t-26.5 -25t-41.5 -8
q-22 0 -54 14.5t-41 14.5q-17 0 -29 -30h-53q0 11 6 30.5t28.5 42.5t55.5 23q21 0 50 -15t43 -15q4 0 6.5 0.5t5 2t4 2.5t3.5 4.5t3 5t4 7t4 8.5z" />
    <glyph glyph-name="glyph303" unicode="&#x1eb6;" horiz-adv-x="759" 
d="M291 286h174l-54 167q-21 61 -29 113h-4q-9 -52 -31 -113zM509 712l249 -712h-206l-43 146h-265l-47 -146h-196l261 712h247zM261 863h57q3 -25 18.5 -36t52.5 -11t52 11t19 36h57q-5 -58 -35 -84.5t-93 -26.5t-93 26.5t-35 84.5zM315 -169v124h120v-124h-120z" />
    <glyph glyph-name="glyph304" unicode="&#x1eb7;" horiz-adv-x="611" 
d="M552 358v-252q0 -69 4 -106h-182q0 10 -2 37.5t-2 40.5h-3q-92 -92 -170 -92q-48 0 -83 18t-53.5 46.5t-27 58t-8.5 59.5q0 106 78 161t193 55q44 0 71 -4v19q0 46 -16 69t-58 23q-66 0 -82 -81l-167 48q4 14 10 28t25 39.5t45 44t73 33t105 14.5q138 0 194 -67.5
t56 -191.5zM267 130q42 0 100 49v87q-31 4 -65 4q-44 0 -69.5 -21.5t-25.5 -59.5q0 -26 17 -42.5t43 -16.5zM198 781h53q3 -23 17.5 -34t49.5 -11t49 10.5t18 34.5h53q-5 -55 -33 -80t-87 -25t-87 25t-33 80zM255 -178v116h112v-116h-112z" />
    <glyph glyph-name="glyph305" unicode="&#x1eb8;" horiz-adv-x="630" 
d="M66 0v712h495v-146h-303v-132h285v-146h-285v-142h314v-146h-506zM265 -169v124h120v-124h-120z" />
    <glyph glyph-name="glyph306" unicode="&#x1eb9;" horiz-adv-x="630" 
d="M315 617q126 0 204.5 -79.5t78.5 -239.5v-48h-374q0 -17 0.5 -29.5t5.5 -33t14.5 -33.5t28.5 -23.5t45 -10.5q28 0 49 13.5t29 26.5t17 33l159 -52q-39 -84 -100.5 -119.5t-156.5 -35.5q-68 0 -120.5 22.5t-82.5 56t-49 78t-25 82t-6 74.5q0 138 74 228t209 90zM224 373
h189q-9 118 -91 118q-31 0 -52 -12.5t-30 -33t-12.5 -37.5t-3.5 -35zM259 -165v116h112v-116h-112z" />
    <glyph glyph-name="glyph307" unicode="&#x1eba;" horiz-adv-x="630" 
d="M66 0v712h495v-146h-303v-132h285v-146h-285v-142h314v-146h-506zM364 751h-57q-2 26 19 57q29 44 29 57q0 22 -29 22q-15 0 -40 -22l-25 28q33 57 89 57q32 0 56 -12q30 -15 30 -67q0 -20 -56 -82q-12 -16 -16 -38z" />
    <glyph glyph-name="glyph308" unicode="&#x1ebb;" horiz-adv-x="630" 
d="M315 617q126 0 204.5 -79.5t78.5 -239.5v-48h-374q0 -17 0.5 -29.5t5.5 -33t14.5 -33.5t28.5 -23.5t45 -10.5q28 0 49 13.5t29 26.5t17 33l159 -52q-39 -84 -100.5 -119.5t-156.5 -35.5q-68 0 -120.5 22.5t-82.5 56t-49 78t-25 82t-6 74.5q0 138 74 228t209 90zM224 373
h189q-9 118 -91 118q-31 0 -52 -12.5t-30 -33t-12.5 -37.5t-3.5 -35zM356 663h-54q-2 23 18 54q28 40 28 53q0 21 -28 21q-14 0 -37 -21l-24 26q31 54 84 54q29 0 53 -11q28 -13 28 -63q0 -19 -53 -77q-11 -15 -15 -36z" />
    <glyph glyph-name="glyph309" unicode="&#x1ebc;" horiz-adv-x="630" 
d="M66 0v712h495v-146h-303v-132h285v-146h-285v-142h314v-146h-506zM430 875h60q-4 -22 -9 -37t-15.5 -33t-29.5 -27.5t-46 -9.5q-25 0 -61.5 16.5t-45.5 16.5q-22 0 -33 -34h-60q0 11 7 33.5t32 48.5t62 26q24 0 56.5 -17t48.5 -17q3 0 6 0.5t5.5 1.5t4 1.5t3.5 3t3 3.5
t3 5t2.5 5.5t3 6.5z" />
    <glyph glyph-name="glyph310" unicode="&#x1ebd;" horiz-adv-x="630" 
d="M315 617q126 0 204.5 -79.5t78.5 -239.5v-48h-374q0 -17 0.5 -29.5t5.5 -33t14.5 -33.5t28.5 -23.5t45 -10.5q28 0 49 13.5t29 26.5t17 33l159 -52q-39 -84 -100.5 -119.5t-156.5 -35.5q-68 0 -120.5 22.5t-82.5 56t-49 78t-25 82t-6 74.5q0 138 74 228t209 90zM224 373
h189q-9 118 -91 118q-31 0 -52 -12.5t-30 -33t-12.5 -37.5t-3.5 -35zM408 764h56q-4 -21 -8.5 -35t-14 -31t-27.5 -26t-44 -9q-24 0 -58 15.5t-43 15.5q-20 0 -31 -32h-56q0 11 6.5 32t30 45.5t58.5 24.5q23 0 53.5 -16t45.5 -16h5.5t5 1t4 2t3 3t2.5 3t3 4.5t2.5 5t3 6.5z
" />
    <glyph glyph-name="glyph311" unicode="&#x1ebe;" horiz-adv-x="630" 
d="M179 754l84 104h114l84 -104h-101l-40 52l-40 -52h-101zM452 811l68 117h151v-1l-127 -116h-92zM66 0v712h495v-146h-303v-132h285v-146h-285v-142h314v-146h-506z" />
    <glyph glyph-name="glyph312" unicode="&#x1ebf;" horiz-adv-x="630" 
d="M315 617q126 0 204.5 -79.5t78.5 -239.5v-48h-374q0 -17 0.5 -29.5t5.5 -33t14.5 -33.5t28.5 -23.5t45 -10.5q28 0 49 13.5t29 26.5t17 33l159 -52q-39 -84 -100.5 -119.5t-156.5 -35.5q-68 0 -120.5 22.5t-82.5 56t-49 78t-25 82t-6 74.5q0 138 74 228t209 90zM224 373
h189q-9 118 -91 118q-31 0 -52 -12.5t-30 -33t-12.5 -37.5t-3.5 -35zM199 660l79 98h107l79 -98h-95l-38 49l-37 -49h-95zM455 714l64 110h142v-1l-119 -109h-87z" />
    <glyph glyph-name="glyph313" unicode="&#x1ec0;" horiz-adv-x="630" 
d="M179 754l84 104h114l84 -104h-101l-40 52l-40 -52h-101zM118 926l68 -116h-92l-127 116h151zM66 0v712h495v-146h-303v-132h285v-146h-285v-142h314v-146h-506z" />
    <glyph glyph-name="glyph314" unicode="&#x1ec1;" horiz-adv-x="630" 
d="M315 617q126 0 204.5 -79.5t78.5 -239.5v-48h-374q0 -17 0.5 -29.5t5.5 -33t14.5 -33.5t28.5 -23.5t45 -10.5q28 0 49 13.5t29 26.5t17 33l159 -52q-39 -84 -100.5 -119.5t-156.5 -35.5q-68 0 -120.5 22.5t-82.5 56t-49 78t-25 82t-6 74.5q0 138 74 228t209 90zM224 373
h189q-9 118 -91 118q-31 0 -52 -12.5t-30 -33t-12.5 -37.5t-3.5 -35zM188 652l79 98h107l79 -98h-95l-37 49l-38 -49h-95zM131 814l64 -109h-87l-119 109h142z" />
    <glyph glyph-name="glyph315" unicode="&#x1ec2;" horiz-adv-x="630" 
d="M179 754l84 104h114l84 -104h-101l-40 52l-40 -52h-101zM508 812h-54q-2 22 18 54q28 40 28 53q0 21 -28 21q-14 0 -37 -21l-24 26q31 54 84 54q29 0 53 -11q28 -13 28 -63q0 -19 -53 -77q-11 -15 -15 -36zM66 0v712h495v-146h-303v-132h285v-146h-285v-142h314v-146
h-506z" />
    <glyph glyph-name="glyph316" unicode="&#x1ec3;" horiz-adv-x="630" 
d="M315 617q126 0 204.5 -79.5t78.5 -239.5v-48h-374q0 -17 0.5 -29.5t5.5 -33t14.5 -33.5t28.5 -23.5t45 -10.5q28 0 49 13.5t29 26.5t17 33l159 -52q-39 -84 -100.5 -119.5t-156.5 -35.5q-68 0 -120.5 22.5t-82.5 56t-49 78t-25 82t-6 74.5q0 138 74 228t209 90zM224 373
h189q-9 118 -91 118q-31 0 -52 -12.5t-30 -33t-12.5 -37.5t-3.5 -35zM197 653l79 98h107l79 -98h-95l-38 49l-37 -49h-95zM506 708h-51q-1 20 17 51q27 37 27 49q0 20 -27 20q-12 0 -34 -20l-23 25q29 51 79 51q26 0 50 -11q26 -14 26 -59q0 -19 -50 -72q-9 -11 -14 -34z
" />
    <glyph glyph-name="glyph317" unicode="&#x1ec4;" horiz-adv-x="630" 
d="M179 754l84 104h114l84 -104h-101l-40 52l-40 -52h-101zM416 989h56q-4 -21 -8.5 -35t-14 -31t-27.5 -26t-44 -9q-24 0 -58 15.5t-43 15.5q-20 0 -31 -32h-56q0 11 6.5 32t30 45.5t58.5 24.5q23 0 53.5 -16t45.5 -16h5.5t5 1t4 2t3 3t2.5 3t3 4.5t2.5 5t3 6.5zM66 0v712
h495v-146h-303v-132h285v-146h-285v-142h314v-146h-506z" />
    <glyph glyph-name="glyph318" unicode="&#x1ec5;" horiz-adv-x="630" 
d="M315 617q126 0 204.5 -79.5t78.5 -239.5v-48h-374q0 -17 0.5 -29.5t5.5 -33t14.5 -33.5t28.5 -23.5t45 -10.5q28 0 49 13.5t29 26.5t17 33l159 -52q-39 -84 -100.5 -119.5t-156.5 -35.5q-68 0 -120.5 22.5t-82.5 56t-49 78t-25 82t-6 74.5q0 138 74 228t209 90zM224 373
h189q-9 118 -91 118q-31 0 -52 -12.5t-30 -33t-12.5 -37.5t-3.5 -35zM194 653l79 98h107l79 -98h-95l-38 49l-37 -49h-95zM417 874h52q-4 -20 -8 -32.5t-13 -29t-26 -25t-41 -8.5q-23 0 -55 14.5t-40 14.5q-20 0 -29 -30h-53q0 6 4 20t13 32t28 31t44 13q21 0 50 -15t43 -15
q12 0 16.5 5.5t14.5 24.5z" />
    <glyph glyph-name="glyph319" unicode="&#x1ec6;" horiz-adv-x="630" 
d="M179 754l84 104h114l84 -104h-101l-40 52l-40 -52h-101zM255 -169v124h120v-124h-120zM66 0v712h495v-146h-303v-132h285v-146h-285v-142h314v-146h-506z" />
    <glyph glyph-name="glyph320" unicode="&#x1ec7;" horiz-adv-x="630" 
d="M315 617q126 0 204.5 -79.5t78.5 -239.5v-48h-374q0 -17 0.5 -29.5t5.5 -33t14.5 -33.5t28.5 -23.5t45 -10.5q28 0 49 13.5t29 26.5t17 33l159 -52q-39 -84 -100.5 -119.5t-156.5 -35.5q-68 0 -120.5 22.5t-82.5 56t-49 78t-25 82t-6 74.5q0 138 74 228t209 90zM224 373
h189q-9 118 -91 118q-31 0 -52 -12.5t-30 -33t-12.5 -37.5t-3.5 -35zM190 660l79 98h108l79 -98h-95l-38 49l-38 -49h-95zM259 -178v116h112v-116h-112z" />
    <glyph glyph-name="glyph321" unicode="&#x1ec8;" horiz-adv-x="334" 
d="M69 0v712h196v-712h-196zM194 761h-57q-2 26 19 57q29 44 29 57q0 22 -29 22q-15 0 -40 -22l-25 28q33 57 89 57q32 0 56 -12q30 -15 30 -67q0 -20 -56 -82q-12 -16 -16 -38z" />
    <glyph glyph-name="glyph322" unicode="&#x1ec9;" horiz-adv-x="316" 
d="M64 0v603h188v-603h-188zM189 654h-54q-1 22 18 54q28 40 28 53q0 21 -28 21q-15 0 -37 -21l-24 26q32 54 84 54q29 0 53 -11q28 -13 28 -63q0 -19 -53 -77q-10 -15 -15 -36z" />
    <glyph glyph-name="glyph323" unicode="&#x1eca;" horiz-adv-x="334" 
d="M69 0v712h196v-712h-196zM115 -169v124h120v-124h-120z" />
    <glyph glyph-name="glyph324" unicode="&#x1ecb;" horiz-adv-x="316" 
d="M64 0v603h188v-603h-188zM78 663v105h160v-105h-160zM99 -166v116h112v-116h-112z" />
    <glyph glyph-name="glyph325" unicode="&#x1ecc;" horiz-adv-x="778" 
d="M242 356q0 -106 32 -166.5t115 -60.5q147 0 147 227t-147 227q-83 0 -115 -60.5t-32 -166.5zM36 356q0 99 31 173.5t83 116.5t112 62.5t127 20.5q353 0 353 -373q0 -99 -29 -173.5t-79.5 -117t-111.5 -62.5t-133 -20q-67 0 -127 20.5t-112 62.5t-83 116.5t-31 173.5z
M335 -179v124h120v-124h-120z" />
    <glyph glyph-name="glyph326" unicode="&#x1ecd;" 
d="M32 301q0 139 74.5 227.5t217.5 88.5t217.5 -88.5t74.5 -227.5q0 -138 -74.5 -226.5t-217.5 -88.5t-217.5 88.5t-74.5 226.5zM224 301q0 -181 100 -181q32 0 53 14.5t31 43t13 56t3 67.5t-3 68t-13 56.5t-31 43t-53 14.5q-100 0 -100 -182zM269 -165v116h112v-116h-112z
" />
    <glyph glyph-name="glyph327" unicode="&#x1ece;" horiz-adv-x="778" 
d="M242 356q0 -106 32 -166.5t115 -60.5q147 0 147 227t-147 227q-83 0 -115 -60.5t-32 -166.5zM36 356q0 99 31 173.5t83 116.5t112 62.5t127 20.5q353 0 353 -373q0 -99 -29 -173.5t-79.5 -117t-111.5 -62.5t-133 -20q-67 0 -127 20.5t-112 62.5t-83 116.5t-31 173.5z
M434 771h-57q-2 26 19 57q29 44 29 57q0 22 -29 22q-15 0 -40 -22l-25 28q33 57 89 57q32 0 56 -12q30 -15 30 -67q0 -20 -56 -82q-12 -16 -16 -38z" />
    <glyph glyph-name="glyph328" unicode="&#x1ecf;" 
d="M32 301q0 139 74.5 227.5t217.5 88.5t217.5 -88.5t74.5 -227.5q0 -138 -74.5 -226.5t-217.5 -88.5t-217.5 88.5t-74.5 226.5zM224 301q0 -181 100 -181q32 0 53 14.5t31 43t13 56t3 67.5t-3 68t-13 56.5t-31 43t-53 14.5q-100 0 -100 -182zM366 667h-54q-2 23 18 54
q28 40 28 53q0 21 -28 21q-14 0 -37 -21l-24 26q31 54 84 54q29 0 53 -11q28 -13 28 -63q0 -19 -53 -77q-11 -15 -15 -36z" />
    <glyph glyph-name="glyph329" unicode="&#x1ed0;" horiz-adv-x="778" 
d="M259 764l84 104h114l84 -104h-101l-40 52l-40 -52h-101zM532 811l68 117h151v-1l-127 -116h-92zM242 356q0 -106 32 -166.5t115 -60.5q147 0 147 227t-147 227q-83 0 -115 -60.5t-32 -166.5zM36 356q0 99 31 173.5t83 116.5t112 62.5t127 20.5q353 0 353 -373
q0 -99 -29 -173.5t-79.5 -117t-111.5 -62.5t-133 -20q-67 0 -127 20.5t-112 62.5t-83 116.5t-31 173.5z" />
    <glyph glyph-name="glyph330" unicode="&#x1ed1;" 
d="M32 301q0 139 74.5 227.5t217.5 88.5t217.5 -88.5t74.5 -227.5q0 -138 -74.5 -226.5t-217.5 -88.5t-217.5 88.5t-74.5 226.5zM224 301q0 -181 100 -181q32 0 53 14.5t31 43t13 56t3 67.5t-3 68t-13 56.5t-31 43t-53 14.5q-100 0 -100 -182zM204 658l80 99h108l80 -99h-96
l-38 49l-38 -49h-96zM464 703l64 111h144v-1l-121 -110h-87z" />
    <glyph glyph-name="glyph331" unicode="&#x1ed2;" horiz-adv-x="778" 
d="M259 764l84 104h114l84 -104h-101l-40 52l-40 -52h-101zM198 926l68 -116h-92l-127 116h151zM242 356q0 -106 32 -166.5t115 -60.5q147 0 147 227t-147 227q-83 0 -115 -60.5t-32 -166.5zM36 356q0 99 31 173.5t83 116.5t112 62.5t127 20.5q353 0 353 -373
q0 -99 -29 -173.5t-79.5 -117t-111.5 -62.5t-133 -20q-67 0 -127 20.5t-112 62.5t-83 116.5t-31 173.5z" />
    <glyph glyph-name="glyph332" unicode="&#x1ed3;" 
d="M32 301q0 139 74.5 227.5t217.5 88.5t217.5 -88.5t74.5 -227.5q0 -138 -74.5 -226.5t-217.5 -88.5t-217.5 88.5t-74.5 226.5zM224 301q0 -181 100 -181q32 0 53 14.5t31 43t13 56t3 67.5t-3 68t-13 56.5t-31 43t-53 14.5q-100 0 -100 -182zM193 647l80 99h108l80 -99h-96
l-38 49l-38 -49h-96zM135 801l64 -110h-87l-121 110h144z" />
    <glyph glyph-name="glyph333" unicode="&#x1ed4;" horiz-adv-x="778" 
d="M259 764l84 104h114l84 -104h-101l-40 52l-40 -52h-101zM588 812h-54q-2 22 18 54q28 40 28 53q0 21 -28 21q-14 0 -37 -21l-24 26q31 54 84 54q29 0 53 -11q28 -13 28 -63q0 -19 -53 -77q-11 -15 -15 -36zM242 356q0 -106 32 -166.5t115 -60.5q147 0 147 227t-147 227
q-83 0 -115 -60.5t-32 -166.5zM36 356q0 99 31 173.5t83 116.5t112 62.5t127 20.5q353 0 353 -373q0 -99 -29 -173.5t-79.5 -117t-111.5 -62.5t-133 -20q-67 0 -127 20.5t-112 62.5t-83 116.5t-31 173.5z" />
    <glyph glyph-name="glyph334" unicode="&#x1ed5;" 
d="M32 301q0 139 74.5 227.5t217.5 88.5t217.5 -88.5t74.5 -227.5q0 -138 -74.5 -226.5t-217.5 -88.5t-217.5 88.5t-74.5 226.5zM224 301q0 -181 100 -181q32 0 53 14.5t31 43t13 56t3 67.5t-3 68t-13 56.5t-31 43t-53 14.5q-100 0 -100 -182zM192 653l80 99h108l80 -99h-96
l-38 49l-38 -49h-96zM504 698h-51q-1 21 17 52q27 38 27 50q0 20 -27 20q-12 0 -35 -20l-23 25q30 51 80 51q30 0 50 -10q27 -14 27 -60q0 -18 -50 -73q-10 -15 -15 -35z" />
    <glyph glyph-name="glyph335" unicode="&#x1ed6;" horiz-adv-x="778" 
d="M259 764l84 104h114l84 -104h-101l-40 52l-40 -52h-101zM496 999h56q-4 -21 -8.5 -35t-14 -31t-27.5 -26t-44 -9q-24 0 -58 15.5t-43 15.5q-20 0 -31 -32h-56q0 11 6.5 32t30 45.5t58.5 24.5q23 0 53.5 -16t45.5 -16h5.5t5 1t4 2t3 3t2.5 3t3 4.5t2.5 5t3 6.5zM242 356
q0 -106 32 -166.5t115 -60.5q147 0 147 227t-147 227q-83 0 -115 -60.5t-32 -166.5zM36 356q0 99 31 173.5t83 116.5t112 62.5t127 20.5q353 0 353 -373q0 -99 -29 -173.5t-79.5 -117t-111.5 -62.5t-133 -20q-67 0 -127 20.5t-112 62.5t-83 116.5t-31 173.5z" />
    <glyph glyph-name="glyph336" unicode="&#x1ed7;" 
d="M32 301q0 139 74.5 227.5t217.5 88.5t217.5 -88.5t74.5 -227.5q0 -138 -74.5 -226.5t-217.5 -88.5t-217.5 88.5t-74.5 226.5zM224 301q0 -181 100 -181q32 0 53 14.5t31 43t13 56t3 67.5t-3 68t-13 56.5t-31 43t-53 14.5q-100 0 -100 -182zM199 661l80 99h108l80 -99h-96
l-38 49l-38 -49h-96zM424 884h54q-4 -21 -8 -33.5t-13.5 -29t-26.5 -25t-42 -8.5q-22 0 -54.5 15t-41.5 15q-19 0 -29 -31h-53q0 7 4 20.5t13 32t28 31.5t45 13q21 0 50.5 -15t43.5 -15q4 0 6.5 0.5t5 2t4 2.5t3.5 4.5t3 5t4 7t4 8.5z" />
    <glyph glyph-name="glyph337" unicode="&#x1ed8;" horiz-adv-x="778" 
d="M259 764l84 104h114l84 -104h-101l-40 52l-40 -52h-101zM325 -179v124h120v-124h-120zM242 356q0 -106 32 -166.5t115 -60.5q147 0 147 227t-147 227q-83 0 -115 -60.5t-32 -166.5zM36 356q0 99 31 173.5t83 116.5t112 62.5t127 20.5q353 0 353 -373q0 -99 -29 -173.5
t-79.5 -117t-111.5 -62.5t-133 -20q-67 0 -127 20.5t-112 62.5t-83 116.5t-31 173.5z" />
    <glyph glyph-name="glyph338" unicode="&#x1ed9;" 
d="M32 301q0 139 74.5 227.5t217.5 88.5t217.5 -88.5t74.5 -227.5q0 -138 -74.5 -226.5t-217.5 -88.5t-217.5 88.5t-74.5 226.5zM224 301q0 -181 100 -181q32 0 53 14.5t31 43t13 56t3 67.5t-3 68t-13 56.5t-31 43t-53 14.5q-100 0 -100 -182zM196 657l80 98h108l80 -98h-96
l-38 49l-38 -49h-96zM253 -176v118h114v-118h-114z" />
    <glyph glyph-name="glyph339" unicode="&#x1eda;" horiz-adv-x="778" 
d="M679 602h-1q64 -88 64 -246q0 -99 -29 -173.5t-79.5 -117t-111.5 -62.5t-133 -20q-67 0 -127 20.5t-112 62.5t-83 116.5t-31 173.5t31 173.5t83 116.5t112 62.5t127 20.5q152 0 243 -77q38 22 45 39q9 19 3 31t-31 16q-24 5 -11 50l27 28q91 -1 118 -56q28 -52 -20 -107
q-31 -29 -84 -51zM242 356q0 -106 32 -166.5t115 -60.5q147 0 147 227t-147 227q-83 0 -115 -60.5t-32 -166.5zM333 769l72 123h159v-1l-134 -122h-97z" />
    <glyph glyph-name="glyph340" unicode="&#x1edb;" 
d="M616 301q0 -138 -74.5 -226.5t-217.5 -88.5t-217.5 88.5t-74.5 226.5q0 139 74.5 227.5t217.5 88.5q105 0 177 -53q24 15 28 25q9 18 3 29q-6 12 -29 15q-23 5 -11 48l26 27q86 -2 112 -53t-19 -102q-20 -19 -59 -39q64 -83 64 -213zM552 515v-1v1zM224 301
q0 -181 100 -181q32 0 53 14.5t31 43t13 56t3 67.5t-3 68t-13 56.5t-31 43t-53 14.5q-100 0 -100 -182zM280 663l68 115h149v-1l-126 -114h-91z" />
    <glyph glyph-name="glyph341" unicode="&#x1edc;" horiz-adv-x="778" 
d="M679 602h-1q64 -88 64 -246q0 -99 -29 -173.5t-79.5 -117t-111.5 -62.5t-133 -20q-67 0 -127 20.5t-112 62.5t-83 116.5t-31 173.5t31 173.5t83 116.5t112 62.5t127 20.5q152 0 243 -77q38 22 45 39q9 19 3 31t-31 16q-24 5 -11 50l27 28q91 -1 118 -56q28 -52 -20 -107
q-31 -29 -84 -51zM242 356q0 -106 32 -166.5t115 -60.5q147 0 147 227t-147 227q-83 0 -115 -60.5t-32 -166.5zM365 892l72 -122h-97l-134 122h159z" />
    <glyph glyph-name="glyph342" unicode="&#x1edd;" 
d="M616 301q0 -138 -74.5 -226.5t-217.5 -88.5t-217.5 88.5t-74.5 226.5q0 139 74.5 227.5t217.5 88.5q105 0 177 -53q24 15 28 25q9 18 3 29q-6 12 -29 15q-23 5 -11 48l26 27q86 -2 112 -53t-19 -102q-20 -19 -59 -39q64 -83 64 -213zM552 515v-1v1zM224 301
q0 -181 100 -181q32 0 53 14.5t31 43t13 56t3 67.5t-3 68t-13 56.5t-31 43t-53 14.5q-100 0 -100 -182zM322 778l68 -114h-91l-126 114h149z" />
    <glyph glyph-name="glyph343" unicode="&#x1ede;" horiz-adv-x="778" 
d="M679 602h-1q64 -88 64 -246q0 -99 -29 -173.5t-79.5 -117t-111.5 -62.5t-133 -20q-67 0 -127 20.5t-112 62.5t-83 116.5t-31 173.5t31 173.5t83 116.5t112 62.5t127 20.5q152 0 243 -77q38 22 45 39q9 19 3 31t-31 16q-24 5 -11 50l27 28q91 -1 118 -56q28 -52 -20 -107
q-31 -29 -84 -51zM242 356q0 -106 32 -166.5t115 -60.5q147 0 147 227t-147 227q-83 0 -115 -60.5t-32 -166.5zM444 771h-57q-2 26 19 57q29 44 29 57q0 22 -29 22q-15 0 -40 -22l-25 28q33 57 89 57q32 0 56 -12q30 -15 30 -67q0 -20 -56 -82q-12 -16 -16 -38z" />
    <glyph glyph-name="glyph344" unicode="&#x1edf;" 
d="M616 301q0 -138 -74.5 -226.5t-217.5 -88.5t-217.5 88.5t-74.5 226.5q0 139 74.5 227.5t217.5 88.5q105 0 177 -53q24 15 28 25q9 18 3 29q-6 12 -29 15q-23 5 -11 48l26 27q86 -2 112 -53t-19 -102q-20 -19 -59 -39q64 -83 64 -213zM552 514v1v-1zM224 301
q0 -181 100 -181q32 0 53 14.5t31 43t13 56t3 67.5t-3 68t-13 56.5t-31 43t-53 14.5q-100 0 -100 -182zM356 673h-54q-2 23 18 54q28 40 28 53q0 21 -28 21q-14 0 -37 -21l-24 26q31 54 84 54q29 0 53 -11q28 -13 28 -63q0 -19 -53 -77q-11 -15 -15 -36z" />
    <glyph glyph-name="glyph345" unicode="&#x1ee0;" horiz-adv-x="778" 
d="M679 602h-1q64 -88 64 -246q0 -99 -29 -173.5t-79.5 -117t-111.5 -62.5t-133 -20q-67 0 -127 20.5t-112 62.5t-83 116.5t-31 173.5t31 173.5t83 116.5t112 62.5t127 20.5q152 0 243 -77q38 22 45 39q9 19 3 31t-31 16q-24 5 -11 50l27 28q91 -1 118 -56q28 -52 -20 -107
q-31 -29 -84 -51zM242 356q0 -106 32 -166.5t115 -60.5q147 0 147 227t-147 227q-83 0 -115 -60.5t-32 -166.5zM490 875h60q-4 -22 -9 -37t-15.5 -33t-29.5 -27.5t-46 -9.5q-25 0 -61.5 16.5t-45.5 16.5q-22 0 -33 -34h-60q0 11 7 33.5t32 48.5t62 26q24 0 56.5 -17
t48.5 -17q3 0 6 0.5t5.5 1.5t4 1.5t3.5 3t3 3.5t3 5t2.5 5.5t3 6.5z" />
    <glyph glyph-name="glyph346" unicode="&#x1ee1;" 
d="M616 301q0 -138 -74.5 -226.5t-217.5 -88.5t-217.5 88.5t-74.5 226.5q0 139 74.5 227.5t217.5 88.5q105 0 177 -53q24 15 28 25q9 18 3 29q-6 12 -29 15q-23 5 -11 48l26 27q86 -2 112 -53t-19 -102q-20 -19 -59 -39q64 -83 64 -213zM552 515v-1v1zM224 301
q0 -181 100 -181q32 0 53 14.5t31 43t13 56t3 67.5t-3 68t-13 56.5t-31 43t-53 14.5q-100 0 -100 -182zM408 764h56q-4 -21 -8.5 -35t-14 -31t-27.5 -26t-44 -9q-24 0 -58 15.5t-43 15.5q-20 0 -31 -32h-56q0 11 6.5 32t30 45.5t58.5 24.5q23 0 53.5 -16t45.5 -16h5.5t5 1
t4 2t3 3t2.5 3t3 4.5t2.5 5t3 6.5z" />
    <glyph glyph-name="glyph347" unicode="&#x1ee2;" horiz-adv-x="778" 
d="M679 602h-1q64 -88 64 -246q0 -99 -29 -173.5t-79.5 -117t-111.5 -62.5t-133 -20q-67 0 -127 20.5t-112 62.5t-83 116.5t-31 173.5t31 173.5t83 116.5t112 62.5t127 20.5q152 0 243 -77q38 22 45 39q9 19 3 31t-31 16q-24 5 -11 50l27 28q91 -1 118 -56q28 -52 -20 -107
q-31 -29 -84 -51zM242 356q0 -106 32 -166.5t115 -60.5q147 0 147 227t-147 227q-83 0 -115 -60.5t-32 -166.5zM325 -179v124h120v-124h-120z" />
    <glyph glyph-name="glyph348" unicode="&#x1ee3;" 
d="M616 301q0 -138 -74.5 -226.5t-217.5 -88.5t-217.5 88.5t-74.5 226.5q0 139 74.5 227.5t217.5 88.5q105 0 177 -53q24 15 28 25q9 18 3 29q-6 12 -29 15q-23 5 -11 48l26 27q86 -2 112 -53t-19 -102q-20 -19 -59 -39q64 -83 64 -213zM552 514v1v-1zM224 301
q0 -181 100 -181q32 0 53 14.5t31 43t13 56t3 67.5t-3 68t-13 56.5t-31 43t-53 14.5q-100 0 -100 -182zM259 -175v116h112v-116h-112z" />
    <glyph glyph-name="glyph349" unicode="&#x1ee4;" horiz-adv-x="741" 
d="M66 264v448h196v-448q0 -135 110 -135q115 0 115 135v448h188v-448q0 -135 -78.5 -208t-224.5 -73q-65 0 -118 14.5t-96.5 46t-67.5 87.5t-24 133zM325 -179v124h120v-124h-120z" />
    <glyph glyph-name="glyph350" unicode="&#x1ee5;" 
d="M587 603v-603h-188v70q-63 -51 -99.5 -67.5t-87.5 -16.5q-151 0 -151 184v433h188v-397q0 -33 12 -49.5t44 -16.5q23 0 42 11t52 39v413h188zM259 -175v116h112v-116h-112z" />
    <glyph glyph-name="glyph351" unicode="&#x1ee6;" horiz-adv-x="741" 
d="M66 264v448h196v-448q0 -135 110 -135q115 0 115 135v448h188v-448q0 -135 -78.5 -208t-224.5 -73q-65 0 -118 14.5t-96.5 46t-67.5 87.5t-24 133zM414 761h-57q-2 26 19 57q29 44 29 57q0 22 -29 22q-15 0 -40 -22l-25 28q33 57 89 57q32 0 56 -12q30 -15 30 -67
q0 -20 -56 -82q-12 -16 -16 -38z" />
    <glyph glyph-name="glyph352" unicode="&#x1ee7;" 
d="M587 603v-603h-188v70q-63 -51 -99.5 -67.5t-87.5 -16.5q-151 0 -151 184v433h188v-397q0 -33 12 -49.5t44 -16.5q23 0 42 11t52 39v413h188zM346 673h-54q-2 23 18 54q28 40 28 53q0 21 -28 21q-14 0 -37 -21l-24 26q31 54 84 54q29 0 53 -11q28 -13 28 -63
q0 -19 -53 -77q-11 -15 -15 -36z" />
    <glyph glyph-name="glyph353" unicode="&#x1ee8;" horiz-adv-x="741" 
d="M675 652v-388q0 -135 -78.5 -208t-224.5 -73q-65 0 -118 14.5t-96.5 46t-67.5 87.5t-24 133v448h196v-448q0 -135 110 -135q115 0 115 135v448q11 -2 36 -6.5t36.5 -6t36 -3t36.5 2.5q45 14 49 37q1 20 -27 24t-18 50q16 25 42 28q66 -10 85 -55q19 -44 -7 -90
q-31 -31 -81 -41zM333 769l72 123h159v-1l-134 -122h-97z" />
    <glyph glyph-name="glyph354" unicode="&#x1ee9;" 
d="M588 529h-1v-529h-188v70q-63 -51 -99.5 -67.5t-87.5 -16.5q-151 0 -151 184v433h188v-397q0 -33 12 -49.5t44 -16.5q23 0 42 11t52 39v413q104 -13 162 -9q39 4 44 21q1 10 -5.5 15.5t-20.5 7.5q-27 5 -17 48q17 23 40 26q64 -9 83 -52t-9 -85q-26 -27 -88 -46zM260 663
l68 115h149v-1l-126 -114h-91z" />
    <glyph glyph-name="glyph355" unicode="&#x1eea;" horiz-adv-x="741" 
d="M675 652v-388q0 -135 -78.5 -208t-224.5 -73q-65 0 -118 14.5t-96.5 46t-67.5 87.5t-24 133v448h196v-448q0 -135 110 -135q115 0 115 135v448q11 -2 36 -6.5t36.5 -6t36 -3t36.5 2.5q45 14 49 37q1 20 -27 24t-18 50q16 25 42 28q66 -10 85 -55q19 -44 -7 -90
q-31 -31 -81 -41zM365 892l72 -122h-97l-134 122h159z" />
    <glyph glyph-name="glyph356" unicode="&#x1eeb;" 
d="M588 529h-1v-529h-188v70q-63 -51 -99.5 -67.5t-87.5 -16.5q-151 0 -151 184v433h188v-397q0 -33 12 -49.5t44 -16.5q23 0 42 11t52 39v413q104 -13 162 -9q39 4 44 21q1 10 -5.5 15.5t-20.5 7.5q-27 5 -17 48q17 23 40 26q64 -9 83 -52t-9 -85q-26 -27 -88 -46zM322 778
l68 -114h-91l-126 114h149z" />
    <glyph glyph-name="glyph357" unicode="&#x1eec;" horiz-adv-x="741" 
d="M675 652v-388q0 -135 -78.5 -208t-224.5 -73q-65 0 -118 14.5t-96.5 46t-67.5 87.5t-24 133v448h196v-448q0 -135 110 -135q115 0 115 135v448q11 -2 36 -6.5t36.5 -6t36 -3t36.5 2.5q45 14 49 37q1 20 -27 24t-18 50q16 25 42 28q66 -10 85 -55q19 -44 -7 -90
q-31 -31 -81 -41zM424 761h-57q-2 26 19 57q29 44 29 57q0 22 -29 22q-15 0 -40 -22l-25 28q33 57 89 57q32 0 56 -12q30 -15 30 -67q0 -20 -56 -82q-12 -16 -16 -38z" />
    <glyph glyph-name="glyph358" unicode="&#x1eed;" 
d="M588 529h-1v-529h-188v70q-63 -51 -99.5 -67.5t-87.5 -16.5q-151 0 -151 184v433h188v-397q0 -33 12 -49.5t44 -16.5q23 0 42 11t52 39v413q104 -13 162 -9q39 4 44 21q1 10 -5.5 15.5t-20.5 7.5q-27 5 -17 48q17 23 40 26q64 -9 83 -52t-9 -85q-26 -27 -88 -46zM346 673
h-54q-2 23 18 54q28 40 28 53q0 21 -28 21q-14 0 -37 -21l-24 26q31 54 84 54q29 0 53 -11q28 -13 28 -63q0 -19 -53 -77q-11 -15 -15 -36z" />
    <glyph glyph-name="glyph359" unicode="&#x1eee;" horiz-adv-x="741" 
d="M675 652v-388q0 -135 -78.5 -208t-224.5 -73q-65 0 -118 14.5t-96.5 46t-67.5 87.5t-24 133v448h196v-448q0 -135 110 -135q115 0 115 135v448q11 -2 36 -6.5t36.5 -6t36 -3t36.5 2.5q45 14 49 37q1 20 -27 24t-18 50q16 25 42 28q66 -10 85 -55q19 -44 -7 -90
q-31 -31 -81 -41zM480 875h60q-4 -22 -9 -37t-15.5 -33t-29.5 -27.5t-46 -9.5q-25 0 -61.5 16.5t-45.5 16.5q-22 0 -33 -34h-60q0 11 7 33.5t32 48.5t62 26q24 0 56.5 -17t48.5 -17q3 0 6 0.5t5.5 1.5t4 1.5t3.5 3t3 3.5t3 5t2.5 5.5t3 6.5z" />
    <glyph glyph-name="glyph360" unicode="&#x1eef;" 
d="M588 529h-1v-529h-188v70q-63 -51 -99.5 -67.5t-87.5 -16.5q-151 0 -151 184v433h188v-397q0 -33 12 -49.5t44 -16.5q23 0 42 11t52 39v413q104 -13 162 -9q39 4 44 21q1 10 -5.5 15.5t-20.5 7.5q-27 5 -17 48q17 23 40 26q64 -9 83 -52t-9 -85q-26 -27 -88 -46zM398 764
h56q-4 -21 -8.5 -35t-14 -31t-27.5 -26t-44 -9q-24 0 -58 15.5t-43 15.5q-20 0 -31 -32h-56q0 11 6.5 32t30 45.5t58.5 24.5q23 0 53.5 -16t45.5 -16h5.5t5 1t4 2t3 3t2.5 3t3 4.5t2.5 5t3 6.5z" />
    <glyph glyph-name="glyph361" unicode="&#x1ef0;" horiz-adv-x="741" 
d="M675 652v-388q0 -135 -78.5 -208t-224.5 -73q-65 0 -118 14.5t-96.5 46t-67.5 87.5t-24 133v448h196v-448q0 -135 110 -135q115 0 115 135v448q11 -2 36 -6.5t36.5 -6t36 -3t36.5 2.5q45 14 49 37q1 20 -27 24t-18 50q16 25 42 28q66 -10 85 -55q19 -44 -7 -90
q-31 -31 -81 -41zM315 -179v124h120v-124h-120z" />
    <glyph glyph-name="glyph362" unicode="&#x1ef1;" 
d="M588 529h-1v-529h-188v70q-63 -51 -99.5 -67.5t-87.5 -16.5q-151 0 -151 184v433h188v-397q0 -33 12 -49.5t44 -16.5q23 0 42 11t52 39v413q104 -13 162 -9q39 4 44 21q1 10 -5.5 15.5t-20.5 7.5q-27 5 -17 48q17 23 40 26q64 -9 83 -52t-9 -85q-26 -27 -88 -46z
M279 -165v116h112v-116h-112z" />
    <glyph glyph-name="glyph363" unicode="&#x1ef2;" horiz-adv-x="722" 
d="M263 0v264l-259 448h224l97 -186q26 -50 39 -101h5q7 25 43 108l90 179h216l-259 -448v-264h-196zM365 892l72 -122h-97l-134 122h159z" />
    <glyph glyph-name="glyph364" unicode="&#x1ef3;" horiz-adv-x="593" 
d="M209 17l-207 586h200l65 -248q25 -98 29 -170h10q5 111 31 184l69 234h185l-208 -623q-10 -30 -17.5 -48.5t-25.5 -47t-41 -45t-61.5 -29t-87.5 -12.5q-39 0 -113 17l9 141q36 -15 69 -15q75 0 94 76zM322 778l68 -114h-91l-126 114h149z" />
    <glyph glyph-name="glyph365" unicode="&#x1ef4;" horiz-adv-x="722" 
d="M263 0v264l-259 448h224l97 -186q26 -50 39 -101h5q7 25 43 108l90 179h216l-259 -448v-264h-196zM315 -169v124h120v-124h-120z" />
    <glyph glyph-name="glyph366" unicode="&#x1ef5;" horiz-adv-x="593" 
d="M209 17l-207 586h200l65 -248q25 -98 29 -170h10q5 111 31 184l69 234h185l-208 -623q-10 -30 -17.5 -48.5t-25.5 -47t-41 -45t-61.5 -29t-87.5 -12.5q-39 0 -113 17l9 141q36 -15 69 -15q75 0 94 76zM415 -171v116h112v-116h-112z" />
    <glyph glyph-name="glyph367" unicode="&#x1ef6;" horiz-adv-x="722" 
d="M263 0v264l-259 448h224l97 -186q26 -50 39 -101h5q7 25 43 108l90 179h216l-259 -448v-264h-196zM424 751h-57q-2 26 19 57q29 44 29 57q0 22 -29 22q-15 0 -40 -22l-25 28q33 57 89 57q32 0 56 -12q30 -15 30 -67q0 -20 -56 -82q-12 -16 -16 -38z" />
    <glyph glyph-name="glyph368" unicode="&#x1ef7;" horiz-adv-x="593" 
d="M209 17l-207 586h200l65 -248q25 -98 29 -170h10q5 111 31 184l69 234h185l-208 -623q-10 -30 -17.5 -48.5t-25.5 -47t-41 -45t-61.5 -29t-87.5 -12.5q-39 0 -113 17l9 141q36 -15 69 -15q75 0 94 76zM346 673h-54q-2 23 18 54q28 40 28 53q0 21 -28 21q-14 0 -37 -21
l-24 26q31 54 84 54q29 0 53 -11q28 -13 28 -63q0 -19 -53 -77q-11 -15 -15 -36z" />
    <glyph glyph-name="glyph369" unicode="&#x1ef8;" horiz-adv-x="722" 
d="M263 0v264l-259 448h224l97 -186q26 -50 39 -101h5q7 25 43 108l90 179h216l-259 -448v-264h-196zM480 875h60q-4 -22 -9 -37t-15.5 -33t-29.5 -27.5t-46 -9.5q-25 0 -61.5 16.5t-45.5 16.5q-22 0 -33 -34h-60q0 11 7 33.5t32 48.5t62 26q24 0 56.5 -17t48.5 -17
q3 0 6 0.5t5.5 1.5t4 1.5t3.5 3t3 3.5t3 5t2.5 5.5t3 6.5z" />
    <glyph glyph-name="glyph370" unicode="&#x1ef9;" horiz-adv-x="593" 
d="M209 17l-207 586h200l65 -248q25 -98 29 -170h10q5 111 31 184l69 234h185l-208 -623q-10 -30 -17.5 -48.5t-25.5 -47t-41 -45t-61.5 -29t-87.5 -12.5q-39 0 -113 17l9 141q36 -15 69 -15q75 0 94 76zM398 764h56q-4 -21 -8.5 -35t-14 -31t-27.5 -26t-44 -9
q-24 0 -58 15.5t-43 15.5q-20 0 -31 -32h-56q0 11 6.5 32t30 45.5t58.5 24.5q23 0 53.5 -16t45.5 -16h5.5t5 1t4 2t3 3t2.5 3t3 4.5t2.5 5t3 6.5z" />
    <glyph glyph-name="endash" unicode="&#x2013;" horiz-adv-x="500" 
d="M0 251v112h500v-112h-500z" />
    <glyph glyph-name="emdash" unicode="&#x2014;" horiz-adv-x="1000" 
d="M0 251v112h1000v-112h-1000z" />
    <glyph glyph-name="quoteleft" unicode="&#x2018;" horiz-adv-x="296" 
d="M191 507h-153l94 270h133z" />
    <glyph glyph-name="quoteright" unicode="&#x2019;" horiz-adv-x="296" 
d="M105 777h153l-94 -270h-133z" />
    <glyph glyph-name="quotesinglbase" unicode="&#x201a;" horiz-adv-x="296" 
d="M105 154h153l-94 -270h-133z" />
    <glyph glyph-name="quotedblleft" unicode="&#x201c;" horiz-adv-x="537" 
d="M373 777h133l-74 -270h-153zM132 777h133l-74 -270h-153z" />
    <glyph glyph-name="quotedblright" unicode="&#x201d;" horiz-adv-x="537" 
d="M164 507h-133l74 270h153zM405 507h-133l74 270h153z" />
    <glyph glyph-name="quotedblbase" unicode="&#x201e;" horiz-adv-x="537" 
d="M164 -116h-133l74 270h153zM405 -116h-133l74 270h153z" />
    <glyph glyph-name="dagger" unicode="&#x2020;" horiz-adv-x="592" 
d="M208 528v184h176v-184h176v-146h-176v-508h-176v508h-176v146h176z" />
    <glyph glyph-name="daggerdbl" unicode="&#x2021;" horiz-adv-x="592" 
d="M208 547v165h176v-165h159v-140h-159v-228h159v-140h-159v-165h-176v165h-159v140h159v228h-159v140h159z" />
    <glyph glyph-name="bullet" unicode="&#x2022;" horiz-adv-x="500" 
d="M72 356q0 74 52 126t126 52t126 -52t52 -126t-52 -126t-126 -52t-126 52t-52 126z" />
    <glyph glyph-name="ellipsis" unicode="&#x2026;" horiz-adv-x="1000" 
d="M92 0v154h150v-154h-150zM425 0v154h150v-154h-150zM758 0v154h150v-154h-150z" />
    <glyph glyph-name="perthousand" unicode="&#x2030;" horiz-adv-x="1111" 
d="M188 353q-86 0 -124 53.5t-38 134.5t38 134.5t124 53.5t124 -53.5t38 -134.5t-38 -134.5t-124 -53.5zM188 428q54 0 54 113t-54 113t-54 -113t54 -113zM923 -14q-86 0 -124 53.5t-38 134.5t38 134.5t124 53.5t124 -53.5t38 -134.5t-38 -134.5t-124 -53.5zM923 61
q54 0 54 113t-54 113t-54 -113t54 -113zM559 -14q-86 0 -124 53.5t-38 134.5t38 134.5t124 53.5t124 -53.5t38 -134.5t-38 -134.5t-124 -53.5zM559 61q54 0 54 113t-54 113t-54 -113t54 -113zM134 -24l389 763h90l-389 -763h-90z" />
    <glyph glyph-name="guilsinglleft" unicode="&#x2039;" horiz-adv-x="333" 
d="M23 307l191 252l96 -64l-127 -188l127 -188l-96 -64z" />
    <glyph glyph-name="guilsinglright" unicode="&#x203a;" horiz-adv-x="333" 
d="M119 559l191 -252l-191 -252l-96 64l127 188l-127 188z" />
    <glyph glyph-name="fraction" unicode="&#x2044;" horiz-adv-x="167" 
d="M331 705l-444 -719h-51l444 719h51z" />
    <glyph glyph-name="franc" unicode="&#x20a3;" horiz-adv-x="1035" 
d="M66 0v712h497v-146h-301v-150h292v-146h-292v-270h-196zM718 0v603h188v-97h2q26 51 75 77.5t87 26.5q18 0 34 -3v-169q-20 9 -61 9q-89 0 -137 -67v-380h-188z" />
    <glyph glyph-name="u20AB" unicode="&#x20ab;" horiz-adv-x="393" 
d="M197 501q-48 0 -84 -88q-20 -51 -20 -90q0 -51 39 -51q41 0 74 71q28 59 28 107q0 51 -37 51zM200 267q-53 -62 -106 -62q-44 0 -67.5 28t-23.5 74q0 79 55 152q60 79 136 79q34 0 61 -24l20 75h-100l10 36h100l2 16q0 31 -48 32l7 33q60 1 128 14q12 3 15 3q6 0 6 -9
q-1 -3 -3 -12l-19 -77h65l-10 -36h-65l-69 -280q-5 -25 -5 -27q0 -15 12 -15q6 0 49 42l20 -18q-71 -86 -117 -86q-42 0 -53 62zM9 104v56h221v-56h-221z" />
    <glyph glyph-name="Euro" unicode="&#x20ac;" horiz-adv-x="592" 
d="M203 358q0 97 10.5 151t29.5 74t53 20t53 -20t29.5 -74t10.5 -151q0 -139 -21 -192.5t-72 -53.5t-72 53.5t-21 192.5zM21 358q0 78 12 140t41 116.5t85 84.5t137 30t137 -30t85 -84.5t41 -116.5t12 -140q0 -372 -275 -372t-275 372zM549 305v120h-506v-120h506zM549 201
v-120h-506v120h506z" />
    <glyph glyph-name="trademark" unicode="&#x2122;" horiz-adv-x="1000" 
d="M380 712v-90h-112v-322h-120v322h-112v90h344zM630 712l89 -239l89 239h156v-412h-112l4 272h-2l-91 -272h-88l-91 272h-2l4 -272h-112v412h156z" />
    <glyph glyph-name="partialdiff" unicode="&#x2202;" horiz-adv-x="1000" 
 />
    <glyph glyph-name="product" unicode="&#x220f;" horiz-adv-x="1000" 
 />
    <glyph glyph-name="summation" unicode="&#x2211;" horiz-adv-x="1000" 
 />
    <glyph glyph-name="minus" unicode="&#x2212;" horiz-adv-x="660" 
d="M580 220h-500v60h500v-60z" />
    <glyph glyph-name="radical" unicode="&#x221a;" horiz-adv-x="1000" 
 />
    <glyph glyph-name="infinity" unicode="&#x221e;" horiz-adv-x="1000" 
 />
    <glyph glyph-name="integral" unicode="&#x222b;" horiz-adv-x="1000" 
 />
    <glyph glyph-name="approxequal" unicode="&#x2248;" horiz-adv-x="1000" 
 />
    <glyph glyph-name="approxequal" unicode="&#x22f2;" horiz-adv-x="1000" 
 />
    <glyph glyph-name="notequal" unicode="&#x2260;" horiz-adv-x="1000" 
 />
    <glyph glyph-name="lessequal" unicode="&#x2264;" horiz-adv-x="1000" 
 />
    <glyph glyph-name="greaterequal" unicode="&#x2265;" horiz-adv-x="1000" 
 />
    <glyph glyph-name="SF370000" unicode="&#x255f;" horiz-adv-x="718" 
d="M291 286h174l-54 167q-21 61 -29 113h-4q-9 -52 -31 -113zM509 712l249 -712h-206l-43 146h-265l-47 -146h-196l261 712h247z" />
    <glyph glyph-name="SF420000" unicode="&#x2560;" horiz-adv-x="681" 
d="M66 0v712h495v-146h-303v-132h285v-146h-285v-142h314v-146h-506z" />
    <glyph glyph-name="SF190000" unicode="&#x2561;" horiz-adv-x="429" 
d="M69 0v712h196v-712h-196z" />
    <glyph glyph-name="SF200000" unicode="&#x2562;" horiz-adv-x="773" 
d="M242 356q0 -106 32 -166.5t115 -60.5q147 0 147 227t-147 227q-83 0 -115 -60.5t-32 -166.5zM36 356q0 99 31 173.5t83 116.5t112 62.5t127 20.5q353 0 353 -373q0 -99 -29 -173.5t-79.5 -117t-111.5 -62.5t-133 -20q-67 0 -127 20.5t-112 62.5t-83 116.5t-31 173.5z" />
    <glyph glyph-name="SF230000" unicode="&#x2563;" horiz-adv-x="811" 
d="M66 264v448h196v-448q0 -135 110 -135q115 0 115 135v448h188v-448q0 -135 -78.5 -208t-224.5 -73q-65 0 -118 14.5t-96.5 46t-67.5 87.5t-24 133z" />
    <glyph glyph-name="SF470000" unicode="&#x2564;" horiz-adv-x="699" 
d="M263 0v264l-259 448h224l97 -186q26 -50 39 -101h5q7 25 43 108l90 179h216l-259 -448v-264h-196z" />
    <glyph glyph-name="SF480000" unicode="&#x2565;" horiz-adv-x="541" 
d="M552 358v-252q0 -69 4 -106h-182q0 10 -2 37.5t-2 40.5h-3q-92 -92 -170 -92q-48 0 -83 18t-53.5 46.5t-27 58t-8.5 59.5q0 106 78 161t193 55q44 0 71 -4v19q0 46 -16 69t-58 23q-66 0 -82 -81l-167 48q4 14 10 28t25 39.5t45 44t73 33t105 14.5q138 0 194 -67.5
t56 -191.5zM267 130q42 0 100 49v87q-31 4 -65 4q-44 0 -69.5 -21.5t-25.5 -59.5q0 -26 17 -42.5t43 -16.5z" />
    <glyph glyph-name="SF410000" unicode="&#x2566;" horiz-adv-x="431" 
d="M315 617q126 0 204.5 -79.5t78.5 -239.5v-48h-374q0 -17 0.5 -29.5t5.5 -33t14.5 -33.5t28.5 -23.5t45 -10.5q28 0 49 13.5t29 26.5t17 33l159 -52q-39 -84 -100.5 -119.5t-156.5 -35.5q-68 0 -120.5 22.5t-82.5 56t-49 78t-25 82t-6 74.5q0 138 74 228t209 90zM224 373
h189q-9 118 -91 118q-31 0 -52 -12.5t-30 -33t-12.5 -37.5t-3.5 -35z" />
    <glyph glyph-name="SF450000" unicode="&#x2567;" horiz-adv-x="314" 
d="M64 0v603h188v-603h-188zM64 654v123h188v-123h-188z" />
    <glyph glyph-name="SF460000" unicode="&#x2568;" horiz-adv-x="314" 
d="M138 518v-518h-60v518h60z" />
    <glyph glyph-name="SF400000" unicode="&#x2569;" horiz-adv-x="498" 
d="M32 301q0 139 74.5 227.5t217.5 88.5t217.5 -88.5t74.5 -227.5q0 -138 -74.5 -226.5t-217.5 -88.5t-217.5 88.5t-74.5 226.5zM224 301q0 -181 100 -181q32 0 53 14.5t31 43t13 56t3 67.5t-3 68t-13 56.5t-31 43t-53 14.5q-100 0 -100 -182z" />
    <glyph glyph-name="SF540000" unicode="&#x256a;" horiz-adv-x="557" 
d="M587 603v-603h-188v70q-63 -51 -99.5 -67.5t-87.5 -16.5q-151 0 -151 184v433h188v-397q0 -33 12 -49.5t44 -16.5q23 0 42 11t52 39v413h188z" />
    <glyph glyph-name="SF530000" unicode="&#x256b;" horiz-adv-x="497" 
d="M209 17l-207 586h200l65 -248q25 -98 29 -170h10q5 111 31 184l69 234h185l-208 -623q-10 -30 -17.5 -48.5t-25.5 -47t-41 -45t-61.5 -29t-87.5 -12.5q-39 0 -113 17l9 141q36 -15 69 -15q75 0 94 76z" />
    <glyph glyph-name="lozenge" unicode="&#x25ca;" horiz-adv-x="1000" 
 />
    <glyph glyph-name="circle" unicode="&#x25cb;" horiz-adv-x="718" 
d="M164 894l121 150h164l121 -150h-146l-57 75l-57 -75h-146zM235 1082l97 150h212v-2l-179 -148h-130z" />
    <glyph glyph-name="H18533" unicode="&#x25cf;" horiz-adv-x="718" 
d="M164 894l121 150h164l121 -150h-146l-57 75l-57 -75h-146zM459 1233l97 -150h-130l-179 150h212z" />
    <glyph glyph-name="invbullet" unicode="&#x25d8;" horiz-adv-x="718" 
d="M164 894l121 150h164l121 -150h-146l-57 75l-57 -75h-146zM647 903h-33q10 32 11 64q2 12 8 13q4 0 8 1q67 10 67 54q0 35 -28 35q-4 0 -15 -1t-13 -1q-21 0 -21 18q0 28 32 28q47 0 76.5 -26.5t25.5 -69.5q-6 -58 -87 -81q-25 -7 -31 -34z" />
    <glyph glyph-name="invcircle" unicode="&#x25d9;" horiz-adv-x="718" 
d="M164 894l121 150h164l121 -150h-146l-57 75l-57 -75h-146zM532 1222h78q-7 -32 -12 -47.5t-19 -40t-38.5 -36t-60.5 -11.5q-34 0 -81 19.5t-59 19.5q-29 0 -44 -44h-78q32 140 131 140q32 0 75 -19.5t63 -19.5q12 0 20 4.5t12 11t13 23.5z" />
    <glyph glyph-name="apple" unicode="&#xf000;" horiz-adv-x="1000" 
 />
    <glyph glyph-name="fi" unicode="&#xf001;" horiz-adv-x="500" 
d="M92 0v468h-79v50h79v82q0 134 110 134q31 0 50 -4v-55q-22 5 -36 5q-42 0 -55 -31q-9 -19 -9 -67v-64h98v-50h-98v-468h-60zM432 518v-518h-60v518h60zM369 720h66v-89h-66v89z" />
    <glyph glyph-name="fl" unicode="&#xf002;" horiz-adv-x="500" 
d="M92 0v468h-79v50h79v82q0 134 110 134q31 0 50 -4v-55q-22 5 -36 5q-42 0 -55 -31q-9 -19 -9 -67v-64h98v-50h-98v-468h-60zM432 720v-720h-60v720h60z" />
    <glyph glyph-name="NULL" horiz-adv-x="296" 
 />
    <glyph glyph-name="CR.001" horiz-adv-x="316" 
d="M64 0v603h188v-603h-188z" />
    <glyph glyph-name="percent.001" horiz-adv-x="833" 
 />
    <glyph glyph-name="middot" horiz-adv-x="537" 
d="M1 184v90l65 43v395h196v-267l173 113v-90l-173 -113v-205h265v-150h-461v227z" />
    <glyph glyph-name="HT" horiz-adv-x="316" 
d="M64 374v403h188v-267l64 46v-90l-64 -46v-420h-188v284l-64 -47v90z" />
    <glyph glyph-name="LF" horiz-adv-x="278" 
d="M342 812l-121 -150h-164l-121 150h146l57 -75l57 75h146z" />
    <glyph glyph-name="CR" horiz-adv-x="278" 
d="M-44 812h81q7 -35 27.5 -51t74.5 -16q52 0 74 16.5t28 50.5h81q-8 -82 -51 -119.5t-132 -37.5t-132 37.5t-51 119.5z" />
    <glyph glyph-name="DLE" horiz-adv-x="278" 
d="M51 654v123h176v-123h-176z" />
    <glyph glyph-name="DC1" horiz-adv-x="278" 
d="M84 767q0 -23 16 -39t39 -16t39 16t16 39t-16 39t-39 16t-39 -16t-16 -39zM18 767q0 50 35.5 85.5t85.5 35.5t85.5 -35.5t35.5 -85.5t-35.5 -85.5t-85.5 -35.5t-85.5 35.5t-35.5 85.5z" />
    <glyph glyph-name="DC2" horiz-adv-x="278" 
d="M141 -54l77 54h89l-62 -57q-31 -30 -31 -55q0 -15 13.5 -29t41.5 -14q19 0 62 16v-60q-57 -31 -130 -31q-52 0 -86.5 24t-34.5 69q0 38 61 83z" />
    <glyph glyph-name="DC3" horiz-adv-x="278" 
d="M-115 662l97 150h212v-2l-179 -148h-130zM145 662l97 150h212v-2l-179 -148h-130z" />
    <glyph glyph-name="DC4" horiz-adv-x="167" 
d="M-156 -24l389 763h90l-389 -763h-90z" />
    <glyph glyph-name="RS" horiz-adv-x="600" 
d="M553 193h-506v120h506v-120z" />
    <glyph glyph-name="US" horiz-adv-x="722" 
d="M470 0v603h188v-603h-188zM470 654v123h188v-123h-188zM97 0v425h-87v130h87v35q0 222 233 222q40 0 98 -12v-123q-43 9 -68 9q-35 0 -55 -22.5t-20 -60.5v-48h121v-130h-121v-425h-188z" />
    <glyph glyph-name="DEL" horiz-adv-x="722" 
d="M470 0v777h188v-777h-188zM97 0v425h-87v130h87v35q0 222 233 222q40 0 98 -12v-123q-43 9 -68 9q-35 0 -55 -22.5t-20 -60.5v-48h121v-130h-121v-425h-188z" />
    <glyph glyph-name="glyph275" horiz-adv-x="249" 
 />
    <glyph glyph-name="glyph276" horiz-adv-x="249" 
 />
    <glyph glyph-name="glyph261" horiz-adv-x="500" 
d="M286 522h-33q10 32 11 64q2 12 8 13q4 0 8 1q67 10 67 54q0 35 -28 35q-4 0 -15 -1t-13 -1q-21 0 -21 18q0 28 32 28q47 0 76.5 -26.5t25.5 -69.5q-6 -59 -87 -81q-25 -7 -31 -34z" />
    <glyph glyph-name="glyph262" horiz-adv-x="541" 
d="M-39 662l121 150h164l121 -150h-146l-57 75l-57 -75h-146zM33 851l97 150h212v-2l-179 -148h-130z" />
    <glyph glyph-name="glyph263" horiz-adv-x="541" 
d="M-39 662l121 150h164l121 -150h-146l-57 75l-57 -75h-146zM256 1001l97 -150h-130l-179 150h212z" />
    <glyph glyph-name="glyph264" horiz-adv-x="541" 
d="M-39 662l121 150h164l121 -150h-146l-57 75l-57 -75h-146zM444 671h-33q10 32 11 64q2 12 8 13q4 0 8 1q67 10 67 54q0 35 -28 35q-4 0 -15 -1t-13 -1q-21 0 -21 18q0 28 32 28q47 0 76.5 -26.5t25.5 -69.5q-6 -58 -87 -81q-25 -7 -31 -34z" />
    <glyph glyph-name="glyph265" horiz-adv-x="541" 
d="M-39 662l121 150h164l121 -150h-146l-57 75l-57 -75h-146zM329 990h78q-7 -32 -12 -47.5t-19 -40t-38.5 -36t-60.5 -11.5q-34 0 -81 19.5t-59 19.5q-29 0 -44 -44h-78q32 140 131 140q32 0 75 -19.5t63 -19.5q12 0 20 4.5t12 11t13 23.5z" />
    <glyph glyph-name="glyph266" horiz-adv-x="541" 
d="M58 706h39q17 -81 105 -81t107 81h37q-14 -126 -149 -126q-60 0 -97.5 33.5t-41.5 92.5zM110 851l97 150h212v-2l-179 -148h-130z" />
    <glyph glyph-name="glyph267" horiz-adv-x="541" 
d="M58 706h39q17 -81 105 -81t107 81h37q-14 -126 -149 -126q-60 0 -97.5 33.5t-41.5 92.5zM203 1001l97 -150h-130l-179 150h212z" />
    <glyph glyph-name="glyph268" horiz-adv-x="541" 
d="M58 706h39q17 -81 105 -81t107 81h37q-14 -126 -149 -126q-60 0 -97.5 33.5t-41.5 92.5zM339 671h-33q10 32 11 64q2 12 8 13q4 0 8 1q67 10 67 54q0 35 -28 35q-4 0 -15 -1t-13 -1q-21 0 -21 18q0 28 32 28q47 0 76.5 -26.5t25.5 -69.5q-6 -58 -87 -81q-25 -7 -31 -34z
" />
    <glyph glyph-name="glyph269" horiz-adv-x="541" 
d="M58 706h39q17 -81 105 -81t107 81h37q-14 -126 -149 -126q-60 0 -97.5 33.5t-41.5 92.5zM329 990h78q-7 -32 -12 -47.5t-19 -40t-38.5 -36t-60.5 -11.5q-34 0 -81 19.5t-59 19.5q-29 0 -44 -44h-78q32 140 131 140q32 0 75 -19.5t63 -19.5q12 0 20 4.5t12 11t13 23.5z
" />
    <glyph glyph-name="glyph270" horiz-adv-x="249" 
 />
    <glyph glyph-name="_403" horiz-adv-x="500" 
 />
    <glyph glyph-name="_405" horiz-adv-x="500" 
 />
    <glyph glyph-name="_406" horiz-adv-x="500" 
 />
    <glyph glyph-name="_407" horiz-adv-x="500" 
 />
    <glyph glyph-name="_408" horiz-adv-x="500" 
 />
    <glyph glyph-name="_409" horiz-adv-x="500" 
 />
  </font>
</defs>
</svg>
